<?xml version="1.0" encoding="utf-8" standalone="no"?>
<!DOCTYPE svg PUBLIC "-//W3C//DTD SVG 1.1//EN"
  "http://www.w3.org/Graphics/SVG/1.1/DTD/svg11.dtd">
<svg xmlns:xlink="http://www.w3.org/1999/xlink" width="360pt" height="360pt" viewBox="0 0 360 360" xmlns="http://www.w3.org/2000/svg" version="1.1">
 <metadata>
  <rdf:RDF xmlns:dc="http://purl.org/dc/elements/1.1/" xmlns:cc="http://creativecommons.org/ns#" xmlns:rdf="http://www.w3.org/1999/02/22-rdf-syntax-ns#">
   <cc:Work>
    <dc:type rdf:resource="http://purl.org/dc/dcmitype/StillImage"/>
    <dc:date>2022-11-02T12:48:04.747434</dc:date>
    <dc:format>image/svg+xml</dc:format>
    <dc:creator>
     <cc:Agent>
      <dc:title>Matplotlib v3.6.1, https://matplotlib.org/</dc:title>
     </cc:Agent>
    </dc:creator>
   </cc:Work>
  </rdf:RDF>
 </metadata>
 <defs>
  <style type="text/css">*{stroke-linejoin: round; stroke-linecap: butt}</style>
 </defs>
 <g id="figure_1">
  <g id="patch_1">
   <path d="M 0 360 
L 360 360 
L 360 0 
L 0 0 
z
" style="fill: #ffffff"/>
  </g>
  <g id="axes_1">
   <g id="line2d_1">
    <path d="M 72.327273 308.181818 
L 72.210153 305.99314 
L 71.860132 303.829459 
L 71.281208 301.715488 
L 70.479992 299.67537 
L 69.465635 297.732406 
L 68.249722 295.908787 
L 66.846141 294.225341 
L 65.270922 292.701295 
L 63.542057 291.354056 
L 61.67929 290.199011 
L 59.703897 289.249351 
L 57.63844 288.515924 
L 55.506509 288.007105 
L 53.332452 287.728706 
L 51.1411 287.683907 
L 48.957481 287.873219 
L 46.806535 288.29448 
L 44.712829 288.942879 
L 42.700274 289.811011 
L 40.791857 290.888959 
L 39.009374 292.164414 
L 37.373183 293.622806 
L 35.901972 295.247481 
L 34.612544 297.019882 
L 33.519625 298.919765 
L 32.635698 300.925433 
L 31.970859 303.013977 
L 31.5327 305.161545 
L 31.326227 307.343608 
L 31.353797 309.535244 
L 31.615095 311.711422 
L 32.107138 313.847288 
L 32.824304 315.918447 
L 33.758405 317.901245 
L 34.89877 319.773035 
L 36.232375 321.512439 
L 37.74399 323.09959 
L 39.416349 324.516363 
L 41.230352 325.746575 
L 43.165281 326.776175 
L 45.199037 327.593406 
L 47.308392 328.188932 
L 49.469254 328.555953 
L 51.656944 328.690275 
L 53.846476 328.590366 
L 56.012841 328.257367 
L 58.131299 327.695079 
L 60.177653 326.909927 
L 62.128531 325.910876 
L 63.961653 324.709338 
L 65.656081 323.319035 
L 67.192464 321.755847 
L 68.553253 320.037626 
L 69.722908 318.183998 
L 70.688068 316.216133 
L 71.437711 314.156505 
L 71.963275 312.02864 
L 72.258757 309.856839 
L 72.327273 308.181818 
L 72.327273 308.181818 
" clip-path="url(#p587552da8b)" style="fill: none; stroke: #000000; stroke-width: 0.8; stroke-linecap: square"/>
   </g>
   <g id="line2d_2">
    <path d="M 72.327273 244.090909 
L 72.210153 241.902231 
L 71.860132 239.73855 
L 71.281208 237.624579 
L 70.479992 235.58446 
L 69.465635 233.641497 
L 68.249722 231.817878 
L 66.846141 230.134432 
L 65.270922 228.610386 
L 63.542057 227.263147 
L 61.67929 226.108102 
L 59.703897 225.158442 
L 57.63844 224.425015 
L 55.506509 223.916196 
L 53.332452 223.637797 
L 51.1411 223.592998 
L 48.957481 223.78231 
L 46.806535 224.203571 
L 44.712829 224.85197 
L 42.700274 225.720102 
L 40.791857 226.79805 
L 39.009374 228.073505 
L 37.373183 229.531897 
L 35.901972 231.156572 
L 34.612544 232.928972 
L 33.519625 234.828856 
L 32.635698 236.834524 
L 31.970859 238.923068 
L 31.5327 241.070636 
L 31.326227 243.252698 
L 31.353797 245.444335 
L 31.615095 247.620513 
L 32.107138 249.756379 
L 32.824304 251.827538 
L 33.758405 253.810336 
L 34.89877 255.682126 
L 36.232375 257.421529 
L 37.74399 259.008681 
L 39.416349 260.425454 
L 41.230352 261.655666 
L 43.165281 262.685266 
L 45.199037 263.502497 
L 47.308392 264.098023 
L 49.469254 264.465043 
L 51.656944 264.599366 
L 53.846476 264.499457 
L 56.012841 264.166457 
L 58.131299 263.60417 
L 60.177653 262.819018 
L 62.128531 261.819967 
L 63.961653 260.618429 
L 65.656081 259.228126 
L 67.192464 257.664938 
L 68.553253 255.946717 
L 69.722908 254.093089 
L 70.688068 252.125223 
L 71.437711 250.065596 
L 71.963275 247.937731 
L 72.258757 245.76593 
L 72.327273 244.090909 
L 72.327273 244.090909 
" clip-path="url(#p587552da8b)" style="fill: none; stroke: #000000; stroke-width: 0.8; stroke-linecap: square"/>
   </g>
   <g id="line2d_3">
    <path d="M 72.327273 180 
L 72.210153 177.811322 
L 71.860132 175.647641 
L 71.281208 173.533669 
L 70.479992 171.493551 
L 69.465635 169.550587 
L 68.249722 167.726969 
L 66.846141 166.043523 
L 65.270922 164.519477 
L 63.542057 163.172238 
L 61.67929 162.017193 
L 59.703897 161.067533 
L 57.63844 160.334106 
L 55.506509 159.825287 
L 53.332452 159.546888 
L 51.1411 159.502089 
L 48.957481 159.691401 
L 46.806535 160.112662 
L 44.712829 160.761061 
L 42.700274 161.629193 
L 40.791857 162.707141 
L 39.009374 163.982595 
L 37.373183 165.440988 
L 35.901972 167.065663 
L 34.612544 168.838063 
L 33.519625 170.737947 
L 32.635698 172.743615 
L 31.970859 174.832159 
L 31.5327 176.979727 
L 31.326227 179.161789 
L 31.353797 181.353426 
L 31.615095 183.529604 
L 32.107138 185.66547 
L 32.824304 187.736629 
L 33.758405 189.719427 
L 34.89877 191.591217 
L 36.232375 193.33062 
L 37.74399 194.917772 
L 39.416349 196.334545 
L 41.230352 197.564757 
L 43.165281 198.594357 
L 45.199037 199.411588 
L 47.308392 200.007114 
L 49.469254 200.374134 
L 51.656944 200.508457 
L 53.846476 200.408548 
L 56.012841 200.075548 
L 58.131299 199.513261 
L 60.177653 198.728109 
L 62.128531 197.729058 
L 63.961653 196.52752 
L 65.656081 195.137217 
L 67.192464 193.574029 
L 68.553253 191.855808 
L 69.722908 190.00218 
L 70.688068 188.034314 
L 71.437711 185.974687 
L 71.963275 183.846822 
L 72.258757 181.675021 
L 72.327273 180 
L 72.327273 180 
" clip-path="url(#p587552da8b)" style="fill: none; stroke: #000000; stroke-width: 0.8; stroke-linecap: square"/>
   </g>
   <g id="line2d_4">
    <path d="M 72.327273 115.909091 
L 72.210153 113.720413 
L 71.860132 111.556732 
L 71.281208 109.44276 
L 70.479992 107.402642 
L 69.465635 105.459678 
L 68.249722 103.636059 
L 66.846141 101.952614 
L 65.270922 100.428568 
L 63.542057 99.081329 
L 61.67929 97.926284 
L 59.703897 96.976624 
L 57.63844 96.243197 
L 55.506509 95.734378 
L 53.332452 95.455979 
L 51.1411 95.41118 
L 48.957481 95.600492 
L 46.806535 96.021753 
L 44.712829 96.670152 
L 42.700274 97.538283 
L 40.791857 98.616232 
L 39.009374 99.891686 
L 37.373183 101.350079 
L 35.901972 102.974754 
L 34.612544 104.747154 
L 33.519625 106.647038 
L 32.635698 108.652705 
L 31.970859 110.74125 
L 31.5327 112.888817 
L 31.326227 115.07088 
L 31.353797 117.262516 
L 31.615095 119.438695 
L 32.107138 121.574561 
L 32.824304 123.64572 
L 33.758405 125.628518 
L 34.89877 127.500307 
L 36.232375 129.239711 
L 37.74399 130.826863 
L 39.416349 132.243636 
L 41.230352 133.473847 
L 43.165281 134.503448 
L 45.199037 135.320679 
L 47.308392 135.916205 
L 49.469254 136.283225 
L 51.656944 136.417548 
L 53.846476 136.317639 
L 56.012841 135.984639 
L 58.131299 135.422352 
L 60.177653 134.6372 
L 62.128531 133.638149 
L 63.961653 132.436611 
L 65.656081 131.046308 
L 67.192464 129.48312 
L 68.553253 127.764899 
L 69.722908 125.911271 
L 70.688068 123.943405 
L 71.437711 121.883778 
L 71.963275 119.755912 
L 72.258757 117.584111 
L 72.327273 115.909091 
L 72.327273 115.909091 
" clip-path="url(#p587552da8b)" style="fill: none; stroke: #000000; stroke-width: 0.8; stroke-linecap: square"/>
   </g>
   <g id="line2d_5">
    <path d="M 72.327273 51.818182 
L 72.210153 49.629504 
L 71.860132 47.465823 
L 71.281208 45.351851 
L 70.479992 43.311733 
L 69.465635 41.368769 
L 68.249722 39.54515 
L 66.846141 37.861705 
L 65.270922 36.337659 
L 63.542057 34.99042 
L 61.67929 33.835375 
L 59.703897 32.885715 
L 57.63844 32.152287 
L 55.506509 31.643469 
L 53.332452 31.36507 
L 51.1411 31.32027 
L 48.957481 31.509583 
L 46.806535 31.930844 
L 44.712829 32.579243 
L 42.700274 33.447374 
L 40.791857 34.525323 
L 39.009374 35.800777 
L 37.373183 37.25917 
L 35.901972 38.883845 
L 34.612544 40.656245 
L 33.519625 42.556129 
L 32.635698 44.561796 
L 31.970859 46.650341 
L 31.5327 48.797908 
L 31.326227 50.979971 
L 31.353797 53.171607 
L 31.615095 55.347786 
L 32.107138 57.483652 
L 32.824304 59.554811 
L 33.758405 61.537609 
L 34.89877 63.409398 
L 36.232375 65.148802 
L 37.74399 66.735954 
L 39.416349 68.152726 
L 41.230352 69.382938 
L 43.165281 70.412539 
L 45.199037 71.22977 
L 47.308392 71.825296 
L 49.469254 72.192316 
L 51.656944 72.326639 
L 53.846476 72.22673 
L 56.012841 71.89373 
L 58.131299 71.331443 
L 60.177653 70.54629 
L 62.128531 69.54724 
L 63.961653 68.345702 
L 65.656081 66.955399 
L 67.192464 65.392211 
L 68.553253 63.67399 
L 69.722908 61.820362 
L 70.688068 59.852496 
L 71.437711 57.792869 
L 71.963275 55.665003 
L 72.258757 53.493202 
L 72.327273 51.818182 
L 72.327273 51.818182 
" clip-path="url(#p587552da8b)" style="fill: none; stroke: #000000; stroke-width: 0.8; stroke-linecap: square"/>
   </g>
   <g id="line2d_6">
    <path d="M 136.418182 308.181818 
L 136.301062 305.99314 
L 135.951041 303.829459 
L 135.372117 301.715488 
L 134.570901 299.67537 
L 133.556544 297.732406 
L 132.340631 295.908787 
L 130.93705 294.225341 
L 129.361831 292.701295 
L 127.632966 291.354056 
L 125.770199 290.199011 
L 123.794806 289.249351 
L 121.729349 288.515924 
L 119.597418 288.007105 
L 117.423361 287.728706 
L 115.232009 287.683907 
L 113.04839 287.873219 
L 110.897445 288.29448 
L 108.803738 288.942879 
L 106.791183 289.811011 
L 104.882766 290.888959 
L 103.100283 292.164414 
L 101.464092 293.622806 
L 99.992881 295.247481 
L 98.703453 297.019882 
L 97.610534 298.919765 
L 96.726607 300.925433 
L 96.061768 303.013977 
L 95.623609 305.161545 
L 95.417136 307.343608 
L 95.444706 309.535244 
L 95.706004 311.711422 
L 96.198047 313.847288 
L 96.915214 315.918447 
L 97.849314 317.901245 
L 98.989679 319.773035 
L 100.323284 321.512439 
L 101.834899 323.09959 
L 103.507258 324.516363 
L 105.321261 325.746575 
L 107.25619 326.776175 
L 109.289947 327.593406 
L 111.399301 328.188932 
L 113.560164 328.555953 
L 115.747853 328.690275 
L 117.937385 328.590366 
L 120.10375 328.257367 
L 122.222208 327.695079 
L 124.268562 326.909927 
L 126.21944 325.910876 
L 128.052562 324.709338 
L 129.746991 323.319035 
L 131.283373 321.755847 
L 132.644162 320.037626 
L 133.813817 318.183998 
L 134.778977 316.216133 
L 135.52862 314.156505 
L 136.054184 312.02864 
L 136.349666 309.856839 
L 136.418182 308.181818 
L 136.418182 308.181818 
" clip-path="url(#p587552da8b)" style="fill: none; stroke: #000000; stroke-width: 0.8; stroke-linecap: square"/>
   </g>
   <g id="line2d_7">
    <path d="M 136.418182 244.090909 
L 136.301062 241.902231 
L 135.951041 239.73855 
L 135.372117 237.624579 
L 134.570901 235.58446 
L 133.556544 233.641497 
L 132.340631 231.817878 
L 130.93705 230.134432 
L 129.361831 228.610386 
L 127.632966 227.263147 
L 125.770199 226.108102 
L 123.794806 225.158442 
L 121.729349 224.425015 
L 119.597418 223.916196 
L 117.423361 223.637797 
L 115.232009 223.592998 
L 113.04839 223.78231 
L 110.897445 224.203571 
L 108.803738 224.85197 
L 106.791183 225.720102 
L 104.882766 226.79805 
L 103.100283 228.073505 
L 101.464092 229.531897 
L 99.992881 231.156572 
L 98.703453 232.928972 
L 97.610534 234.828856 
L 96.726607 236.834524 
L 96.061768 238.923068 
L 95.623609 241.070636 
L 95.417136 243.252698 
L 95.444706 245.444335 
L 95.706004 247.620513 
L 96.198047 249.756379 
L 96.915214 251.827538 
L 97.849314 253.810336 
L 98.989679 255.682126 
L 100.323284 257.421529 
L 101.834899 259.008681 
L 103.507258 260.425454 
L 105.321261 261.655666 
L 107.25619 262.685266 
L 109.289947 263.502497 
L 111.399301 264.098023 
L 113.560164 264.465043 
L 115.747853 264.599366 
L 117.937385 264.499457 
L 120.10375 264.166457 
L 122.222208 263.60417 
L 124.268562 262.819018 
L 126.21944 261.819967 
L 128.052562 260.618429 
L 129.746991 259.228126 
L 131.283373 257.664938 
L 132.644162 255.946717 
L 133.813817 254.093089 
L 134.778977 252.125223 
L 135.52862 250.065596 
L 136.054184 247.937731 
L 136.349666 245.76593 
L 136.418182 244.090909 
L 136.418182 244.090909 
" clip-path="url(#p587552da8b)" style="fill: none; stroke: #000000; stroke-width: 0.8; stroke-linecap: square"/>
   </g>
   <g id="line2d_8">
    <path d="M 136.418182 180 
L 136.301062 177.811322 
L 135.951041 175.647641 
L 135.372117 173.533669 
L 134.570901 171.493551 
L 133.556544 169.550587 
L 132.340631 167.726969 
L 130.93705 166.043523 
L 129.361831 164.519477 
L 127.632966 163.172238 
L 125.770199 162.017193 
L 123.794806 161.067533 
L 121.729349 160.334106 
L 119.597418 159.825287 
L 117.423361 159.546888 
L 115.232009 159.502089 
L 113.04839 159.691401 
L 110.897445 160.112662 
L 108.803738 160.761061 
L 106.791183 161.629193 
L 104.882766 162.707141 
L 103.100283 163.982595 
L 101.464092 165.440988 
L 99.992881 167.065663 
L 98.703453 168.838063 
L 97.610534 170.737947 
L 96.726607 172.743615 
L 96.061768 174.832159 
L 95.623609 176.979727 
L 95.417136 179.161789 
L 95.444706 181.353426 
L 95.706004 183.529604 
L 96.198047 185.66547 
L 96.915214 187.736629 
L 97.849314 189.719427 
L 98.989679 191.591217 
L 100.323284 193.33062 
L 101.834899 194.917772 
L 103.507258 196.334545 
L 105.321261 197.564757 
L 107.25619 198.594357 
L 109.289947 199.411588 
L 111.399301 200.007114 
L 113.560164 200.374134 
L 115.747853 200.508457 
L 117.937385 200.408548 
L 120.10375 200.075548 
L 122.222208 199.513261 
L 124.268562 198.728109 
L 126.21944 197.729058 
L 128.052562 196.52752 
L 129.746991 195.137217 
L 131.283373 193.574029 
L 132.644162 191.855808 
L 133.813817 190.00218 
L 134.778977 188.034314 
L 135.52862 185.974687 
L 136.054184 183.846822 
L 136.349666 181.675021 
L 136.418182 180 
L 136.418182 180 
" clip-path="url(#p587552da8b)" style="fill: none; stroke: #000000; stroke-width: 0.8; stroke-linecap: square"/>
   </g>
   <g id="line2d_9">
    <path d="M 136.418182 115.909091 
L 136.301062 113.720413 
L 135.951041 111.556732 
L 135.372117 109.44276 
L 134.570901 107.402642 
L 133.556544 105.459678 
L 132.340631 103.636059 
L 130.93705 101.952614 
L 129.361831 100.428568 
L 127.632966 99.081329 
L 125.770199 97.926284 
L 123.794806 96.976624 
L 121.729349 96.243197 
L 119.597418 95.734378 
L 117.423361 95.455979 
L 115.232009 95.41118 
L 113.04839 95.600492 
L 110.897445 96.021753 
L 108.803738 96.670152 
L 106.791183 97.538283 
L 104.882766 98.616232 
L 103.100283 99.891686 
L 101.464092 101.350079 
L 99.992881 102.974754 
L 98.703453 104.747154 
L 97.610534 106.647038 
L 96.726607 108.652705 
L 96.061768 110.74125 
L 95.623609 112.888817 
L 95.417136 115.07088 
L 95.444706 117.262516 
L 95.706004 119.438695 
L 96.198047 121.574561 
L 96.915214 123.64572 
L 97.849314 125.628518 
L 98.989679 127.500307 
L 100.323284 129.239711 
L 101.834899 130.826863 
L 103.507258 132.243636 
L 105.321261 133.473847 
L 107.25619 134.503448 
L 109.289947 135.320679 
L 111.399301 135.916205 
L 113.560164 136.283225 
L 115.747853 136.417548 
L 117.937385 136.317639 
L 120.10375 135.984639 
L 122.222208 135.422352 
L 124.268562 134.6372 
L 126.21944 133.638149 
L 128.052562 132.436611 
L 129.746991 131.046308 
L 131.283373 129.48312 
L 132.644162 127.764899 
L 133.813817 125.911271 
L 134.778977 123.943405 
L 135.52862 121.883778 
L 136.054184 119.755912 
L 136.349666 117.584111 
L 136.418182 115.909091 
L 136.418182 115.909091 
" clip-path="url(#p587552da8b)" style="fill: none; stroke: #000000; stroke-width: 0.8; stroke-linecap: square"/>
   </g>
   <g id="line2d_10">
    <path d="M 136.418182 51.818182 
L 136.301062 49.629504 
L 135.951041 47.465823 
L 135.372117 45.351851 
L 134.570901 43.311733 
L 133.556544 41.368769 
L 132.340631 39.54515 
L 130.93705 37.861705 
L 129.361831 36.337659 
L 127.632966 34.99042 
L 125.770199 33.835375 
L 123.794806 32.885715 
L 121.729349 32.152287 
L 119.597418 31.643469 
L 117.423361 31.36507 
L 115.232009 31.32027 
L 113.04839 31.509583 
L 110.897445 31.930844 
L 108.803738 32.579243 
L 106.791183 33.447374 
L 104.882766 34.525323 
L 103.100283 35.800777 
L 101.464092 37.25917 
L 99.992881 38.883845 
L 98.703453 40.656245 
L 97.610534 42.556129 
L 96.726607 44.561796 
L 96.061768 46.650341 
L 95.623609 48.797908 
L 95.417136 50.979971 
L 95.444706 53.171607 
L 95.706004 55.347786 
L 96.198047 57.483652 
L 96.915214 59.554811 
L 97.849314 61.537609 
L 98.989679 63.409398 
L 100.323284 65.148802 
L 101.834899 66.735954 
L 103.507258 68.152726 
L 105.321261 69.382938 
L 107.25619 70.412539 
L 109.289947 71.22977 
L 111.399301 71.825296 
L 113.560164 72.192316 
L 115.747853 72.326639 
L 117.937385 72.22673 
L 120.10375 71.89373 
L 122.222208 71.331443 
L 124.268562 70.54629 
L 126.21944 69.54724 
L 128.052562 68.345702 
L 129.746991 66.955399 
L 131.283373 65.392211 
L 132.644162 63.67399 
L 133.813817 61.820362 
L 134.778977 59.852496 
L 135.52862 57.792869 
L 136.054184 55.665003 
L 136.349666 53.493202 
L 136.418182 51.818182 
L 136.418182 51.818182 
" clip-path="url(#p587552da8b)" style="fill: none; stroke: #000000; stroke-width: 0.8; stroke-linecap: square"/>
   </g>
   <g id="line2d_11">
    <path d="M 200.509091 308.181818 
L 200.391971 305.99314 
L 200.041951 303.829459 
L 199.463026 301.715488 
L 198.66181 299.67537 
L 197.647453 297.732406 
L 196.43154 295.908787 
L 195.027959 294.225341 
L 193.45274 292.701295 
L 191.723875 291.354056 
L 189.861108 290.199011 
L 187.885716 289.249351 
L 185.820258 288.515924 
L 183.688327 288.007105 
L 181.51427 287.728706 
L 179.322918 287.683907 
L 177.1393 287.873219 
L 174.988354 288.29448 
L 172.894647 288.942879 
L 170.882092 289.811011 
L 168.973675 290.888959 
L 167.191192 292.164414 
L 165.555001 293.622806 
L 164.08379 295.247481 
L 162.794362 297.019882 
L 161.701443 298.919765 
L 160.817516 300.925433 
L 160.152677 303.013977 
L 159.714519 305.161545 
L 159.508045 307.343608 
L 159.535615 309.535244 
L 159.796913 311.711422 
L 160.288956 313.847288 
L 161.006123 315.918447 
L 161.940223 317.901245 
L 163.080588 319.773035 
L 164.414193 321.512439 
L 165.925808 323.09959 
L 167.598167 324.516363 
L 169.41217 325.746575 
L 171.3471 326.776175 
L 173.380856 327.593406 
L 175.49021 328.188932 
L 177.651073 328.555953 
L 179.838762 328.690275 
L 182.028294 328.590366 
L 184.194659 328.257367 
L 186.313117 327.695079 
L 188.359471 326.909927 
L 190.31035 325.910876 
L 192.143471 324.709338 
L 193.8379 323.319035 
L 195.374282 321.755847 
L 196.735072 320.037626 
L 197.904726 318.183998 
L 198.869886 316.216133 
L 199.619529 314.156505 
L 200.145093 312.02864 
L 200.440575 309.856839 
L 200.509091 308.181818 
L 200.509091 308.181818 
" clip-path="url(#p587552da8b)" style="fill: none; stroke: #000000; stroke-width: 0.8; stroke-linecap: square"/>
   </g>
   <g id="line2d_12">
    <path d="M 200.509091 244.090909 
L 200.391971 241.902231 
L 200.041951 239.73855 
L 199.463026 237.624579 
L 198.66181 235.58446 
L 197.647453 233.641497 
L 196.43154 231.817878 
L 195.027959 230.134432 
L 193.45274 228.610386 
L 191.723875 227.263147 
L 189.861108 226.108102 
L 187.885716 225.158442 
L 185.820258 224.425015 
L 183.688327 223.916196 
L 181.51427 223.637797 
L 179.322918 223.592998 
L 177.1393 223.78231 
L 174.988354 224.203571 
L 172.894647 224.85197 
L 170.882092 225.720102 
L 168.973675 226.79805 
L 167.191192 228.073505 
L 165.555001 229.531897 
L 164.08379 231.156572 
L 162.794362 232.928972 
L 161.701443 234.828856 
L 160.817516 236.834524 
L 160.152677 238.923068 
L 159.714519 241.070636 
L 159.508045 243.252698 
L 159.535615 245.444335 
L 159.796913 247.620513 
L 160.288956 249.756379 
L 161.006123 251.827538 
L 161.940223 253.810336 
L 163.080588 255.682126 
L 164.414193 257.421529 
L 165.925808 259.008681 
L 167.598167 260.425454 
L 169.41217 261.655666 
L 171.3471 262.685266 
L 173.380856 263.502497 
L 175.49021 264.098023 
L 177.651073 264.465043 
L 179.838762 264.599366 
L 182.028294 264.499457 
L 184.194659 264.166457 
L 186.313117 263.60417 
L 188.359471 262.819018 
L 190.31035 261.819967 
L 192.143471 260.618429 
L 193.8379 259.228126 
L 195.374282 257.664938 
L 196.735072 255.946717 
L 197.904726 254.093089 
L 198.869886 252.125223 
L 199.619529 250.065596 
L 200.145093 247.937731 
L 200.440575 245.76593 
L 200.509091 244.090909 
L 200.509091 244.090909 
" clip-path="url(#p587552da8b)" style="fill: none; stroke: #000000; stroke-width: 0.8; stroke-linecap: square"/>
   </g>
   <g id="line2d_13">
    <path d="M 200.509091 180 
L 200.391971 177.811322 
L 200.041951 175.647641 
L 199.463026 173.533669 
L 198.66181 171.493551 
L 197.647453 169.550587 
L 196.43154 167.726969 
L 195.027959 166.043523 
L 193.45274 164.519477 
L 191.723875 163.172238 
L 189.861108 162.017193 
L 187.885716 161.067533 
L 185.820258 160.334106 
L 183.688327 159.825287 
L 181.51427 159.546888 
L 179.322918 159.502089 
L 177.1393 159.691401 
L 174.988354 160.112662 
L 172.894647 160.761061 
L 170.882092 161.629193 
L 168.973675 162.707141 
L 167.191192 163.982595 
L 165.555001 165.440988 
L 164.08379 167.065663 
L 162.794362 168.838063 
L 161.701443 170.737947 
L 160.817516 172.743615 
L 160.152677 174.832159 
L 159.714519 176.979727 
L 159.508045 179.161789 
L 159.535615 181.353426 
L 159.796913 183.529604 
L 160.288956 185.66547 
L 161.006123 187.736629 
L 161.940223 189.719427 
L 163.080588 191.591217 
L 164.414193 193.33062 
L 165.925808 194.917772 
L 167.598167 196.334545 
L 169.41217 197.564757 
L 171.3471 198.594357 
L 173.380856 199.411588 
L 175.49021 200.007114 
L 177.651073 200.374134 
L 179.838762 200.508457 
L 182.028294 200.408548 
L 184.194659 200.075548 
L 186.313117 199.513261 
L 188.359471 198.728109 
L 190.31035 197.729058 
L 192.143471 196.52752 
L 193.8379 195.137217 
L 195.374282 193.574029 
L 196.735072 191.855808 
L 197.904726 190.00218 
L 198.869886 188.034314 
L 199.619529 185.974687 
L 200.145093 183.846822 
L 200.440575 181.675021 
L 200.509091 180 
L 200.509091 180 
" clip-path="url(#p587552da8b)" style="fill: none; stroke: #000000; stroke-width: 0.8; stroke-linecap: square"/>
   </g>
   <g id="line2d_14">
    <path d="M 200.509091 115.909091 
L 200.391971 113.720413 
L 200.041951 111.556732 
L 199.463026 109.44276 
L 198.66181 107.402642 
L 197.647453 105.459678 
L 196.43154 103.636059 
L 195.027959 101.952614 
L 193.45274 100.428568 
L 191.723875 99.081329 
L 189.861108 97.926284 
L 187.885716 96.976624 
L 185.820258 96.243197 
L 183.688327 95.734378 
L 181.51427 95.455979 
L 179.322918 95.41118 
L 177.1393 95.600492 
L 174.988354 96.021753 
L 172.894647 96.670152 
L 170.882092 97.538283 
L 168.973675 98.616232 
L 167.191192 99.891686 
L 165.555001 101.350079 
L 164.08379 102.974754 
L 162.794362 104.747154 
L 161.701443 106.647038 
L 160.817516 108.652705 
L 160.152677 110.74125 
L 159.714519 112.888817 
L 159.508045 115.07088 
L 159.535615 117.262516 
L 159.796913 119.438695 
L 160.288956 121.574561 
L 161.006123 123.64572 
L 161.940223 125.628518 
L 163.080588 127.500307 
L 164.414193 129.239711 
L 165.925808 130.826863 
L 167.598167 132.243636 
L 169.41217 133.473847 
L 171.3471 134.503448 
L 173.380856 135.320679 
L 175.49021 135.916205 
L 177.651073 136.283225 
L 179.838762 136.417548 
L 182.028294 136.317639 
L 184.194659 135.984639 
L 186.313117 135.422352 
L 188.359471 134.6372 
L 190.31035 133.638149 
L 192.143471 132.436611 
L 193.8379 131.046308 
L 195.374282 129.48312 
L 196.735072 127.764899 
L 197.904726 125.911271 
L 198.869886 123.943405 
L 199.619529 121.883778 
L 200.145093 119.755912 
L 200.440575 117.584111 
L 200.509091 115.909091 
L 200.509091 115.909091 
" clip-path="url(#p587552da8b)" style="fill: none; stroke: #000000; stroke-width: 0.8; stroke-linecap: square"/>
   </g>
   <g id="line2d_15">
    <path d="M 200.509091 51.818182 
L 200.391971 49.629504 
L 200.041951 47.465823 
L 199.463026 45.351851 
L 198.66181 43.311733 
L 197.647453 41.368769 
L 196.43154 39.54515 
L 195.027959 37.861705 
L 193.45274 36.337659 
L 191.723875 34.99042 
L 189.861108 33.835375 
L 187.885716 32.885715 
L 185.820258 32.152287 
L 183.688327 31.643469 
L 181.51427 31.36507 
L 179.322918 31.32027 
L 177.1393 31.509583 
L 174.988354 31.930844 
L 172.894647 32.579243 
L 170.882092 33.447374 
L 168.973675 34.525323 
L 167.191192 35.800777 
L 165.555001 37.25917 
L 164.08379 38.883845 
L 162.794362 40.656245 
L 161.701443 42.556129 
L 160.817516 44.561796 
L 160.152677 46.650341 
L 159.714519 48.797908 
L 159.508045 50.979971 
L 159.535615 53.171607 
L 159.796913 55.347786 
L 160.288956 57.483652 
L 161.006123 59.554811 
L 161.940223 61.537609 
L 163.080588 63.409398 
L 164.414193 65.148802 
L 165.925808 66.735954 
L 167.598167 68.152726 
L 169.41217 69.382938 
L 171.3471 70.412539 
L 173.380856 71.22977 
L 175.49021 71.825296 
L 177.651073 72.192316 
L 179.838762 72.326639 
L 182.028294 72.22673 
L 184.194659 71.89373 
L 186.313117 71.331443 
L 188.359471 70.54629 
L 190.31035 69.54724 
L 192.143471 68.345702 
L 193.8379 66.955399 
L 195.374282 65.392211 
L 196.735072 63.67399 
L 197.904726 61.820362 
L 198.869886 59.852496 
L 199.619529 57.792869 
L 200.145093 55.665003 
L 200.440575 53.493202 
L 200.509091 51.818182 
L 200.509091 51.818182 
" clip-path="url(#p587552da8b)" style="fill: none; stroke: #000000; stroke-width: 0.8; stroke-linecap: square"/>
   </g>
   <g id="line2d_16">
    <path d="M 264.6 308.181818 
L 264.48288 305.99314 
L 264.13286 303.829459 
L 263.553935 301.715488 
L 262.752719 299.67537 
L 261.738362 297.732406 
L 260.522449 295.908787 
L 259.118868 294.225341 
L 257.543649 292.701295 
L 255.814784 291.354056 
L 253.952017 290.199011 
L 251.976625 289.249351 
L 249.911167 288.515924 
L 247.779236 288.007105 
L 245.605179 287.728706 
L 243.413827 287.683907 
L 241.230209 287.873219 
L 239.079263 288.29448 
L 236.985556 288.942879 
L 234.973001 289.811011 
L 233.064584 290.888959 
L 231.282101 292.164414 
L 229.64591 293.622806 
L 228.174699 295.247481 
L 226.885271 297.019882 
L 225.792352 298.919765 
L 224.908425 300.925433 
L 224.243586 303.013977 
L 223.805428 305.161545 
L 223.598954 307.343608 
L 223.626524 309.535244 
L 223.887823 311.711422 
L 224.379865 313.847288 
L 225.097032 315.918447 
L 226.031132 317.901245 
L 227.171497 319.773035 
L 228.505102 321.512439 
L 230.016717 323.09959 
L 231.689076 324.516363 
L 233.503079 325.746575 
L 235.438009 326.776175 
L 237.471765 327.593406 
L 239.58112 328.188932 
L 241.741982 328.555953 
L 243.929671 328.690275 
L 246.119203 328.590366 
L 248.285569 328.257367 
L 250.404026 327.695079 
L 252.45038 326.909927 
L 254.401259 325.910876 
L 256.23438 324.709338 
L 257.928809 323.319035 
L 259.465191 321.755847 
L 260.825981 320.037626 
L 261.995635 318.183998 
L 262.960795 316.216133 
L 263.710438 314.156505 
L 264.236002 312.02864 
L 264.531484 309.856839 
L 264.6 308.181818 
L 264.6 308.181818 
" clip-path="url(#p587552da8b)" style="fill: none; stroke: #000000; stroke-width: 0.8; stroke-linecap: square"/>
   </g>
   <g id="line2d_17">
    <path d="M 264.6 244.090909 
L 264.48288 241.902231 
L 264.13286 239.73855 
L 263.553935 237.624579 
L 262.752719 235.58446 
L 261.738362 233.641497 
L 260.522449 231.817878 
L 259.118868 230.134432 
L 257.543649 228.610386 
L 255.814784 227.263147 
L 253.952017 226.108102 
L 251.976625 225.158442 
L 249.911167 224.425015 
L 247.779236 223.916196 
L 245.605179 223.637797 
L 243.413827 223.592998 
L 241.230209 223.78231 
L 239.079263 224.203571 
L 236.985556 224.85197 
L 234.973001 225.720102 
L 233.064584 226.79805 
L 231.282101 228.073505 
L 229.64591 229.531897 
L 228.174699 231.156572 
L 226.885271 232.928972 
L 225.792352 234.828856 
L 224.908425 236.834524 
L 224.243586 238.923068 
L 223.805428 241.070636 
L 223.598954 243.252698 
L 223.626524 245.444335 
L 223.887823 247.620513 
L 224.379865 249.756379 
L 225.097032 251.827538 
L 226.031132 253.810336 
L 227.171497 255.682126 
L 228.505102 257.421529 
L 230.016717 259.008681 
L 231.689076 260.425454 
L 233.503079 261.655666 
L 235.438009 262.685266 
L 237.471765 263.502497 
L 239.58112 264.098023 
L 241.741982 264.465043 
L 243.929671 264.599366 
L 246.119203 264.499457 
L 248.285569 264.166457 
L 250.404026 263.60417 
L 252.45038 262.819018 
L 254.401259 261.819967 
L 256.23438 260.618429 
L 257.928809 259.228126 
L 259.465191 257.664938 
L 260.825981 255.946717 
L 261.995635 254.093089 
L 262.960795 252.125223 
L 263.710438 250.065596 
L 264.236002 247.937731 
L 264.531484 245.76593 
L 264.6 244.090909 
L 264.6 244.090909 
" clip-path="url(#p587552da8b)" style="fill: none; stroke: #000000; stroke-width: 0.8; stroke-linecap: square"/>
   </g>
   <g id="line2d_18">
    <path d="M 264.6 180 
L 264.48288 177.811322 
L 264.13286 175.647641 
L 263.553935 173.533669 
L 262.752719 171.493551 
L 261.738362 169.550587 
L 260.522449 167.726969 
L 259.118868 166.043523 
L 257.543649 164.519477 
L 255.814784 163.172238 
L 253.952017 162.017193 
L 251.976625 161.067533 
L 249.911167 160.334106 
L 247.779236 159.825287 
L 245.605179 159.546888 
L 243.413827 159.502089 
L 241.230209 159.691401 
L 239.079263 160.112662 
L 236.985556 160.761061 
L 234.973001 161.629193 
L 233.064584 162.707141 
L 231.282101 163.982595 
L 229.64591 165.440988 
L 228.174699 167.065663 
L 226.885271 168.838063 
L 225.792352 170.737947 
L 224.908425 172.743615 
L 224.243586 174.832159 
L 223.805428 176.979727 
L 223.598954 179.161789 
L 223.626524 181.353426 
L 223.887823 183.529604 
L 224.379865 185.66547 
L 225.097032 187.736629 
L 226.031132 189.719427 
L 227.171497 191.591217 
L 228.505102 193.33062 
L 230.016717 194.917772 
L 231.689076 196.334545 
L 233.503079 197.564757 
L 235.438009 198.594357 
L 237.471765 199.411588 
L 239.58112 200.007114 
L 241.741982 200.374134 
L 243.929671 200.508457 
L 246.119203 200.408548 
L 248.285569 200.075548 
L 250.404026 199.513261 
L 252.45038 198.728109 
L 254.401259 197.729058 
L 256.23438 196.52752 
L 257.928809 195.137217 
L 259.465191 193.574029 
L 260.825981 191.855808 
L 261.995635 190.00218 
L 262.960795 188.034314 
L 263.710438 185.974687 
L 264.236002 183.846822 
L 264.531484 181.675021 
L 264.6 180 
L 264.6 180 
" clip-path="url(#p587552da8b)" style="fill: none; stroke: #000000; stroke-width: 0.8; stroke-linecap: square"/>
   </g>
   <g id="line2d_19">
    <path d="M 264.6 115.909091 
L 264.48288 113.720413 
L 264.13286 111.556732 
L 263.553935 109.44276 
L 262.752719 107.402642 
L 261.738362 105.459678 
L 260.522449 103.636059 
L 259.118868 101.952614 
L 257.543649 100.428568 
L 255.814784 99.081329 
L 253.952017 97.926284 
L 251.976625 96.976624 
L 249.911167 96.243197 
L 247.779236 95.734378 
L 245.605179 95.455979 
L 243.413827 95.41118 
L 241.230209 95.600492 
L 239.079263 96.021753 
L 236.985556 96.670152 
L 234.973001 97.538283 
L 233.064584 98.616232 
L 231.282101 99.891686 
L 229.64591 101.350079 
L 228.174699 102.974754 
L 226.885271 104.747154 
L 225.792352 106.647038 
L 224.908425 108.652705 
L 224.243586 110.74125 
L 223.805428 112.888817 
L 223.598954 115.07088 
L 223.626524 117.262516 
L 223.887823 119.438695 
L 224.379865 121.574561 
L 225.097032 123.64572 
L 226.031132 125.628518 
L 227.171497 127.500307 
L 228.505102 129.239711 
L 230.016717 130.826863 
L 231.689076 132.243636 
L 233.503079 133.473847 
L 235.438009 134.503448 
L 237.471765 135.320679 
L 239.58112 135.916205 
L 241.741982 136.283225 
L 243.929671 136.417548 
L 246.119203 136.317639 
L 248.285569 135.984639 
L 250.404026 135.422352 
L 252.45038 134.6372 
L 254.401259 133.638149 
L 256.23438 132.436611 
L 257.928809 131.046308 
L 259.465191 129.48312 
L 260.825981 127.764899 
L 261.995635 125.911271 
L 262.960795 123.943405 
L 263.710438 121.883778 
L 264.236002 119.755912 
L 264.531484 117.584111 
L 264.6 115.909091 
L 264.6 115.909091 
" clip-path="url(#p587552da8b)" style="fill: none; stroke: #000000; stroke-width: 0.8; stroke-linecap: square"/>
   </g>
   <g id="line2d_20">
    <path d="M 264.6 51.818182 
L 264.48288 49.629504 
L 264.13286 47.465823 
L 263.553935 45.351851 
L 262.752719 43.311733 
L 261.738362 41.368769 
L 260.522449 39.54515 
L 259.118868 37.861705 
L 257.543649 36.337659 
L 255.814784 34.99042 
L 253.952017 33.835375 
L 251.976625 32.885715 
L 249.911167 32.152287 
L 247.779236 31.643469 
L 245.605179 31.36507 
L 243.413827 31.32027 
L 241.230209 31.509583 
L 239.079263 31.930844 
L 236.985556 32.579243 
L 234.973001 33.447374 
L 233.064584 34.525323 
L 231.282101 35.800777 
L 229.64591 37.25917 
L 228.174699 38.883845 
L 226.885271 40.656245 
L 225.792352 42.556129 
L 224.908425 44.561796 
L 224.243586 46.650341 
L 223.805428 48.797908 
L 223.598954 50.979971 
L 223.626524 53.171607 
L 223.887823 55.347786 
L 224.379865 57.483652 
L 225.097032 59.554811 
L 226.031132 61.537609 
L 227.171497 63.409398 
L 228.505102 65.148802 
L 230.016717 66.735954 
L 231.689076 68.152726 
L 233.503079 69.382938 
L 235.438009 70.412539 
L 237.471765 71.22977 
L 239.58112 71.825296 
L 241.741982 72.192316 
L 243.929671 72.326639 
L 246.119203 72.22673 
L 248.285569 71.89373 
L 250.404026 71.331443 
L 252.45038 70.54629 
L 254.401259 69.54724 
L 256.23438 68.345702 
L 257.928809 66.955399 
L 259.465191 65.392211 
L 260.825981 63.67399 
L 261.995635 61.820362 
L 262.960795 59.852496 
L 263.710438 57.792869 
L 264.236002 55.665003 
L 264.531484 53.493202 
L 264.6 51.818182 
L 264.6 51.818182 
" clip-path="url(#p587552da8b)" style="fill: none; stroke: #000000; stroke-width: 0.8; stroke-linecap: square"/>
   </g>
   <g id="line2d_21">
    <path d="M 328.690909 308.181818 
L 328.57379 305.99314 
L 328.223769 303.829459 
L 327.644844 301.715488 
L 326.843628 299.67537 
L 325.829271 297.732406 
L 324.613358 295.908787 
L 323.209777 294.225341 
L 321.634559 292.701295 
L 319.905693 291.354056 
L 318.042926 290.199011 
L 316.067534 289.249351 
L 314.002077 288.515924 
L 311.870145 288.007105 
L 309.696088 287.728706 
L 307.504736 287.683907 
L 305.321118 287.873219 
L 303.170172 288.29448 
L 301.076465 288.942879 
L 299.06391 289.811011 
L 297.155493 290.888959 
L 295.37301 292.164414 
L 293.73682 293.622806 
L 292.265608 295.247481 
L 290.97618 297.019882 
L 289.883261 298.919765 
L 288.999334 300.925433 
L 288.334495 303.013977 
L 287.896337 305.161545 
L 287.689863 307.343608 
L 287.717433 309.535244 
L 287.978732 311.711422 
L 288.470774 313.847288 
L 289.187941 315.918447 
L 290.122041 317.901245 
L 291.262406 319.773035 
L 292.596011 321.512439 
L 294.107626 323.09959 
L 295.779985 324.516363 
L 297.593988 325.746575 
L 299.528918 326.776175 
L 301.562674 327.593406 
L 303.672029 328.188932 
L 305.832891 328.555953 
L 308.020581 328.690275 
L 310.210112 328.590366 
L 312.376478 328.257367 
L 314.494935 327.695079 
L 316.541289 326.909927 
L 318.492168 325.910876 
L 320.325289 324.709338 
L 322.019718 323.319035 
L 323.5561 321.755847 
L 324.91689 320.037626 
L 326.086544 318.183998 
L 327.051704 316.216133 
L 327.801347 314.156505 
L 328.326911 312.02864 
L 328.622393 309.856839 
L 328.690909 308.181818 
L 328.690909 308.181818 
" clip-path="url(#p587552da8b)" style="fill: none; stroke: #000000; stroke-width: 0.8; stroke-linecap: square"/>
   </g>
   <g id="line2d_22">
    <path d="M 328.690909 244.090909 
L 328.57379 241.902231 
L 328.223769 239.73855 
L 327.644844 237.624579 
L 326.843628 235.58446 
L 325.829271 233.641497 
L 324.613358 231.817878 
L 323.209777 230.134432 
L 321.634559 228.610386 
L 319.905693 227.263147 
L 318.042926 226.108102 
L 316.067534 225.158442 
L 314.002077 224.425015 
L 311.870145 223.916196 
L 309.696088 223.637797 
L 307.504736 223.592998 
L 305.321118 223.78231 
L 303.170172 224.203571 
L 301.076465 224.85197 
L 299.06391 225.720102 
L 297.155493 226.79805 
L 295.37301 228.073505 
L 293.73682 229.531897 
L 292.265608 231.156572 
L 290.97618 232.928972 
L 289.883261 234.828856 
L 288.999334 236.834524 
L 288.334495 238.923068 
L 287.896337 241.070636 
L 287.689863 243.252698 
L 287.717433 245.444335 
L 287.978732 247.620513 
L 288.470774 249.756379 
L 289.187941 251.827538 
L 290.122041 253.810336 
L 291.262406 255.682126 
L 292.596011 257.421529 
L 294.107626 259.008681 
L 295.779985 260.425454 
L 297.593988 261.655666 
L 299.528918 262.685266 
L 301.562674 263.502497 
L 303.672029 264.098023 
L 305.832891 264.465043 
L 308.020581 264.599366 
L 310.210112 264.499457 
L 312.376478 264.166457 
L 314.494935 263.60417 
L 316.541289 262.819018 
L 318.492168 261.819967 
L 320.325289 260.618429 
L 322.019718 259.228126 
L 323.5561 257.664938 
L 324.91689 255.946717 
L 326.086544 254.093089 
L 327.051704 252.125223 
L 327.801347 250.065596 
L 328.326911 247.937731 
L 328.622393 245.76593 
L 328.690909 244.090909 
L 328.690909 244.090909 
" clip-path="url(#p587552da8b)" style="fill: none; stroke: #000000; stroke-width: 0.8; stroke-linecap: square"/>
   </g>
   <g id="line2d_23">
    <path d="M 328.690909 180 
L 328.57379 177.811322 
L 328.223769 175.647641 
L 327.644844 173.533669 
L 326.843628 171.493551 
L 325.829271 169.550587 
L 324.613358 167.726969 
L 323.209777 166.043523 
L 321.634559 164.519477 
L 319.905693 163.172238 
L 318.042926 162.017193 
L 316.067534 161.067533 
L 314.002077 160.334106 
L 311.870145 159.825287 
L 309.696088 159.546888 
L 307.504736 159.502089 
L 305.321118 159.691401 
L 303.170172 160.112662 
L 301.076465 160.761061 
L 299.06391 161.629193 
L 297.155493 162.707141 
L 295.37301 163.982595 
L 293.73682 165.440988 
L 292.265608 167.065663 
L 290.97618 168.838063 
L 289.883261 170.737947 
L 288.999334 172.743615 
L 288.334495 174.832159 
L 287.896337 176.979727 
L 287.689863 179.161789 
L 287.717433 181.353426 
L 287.978732 183.529604 
L 288.470774 185.66547 
L 289.187941 187.736629 
L 290.122041 189.719427 
L 291.262406 191.591217 
L 292.596011 193.33062 
L 294.107626 194.917772 
L 295.779985 196.334545 
L 297.593988 197.564757 
L 299.528918 198.594357 
L 301.562674 199.411588 
L 303.672029 200.007114 
L 305.832891 200.374134 
L 308.020581 200.508457 
L 310.210112 200.408548 
L 312.376478 200.075548 
L 314.494935 199.513261 
L 316.541289 198.728109 
L 318.492168 197.729058 
L 320.325289 196.52752 
L 322.019718 195.137217 
L 323.5561 193.574029 
L 324.91689 191.855808 
L 326.086544 190.00218 
L 327.051704 188.034314 
L 327.801347 185.974687 
L 328.326911 183.846822 
L 328.622393 181.675021 
L 328.690909 180 
L 328.690909 180 
" clip-path="url(#p587552da8b)" style="fill: none; stroke: #000000; stroke-width: 0.8; stroke-linecap: square"/>
   </g>
   <g id="line2d_24">
    <path d="M 328.690909 115.909091 
L 328.57379 113.720413 
L 328.223769 111.556732 
L 327.644844 109.44276 
L 326.843628 107.402642 
L 325.829271 105.459678 
L 324.613358 103.636059 
L 323.209777 101.952614 
L 321.634559 100.428568 
L 319.905693 99.081329 
L 318.042926 97.926284 
L 316.067534 96.976624 
L 314.002077 96.243197 
L 311.870145 95.734378 
L 309.696088 95.455979 
L 307.504736 95.41118 
L 305.321118 95.600492 
L 303.170172 96.021753 
L 301.076465 96.670152 
L 299.06391 97.538283 
L 297.155493 98.616232 
L 295.37301 99.891686 
L 293.73682 101.350079 
L 292.265608 102.974754 
L 290.97618 104.747154 
L 289.883261 106.647038 
L 288.999334 108.652705 
L 288.334495 110.74125 
L 287.896337 112.888817 
L 287.689863 115.07088 
L 287.717433 117.262516 
L 287.978732 119.438695 
L 288.470774 121.574561 
L 289.187941 123.64572 
L 290.122041 125.628518 
L 291.262406 127.500307 
L 292.596011 129.239711 
L 294.107626 130.826863 
L 295.779985 132.243636 
L 297.593988 133.473847 
L 299.528918 134.503448 
L 301.562674 135.320679 
L 303.672029 135.916205 
L 305.832891 136.283225 
L 308.020581 136.417548 
L 310.210112 136.317639 
L 312.376478 135.984639 
L 314.494935 135.422352 
L 316.541289 134.6372 
L 318.492168 133.638149 
L 320.325289 132.436611 
L 322.019718 131.046308 
L 323.5561 129.48312 
L 324.91689 127.764899 
L 326.086544 125.911271 
L 327.051704 123.943405 
L 327.801347 121.883778 
L 328.326911 119.755912 
L 328.622393 117.584111 
L 328.690909 115.909091 
L 328.690909 115.909091 
" clip-path="url(#p587552da8b)" style="fill: none; stroke: #000000; stroke-width: 0.8; stroke-linecap: square"/>
   </g>
   <g id="line2d_25">
    <path d="M 328.690909 51.818182 
L 328.57379 49.629504 
L 328.223769 47.465823 
L 327.644844 45.351851 
L 326.843628 43.311733 
L 325.829271 41.368769 
L 324.613358 39.54515 
L 323.209777 37.861705 
L 321.634559 36.337659 
L 319.905693 34.99042 
L 318.042926 33.835375 
L 316.067534 32.885715 
L 314.002077 32.152287 
L 311.870145 31.643469 
L 309.696088 31.36507 
L 307.504736 31.32027 
L 305.321118 31.509583 
L 303.170172 31.930844 
L 301.076465 32.579243 
L 299.06391 33.447374 
L 297.155493 34.525323 
L 295.37301 35.800777 
L 293.73682 37.25917 
L 292.265608 38.883845 
L 290.97618 40.656245 
L 289.883261 42.556129 
L 288.999334 44.561796 
L 288.334495 46.650341 
L 287.896337 48.797908 
L 287.689863 50.979971 
L 287.717433 53.171607 
L 287.978732 55.347786 
L 288.470774 57.483652 
L 289.187941 59.554811 
L 290.122041 61.537609 
L 291.262406 63.409398 
L 292.596011 65.148802 
L 294.107626 66.735954 
L 295.779985 68.152726 
L 297.593988 69.382938 
L 299.528918 70.412539 
L 301.562674 71.22977 
L 303.672029 71.825296 
L 305.832891 72.192316 
L 308.020581 72.326639 
L 310.210112 72.22673 
L 312.376478 71.89373 
L 314.494935 71.331443 
L 316.541289 70.54629 
L 318.492168 69.54724 
L 320.325289 68.345702 
L 322.019718 66.955399 
L 323.5561 65.392211 
L 324.91689 63.67399 
L 326.086544 61.820362 
L 327.051704 59.852496 
L 327.801347 57.792869 
L 328.326911 55.665003 
L 328.622393 53.493202 
L 328.690909 51.818182 
L 328.690909 51.818182 
" clip-path="url(#p587552da8b)" style="fill: none; stroke: #000000; stroke-width: 0.8; stroke-linecap: square"/>
   </g>
  </g>
 </g>
 <defs>
  <clipPath id="p587552da8b">
   <rect x="10.8" y="10.8" width="338.4" height="338.4"/>
  </clipPath>
 </defs>
</svg>
