<?xml version="1.0" encoding="utf-8" standalone="no"?>
<!DOCTYPE svg PUBLIC "-//W3C//DTD SVG 1.1//EN"
  "http://www.w3.org/Graphics/SVG/1.1/DTD/svg11.dtd">
<svg height="432pt" version="1.1" viewBox="0 0 576 432" width="576pt" xmlns="http://www.w3.org/2000/svg" xmlns:xlink="http://www.w3.org/1999/xlink">
 <metadata>
  <rdf:RDF xmlns:cc="http://creativecommons.org/ns#" xmlns:dc="http://purl.org/dc/elements/1.1/" xmlns:rdf="http://www.w3.org/1999/02/22-rdf-syntax-ns#">
   <cc:Work>
    <dc:type rdf:resource="http://purl.org/dc/dcmitype/StillImage"/>
    <dc:date>2022-12-05T09:17:55.621328</dc:date>
    <dc:format>image/svg+xml</dc:format>
    <dc:creator>
     <cc:Agent>
      <dc:title>Matplotlib v3.4.2, https://matplotlib.org/</dc:title>
     </cc:Agent>
    </dc:creator>
   </cc:Work>
  </rdf:RDF>
 </metadata>
 <defs>
  <style type="text/css">*{stroke-linecap:butt;stroke-linejoin:round;}</style>
 </defs>
 <g id="figure_1">
  <g id="patch_1">
   <path d="M 0 432 
L 576 432 
L 576 0 
L 0 0 
z
" style="fill:#ffffff;"/>
  </g>
  <g id="axes_1">
   <g id="line2d_1">
    <path clip-path="url(#p686a0c234c)" d="M 41.331394 53.122406 
L 45.188618 53.700989 
L 49.045842 54.279573 
L 52.903066 54.858157 
L 56.760291 55.43674 
L 60.617515 56.015324 
L 64.474739 56.593907 
L 68.331963 57.172491 
L 72.189188 57.751075 
L 76.046412 58.329658 
L 79.903636 58.908242 
L 83.76086 59.486826 
L 87.618085 60.065409 
L 91.475309 60.643993 
L 95.332533 61.222577 
L 99.189757 61.80116 
L 103.046982 62.379744 
L 106.904206 62.958327 
L 110.76143 63.536911 
L 114.618654 64.115495 
L 118.475879 64.694078 
L 122.333103 65.272662 
L 126.190327 65.851246 
L 130.047551 66.429829 
L 133.904776 67.008413 
L 137.762 67.586997 
L 141.619224 68.16558 
L 145.476448 68.744164 
L 149.333673 69.322747 
L 153.190897 69.901331 
L 157.048121 70.479915 
L 160.905346 71.058498 
L 164.76257 71.637082 
L 168.619794 72.215666 
L 172.477018 72.794249 
L 176.334243 73.372833 
L 180.191467 73.951417 
L 184.048691 74.53 
L 187.905915 75.108584 
L 191.76314 75.687168 
L 195.620364 76.265751 
L 199.477588 76.844335 
L 203.334812 77.422918 
L 207.192037 78.001502 
L 211.049261 78.580086 
L 214.906485 79.158669 
L 218.763709 79.737253 
L 222.620934 80.315837 
L 226.478158 80.89442 
L 230.335382 81.473004 
L 234.192606 82.051588 
L 238.049831 82.630171 
L 241.907055 83.208755 
L 245.764279 83.787338 
L 249.621503 84.365922 
L 253.478728 84.944506 
L 257.335952 85.523089 
L 261.193176 86.101673 
L 265.0504 86.680257 
L 268.907625 87.25884 
L 272.764849 87.837424 
L 276.622073 88.416008 
L 280.479297 88.994591 
L 284.336522 89.573175 
L 288.193746 90.151758 
L 292.05097 90.730342 
L 295.908194 91.308926 
L 299.765419 91.887509 
L 303.622643 92.466093 
L 307.479867 93.044677 
L 311.337091 93.62326 
L 315.194316 94.201844 
L 319.05154 94.780428 
L 322.908764 95.359011 
L 326.765988 95.937595 
L 330.623213 96.516178 
L 334.480437 97.094762 
L 338.337661 97.673346 
L 342.194886 98.251929 
L 346.05211 98.830513 
L 349.909334 99.409097 
L 353.766558 99.98768 
L 357.623783 100.566264 
L 361.481007 101.144848 
L 365.338231 101.723431 
L 369.195455 102.302015 
L 373.05268 102.880599 
L 376.909904 103.459182 
L 380.767128 104.037766 
L 384.624352 104.616349 
L 388.481577 105.194933 
L 392.338801 105.773517 
L 396.196025 106.3521 
L 400.053249 106.930684 
L 403.910474 107.509268 
L 407.767698 108.087851 
L 411.624922 108.666435 
L 415.482146 109.245019 
L 419.339371 109.823602 
L 423.196595 110.402186 
" style="fill:none;stroke:#1f77b4;stroke-linecap:square;stroke-width:1.5;"/>
   </g>
   <g id="line2d_2">
    <path clip-path="url(#p686a0c234c)" d="M 41.331394 378.877594 
L 45.007101 378.877594 
L 48.682809 378.877594 
L 52.358517 378.877594 
L 56.034225 378.877594 
L 59.709933 378.877594 
L 63.385641 378.877594 
L 67.061348 378.877594 
L 70.737056 378.877594 
L 74.412764 378.877594 
L 78.088472 378.877594 
L 81.76418 378.877594 
L 85.439887 378.877594 
L 89.115595 378.877594 
L 92.791303 378.877594 
L 96.467011 378.877594 
L 100.142719 378.877594 
L 103.818427 378.877594 
L 107.494134 378.877594 
L 111.169842 378.877594 
L 114.84555 378.877594 
L 118.521258 378.877594 
L 122.196966 378.877594 
L 125.872673 378.877594 
L 129.548381 378.877594 
L 133.224089 378.877594 
L 136.899797 378.877594 
L 140.575505 378.877594 
L 144.251213 378.877594 
L 147.92692 378.877594 
L 151.602628 378.877594 
L 155.278336 378.877594 
L 158.954044 378.877594 
L 162.629752 378.877594 
L 166.305459 378.877594 
L 169.981167 378.877594 
L 173.656875 378.877594 
L 177.332583 378.877594 
L 181.008291 378.877594 
L 184.683999 378.877594 
L 188.359706 378.877594 
L 192.035414 378.877594 
L 195.711122 378.877594 
L 199.38683 378.877594 
L 203.062538 378.877594 
L 206.738245 378.877594 
L 210.413953 378.877594 
L 214.089661 378.877594 
L 217.765369 378.877594 
L 221.441077 378.877594 
L 225.116785 378.877594 
L 228.792492 378.877594 
L 232.4682 378.877594 
L 236.143908 378.877594 
L 239.819616 378.877594 
L 243.495324 378.877594 
L 247.171032 378.877594 
L 250.846739 378.877594 
L 254.522447 378.877594 
L 258.198155 378.877594 
L 261.873863 378.877594 
L 265.549571 378.877594 
L 269.225278 378.877594 
L 272.900986 378.877594 
L 276.576694 378.877594 
L 280.252402 378.877594 
L 283.92811 378.877594 
L 287.603818 378.877594 
L 291.279525 378.877594 
L 294.955233 378.877594 
L 298.630941 378.877594 
L 302.306649 378.877594 
L 305.982357 378.877594 
L 309.658064 378.877594 
L 313.333772 378.877594 
L 317.00948 378.877594 
L 320.685188 378.877594 
L 324.360896 378.877594 
L 328.036604 378.877594 
L 331.712311 378.877594 
L 335.388019 378.877594 
L 339.063727 378.877594 
L 342.739435 378.877594 
L 346.415143 378.877594 
L 350.09085 378.877594 
L 353.766558 378.877594 
L 357.442266 378.877594 
L 361.117974 378.877594 
L 364.793682 378.877594 
L 368.46939 378.877594 
L 372.145097 378.877594 
L 375.820805 378.877594 
L 379.496513 378.877594 
L 383.172221 378.877594 
L 386.847929 378.877594 
L 390.523636 378.877594 
L 394.199344 378.877594 
L 397.875052 378.877594 
L 401.55076 378.877594 
L 405.226468 378.877594 
" style="fill:none;stroke:#2ca02c;stroke-linecap:square;stroke-width:1.5;"/>
   </g>
   <g id="line2d_3">
    <path clip-path="url(#p686a0c234c)" d="M 405.226468 378.83096 
L 409.312638 378.769003 
L 413.395052 378.583189 
L 417.469955 378.273688 
L 421.533602 377.840787 
L 425.582255 377.284881 
L 429.612194 376.606483 
L 433.619712 375.806216 
L 437.601125 374.884816 
L 441.552772 373.843131 
L 445.471021 372.682117 
L 449.352269 371.402842 
L 453.192947 370.006483 
L 456.989524 368.494323 
L 460.738511 366.867753 
L 464.436458 365.128268 
L 468.079968 363.277467 
L 471.66569 361.317052 
L 475.190327 359.248825 
L 478.650639 357.074689 
L 482.043444 354.796641 
L 485.365623 352.416777 
L 488.614122 349.937284 
L 491.785953 347.360442 
L 494.878201 344.688621 
L 497.888022 341.924276 
L 500.81265 339.069949 
L 503.649395 336.128265 
L 506.395649 333.101928 
L 509.048888 329.993721 
L 511.606671 326.806501 
L 514.066648 323.543199 
L 516.426556 320.206815 
L 518.684226 316.800416 
L 520.837583 313.327134 
L 522.884645 309.790163 
L 524.823532 306.192755 
L 526.65246 302.538217 
L 528.369749 298.829909 
L 529.973818 295.071241 
L 531.463194 291.265668 
L 532.836507 287.416689 
L 534.092494 283.527843 
L 535.230001 279.602705 
L 536.247982 275.644885 
L 537.145501 271.65802 
L 537.921732 267.645777 
L 538.575962 263.611845 
L 539.10759 259.559932 
L 539.516127 255.493764 
L 539.801196 251.417078 
L 539.962537 247.333624 
L 540 243.247156 
L 539.913552 239.16143 
L 539.703271 235.080204 
L 539.369351 231.007229 
L 538.912099 226.94625 
L 538.331936 222.901001 
L 537.629395 218.875202 
L 536.805121 214.872552 
L 535.859873 210.896734 
L 534.79452 206.951401 
L 533.610041 203.040182 
L 532.307525 199.166672 
L 530.88817 195.334432 
L 529.35328 191.546987 
L 527.704268 187.807818 
L 525.942648 184.120363 
L 524.070041 180.488013 
L 522.088169 176.914106 
L 519.998853 173.401929 
L 517.804014 169.954711 
L 515.505671 166.575622 
L 513.105936 163.267767 
L 510.607016 160.034189 
L 508.011208 156.877861 
L 505.3209 153.801683 
L 502.538564 150.808486 
L 499.666758 147.901019 
L 496.708123 145.081958 
L 493.66538 142.353893 
L 490.541325 139.719333 
L 487.338831 137.180699 
L 484.060842 134.740327 
L 480.710372 132.40046 
L 477.290502 130.163248 
L 473.804376 128.030749 
L 470.255198 126.004924 
L 466.646233 124.087635 
L 462.980798 122.280645 
L 459.262263 120.585615 
L 455.494047 119.004104 
L 451.679615 117.537566 
L 447.822474 116.187348 
L 443.926169 114.954694 
L 439.994284 113.840734 
L 436.030433 112.846495 
L 432.03826 111.97289 
L 428.021436 111.220722 
L 423.983655 110.590683 
" style="fill:none;stroke:#ff7f0e;stroke-linecap:square;stroke-width:1.5;"/>
   </g>
   <g id="line2d_4">
    <path clip-path="url(#p686a0c234c)" d="M 36 88.66503 
L 39.857224 89.243613 
L 43.714449 89.822197 
L 47.571673 90.40078 
L 51.428897 90.979364 
L 55.286121 91.557948 
L 59.143346 92.136531 
L 63.00057 92.715115 
L 66.857794 93.293699 
L 70.715018 93.872282 
L 74.572243 94.450866 
L 78.429467 95.02945 
L 82.286691 95.608033 
L 86.143915 96.186617 
L 90.00114 96.765201 
L 93.858364 97.343784 
L 97.715588 97.922368 
L 101.572812 98.500951 
L 105.430037 99.079535 
L 109.287261 99.658119 
L 113.144485 100.236702 
L 117.001709 100.815286 
L 120.858934 101.39387 
L 124.716158 101.972453 
L 128.573382 102.551037 
L 132.430606 103.129621 
L 136.287831 103.708204 
L 140.145055 104.286788 
L 144.002279 104.865371 
L 147.859503 105.443955 
L 151.716728 106.022539 
L 155.573952 106.601122 
L 159.431176 107.179706 
L 163.2884 107.75829 
L 167.145625 108.336873 
L 171.002849 108.915457 
L 174.860073 109.494041 
L 178.717297 110.072624 
L 182.574522 110.651208 
L 186.431746 111.229791 
L 190.28897 111.808375 
L 194.146194 112.386959 
L 198.003419 112.965542 
L 201.860643 113.544126 
L 205.717867 114.12271 
L 209.575091 114.701293 
L 213.432316 115.279877 
L 217.28954 115.858461 
L 221.146764 116.437044 
L 225.003989 117.015628 
L 228.861213 117.594211 
L 232.718437 118.172795 
L 236.575661 118.751379 
L 240.432886 119.329962 
L 244.29011 119.908546 
L 248.147334 120.48713 
L 252.004558 121.065713 
L 255.861783 121.644297 
L 259.719007 122.222881 
L 263.576231 122.801464 
L 267.433455 123.380048 
L 271.29068 123.958632 
L 275.147904 124.537215 
L 279.005128 125.115799 
L 282.862352 125.694382 
L 286.719577 126.272966 
L 290.576801 126.85155 
L 294.434025 127.430133 
L 298.291249 128.008717 
L 302.148474 128.587301 
L 306.005698 129.165884 
L 309.862922 129.744468 
L 313.720146 130.323052 
L 317.577371 130.901635 
L 321.434595 131.480219 
L 325.291819 132.058802 
L 329.149043 132.637386 
L 333.006268 133.21597 
L 336.863492 133.794553 
L 340.720716 134.373137 
L 344.57794 134.951721 
L 348.435165 135.530304 
L 352.292389 136.108888 
L 356.149613 136.687472 
L 360.006837 137.266055 
L 363.864062 137.844639 
L 367.721286 138.423222 
L 371.57851 139.001806 
L 375.435734 139.58039 
L 379.292959 140.158973 
L 383.150183 140.737557 
L 387.007407 141.316141 
L 390.864632 141.894724 
L 394.721856 142.473308 
L 398.57908 143.051892 
L 402.436304 143.630475 
L 406.293529 144.209059 
L 410.150753 144.787642 
L 414.007977 145.366226 
L 417.865201 145.94481 
" style="fill:none;stroke:#1f77b4;stroke-dasharray:5.55,2.4;stroke-dashoffset:0;stroke-width:1.5;"/>
   </g>
   <g id="line2d_5">
    <path clip-path="url(#p686a0c234c)" d="M 41.331394 369.892531 
L 45.007101 369.892531 
L 48.682809 369.892531 
L 52.358517 369.892531 
L 56.034225 369.892531 
L 59.709933 369.892531 
L 63.385641 369.892531 
L 67.061348 369.892531 
L 70.737056 369.892531 
L 74.412764 369.892531 
L 78.088472 369.892531 
L 81.76418 369.892531 
L 85.439887 369.892531 
L 89.115595 369.892531 
L 92.791303 369.892531 
L 96.467011 369.892531 
L 100.142719 369.892531 
L 103.818427 369.892531 
L 107.494134 369.892531 
L 111.169842 369.892531 
L 114.84555 369.892531 
L 118.521258 369.892531 
L 122.196966 369.892531 
L 125.872673 369.892531 
L 129.548381 369.892531 
L 133.224089 369.892531 
L 136.899797 369.892531 
L 140.575505 369.892531 
L 144.251213 369.892531 
L 147.92692 369.892531 
L 151.602628 369.892531 
L 155.278336 369.892531 
L 158.954044 369.892531 
L 162.629752 369.892531 
L 166.305459 369.892531 
L 169.981167 369.892531 
L 173.656875 369.892531 
L 177.332583 369.892531 
L 181.008291 369.892531 
L 184.683999 369.892531 
L 188.359706 369.892531 
L 192.035414 369.892531 
L 195.711122 369.892531 
L 199.38683 369.892531 
L 203.062538 369.892531 
L 206.738245 369.892531 
L 210.413953 369.892531 
L 214.089661 369.892531 
L 217.765369 369.892531 
L 221.441077 369.892531 
L 225.116785 369.892531 
L 228.792492 369.892531 
L 232.4682 369.892531 
L 236.143908 369.892531 
L 239.819616 369.892531 
L 243.495324 369.892531 
L 247.171032 369.892531 
L 250.846739 369.892531 
L 254.522447 369.892531 
L 258.198155 369.892531 
L 261.873863 369.892531 
L 265.549571 369.892531 
L 269.225278 369.892531 
L 272.900986 369.892531 
L 276.576694 369.892531 
L 280.252402 369.892531 
L 283.92811 369.892531 
L 287.603818 369.892531 
L 291.279525 369.892531 
L 294.955233 369.892531 
L 298.630941 369.892531 
L 302.306649 369.892531 
L 305.982357 369.892531 
L 309.658064 369.892531 
L 313.333772 369.892531 
L 317.00948 369.892531 
L 320.685188 369.892531 
L 324.360896 369.892531 
L 328.036604 369.892531 
L 331.712311 369.892531 
L 335.388019 369.892531 
L 339.063727 369.892531 
L 342.739435 369.892531 
L 346.415143 369.892531 
L 350.09085 369.892531 
L 353.766558 369.892531 
L 357.442266 369.892531 
L 361.117974 369.892531 
L 364.793682 369.892531 
L 368.46939 369.892531 
L 372.145097 369.892531 
L 375.820805 369.892531 
L 379.496513 369.892531 
L 383.172221 369.892531 
L 386.847929 369.892531 
L 390.523636 369.892531 
L 394.199344 369.892531 
L 397.875052 369.892531 
L 401.55076 369.892531 
L 405.226468 369.892531 
" style="fill:none;stroke:#2ca02c;stroke-dasharray:5.55,2.4;stroke-dashoffset:0;stroke-width:1.5;"/>
   </g>
   <g id="line2d_6">
    <path clip-path="url(#p686a0c234c)" d="M 405.212981 369.845906 
L 409.026486 369.780298 
L 412.834996 369.582975 
L 416.633575 369.254566 
L 420.417339 368.795887 
L 424.181472 368.207945 
L 427.921225 367.491924 
L 431.631926 366.649192 
L 435.308988 365.681286 
L 438.947913 364.589916 
L 442.544301 363.376952 
L 446.093852 362.044425 
L 449.592375 360.594518 
L 453.03579 359.029563 
L 456.420138 357.35203 
L 459.741581 355.564529 
L 462.996408 353.669797 
L 466.181039 351.670692 
L 469.29203 349.570194 
L 472.326077 347.371387 
L 475.280015 345.077464 
L 478.150826 342.691711 
L 480.935638 340.217506 
L 483.63173 337.658309 
L 486.236533 335.017657 
L 488.747629 332.299158 
L 491.162758 329.50648 
L 493.479813 326.643348 
L 495.696847 323.713536 
L 497.812066 320.720861 
L 499.823836 317.669172 
L 501.730679 314.562351 
L 503.531273 311.404298 
L 505.224455 308.198931 
L 506.809213 304.950175 
L 508.284691 301.661958 
L 509.650184 298.338204 
L 510.905138 294.982828 
L 512.049147 291.599728 
L 513.081951 288.192779 
L 514.003433 284.765832 
L 514.813618 281.322701 
L 515.512667 277.867163 
L 516.100877 274.402953 
L 516.578675 270.933754 
L 516.946616 267.463199 
L 517.20538 263.994861 
L 517.355765 260.532251 
L 517.398685 257.078815 
L 517.335168 253.637926 
L 517.166348 250.212885 
L 516.893459 246.806915 
L 516.517839 243.423159 
L 516.040914 240.064675 
L 515.464203 236.734435 
L 514.789306 233.435323 
L 514.017905 230.170133 
L 513.151753 226.941562 
L 512.192674 223.752217 
L 511.142556 220.604607 
L 510.003347 217.501142 
L 508.777047 214.444137 
L 507.465706 211.435806 
L 506.07142 208.478263 
L 504.596321 205.573525 
L 503.042578 202.723507 
L 501.412387 199.930025 
L 499.707971 197.194797 
L 497.93157 194.519444 
L 496.085442 191.905487 
L 494.171855 189.354354 
L 492.193083 186.867376 
L 490.151401 184.445793 
L 488.049084 182.090753 
L 485.8884 179.803315 
L 483.671607 177.584452 
L 481.400948 175.43505 
L 479.078651 173.355916 
L 476.706922 171.347775 
L 474.287944 169.411276 
L 471.823872 167.546997 
L 469.316833 165.755443 
L 466.768919 164.03705 
L 464.182191 162.392195 
L 461.558669 160.82119 
L 458.900337 159.324292 
L 456.209137 157.901705 
L 453.48697 156.553581 
L 450.735691 155.280029 
L 447.957111 154.081114 
L 445.152997 152.956861 
L 442.325068 151.907264 
L 439.474997 150.932282 
L 436.604409 150.031851 
L 433.714882 149.205879 
L 430.807948 148.454259 
L 427.885092 147.776866 
L 424.947753 147.173562 
L 421.997327 146.644203 
L 418.928323 146.173621 
" style="fill:none;stroke:#ff7f0e;stroke-dasharray:5.55,2.4;stroke-dashoffset:0;stroke-width:1.5;"/>
   </g>
  </g>
 </g>
 <defs>
  <clipPath id="p686a0c234c">
   <rect height="358.330708" width="554.4" x="10.8" y="36.834646"/>
  </clipPath>
 </defs>
</svg>
