<?xml version="1.0" encoding="utf-8" standalone="no"?>
<!DOCTYPE svg PUBLIC "-//W3C//DTD SVG 1.1//EN"
  "http://www.w3.org/Graphics/SVG/1.1/DTD/svg11.dtd">
<svg height="288pt" version="1.1" viewBox="0 0 432 288" width="432pt" xmlns="http://www.w3.org/2000/svg" xmlns:xlink="http://www.w3.org/1999/xlink">
 <metadata>
  <rdf:RDF xmlns:cc="http://creativecommons.org/ns#" xmlns:dc="http://purl.org/dc/elements/1.1/" xmlns:rdf="http://www.w3.org/1999/02/22-rdf-syntax-ns#">
   <cc:Work>
    <dc:type rdf:resource="http://purl.org/dc/dcmitype/StillImage"/>
    <dc:date>2022-12-05T09:52:11.660564</dc:date>
    <dc:format>image/svg+xml</dc:format>
    <dc:creator>
     <cc:Agent>
      <dc:title>Matplotlib v3.4.2, https://matplotlib.org/</dc:title>
     </cc:Agent>
    </dc:creator>
   </cc:Work>
  </rdf:RDF>
 </metadata>
 <defs>
  <style type="text/css">*{stroke-linecap:butt;stroke-linejoin:round;}</style>
 </defs>
 <g id="figure_1">
  <g id="patch_1">
   <path d="M 0 288 
L 432 288 
L 432 0 
L 0 0 
z
" style="fill:#ffffff;"/>
  </g>
  <g id="axes_1">
   <g id="line2d_1">
    <path clip-path="url(#pa4733e0d34)" d="M 54 61.74 
L 388.8 61.74 
" style="fill:none;stroke:#1f77b4;stroke-dasharray:5.55,2.4;stroke-dashoffset:0;stroke-width:1.5;"/>
   </g>
   <g id="line2d_2">
    <path clip-path="url(#pa4733e0d34)" d="M 54 229.14 
L 388.8 229.14 
" style="fill:none;stroke:#2ca02c;stroke-dasharray:5.55,2.4;stroke-dashoffset:0;stroke-width:1.5;"/>
   </g>
   <g id="line2d_3">
    <path clip-path="url(#pa4733e0d34)" d="M 137.7 237.51 
L 137.7 53.37 
" style="fill:none;stroke:#000000;stroke-linecap:square;stroke-width:1.5;"/>
   </g>
   <g id="line2d_4">
    <path clip-path="url(#pa4733e0d34)" d="M 305.1 237.51 
L 305.1 53.37 
" style="fill:none;stroke:#000000;stroke-linecap:square;stroke-width:1.5;"/>
   </g>
   <g id="line2d_5">
    <path clip-path="url(#pa4733e0d34)" d="M 137.7 61.74 
L 139.390909 61.790895 
L 141.081818 61.942198 
L 142.772727 62.191841 
L 144.463636 62.537752 
L 146.154545 62.977861 
L 147.845455 63.510098 
L 149.536364 64.132392 
L 151.227273 64.842674 
L 152.918182 65.638873 
L 154.609091 66.518919 
L 156.3 67.480741 
L 157.990909 68.522269 
L 159.681818 69.641433 
L 161.372727 70.836163 
L 163.063636 72.104388 
L 164.754545 73.444038 
L 166.445455 74.853042 
L 168.136364 76.329331 
L 169.827273 77.870835 
L 171.518182 79.475482 
L 173.209091 81.141202 
L 174.9 82.865926 
L 176.590909 84.647583 
L 178.281818 86.484102 
L 179.972727 88.373414 
L 181.663636 90.313448 
L 183.354545 92.302134 
L 185.045455 94.337401 
L 186.736364 96.41718 
L 188.427273 98.539399 
L 190.118182 100.701989 
L 191.809091 102.902879 
L 193.5 105.14 
L 195.190909 107.41128 
L 196.881818 109.71465 
L 198.572727 112.048039 
L 200.263636 114.409377 
L 201.954545 116.796593 
L 203.645455 119.207618 
L 205.336364 121.640381 
L 207.027273 124.092812 
L 208.718182 126.56284 
L 210.409091 129.048395 
L 212.1 131.547407 
L 213.790909 134.057806 
L 215.481818 136.577521 
L 217.172727 139.104482 
L 218.863636 141.636619 
L 220.554545 144.171861 
L 222.245455 146.708139 
L 223.936364 149.243381 
L 225.627273 151.775518 
L 227.318182 154.302479 
L 229.009091 156.822194 
L 230.7 159.332593 
L 232.390909 161.831605 
L 234.081818 164.31716 
L 235.772727 166.787188 
L 237.463636 169.239619 
L 239.154545 171.672382 
L 240.845455 174.083407 
L 242.536364 176.470623 
L 244.227273 178.831961 
L 245.918182 181.16535 
L 247.609091 183.46872 
L 249.3 185.74 
L 250.990909 187.977121 
L 252.681818 190.178011 
L 254.372727 192.340601 
L 256.063636 194.46282 
L 257.754545 196.542599 
L 259.445455 198.577866 
L 261.136364 200.566552 
L 262.827273 202.506586 
L 264.518182 204.395898 
L 266.209091 206.232417 
L 267.9 208.014074 
L 269.590909 209.738798 
L 271.281818 211.404518 
L 272.972727 213.009165 
L 274.663636 214.550669 
L 276.354545 216.026958 
L 278.045455 217.435962 
L 279.736364 218.775612 
L 281.427273 220.043837 
L 283.118182 221.238567 
L 284.809091 222.357731 
L 286.5 223.399259 
L 288.190909 224.361081 
L 289.881818 225.241127 
L 291.572727 226.037326 
L 293.263636 226.747608 
L 294.954545 227.369902 
L 296.645455 227.902139 
L 298.336364 228.342248 
L 300.027273 228.688159 
L 301.718182 228.937802 
L 303.409091 229.089105 
L 305.1 229.14 
" style="fill:none;stroke:#ff7f0e;stroke-dasharray:5.55,2.4;stroke-dashoffset:0;stroke-width:1.5;"/>
   </g>
   <g id="text_1">
    <!-- $d_1$ -->
    <g style="fill:#1f77b4;" transform="translate(82.458 53.37)scale(0.25 -0.25)">
     <defs>
      <path d="M 3219 4257 
C 3226 4282 3238 4320 3238 4352 
C 3238 4416 3174 4416 3162 4416 
C 3155 4416 2842 4388 2810 4380 
C 2701 4373 2605 4358 2490 4358 
C 2330 4345 2285 4339 2285 4224 
C 2285 4160 2336 4160 2426 4160 
C 2739 4160 2746 4103 2746 4040 
C 2746 4002 2733 3952 2726 3933 
L 2336 2395 
C 2266 2561 2093 2816 1760 2816 
C 1037 2816 256 1884 256 939 
C 256 307 627 -64 1062 -64 
C 1414 -64 1715 211 1894 422 
C 1958 45 2259 -64 2451 -64 
C 2643 -64 2797 51 2912 281 
C 3014 498 3104 888 3104 913 
C 3104 945 3078 971 3040 971 
C 2982 971 2976 939 2950 843 
C 2854 466 2733 64 2470 64 
C 2285 64 2272 229 2272 357 
C 2272 382 2272 515 2317 694 
L 3219 4257 
z
M 1926 760 
C 1894 651 1894 639 1805 517 
C 1664 338 1382 64 1082 64 
C 819 64 672 300 672 677 
C 672 1028 870 1743 992 2012 
C 1210 2459 1510 2689 1760 2689 
C 2182 2689 2266 2165 2266 2114 
C 2266 2108 2246 2024 2240 2012 
L 1926 760 
z
" id="CMMI12-64" transform="scale(0.015625)"/>
      <path d="M 1702 4058 
C 1702 4192 1696 4192 1606 4192 
C 1357 3916 979 3827 621 3827 
C 602 3827 570 3827 563 3808 
C 557 3795 557 3782 557 3648 
C 755 3648 1088 3686 1344 3839 
L 1344 461 
C 1344 236 1331 160 781 160 
L 589 160 
L 589 0 
C 896 0 1216 0 1523 0 
C 1830 0 2150 0 2458 0 
L 2458 160 
L 2266 160 
C 1715 160 1702 230 1702 458 
L 1702 4058 
z
" id="CMR17-31" transform="scale(0.015625)"/>
     </defs>
     <use transform="scale(0.996264)" xlink:href="#CMMI12-64"/>
     <use transform="translate(50.689097 -14.943915)scale(0.697382)" xlink:href="#CMR17-31"/>
    </g>
   </g>
   <g id="text_2">
    <!-- $d_2$ -->
    <g style="fill:#2ca02c;" transform="translate(338.58 254.25)scale(0.25 -0.25)">
     <defs>
      <path d="M 2669 989 
L 2554 989 
C 2490 536 2438 459 2413 420 
C 2381 369 1920 369 1830 369 
L 602 369 
C 832 619 1280 1072 1824 1597 
C 2214 1967 2669 2402 2669 3035 
C 2669 3790 2067 4224 1395 4224 
C 691 4224 262 3604 262 3030 
C 262 2780 448 2748 525 2748 
C 589 2748 781 2787 781 3010 
C 781 3207 614 3264 525 3264 
C 486 3264 448 3258 422 3245 
C 544 3790 915 4058 1306 4058 
C 1862 4058 2227 3617 2227 3035 
C 2227 2479 1901 2000 1536 1584 
L 262 146 
L 262 0 
L 2515 0 
L 2669 989 
z
" id="CMR17-32" transform="scale(0.015625)"/>
     </defs>
     <use transform="scale(0.996264)" xlink:href="#CMMI12-64"/>
     <use transform="translate(50.689097 -14.943915)scale(0.697382)" xlink:href="#CMR17-32"/>
    </g>
   </g>
   <g id="text_3">
    <!-- $f(t)$ -->
    <g style="fill:#ff7f0e;" transform="translate(229.77 137.07)scale(0.25 -0.25)">
     <defs>
      <path d="M 2854 2566 
C 2982 2566 3034 2566 3034 2688 
C 3034 2752 2982 2752 2867 2752 
L 2349 2752 
C 2470 3429 2560 3897 2611 4107 
C 2650 4265 2784 4416 2950 4416 
C 3085 4416 3219 4358 3283 4298 
C 3034 4272 2957 4082 2957 3969 
C 2957 3837 3053 3759 3174 3759 
C 3302 3759 3494 3870 3494 4119 
C 3494 4393 3226 4544 2944 4544 
C 2669 4544 2400 4334 2272 4078 
C 2157 3848 2093 3611 1946 2752 
L 1517 2752 
C 1395 2752 1331 2752 1331 2637 
C 1331 2566 1370 2566 1498 2566 
L 1907 2566 
C 1792 1976 1530 542 1382 -137 
C 1274 -689 1178 -1152 858 -1152 
C 838 -1152 653 -1152 538 -1031 
C 864 -1005 864 -726 864 -720 
C 864 -593 768 -517 646 -517 
C 518 -517 326 -625 326 -867 
C 326 -1140 608 -1280 858 -1280 
C 1510 -1280 1779 -118 1850 199 
C 1965 688 2278 2376 2310 2566 
L 2854 2566 
z
" id="CMMI12-66" transform="scale(0.015625)"/>
      <path d="M 1958 -1561 
C 1958 -1555 1958 -1542 1939 -1523 
C 1645 -1224 858 -407 858 1581 
C 858 3569 1632 4379 1946 4697 
C 1946 4704 1958 4717 1958 4736 
C 1958 4755 1939 4768 1914 4768 
C 1843 4768 1299 4296 986 3594 
C 666 2887 576 2199 576 1588 
C 576 1128 621 351 1005 -471 
C 1312 -1135 1837 -1600 1914 -1600 
C 1946 -1600 1958 -1587 1958 -1561 
z
" id="CMR17-28" transform="scale(0.015625)"/>
      <path d="M 1286 2566 
L 1875 2566 
C 1997 2566 2061 2566 2061 2681 
C 2061 2752 2022 2752 1894 2752 
L 1331 2752 
L 1568 3692 
C 1594 3781 1594 3794 1594 3840 
C 1594 3943 1510 4000 1427 4000 
C 1376 4000 1229 3981 1178 3775 
L 928 2752 
L 326 2752 
C 198 2752 141 2752 141 2630 
C 141 2566 186 2566 307 2566 
L 877 2566 
L 454 881 
C 403 658 384 594 384 511 
C 384 211 595 -64 954 -64 
C 1600 -64 1946 868 1946 912 
C 1946 951 1920 970 1882 970 
C 1869 970 1843 970 1830 944 
C 1824 938 1818 931 1773 829 
C 1638 511 1344 64 973 64 
C 781 64 768 224 768 364 
C 768 370 768 492 787 568 
L 1286 2566 
z
" id="CMMI12-74" transform="scale(0.015625)"/>
      <path d="M 1683 1581 
C 1683 2040 1638 2817 1254 3639 
C 947 4303 422 4768 346 4768 
C 326 4768 301 4761 301 4729 
C 301 4717 307 4710 314 4697 
C 621 4378 1402 3568 1402 1584 
C 1402 -407 627 -1217 314 -1537 
C 307 -1549 301 -1556 301 -1568 
C 301 -1600 326 -1600 346 -1600 
C 416 -1600 960 -1128 1274 -426 
C 1594 281 1683 969 1683 1581 
z
" id="CMR17-29" transform="scale(0.015625)"/>
     </defs>
     <use transform="scale(0.996264)" xlink:href="#CMMI12-66"/>
     <use transform="translate(58.720305 0)scale(0.996264)" xlink:href="#CMR17-28"/>
     <use transform="translate(94.001073 0)scale(0.996264)" xlink:href="#CMMI12-74"/>
     <use transform="translate(129.227403 0)scale(0.996264)" xlink:href="#CMR17-29"/>
    </g>
   </g>
  </g>
 </g>
 <defs>
  <clipPath id="pa4733e0d34">
   <rect height="184.14" width="334.8" x="54" y="53.37"/>
  </clipPath>
 </defs>
</svg>
