<?xml version="1.0" encoding="utf-8" standalone="no"?>
<!DOCTYPE svg PUBLIC "-//W3C//DTD SVG 1.1//EN"
  "http://www.w3.org/Graphics/SVG/1.1/DTD/svg11.dtd">
<!-- Created with matplotlib (https://matplotlib.org/) -->
<svg height="216pt" version="1.1" viewBox="0 0 720 216" width="720pt" xmlns="http://www.w3.org/2000/svg" xmlns:xlink="http://www.w3.org/1999/xlink">
 <metadata>
  <rdf:RDF xmlns:cc="http://creativecommons.org/ns#" xmlns:dc="http://purl.org/dc/elements/1.1/" xmlns:rdf="http://www.w3.org/1999/02/22-rdf-syntax-ns#">
   <cc:Work>
    <dc:type rdf:resource="http://purl.org/dc/dcmitype/StillImage"/>
    <dc:date>2022-07-17T13:39:47.425925</dc:date>
    <dc:format>image/svg+xml</dc:format>
    <dc:creator>
     <cc:Agent>
      <dc:title>Matplotlib v3.3.3, https://matplotlib.org/</dc:title>
     </cc:Agent>
    </dc:creator>
   </cc:Work>
  </rdf:RDF>
 </metadata>
 <defs>
  <style type="text/css">*{stroke-linecap:butt;stroke-linejoin:round;}</style>
 </defs>
 <g id="figure_1">
  <g id="patch_1">
   <path d="M 0 216 
L 720 216 
L 720 0 
L 0 0 
z
" style="fill:#ffffff;"/>
  </g>
  <g id="axes_1">
   <g id="line2d_1">
    <path clip-path="url(#p36400e4d28)" d="M 260.298701 47.225455 
L 115.363636 184.68 
L 115.363636 184.68 
" style="fill:none;stroke:#ff7f0e;stroke-linecap:square;stroke-width:5;"/>
   </g>
   <g id="line2d_2">
    <path clip-path="url(#p36400e4d28)" d="M 115.363636 184.68 
L 260.298701 47.225455 
" style="fill:none;stroke:#1f77b4;stroke-dasharray:7.4,3.2;stroke-dashoffset:0;stroke-width:2;"/>
    <defs>
     <path d="M 0 3 
C 0.795609 3 1.55874 2.683901 2.12132 2.12132 
C 2.683901 1.55874 3 0.795609 3 0 
C 3 -0.795609 2.683901 -1.55874 2.12132 -2.12132 
C 1.55874 -2.683901 0.795609 -3 0 -3 
C -0.795609 -3 -1.55874 -2.683901 -2.12132 -2.12132 
C -2.683901 -1.55874 -3 -0.795609 -3 0 
C -3 0.795609 -2.683901 1.55874 -2.12132 2.12132 
C -1.55874 2.683901 -0.795609 3 0 3 
z
" id="m649da1ba01" style="stroke:#1f77b4;"/>
    </defs>
    <g clip-path="url(#p36400e4d28)">
     <use style="fill:#1f77b4;stroke:#1f77b4;" x="115.363636" xlink:href="#m649da1ba01" y="184.68"/>
     <use style="fill:#1f77b4;stroke:#1f77b4;" x="260.298701" xlink:href="#m649da1ba01" y="47.225455"/>
    </g>
   </g>
   <g id="line2d_3">
    <path clip-path="url(#p36400e4d28)" d="M 405.233766 47.225455 
L 396.790363 51.353219 
L 389.125368 55.343391 
L 382.188243 59.195971 
L 375.706544 63.04855 
L 369.887654 66.763538 
L 364.684519 70.340934 
L 359.874074 73.918329 
L 355.618971 77.358133 
L 351.875642 80.660344 
L 348.466912 83.962555 
L 345.514189 87.127174 
L 342.868764 90.291794 
L 340.625903 93.318821 
L 338.664199 96.345848 
L 337.05394 99.235283 
L 335.699859 102.124717 
L 334.648427 104.87656 
L 333.829356 107.628403 
L 333.242646 110.380246 
L 332.888296 113.132088 
L 332.766306 115.883931 
L 332.876678 118.635774 
L 333.21941 121.387617 
L 333.794502 124.139459 
L 334.601955 126.891302 
L 335.641769 129.643145 
L 336.913943 132.394988 
L 338.499804 135.284423 
L 340.341843 138.173857 
L 342.546364 141.200885 
L 345.032041 144.227912 
L 347.93132 147.392531 
L 351.137897 150.55715 
L 354.811518 153.859361 
L 358.819738 157.161572 
L 363.350769 160.601376 
L 368.244864 164.041179 
L 373.719861 167.618575 
L 379.821069 171.333563 
L 386.345755 175.04855 
L 393.559389 178.90113 
L 401.510769 182.891302 
L 405.233766 184.68 
L 405.233766 184.68 
" style="fill:none;stroke:#ff7f0e;stroke-linecap:square;stroke-width:5;"/>
   </g>
   <g id="line2d_4">
    <path clip-path="url(#p36400e4d28)" d="M 405.233766 184.68 
L 260.298701 115.952727 
L 405.233766 47.225455 
" style="fill:none;stroke:#1f77b4;stroke-dasharray:7.4,3.2;stroke-dashoffset:0;stroke-width:2;"/>
    <g clip-path="url(#p36400e4d28)">
     <use style="fill:#1f77b4;stroke:#1f77b4;" x="405.233766" xlink:href="#m649da1ba01" y="184.68"/>
     <use style="fill:#1f77b4;stroke:#1f77b4;" x="260.298701" xlink:href="#m649da1ba01" y="115.952727"/>
     <use style="fill:#1f77b4;stroke:#1f77b4;" x="405.233766" xlink:href="#m649da1ba01" y="47.225455"/>
    </g>
   </g>
   <g id="line2d_5">
    <path clip-path="url(#p36400e4d28)" d="M 463.207792 60.970909 
L 469.778476 59.697603 
L 476.170744 58.679688 
L 482.382451 57.909848 
L 488.411456 57.380767 
L 494.255616 57.085132 
L 499.912788 57.015626 
L 505.38083 57.164934 
L 510.657599 57.525741 
L 515.740952 58.090731 
L 520.628748 58.852589 
L 525.318843 59.804 
L 529.809094 60.937648 
L 534.097359 62.246219 
L 538.181496 63.722396 
L 542.059361 65.358865 
L 545.728813 67.148311 
L 549.187708 69.083417 
L 552.433904 71.156868 
L 555.465259 73.36135 
L 558.279629 75.689547 
L 560.874872 78.134143 
L 563.248845 80.687824 
L 565.399407 83.343273 
L 567.21746 85.928934 
L 568.833927 88.592164 
L 570.247022 91.326865 
L 571.454959 94.126937 
L 572.455951 96.986283 
L 573.248213 99.898802 
L 573.829957 102.858397 
L 574.199397 105.858969 
L 574.354747 108.894418 
L 574.294221 111.958646 
L 574.016033 115.045554 
L 573.518396 118.149043 
L 572.799523 121.263015 
L 571.857629 124.38137 
L 570.690927 127.498009 
L 569.297631 130.606835 
L 567.675955 133.701748 
L 565.824112 136.776649 
L 563.740315 139.825439 
L 561.42278 142.84202 
L 558.702291 146.005024 
L 555.713773 149.117465 
L 552.455084 152.17203 
L 548.92408 155.161402 
L 545.118619 158.078267 
L 541.036559 160.915308 
L 536.675756 163.665212 
L 532.034069 166.320661 
L 527.109354 168.874342 
L 521.899469 171.318938 
L 516.402272 173.647135 
L 510.615619 175.851617 
L 504.537369 177.925068 
L 498.165378 179.860174 
L 491.497504 181.649619 
L 484.531604 183.286088 
L 477.701299 184.68 
L 477.701299 184.68 
" style="fill:none;stroke:#ff7f0e;stroke-linecap:square;stroke-width:5;"/>
   </g>
   <g id="line2d_6">
    <path clip-path="url(#p36400e4d28)" d="M 477.701299 184.68 
L 622.636364 157.189091 
L 593.649351 33.48 
L 463.207792 60.970909 
" style="fill:none;stroke:#1f77b4;stroke-dasharray:7.4,3.2;stroke-dashoffset:0;stroke-width:2;"/>
    <g clip-path="url(#p36400e4d28)">
     <use style="fill:#1f77b4;stroke:#1f77b4;" x="477.701299" xlink:href="#m649da1ba01" y="184.68"/>
     <use style="fill:#1f77b4;stroke:#1f77b4;" x="622.636364" xlink:href="#m649da1ba01" y="157.189091"/>
     <use style="fill:#1f77b4;stroke:#1f77b4;" x="593.649351" xlink:href="#m649da1ba01" y="33.48"/>
     <use style="fill:#1f77b4;stroke:#1f77b4;" x="463.207792" xlink:href="#m649da1ba01" y="60.970909"/>
    </g>
   </g>
   <g id="text_1">
    <!-- $n = 1$ -->
    <g transform="translate(129.857143 129.698182)scale(0.12 -0.12)">
     <defs>
      <path d="M 20.59375 29.234375 
C 20.796875 29.84375 23.296875 34.828125 27 38.015625 
C 29.59375 40.40625 33 42.015625 36.90625 42.015625 
C 40.90625 42.015625 42.296875 39.015625 42.296875 35.03125 
C 42.296875 29.34375 38.203125 17.96875 36.203125 12.578125 
C 35.296875 10.171875 34.796875 8.875 34.796875 7.078125 
C 34.796875 2.59375 37.90625 -1 42.703125 -1 
C 52 -1 55.5 13.671875 55.5 14.265625 
C 55.5 14.765625 55.09375 15.171875 54.5 15.171875 
C 53.59375 15.171875 53.5 14.875 53 13.171875 
C 50.703125 4.984375 46.90625 1 43 1 
C 42 1 40.40625 1 40.40625 4.203125 
C 40.40625 6.703125 41.5 9.703125 42.09375 11.09375 
C 44.09375 16.609375 48.296875 27.8125 48.296875 33.515625 
C 48.296875 39.5 44.796875 44 37.203125 44 
C 28.296875 44 23.59375 37.734375 21.796875 35.234375 
C 21.5 40.90625 17.40625 44 13 44 
C 9.796875 44 7.59375 42.109375 5.90625 38.71875 
C 4.09375 35.125 2.703125 29.140625 2.703125 28.734375 
C 2.703125 28.34375 3.09375 27.84375 3.796875 27.84375 
C 4.59375 27.84375 4.703125 27.9375 5.296875 30.234375 
C 6.90625 36.328125 8.703125 42.015625 12.703125 42.015625 
C 15 42.015625 15.796875 40.40625 15.796875 37.421875 
C 15.796875 35.21875 14.796875 31.328125 14.09375 28.234375 
L 11.296875 17.46875 
C 10.90625 15.5625 9.796875 11.078125 9.296875 9.28125 
C 8.59375 6.6875 7.5 2 7.5 1.5 
C 7.5 0.09375 8.59375 -1 10.09375 -1 
C 11.296875 -1 12.703125 -0.40625 13.5 1.09375 
C 13.703125 1.59375 14.59375 5.09375 15.09375 7.078125 
L 17.296875 16.0625 
z
" id="CMMI12-110"/>
      <path d="M 64.296875 31.515625 
C 65.796875 31.515625 67.296875 31.515625 67.296875 33.203125 
C 67.296875 35 65.59375 35 63.90625 35 
L 8 35 
C 6.296875 35 4.59375 35 4.59375 33.203125 
C 4.59375 31.515625 6.09375 31.515625 7.59375 31.515625 
z
M 63.90625 14 
C 65.59375 14 67.296875 14 67.296875 15.796875 
C 67.296875 17.484375 65.796875 17.484375 64.296875 17.484375 
L 7.59375 17.484375 
C 6.09375 17.484375 4.59375 17.484375 4.59375 15.796875 
C 4.59375 14 6.296875 14 8 14 
z
" id="CMR17-61"/>
      <path d="M 26.59375 63.40625 
C 26.59375 65.5 26.5 65.5 25.09375 65.5 
C 21.203125 61.1875 15.296875 59.796875 9.703125 59.796875 
C 9.40625 59.796875 8.90625 59.796875 8.796875 59.5 
C 8.703125 59.296875 8.703125 59.09375 8.703125 57 
C 11.796875 57 17 57.59375 21 59.984375 
L 21 7.203125 
C 21 3.6875 20.796875 2.5 12.203125 2.5 
L 9.203125 2.5 
L 9.203125 0 
C 14 0 19 0 23.796875 0 
C 28.59375 0 33.59375 0 38.40625 0 
L 38.40625 2.5 
L 35.40625 2.5 
C 26.796875 2.5 26.59375 3.59375 26.59375 7.15625 
z
" id="CMR17-49"/>
     </defs>
     <use transform="scale(0.996264)" xlink:href="#CMMI12-110"/>
     <use transform="translate(85.904056 0)scale(0.996264)" xlink:href="#CMR17-61"/>
     <use transform="translate(185.292853 0)scale(0.996264)" xlink:href="#CMR17-49"/>
    </g>
   </g>
   <g id="text_2">
    <!-- $n = 2$ -->
    <g transform="translate(303.779221 74.716364)scale(0.12 -0.12)">
     <defs>
      <path d="M 41.703125 15.453125 
L 39.90625 15.453125 
C 38.90625 8.375 38.09375 7.171875 37.703125 6.5625 
C 37.203125 5.765625 30 5.765625 28.59375 5.765625 
L 9.40625 5.765625 
C 13 9.671875 20 16.75 28.5 24.953125 
C 34.59375 30.734375 41.703125 37.53125 41.703125 47.421875 
C 41.703125 59.21875 32.296875 66 21.796875 66 
C 10.796875 66 4.09375 56.3125 4.09375 47.34375 
C 4.09375 43.4375 7 42.9375 8.203125 42.9375 
C 9.203125 42.9375 12.203125 43.546875 12.203125 47.03125 
C 12.203125 50.109375 9.59375 51 8.203125 51 
C 7.59375 51 7 50.90625 6.59375 50.703125 
C 8.5 59.21875 14.296875 63.40625 20.40625 63.40625 
C 29.09375 63.40625 34.796875 56.515625 34.796875 47.421875 
C 34.796875 38.734375 29.703125 31.25 24 24.75 
L 4.09375 2.28125 
L 4.09375 0 
L 39.296875 0 
z
" id="CMR17-50"/>
     </defs>
     <use transform="scale(0.996264)" xlink:href="#CMMI12-110"/>
     <use transform="translate(85.904056 0)scale(0.996264)" xlink:href="#CMR17-61"/>
     <use transform="translate(185.292853 0)scale(0.996264)" xlink:href="#CMR17-50"/>
    </g>
   </g>
   <g id="text_3">
    <!-- $n = 3$ -->
    <g transform="translate(477.701299 164.061818)scale(0.12 -0.12)">
     <defs>
      <path d="M 22.09375 33.703125 
C 31 33.703125 34.90625 25.96875 34.90625 17.03125 
C 34.90625 5 28.5 0.390625 22.703125 0.390625 
C 17.40625 0.390625 8.796875 3.03125 6.09375 10.828125 
C 6.59375 10.625 7.09375 10.625 7.59375 10.625 
C 10 10.625 11.796875 12.21875 11.796875 14.8125 
C 11.796875 17.703125 9.59375 19 7.59375 19 
C 5.90625 19 3.296875 18.203125 3.296875 14.46875 
C 3.296875 5.234375 12.296875 -2 22.90625 -2 
C 34 -2 42.5 6.71875 42.5 16.953125 
C 42.5 26.671875 34.5 33.703125 25 34.796875 
C 32.59375 36.375 39.90625 43.0625 39.90625 52.015625 
C 39.90625 59.6875 32 65.296875 23 65.296875 
C 13.90625 65.296875 5.90625 59.828125 5.90625 52.015625 
C 5.90625 48.59375 8.5 48 9.796875 48 
C 11.90625 48 13.703125 49.296875 13.703125 51.890625 
C 13.703125 54.46875 11.90625 55.765625 9.796875 55.765625 
C 9.40625 55.765625 8.90625 55.765625 8.5 55.578125 
C 11.40625 61.859375 19.296875 63 22.796875 63 
C 26.296875 63 32.90625 61.328125 32.90625 51.875 
C 32.90625 49.109375 32.5 44.1875 29.09375 39.84375 
C 26.09375 36 22.703125 36 19.40625 35.6875 
C 18.90625 35.6875 16.59375 35.453125 16.203125 35.453125 
C 15.5 35.359375 15.09375 35.265625 15.09375 34.5 
C 15.09375 33.796875 15.203125 33.703125 17.203125 33.703125 
z
" id="CMR17-51"/>
     </defs>
     <use transform="scale(0.996264)" xlink:href="#CMMI12-110"/>
     <use transform="translate(85.904056 0)scale(0.996264)" xlink:href="#CMR17-61"/>
     <use transform="translate(185.292853 0)scale(0.996264)" xlink:href="#CMR17-51"/>
    </g>
   </g>
  </g>
 </g>
 <defs>
  <clipPath id="p36400e4d28">
   <rect height="166.32" width="558" x="90" y="25.92"/>
  </clipPath>
 </defs>
</svg>
