<?xml version="1.0" encoding="utf-8" standalone="no"?>
<!DOCTYPE svg PUBLIC "-//W3C//DTD SVG 1.1//EN"
  "http://www.w3.org/Graphics/SVG/1.1/DTD/svg11.dtd">
<!-- Created with matplotlib (https://matplotlib.org/) -->
<svg height="345.6pt" version="1.1" viewBox="0 0 460.8 345.6" width="460.8pt" xmlns="http://www.w3.org/2000/svg" xmlns:xlink="http://www.w3.org/1999/xlink">
 <defs>
  <style type="text/css">
*{stroke-linecap:butt;stroke-linejoin:round;}
  </style>
 </defs>
 <g id="figure_1">
  <g id="patch_1">
   <path d="M 0 345.6 
L 460.8 345.6 
L 460.8 0 
L 0 0 
z
" style="fill:#ffffff;"/>
  </g>
  <g id="axes_1">
   <g id="line2d_1">
    <path clip-path="url(#p2be75a4ffc)" d="M 407.852308 46.589538 
L 392.911445 47.815798 
L 378.33695 49.240605 
L 364.7667 50.785865 
L 351.530268 52.512032 
L 338.627656 54.419108 
L 326.058862 56.507092 
L 314.398936 58.66384 
L 303.041794 60.984678 
L 291.987435 63.469604 
L 281.235861 66.11862 
L 271.302318 68.787173 
L 261.642038 71.603816 
L 252.255019 74.568549 
L 243.141264 77.681374 
L 234.30077 80.942289 
L 226.177633 84.168181 
L 218.299751 87.526985 
L 210.667124 91.018701 
L 203.279752 94.64333 
L 196.137634 98.400871 
L 189.240771 102.291325 
L 182.952263 106.087683 
L 176.882516 110.002596 
L 171.03153 114.036064 
L 165.399306 118.188086 
L 159.985842 122.458662 
L 154.79114 126.847793 
L 149.815199 131.355479 
L 145.331798 135.706305 
L 141.042178 140.162148 
L 136.94634 144.723009 
L 133.044284 149.388887 
L 129.336009 154.159781 
L 125.821516 159.035693 
L 122.500804 164.016622 
L 119.373874 169.102569 
L 116.440725 174.293532 
L 113.701358 179.589512 
L 111.155773 184.99051 
L 108.803969 190.496524 
L 106.645947 196.107556 
L 104.681706 201.823605 
L 102.911247 207.644671 
L 101.33457 213.570754 
L 99.951674 219.601854 
L 98.76256 225.737972 
L 97.711453 232.372664 
L 96.879107 239.125911 
L 96.265523 245.997712 
L 95.8707 252.988067 
L 95.694638 260.096978 
L 95.737338 267.324442 
L 95.998798 274.670461 
L 96.47902 282.135035 
L 97.225932 290.167921 
L 98.2181 298.33372 
L 98.806154 302.466462 
L 98.806154 302.466462 
" style="fill:none;stroke:#ff7f0e;stroke-linecap:square;stroke-width:5;"/>
   </g>
   <g id="line2d_2">
    <path clip-path="url(#p2be75a4ffc)" d="M 98.806154 302.466462 
L 64.467692 72.177231 
L 407.852308 46.589538 
" style="fill:none;stroke:#1f77b4;stroke-dasharray:7.4,3.2;stroke-dashoffset:0;stroke-width:2;"/>
    <defs>
     <path d="M 0 3 
C 0.795609 3 1.55874 2.683901 2.12132 2.12132 
C 2.683901 1.55874 3 0.795609 3 0 
C 3 -0.795609 2.683901 -1.55874 2.12132 -2.12132 
C 1.55874 -2.683901 0.795609 -3 0 -3 
C -0.795609 -3 -1.55874 -2.683901 -2.12132 -2.12132 
C -2.683901 -1.55874 -3 -0.795609 -3 0 
C -3 0.795609 -2.683901 1.55874 -2.12132 2.12132 
C -1.55874 2.683901 -0.795609 3 0 3 
z
" id="m1e5f007ba7" style="stroke:#1f77b4;"/>
    </defs>
    <g clip-path="url(#p2be75a4ffc)">
     <use style="fill:#1f77b4;stroke:#1f77b4;" x="98.806154" xlink:href="#m1e5f007ba7" y="302.466462"/>
     <use style="fill:#1f77b4;stroke:#1f77b4;" x="64.467692" xlink:href="#m1e5f007ba7" y="72.177231"/>
     <use style="fill:#1f77b4;stroke:#1f77b4;" x="407.852308" xlink:href="#m1e5f007ba7" y="46.589538"/>
    </g>
   </g>
   <g id="line2d_3">
    <path clip-path="url(#p2be75a4ffc)" d="M 304.836923 97.764923 
L 309.947319 101.705357 
L 314.76245 105.686467 
L 319.285362 109.704469 
L 323.5191 113.755581 
L 327.466711 117.83602 
L 331.13124 121.942003 
L 334.515734 126.069748 
L 337.623237 130.215472 
L 340.456796 134.375392 
L 343.019456 138.545726 
L 345.314264 142.722691 
L 347.344265 146.902504 
L 349.015683 150.835659 
L 350.457768 154.764833 
L 351.673061 158.686872 
L 352.6641 162.598622 
L 353.433426 166.49693 
L 353.983576 170.378641 
L 354.317091 174.240603 
L 354.43651 178.079661 
L 354.344372 181.892661 
L 354.043217 185.676451 
L 353.497059 189.661194 
L 352.720852 193.605618 
L 351.717642 197.50594 
L 350.490475 201.358377 
L 349.042397 205.159147 
L 347.376453 208.904467 
L 345.49569 212.590554 
L 343.403153 216.213626 
L 341.101888 219.7699 
L 338.441133 223.458354 
L 335.553402 227.06319 
L 332.442311 230.579916 
L 329.111474 234.004043 
L 325.564508 237.33108 
L 321.805027 240.556537 
L 317.836649 243.675923 
L 313.662987 246.684749 
L 309.038744 249.735825 
L 304.194055 252.653431 
L 299.133174 255.432286 
L 293.860353 258.067108 
L 288.379843 260.552616 
L 282.695897 262.88353 
L 276.812767 265.054569 
L 270.734705 267.06045 
L 264.465965 268.895895 
L 258.010797 270.555621 
L 251.373454 272.034347 
L 244.558188 273.326792 
L 237.569253 274.427677 
L 230.410899 275.331718 
L 223.087379 276.033636 
L 215.602945 276.528149 
L 207.96185 276.809977 
L 201.821538 276.878769 
L 201.821538 276.878769 
" style="fill:none;stroke:#ff7f0e;stroke-linecap:square;stroke-width:5;"/>
   </g>
   <g id="line2d_4">
    <path clip-path="url(#p2be75a4ffc)" d="M 201.821538 276.878769 
L 339.175385 276.878769 
L 407.852308 174.528 
L 304.836923 97.764923 
" style="fill:none;stroke:#1f77b4;stroke-dasharray:7.4,3.2;stroke-dashoffset:0;stroke-width:2;"/>
    <g clip-path="url(#p2be75a4ffc)">
     <use style="fill:#1f77b4;stroke:#1f77b4;" x="201.821538" xlink:href="#m1e5f007ba7" y="276.878769"/>
     <use style="fill:#1f77b4;stroke:#1f77b4;" x="339.175385" xlink:href="#m1e5f007ba7" y="276.878769"/>
     <use style="fill:#1f77b4;stroke:#1f77b4;" x="407.852308" xlink:href="#m1e5f007ba7" y="174.528"/>
     <use style="fill:#1f77b4;stroke:#1f77b4;" x="304.836923" xlink:href="#m1e5f007ba7" y="97.764923"/>
    </g>
   </g>
   <g id="line2d_5">
    <path clip-path="url(#p2be75a4ffc)" d="M 270.498462 110.558769 
L 133.144615 238.497231 
L 133.144615 238.497231 
" style="fill:none;stroke:#ff7f0e;stroke-linecap:square;stroke-width:5;"/>
   </g>
   <g id="line2d_6">
    <path clip-path="url(#p2be75a4ffc)" d="M 133.144615 238.497231 
L 270.498462 110.558769 
" style="fill:none;stroke:#1f77b4;stroke-dasharray:7.4,3.2;stroke-dashoffset:0;stroke-width:2;"/>
    <g clip-path="url(#p2be75a4ffc)">
     <use style="fill:#1f77b4;stroke:#1f77b4;" x="133.144615" xlink:href="#m1e5f007ba7" y="238.497231"/>
     <use style="fill:#1f77b4;stroke:#1f77b4;" x="270.498462" xlink:href="#m1e5f007ba7" y="110.558769"/>
    </g>
   </g>
   <g id="text_1">
    <!-- n = 3 -->
    <defs>
     <path d="M 54.890625 33.015625 
L 54.890625 0 
L 45.90625 0 
L 45.90625 32.71875 
Q 45.90625 40.484375 42.875 44.328125 
Q 39.84375 48.1875 33.796875 48.1875 
Q 26.515625 48.1875 22.3125 43.546875 
Q 18.109375 38.921875 18.109375 30.90625 
L 18.109375 0 
L 9.078125 0 
L 9.078125 54.6875 
L 18.109375 54.6875 
L 18.109375 46.1875 
Q 21.34375 51.125 25.703125 53.5625 
Q 30.078125 56 35.796875 56 
Q 45.21875 56 50.046875 50.171875 
Q 54.890625 44.34375 54.890625 33.015625 
z
" id="DejaVuSans-110"/>
     <path id="DejaVuSans-32"/>
     <path d="M 10.59375 45.40625 
L 73.1875 45.40625 
L 73.1875 37.203125 
L 10.59375 37.203125 
z
M 10.59375 25.484375 
L 73.1875 25.484375 
L 73.1875 17.1875 
L 10.59375 17.1875 
z
" id="DejaVuSans-61"/>
     <path d="M 40.578125 39.3125 
Q 47.65625 37.796875 51.625 33 
Q 55.609375 28.21875 55.609375 21.1875 
Q 55.609375 10.40625 48.1875 4.484375 
Q 40.765625 -1.421875 27.09375 -1.421875 
Q 22.515625 -1.421875 17.65625 -0.515625 
Q 12.796875 0.390625 7.625 2.203125 
L 7.625 11.71875 
Q 11.71875 9.328125 16.59375 8.109375 
Q 21.484375 6.890625 26.8125 6.890625 
Q 36.078125 6.890625 40.9375 10.546875 
Q 45.796875 14.203125 45.796875 21.1875 
Q 45.796875 27.640625 41.28125 31.265625 
Q 36.765625 34.90625 28.71875 34.90625 
L 20.21875 34.90625 
L 20.21875 43.015625 
L 29.109375 43.015625 
Q 36.375 43.015625 40.234375 45.921875 
Q 44.09375 48.828125 44.09375 54.296875 
Q 44.09375 59.90625 40.109375 62.90625 
Q 36.140625 65.921875 28.71875 65.921875 
Q 24.65625 65.921875 20.015625 65.03125 
Q 15.375 64.15625 9.8125 62.3125 
L 9.8125 71.09375 
Q 15.4375 72.65625 20.34375 73.4375 
Q 25.25 74.21875 29.59375 74.21875 
Q 40.828125 74.21875 47.359375 69.109375 
Q 53.90625 64.015625 53.90625 55.328125 
Q 53.90625 49.265625 50.4375 45.09375 
Q 46.96875 40.921875 40.578125 39.3125 
z
" id="DejaVuSans-51"/>
    </defs>
    <g transform="translate(91.938462 123.352615)scale(0.12 -0.12)">
     <use xlink:href="#DejaVuSans-110"/>
     <use x="63.378906" xlink:href="#DejaVuSans-32"/>
     <use x="95.166016" xlink:href="#DejaVuSans-61"/>
     <use x="178.955078" xlink:href="#DejaVuSans-32"/>
     <use x="210.742188" xlink:href="#DejaVuSans-51"/>
    </g>
   </g>
   <g id="text_2">
    <!-- n = 2 -->
    <defs>
     <path d="M 19.1875 8.296875 
L 53.609375 8.296875 
L 53.609375 0 
L 7.328125 0 
L 7.328125 8.296875 
Q 12.9375 14.109375 22.625 23.890625 
Q 32.328125 33.6875 34.8125 36.53125 
Q 39.546875 41.84375 41.421875 45.53125 
Q 43.3125 49.21875 43.3125 52.78125 
Q 43.3125 58.59375 39.234375 62.25 
Q 35.15625 65.921875 28.609375 65.921875 
Q 23.96875 65.921875 18.8125 64.3125 
Q 13.671875 62.703125 7.8125 59.421875 
L 7.8125 69.390625 
Q 13.765625 71.78125 18.9375 73 
Q 24.125 74.21875 28.421875 74.21875 
Q 39.75 74.21875 46.484375 68.546875 
Q 53.21875 62.890625 53.21875 53.421875 
Q 53.21875 48.921875 51.53125 44.890625 
Q 49.859375 40.875 45.40625 35.40625 
Q 44.1875 33.984375 37.640625 27.21875 
Q 31.109375 20.453125 19.1875 8.296875 
z
" id="DejaVuSans-50"/>
    </defs>
    <g transform="translate(160.615385 174.528)scale(0.12 -0.12)">
     <use xlink:href="#DejaVuSans-110"/>
     <use x="63.378906" xlink:href="#DejaVuSans-32"/>
     <use x="95.166016" xlink:href="#DejaVuSans-61"/>
     <use x="178.955078" xlink:href="#DejaVuSans-32"/>
     <use x="210.742188" xlink:href="#DejaVuSans-50"/>
    </g>
   </g>
   <g id="text_3">
    <!-- n = 1 -->
    <defs>
     <path d="M 12.40625 8.296875 
L 28.515625 8.296875 
L 28.515625 63.921875 
L 10.984375 60.40625 
L 10.984375 69.390625 
L 28.421875 72.90625 
L 38.28125 72.90625 
L 38.28125 8.296875 
L 54.390625 8.296875 
L 54.390625 0 
L 12.40625 0 
z
" id="DejaVuSans-49"/>
    </defs>
    <g transform="translate(304.836923 200.115692)scale(0.12 -0.12)">
     <use xlink:href="#DejaVuSans-110"/>
     <use x="63.378906" xlink:href="#DejaVuSans-32"/>
     <use x="95.166016" xlink:href="#DejaVuSans-61"/>
     <use x="178.955078" xlink:href="#DejaVuSans-32"/>
     <use x="210.742188" xlink:href="#DejaVuSans-49"/>
    </g>
   </g>
  </g>
 </g>
 <defs>
  <clipPath id="p2be75a4ffc">
   <rect height="266.112" width="357.12" x="57.6" y="41.472"/>
  </clipPath>
 </defs>
</svg>
