<?xml version="1.0" encoding="utf-8" standalone="no"?>
<!DOCTYPE svg PUBLIC "-//W3C//DTD SVG 1.1//EN"
  "http://www.w3.org/Graphics/SVG/1.1/DTD/svg11.dtd">
<!-- Created with matplotlib (https://matplotlib.org/) -->
<svg height="144pt" version="1.1" viewBox="0 0 144 144" width="144pt" xmlns="http://www.w3.org/2000/svg" xmlns:xlink="http://www.w3.org/1999/xlink">
 <metadata>
  <rdf:RDF xmlns:cc="http://creativecommons.org/ns#" xmlns:dc="http://purl.org/dc/elements/1.1/" xmlns:rdf="http://www.w3.org/1999/02/22-rdf-syntax-ns#">
   <cc:Work>
    <dc:type rdf:resource="http://purl.org/dc/dcmitype/StillImage"/>
    <dc:date>2022-07-18T17:06:05.498310</dc:date>
    <dc:format>image/svg+xml</dc:format>
    <dc:creator>
     <cc:Agent>
      <dc:title>Matplotlib v3.3.3, https://matplotlib.org/</dc:title>
     </cc:Agent>
    </dc:creator>
   </cc:Work>
  </rdf:RDF>
 </metadata>
 <defs>
  <style type="text/css">*{stroke-linecap:butt;stroke-linejoin:round;}</style>
 </defs>
 <g id="figure_1">
  <g id="patch_1">
   <path d="M 0 144 
L 144 144 
L 144 0 
L 0 0 
z
" style="fill:#ffffff;"/>
  </g>
  <g id="axes_1">
   <g id="line2d_1">
    <path clip-path="url(#pe17a6d05da)" d="M 127.636364 16.363636 
L 120.52785 20.039312 
L 114.098567 23.603604 
L 108.12597 27.167895 
L 102.775519 30.620803 
L 98.005737 33.962326 
L 93.776486 37.192465 
L 90.048965 40.31122 
L 86.785711 43.318591 
L 83.847579 46.325962 
L 81.325548 49.221949 
L 79.184833 52.006552 
L 77.322856 54.791155 
L 75.797596 57.464373 
L 74.529222 60.137592 
L 73.55475 62.699427 
L 72.816204 65.261261 
L 72.313581 67.823096 
L 72.053574 70.273546 
L 72.009421 72.723997 
L 72.181125 75.174447 
L 72.568683 77.624898 
L 73.204654 80.186732 
L 74.07655 82.748567 
L 75.18437 85.310401 
L 76.591891 87.98362 
L 78.256297 90.656839 
L 80.263218 93.441441 
L 82.548878 96.226044 
L 85.221651 99.122031 
L 88.195908 102.018018 
L 91.603659 105.025389 
L 95.481031 108.144144 
L 99.865484 111.374283 
L 104.625008 114.604423 
L 109.943349 117.945946 
L 115.860644 121.398853 
L 122.418369 124.963145 
L 127.636364 127.636364 
L 127.636364 127.636364 
" style="fill:none;stroke:#ff7f0e;stroke-linecap:square;"/>
   </g>
   <g id="line2d_2">
    <path clip-path="url(#pe17a6d05da)" d="M 127.636364 127.636364 
L 16.363636 72 
L 127.636364 16.363636 
" style="fill:none;stroke:#1f77b4;stroke-dasharray:3.7,1.6;stroke-dashoffset:0;stroke-opacity:0.5;"/>
    <defs>
     <path d="M 0 1.5 
C 0.397805 1.5 0.77937 1.341951 1.06066 1.06066 
C 1.341951 0.77937 1.5 0.397805 1.5 0 
C 1.5 -0.397805 1.341951 -0.77937 1.06066 -1.06066 
C 0.77937 -1.341951 0.397805 -1.5 0 -1.5 
C -0.397805 -1.5 -0.77937 -1.341951 -1.06066 -1.06066 
C -1.341951 -0.77937 -1.5 -0.397805 -1.5 0 
C -1.5 0.397805 -1.341951 0.77937 -1.06066 1.06066 
C -0.77937 1.341951 -0.397805 1.5 0 1.5 
z
" id="m5c09eebae9" style="stroke:#1f77b4;stroke-opacity:0.5;"/>
    </defs>
    <g clip-path="url(#pe17a6d05da)">
     <use style="fill:#1f77b4;fill-opacity:0.5;stroke:#1f77b4;stroke-opacity:0.5;" x="127.636364" xlink:href="#m5c09eebae9" y="127.636364"/>
     <use style="fill:#1f77b4;fill-opacity:0.5;stroke:#1f77b4;stroke-opacity:0.5;" x="16.363636" xlink:href="#m5c09eebae9" y="72"/>
     <use style="fill:#1f77b4;fill-opacity:0.5;stroke:#1f77b4;stroke-opacity:0.5;" x="127.636364" xlink:href="#m5c09eebae9" y="16.363636"/>
    </g>
   </g>
  </g>
 </g>
 <defs>
  <clipPath id="pe17a6d05da">
   <rect height="122.4" width="122.4" x="10.8" y="10.8"/>
  </clipPath>
 </defs>
</svg>
