<?xml version="1.0" encoding="utf-8" standalone="no"?>
<!DOCTYPE svg PUBLIC "-//W3C//DTD SVG 1.1//EN"
  "http://www.w3.org/Graphics/SVG/1.1/DTD/svg11.dtd">
<!-- Created with matplotlib (https://matplotlib.org/) -->
<svg height="216pt" version="1.1" viewBox="0 0 720 216" width="720pt" xmlns="http://www.w3.org/2000/svg" xmlns:xlink="http://www.w3.org/1999/xlink">
 <defs>
  <style type="text/css">
*{stroke-linecap:butt;stroke-linejoin:round;}
  </style>
 </defs>
 <g id="figure_1">
  <g id="patch_1">
   <path d="M 0 216 
L 720 216 
L 720 0 
L 0 0 
z
" style="fill:#ffffff;"/>
  </g>
  <g id="axes_1">
   <g id="line2d_1">
    <path clip-path="url(#p20f32f1ae0)" d="M 260.298701 47.225455 
L 115.363636 184.68 
L 115.363636 184.68 
" style="fill:none;stroke:#ff7f0e;stroke-linecap:square;stroke-width:5;"/>
   </g>
   <g id="line2d_2">
    <path clip-path="url(#p20f32f1ae0)" d="M 115.363636 184.68 
L 260.298701 47.225455 
" style="fill:none;stroke:#1f77b4;stroke-dasharray:7.4,3.2;stroke-dashoffset:0;stroke-width:2;"/>
    <defs>
     <path d="M 0 3 
C 0.795609 3 1.55874 2.683901 2.12132 2.12132 
C 2.683901 1.55874 3 0.795609 3 0 
C 3 -0.795609 2.683901 -1.55874 2.12132 -2.12132 
C 1.55874 -2.683901 0.795609 -3 0 -3 
C -0.795609 -3 -1.55874 -2.683901 -2.12132 -2.12132 
C -2.683901 -1.55874 -3 -0.795609 -3 0 
C -3 0.795609 -2.683901 1.55874 -2.12132 2.12132 
C -1.55874 2.683901 -0.795609 3 0 3 
z
" id="m41687adc9a" style="stroke:#1f77b4;"/>
    </defs>
    <g clip-path="url(#p20f32f1ae0)">
     <use style="fill:#1f77b4;stroke:#1f77b4;" x="115.363636" xlink:href="#m41687adc9a" y="184.68"/>
     <use style="fill:#1f77b4;stroke:#1f77b4;" x="260.298701" xlink:href="#m41687adc9a" y="47.225455"/>
    </g>
   </g>
   <g id="line2d_3">
    <path clip-path="url(#p20f32f1ae0)" d="M 405.233766 47.225455 
L 396.790363 51.353219 
L 389.125368 55.343391 
L 382.188243 59.195971 
L 375.706544 63.04855 
L 369.887654 66.763538 
L 364.684519 70.340934 
L 359.874074 73.918329 
L 355.618971 77.358133 
L 351.875642 80.660344 
L 348.466912 83.962555 
L 345.514189 87.127174 
L 342.868764 90.291794 
L 340.625903 93.318821 
L 338.664199 96.345848 
L 337.05394 99.235283 
L 335.699859 102.124717 
L 334.648427 104.87656 
L 333.829356 107.628403 
L 333.242646 110.380246 
L 332.888296 113.132088 
L 332.766306 115.883931 
L 332.876678 118.635774 
L 333.21941 121.387617 
L 333.794502 124.139459 
L 334.601955 126.891302 
L 335.641769 129.643145 
L 336.913943 132.394988 
L 338.499804 135.284423 
L 340.341843 138.173857 
L 342.546364 141.200885 
L 345.032041 144.227912 
L 347.93132 147.392531 
L 351.137897 150.55715 
L 354.811518 153.859361 
L 358.819738 157.161572 
L 363.350769 160.601376 
L 368.244864 164.041179 
L 373.719861 167.618575 
L 379.821069 171.333563 
L 386.345755 175.04855 
L 393.559389 178.90113 
L 401.510769 182.891302 
L 405.233766 184.68 
L 405.233766 184.68 
" style="fill:none;stroke:#ff7f0e;stroke-linecap:square;stroke-width:5;"/>
   </g>
   <g id="line2d_4">
    <path clip-path="url(#p20f32f1ae0)" d="M 405.233766 184.68 
L 260.298701 115.952727 
L 405.233766 47.225455 
" style="fill:none;stroke:#1f77b4;stroke-dasharray:7.4,3.2;stroke-dashoffset:0;stroke-width:2;"/>
    <g clip-path="url(#p20f32f1ae0)">
     <use style="fill:#1f77b4;stroke:#1f77b4;" x="405.233766" xlink:href="#m41687adc9a" y="184.68"/>
     <use style="fill:#1f77b4;stroke:#1f77b4;" x="260.298701" xlink:href="#m41687adc9a" y="115.952727"/>
     <use style="fill:#1f77b4;stroke:#1f77b4;" x="405.233766" xlink:href="#m41687adc9a" y="47.225455"/>
    </g>
   </g>
   <g id="line2d_5">
    <path clip-path="url(#p20f32f1ae0)" d="M 463.207792 60.970909 
L 469.778476 59.697603 
L 476.170744 58.679688 
L 482.382451 57.909848 
L 488.411456 57.380767 
L 494.255616 57.085132 
L 499.912788 57.015626 
L 505.38083 57.164934 
L 510.657599 57.525741 
L 515.740952 58.090731 
L 520.628748 58.852589 
L 525.318843 59.804 
L 529.809094 60.937648 
L 534.097359 62.246219 
L 538.181496 63.722396 
L 542.059361 65.358865 
L 545.728813 67.148311 
L 549.187708 69.083417 
L 552.433904 71.156868 
L 555.465259 73.36135 
L 558.279629 75.689547 
L 560.874872 78.134143 
L 563.248845 80.687824 
L 565.399407 83.343273 
L 567.21746 85.928934 
L 568.833927 88.592164 
L 570.247022 91.326865 
L 571.454959 94.126937 
L 572.455951 96.986283 
L 573.248213 99.898802 
L 573.829957 102.858397 
L 574.199397 105.858969 
L 574.354747 108.894418 
L 574.294221 111.958646 
L 574.016033 115.045554 
L 573.518396 118.149043 
L 572.799523 121.263015 
L 571.857629 124.38137 
L 570.690927 127.498009 
L 569.297631 130.606835 
L 567.675955 133.701748 
L 565.824112 136.776649 
L 563.740315 139.825439 
L 561.42278 142.84202 
L 558.702291 146.005024 
L 555.713773 149.117465 
L 552.455084 152.17203 
L 548.92408 155.161402 
L 545.118619 158.078267 
L 541.036559 160.915308 
L 536.675756 163.665212 
L 532.034069 166.320661 
L 527.109354 168.874342 
L 521.899469 171.318938 
L 516.402272 173.647135 
L 510.615619 175.851617 
L 504.537369 177.925068 
L 498.165378 179.860174 
L 491.497504 181.649619 
L 484.531604 183.286088 
L 477.701299 184.68 
L 477.701299 184.68 
" style="fill:none;stroke:#ff7f0e;stroke-linecap:square;stroke-width:5;"/>
   </g>
   <g id="line2d_6">
    <path clip-path="url(#p20f32f1ae0)" d="M 477.701299 184.68 
L 622.636364 157.189091 
L 593.649351 33.48 
L 463.207792 60.970909 
" style="fill:none;stroke:#1f77b4;stroke-dasharray:7.4,3.2;stroke-dashoffset:0;stroke-width:2;"/>
    <g clip-path="url(#p20f32f1ae0)">
     <use style="fill:#1f77b4;stroke:#1f77b4;" x="477.701299" xlink:href="#m41687adc9a" y="184.68"/>
     <use style="fill:#1f77b4;stroke:#1f77b4;" x="622.636364" xlink:href="#m41687adc9a" y="157.189091"/>
     <use style="fill:#1f77b4;stroke:#1f77b4;" x="593.649351" xlink:href="#m41687adc9a" y="33.48"/>
     <use style="fill:#1f77b4;stroke:#1f77b4;" x="463.207792" xlink:href="#m41687adc9a" y="60.970909"/>
    </g>
   </g>
   <g id="text_1">
    <!-- n = 1 -->
    <defs>
     <path d="M 54.890625 33.015625 
L 54.890625 0 
L 45.90625 0 
L 45.90625 32.71875 
Q 45.90625 40.484375 42.875 44.328125 
Q 39.84375 48.1875 33.796875 48.1875 
Q 26.515625 48.1875 22.3125 43.546875 
Q 18.109375 38.921875 18.109375 30.90625 
L 18.109375 0 
L 9.078125 0 
L 9.078125 54.6875 
L 18.109375 54.6875 
L 18.109375 46.1875 
Q 21.34375 51.125 25.703125 53.5625 
Q 30.078125 56 35.796875 56 
Q 45.21875 56 50.046875 50.171875 
Q 54.890625 44.34375 54.890625 33.015625 
z
" id="DejaVuSans-110"/>
     <path id="DejaVuSans-32"/>
     <path d="M 10.59375 45.40625 
L 73.1875 45.40625 
L 73.1875 37.203125 
L 10.59375 37.203125 
z
M 10.59375 25.484375 
L 73.1875 25.484375 
L 73.1875 17.1875 
L 10.59375 17.1875 
z
" id="DejaVuSans-61"/>
     <path d="M 12.40625 8.296875 
L 28.515625 8.296875 
L 28.515625 63.921875 
L 10.984375 60.40625 
L 10.984375 69.390625 
L 28.421875 72.90625 
L 38.28125 72.90625 
L 38.28125 8.296875 
L 54.390625 8.296875 
L 54.390625 0 
L 12.40625 0 
z
" id="DejaVuSans-49"/>
    </defs>
    <g transform="translate(129.857143 129.698182)scale(0.12 -0.12)">
     <use xlink:href="#DejaVuSans-110"/>
     <use x="63.378906" xlink:href="#DejaVuSans-32"/>
     <use x="95.166016" xlink:href="#DejaVuSans-61"/>
     <use x="178.955078" xlink:href="#DejaVuSans-32"/>
     <use x="210.742188" xlink:href="#DejaVuSans-49"/>
    </g>
   </g>
   <g id="text_2">
    <!-- n = 2 -->
    <defs>
     <path d="M 19.1875 8.296875 
L 53.609375 8.296875 
L 53.609375 0 
L 7.328125 0 
L 7.328125 8.296875 
Q 12.9375 14.109375 22.625 23.890625 
Q 32.328125 33.6875 34.8125 36.53125 
Q 39.546875 41.84375 41.421875 45.53125 
Q 43.3125 49.21875 43.3125 52.78125 
Q 43.3125 58.59375 39.234375 62.25 
Q 35.15625 65.921875 28.609375 65.921875 
Q 23.96875 65.921875 18.8125 64.3125 
Q 13.671875 62.703125 7.8125 59.421875 
L 7.8125 69.390625 
Q 13.765625 71.78125 18.9375 73 
Q 24.125 74.21875 28.421875 74.21875 
Q 39.75 74.21875 46.484375 68.546875 
Q 53.21875 62.890625 53.21875 53.421875 
Q 53.21875 48.921875 51.53125 44.890625 
Q 49.859375 40.875 45.40625 35.40625 
Q 44.1875 33.984375 37.640625 27.21875 
Q 31.109375 20.453125 19.1875 8.296875 
z
" id="DejaVuSans-50"/>
    </defs>
    <g transform="translate(303.779221 74.716364)scale(0.12 -0.12)">
     <use xlink:href="#DejaVuSans-110"/>
     <use x="63.378906" xlink:href="#DejaVuSans-32"/>
     <use x="95.166016" xlink:href="#DejaVuSans-61"/>
     <use x="178.955078" xlink:href="#DejaVuSans-32"/>
     <use x="210.742188" xlink:href="#DejaVuSans-50"/>
    </g>
   </g>
   <g id="text_3">
    <!-- n = 3 -->
    <defs>
     <path d="M 40.578125 39.3125 
Q 47.65625 37.796875 51.625 33 
Q 55.609375 28.21875 55.609375 21.1875 
Q 55.609375 10.40625 48.1875 4.484375 
Q 40.765625 -1.421875 27.09375 -1.421875 
Q 22.515625 -1.421875 17.65625 -0.515625 
Q 12.796875 0.390625 7.625 2.203125 
L 7.625 11.71875 
Q 11.71875 9.328125 16.59375 8.109375 
Q 21.484375 6.890625 26.8125 6.890625 
Q 36.078125 6.890625 40.9375 10.546875 
Q 45.796875 14.203125 45.796875 21.1875 
Q 45.796875 27.640625 41.28125 31.265625 
Q 36.765625 34.90625 28.71875 34.90625 
L 20.21875 34.90625 
L 20.21875 43.015625 
L 29.109375 43.015625 
Q 36.375 43.015625 40.234375 45.921875 
Q 44.09375 48.828125 44.09375 54.296875 
Q 44.09375 59.90625 40.109375 62.90625 
Q 36.140625 65.921875 28.71875 65.921875 
Q 24.65625 65.921875 20.015625 65.03125 
Q 15.375 64.15625 9.8125 62.3125 
L 9.8125 71.09375 
Q 15.4375 72.65625 20.34375 73.4375 
Q 25.25 74.21875 29.59375 74.21875 
Q 40.828125 74.21875 47.359375 69.109375 
Q 53.90625 64.015625 53.90625 55.328125 
Q 53.90625 49.265625 50.4375 45.09375 
Q 46.96875 40.921875 40.578125 39.3125 
z
" id="DejaVuSans-51"/>
    </defs>
    <g transform="translate(477.701299 164.061818)scale(0.12 -0.12)">
     <use xlink:href="#DejaVuSans-110"/>
     <use x="63.378906" xlink:href="#DejaVuSans-32"/>
     <use x="95.166016" xlink:href="#DejaVuSans-61"/>
     <use x="178.955078" xlink:href="#DejaVuSans-32"/>
     <use x="210.742188" xlink:href="#DejaVuSans-51"/>
    </g>
   </g>
  </g>
 </g>
 <defs>
  <clipPath id="p20f32f1ae0">
   <rect height="166.32" width="558" x="90" y="25.92"/>
  </clipPath>
 </defs>
</svg>
