<?xml version="1.0" encoding="utf-8" standalone="no"?>
<!DOCTYPE svg PUBLIC "-//W3C//DTD SVG 1.1//EN"
  "http://www.w3.org/Graphics/SVG/1.1/DTD/svg11.dtd">
<!-- Created with matplotlib (https://matplotlib.org/) -->
<svg height="216pt" version="1.1" viewBox="0 0 864 216" width="864pt" xmlns="http://www.w3.org/2000/svg" xmlns:xlink="http://www.w3.org/1999/xlink">
 <metadata>
  <rdf:RDF xmlns:cc="http://creativecommons.org/ns#" xmlns:dc="http://purl.org/dc/elements/1.1/" xmlns:rdf="http://www.w3.org/1999/02/22-rdf-syntax-ns#">
   <cc:Work>
    <dc:type rdf:resource="http://purl.org/dc/dcmitype/StillImage"/>
    <dc:date>2022-09-20T08:04:18.196776</dc:date>
    <dc:format>image/svg+xml</dc:format>
    <dc:creator>
     <cc:Agent>
      <dc:title>Matplotlib v3.3.3, https://matplotlib.org/</dc:title>
     </cc:Agent>
    </dc:creator>
   </cc:Work>
  </rdf:RDF>
 </metadata>
 <defs>
  <style type="text/css">*{stroke-linecap:butt;stroke-linejoin:round;}</style>
 </defs>
 <g id="figure_1">
  <g id="patch_1">
   <path d="M 0 216 
L 864 216 
L 864 0 
L 0 0 
z
" style="fill:#ffffff;"/>
  </g>
  <g id="axes_1">
   <g id="line2d_1">
    <path clip-path="url(#p68563cdfd6)" d="M 32.50214 178.486679 
L 47.868988 175.574809 
L 63.701445 172.517346 
L 147.478103 156.647654 
L 154.107156 155.482906 
L 156.278089 154.900532 
L 157.069655 154.463751 
L 157.145096 154.172564 
L 156.85116 153.881377 
L 156.200795 153.59019 
L 154.624568 153.15341 
L 150.802736 152.425442 
L 135.622384 149.804759 
L 124.465323 147.620857 
L 107.022235 144.4178 
L 95.33399 142.233897 
L 81.229978 139.613214 
L 67.110402 136.992531 
L 52.401419 134.226255 
L 29.642261 130.004043 
L 45.009109 127.092173 
L 60.841567 124.03471 
L 144.618225 108.165018 
L 151.247278 107.00027 
L 153.418211 106.417896 
L 154.209777 105.981116 
L 154.285217 105.689929 
L 153.991282 105.398742 
L 153.340917 105.107555 
L 151.764689 104.670774 
L 147.942858 103.942807 
L 132.762505 101.322124 
L 121.605444 99.138221 
L 104.162356 95.935164 
L 92.474111 93.751261 
L 78.3701 91.130578 
L 64.250524 88.509895 
L 49.541541 85.743619 
L 26.782383 81.521407 
L 42.149231 78.609537 
L 57.981689 75.552074 
L 141.758346 59.682382 
L 148.3874 58.517634 
L 150.558333 57.93526 
L 151.349899 57.49848 
L 151.425339 57.207293 
L 151.131404 56.916106 
L 150.481039 56.624919 
L 148.904811 56.188138 
L 145.08298 55.460171 
L 129.902627 52.839488 
L 118.745566 50.655585 
L 101.302478 47.452528 
L 89.614233 45.268626 
L 75.510221 42.647943 
L 61.390646 40.02726 
L 46.681662 37.260983 
L 23.922505 33.038771 
L 23.922505 33.038771 
" style="fill:none;stroke:#1f77b4;stroke-linecap:square;stroke-width:1.5;"/>
   </g>
   <g id="line2d_2">
    <path clip-path="url(#p68563cdfd6)" d="M 135.457758 178.486679 
L 135.514873 175.574809 
L 135.343455 172.662939 
L 134.945796 169.751069 
L 134.325703 166.839199 
L 133.441017 163.781735 
L 132.324788 160.724272 
L 130.917489 157.521215 
L 129.199764 154.172564 
L 127.156842 150.67832 
L 124.679801 146.892889 
L 121.739523 142.816271 
L 118.203668 138.302873 
L 113.806061 133.061507 
L 107.62499 126.073019 
L 93.88161 110.640108 
L 89.442886 105.253148 
L 86.001261 100.73975 
L 83.163072 96.663131 
L 80.794054 92.8777 
L 78.861071 89.383456 
L 77.256913 86.034806 
L 75.964823 82.831749 
L 74.963701 79.774285 
L 74.198277 76.716822 
L 73.694824 73.804952 
L 73.415998 70.893082 
L 73.36481 67.981212 
L 73.54275 65.069342 
L 73.949776 62.157472 
L 74.584316 59.245602 
L 75.443279 56.333732 
L 76.58168 53.276268 
L 77.955374 50.218805 
L 79.637249 47.015748 
L 81.648228 43.667097 
L 84.004865 40.172853 
L 86.831734 36.387422 
L 89.546922 33.038771 
L 89.546922 33.038771 
" style="fill:none;stroke:#ff7f0e;stroke-linecap:square;stroke-width:1.5;"/>
   </g>
   <g id="line2d_3">
    <defs>
     <path d="M 0 3 
C 0.795609 3 1.55874 2.683901 2.12132 2.12132 
C 2.683901 1.55874 3 0.795609 3 0 
C 3 -0.795609 2.683901 -1.55874 2.12132 -2.12132 
C 1.55874 -2.683901 0.795609 -3 0 -3 
C -0.795609 -3 -1.55874 -2.683901 -2.12132 -2.12132 
C -2.683901 -1.55874 -3 -0.795609 -3 0 
C -3 0.795609 -2.683901 1.55874 -2.12132 2.12132 
C -1.55874 2.683901 -0.795609 3 0 3 
z
" id="ma49152e706" style="stroke:#ff0000;"/>
    </defs>
    <g clip-path="url(#p68563cdfd6)">
     <use style="fill:#ff0000;stroke:#ff0000;" x="131.99343" xlink:href="#ma49152e706" y="159.559524"/>
     <use style="fill:#ff0000;stroke:#ff0000;" x="125.276528" xlink:href="#ma49152e706" y="147.76645"/>
     <use style="fill:#ff0000;stroke:#ff0000;" x="99.393949" xlink:href="#ma49152e706" y="116.755035"/>
     <use style="fill:#ff0000;stroke:#ff0000;" x="79.873171" xlink:href="#ma49152e706" y="91.421765"/>
     <use style="fill:#ff0000;stroke:#ff0000;" x="73.536606" xlink:href="#ma49152e706" y="72.640204"/>
     <use style="fill:#ff0000;stroke:#ff0000;" x="81.588448" xlink:href="#ma49152e706" y="43.812691"/>
    </g>
   </g>
   <g id="text_1">
    <!-- $\gamma_1(s_{0}) = \gamma_2(t_{0})$ -->
    <g transform="translate(137.14121 168.485983)scale(0.1 -0.1)">
     <defs>
      <path d="M 37.796875 11.875 
C 37.59375 16.734375 37.40625 24.390625 33.59375 33.328125 
C 31.59375 38.3125 28.203125 43.5625 20.90625 43.5625 
C 8.59375 43.5625 1.90625 27.96875 1.90625 25.390625 
C 1.90625 24.484375 2.59375 24.484375 2.90625 24.484375 
C 3.796875 24.484375 3.796875 24.6875 4.296875 25.984375 
C 6.40625 32.140625 12.796875 37 19.703125 37 
C 33.59375 37 35.59375 21.609375 35.59375 11.78125 
C 35.59375 5.5 34.90625 3.4375 34.296875 1.4375 
C 32.40625 -4.71875 29.09375 -17.03125 29.09375 -19.8125 
C 29.09375 -20.609375 29.40625 -21.5 30.203125 -21.5 
C 31.703125 -21.5 32.59375 -18.21875 33.703125 -14.25 
C 36.09375 -5.515625 36.703125 -1.140625 37.203125 2.828125 
C 37.5 5.21875 43.203125 21.625 51.09375 37.21875 
C 51.796875 38.796875 53.203125 41.484375 53.203125 41.78125 
C 53.203125 41.875 53.09375 42.578125 52.203125 42.578125 
C 52 42.578125 51.5 42.578125 51.296875 42.171875 
C 51.09375 41.984375 47.59375 35.21875 44.59375 28.46875 
C 43.09375 25.09375 41.09375 20.625 37.796875 11.875 
z
" id="CMMI12-13"/>
      <path d="M 26.59375 63.40625 
C 26.59375 65.5 26.5 65.5 25.09375 65.5 
C 21.203125 61.1875 15.296875 59.796875 9.703125 59.796875 
C 9.40625 59.796875 8.90625 59.796875 8.796875 59.5 
C 8.703125 59.296875 8.703125 59.09375 8.703125 57 
C 11.796875 57 17 57.59375 21 59.984375 
L 21 7.203125 
C 21 3.6875 20.796875 2.5 12.203125 2.5 
L 9.203125 2.5 
L 9.203125 0 
C 14 0 19 0 23.796875 0 
C 28.59375 0 33.59375 0 38.40625 0 
L 38.40625 2.5 
L 35.40625 2.5 
C 26.796875 2.5 26.59375 3.59375 26.59375 7.15625 
z
" id="CMR17-49"/>
      <path d="M 30.59375 -24.390625 
C 30.59375 -24.296875 30.59375 -24.09375 30.296875 -23.796875 
C 25.703125 -19.125 13.40625 -6.359375 13.40625 24.703125 
C 13.40625 55.765625 25.5 68.421875 30.40625 73.390625 
C 30.40625 73.5 30.59375 73.703125 30.59375 74 
C 30.59375 74.296875 30.296875 74.5 29.90625 74.5 
C 28.796875 74.5 20.296875 67.125 15.40625 56.15625 
C 10.40625 45.109375 9 34.359375 9 24.8125 
C 9 17.625 9.703125 5.484375 15.703125 -7.359375 
C 20.5 -17.734375 28.703125 -25 29.90625 -25 
C 30.40625 -25 30.59375 -24.796875 30.59375 -24.390625 
z
" id="CMR17-40"/>
      <path d="M 22.796875 20 
C 24.5 19.703125 27.203125 19.109375 27.796875 19 
C 29.09375 18.625 33.59375 17.03125 33.59375 12.234375 
C 33.59375 9.15625 30.796875 1.09375 19.203125 1.09375 
C 17.09375 1.09375 9.59375 1.09375 7.59375 6.8125 
C 11.59375 6.3125 13.59375 9.421875 13.59375 11.640625 
C 13.59375 13.75 12.203125 14.84375 10.203125 14.84375 
C 8 14.84375 5.09375 13.140625 5.09375 8.625 
C 5.09375 2.703125 11.09375 -1 19.09375 -1 
C 34.296875 -1 38.796875 10.171875 38.796875 15.375 
C 38.796875 16.859375 38.796875 19.65625 35.59375 22.84375 
C 33.09375 25.25 30.703125 25.75 25.296875 26.84375 
C 22.59375 27.4375 18.296875 28.34375 18.296875 32.828125 
C 18.296875 34.828125 20.09375 42.015625 29.59375 42.015625 
C 33.796875 42.015625 37.90625 40.453125 38.90625 37 
C 34.5 37 34.296875 33.203125 34.296875 33.109375 
C 34.296875 31 36.203125 30.40625 37.09375 30.40625 
C 38.5 30.40625 41.296875 31.484375 41.296875 35.640625 
C 41.296875 39.765625 37.5 44 29.703125 44 
C 16.59375 44 13.09375 33.75 13.09375 29.671875 
C 13.09375 22.09375 20.5 20.5 22.796875 20 
z
" id="CMMI12-115"/>
      <path d="M 42 31.640625 
C 42 37.75 41.90625 48.125 37.703125 56.109375 
C 34 63.109375 28.09375 65.59375 22.90625 65.59375 
C 18.09375 65.59375 12 63.40625 8.203125 56.203125 
C 4.203125 48.71875 3.796875 39.4375 3.796875 31.640625 
C 3.796875 25.953125 3.90625 17.28125 7 9.671875 
C 11.296875 -0.609375 19 -2 22.90625 -2 
C 27.5 -2 34.5 -0.109375 38.59375 9.375 
C 41.59375 16.28125 42 24.359375 42 31.640625 
z
M 22.90625 -0.40625 
C 16.5 -0.40625 12.703125 5.078125 11.296875 12.6875 
C 10.203125 18.5625 10.203125 27.15625 10.203125 32.75 
C 10.203125 40.4375 10.203125 46.828125 11.5 52.921875 
C 13.40625 61.390625 19 64 22.90625 64 
C 27 64 32.296875 61.296875 34.203125 53.125 
C 35.5 47.4375 35.59375 40.734375 35.59375 32.75 
C 35.59375 26.25 35.59375 18.265625 34.40625 12.375 
C 32.296875 1.484375 26.40625 -0.40625 22.90625 -0.40625 
z
" id="CMR17-48"/>
      <path d="M 26.296875 24.703125 
C 26.296875 31.875 25.59375 44.015625 19.59375 56.859375 
C 14.796875 67.234375 6.59375 74.5 5.40625 74.5 
C 5.09375 74.5 4.703125 74.390625 4.703125 73.890625 
C 4.703125 73.703125 4.796875 73.59375 4.90625 73.390625 
C 9.703125 68.40625 21.90625 55.75 21.90625 24.75 
C 21.90625 -6.359375 9.796875 -19.015625 4.90625 -24.015625 
C 4.796875 -24.203125 4.703125 -24.3125 4.703125 -24.5 
C 4.703125 -25 5.09375 -25 5.40625 -25 
C 6.5 -25 15 -17.625 19.90625 -6.65625 
C 24.90625 4.390625 26.296875 15.140625 26.296875 24.703125 
z
" id="CMR17-41"/>
      <path d="M 64.296875 31.515625 
C 65.796875 31.515625 67.296875 31.515625 67.296875 33.203125 
C 67.296875 35 65.59375 35 63.90625 35 
L 8 35 
C 6.296875 35 4.59375 35 4.59375 33.203125 
C 4.59375 31.515625 6.09375 31.515625 7.59375 31.515625 
z
M 63.90625 14 
C 65.59375 14 67.296875 14 67.296875 15.796875 
C 67.296875 17.484375 65.796875 17.484375 64.296875 17.484375 
L 7.59375 17.484375 
C 6.09375 17.484375 4.59375 17.484375 4.59375 15.796875 
C 4.59375 14 6.296875 14 8 14 
z
" id="CMR17-61"/>
      <path d="M 41.703125 15.453125 
L 39.90625 15.453125 
C 38.90625 8.375 38.09375 7.171875 37.703125 6.5625 
C 37.203125 5.765625 30 5.765625 28.59375 5.765625 
L 9.40625 5.765625 
C 13 9.671875 20 16.75 28.5 24.953125 
C 34.59375 30.734375 41.703125 37.53125 41.703125 47.421875 
C 41.703125 59.21875 32.296875 66 21.796875 66 
C 10.796875 66 4.09375 56.3125 4.09375 47.34375 
C 4.09375 43.4375 7 42.9375 8.203125 42.9375 
C 9.203125 42.9375 12.203125 43.546875 12.203125 47.03125 
C 12.203125 50.109375 9.59375 51 8.203125 51 
C 7.59375 51 7 50.90625 6.59375 50.703125 
C 8.5 59.21875 14.296875 63.40625 20.40625 63.40625 
C 29.09375 63.40625 34.796875 56.515625 34.796875 47.421875 
C 34.796875 38.734375 29.703125 31.25 24 24.75 
L 4.09375 2.28125 
L 4.09375 0 
L 39.296875 0 
z
" id="CMR17-50"/>
      <path d="M 20.09375 40.09375 
L 29.296875 40.09375 
C 31.203125 40.09375 32.203125 40.09375 32.203125 41.890625 
C 32.203125 43 31.59375 43 29.59375 43 
L 20.796875 43 
L 24.5 57.6875 
C 24.90625 59.078125 24.90625 59.28125 24.90625 60 
C 24.90625 61.609375 23.59375 62.5 22.296875 62.5 
C 21.5 62.5 19.203125 62.203125 18.40625 58.984375 
L 14.5 43 
L 5.09375 43 
C 3.09375 43 2.203125 43 2.203125 41.09375 
C 2.203125 40.09375 2.90625 40.09375 4.796875 40.09375 
L 13.703125 40.09375 
L 7.09375 13.765625 
C 6.296875 10.28125 6 9.28125 6 7.984375 
C 6 3.296875 9.296875 -1 14.90625 -1 
C 25 -1 30.40625 13.5625 30.40625 14.25 
C 30.40625 14.859375 30 15.15625 29.40625 15.15625 
C 29.203125 15.15625 28.796875 15.15625 28.59375 14.75 
C 28.5 14.65625 28.40625 14.546875 27.703125 12.953125 
C 25.59375 7.984375 21 1 15.203125 1 
C 12.203125 1 12 3.5 12 5.6875 
C 12 5.78125 12 7.6875 12.296875 8.875 
z
" id="CMMI12-116"/>
     </defs>
     <use transform="scale(0.996264)" xlink:href="#CMMI12-13"/>
     <use transform="translate(50.599133 -14.943915)scale(0.697382)" xlink:href="#CMR17-49"/>
     <use transform="translate(83.080447 0)scale(0.996264)" xlink:href="#CMR17-40"/>
     <use transform="translate(118.361214 0)scale(0.996264)" xlink:href="#CMMI12-115"/>
     <use transform="translate(164.311262 -14.943915)scale(0.697382)" xlink:href="#CMR17-48"/>
     <use transform="translate(196.792576 0)scale(0.996264)" xlink:href="#CMR17-41"/>
     <use transform="translate(259.747352 0)scale(0.996264)" xlink:href="#CMR17-61"/>
     <use transform="translate(359.13615 0)scale(0.996264)" xlink:href="#CMMI12-13"/>
     <use transform="translate(409.735282 -14.943915)scale(0.697382)" xlink:href="#CMR17-50"/>
     <use transform="translate(442.216596 0)scale(0.996264)" xlink:href="#CMR17-40"/>
     <use transform="translate(477.497364 0)scale(0.996264)" xlink:href="#CMMI12-116"/>
     <use transform="translate(512.723694 -14.943915)scale(0.697382)" xlink:href="#CMR17-48"/>
     <use transform="translate(545.205008 0)scale(0.996264)" xlink:href="#CMR17-41"/>
    </g>
   </g>
   <g id="text_2">
    <!-- $\gamma_1(s_{1}) = \gamma_2(t_{1})$ -->
    <g transform="translate(56.602759 156.69291)scale(0.1 -0.1)">
     <use transform="scale(0.996264)" xlink:href="#CMMI12-13"/>
     <use transform="translate(50.599133 -14.943915)scale(0.697382)" xlink:href="#CMR17-49"/>
     <use transform="translate(83.080447 0)scale(0.996264)" xlink:href="#CMR17-40"/>
     <use transform="translate(118.361214 0)scale(0.996264)" xlink:href="#CMMI12-115"/>
     <use transform="translate(164.311262 -14.943915)scale(0.697382)" xlink:href="#CMR17-49"/>
     <use transform="translate(196.792576 0)scale(0.996264)" xlink:href="#CMR17-41"/>
     <use transform="translate(259.747352 0)scale(0.996264)" xlink:href="#CMR17-61"/>
     <use transform="translate(359.13615 0)scale(0.996264)" xlink:href="#CMMI12-13"/>
     <use transform="translate(409.735282 -14.943915)scale(0.697382)" xlink:href="#CMR17-50"/>
     <use transform="translate(442.216596 0)scale(0.996264)" xlink:href="#CMR17-40"/>
     <use transform="translate(477.497364 0)scale(0.996264)" xlink:href="#CMMI12-116"/>
     <use transform="translate(512.723694 -14.943915)scale(0.697382)" xlink:href="#CMR17-49"/>
     <use transform="translate(545.205008 0)scale(0.996264)" xlink:href="#CMR17-41"/>
    </g>
   </g>
   <g id="text_3">
    <!-- $\gamma_1(s_{2}) = \gamma_2(t_{2})$ -->
    <g transform="translate(104.54173 125.681494)scale(0.1 -0.1)">
     <use transform="scale(0.996264)" xlink:href="#CMMI12-13"/>
     <use transform="translate(50.599133 -14.943915)scale(0.697382)" xlink:href="#CMR17-49"/>
     <use transform="translate(83.080447 0)scale(0.996264)" xlink:href="#CMR17-40"/>
     <use transform="translate(118.361214 0)scale(0.996264)" xlink:href="#CMMI12-115"/>
     <use transform="translate(164.311262 -14.943915)scale(0.697382)" xlink:href="#CMR17-50"/>
     <use transform="translate(196.792576 0)scale(0.996264)" xlink:href="#CMR17-41"/>
     <use transform="translate(259.747352 0)scale(0.996264)" xlink:href="#CMR17-61"/>
     <use transform="translate(359.13615 0)scale(0.996264)" xlink:href="#CMMI12-13"/>
     <use transform="translate(409.735282 -14.943915)scale(0.697382)" xlink:href="#CMR17-50"/>
     <use transform="translate(442.216596 0)scale(0.996264)" xlink:href="#CMR17-40"/>
     <use transform="translate(477.497364 0)scale(0.996264)" xlink:href="#CMMI12-116"/>
     <use transform="translate(512.723694 -14.943915)scale(0.697382)" xlink:href="#CMR17-50"/>
     <use transform="translate(545.205008 0)scale(0.996264)" xlink:href="#CMR17-41"/>
    </g>
   </g>
   <g id="text_4">
    <!-- $\gamma_1(s_{3}) = \gamma_2(t_{3})$ -->
    <g transform="translate(11.199402 100.348225)scale(0.1 -0.1)">
     <defs>
      <path d="M 22.09375 33.703125 
C 31 33.703125 34.90625 25.96875 34.90625 17.03125 
C 34.90625 5 28.5 0.390625 22.703125 0.390625 
C 17.40625 0.390625 8.796875 3.03125 6.09375 10.828125 
C 6.59375 10.625 7.09375 10.625 7.59375 10.625 
C 10 10.625 11.796875 12.21875 11.796875 14.8125 
C 11.796875 17.703125 9.59375 19 7.59375 19 
C 5.90625 19 3.296875 18.203125 3.296875 14.46875 
C 3.296875 5.234375 12.296875 -2 22.90625 -2 
C 34 -2 42.5 6.71875 42.5 16.953125 
C 42.5 26.671875 34.5 33.703125 25 34.796875 
C 32.59375 36.375 39.90625 43.0625 39.90625 52.015625 
C 39.90625 59.6875 32 65.296875 23 65.296875 
C 13.90625 65.296875 5.90625 59.828125 5.90625 52.015625 
C 5.90625 48.59375 8.5 48 9.796875 48 
C 11.90625 48 13.703125 49.296875 13.703125 51.890625 
C 13.703125 54.46875 11.90625 55.765625 9.796875 55.765625 
C 9.40625 55.765625 8.90625 55.765625 8.5 55.578125 
C 11.40625 61.859375 19.296875 63 22.796875 63 
C 26.296875 63 32.90625 61.328125 32.90625 51.875 
C 32.90625 49.109375 32.5 44.1875 29.09375 39.84375 
C 26.09375 36 22.703125 36 19.40625 35.6875 
C 18.90625 35.6875 16.59375 35.453125 16.203125 35.453125 
C 15.5 35.359375 15.09375 35.265625 15.09375 34.5 
C 15.09375 33.796875 15.203125 33.703125 17.203125 33.703125 
z
" id="CMR17-51"/>
     </defs>
     <use transform="scale(0.996264)" xlink:href="#CMMI12-13"/>
     <use transform="translate(50.599133 -14.943915)scale(0.697382)" xlink:href="#CMR17-49"/>
     <use transform="translate(83.080447 0)scale(0.996264)" xlink:href="#CMR17-40"/>
     <use transform="translate(118.361214 0)scale(0.996264)" xlink:href="#CMMI12-115"/>
     <use transform="translate(164.311262 -14.943915)scale(0.697382)" xlink:href="#CMR17-51"/>
     <use transform="translate(196.792576 0)scale(0.996264)" xlink:href="#CMR17-41"/>
     <use transform="translate(259.747352 0)scale(0.996264)" xlink:href="#CMR17-61"/>
     <use transform="translate(359.13615 0)scale(0.996264)" xlink:href="#CMMI12-13"/>
     <use transform="translate(409.735282 -14.943915)scale(0.697382)" xlink:href="#CMR17-50"/>
     <use transform="translate(442.216596 0)scale(0.996264)" xlink:href="#CMR17-40"/>
     <use transform="translate(477.497364 0)scale(0.996264)" xlink:href="#CMMI12-116"/>
     <use transform="translate(512.723694 -14.943915)scale(0.697382)" xlink:href="#CMR17-51"/>
     <use transform="translate(545.205008 0)scale(0.996264)" xlink:href="#CMR17-41"/>
    </g>
   </g>
   <g id="text_5">
    <!-- $\gamma_1(s_{4}) = \gamma_2(t_{4})$ -->
    <g transform="translate(78.684387 81.566663)scale(0.1 -0.1)">
     <defs>
      <path d="M 33.59375 64.40625 
C 33.59375 66.5 33.5 66.5 31.703125 66.5 
L 2 19.59375 
L 2 17 
L 27.796875 17 
L 27.796875 7.140625 
C 27.796875 3.5 27.59375 2.5 20.59375 2.5 
L 18.703125 2.5 
L 18.703125 0 
C 21.90625 0 27.296875 0 30.703125 0 
C 34.09375 0 39.5 0 42.703125 0 
L 42.703125 2.5 
L 40.796875 2.5 
C 33.796875 2.5 33.59375 3.5 33.59375 7.140625 
L 33.59375 17 
L 43.796875 17 
L 43.796875 19.59375 
L 33.59375 19.59375 
z
M 28.09375 57.859375 
L 28.09375 19.59375 
L 4 19.59375 
z
" id="CMR17-52"/>
     </defs>
     <use transform="scale(0.996264)" xlink:href="#CMMI12-13"/>
     <use transform="translate(50.599133 -14.943915)scale(0.697382)" xlink:href="#CMR17-49"/>
     <use transform="translate(83.080447 0)scale(0.996264)" xlink:href="#CMR17-40"/>
     <use transform="translate(118.361214 0)scale(0.996264)" xlink:href="#CMMI12-115"/>
     <use transform="translate(164.311262 -14.943915)scale(0.697382)" xlink:href="#CMR17-52"/>
     <use transform="translate(196.792576 0)scale(0.996264)" xlink:href="#CMR17-41"/>
     <use transform="translate(259.747352 0)scale(0.996264)" xlink:href="#CMR17-61"/>
     <use transform="translate(359.13615 0)scale(0.996264)" xlink:href="#CMMI12-13"/>
     <use transform="translate(409.735282 -14.943915)scale(0.697382)" xlink:href="#CMR17-50"/>
     <use transform="translate(442.216596 0)scale(0.996264)" xlink:href="#CMR17-40"/>
     <use transform="translate(477.497364 0)scale(0.996264)" xlink:href="#CMMI12-116"/>
     <use transform="translate(512.723694 -14.943915)scale(0.697382)" xlink:href="#CMR17-52"/>
     <use transform="translate(545.205008 0)scale(0.996264)" xlink:href="#CMR17-41"/>
    </g>
   </g>
   <g id="text_6">
    <!-- $\gamma_1(s_{5}) = \gamma_2(t_{5})$ -->
    <g transform="translate(12.914679 52.73915)scale(0.1 -0.1)">
     <defs>
      <path d="M 11.40625 57.6875 
C 12.40625 57.28125 16.5 56 20.703125 56 
C 30 56 35.09375 61.109375 38 64.0625 
C 38 64.953125 38 65.5 37.40625 65.5 
C 37.296875 65.5 37.09375 65.5 36.296875 65.046875 
C 32.796875 63.40625 28.703125 62.078125 23.703125 62.078125 
C 20.703125 62.078125 16.203125 62.484375 11.296875 64.671875 
C 10.203125 65.171875 10 65.171875 9.90625 65.171875 
C 9.40625 65.171875 9.296875 65.0625 9.296875 63.078125 
L 9.296875 34.421875 
C 9.296875 32.640625 9.296875 32.140625 10.296875 32.140625 
C 10.796875 32.140625 11 32.34375 11.5 33.03125 
C 14.703125 37.515625 19.09375 39.40625 24.09375 39.40625 
C 27.59375 39.40625 35.09375 37.21875 35.09375 20.140625 
C 35.09375 16.953125 35.09375 11.171875 32.09375 6.578125 
C 29.59375 2.484375 25.703125 0.390625 21.40625 0.390625 
C 14.796875 0.390625 8.09375 5 6.296875 12.71875 
C 6.703125 12.609375 7.5 12.421875 7.90625 12.421875 
C 9.203125 12.421875 11.703125 13.125 11.703125 16.21875 
C 11.703125 18.90625 9.796875 20 7.90625 20 
C 5.59375 20 4.09375 18.59375 4.09375 15.796875 
C 4.09375 7.09375 11 -2 21.59375 -2 
C 31.90625 -2 41.703125 6.875 41.703125 19.75 
C 41.703125 31.71875 33.90625 41 24.203125 41 
C 19.09375 41 14.796875 39.109375 11.40625 35.53125 
z
" id="CMR17-53"/>
     </defs>
     <use transform="scale(0.996264)" xlink:href="#CMMI12-13"/>
     <use transform="translate(50.599133 -14.943915)scale(0.697382)" xlink:href="#CMR17-49"/>
     <use transform="translate(83.080447 0)scale(0.996264)" xlink:href="#CMR17-40"/>
     <use transform="translate(118.361214 0)scale(0.996264)" xlink:href="#CMMI12-115"/>
     <use transform="translate(164.311262 -14.943915)scale(0.697382)" xlink:href="#CMR17-53"/>
     <use transform="translate(196.792576 0)scale(0.996264)" xlink:href="#CMR17-41"/>
     <use transform="translate(259.747352 0)scale(0.996264)" xlink:href="#CMR17-61"/>
     <use transform="translate(359.13615 0)scale(0.996264)" xlink:href="#CMMI12-13"/>
     <use transform="translate(409.735282 -14.943915)scale(0.697382)" xlink:href="#CMR17-50"/>
     <use transform="translate(442.216596 0)scale(0.996264)" xlink:href="#CMR17-40"/>
     <use transform="translate(477.497364 0)scale(0.996264)" xlink:href="#CMMI12-116"/>
     <use transform="translate(512.723694 -14.943915)scale(0.697382)" xlink:href="#CMR17-53"/>
     <use transform="translate(545.205008 0)scale(0.996264)" xlink:href="#CMR17-41"/>
    </g>
   </g>
   <g id="text_7">
    <!-- (A) -->
    <g transform="translate(17.260946 19.766376)scale(0.12 -0.12)">
     <defs>
      <path d="M 25.203125 74.5 
C 19.796875 69.015625 7.40625 56.265625 7.40625 24.8125 
C 7.40625 -6.765625 19.796875 -19.421875 25.203125 -25 
L 31.296875 -25 
C 19 -12.25 15 5.578125 15 24.703125 
C 15 43.71875 18.796875 61.65625 31.296875 74.5 
z
" id="CMSS17-40"/>
      <path d="M 35.5 69 
L 26.90625 69 
L 2.59375 0 
L 10.203125 0 
L 17.203125 20 
L 44 20 
L 51.09375 0 
L 59.796875 0 
z
M 42.09375 25.578125 
L 19.09375 25.578125 
C 23.90625 39.5 29.90625 56.84375 30.59375 61.328125 
L 30.703125 61.328125 
C 31.40625 57.234375 33.40625 51.265625 35.09375 46.1875 
z
" id="CMSS17-65"/>
      <path d="M 11.296875 -25 
C 16.703125 -19.515625 29.09375 -6.765625 29.09375 24.703125 
C 29.09375 56.265625 16.703125 68.921875 11.296875 74.5 
L 5.203125 74.5 
C 17.5 61.75 21.5 43.921875 21.5 24.8125 
C 21.5 5.78125 17.703125 -12.15625 5.203125 -25 
z
" id="CMSS17-41"/>
     </defs>
     <use transform="scale(0.996264)" xlink:href="#CMSS17-40"/>
     <use transform="translate(36.433914 0)scale(0.996264)" xlink:href="#CMSS17-65"/>
     <use transform="translate(98.651769 0)scale(0.996264)" xlink:href="#CMSS17-41"/>
    </g>
   </g>
  </g>
  <g id="axes_2">
   <g id="patch_2">
    <path d="M 247.055865 179.039874 
L 393.610162 179.039874 
L 393.610162 32.485577 
L 247.055865 32.485577 
z
" style="fill:#ffffff;"/>
   </g>
   <g id="matplotlib.axis_1">
    <g id="xtick_1">
     <g id="line2d_4">
      <defs>
       <path d="M 0 0 
L 0 3.5 
" id="m7390b90156" style="stroke:#000000;stroke-width:0.8;"/>
      </defs>
      <g>
       <use style="stroke:#000000;stroke-width:0.8;" x="273.785894" xlink:href="#m7390b90156" y="179.039874"/>
      </g>
     </g>
     <g id="text_8">
      <!-- $\mathdefault{0.25}$ -->
      <g transform="translate(264.930187 192.958372)scale(0.1 -0.1)">
       <defs>
        <path d="M 18.40625 4.796875 
C 18.40625 7.6875 16 9.671875 13.59375 9.671875 
C 10.703125 9.671875 8.703125 7.28125 8.703125 4.890625 
C 8.703125 2 11.09375 0 13.5 0 
C 16.40625 0 18.40625 2.390625 18.40625 4.796875 
z
" id="CMMI12-58"/>
       </defs>
       <use transform="scale(0.996264)" xlink:href="#CMR17-48"/>
       <use transform="translate(45.690477 0)scale(0.996264)" xlink:href="#CMMI12-58"/>
       <use transform="translate(72.787654 0)scale(0.996264)" xlink:href="#CMR17-50"/>
       <use transform="translate(118.478131 0)scale(0.996264)" xlink:href="#CMR17-53"/>
      </g>
     </g>
    </g>
    <g id="xtick_2">
     <g id="line2d_5">
      <g>
       <use style="stroke:#000000;stroke-width:0.8;" x="315.640595" xlink:href="#m7390b90156" y="179.039874"/>
      </g>
     </g>
     <g id="text_9">
      <!-- $\mathdefault{0.50}$ -->
      <g transform="translate(306.784887 192.958372)scale(0.1 -0.1)">
       <use transform="scale(0.996264)" xlink:href="#CMR17-48"/>
       <use transform="translate(45.690477 0)scale(0.996264)" xlink:href="#CMMI12-58"/>
       <use transform="translate(72.787654 0)scale(0.996264)" xlink:href="#CMR17-53"/>
       <use transform="translate(118.478131 0)scale(0.996264)" xlink:href="#CMR17-48"/>
      </g>
     </g>
    </g>
    <g id="xtick_3">
     <g id="line2d_6">
      <g>
       <use style="stroke:#000000;stroke-width:0.8;" x="357.495295" xlink:href="#m7390b90156" y="179.039874"/>
      </g>
     </g>
     <g id="text_10">
      <!-- $\mathdefault{0.75}$ -->
      <g transform="translate(348.639588 192.958372)scale(0.1 -0.1)">
       <defs>
        <path d="M 45.09375 61.578125 
L 45.09375 63.765625 
L 21.59375 63.765625 
C 9.90625 63.765625 9.703125 65.078125 9.296875 67 
L 7.5 67 
L 4.59375 48.34375 
L 6.40625 48.34375 
C 6.703125 50.234375 7.40625 55.3125 8.59375 57.203125 
C 9.203125 58 16.59375 58 18.296875 58 
L 40.296875 58 
L 29.203125 41.578125 
C 21.796875 30.53125 16.703125 15.609375 16.703125 2.578125 
C 16.703125 1.390625 16.703125 -2 20.296875 -2 
C 23.90625 -2 23.90625 1.390625 23.90625 2.671875 
L 23.90625 7.265625 
C 23.90625 23.5625 26.703125 34.3125 31.296875 41.1875 
z
" id="CMR17-55"/>
       </defs>
       <use transform="scale(0.996264)" xlink:href="#CMR17-48"/>
       <use transform="translate(45.690477 0)scale(0.996264)" xlink:href="#CMMI12-58"/>
       <use transform="translate(72.787654 0)scale(0.996264)" xlink:href="#CMR17-55"/>
       <use transform="translate(118.478131 0)scale(0.996264)" xlink:href="#CMR17-53"/>
      </g>
     </g>
    </g>
    <g id="text_11">
     <!-- $s$ of $\gamma_1(s)$ -->
     <g transform="translate(299.641366 206.367531)scale(0.1 -0.1)">
      <defs>
       <path d="M 44.203125 21.1875 
C 44.203125 34 34.703125 44 23.5 44 
C 12 44 2.703125 33.703125 2.703125 21.1875 
C 2.703125 8.5 12.296875 -1 23.40625 -1 
C 34.796875 -1 44.203125 8.796875 44.203125 21.1875 
z
M 23.5 5.265625 
C 16.40625 5.265625 10.296875 11.078125 10.296875 22 
C 10.296875 33.609375 17.40625 37.921875 23.40625 37.921875 
C 29.90625 37.921875 36.59375 33.21875 36.59375 22 
C 36.59375 10.671875 30.09375 5.265625 23.5 5.265625 
z
" id="CMSS17-111"/>
       <path d="M 16.796875 37 
L 26.90625 37 
L 26.90625 42.765625 
L 16.59375 42.765625 
L 16.59375 55.609375 
C 16.59375 62.71875 22 63.9375 25.09375 63.9375 
C 26.09375 63.9375 28.90625 63.9375 32.5 62.640625 
L 32.5 69.203125 
C 30.203125 69.703125 27.40625 70 25.203125 70 
C 15.90625 70 9.40625 62.390625 9.40625 52.484375 
L 9.40625 42.765625 
L 2.5 42.765625 
L 2.5 37 
L 9.40625 37 
L 9.40625 0 
L 16.796875 0 
z
" id="CMSS17-102"/>
      </defs>
      <use transform="scale(0.996264)" xlink:href="#CMMI12-115"/>
      <use transform="translate(77.17916 0)scale(0.996264)" xlink:href="#CMSS17-111"/>
      <use transform="translate(124.022784 0)scale(0.996264)" xlink:href="#CMSS17-102"/>
      <use transform="translate(183.878555 0)scale(0.996264)" xlink:href="#CMMI12-13"/>
      <use transform="translate(234.477688 -14.943915)scale(0.697382)" xlink:href="#CMR17-49"/>
      <use transform="translate(266.959002 0)scale(0.996264)" xlink:href="#CMR17-40"/>
      <use transform="translate(302.23977 0)scale(0.996264)" xlink:href="#CMMI12-115"/>
      <use transform="translate(348.189817 0)scale(0.996264)" xlink:href="#CMR17-41"/>
     </g>
    </g>
   </g>
   <g id="matplotlib.axis_2">
    <g id="ytick_1">
     <g id="line2d_7">
      <defs>
       <path d="M 0 0 
L -3.5 0 
" id="m8021d08baa" style="stroke:#000000;stroke-width:0.8;"/>
      </defs>
      <g>
       <use style="stroke:#000000;stroke-width:0.8;" x="247.055865" xlink:href="#m8021d08baa" y="160.680785"/>
      </g>
     </g>
     <g id="text_12">
      <!-- $\mathdefault{0.2}$ -->
      <g transform="translate(227.325786 164.140034)scale(0.1 -0.1)">
       <use transform="scale(0.996264)" xlink:href="#CMR17-48"/>
       <use transform="translate(45.690477 0)scale(0.996264)" xlink:href="#CMMI12-58"/>
       <use transform="translate(72.787654 0)scale(0.996264)" xlink:href="#CMR17-50"/>
      </g>
     </g>
    </g>
    <g id="ytick_2">
     <g id="line2d_8">
      <g>
       <use style="stroke:#000000;stroke-width:0.8;" x="247.055865" xlink:href="#m8021d08baa" y="127.197024"/>
      </g>
     </g>
     <g id="text_13">
      <!-- $\mathdefault{0.4}$ -->
      <g transform="translate(227.325786 130.656274)scale(0.1 -0.1)">
       <use transform="scale(0.996264)" xlink:href="#CMR17-48"/>
       <use transform="translate(45.690477 0)scale(0.996264)" xlink:href="#CMMI12-58"/>
       <use transform="translate(72.787654 0)scale(0.996264)" xlink:href="#CMR17-52"/>
      </g>
     </g>
    </g>
    <g id="ytick_3">
     <g id="line2d_9">
      <g>
       <use style="stroke:#000000;stroke-width:0.8;" x="247.055865" xlink:href="#m8021d08baa" y="93.713264"/>
      </g>
     </g>
     <g id="text_14">
      <!-- $\mathdefault{0.6}$ -->
      <g transform="translate(227.325786 97.172513)scale(0.1 -0.1)">
       <defs>
        <path d="M 10.59375 34 
C 10.59375 57.65625 21.796875 63 28.296875 63 
C 30.40625 63 35.5 62.640625 37.5 59 
C 35.90625 59 32.90625 59 32.90625 55.515625 
C 32.90625 52.828125 35.09375 51.921875 36.5 51.921875 
C 37.40625 51.921875 40.09375 52.3125 40.09375 55.625 
C 40.09375 61.78125 35.09375 65.296875 28.203125 65.296875 
C 16.296875 65.296875 3.796875 52.96875 3.796875 31 
C 3.796875 3.953125 15.09375 -2 23.09375 -2 
C 32.796875 -2 42 6.671875 42 20.046875 
C 42 32.515625 33.90625 41.59375 23.703125 41.59375 
C 17.59375 41.59375 13.09375 37.609375 10.59375 30.625 
z
M 23.09375 0.390625 
C 10.796875 0.390625 10.796875 18.75 10.796875 22.4375 
C 10.796875 29.625 14.203125 40 23.5 40 
C 25.203125 40 30.09375 40 33.40625 33.125 
C 35.203125 29.21875 35.203125 25.140625 35.203125 20.140625 
C 35.203125 14.75 35.203125 10.78125 33.09375 6.78125 
C 30.90625 2.671875 27.703125 0.390625 23.09375 0.390625 
z
" id="CMR17-54"/>
       </defs>
       <use transform="scale(0.996264)" xlink:href="#CMR17-48"/>
       <use transform="translate(45.690477 0)scale(0.996264)" xlink:href="#CMMI12-58"/>
       <use transform="translate(72.787654 0)scale(0.996264)" xlink:href="#CMR17-54"/>
      </g>
     </g>
    </g>
    <g id="ytick_4">
     <g id="line2d_10">
      <g>
       <use style="stroke:#000000;stroke-width:0.8;" x="247.055865" xlink:href="#m8021d08baa" y="60.229503"/>
      </g>
     </g>
     <g id="text_15">
      <!-- $\mathdefault{0.8}$ -->
      <g transform="translate(227.325786 63.688753)scale(0.1 -0.1)">
       <defs>
        <path d="M 27.203125 35.375 
C 33.5 38.546875 39.90625 43.328125 39.90625 50.984375 
C 39.90625 60.015625 31.09375 65.296875 23 65.296875 
C 13.90625 65.296875 5.90625 58.734375 5.90625 49.6875 
C 5.90625 47.203125 6.5 42.921875 10.40625 39.140625 
C 11.40625 38.15625 15.59375 35.171875 18.296875 33.28125 
C 13.796875 30.984375 3.296875 25.53125 3.296875 14.59375 
C 3.296875 4.359375 13.09375 -2 22.796875 -2 
C 33.5 -2 42.5 5.65625 42.5 15.78125 
C 42.5 24.84375 36.40625 29.015625 32.40625 31.703125 
z
M 14.09375 44.09375 
C 13.296875 44.59375 9.296875 47.671875 9.296875 52.359375 
C 9.296875 58.421875 15.59375 63 22.796875 63 
C 30.703125 63 36.5 57.4375 36.5 50.96875 
C 36.5 41.703125 26.09375 36.421875 25.59375 36.421875 
C 25.5 36.421875 25.40625 36.421875 24.59375 37.03125 
z
M 32.5 23.734375 
C 34 22.640625 38.796875 19.375 38.796875 13.296875 
C 38.796875 5.953125 31.40625 0.390625 23 0.390625 
C 13.90625 0.390625 7 6.84375 7 14.6875 
C 7 22.546875 13.09375 29.09375 20 32.1875 
z
" id="CMR17-56"/>
       </defs>
       <use transform="scale(0.996264)" xlink:href="#CMR17-48"/>
       <use transform="translate(45.690477 0)scale(0.996264)" xlink:href="#CMMI12-58"/>
       <use transform="translate(72.787654 0)scale(0.996264)" xlink:href="#CMR17-56"/>
      </g>
     </g>
    </g>
    <g id="text_16">
     <!-- $t$ of $\gamma_2(t)$ -->
     <g transform="translate(220.835126 125.382009)rotate(-90)scale(0.1 -0.1)">
      <use transform="scale(0.996264)" xlink:href="#CMMI12-116"/>
      <use transform="translate(66.455443 0)scale(0.996264)" xlink:href="#CMSS17-111"/>
      <use transform="translate(113.299066 0)scale(0.996264)" xlink:href="#CMSS17-102"/>
      <use transform="translate(173.154838 0)scale(0.996264)" xlink:href="#CMMI12-13"/>
      <use transform="translate(223.753971 -14.943915)scale(0.697382)" xlink:href="#CMR17-50"/>
      <use transform="translate(256.235285 0)scale(0.996264)" xlink:href="#CMR17-40"/>
      <use transform="translate(291.516052 0)scale(0.996264)" xlink:href="#CMMI12-116"/>
      <use transform="translate(326.742383 0)scale(0.996264)" xlink:href="#CMR17-41"/>
     </g>
    </g>
   </g>
   <g id="line2d_11">
    <g clip-path="url(#p5f6b576ea4)">
     <use style="fill:#ff0000;stroke:#ff0000;" x="253.717424" xlink:href="#ma49152e706" y="172.378315"/>
     <use style="fill:#ff0000;stroke:#ff0000;" x="267.291921" xlink:href="#ma49152e706" y="158.803817"/>
     <use style="fill:#ff0000;stroke:#ff0000;" x="302.987822" xlink:href="#ma49152e706" y="123.107917"/>
     <use style="fill:#ff0000;stroke:#ff0000;" x="332.147854" xlink:href="#ma49152e706" y="93.947885"/>
     <use style="fill:#ff0000;stroke:#ff0000;" x="353.766498" xlink:href="#ma49152e706" y="72.329241"/>
     <use style="fill:#ff0000;stroke:#ff0000;" x="386.948603" xlink:href="#ma49152e706" y="39.147136"/>
    </g>
   </g>
   <g id="patch_3">
    <path d="M 247.055865 179.039874 
L 247.055865 32.485577 
" style="fill:none;stroke:#000000;stroke-linecap:square;stroke-linejoin:miter;stroke-width:0.8;"/>
   </g>
   <g id="patch_4">
    <path d="M 393.610162 179.039874 
L 393.610162 32.485577 
" style="fill:none;stroke:#000000;stroke-linecap:square;stroke-linejoin:miter;stroke-width:0.8;"/>
   </g>
   <g id="patch_5">
    <path d="M 247.055865 179.039874 
L 393.610162 179.039874 
" style="fill:none;stroke:#000000;stroke-linecap:square;stroke-linejoin:miter;stroke-width:0.8;"/>
   </g>
   <g id="patch_6">
    <path d="M 247.055865 32.485577 
L 393.610162 32.485577 
" style="fill:none;stroke:#000000;stroke-linecap:square;stroke-linejoin:miter;stroke-width:0.8;"/>
   </g>
   <g id="text_17">
    <!-- $(s_{0}, t_{0})$ -->
    <g transform="translate(257.0658 168.213467)scale(0.1 -0.1)">
     <defs>
      <path d="M 19.5 -0.484375 
C 19.5 5.359375 17.59375 9.671875 13.5 9.671875 
C 10.296875 9.671875 8.703125 7.078125 8.703125 4.890625 
C 8.703125 2.6875 10.203125 0 13.59375 0 
C 14.90625 0 16 0.40625 16.90625 1.296875 
C 17.09375 1.5 17.203125 1.5 17.296875 1.5 
C 17.5 1.5 17.5 0.078125 17.5 -0.421875 
C 17.5 -3.75 16.90625 -10.296875 11.09375 -16.875 
C 10 -18.078125 10 -18.28125 10 -18.484375 
C 10 -19 10.5 -19.5 11 -19.5 
C 11.796875 -19.5 19.5 -12.046875 19.5 -0.484375 
z
" id="CMMI12-59"/>
     </defs>
     <use transform="scale(0.996264)" xlink:href="#CMR17-40"/>
     <use transform="translate(35.280768 0)scale(0.996264)" xlink:href="#CMMI12-115"/>
     <use transform="translate(81.230815 -14.943915)scale(0.697382)" xlink:href="#CMR17-48"/>
     <use transform="translate(113.712129 0)scale(0.996264)" xlink:href="#CMMI12-59"/>
     <use transform="translate(157.413712 0)scale(0.996264)" xlink:href="#CMMI12-116"/>
     <use transform="translate(192.640042 -14.943915)scale(0.697382)" xlink:href="#CMR17-48"/>
     <use transform="translate(225.121356 0)scale(0.996264)" xlink:href="#CMR17-41"/>
    </g>
   </g>
   <g id="text_18">
    <!-- $(s_{1}, t_{1})$ -->
    <g transform="translate(270.640297 154.638969)scale(0.1 -0.1)">
     <use transform="scale(0.996264)" xlink:href="#CMR17-40"/>
     <use transform="translate(35.280768 0)scale(0.996264)" xlink:href="#CMMI12-115"/>
     <use transform="translate(81.230815 -14.943915)scale(0.697382)" xlink:href="#CMR17-49"/>
     <use transform="translate(113.712129 0)scale(0.996264)" xlink:href="#CMMI12-59"/>
     <use transform="translate(157.413712 0)scale(0.996264)" xlink:href="#CMMI12-116"/>
     <use transform="translate(192.640042 -14.943915)scale(0.697382)" xlink:href="#CMR17-49"/>
     <use transform="translate(225.121356 0)scale(0.996264)" xlink:href="#CMR17-41"/>
    </g>
   </g>
   <g id="text_19">
    <!-- $(s_{2}, t_{2})$ -->
    <g transform="translate(270.256544 132.254085)scale(0.1 -0.1)">
     <use transform="scale(0.996264)" xlink:href="#CMR17-40"/>
     <use transform="translate(35.280768 0)scale(0.996264)" xlink:href="#CMMI12-115"/>
     <use transform="translate(81.230815 -14.943915)scale(0.697382)" xlink:href="#CMR17-50"/>
     <use transform="translate(113.712129 0)scale(0.996264)" xlink:href="#CMMI12-59"/>
     <use transform="translate(157.413712 0)scale(0.996264)" xlink:href="#CMMI12-116"/>
     <use transform="translate(192.640042 -14.943915)scale(0.697382)" xlink:href="#CMR17-50"/>
     <use transform="translate(225.121356 0)scale(0.996264)" xlink:href="#CMR17-41"/>
    </g>
   </g>
   <g id="text_20">
    <!-- $(s_{3}, t_{3})$ -->
    <g transform="translate(299.416576 103.094053)scale(0.1 -0.1)">
     <use transform="scale(0.996264)" xlink:href="#CMR17-40"/>
     <use transform="translate(35.280768 0)scale(0.996264)" xlink:href="#CMMI12-115"/>
     <use transform="translate(81.230815 -14.943915)scale(0.697382)" xlink:href="#CMR17-51"/>
     <use transform="translate(113.712129 0)scale(0.996264)" xlink:href="#CMMI12-59"/>
     <use transform="translate(157.413712 0)scale(0.996264)" xlink:href="#CMMI12-116"/>
     <use transform="translate(192.640042 -14.943915)scale(0.697382)" xlink:href="#CMR17-51"/>
     <use transform="translate(225.121356 0)scale(0.996264)" xlink:href="#CMR17-41"/>
    </g>
   </g>
   <g id="text_21">
    <!-- $(s_{4}, t_{4})$ -->
    <g transform="translate(321.03522 81.475409)scale(0.1 -0.1)">
     <use transform="scale(0.996264)" xlink:href="#CMR17-40"/>
     <use transform="translate(35.280768 0)scale(0.996264)" xlink:href="#CMMI12-115"/>
     <use transform="translate(81.230815 -14.943915)scale(0.697382)" xlink:href="#CMR17-52"/>
     <use transform="translate(113.712129 0)scale(0.996264)" xlink:href="#CMMI12-59"/>
     <use transform="translate(157.413712 0)scale(0.996264)" xlink:href="#CMMI12-116"/>
     <use transform="translate(192.640042 -14.943915)scale(0.697382)" xlink:href="#CMR17-52"/>
     <use transform="translate(225.121356 0)scale(0.996264)" xlink:href="#CMR17-41"/>
    </g>
   </g>
   <g id="text_22">
    <!-- $(s_{5}, t_{5})$ -->
    <g transform="translate(354.217325 48.293304)scale(0.1 -0.1)">
     <use transform="scale(0.996264)" xlink:href="#CMR17-40"/>
     <use transform="translate(35.280768 0)scale(0.996264)" xlink:href="#CMMI12-115"/>
     <use transform="translate(81.230815 -14.943915)scale(0.697382)" xlink:href="#CMR17-53"/>
     <use transform="translate(113.712129 0)scale(0.996264)" xlink:href="#CMMI12-59"/>
     <use transform="translate(157.413712 0)scale(0.996264)" xlink:href="#CMMI12-116"/>
     <use transform="translate(192.640042 -14.943915)scale(0.697382)" xlink:href="#CMR17-53"/>
     <use transform="translate(225.121356 0)scale(0.996264)" xlink:href="#CMR17-41"/>
    </g>
   </g>
  </g>
  <g id="axes_3">
   <g id="line2d_12">
    <path clip-path="url(#pcb0172ebae)" d="M 483.512343 178.486679 
L 550.127932 134.852307 
" style="fill:none;stroke:#ff7f0e;stroke-linecap:square;stroke-width:1.5;"/>
   </g>
   <g id="line2d_13">
    <path clip-path="url(#pcb0172ebae)" d="M 550.127932 134.852307 
L 550.127932 76.673144 
" style="fill:none;stroke:#ff7f0e;stroke-linecap:square;stroke-width:1.5;"/>
   </g>
   <g id="line2d_14">
    <path clip-path="url(#pcb0172ebae)" d="M 550.127932 76.673144 
L 616.743522 33.038771 
" style="fill:none;stroke:#ff7f0e;stroke-linecap:square;stroke-width:1.5;"/>
   </g>
   <g id="line2d_15">
    <path clip-path="url(#pcb0172ebae)" d="M 616.743522 178.486679 
L 550.127932 134.852307 
" style="fill:none;stroke:#1f77b4;stroke-linecap:square;stroke-width:1.5;"/>
   </g>
   <g id="line2d_16">
    <path clip-path="url(#pcb0172ebae)" d="M 550.127932 134.852307 
L 550.127932 76.673144 
" style="fill:none;stroke:#1f77b4;stroke-dasharray:5.55,2.4;stroke-dashoffset:0;stroke-width:1.5;"/>
   </g>
   <g id="line2d_17">
    <path clip-path="url(#pcb0172ebae)" d="M 550.127932 76.673144 
L 483.512343 33.038771 
" style="fill:none;stroke:#1f77b4;stroke-linecap:square;stroke-width:1.5;"/>
   </g>
   <g id="line2d_18">
    <path clip-path="url(#pcb0172ebae)" d="M 554.124868 133.397828 
L 554.124868 134.852307 
" style="fill:none;stroke:#ff0000;stroke-linecap:square;stroke-width:1.5;"/>
   </g>
   <g id="line2d_19">
    <path clip-path="url(#pcb0172ebae)" d="M 554.124868 134.852307 
L 546.130997 134.852307 
" style="fill:none;stroke:#ff0000;stroke-linecap:square;stroke-width:1.5;"/>
   </g>
   <g id="line2d_20">
    <path clip-path="url(#pcb0172ebae)" d="M 546.130997 134.852307 
L 546.130997 133.397828 
" style="fill:none;stroke:#ff0000;stroke-linecap:square;stroke-width:1.5;"/>
   </g>
   <g id="line2d_21">
    <path clip-path="url(#pcb0172ebae)" d="M 546.130997 78.127623 
L 546.130997 76.673144 
" style="fill:none;stroke:#ff0000;stroke-linecap:square;stroke-width:1.5;"/>
   </g>
   <g id="line2d_22">
    <path clip-path="url(#pcb0172ebae)" d="M 546.130997 76.673144 
L 554.124868 76.673144 
" style="fill:none;stroke:#ff0000;stroke-linecap:square;stroke-width:1.5;"/>
   </g>
   <g id="line2d_23">
    <path clip-path="url(#pcb0172ebae)" d="M 554.124868 76.673144 
L 554.124868 78.127623 
" style="fill:none;stroke:#ff0000;stroke-linecap:square;stroke-width:1.5;"/>
   </g>
   <g id="text_23">
    <!-- $\gamma_1(s_1) = \gamma_2(t_2)$ -->
    <g transform="translate(556.789491 136.306786)scale(0.1 -0.1)">
     <use transform="scale(0.996264)" xlink:href="#CMMI12-13"/>
     <use transform="translate(50.599133 -14.943915)scale(0.697382)" xlink:href="#CMR17-49"/>
     <use transform="translate(83.080447 0)scale(0.996264)" xlink:href="#CMR17-40"/>
     <use transform="translate(118.361214 0)scale(0.996264)" xlink:href="#CMMI12-115"/>
     <use transform="translate(164.311262 -14.943915)scale(0.697382)" xlink:href="#CMR17-49"/>
     <use transform="translate(196.792576 0)scale(0.996264)" xlink:href="#CMR17-41"/>
     <use transform="translate(259.747352 0)scale(0.996264)" xlink:href="#CMR17-61"/>
     <use transform="translate(359.13615 0)scale(0.996264)" xlink:href="#CMMI12-13"/>
     <use transform="translate(409.735282 -14.943915)scale(0.697382)" xlink:href="#CMR17-50"/>
     <use transform="translate(442.216596 0)scale(0.996264)" xlink:href="#CMR17-40"/>
     <use transform="translate(477.497364 0)scale(0.996264)" xlink:href="#CMMI12-116"/>
     <use transform="translate(512.723694 -14.943915)scale(0.697382)" xlink:href="#CMR17-50"/>
     <use transform="translate(545.205008 0)scale(0.996264)" xlink:href="#CMR17-41"/>
    </g>
   </g>
   <g id="text_24">
    <!-- $\gamma_1(s_2) = \gamma_2(t_1)$ -->
    <g transform="translate(556.789491 78.127623)scale(0.1 -0.1)">
     <use transform="scale(0.996264)" xlink:href="#CMMI12-13"/>
     <use transform="translate(50.599133 -14.943915)scale(0.697382)" xlink:href="#CMR17-49"/>
     <use transform="translate(83.080447 0)scale(0.996264)" xlink:href="#CMR17-40"/>
     <use transform="translate(118.361214 0)scale(0.996264)" xlink:href="#CMMI12-115"/>
     <use transform="translate(164.311262 -14.943915)scale(0.697382)" xlink:href="#CMR17-50"/>
     <use transform="translate(196.792576 0)scale(0.996264)" xlink:href="#CMR17-41"/>
     <use transform="translate(259.747352 0)scale(0.996264)" xlink:href="#CMR17-61"/>
     <use transform="translate(359.13615 0)scale(0.996264)" xlink:href="#CMMI12-13"/>
     <use transform="translate(409.735282 -14.943915)scale(0.697382)" xlink:href="#CMR17-50"/>
     <use transform="translate(442.216596 0)scale(0.996264)" xlink:href="#CMR17-40"/>
     <use transform="translate(477.497364 0)scale(0.996264)" xlink:href="#CMMI12-116"/>
     <use transform="translate(512.723694 -14.943915)scale(0.697382)" xlink:href="#CMR17-49"/>
     <use transform="translate(545.205008 0)scale(0.996264)" xlink:href="#CMR17-41"/>
    </g>
   </g>
   <g id="text_25">
    <!-- (B) -->
    <g transform="translate(476.850784 19.766376)scale(0.12 -0.12)">
     <defs>
      <path d="M 8.90625 69 
L 8.90625 0 
L 33.796875 0 
C 47.40625 0 57.296875 8.96875 57.296875 18.75 
C 57.296875 26.328125 50.796875 34 39.09375 36.203125 
C 52.09375 39.96875 54.703125 47.5 54.703125 51.765625 
C 54.703125 60.671875 44.90625 69 31.203125 69 
z
M 17 39 
L 17 63.421875 
L 28.5 63.421875 
C 38.796875 63.421875 46.90625 58.1875 46.90625 51.65625 
C 46.90625 45.71875 40.5 39 27.59375 39 
z
M 17 5.578125 
L 17 32.921875 
L 30.296875 32.921875 
C 41.09375 32.921875 49.40625 26.234375 49.40625 18.84375 
C 49.40625 12.0625 42.09375 5.578125 31 5.578125 
z
" id="CMSS17-66"/>
     </defs>
     <use transform="scale(0.996264)" xlink:href="#CMSS17-40"/>
     <use transform="translate(36.433914 0)scale(0.996264)" xlink:href="#CMSS17-66"/>
     <use transform="translate(98.771954 0)scale(0.996264)" xlink:href="#CMSS17-41"/>
    </g>
   </g>
  </g>
  <g id="axes_4">
   <g id="patch_7">
    <path d="M 706.645703 179.039874 
L 853.2 179.039874 
L 853.2 32.485577 
L 706.645703 32.485577 
z
" style="fill:#ffffff;"/>
   </g>
   <g id="matplotlib.axis_3">
    <g id="xtick_4">
     <g id="line2d_24">
      <g>
       <use style="stroke:#000000;stroke-width:0.8;" x="747.752452" xlink:href="#m7390b90156" y="179.039874"/>
      </g>
     </g>
     <g id="text_26">
      <!-- $\mathdefault{0.4}$ -->
      <g transform="translate(741.387413 192.958372)scale(0.1 -0.1)">
       <use transform="scale(0.996264)" xlink:href="#CMR17-48"/>
       <use transform="translate(45.690477 0)scale(0.996264)" xlink:href="#CMMI12-58"/>
       <use transform="translate(72.787654 0)scale(0.996264)" xlink:href="#CMR17-52"/>
      </g>
     </g>
    </g>
    <g id="xtick_5">
     <g id="line2d_25">
      <g>
       <use style="stroke:#000000;stroke-width:0.8;" x="812.093251" xlink:href="#m7390b90156" y="179.039874"/>
      </g>
     </g>
     <g id="text_27">
      <!-- $\mathdefault{0.6}$ -->
      <g transform="translate(805.728211 192.958372)scale(0.1 -0.1)">
       <use transform="scale(0.996264)" xlink:href="#CMR17-48"/>
       <use transform="translate(45.690477 0)scale(0.996264)" xlink:href="#CMMI12-58"/>
       <use transform="translate(72.787654 0)scale(0.996264)" xlink:href="#CMR17-54"/>
      </g>
     </g>
    </g>
    <g id="text_28">
     <!-- $s$ of $\gamma_1(s)$ -->
     <g transform="translate(759.231204 206.367531)scale(0.1 -0.1)">
      <use transform="scale(0.996264)" xlink:href="#CMMI12-115"/>
      <use transform="translate(77.17916 0)scale(0.996264)" xlink:href="#CMSS17-111"/>
      <use transform="translate(124.022784 0)scale(0.996264)" xlink:href="#CMSS17-102"/>
      <use transform="translate(183.878555 0)scale(0.996264)" xlink:href="#CMMI12-13"/>
      <use transform="translate(234.477688 -14.943915)scale(0.697382)" xlink:href="#CMR17-49"/>
      <use transform="translate(266.959002 0)scale(0.996264)" xlink:href="#CMR17-40"/>
      <use transform="translate(302.23977 0)scale(0.996264)" xlink:href="#CMMI12-115"/>
      <use transform="translate(348.189817 0)scale(0.996264)" xlink:href="#CMR17-41"/>
     </g>
    </g>
   </g>
   <g id="matplotlib.axis_4">
    <g id="ytick_5">
     <g id="line2d_26">
      <g>
       <use style="stroke:#000000;stroke-width:0.8;" x="706.645703" xlink:href="#m8021d08baa" y="170.103524"/>
      </g>
     </g>
     <g id="text_29">
      <!-- $\mathdefault{0.3}$ -->
      <g transform="translate(686.915624 173.562773)scale(0.1 -0.1)">
       <use transform="scale(0.996264)" xlink:href="#CMR17-48"/>
       <use transform="translate(45.690477 0)scale(0.996264)" xlink:href="#CMMI12-58"/>
       <use transform="translate(72.787654 0)scale(0.996264)" xlink:href="#CMR17-51"/>
      </g>
     </g>
    </g>
    <g id="ytick_6">
     <g id="line2d_27">
      <g>
       <use style="stroke:#000000;stroke-width:0.8;" x="706.645703" xlink:href="#m8021d08baa" y="137.933125"/>
      </g>
     </g>
     <g id="text_30">
      <!-- $\mathdefault{0.4}$ -->
      <g transform="translate(686.915624 141.392374)scale(0.1 -0.1)">
       <use transform="scale(0.996264)" xlink:href="#CMR17-48"/>
       <use transform="translate(45.690477 0)scale(0.996264)" xlink:href="#CMMI12-58"/>
       <use transform="translate(72.787654 0)scale(0.996264)" xlink:href="#CMR17-52"/>
      </g>
     </g>
    </g>
    <g id="ytick_7">
     <g id="line2d_28">
      <g>
       <use style="stroke:#000000;stroke-width:0.8;" x="706.645703" xlink:href="#m8021d08baa" y="105.762725"/>
      </g>
     </g>
     <g id="text_31">
      <!-- $\mathdefault{0.5}$ -->
      <g transform="translate(686.915624 109.221974)scale(0.1 -0.1)">
       <use transform="scale(0.996264)" xlink:href="#CMR17-48"/>
       <use transform="translate(45.690477 0)scale(0.996264)" xlink:href="#CMMI12-58"/>
       <use transform="translate(72.787654 0)scale(0.996264)" xlink:href="#CMR17-53"/>
      </g>
     </g>
    </g>
    <g id="ytick_8">
     <g id="line2d_29">
      <g>
       <use style="stroke:#000000;stroke-width:0.8;" x="706.645703" xlink:href="#m8021d08baa" y="73.592326"/>
      </g>
     </g>
     <g id="text_32">
      <!-- $\mathdefault{0.6}$ -->
      <g transform="translate(686.915624 77.051575)scale(0.1 -0.1)">
       <use transform="scale(0.996264)" xlink:href="#CMR17-48"/>
       <use transform="translate(45.690477 0)scale(0.996264)" xlink:href="#CMMI12-58"/>
       <use transform="translate(72.787654 0)scale(0.996264)" xlink:href="#CMR17-54"/>
      </g>
     </g>
    </g>
    <g id="ytick_9">
     <g id="line2d_30">
      <g>
       <use style="stroke:#000000;stroke-width:0.8;" x="706.645703" xlink:href="#m8021d08baa" y="41.421926"/>
      </g>
     </g>
     <g id="text_33">
      <!-- $\mathdefault{0.7}$ -->
      <g transform="translate(686.915624 44.881176)scale(0.1 -0.1)">
       <use transform="scale(0.996264)" xlink:href="#CMR17-48"/>
       <use transform="translate(45.690477 0)scale(0.996264)" xlink:href="#CMMI12-58"/>
       <use transform="translate(72.787654 0)scale(0.996264)" xlink:href="#CMR17-55"/>
      </g>
     </g>
    </g>
    <g id="text_34">
     <!-- $t$ of $\gamma_2(t)$ -->
     <g transform="translate(680.424964 125.382009)rotate(-90)scale(0.1 -0.1)">
      <use transform="scale(0.996264)" xlink:href="#CMMI12-116"/>
      <use transform="translate(66.455443 0)scale(0.996264)" xlink:href="#CMSS17-111"/>
      <use transform="translate(113.299066 0)scale(0.996264)" xlink:href="#CMSS17-102"/>
      <use transform="translate(173.154838 0)scale(0.996264)" xlink:href="#CMMI12-13"/>
      <use transform="translate(223.753971 -14.943915)scale(0.697382)" xlink:href="#CMR17-50"/>
      <use transform="translate(256.235285 0)scale(0.996264)" xlink:href="#CMR17-40"/>
      <use transform="translate(291.516052 0)scale(0.996264)" xlink:href="#CMMI12-116"/>
      <use transform="translate(326.742383 0)scale(0.996264)" xlink:href="#CMR17-41"/>
     </g>
    </g>
   </g>
   <g id="line2d_31">
    <path clip-path="url(#p4779e55647)" d="M 715.582053 41.421926 
L 844.26365 170.103524 
" style="fill:none;stroke:#d62728;stroke-linecap:square;stroke-width:1.5;"/>
   </g>
   <g id="line2d_32">
    <path clip-path="url(#p4779e55647)" d="M 713.989699 44.379154 
L 713.307262 43.696717 
" style="fill:none;stroke:#ff0000;stroke-linecap:square;stroke-width:1.5;"/>
   </g>
   <g id="line2d_33">
    <path clip-path="url(#p4779e55647)" d="M 713.307262 43.696717 
L 717.856843 39.147136 
" style="fill:none;stroke:#ff0000;stroke-linecap:square;stroke-width:1.5;"/>
   </g>
   <g id="line2d_34">
    <path clip-path="url(#p4779e55647)" d="M 717.856843 39.147136 
L 718.539281 39.829573 
" style="fill:none;stroke:#ff0000;stroke-linecap:square;stroke-width:1.5;"/>
   </g>
   <g id="line2d_35">
    <path clip-path="url(#p4779e55647)" d="M 845.856004 167.146296 
L 846.538441 167.828733 
" style="fill:none;stroke:#ff0000;stroke-linecap:square;stroke-width:1.5;"/>
   </g>
   <g id="line2d_36">
    <path clip-path="url(#p4779e55647)" d="M 846.538441 167.828733 
L 841.98886 172.378315 
" style="fill:none;stroke:#ff0000;stroke-linecap:square;stroke-width:1.5;"/>
   </g>
   <g id="line2d_37">
    <path clip-path="url(#p4779e55647)" d="M 841.98886 172.378315 
L 841.306422 171.695878 
" style="fill:none;stroke:#ff0000;stroke-linecap:square;stroke-width:1.5;"/>
   </g>
   <g id="patch_8">
    <path d="M 706.645703 179.039874 
L 706.645703 32.485577 
" style="fill:none;stroke:#000000;stroke-linecap:square;stroke-linejoin:miter;stroke-width:0.8;"/>
   </g>
   <g id="patch_9">
    <path d="M 853.2 179.039874 
L 853.2 32.485577 
" style="fill:none;stroke:#000000;stroke-linecap:square;stroke-linejoin:miter;stroke-width:0.8;"/>
   </g>
   <g id="patch_10">
    <path d="M 706.645703 179.039874 
L 853.2 179.039874 
" style="fill:none;stroke:#000000;stroke-linecap:square;stroke-linejoin:miter;stroke-width:0.8;"/>
   </g>
   <g id="patch_11">
    <path d="M 706.645703 32.485577 
L 853.2 32.485577 
" style="fill:none;stroke:#000000;stroke-linecap:square;stroke-linejoin:miter;stroke-width:0.8;"/>
   </g>
   <g id="text_35">
    <!-- $(s_1, t_2)$ -->
    <g transform="translate(722.016133 44.638966)scale(0.1 -0.1)">
     <use transform="scale(0.996264)" xlink:href="#CMR17-40"/>
     <use transform="translate(35.280768 0)scale(0.996264)" xlink:href="#CMMI12-115"/>
     <use transform="translate(81.230815 -14.943915)scale(0.697382)" xlink:href="#CMR17-49"/>
     <use transform="translate(113.712129 0)scale(0.996264)" xlink:href="#CMMI12-59"/>
     <use transform="translate(157.413712 0)scale(0.996264)" xlink:href="#CMMI12-116"/>
     <use transform="translate(192.640042 -14.943915)scale(0.697382)" xlink:href="#CMR17-50"/>
     <use transform="translate(225.121356 0)scale(0.996264)" xlink:href="#CMR17-41"/>
    </g>
   </g>
   <g id="text_36">
    <!-- $(s_2, t_1)$ -->
    <g transform="translate(812.093251 173.320564)scale(0.1 -0.1)">
     <use transform="scale(0.996264)" xlink:href="#CMR17-40"/>
     <use transform="translate(35.280768 0)scale(0.996264)" xlink:href="#CMMI12-115"/>
     <use transform="translate(81.230815 -14.943915)scale(0.697382)" xlink:href="#CMR17-50"/>
     <use transform="translate(113.712129 0)scale(0.996264)" xlink:href="#CMMI12-59"/>
     <use transform="translate(157.413712 0)scale(0.996264)" xlink:href="#CMMI12-116"/>
     <use transform="translate(192.640042 -14.943915)scale(0.697382)" xlink:href="#CMR17-49"/>
     <use transform="translate(225.121356 0)scale(0.996264)" xlink:href="#CMR17-41"/>
    </g>
   </g>
  </g>
 </g>
 <defs>
  <clipPath id="p68563cdfd6">
   <rect height="159.992698" width="146.554297" x="17.260946" y="25.766376"/>
  </clipPath>
  <clipPath id="p5f6b576ea4">
   <rect height="146.554297" width="146.554297" x="247.055865" y="32.485577"/>
  </clipPath>
  <clipPath id="pcb0172ebae">
   <rect height="159.992698" width="146.554297" x="476.850784" y="25.766376"/>
  </clipPath>
  <clipPath id="p4779e55647">
   <rect height="146.554297" width="146.554297" x="706.645703" y="32.485577"/>
  </clipPath>
 </defs>
</svg>
