<?xml version="1.0" encoding="utf-8" standalone="no"?>
<!DOCTYPE svg PUBLIC "-//W3C//DTD SVG 1.1//EN"
  "http://www.w3.org/Graphics/SVG/1.1/DTD/svg11.dtd">
<!-- Created with matplotlib (https://matplotlib.org/) -->
<svg height="288pt" version="1.1" viewBox="0 0 288 288" width="288pt" xmlns="http://www.w3.org/2000/svg" xmlns:xlink="http://www.w3.org/1999/xlink">
 <metadata>
  <rdf:RDF xmlns:cc="http://creativecommons.org/ns#" xmlns:dc="http://purl.org/dc/elements/1.1/" xmlns:rdf="http://www.w3.org/1999/02/22-rdf-syntax-ns#">
   <cc:Work>
    <dc:type rdf:resource="http://purl.org/dc/dcmitype/StillImage"/>
    <dc:date>2022-08-25T12:30:48.077924</dc:date>
    <dc:format>image/svg+xml</dc:format>
    <dc:creator>
     <cc:Agent>
      <dc:title>Matplotlib v3.3.3, https://matplotlib.org/</dc:title>
     </cc:Agent>
    </dc:creator>
   </cc:Work>
  </rdf:RDF>
 </metadata>
 <defs>
  <style type="text/css">*{stroke-linecap:butt;stroke-linejoin:round;}</style>
 </defs>
 <g id="figure_1">
  <g id="patch_1">
   <path d="M 0 288 
L 288 288 
L 288 0 
L 0 0 
z
" style="fill:#ffffff;"/>
  </g>
  <g id="axes_1">
   <g id="line2d_1">
    <path clip-path="url(#p70c4e4f2be)" d="M 30.678676 46.867436 
L 117.018732 241.132564 
L 192.566282 197.962535 
L 257.321324 46.867436 
" style="fill:none;stroke:#1f77b4;stroke-linecap:square;stroke-width:1.5;"/>
    <defs>
     <path d="M 0 1.5 
C 0.397805 1.5 0.77937 1.341951 1.06066 1.06066 
C 1.341951 0.77937 1.5 0.397805 1.5 0 
C 1.5 -0.397805 1.341951 -0.77937 1.06066 -1.06066 
C 0.77937 -1.341951 0.397805 -1.5 0 -1.5 
C -0.397805 -1.5 -0.77937 -1.341951 -1.06066 -1.06066 
C -1.341951 -0.77937 -1.5 -0.397805 -1.5 0 
C -1.5 0.397805 -1.341951 0.77937 -1.06066 1.06066 
C -0.77937 1.341951 -0.397805 1.5 0 1.5 
z
" id="m28ea5f9a6e" style="stroke:#1f77b4;"/>
    </defs>
    <g clip-path="url(#p70c4e4f2be)">
     <use style="fill:#1f77b4;stroke:#1f77b4;" x="30.678676" xlink:href="#m28ea5f9a6e" y="46.867436"/>
     <use style="fill:#1f77b4;stroke:#1f77b4;" x="117.018732" xlink:href="#m28ea5f9a6e" y="241.132564"/>
     <use style="fill:#1f77b4;stroke:#1f77b4;" x="192.566282" xlink:href="#m28ea5f9a6e" y="197.962535"/>
     <use style="fill:#1f77b4;stroke:#1f77b4;" x="257.321324" xlink:href="#m28ea5f9a6e" y="46.867436"/>
    </g>
   </g>
   <g id="line2d_2">
    <path clip-path="url(#p70c4e4f2be)" d="M 82.48271 163.426513 
L 162.347262 215.230547 
L 231.419307 107.305476 
" style="fill:none;stroke:#ff7f0e;stroke-linecap:square;stroke-width:1.5;"/>
    <defs>
     <path d="M 0 1.5 
C 0.397805 1.5 0.77937 1.341951 1.06066 1.06066 
C 1.341951 0.77937 1.5 0.397805 1.5 0 
C 1.5 -0.397805 1.341951 -0.77937 1.06066 -1.06066 
C 0.77937 -1.341951 0.397805 -1.5 0 -1.5 
C -0.397805 -1.5 -0.77937 -1.341951 -1.06066 -1.06066 
C -1.341951 -0.77937 -1.5 -0.397805 -1.5 0 
C -1.5 0.397805 -1.341951 0.77937 -1.06066 1.06066 
C -0.77937 1.341951 -0.397805 1.5 0 1.5 
z
" id="m64c023ded1" style="stroke:#ff7f0e;"/>
    </defs>
    <g clip-path="url(#p70c4e4f2be)">
     <use style="fill:#ff7f0e;stroke:#ff7f0e;" x="82.48271" xlink:href="#m64c023ded1" y="163.426513"/>
     <use style="fill:#ff7f0e;stroke:#ff7f0e;" x="162.347262" xlink:href="#m64c023ded1" y="215.230547"/>
     <use style="fill:#ff7f0e;stroke:#ff7f0e;" x="231.419307" xlink:href="#m64c023ded1" y="107.305476"/>
    </g>
   </g>
   <g id="line2d_3">
    <path clip-path="url(#p70c4e4f2be)" d="M 130.401441 194.508933 
L 203.790489 150.475504 
" style="fill:none;stroke:#2ca02c;stroke-linecap:square;stroke-width:1.5;"/>
    <defs>
     <path d="M 0 1.5 
C 0.397805 1.5 0.77937 1.341951 1.06066 1.06066 
C 1.341951 0.77937 1.5 0.397805 1.5 0 
C 1.5 -0.397805 1.341951 -0.77937 1.06066 -1.06066 
C 0.77937 -1.341951 0.397805 -1.5 0 -1.5 
C -0.397805 -1.5 -0.77937 -1.341951 -1.06066 -1.06066 
C -1.341951 -0.77937 -1.5 -0.397805 -1.5 0 
C -1.5 0.397805 -1.341951 0.77937 -1.06066 1.06066 
C -0.77937 1.341951 -0.397805 1.5 0 1.5 
z
" id="md94dae5283" style="stroke:#2ca02c;"/>
    </defs>
    <g clip-path="url(#p70c4e4f2be)">
     <use style="fill:#2ca02c;stroke:#2ca02c;" x="130.401441" xlink:href="#md94dae5283" y="194.508933"/>
     <use style="fill:#2ca02c;stroke:#2ca02c;" x="203.790489" xlink:href="#md94dae5283" y="150.475504"/>
    </g>
   </g>
   <g id="line2d_4">
    <defs>
     <path d="M 0 3 
C 0.795609 3 1.55874 2.683901 2.12132 2.12132 
C 2.683901 1.55874 3 0.795609 3 0 
C 3 -0.795609 2.683901 -1.55874 2.12132 -2.12132 
C 1.55874 -2.683901 0.795609 -3 0 -3 
C -0.795609 -3 -1.55874 -2.683901 -2.12132 -2.12132 
C -2.683901 -1.55874 -3 -0.795609 -3 0 
C -3 0.795609 -2.683901 1.55874 -2.12132 2.12132 
C -1.55874 2.683901 -0.795609 3 0 3 
z
" id="m8d79ecd6d8" style="stroke:#d62728;"/>
    </defs>
    <g clip-path="url(#p70c4e4f2be)">
     <use style="fill:#d62728;stroke:#d62728;" x="174.43487" xlink:href="#m8d79ecd6d8" y="168.088876"/>
    </g>
   </g>
   <g id="line2d_5">
    <defs>
     <path d="M 0 1.5 
C 0.397805 1.5 0.77937 1.341951 1.06066 1.06066 
C 1.341951 0.77937 1.5 0.397805 1.5 0 
C 1.5 -0.397805 1.341951 -0.77937 1.06066 -1.06066 
C 0.77937 -1.341951 0.397805 -1.5 0 -1.5 
C -0.397805 -1.5 -0.77937 -1.341951 -1.06066 -1.06066 
C -1.341951 -0.77937 -1.5 -0.397805 -1.5 0 
C -1.5 0.397805 -1.341951 0.77937 -1.06066 1.06066 
C -0.77937 1.341951 -0.397805 1.5 0 1.5 
z
" id="meeba742c57" style="stroke:#d62728;"/>
    </defs>
    <g clip-path="url(#p70c4e4f2be)">
     <use style="fill:#d62728;stroke:#d62728;" x="43.54874" xlink:href="#meeba742c57" y="74.242631"/>
    </g>
   </g>
   <g id="line2d_6">
    <g clip-path="url(#p70c4e4f2be)">
     <use style="fill:#d62728;stroke:#d62728;" x="55.592102" xlink:href="#meeba742c57" y="96.979765"/>
    </g>
   </g>
   <g id="line2d_7">
    <g clip-path="url(#p70c4e4f2be)">
     <use style="fill:#d62728;stroke:#d62728;" x="67.490168" xlink:href="#meeba742c57" y="116.69017"/>
    </g>
   </g>
   <g id="line2d_8">
    <g clip-path="url(#p70c4e4f2be)">
     <use style="fill:#d62728;stroke:#d62728;" x="79.24294" xlink:href="#meeba742c57" y="133.456434"/>
    </g>
   </g>
   <g id="line2d_9">
    <g clip-path="url(#p70c4e4f2be)">
     <use style="fill:#d62728;stroke:#d62728;" x="90.850415" xlink:href="#meeba742c57" y="147.361147"/>
    </g>
   </g>
   <g id="line2d_10">
    <g clip-path="url(#p70c4e4f2be)">
     <use style="fill:#d62728;stroke:#d62728;" x="102.312596" xlink:href="#meeba742c57" y="158.486897"/>
    </g>
   </g>
   <g id="line2d_11">
    <g clip-path="url(#p70c4e4f2be)">
     <use style="fill:#d62728;stroke:#d62728;" x="113.629482" xlink:href="#meeba742c57" y="166.916273"/>
    </g>
   </g>
   <g id="line2d_12">
    <g clip-path="url(#p70c4e4f2be)">
     <use style="fill:#d62728;stroke:#d62728;" x="124.801072" xlink:href="#meeba742c57" y="172.731864"/>
    </g>
   </g>
   <g id="line2d_13">
    <g clip-path="url(#p70c4e4f2be)">
     <use style="fill:#d62728;stroke:#d62728;" x="135.827367" xlink:href="#meeba742c57" y="176.016259"/>
    </g>
   </g>
   <g id="line2d_14">
    <g clip-path="url(#p70c4e4f2be)">
     <use style="fill:#d62728;stroke:#d62728;" x="146.708366" xlink:href="#meeba742c57" y="176.852046"/>
    </g>
   </g>
   <g id="line2d_15">
    <g clip-path="url(#p70c4e4f2be)">
     <use style="fill:#d62728;stroke:#d62728;" x="157.444071" xlink:href="#meeba742c57" y="175.321815"/>
    </g>
   </g>
   <g id="line2d_16">
    <g clip-path="url(#p70c4e4f2be)">
     <use style="fill:#d62728;stroke:#d62728;" x="168.03448" xlink:href="#meeba742c57" y="171.508155"/>
    </g>
   </g>
   <g id="line2d_17">
    <g clip-path="url(#p70c4e4f2be)">
     <use style="fill:#d62728;stroke:#d62728;" x="178.479594" xlink:href="#meeba742c57" y="165.493654"/>
    </g>
   </g>
   <g id="line2d_18">
    <g clip-path="url(#p70c4e4f2be)">
     <use style="fill:#d62728;stroke:#d62728;" x="188.779412" xlink:href="#meeba742c57" y="157.360901"/>
    </g>
   </g>
   <g id="line2d_19">
    <g clip-path="url(#p70c4e4f2be)">
     <use style="fill:#d62728;stroke:#d62728;" x="198.933936" xlink:href="#meeba742c57" y="147.192485"/>
    </g>
   </g>
   <g id="line2d_20">
    <g clip-path="url(#p70c4e4f2be)">
     <use style="fill:#d62728;stroke:#d62728;" x="208.943164" xlink:href="#meeba742c57" y="135.070996"/>
    </g>
   </g>
   <g id="line2d_21">
    <g clip-path="url(#p70c4e4f2be)">
     <use style="fill:#d62728;stroke:#d62728;" x="218.807097" xlink:href="#meeba742c57" y="121.079021"/>
    </g>
   </g>
   <g id="line2d_22">
    <g clip-path="url(#p70c4e4f2be)">
     <use style="fill:#d62728;stroke:#d62728;" x="228.525734" xlink:href="#meeba742c57" y="105.29915"/>
    </g>
   </g>
   <g id="line2d_23">
    <g clip-path="url(#p70c4e4f2be)">
     <use style="fill:#d62728;stroke:#d62728;" x="238.099077" xlink:href="#meeba742c57" y="87.813971"/>
    </g>
   </g>
   <g id="line2d_24">
    <g clip-path="url(#p70c4e4f2be)">
     <use style="fill:#d62728;stroke:#d62728;" x="247.527124" xlink:href="#meeba742c57" y="68.706074"/>
    </g>
   </g>
   <g id="text_1">
    <!-- $P^{(0)}_0$ -->
    <g style="fill:#1f77b4;" transform="translate(10.969525 61.159097)scale(0.12 -0.12)">
     <defs>
      <path d="M 29.59375 31.609375 
L 46.40625 31.609375 
C 60.203125 31.609375 74 41.765625 74 53.140625 
C 74 60.90625 67.40625 68 54.796875 68 
L 23.90625 68 
C 22 68 21.09375 68 21.09375 66.109375 
C 21.09375 65.109375 22 65.109375 23.5 65.109375 
C 29.59375 65.109375 29.59375 64.3125 29.59375 63.21875 
C 29.59375 63.03125 29.59375 62.421875 29.203125 60.921875 
L 15.703125 7.375 
C 14.796875 3.890625 14.59375 2.890625 7.59375 2.890625 
C 5.703125 2.890625 4.703125 2.890625 4.703125 1.09375 
C 4.703125 0 5.59375 0 6.203125 0 
C 8.09375 0 10.09375 0 12 0 
L 23.703125 0 
C 25.59375 0 27.703125 0 29.59375 0 
C 30.40625 0 31.5 0 31.5 1.890625 
C 31.5 2.890625 30.59375 2.890625 29.09375 2.890625 
C 23.09375 2.890625 23 3.59375 23 4.578125 
C 23 5.078125 23.09375 5.765625 23.203125 6.265625 
z
M 36.796875 61.40625 
C 37.703125 65.109375 38.09375 65.109375 42 65.109375 
L 51.90625 65.109375 
C 59.40625 65.109375 65.59375 62.703125 65.59375 55.234375 
C 65.59375 52.640625 64.296875 44.171875 59.703125 39.59375 
C 58 37.796875 53.203125 34 44.09375 34 
L 30 34 
z
" id="CMMI12-80"/>
      <path d="M 30.59375 -24.390625 
C 30.59375 -24.296875 30.59375 -24.09375 30.296875 -23.796875 
C 25.703125 -19.125 13.40625 -6.359375 13.40625 24.703125 
C 13.40625 55.765625 25.5 68.421875 30.40625 73.390625 
C 30.40625 73.5 30.59375 73.703125 30.59375 74 
C 30.59375 74.296875 30.296875 74.5 29.90625 74.5 
C 28.796875 74.5 20.296875 67.125 15.40625 56.15625 
C 10.40625 45.109375 9 34.359375 9 24.8125 
C 9 17.625 9.703125 5.484375 15.703125 -7.359375 
C 20.5 -17.734375 28.703125 -25 29.90625 -25 
C 30.40625 -25 30.59375 -24.796875 30.59375 -24.390625 
z
" id="CMR17-40"/>
      <path d="M 42 31.640625 
C 42 37.75 41.90625 48.125 37.703125 56.109375 
C 34 63.109375 28.09375 65.59375 22.90625 65.59375 
C 18.09375 65.59375 12 63.40625 8.203125 56.203125 
C 4.203125 48.71875 3.796875 39.4375 3.796875 31.640625 
C 3.796875 25.953125 3.90625 17.28125 7 9.671875 
C 11.296875 -0.609375 19 -2 22.90625 -2 
C 27.5 -2 34.5 -0.109375 38.59375 9.375 
C 41.59375 16.28125 42 24.359375 42 31.640625 
z
M 22.90625 -0.40625 
C 16.5 -0.40625 12.703125 5.078125 11.296875 12.6875 
C 10.203125 18.5625 10.203125 27.15625 10.203125 32.75 
C 10.203125 40.4375 10.203125 46.828125 11.5 52.921875 
C 13.40625 61.390625 19 64 22.90625 64 
C 27 64 32.296875 61.296875 34.203125 53.125 
C 35.5 47.4375 35.59375 40.734375 35.59375 32.75 
C 35.59375 26.25 35.59375 18.265625 34.40625 12.375 
C 32.296875 1.484375 26.40625 -0.40625 22.90625 -0.40625 
z
" id="CMR17-48"/>
      <path d="M 26.296875 24.703125 
C 26.296875 31.875 25.59375 44.015625 19.59375 56.859375 
C 14.796875 67.234375 6.59375 74.5 5.40625 74.5 
C 5.09375 74.5 4.703125 74.390625 4.703125 73.890625 
C 4.703125 73.703125 4.796875 73.59375 4.90625 73.390625 
C 9.703125 68.40625 21.90625 55.75 21.90625 24.75 
C 21.90625 -6.359375 9.796875 -19.015625 4.90625 -24.015625 
C 4.796875 -24.203125 4.703125 -24.3125 4.703125 -24.5 
C 4.703125 -25 5.09375 -25 5.40625 -25 
C 6.5 -25 15 -17.625 19.90625 -6.65625 
C 24.90625 4.390625 26.296875 15.140625 26.296875 24.703125 
z
" id="CMR17-41"/>
     </defs>
     <use transform="scale(0.996264)" xlink:href="#CMMI12-80"/>
     <use transform="translate(76.425821 51.691943)scale(0.697382)" xlink:href="#CMR17-40"/>
     <use transform="translate(101.122241 51.691943)scale(0.697382)" xlink:href="#CMR17-48"/>
     <use transform="translate(133.105423 51.691943)scale(0.697382)" xlink:href="#CMR17-41"/>
     <use transform="translate(62.877232 -26.578082)scale(0.697382)" xlink:href="#CMR17-48"/>
    </g>
   </g>
   <g id="text_2">
    <!-- $P^{(0)}_1$ -->
    <g style="fill:#1f77b4;" transform="translate(97.309582 255.424224)scale(0.12 -0.12)">
     <defs>
      <path d="M 26.59375 63.40625 
C 26.59375 65.5 26.5 65.5 25.09375 65.5 
C 21.203125 61.1875 15.296875 59.796875 9.703125 59.796875 
C 9.40625 59.796875 8.90625 59.796875 8.796875 59.5 
C 8.703125 59.296875 8.703125 59.09375 8.703125 57 
C 11.796875 57 17 57.59375 21 59.984375 
L 21 7.203125 
C 21 3.6875 20.796875 2.5 12.203125 2.5 
L 9.203125 2.5 
L 9.203125 0 
C 14 0 19 0 23.796875 0 
C 28.59375 0 33.59375 0 38.40625 0 
L 38.40625 2.5 
L 35.40625 2.5 
C 26.796875 2.5 26.59375 3.59375 26.59375 7.15625 
z
" id="CMR17-49"/>
     </defs>
     <use transform="scale(0.996264)" xlink:href="#CMMI12-80"/>
     <use transform="translate(76.425821 51.691943)scale(0.697382)" xlink:href="#CMR17-40"/>
     <use transform="translate(101.122241 51.691943)scale(0.697382)" xlink:href="#CMR17-48"/>
     <use transform="translate(133.105423 51.691943)scale(0.697382)" xlink:href="#CMR17-41"/>
     <use transform="translate(62.877232 -26.578082)scale(0.697382)" xlink:href="#CMR17-49"/>
    </g>
   </g>
   <g id="text_3">
    <!-- $P^{(0)}_2$ -->
    <g style="fill:#1f77b4;" transform="translate(192.283644 212.254196)scale(0.12 -0.12)">
     <defs>
      <path d="M 41.703125 15.453125 
L 39.90625 15.453125 
C 38.90625 8.375 38.09375 7.171875 37.703125 6.5625 
C 37.203125 5.765625 30 5.765625 28.59375 5.765625 
L 9.40625 5.765625 
C 13 9.671875 20 16.75 28.5 24.953125 
C 34.59375 30.734375 41.703125 37.53125 41.703125 47.421875 
C 41.703125 59.21875 32.296875 66 21.796875 66 
C 10.796875 66 4.09375 56.3125 4.09375 47.34375 
C 4.09375 43.4375 7 42.9375 8.203125 42.9375 
C 9.203125 42.9375 12.203125 43.546875 12.203125 47.03125 
C 12.203125 50.109375 9.59375 51 8.203125 51 
C 7.59375 51 7 50.90625 6.59375 50.703125 
C 8.5 59.21875 14.296875 63.40625 20.40625 63.40625 
C 29.09375 63.40625 34.796875 56.515625 34.796875 47.421875 
C 34.796875 38.734375 29.703125 31.25 24 24.75 
L 4.09375 2.28125 
L 4.09375 0 
L 39.296875 0 
z
" id="CMR17-50"/>
     </defs>
     <use transform="scale(0.996264)" xlink:href="#CMMI12-80"/>
     <use transform="translate(76.425821 51.691943)scale(0.697382)" xlink:href="#CMR17-40"/>
     <use transform="translate(101.122241 51.691943)scale(0.697382)" xlink:href="#CMR17-48"/>
     <use transform="translate(133.105423 51.691943)scale(0.697382)" xlink:href="#CMR17-41"/>
     <use transform="translate(62.877232 -26.578082)scale(0.697382)" xlink:href="#CMR17-50"/>
    </g>
   </g>
   <g id="text_4">
    <!-- $P^{(0)}_3$ -->
    <g style="fill:#1f77b4;" transform="translate(257.038687 61.159097)scale(0.12 -0.12)">
     <defs>
      <path d="M 22.09375 33.703125 
C 31 33.703125 34.90625 25.96875 34.90625 17.03125 
C 34.90625 5 28.5 0.390625 22.703125 0.390625 
C 17.40625 0.390625 8.796875 3.03125 6.09375 10.828125 
C 6.59375 10.625 7.09375 10.625 7.59375 10.625 
C 10 10.625 11.796875 12.21875 11.796875 14.8125 
C 11.796875 17.703125 9.59375 19 7.59375 19 
C 5.90625 19 3.296875 18.203125 3.296875 14.46875 
C 3.296875 5.234375 12.296875 -2 22.90625 -2 
C 34 -2 42.5 6.71875 42.5 16.953125 
C 42.5 26.671875 34.5 33.703125 25 34.796875 
C 32.59375 36.375 39.90625 43.0625 39.90625 52.015625 
C 39.90625 59.6875 32 65.296875 23 65.296875 
C 13.90625 65.296875 5.90625 59.828125 5.90625 52.015625 
C 5.90625 48.59375 8.5 48 9.796875 48 
C 11.90625 48 13.703125 49.296875 13.703125 51.890625 
C 13.703125 54.46875 11.90625 55.765625 9.796875 55.765625 
C 9.40625 55.765625 8.90625 55.765625 8.5 55.578125 
C 11.40625 61.859375 19.296875 63 22.796875 63 
C 26.296875 63 32.90625 61.328125 32.90625 51.875 
C 32.90625 49.109375 32.5 44.1875 29.09375 39.84375 
C 26.09375 36 22.703125 36 19.40625 35.6875 
C 18.90625 35.6875 16.59375 35.453125 16.203125 35.453125 
C 15.5 35.359375 15.09375 35.265625 15.09375 34.5 
C 15.09375 33.796875 15.203125 33.703125 17.203125 33.703125 
z
" id="CMR17-51"/>
     </defs>
     <use transform="scale(0.996264)" xlink:href="#CMMI12-80"/>
     <use transform="translate(76.425821 51.691943)scale(0.697382)" xlink:href="#CMR17-40"/>
     <use transform="translate(101.122241 51.691943)scale(0.697382)" xlink:href="#CMR17-48"/>
     <use transform="translate(133.105423 51.691943)scale(0.697382)" xlink:href="#CMR17-41"/>
     <use transform="translate(62.877232 -26.578082)scale(0.697382)" xlink:href="#CMR17-51"/>
    </g>
   </g>
   <g id="text_5">
    <!-- $P^{(1)}_0$ -->
    <g style="fill:#ff7f0e;" transform="translate(62.773559 177.718173)scale(0.12 -0.12)">
     <use transform="scale(0.996264)" xlink:href="#CMMI12-80"/>
     <use transform="translate(76.425821 51.691943)scale(0.697382)" xlink:href="#CMR17-40"/>
     <use transform="translate(101.122241 51.691943)scale(0.697382)" xlink:href="#CMR17-49"/>
     <use transform="translate(133.105423 51.691943)scale(0.697382)" xlink:href="#CMR17-41"/>
     <use transform="translate(62.877232 -26.578082)scale(0.697382)" xlink:href="#CMR17-48"/>
    </g>
   </g>
   <g id="text_6">
    <!-- $P^{(1)}_1$ -->
    <g style="fill:#ff7f0e;" transform="translate(162.064624 229.522207)scale(0.12 -0.12)">
     <use transform="scale(0.996264)" xlink:href="#CMMI12-80"/>
     <use transform="translate(76.425821 51.691943)scale(0.697382)" xlink:href="#CMR17-40"/>
     <use transform="translate(101.122241 51.691943)scale(0.697382)" xlink:href="#CMR17-49"/>
     <use transform="translate(133.105423 51.691943)scale(0.697382)" xlink:href="#CMR17-41"/>
     <use transform="translate(62.877232 -26.578082)scale(0.697382)" xlink:href="#CMR17-49"/>
    </g>
   </g>
   <g id="text_7">
    <!-- $P^{(1)}_2$ -->
    <g style="fill:#ff7f0e;" transform="translate(231.13667 121.597137)scale(0.12 -0.12)">
     <use transform="scale(0.996264)" xlink:href="#CMMI12-80"/>
     <use transform="translate(76.425821 51.691943)scale(0.697382)" xlink:href="#CMR17-40"/>
     <use transform="translate(101.122241 51.691943)scale(0.697382)" xlink:href="#CMR17-49"/>
     <use transform="translate(133.105423 51.691943)scale(0.697382)" xlink:href="#CMR17-41"/>
     <use transform="translate(62.877232 -26.578082)scale(0.697382)" xlink:href="#CMR17-50"/>
    </g>
   </g>
   <g id="text_8">
    <!-- $P^{(2)}_0$ -->
    <g style="fill:#2ca02c;" transform="translate(110.692291 208.800594)scale(0.12 -0.12)">
     <use transform="scale(0.996264)" xlink:href="#CMMI12-80"/>
     <use transform="translate(76.425821 51.691943)scale(0.697382)" xlink:href="#CMR17-40"/>
     <use transform="translate(101.122241 51.691943)scale(0.697382)" xlink:href="#CMR17-50"/>
     <use transform="translate(133.105423 51.691943)scale(0.697382)" xlink:href="#CMR17-41"/>
     <use transform="translate(62.877232 -26.578082)scale(0.697382)" xlink:href="#CMR17-48"/>
    </g>
   </g>
   <g id="text_9">
    <!-- $P^{(2)}_1$ -->
    <g style="fill:#2ca02c;" transform="translate(213.221108 164.767165)scale(0.12 -0.12)">
     <use transform="scale(0.996264)" xlink:href="#CMMI12-80"/>
     <use transform="translate(76.425821 51.691943)scale(0.697382)" xlink:href="#CMR17-40"/>
     <use transform="translate(101.122241 51.691943)scale(0.697382)" xlink:href="#CMR17-50"/>
     <use transform="translate(133.105423 51.691943)scale(0.697382)" xlink:href="#CMR17-41"/>
     <use transform="translate(62.877232 -26.578082)scale(0.697382)" xlink:href="#CMR17-49"/>
    </g>
   </g>
   <g id="text_10">
    <!-- $P^{(3)}_0$ -->
    <g style="fill:#d62728;" transform="translate(164.438976 158.097396)scale(0.12 -0.12)">
     <use transform="scale(0.996264)" xlink:href="#CMMI12-80"/>
     <use transform="translate(76.425821 51.691943)scale(0.697382)" xlink:href="#CMR17-40"/>
     <use transform="translate(101.122241 51.691943)scale(0.697382)" xlink:href="#CMR17-51"/>
     <use transform="translate(133.105423 51.691943)scale(0.697382)" xlink:href="#CMR17-41"/>
     <use transform="translate(62.877232 -26.578082)scale(0.697382)" xlink:href="#CMR17-48"/>
    </g>
   </g>
  </g>
 </g>
 <defs>
  <clipPath id="p70c4e4f2be">
   <rect height="213.69164" width="249.306913" x="19.346543" y="37.15418"/>
  </clipPath>
 </defs>
</svg>
