<?xml version="1.0" encoding="utf-8" standalone="no"?>
<!DOCTYPE svg PUBLIC "-//W3C//DTD SVG 1.1//EN"
  "http://www.w3.org/Graphics/SVG/1.1/DTD/svg11.dtd">
<!-- Created with matplotlib (https://matplotlib.org/) -->
<svg height="288pt" version="1.1" viewBox="0 0 576 288" width="576pt" xmlns="http://www.w3.org/2000/svg" xmlns:xlink="http://www.w3.org/1999/xlink">
 <metadata>
  <rdf:RDF xmlns:cc="http://creativecommons.org/ns#" xmlns:dc="http://purl.org/dc/elements/1.1/" xmlns:rdf="http://www.w3.org/1999/02/22-rdf-syntax-ns#">
   <cc:Work>
    <dc:type rdf:resource="http://purl.org/dc/dcmitype/StillImage"/>
    <dc:date>2022-07-17T13:37:50.651002</dc:date>
    <dc:format>image/svg+xml</dc:format>
    <dc:creator>
     <cc:Agent>
      <dc:title>Matplotlib v3.3.3, https://matplotlib.org/</dc:title>
     </cc:Agent>
    </dc:creator>
   </cc:Work>
  </rdf:RDF>
 </metadata>
 <defs>
  <style type="text/css">*{stroke-linecap:butt;stroke-linejoin:round;}</style>
 </defs>
 <g id="figure_1">
  <g id="patch_1">
   <path d="M 0 288 
L 576 288 
L 576 0 
L 0 0 
z
" style="fill:#ffffff;"/>
  </g>
  <g id="axes_1">
   <g id="line2d_1">
    <path clip-path="url(#p2de4c9b93c)" d="M 144 246.24 
L 144 44.64 
" style="fill:none;stroke:#1f77b4;stroke-linecap:square;stroke-width:1.5;"/>
    <defs>
     <path d="M 0 1.5 
C 0.397805 1.5 0.77937 1.341951 1.06066 1.06066 
C 1.341951 0.77937 1.5 0.397805 1.5 0 
C 1.5 -0.397805 1.341951 -0.77937 1.06066 -1.06066 
C 0.77937 -1.341951 0.397805 -1.5 0 -1.5 
C -0.397805 -1.5 -0.77937 -1.341951 -1.06066 -1.06066 
C -1.341951 -0.77937 -1.5 -0.397805 -1.5 0 
C -1.5 0.397805 -1.341951 0.77937 -1.06066 1.06066 
C -0.77937 1.341951 -0.397805 1.5 0 1.5 
z
" id="mf8d30d95ae" style="stroke:#1f77b4;"/>
    </defs>
    <g clip-path="url(#p2de4c9b93c)">
     <use style="fill:#1f77b4;stroke:#1f77b4;" x="144" xlink:href="#mf8d30d95ae" y="246.24"/>
     <use style="fill:#1f77b4;stroke:#1f77b4;" x="144" xlink:href="#mf8d30d95ae" y="44.64"/>
    </g>
   </g>
   <g id="line2d_2">
    <defs>
     <path d="M 0 3 
C 0.795609 3 1.55874 2.683901 2.12132 2.12132 
C 2.683901 1.55874 3 0.795609 3 0 
C 3 -0.795609 2.683901 -1.55874 2.12132 -2.12132 
C 1.55874 -2.683901 0.795609 -3 0 -3 
C -0.795609 -3 -1.55874 -2.683901 -2.12132 -2.12132 
C -2.683901 -1.55874 -3 -0.795609 -3 0 
C -3 0.795609 -2.683901 1.55874 -2.12132 2.12132 
C -1.55874 2.683901 -0.795609 3 0 3 
z
" id="m780b8104c2" style="stroke:#d62728;"/>
    </defs>
    <g clip-path="url(#p2de4c9b93c)">
     <use style="fill:#d62728;stroke:#d62728;" x="144" xlink:href="#m780b8104c2" y="145.44"/>
    </g>
   </g>
   <g id="line2d_3">
    <path clip-path="url(#p2de4c9b93c)" d="M 194.4 246.24 
L 244.8 44.64 
L 295.2 246.24 
" style="fill:none;stroke:#1f77b4;stroke-linecap:square;stroke-width:1.5;"/>
    <g clip-path="url(#p2de4c9b93c)">
     <use style="fill:#1f77b4;stroke:#1f77b4;" x="194.4" xlink:href="#mf8d30d95ae" y="246.24"/>
     <use style="fill:#1f77b4;stroke:#1f77b4;" x="244.8" xlink:href="#mf8d30d95ae" y="44.64"/>
     <use style="fill:#1f77b4;stroke:#1f77b4;" x="295.2" xlink:href="#mf8d30d95ae" y="246.24"/>
    </g>
   </g>
   <g id="line2d_4">
    <path clip-path="url(#p2de4c9b93c)" d="M 214.56 165.6 
L 264.96 125.28 
" style="fill:none;stroke:#ff7f0e;stroke-linecap:square;stroke-width:1.5;"/>
    <defs>
     <path d="M 0 1.5 
C 0.397805 1.5 0.77937 1.341951 1.06066 1.06066 
C 1.341951 0.77937 1.5 0.397805 1.5 0 
C 1.5 -0.397805 1.341951 -0.77937 1.06066 -1.06066 
C 0.77937 -1.341951 0.397805 -1.5 0 -1.5 
C -0.397805 -1.5 -0.77937 -1.341951 -1.06066 -1.06066 
C -1.341951 -0.77937 -1.5 -0.397805 -1.5 0 
C -1.5 0.397805 -1.341951 0.77937 -1.06066 1.06066 
C -0.77937 1.341951 -0.397805 1.5 0 1.5 
z
" id="m488cb478e2" style="stroke:#ff7f0e;"/>
    </defs>
    <g clip-path="url(#p2de4c9b93c)">
     <use style="fill:#ff7f0e;stroke:#ff7f0e;" x="214.56" xlink:href="#m488cb478e2" y="165.6"/>
     <use style="fill:#ff7f0e;stroke:#ff7f0e;" x="264.96" xlink:href="#m488cb478e2" y="125.28"/>
    </g>
   </g>
   <g id="line2d_5">
    <g clip-path="url(#p2de4c9b93c)">
     <use style="fill:#d62728;stroke:#d62728;" x="234.72" xlink:href="#m780b8104c2" y="149.472"/>
    </g>
   </g>
   <g id="line2d_6">
    <defs>
     <path d="M 0 1.5 
C 0.397805 1.5 0.77937 1.341951 1.06066 1.06066 
C 1.341951 0.77937 1.5 0.397805 1.5 0 
C 1.5 -0.397805 1.341951 -0.77937 1.06066 -1.06066 
C 0.77937 -1.341951 0.397805 -1.5 0 -1.5 
C -0.397805 -1.5 -0.77937 -1.341951 -1.06066 -1.06066 
C -1.341951 -0.77937 -1.5 -0.397805 -1.5 0 
C -1.5 0.397805 -1.341951 0.77937 -1.06066 1.06066 
C -0.77937 1.341951 -0.397805 1.5 0 1.5 
z
" id="maabcea4fc4" style="stroke:#d62728;"/>
    </defs>
    <g clip-path="url(#p2de4c9b93c)">
     <use style="fill:#d62728;stroke:#d62728;" x="204.48" xlink:href="#maabcea4fc4" y="209.952"/>
    </g>
   </g>
   <g id="line2d_7">
    <g clip-path="url(#p2de4c9b93c)">
     <use style="fill:#d62728;stroke:#d62728;" x="208.724211" xlink:href="#maabcea4fc4" y="197.085341"/>
    </g>
   </g>
   <g id="line2d_8">
    <g clip-path="url(#p2de4c9b93c)">
     <use style="fill:#d62728;stroke:#d62728;" x="212.968421" xlink:href="#maabcea4fc4" y="185.64831"/>
    </g>
   </g>
   <g id="line2d_9">
    <g clip-path="url(#p2de4c9b93c)">
     <use style="fill:#d62728;stroke:#d62728;" x="217.212632" xlink:href="#maabcea4fc4" y="175.640909"/>
    </g>
   </g>
   <g id="line2d_10">
    <g clip-path="url(#p2de4c9b93c)">
     <use style="fill:#d62728;stroke:#d62728;" x="221.456842" xlink:href="#maabcea4fc4" y="167.063136"/>
    </g>
   </g>
   <g id="line2d_11">
    <g clip-path="url(#p2de4c9b93c)">
     <use style="fill:#d62728;stroke:#d62728;" x="225.701053" xlink:href="#maabcea4fc4" y="159.914992"/>
    </g>
   </g>
   <g id="line2d_12">
    <g clip-path="url(#p2de4c9b93c)">
     <use style="fill:#d62728;stroke:#d62728;" x="229.945263" xlink:href="#maabcea4fc4" y="154.196476"/>
    </g>
   </g>
   <g id="line2d_13">
    <g clip-path="url(#p2de4c9b93c)">
     <use style="fill:#d62728;stroke:#d62728;" x="234.189474" xlink:href="#maabcea4fc4" y="149.90759"/>
    </g>
   </g>
   <g id="line2d_14">
    <g clip-path="url(#p2de4c9b93c)">
     <use style="fill:#d62728;stroke:#d62728;" x="238.433684" xlink:href="#maabcea4fc4" y="147.048332"/>
    </g>
   </g>
   <g id="line2d_15">
    <g clip-path="url(#p2de4c9b93c)">
     <use style="fill:#d62728;stroke:#d62728;" x="242.677895" xlink:href="#maabcea4fc4" y="145.618704"/>
    </g>
   </g>
   <g id="line2d_16">
    <g clip-path="url(#p2de4c9b93c)">
     <use style="fill:#d62728;stroke:#d62728;" x="246.922105" xlink:href="#maabcea4fc4" y="145.618704"/>
    </g>
   </g>
   <g id="line2d_17">
    <g clip-path="url(#p2de4c9b93c)">
     <use style="fill:#d62728;stroke:#d62728;" x="251.166316" xlink:href="#maabcea4fc4" y="147.048332"/>
    </g>
   </g>
   <g id="line2d_18">
    <g clip-path="url(#p2de4c9b93c)">
     <use style="fill:#d62728;stroke:#d62728;" x="255.410526" xlink:href="#maabcea4fc4" y="149.90759"/>
    </g>
   </g>
   <g id="line2d_19">
    <g clip-path="url(#p2de4c9b93c)">
     <use style="fill:#d62728;stroke:#d62728;" x="259.654737" xlink:href="#maabcea4fc4" y="154.196476"/>
    </g>
   </g>
   <g id="line2d_20">
    <g clip-path="url(#p2de4c9b93c)">
     <use style="fill:#d62728;stroke:#d62728;" x="263.898947" xlink:href="#maabcea4fc4" y="159.914992"/>
    </g>
   </g>
   <g id="line2d_21">
    <g clip-path="url(#p2de4c9b93c)">
     <use style="fill:#d62728;stroke:#d62728;" x="268.143158" xlink:href="#maabcea4fc4" y="167.063136"/>
    </g>
   </g>
   <g id="line2d_22">
    <g clip-path="url(#p2de4c9b93c)">
     <use style="fill:#d62728;stroke:#d62728;" x="272.387368" xlink:href="#maabcea4fc4" y="175.640909"/>
    </g>
   </g>
   <g id="line2d_23">
    <g clip-path="url(#p2de4c9b93c)">
     <use style="fill:#d62728;stroke:#d62728;" x="276.631579" xlink:href="#maabcea4fc4" y="185.64831"/>
    </g>
   </g>
   <g id="line2d_24">
    <g clip-path="url(#p2de4c9b93c)">
     <use style="fill:#d62728;stroke:#d62728;" x="280.875789" xlink:href="#maabcea4fc4" y="197.085341"/>
    </g>
   </g>
   <g id="line2d_25">
    <g clip-path="url(#p2de4c9b93c)">
     <use style="fill:#d62728;stroke:#d62728;" x="285.12" xlink:href="#maabcea4fc4" y="209.952"/>
    </g>
   </g>
   <g id="line2d_26">
    <path clip-path="url(#p2de4c9b93c)" d="M 295.2 44.64 
L 345.6 246.24 
L 396 246.24 
L 446.4 44.64 
" style="fill:none;stroke:#1f77b4;stroke-linecap:square;stroke-width:1.5;"/>
    <g clip-path="url(#p2de4c9b93c)">
     <use style="fill:#1f77b4;stroke:#1f77b4;" x="295.2" xlink:href="#mf8d30d95ae" y="44.64"/>
     <use style="fill:#1f77b4;stroke:#1f77b4;" x="345.6" xlink:href="#mf8d30d95ae" y="246.24"/>
     <use style="fill:#1f77b4;stroke:#1f77b4;" x="396" xlink:href="#mf8d30d95ae" y="246.24"/>
     <use style="fill:#1f77b4;stroke:#1f77b4;" x="446.4" xlink:href="#mf8d30d95ae" y="44.64"/>
    </g>
   </g>
   <g id="line2d_27">
    <path clip-path="url(#p2de4c9b93c)" d="M 325.44 165.6 
L 375.84 246.24 
L 426.24 125.28 
" style="fill:none;stroke:#ff7f0e;stroke-linecap:square;stroke-width:1.5;"/>
    <g clip-path="url(#p2de4c9b93c)">
     <use style="fill:#ff7f0e;stroke:#ff7f0e;" x="325.44" xlink:href="#m488cb478e2" y="165.6"/>
     <use style="fill:#ff7f0e;stroke:#ff7f0e;" x="375.84" xlink:href="#m488cb478e2" y="246.24"/>
     <use style="fill:#ff7f0e;stroke:#ff7f0e;" x="426.24" xlink:href="#m488cb478e2" y="125.28"/>
    </g>
   </g>
   <g id="line2d_28">
    <path clip-path="url(#p2de4c9b93c)" d="M 355.68 213.984 
L 406.08 173.664 
" style="fill:none;stroke:#2ca02c;stroke-linecap:square;stroke-width:1.5;"/>
    <defs>
     <path d="M 0 1.5 
C 0.397805 1.5 0.77937 1.341951 1.06066 1.06066 
C 1.341951 0.77937 1.5 0.397805 1.5 0 
C 1.5 -0.397805 1.341951 -0.77937 1.06066 -1.06066 
C 0.77937 -1.341951 0.397805 -1.5 0 -1.5 
C -0.397805 -1.5 -0.77937 -1.341951 -1.06066 -1.06066 
C -1.341951 -0.77937 -1.5 -0.397805 -1.5 0 
C -1.5 0.397805 -1.341951 0.77937 -1.06066 1.06066 
C -0.77937 1.341951 -0.397805 1.5 0 1.5 
z
" id="m814330b66a" style="stroke:#2ca02c;"/>
    </defs>
    <g clip-path="url(#p2de4c9b93c)">
     <use style="fill:#2ca02c;stroke:#2ca02c;" x="355.68" xlink:href="#m814330b66a" y="213.984"/>
     <use style="fill:#2ca02c;stroke:#2ca02c;" x="406.08" xlink:href="#m814330b66a" y="173.664"/>
    </g>
   </g>
   <g id="line2d_29">
    <g clip-path="url(#p2de4c9b93c)">
     <use style="fill:#d62728;stroke:#d62728;" x="385.92" xlink:href="#m780b8104c2" y="189.792"/>
    </g>
   </g>
   <g id="line2d_30">
    <g clip-path="url(#p2de4c9b93c)">
     <use style="fill:#d62728;stroke:#d62728;" x="310.32" xlink:href="#maabcea4fc4" y="99.072"/>
    </g>
   </g>
   <g id="line2d_31">
    <g clip-path="url(#p2de4c9b93c)">
     <use style="fill:#d62728;stroke:#d62728;" x="316.686316" xlink:href="#maabcea4fc4" y="118.371989"/>
    </g>
   </g>
   <g id="line2d_32">
    <g clip-path="url(#p2de4c9b93c)">
     <use style="fill:#d62728;stroke:#d62728;" x="323.052632" xlink:href="#maabcea4fc4" y="135.527535"/>
    </g>
   </g>
   <g id="line2d_33">
    <g clip-path="url(#p2de4c9b93c)">
     <use style="fill:#d62728;stroke:#d62728;" x="329.418947" xlink:href="#maabcea4fc4" y="150.538637"/>
    </g>
   </g>
   <g id="line2d_34">
    <g clip-path="url(#p2de4c9b93c)">
     <use style="fill:#d62728;stroke:#d62728;" x="335.785263" xlink:href="#maabcea4fc4" y="163.405296"/>
    </g>
   </g>
   <g id="line2d_35">
    <g clip-path="url(#p2de4c9b93c)">
     <use style="fill:#d62728;stroke:#d62728;" x="342.151579" xlink:href="#maabcea4fc4" y="174.127512"/>
    </g>
   </g>
   <g id="line2d_36">
    <g clip-path="url(#p2de4c9b93c)">
     <use style="fill:#d62728;stroke:#d62728;" x="348.517895" xlink:href="#maabcea4fc4" y="182.705285"/>
    </g>
   </g>
   <g id="line2d_37">
    <g clip-path="url(#p2de4c9b93c)">
     <use style="fill:#d62728;stroke:#d62728;" x="354.884211" xlink:href="#maabcea4fc4" y="189.138615"/>
    </g>
   </g>
   <g id="line2d_38">
    <g clip-path="url(#p2de4c9b93c)">
     <use style="fill:#d62728;stroke:#d62728;" x="361.250526" xlink:href="#maabcea4fc4" y="193.427501"/>
    </g>
   </g>
   <g id="line2d_39">
    <g clip-path="url(#p2de4c9b93c)">
     <use style="fill:#d62728;stroke:#d62728;" x="367.616842" xlink:href="#maabcea4fc4" y="195.571945"/>
    </g>
   </g>
   <g id="line2d_40">
    <g clip-path="url(#p2de4c9b93c)">
     <use style="fill:#d62728;stroke:#d62728;" x="373.983158" xlink:href="#maabcea4fc4" y="195.571945"/>
    </g>
   </g>
   <g id="line2d_41">
    <g clip-path="url(#p2de4c9b93c)">
     <use style="fill:#d62728;stroke:#d62728;" x="380.349474" xlink:href="#maabcea4fc4" y="193.427501"/>
    </g>
   </g>
   <g id="line2d_42">
    <g clip-path="url(#p2de4c9b93c)">
     <use style="fill:#d62728;stroke:#d62728;" x="386.715789" xlink:href="#maabcea4fc4" y="189.138615"/>
    </g>
   </g>
   <g id="line2d_43">
    <g clip-path="url(#p2de4c9b93c)">
     <use style="fill:#d62728;stroke:#d62728;" x="393.082105" xlink:href="#maabcea4fc4" y="182.705285"/>
    </g>
   </g>
   <g id="line2d_44">
    <g clip-path="url(#p2de4c9b93c)">
     <use style="fill:#d62728;stroke:#d62728;" x="399.448421" xlink:href="#maabcea4fc4" y="174.127512"/>
    </g>
   </g>
   <g id="line2d_45">
    <g clip-path="url(#p2de4c9b93c)">
     <use style="fill:#d62728;stroke:#d62728;" x="405.814737" xlink:href="#maabcea4fc4" y="163.405296"/>
    </g>
   </g>
   <g id="line2d_46">
    <g clip-path="url(#p2de4c9b93c)">
     <use style="fill:#d62728;stroke:#d62728;" x="412.181053" xlink:href="#maabcea4fc4" y="150.538637"/>
    </g>
   </g>
   <g id="line2d_47">
    <g clip-path="url(#p2de4c9b93c)">
     <use style="fill:#d62728;stroke:#d62728;" x="418.547368" xlink:href="#maabcea4fc4" y="135.527535"/>
    </g>
   </g>
   <g id="line2d_48">
    <g clip-path="url(#p2de4c9b93c)">
     <use style="fill:#d62728;stroke:#d62728;" x="424.913684" xlink:href="#maabcea4fc4" y="118.371989"/>
    </g>
   </g>
   <g id="line2d_49">
    <g clip-path="url(#p2de4c9b93c)">
     <use style="fill:#d62728;stroke:#d62728;" x="431.28" xlink:href="#maabcea4fc4" y="99.072"/>
    </g>
   </g>
   <g id="text_1">
    <!-- $t_1 = 0.5$ -->
    <g transform="translate(154.08 145.44)scale(0.1 -0.1)">
     <defs>
      <path d="M 20.09375 40.09375 
L 29.296875 40.09375 
C 31.203125 40.09375 32.203125 40.09375 32.203125 41.890625 
C 32.203125 43 31.59375 43 29.59375 43 
L 20.796875 43 
L 24.5 57.6875 
C 24.90625 59.078125 24.90625 59.28125 24.90625 60 
C 24.90625 61.609375 23.59375 62.5 22.296875 62.5 
C 21.5 62.5 19.203125 62.203125 18.40625 58.984375 
L 14.5 43 
L 5.09375 43 
C 3.09375 43 2.203125 43 2.203125 41.09375 
C 2.203125 40.09375 2.90625 40.09375 4.796875 40.09375 
L 13.703125 40.09375 
L 7.09375 13.765625 
C 6.296875 10.28125 6 9.28125 6 7.984375 
C 6 3.296875 9.296875 -1 14.90625 -1 
C 25 -1 30.40625 13.5625 30.40625 14.25 
C 30.40625 14.859375 30 15.15625 29.40625 15.15625 
C 29.203125 15.15625 28.796875 15.15625 28.59375 14.75 
C 28.5 14.65625 28.40625 14.546875 27.703125 12.953125 
C 25.59375 7.984375 21 1 15.203125 1 
C 12.203125 1 12 3.5 12 5.6875 
C 12 5.78125 12 7.6875 12.296875 8.875 
z
" id="CMMI12-116"/>
      <path d="M 26.59375 63.40625 
C 26.59375 65.5 26.5 65.5 25.09375 65.5 
C 21.203125 61.1875 15.296875 59.796875 9.703125 59.796875 
C 9.40625 59.796875 8.90625 59.796875 8.796875 59.5 
C 8.703125 59.296875 8.703125 59.09375 8.703125 57 
C 11.796875 57 17 57.59375 21 59.984375 
L 21 7.203125 
C 21 3.6875 20.796875 2.5 12.203125 2.5 
L 9.203125 2.5 
L 9.203125 0 
C 14 0 19 0 23.796875 0 
C 28.59375 0 33.59375 0 38.40625 0 
L 38.40625 2.5 
L 35.40625 2.5 
C 26.796875 2.5 26.59375 3.59375 26.59375 7.15625 
z
" id="CMR17-49"/>
      <path d="M 64.296875 31.515625 
C 65.796875 31.515625 67.296875 31.515625 67.296875 33.203125 
C 67.296875 35 65.59375 35 63.90625 35 
L 8 35 
C 6.296875 35 4.59375 35 4.59375 33.203125 
C 4.59375 31.515625 6.09375 31.515625 7.59375 31.515625 
z
M 63.90625 14 
C 65.59375 14 67.296875 14 67.296875 15.796875 
C 67.296875 17.484375 65.796875 17.484375 64.296875 17.484375 
L 7.59375 17.484375 
C 6.09375 17.484375 4.59375 17.484375 4.59375 15.796875 
C 4.59375 14 6.296875 14 8 14 
z
" id="CMR17-61"/>
      <path d="M 42 31.640625 
C 42 37.75 41.90625 48.125 37.703125 56.109375 
C 34 63.109375 28.09375 65.59375 22.90625 65.59375 
C 18.09375 65.59375 12 63.40625 8.203125 56.203125 
C 4.203125 48.71875 3.796875 39.4375 3.796875 31.640625 
C 3.796875 25.953125 3.90625 17.28125 7 9.671875 
C 11.296875 -0.609375 19 -2 22.90625 -2 
C 27.5 -2 34.5 -0.109375 38.59375 9.375 
C 41.59375 16.28125 42 24.359375 42 31.640625 
z
M 22.90625 -0.40625 
C 16.5 -0.40625 12.703125 5.078125 11.296875 12.6875 
C 10.203125 18.5625 10.203125 27.15625 10.203125 32.75 
C 10.203125 40.4375 10.203125 46.828125 11.5 52.921875 
C 13.40625 61.390625 19 64 22.90625 64 
C 27 64 32.296875 61.296875 34.203125 53.125 
C 35.5 47.4375 35.59375 40.734375 35.59375 32.75 
C 35.59375 26.25 35.59375 18.265625 34.40625 12.375 
C 32.296875 1.484375 26.40625 -0.40625 22.90625 -0.40625 
z
" id="CMR17-48"/>
      <path d="M 18.40625 4.796875 
C 18.40625 7.6875 16 9.671875 13.59375 9.671875 
C 10.703125 9.671875 8.703125 7.28125 8.703125 4.890625 
C 8.703125 2 11.09375 0 13.5 0 
C 16.40625 0 18.40625 2.390625 18.40625 4.796875 
z
" id="CMMI12-58"/>
      <path d="M 11.40625 57.6875 
C 12.40625 57.28125 16.5 56 20.703125 56 
C 30 56 35.09375 61.109375 38 64.0625 
C 38 64.953125 38 65.5 37.40625 65.5 
C 37.296875 65.5 37.09375 65.5 36.296875 65.046875 
C 32.796875 63.40625 28.703125 62.078125 23.703125 62.078125 
C 20.703125 62.078125 16.203125 62.484375 11.296875 64.671875 
C 10.203125 65.171875 10 65.171875 9.90625 65.171875 
C 9.40625 65.171875 9.296875 65.0625 9.296875 63.078125 
L 9.296875 34.421875 
C 9.296875 32.640625 9.296875 32.140625 10.296875 32.140625 
C 10.796875 32.140625 11 32.34375 11.5 33.03125 
C 14.703125 37.515625 19.09375 39.40625 24.09375 39.40625 
C 27.59375 39.40625 35.09375 37.21875 35.09375 20.140625 
C 35.09375 16.953125 35.09375 11.171875 32.09375 6.578125 
C 29.59375 2.484375 25.703125 0.390625 21.40625 0.390625 
C 14.796875 0.390625 8.09375 5 6.296875 12.71875 
C 6.703125 12.609375 7.5 12.421875 7.90625 12.421875 
C 9.203125 12.421875 11.703125 13.125 11.703125 16.21875 
C 11.703125 18.90625 9.796875 20 7.90625 20 
C 5.59375 20 4.09375 18.59375 4.09375 15.796875 
C 4.09375 7.09375 11 -2 21.59375 -2 
C 31.90625 -2 41.703125 6.875 41.703125 19.75 
C 41.703125 31.71875 33.90625 41 24.203125 41 
C 19.09375 41 14.796875 39.109375 11.40625 35.53125 
z
" id="CMR17-53"/>
     </defs>
     <use transform="scale(0.996264)" xlink:href="#CMMI12-116"/>
     <use transform="translate(35.22633 -14.943915)scale(0.697382)" xlink:href="#CMR17-49"/>
     <use transform="translate(95.381653 0)scale(0.996264)" xlink:href="#CMR17-61"/>
     <use transform="translate(194.77045 0)scale(0.996264)" xlink:href="#CMR17-48"/>
     <use transform="translate(240.460927 0)scale(0.996264)" xlink:href="#CMMI12-58"/>
     <use transform="translate(267.558104 0)scale(0.996264)" xlink:href="#CMR17-53"/>
    </g>
   </g>
   <g id="text_2">
    <!-- $t_2 = 0.4$ -->
    <g transform="translate(226.656 185.76)scale(0.1 -0.1)">
     <defs>
      <path d="M 41.703125 15.453125 
L 39.90625 15.453125 
C 38.90625 8.375 38.09375 7.171875 37.703125 6.5625 
C 37.203125 5.765625 30 5.765625 28.59375 5.765625 
L 9.40625 5.765625 
C 13 9.671875 20 16.75 28.5 24.953125 
C 34.59375 30.734375 41.703125 37.53125 41.703125 47.421875 
C 41.703125 59.21875 32.296875 66 21.796875 66 
C 10.796875 66 4.09375 56.3125 4.09375 47.34375 
C 4.09375 43.4375 7 42.9375 8.203125 42.9375 
C 9.203125 42.9375 12.203125 43.546875 12.203125 47.03125 
C 12.203125 50.109375 9.59375 51 8.203125 51 
C 7.59375 51 7 50.90625 6.59375 50.703125 
C 8.5 59.21875 14.296875 63.40625 20.40625 63.40625 
C 29.09375 63.40625 34.796875 56.515625 34.796875 47.421875 
C 34.796875 38.734375 29.703125 31.25 24 24.75 
L 4.09375 2.28125 
L 4.09375 0 
L 39.296875 0 
z
" id="CMR17-50"/>
      <path d="M 33.59375 64.40625 
C 33.59375 66.5 33.5 66.5 31.703125 66.5 
L 2 19.59375 
L 2 17 
L 27.796875 17 
L 27.796875 7.140625 
C 27.796875 3.5 27.59375 2.5 20.59375 2.5 
L 18.703125 2.5 
L 18.703125 0 
C 21.90625 0 27.296875 0 30.703125 0 
C 34.09375 0 39.5 0 42.703125 0 
L 42.703125 2.5 
L 40.796875 2.5 
C 33.796875 2.5 33.59375 3.5 33.59375 7.140625 
L 33.59375 17 
L 43.796875 17 
L 43.796875 19.59375 
L 33.59375 19.59375 
z
M 28.09375 57.859375 
L 28.09375 19.59375 
L 4 19.59375 
z
" id="CMR17-52"/>
     </defs>
     <use transform="scale(0.996264)" xlink:href="#CMMI12-116"/>
     <use transform="translate(35.22633 -14.943915)scale(0.697382)" xlink:href="#CMR17-50"/>
     <use transform="translate(95.381653 0)scale(0.996264)" xlink:href="#CMR17-61"/>
     <use transform="translate(194.77045 0)scale(0.996264)" xlink:href="#CMR17-48"/>
     <use transform="translate(240.460927 0)scale(0.996264)" xlink:href="#CMMI12-58"/>
     <use transform="translate(267.558104 0)scale(0.996264)" xlink:href="#CMR17-52"/>
    </g>
   </g>
   <g id="text_3">
    <!-- $t_3 = 0.6$ -->
    <g transform="translate(355.68 165.6)scale(0.1 -0.1)">
     <defs>
      <path d="M 22.09375 33.703125 
C 31 33.703125 34.90625 25.96875 34.90625 17.03125 
C 34.90625 5 28.5 0.390625 22.703125 0.390625 
C 17.40625 0.390625 8.796875 3.03125 6.09375 10.828125 
C 6.59375 10.625 7.09375 10.625 7.59375 10.625 
C 10 10.625 11.796875 12.21875 11.796875 14.8125 
C 11.796875 17.703125 9.59375 19 7.59375 19 
C 5.90625 19 3.296875 18.203125 3.296875 14.46875 
C 3.296875 5.234375 12.296875 -2 22.90625 -2 
C 34 -2 42.5 6.71875 42.5 16.953125 
C 42.5 26.671875 34.5 33.703125 25 34.796875 
C 32.59375 36.375 39.90625 43.0625 39.90625 52.015625 
C 39.90625 59.6875 32 65.296875 23 65.296875 
C 13.90625 65.296875 5.90625 59.828125 5.90625 52.015625 
C 5.90625 48.59375 8.5 48 9.796875 48 
C 11.90625 48 13.703125 49.296875 13.703125 51.890625 
C 13.703125 54.46875 11.90625 55.765625 9.796875 55.765625 
C 9.40625 55.765625 8.90625 55.765625 8.5 55.578125 
C 11.40625 61.859375 19.296875 63 22.796875 63 
C 26.296875 63 32.90625 61.328125 32.90625 51.875 
C 32.90625 49.109375 32.5 44.1875 29.09375 39.84375 
C 26.09375 36 22.703125 36 19.40625 35.6875 
C 18.90625 35.6875 16.59375 35.453125 16.203125 35.453125 
C 15.5 35.359375 15.09375 35.265625 15.09375 34.5 
C 15.09375 33.796875 15.203125 33.703125 17.203125 33.703125 
z
" id="CMR17-51"/>
      <path d="M 10.59375 34 
C 10.59375 57.65625 21.796875 63 28.296875 63 
C 30.40625 63 35.5 62.640625 37.5 59 
C 35.90625 59 32.90625 59 32.90625 55.515625 
C 32.90625 52.828125 35.09375 51.921875 36.5 51.921875 
C 37.40625 51.921875 40.09375 52.3125 40.09375 55.625 
C 40.09375 61.78125 35.09375 65.296875 28.203125 65.296875 
C 16.296875 65.296875 3.796875 52.96875 3.796875 31 
C 3.796875 3.953125 15.09375 -2 23.09375 -2 
C 32.796875 -2 42 6.671875 42 20.046875 
C 42 32.515625 33.90625 41.59375 23.703125 41.59375 
C 17.59375 41.59375 13.09375 37.609375 10.59375 30.625 
z
M 23.09375 0.390625 
C 10.796875 0.390625 10.796875 18.75 10.796875 22.4375 
C 10.796875 29.625 14.203125 40 23.5 40 
C 25.203125 40 30.09375 40 33.40625 33.125 
C 35.203125 29.21875 35.203125 25.140625 35.203125 20.140625 
C 35.203125 14.75 35.203125 10.78125 33.09375 6.78125 
C 30.90625 2.671875 27.703125 0.390625 23.09375 0.390625 
z
" id="CMR17-54"/>
     </defs>
     <use transform="scale(0.996264)" xlink:href="#CMMI12-116"/>
     <use transform="translate(35.22633 -14.943915)scale(0.697382)" xlink:href="#CMR17-51"/>
     <use transform="translate(95.381653 0)scale(0.996264)" xlink:href="#CMR17-61"/>
     <use transform="translate(194.77045 0)scale(0.996264)" xlink:href="#CMR17-48"/>
     <use transform="translate(240.460927 0)scale(0.996264)" xlink:href="#CMMI12-58"/>
     <use transform="translate(267.558104 0)scale(0.996264)" xlink:href="#CMR17-54"/>
    </g>
   </g>
  </g>
 </g>
 <defs>
  <clipPath id="p2de4c9b93c">
   <rect height="221.76" width="332.64" x="128.88" y="34.56"/>
  </clipPath>
 </defs>
</svg>
