<?xml version="1.0" encoding="utf-8" standalone="no"?>
<!DOCTYPE svg PUBLIC "-//W3C//DTD SVG 1.1//EN"
  "http://www.w3.org/Graphics/SVG/1.1/DTD/svg11.dtd">
<!-- Created with matplotlib (https://matplotlib.org/) -->
<svg height="360pt" version="1.1" viewBox="0 0 360 360" width="360pt" xmlns="http://www.w3.org/2000/svg" xmlns:xlink="http://www.w3.org/1999/xlink">
 <metadata>
  <rdf:RDF xmlns:cc="http://creativecommons.org/ns#" xmlns:dc="http://purl.org/dc/elements/1.1/" xmlns:rdf="http://www.w3.org/1999/02/22-rdf-syntax-ns#">
   <cc:Work>
    <dc:type rdf:resource="http://purl.org/dc/dcmitype/StillImage"/>
    <dc:date>2022-10-06T08:30:25.796916</dc:date>
    <dc:format>image/svg+xml</dc:format>
    <dc:creator>
     <cc:Agent>
      <dc:title>Matplotlib v3.3.3, https://matplotlib.org/</dc:title>
     </cc:Agent>
    </dc:creator>
   </cc:Work>
  </rdf:RDF>
 </metadata>
 <defs>
  <style type="text/css">*{stroke-linecap:butt;stroke-linejoin:round;}</style>
 </defs>
 <g id="figure_1">
  <g id="patch_1">
   <path d="M 0 360 
L 360 360 
L 360 0 
L 0 0 
z
" style="fill:#ffffff;"/>
  </g>
  <g id="axes_1">
   <g id="patch_2">
    <path clip-path="url(#p5aa12d428e)" d="M 308.888169 175.761898 
L 301.409165 178.254899 
L 301.409165 176.011198 
L 209.168116 176.011198 
L 209.168116 175.512598 
L 301.409165 175.512598 
L 301.409165 173.268896 
z
" style="fill:#ff7f0e;stroke:#ff7f0e;stroke-linejoin:miter;"/>
   </g>
   <g id="patch_3">
    <path clip-path="url(#p5aa12d428e)" d="M 88.795363 55.389145 
L 95.846636 58.914782 
L 94.2601 60.501318 
L 159.484371 125.725589 
L 159.131807 126.078153 
L 93.907536 60.853882 
L 92.321 62.440418 
z
" style="fill:#1f77b4;stroke:#1f77b4;stroke-linejoin:miter;"/>
   </g>
   <g id="patch_4">
    <path clip-path="url(#p5aa12d428e)" d="M 53.604833 26.181818 
L 56.097834 33.660822 
L 53.854133 33.660822 
L 53.854133 175.761898 
L 53.355533 175.761898 
L 53.355533 33.660822 
L 51.111831 33.660822 
z
" style="fill:#2ca02c;stroke:#2ca02c;stroke-linejoin:miter;"/>
   </g>
   <g id="patch_5">
    <path clip-path="url(#p5aa12d428e)" d="M 53.604833 325.341977 
L 51.111831 317.862973 
L 53.355533 317.862973 
L 53.355533 175.761898 
L 53.854133 175.761898 
L 53.854133 317.862973 
L 56.097834 317.862973 
z
" style="fill:#2ca02c;stroke:#2ca02c;stroke-linejoin:miter;"/>
   </g>
   <g id="patch_6">
    <path clip-path="url(#p5aa12d428e)" d="M 59.588036 331.32518 
L 67.06704 328.832179 
L 67.06704 331.07588 
L 184.238102 331.07588 
L 184.238102 331.574481 
L 67.06704 331.574481 
L 67.06704 333.818182 
z
" style="fill:#2ca02c;stroke:#2ca02c;stroke-linejoin:miter;"/>
   </g>
   <g id="patch_7">
    <path clip-path="url(#p5aa12d428e)" d="M 308.888169 331.32518 
L 301.409165 333.818182 
L 301.409165 331.574481 
L 184.238102 331.574481 
L 184.238102 331.07588 
L 301.409165 331.07588 
L 301.409165 328.832179 
z
" style="fill:#2ca02c;stroke:#2ca02c;stroke-linejoin:miter;"/>
   </g>
   <g id="line2d_1">
    <path clip-path="url(#p5aa12d428e)" d="M 308.888169 175.761898 
L 308.79154 121.512982 
L 308.444722 116.508019 
L 307.84662 111.526834 
L 306.998749 106.582033 
L 305.903254 101.686134 
L 304.562909 96.851529 
L 302.981105 92.090454 
L 301.161847 87.414961 
L 299.10974 82.836883 
L 296.829977 78.36781 
L 294.32833 74.019052 
L 291.611129 69.801617 
L 288.685253 65.72618 
L 285.558108 61.803057 
L 282.237609 58.042177 
L 278.73216 54.453059 
L 275.050634 51.044789 
L 271.20235 47.825993 
L 267.197048 44.804819 
L 263.044867 41.988913 
L 258.756316 39.385403 
L 254.34225 37.000878 
L 249.813842 34.841375 
L 245.182553 32.91236 
L 240.460107 31.218714 
L 235.658456 29.764725 
L 230.789754 28.554073 
L 225.866324 27.589823 
L 220.900629 26.874415 
L 215.905237 26.40966 
L 210.892793 26.196734 
L 209.638504 26.182928 
L 154.762561 26.285471 
L 149.758149 26.640158 
L 144.77791 27.246091 
L 139.834449 28.101737 
L 134.940279 29.204928 
L 130.107787 30.552874 
L 125.349205 32.142161 
L 120.676578 33.968769 
L 116.101733 36.028072 
L 111.63625 38.314859 
L 107.291431 40.823341 
L 103.078274 43.54717 
L 99.007442 46.47945 
L 95.089241 49.61276 
L 91.333586 52.939169 
L 87.749985 56.450257 
L 84.347508 60.137137 
L 81.134767 63.990477 
L 78.119894 68.000524 
L 75.31052 72.157128 
L 72.713756 76.449768 
L 70.336176 80.867578 
L 68.183796 85.399376 
L 66.262064 90.033692 
L 64.575846 94.758796 
L 63.129409 99.562727 
L 61.926414 104.433326 
L 60.969907 109.358266 
L 60.262307 114.32508 
L 59.805407 119.321196 
L 59.600363 124.333969 
L 59.588529 125.588278 
L 59.698959 230.324081 
L 60.061515 235.327928 
L 60.675278 240.307208 
L 61.538695 245.249318 
L 62.649581 250.141748 
L 64.005123 254.972114 
L 65.601891 259.728191 
L 67.435843 264.39794 
L 69.502337 268.969541 
L 71.796143 273.431424 
L 74.311454 277.772293 
L 77.041903 281.981162 
L 79.980581 286.047378 
L 83.120048 289.960648 
L 86.452358 293.711067 
L 89.969076 297.289143 
L 93.661302 300.685819 
L 97.519689 303.892497 
L 101.534471 306.901061 
L 105.695487 309.703896 
L 109.992205 312.293907 
L 114.413748 314.664538 
L 118.948925 316.80979 
L 123.586257 318.724232 
L 128.314006 320.403018 
L 133.120206 321.8419 
L 137.992691 323.037235 
L 142.919128 323.985998 
L 147.887048 324.685787 
L 152.883877 325.13483 
L 157.896966 325.331993 
L 159.151292 325.341854 
L 213.400355 325.252126 
L 218.405857 324.913178 
L 223.387976 324.32291 
L 228.334104 323.482815 
L 233.231719 322.395019 
L 238.068426 321.062277 
L 242.831982 319.487962 
L 247.51033 317.676058 
L 252.091629 315.631152 
L 256.564281 313.358419 
L 260.916967 310.863612 
L 265.138669 308.153046 
L 269.218702 305.233582 
L 273.146738 302.112609 
L 276.912834 298.798027 
L 280.507459 295.298226 
L 283.921514 291.622064 
L 287.146356 287.778846 
L 290.173825 283.7783 
L 292.996256 279.630551 
L 295.606506 275.346099 
L 297.997968 270.935788 
L 300.164589 266.410781 
L 302.100884 261.782531 
L 303.801953 257.062753 
L 305.26349 252.263395 
L 306.481796 247.396602 
L 307.453786 242.474695 
L 308.177002 237.510131 
L 308.649611 232.515476 
L 308.870418 227.503373 
L 308.886196 226.249107 
L 308.888169 175.761898 
L 308.888169 175.761898 
" style="fill:none;stroke:#1f77b4;stroke-linecap:square;stroke-width:1.5;"/>
   </g>
   <g id="line2d_2">
    <path clip-path="url(#p5aa12d428e)" d="M 308.888169 175.761898 
L 308.761966 170.746521 
L 308.383676 165.743838 
L 307.754258 160.766513 
L 306.875303 155.827143 
L 305.749038 150.93823 
L 304.378312 146.112151 
L 302.766595 141.361119 
L 300.917967 136.69716 
L 298.837107 132.13208 
L 296.529281 127.677433 
L 294.000332 123.344495 
L 291.25666 119.144234 
L 288.30521 115.087279 
L 285.153452 111.183901 
L 281.809364 107.44398 
L 278.281411 103.87698 
L 274.578522 100.491933 
L 270.71007 97.297404 
L 266.685846 94.30148 
L 262.516037 91.511745 
L 258.211196 88.935259 
L 253.78222 86.578543 
L 249.240319 84.447564 
L 244.596989 82.547715 
L 239.863984 80.883804 
L 235.053283 79.460044 
L 230.177063 78.280037 
L 225.247667 77.346772 
L 220.277571 76.662609 
L 215.279355 76.229281 
L 210.26567 76.047885 
L 205.249208 76.118879 
L 200.242665 76.442084 
L 195.258713 77.016683 
L 190.309968 77.841219 
L 185.408956 78.913607 
L 180.568082 80.231133 
L 175.799599 81.79046 
L 171.115576 83.587643 
L 166.52787 85.618133 
L 162.048092 87.876789 
L 157.687582 90.357895 
L 153.457377 93.055172 
L 149.368183 95.961791 
L 145.430352 99.070395 
L 141.653851 102.373117 
L 138.048238 105.861597 
L 134.62264 109.527005 
L 131.385727 113.360063 
L 128.345693 117.351068 
L 125.510232 121.489921 
L 122.886521 125.766143 
L 120.481202 130.168912 
L 118.300362 134.687083 
L 116.349522 139.309221 
L 114.633619 144.023626 
L 113.156996 148.818365 
L 111.923392 153.681302 
L 110.935928 158.600128 
L 110.197104 163.562393 
L 109.70879 168.555537 
L 109.472223 173.566921 
L 109.488 178.583861 
L 109.756082 183.593659 
L 110.27579 188.583632 
L 111.045809 193.541153 
L 112.06419 198.453671 
L 113.328355 203.308753 
L 114.835104 208.09411 
L 116.580624 212.79763 
L 118.560497 217.407406 
L 120.76971 221.911772 
L 123.202673 226.299326 
L 125.853227 230.558962 
L 128.714663 234.679899 
L 131.779738 238.651706 
L 135.040694 242.464329 
L 138.489278 246.108119 
L 142.11676 249.573853 
L 145.913959 252.852758 
L 149.871264 255.936534 
L 153.978657 258.817377 
L 158.225743 261.487994 
L 162.601771 263.941627 
L 167.095666 266.172063 
L 171.696052 268.173658 
L 176.391286 269.941346 
L 181.169482 271.470651 
L 186.018547 272.757704 
L 190.926207 273.799246 
L 195.88004 274.592642 
L 200.867506 275.135883 
L 205.875983 275.427593 
L 210.892793 275.467035 
L 215.905237 275.254109 
L 220.900629 274.789354 
L 225.866324 274.073946 
L 230.789754 273.109696 
L 235.658456 271.899044 
L 240.460107 270.445055 
L 245.182553 268.751409 
L 249.813842 266.822394 
L 254.34225 264.662891 
L 258.756316 262.278366 
L 263.044867 259.674856 
L 267.197048 256.85895 
L 271.20235 253.837776 
L 275.050634 250.61898 
L 278.73216 247.21071 
L 282.237609 243.621592 
L 285.558108 239.860712 
L 288.685253 235.937589 
L 291.611129 231.862152 
L 294.32833 227.644717 
L 296.829977 223.295959 
L 299.10974 218.826885 
L 301.161847 214.248808 
L 302.981105 209.573315 
L 304.562909 204.81224 
L 305.903254 199.977635 
L 306.998749 195.081736 
L 307.84662 190.136935 
L 308.444722 185.15575 
L 308.79154 180.150787 
L 308.888169 175.761898 
L 308.888169 175.761898 
" style="fill:none;stroke:#ff7f0e;stroke-linecap:square;stroke-width:1.5;"/>
   </g>
   <g id="line2d_3">
    <defs>
     <path d="M 0 3 
C 0.795609 3 1.55874 2.683901 2.12132 2.12132 
C 2.683901 1.55874 3 0.795609 3 0 
C 3 -0.795609 2.683901 -1.55874 2.12132 -2.12132 
C 1.55874 -2.683901 0.795609 -3 0 -3 
C -0.795609 -3 -1.55874 -2.683901 -2.12132 -2.12132 
C -2.683901 -1.55874 -3 -0.795609 -3 0 
C -3 0.795609 -2.683901 1.55874 -2.12132 2.12132 
C -1.55874 2.683901 -0.795609 3 0 3 
z
" id="mcb7632e352" style="stroke:#ff7f0e;"/>
    </defs>
    <g clip-path="url(#p5aa12d428e)">
     <use style="fill:#ff7f0e;stroke:#ff7f0e;" x="209.168116" xlink:href="#mcb7632e352" y="175.761898"/>
    </g>
   </g>
   <g id="line2d_4">
    <defs>
     <path d="M 0 3 
C 0.795609 3 1.55874 2.683901 2.12132 2.12132 
C 2.683901 1.55874 3 0.795609 3 0 
C 3 -0.795609 2.683901 -1.55874 2.12132 -2.12132 
C 1.55874 -2.683901 0.795609 -3 0 -3 
C -0.795609 -3 -1.55874 -2.683901 -2.12132 -2.12132 
C -2.683901 -1.55874 -3 -0.795609 -3 0 
C -3 0.795609 -2.683901 1.55874 -2.12132 2.12132 
C -1.55874 2.683901 -0.795609 3 0 3 
z
" id="m208ffed19a" style="stroke:#1f77b4;"/>
    </defs>
    <g clip-path="url(#p5aa12d428e)">
     <use style="fill:#1f77b4;stroke:#1f77b4;" x="159.308089" xlink:href="#m208ffed19a" y="125.901871"/>
    </g>
   </g>
   <g id="line2d_5">
    <path clip-path="url(#p5aa12d428e)" d="M 259.028142 125.901871 
L 258.901939 120.886494 
L 258.52365 115.883811 
L 257.894231 110.906486 
L 257.015277 105.967116 
L 255.889011 101.078204 
L 254.518285 96.252124 
L 252.906569 91.501092 
L 251.05794 86.837134 
L 248.97708 82.272053 
L 246.669255 77.817407 
L 244.140305 73.484469 
L 241.396633 69.284207 
L 238.445183 65.227253 
L 235.293425 61.323875 
L 231.949338 57.583953 
L 228.421385 54.016954 
L 224.718496 50.631906 
L 220.850044 47.437377 
L 216.82582 44.441454 
L 212.65601 41.651718 
L 208.351169 39.075232 
L 203.922193 36.718517 
L 199.380292 34.587538 
L 194.736963 32.687688 
L 190.003958 31.023778 
L 185.193257 29.600017 
L 180.317037 28.420011 
L 175.38764 27.486745 
L 170.417544 26.802583 
L 165.419328 26.369255 
L 160.405644 26.187858 
L 155.389181 26.258853 
L 150.382638 26.582058 
L 145.398687 27.156656 
L 140.449942 27.981193 
L 135.54893 29.053581 
L 130.708055 30.371106 
L 125.939572 31.930434 
L 121.255549 33.727617 
L 116.667843 35.758106 
L 112.188065 38.016762 
L 107.827555 40.497869 
L 103.59735 43.195145 
L 99.508157 46.101764 
L 95.570326 49.210369 
L 91.793825 52.513091 
L 88.188212 56.001571 
L 84.762613 59.666978 
L 81.525701 63.500036 
L 78.485666 67.491042 
L 75.650205 71.629894 
L 73.026495 75.906116 
L 70.621175 80.308885 
L 68.440336 84.827057 
L 66.489495 89.449195 
L 64.773592 94.163599 
L 63.29697 98.958338 
L 62.063365 103.821275 
L 61.075902 108.740102 
L 60.337078 113.702367 
L 59.848764 118.695511 
L 59.612196 123.706895 
L 59.627973 128.723835 
L 59.896055 133.733632 
L 60.415763 138.723606 
L 61.185782 143.681126 
L 62.204163 148.593644 
L 63.468328 153.448727 
L 64.975078 158.234084 
L 66.720598 162.937603 
L 68.70047 167.54738 
L 70.909684 172.051746 
L 73.342646 176.439299 
L 75.9932 180.698936 
L 78.854636 184.819873 
L 81.919711 188.791679 
L 85.180668 192.604303 
L 88.629252 196.248093 
L 92.256734 199.713826 
L 96.053933 202.992731 
L 100.011237 206.076508 
L 104.11863 208.957351 
L 108.365716 211.627968 
L 112.741745 214.0816 
L 117.23564 216.312036 
L 121.836026 218.313632 
L 126.531259 220.081319 
L 131.309455 221.610625 
L 136.15852 222.897678 
L 141.06618 223.93922 
L 146.020013 224.732616 
L 151.00748 225.275856 
L 156.015957 225.567567 
L 161.032767 225.607009 
L 166.045211 225.394083 
L 171.040603 224.929328 
L 176.006298 224.213919 
L 180.929727 223.249669 
L 185.798429 222.039017 
L 190.60008 220.585029 
L 195.322526 218.891383 
L 199.953815 216.962367 
L 204.482223 214.802864 
L 208.89629 212.41834 
L 213.184841 209.81483 
L 217.337022 206.998924 
L 221.342324 203.977749 
L 225.190607 200.758953 
L 228.872133 197.350683 
L 232.377582 193.761566 
L 235.698081 190.000686 
L 238.825227 186.077562 
L 241.751103 182.002125 
L 244.468303 177.78469 
L 246.969951 173.435932 
L 249.249713 168.966859 
L 251.301821 164.388782 
L 253.121079 159.713289 
L 254.702882 154.952214 
L 256.043228 150.117608 
L 257.138722 145.221709 
L 257.986594 140.276909 
L 258.584695 135.295723 
L 258.931513 130.29076 
L 259.028142 125.901871 
L 259.028142 125.901871 
" style="fill:none;stroke:#1f77b4;stroke-dasharray:5.55,2.4;stroke-dashoffset:0;stroke-width:1.5;"/>
   </g>
   <g id="text_1">
    <!-- $r$ -->
    <g transform="translate(256.780779 172.269355)scale(0.1 -0.1)">
     <defs>
      <path d="M 38.90625 40.8125 
C 35.796875 40.21875 34.203125 38.015625 34.203125 35.828125 
C 34.203125 33.421875 36.09375 32.625 37.5 32.625 
C 40.296875 32.625 42.59375 35.03125 42.59375 38.015625 
C 42.59375 41.21875 39.5 44 34.5 44 
C 30.5 44 25.90625 42.203125 21.703125 36.125 
C 21 41.40625 17 44 13 44 
C 9.09375 44 7.09375 41.015625 5.90625 38.8125 
C 4.203125 35.21875 2.703125 29.234375 2.703125 28.734375 
C 2.703125 28.34375 3.09375 27.84375 3.796875 27.84375 
C 4.59375 27.84375 4.703125 27.9375 5.296875 30.234375 
C 6.796875 36.21875 8.703125 42.015625 12.703125 42.015625 
C 15.09375 42.015625 15.796875 40.3125 15.796875 37.421875 
C 15.796875 35.21875 14.796875 31.328125 14.09375 28.234375 
L 11.296875 17.46875 
C 10.90625 15.5625 9.796875 11.078125 9.296875 9.28125 
C 8.59375 6.6875 7.5 2 7.5 1.5 
C 7.5 0.09375 8.59375 -1 10.09375 -1 
C 11.203125 -1 13.09375 -0.296875 13.703125 1.703125 
C 14 2.5 17.703125 17.5625 18.296875 19.859375 
C 18.796875 22.046875 19.40625 24.15625 19.90625 26.34375 
C 20.296875 27.734375 20.703125 29.34375 21 30.640625 
C 21.296875 31.53125 24 36.421875 26.5 38.625 
C 27.703125 39.71875 30.296875 42.015625 34.40625 42.015625 
C 36 42.015625 37.59375 41.71875 38.90625 40.8125 
z
" id="CMMI12-114"/>
     </defs>
     <use transform="scale(0.996264)" xlink:href="#CMMI12-114"/>
    </g>
   </g>
   <g id="text_2">
    <!-- $r$ -->
    <g transform="translate(125.792567 87.674437)rotate(-315)scale(0.1 -0.1)">
     <use transform="scale(0.996264)" xlink:href="#CMMI12-114"/>
    </g>
   </g>
   <g id="text_3">
    <!-- $2b$ -->
    <g transform="translate(50.746529 183.071292)rotate(-90)scale(0.1 -0.1)">
     <defs>
      <path d="M 41.703125 15.453125 
L 39.90625 15.453125 
C 38.90625 8.375 38.09375 7.171875 37.703125 6.5625 
C 37.203125 5.765625 30 5.765625 28.59375 5.765625 
L 9.40625 5.765625 
C 13 9.671875 20 16.75 28.5 24.953125 
C 34.59375 30.734375 41.703125 37.53125 41.703125 47.421875 
C 41.703125 59.21875 32.296875 66 21.796875 66 
C 10.796875 66 4.09375 56.3125 4.09375 47.34375 
C 4.09375 43.4375 7 42.9375 8.203125 42.9375 
C 9.203125 42.9375 12.203125 43.546875 12.203125 47.03125 
C 12.203125 50.109375 9.59375 51 8.203125 51 
C 7.59375 51 7 50.90625 6.59375 50.703125 
C 8.5 59.21875 14.296875 63.40625 20.40625 63.40625 
C 29.09375 63.40625 34.796875 56.515625 34.796875 47.421875 
C 34.796875 38.734375 29.703125 31.25 24 24.75 
L 4.09375 2.28125 
L 4.09375 0 
L 39.296875 0 
z
" id="CMR17-50"/>
      <path d="M 23.09375 66.515625 
C 23.203125 66.921875 23.40625 67.515625 23.40625 68 
C 23.40625 69 22.40625 69 22.203125 69 
C 22.09375 69 18.5 68.640625 16.703125 68.390625 
C 15 68.390625 13.5 68.09375 11.703125 68.09375 
C 9.296875 67.890625 8.59375 67.796875 8.59375 66 
C 8.59375 65 9.59375 65 10.59375 65 
C 15.703125 65 15.703125 64.109375 15.703125 63.125 
C 15.703125 62.4375 14.90625 59.546875 14.5 57.75 
L 12.09375 48.203125 
C 11.09375 44.234375 5.40625 21.671875 5 19.875 
C 4.5 17.40625 4.5 15.703125 4.5 14.40625 
C 4.5 4.28125 10.203125 -1 16.703125 -1 
C 28.296875 -1 40.296875 13.875 40.296875 28.34375 
C 40.296875 37.515625 35.09375 44 27.59375 44 
C 22.40625 44 17.703125 39.71875 15.796875 37.71875 
z
M 16.796875 1 
C 13.59375 1 10.09375 3.390625 10.09375 11.171875 
C 10.09375 14.46875 10.40625 16.359375 12.203125 23.34375 
C 12.5 24.640625 14.09375 31.03125 14.5 32.328125 
C 14.703125 33.125 20.59375 42.015625 27.40625 42.015625 
C 31.796875 42.015625 33.796875 37.625 33.796875 32.4375 
C 33.796875 27.640625 31 16.359375 28.5 11.171875 
C 26 5.78125 21.40625 1 16.796875 1 
z
" id="CMMI12-98"/>
     </defs>
     <use transform="scale(0.996264)" xlink:href="#CMR17-50"/>
     <use transform="translate(45.690477 0)scale(0.996264)" xlink:href="#CMMI12-98"/>
    </g>
   </g>
   <g id="text_4">
    <!-- $2d$ -->
    <g transform="translate(179.154725 341.594005)scale(0.1 -0.1)">
     <defs>
      <path d="M 50.296875 66.515625 
C 50.40625 66.90625 50.59375 67.5 50.59375 68 
C 50.59375 69 49.59375 69 49.40625 69 
C 49.296875 69 44.40625 68.5625 43.90625 68.4375 
C 42.203125 68.328125 40.703125 68.09375 38.90625 68.09375 
C 36.40625 67.890625 35.703125 67.796875 35.703125 66 
C 35.703125 65 36.5 65 37.90625 65 
C 42.796875 65 42.90625 64.109375 42.90625 63.125 
C 42.90625 62.53125 42.703125 61.75 42.59375 61.453125 
L 36.5 37.421875 
C 35.40625 40.015625 32.703125 44 27.5 44 
C 16.203125 44 4 29.4375 4 14.671875 
C 4 4.796875 9.796875 -1 16.59375 -1 
C 22.09375 -1 26.796875 3.296875 29.59375 6.59375 
C 30.59375 0.703125 35.296875 -1 38.296875 -1 
C 41.296875 -1 43.703125 0.796875 45.5 4.390625 
C 47.09375 7.78125 48.5 13.875 48.5 14.265625 
C 48.5 14.765625 48.09375 15.171875 47.5 15.171875 
C 46.59375 15.171875 46.5 14.671875 46.09375 13.171875 
C 44.59375 7.28125 42.703125 1 38.59375 1 
C 35.703125 1 35.5 3.578125 35.5 5.578125 
C 35.5 5.96875 35.5 8.046875 36.203125 10.84375 
z
M 30.09375 11.875 
C 29.59375 10.171875 29.59375 9.984375 28.203125 8.078125 
C 26 5.28125 21.59375 1 16.90625 1 
C 12.796875 1 10.5 4.6875 10.5 10.578125 
C 10.5 16.0625 13.59375 27.234375 15.5 31.4375 
C 18.90625 38.421875 23.59375 42.015625 27.5 42.015625 
C 34.09375 42.015625 35.40625 33.828125 35.40625 33.03125 
C 35.40625 32.9375 35.09375 31.625 35 31.4375 
z
" id="CMMI12-100"/>
     </defs>
     <use transform="scale(0.996264)" xlink:href="#CMR17-50"/>
     <use transform="translate(45.690477 0)scale(0.996264)" xlink:href="#CMMI12-100"/>
    </g>
   </g>
  </g>
 </g>
 <defs>
  <clipPath id="p5aa12d428e">
   <rect height="338.4" width="283.553971" x="38.223015" y="10.8"/>
  </clipPath>
 </defs>
</svg>
