<?xml version="1.0" encoding="utf-8" standalone="no"?>
<!DOCTYPE svg PUBLIC "-//W3C//DTD SVG 1.1//EN"
  "http://www.w3.org/Graphics/SVG/1.1/DTD/svg11.dtd">
<!-- Created with matplotlib (https://matplotlib.org/) -->
<svg height="360pt" version="1.1" viewBox="0 0 360 360" width="360pt" xmlns="http://www.w3.org/2000/svg" xmlns:xlink="http://www.w3.org/1999/xlink">
 <defs>
  <style type="text/css">
*{stroke-linecap:butt;stroke-linejoin:round;}
  </style>
 </defs>
 <g id="figure_1">
  <g id="patch_1">
   <path d="M 0 360 
L 360 360 
L 360 0 
L 0 0 
z
" style="fill:#ffffff;"/>
  </g>
  <g id="axes_1">
   <g id="patch_2">
    <path clip-path="url(#pb9d1d19941)" d="M 289.499879 181.8 
L 283.199874 183.900002 
L 283.199874 182.01 
L 205.49981 182.01 
L 205.49981 181.59 
L 283.199874 181.59 
L 283.199874 179.699998 
z
" style="fill:#ff7f0e;stroke:#ff7f0e;stroke-linejoin:miter;"/>
   </g>
   <g id="patch_3">
    <path clip-path="url(#pb9d1d19941)" d="M 104.102756 80.402947 
L 110.042458 83.372798 
L 108.706025 84.709231 
L 163.648268 139.651473 
L 163.351282 139.948458 
L 108.40904 85.006216 
L 107.072607 86.342649 
z
" style="fill:#1f77b4;stroke:#1f77b4;stroke-linejoin:miter;"/>
   </g>
   <g id="patch_4">
    <path clip-path="url(#pb9d1d19941)" d="M 74.459702 55.799896 
L 76.559703 62.099901 
L 74.669702 62.099901 
L 74.669702 181.8 
L 74.249701 181.8 
L 74.249701 62.099901 
L 72.3597 62.099901 
z
" style="fill:#2ca02c;stroke:#2ca02c;stroke-linejoin:miter;"/>
   </g>
   <g id="patch_5">
    <path clip-path="url(#pb9d1d19941)" d="M 74.459702 307.800104 
L 72.3597 301.500099 
L 74.249701 301.500099 
L 74.249701 181.8 
L 74.669702 181.8 
L 74.669702 301.500099 
L 76.559703 301.500099 
z
" style="fill:#2ca02c;stroke:#2ca02c;stroke-linejoin:miter;"/>
   </g>
   <g id="patch_6">
    <path clip-path="url(#pb9d1d19941)" d="M 79.499706 312.840108 
L 85.799711 310.740106 
L 85.799711 312.630108 
L 184.499792 312.630108 
L 184.499792 313.050108 
L 85.799711 313.050108 
L 85.799711 314.94011 
z
" style="fill:#2ca02c;stroke:#2ca02c;stroke-linejoin:miter;"/>
   </g>
   <g id="patch_7">
    <path clip-path="url(#pb9d1d19941)" d="M 289.499879 312.840108 
L 283.199874 314.94011 
L 283.199874 313.050108 
L 184.499792 313.050108 
L 184.499792 312.630108 
L 283.199874 312.630108 
L 283.199874 310.740106 
z
" style="fill:#2ca02c;stroke:#2ca02c;stroke-linejoin:miter;"/>
   </g>
   <g id="line2d_1">
    <path clip-path="url(#pb9d1d19941)" d="M 289.499879 181.8 
L 289.393571 135.575218 
L 289.074915 131.361164 
L 288.544719 127.16847 
L 287.804324 123.007748 
L 286.855604 118.88953 
L 285.700961 114.824239 
L 284.343317 110.822165 
L 282.786109 106.893438 
L 281.033278 103.048002 
L 279.089261 99.295591 
L 276.958978 95.645703 
L 274.647821 92.107575 
L 272.161641 88.690164 
L 269.50673 85.402118 
L 266.689808 82.251762 
L 263.718006 79.247069 
L 260.598845 76.395644 
L 257.34022 73.704705 
L 253.950379 71.181062 
L 250.437903 68.831103 
L 246.811682 66.660777 
L 243.080895 64.675578 
L 239.254985 62.880528 
L 235.343635 61.280174 
L 231.356746 59.878564 
L 227.30441 58.679246 
L 223.196883 57.685258 
L 219.044562 56.899113 
L 214.857957 56.322803 
L 210.647666 55.957785 
L 206.424345 55.804984 
L 205.896045 55.800831 
L 159.670809 55.887209 
L 155.455299 56.185983 
L 151.26015 56.696396 
L 147.095982 57.417156 
L 142.973334 58.34644 
L 138.902642 59.481893 
L 134.894209 60.820644 
L 130.95818 62.359303 
L 127.104519 64.093975 
L 123.342979 66.02027 
L 119.683083 68.133313 
L 116.134092 70.427754 
L 112.704992 72.897786 
L 109.40446 75.537157 
L 106.240851 78.339187 
L 103.222173 81.296783 
L 100.356066 84.40246 
L 97.649785 87.648355 
L 95.11018 91.026253 
L 92.74368 94.527605 
L 90.556273 98.143548 
L 88.553496 101.86493 
L 86.74042 105.68233 
L 85.121633 109.586087 
L 83.701232 113.56632 
L 82.482813 117.612954 
L 81.46946 121.715747 
L 80.663737 125.864313 
L 80.067684 130.048153 
L 79.68281 134.256675 
L 79.510089 138.479229 
L 79.500121 139.535808 
L 79.593143 227.760938 
L 79.898545 231.975973 
L 80.415554 236.170314 
L 81.142861 240.333343 
L 82.078625 244.454525 
L 83.220478 248.523427 
L 84.56553 252.52975 
L 86.110376 256.463355 
L 87.851105 260.314284 
L 89.783312 264.072789 
L 91.902107 267.729359 
L 94.202125 271.274737 
L 96.677546 274.69995 
L 99.322104 277.996328 
L 102.129105 281.155527 
L 105.091444 284.169551 
L 108.201623 287.030771 
L 111.451769 289.731944 
L 114.833657 292.266235 
L 118.338726 294.627227 
L 121.958103 296.808946 
L 125.682629 298.805869 
L 129.502876 300.61294 
L 133.409173 302.225587 
L 137.391635 303.639728 
L 141.44018 304.851783 
L 145.54456 305.858684 
L 149.694389 306.657882 
L 153.87916 307.247356 
L 158.088283 307.625612 
L 162.311103 307.791693 
L 163.367696 307.8 
L 209.59264 307.700335 
L 213.80719 307.388306 
L 218.000712 306.864703 
L 222.162593 306.130851 
L 226.282298 305.188607 
L 230.3494 304.040358 
L 234.353604 302.689009 
L 238.284774 301.13798 
L 242.132961 299.391197 
L 245.888424 297.453082 
L 249.541658 295.328541 
L 253.083415 293.022951 
L 256.504731 290.542147 
L 259.796947 287.89241 
L 262.951728 285.080445 
L 265.961091 282.11337 
L 268.817417 278.998696 
L 271.513477 275.744307 
L 274.042446 272.358438 
L 276.397925 268.849662 
L 278.57395 265.226858 
L 280.565013 261.499197 
L 282.366076 257.676114 
L 283.972579 253.767285 
L 285.380456 249.782605 
L 286.586143 245.73216 
L 287.58659 241.626201 
L 288.379262 237.475121 
L 288.962155 233.289428 
L 289.333792 229.079715 
L 289.493233 224.856639 
L 289.498217 224.328347 
L 289.499879 181.8 
L 289.499879 181.8 
" style="fill:none;stroke:#1f77b4;stroke-linecap:square;stroke-width:1.5;"/>
   </g>
   <g id="line2d_2">
    <path clip-path="url(#pb9d1d19941)" d="M 289.499879 181.8 
L 289.393571 177.575253 
L 289.074915 173.361199 
L 288.544719 169.168505 
L 287.804324 165.007783 
L 286.855604 160.889564 
L 285.700961 156.824273 
L 284.343317 152.822199 
L 282.786109 148.893472 
L 281.033278 145.048037 
L 279.089261 141.295626 
L 276.958978 137.645737 
L 274.647821 134.107609 
L 272.161641 130.690198 
L 269.50673 127.402153 
L 266.689808 124.251797 
L 263.718006 121.247104 
L 260.598845 118.395679 
L 257.34022 115.704739 
L 253.950379 113.181096 
L 250.437903 110.831138 
L 246.811682 108.660812 
L 243.080895 106.675612 
L 239.254985 104.880563 
L 235.343635 103.280208 
L 231.356746 101.878598 
L 227.30441 100.679281 
L 223.196883 99.685292 
L 219.044562 98.899148 
L 214.857957 98.322837 
L 210.647666 97.95782 
L 206.424345 97.805019 
L 202.198683 97.864821 
L 197.981377 98.137076 
L 193.783101 98.621094 
L 189.614482 99.31565 
L 185.486071 100.218986 
L 181.408318 101.328815 
L 177.391544 102.642328 
L 173.445916 104.156201 
L 169.581421 105.866602 
L 165.807841 107.769201 
L 162.134727 109.859183 
L 158.571376 112.131257 
L 155.126808 114.579673 
L 151.809741 117.198234 
L 148.628571 119.980311 
L 145.591351 122.918863 
L 142.705769 126.006452 
L 139.979126 129.235262 
L 137.418327 132.597121 
L 135.029851 136.08352 
L 132.819745 139.685634 
L 130.793603 143.394345 
L 128.956553 147.200267 
L 127.313246 151.093765 
L 125.86784 155.064986 
L 124.623994 159.103877 
L 123.584856 163.200215 
L 122.753057 167.343632 
L 122.130702 171.523639 
L 121.719367 175.729658 
L 121.520092 179.951042 
L 121.533382 184.177106 
L 121.759203 188.397153 
L 122.196984 192.600502 
L 122.845616 196.776513 
L 123.703458 200.914616 
L 124.768339 205.004337 
L 126.037563 209.035325 
L 127.507917 212.997377 
L 129.17568 216.880463 
L 131.036631 220.674755 
L 133.086058 224.37065 
L 135.318776 227.958792 
L 137.729131 231.4301 
L 140.311025 234.775786 
L 143.05792 237.987384 
L 145.962865 241.056762 
L 149.018507 243.976154 
L 152.217111 246.738168 
L 155.550582 249.335815 
L 159.010481 251.762518 
L 162.588051 254.012136 
L 166.274238 256.078975 
L 170.05971 257.957803 
L 173.934885 259.643864 
L 177.889957 261.132891 
L 181.914913 262.421116 
L 185.999566 263.505276 
L 190.133576 264.382628 
L 194.306481 265.050952 
L 198.507718 265.508556 
L 202.726653 265.754281 
L 206.952607 265.787505 
L 211.174884 265.608145 
L 215.382796 265.216654 
L 219.565693 264.614024 
L 223.712988 263.801779 
L 227.814182 262.781976 
L 231.858895 261.557196 
L 235.83689 260.130538 
L 239.738097 258.505615 
L 243.552642 256.686538 
L 247.270869 254.677913 
L 250.883368 252.484823 
L 254.380995 250.11282 
L 257.754896 247.567907 
L 260.996532 244.856526 
L 264.097698 241.985539 
L 267.050544 238.962214 
L 269.847596 235.794204 
L 272.481774 232.489526 
L 274.946412 229.056545 
L 277.23527 225.503952 
L 279.342555 221.840737 
L 281.262933 218.076174 
L 282.991544 214.21979 
L 284.524012 210.281347 
L 285.856458 206.270813 
L 286.98551 202.19834 
L 287.90831 198.074237 
L 288.622521 193.90894 
L 289.126337 189.712994 
L 289.418483 185.49702 
L 289.499879 181.8 
L 289.499879 181.8 
" style="fill:none;stroke:#ff7f0e;stroke-linecap:square;stroke-width:1.5;"/>
   </g>
   <g id="line2d_3">
    <defs>
     <path d="M 0 3 
C 0.795609 3 1.55874 2.683901 2.12132 2.12132 
C 2.683901 1.55874 3 0.795609 3 0 
C 3 -0.795609 2.683901 -1.55874 2.12132 -2.12132 
C 1.55874 -2.683901 0.795609 -3 0 -3 
C -0.795609 -3 -1.55874 -2.683901 -2.12132 -2.12132 
C -2.683901 -1.55874 -3 -0.795609 -3 0 
C -3 0.795609 -2.683901 1.55874 -2.12132 2.12132 
C -1.55874 2.683901 -0.795609 3 0 3 
z
" id="me013ba20c6" style="stroke:#ff7f0e;"/>
    </defs>
    <g clip-path="url(#pb9d1d19941)">
     <use style="fill:#ff7f0e;stroke:#ff7f0e;" x="205.49981" xlink:href="#me013ba20c6" y="181.8"/>
    </g>
   </g>
   <g id="line2d_4">
    <defs>
     <path d="M 0 3 
C 0.795609 3 1.55874 2.683901 2.12132 2.12132 
C 2.683901 1.55874 3 0.795609 3 0 
C 3 -0.795609 2.683901 -1.55874 2.12132 -2.12132 
C 1.55874 -2.683901 0.795609 -3 0 -3 
C -0.795609 -3 -1.55874 -2.683901 -2.12132 -2.12132 
C -2.683901 -1.55874 -3 -0.795609 -3 0 
C -3 0.795609 -2.683901 1.55874 -2.12132 2.12132 
C -1.55874 2.683901 -0.795609 3 0 3 
z
" id="m2af5b7f192" style="stroke:#1f77b4;"/>
    </defs>
    <g clip-path="url(#pb9d1d19941)">
     <use style="fill:#1f77b4;stroke:#1f77b4;" x="163.499775" xlink:href="#m2af5b7f192" y="139.799965"/>
    </g>
   </g>
   <g id="line2d_5">
    <path clip-path="url(#pb9d1d19941)" d="M 247.499844 139.799965 
L 247.393536 135.575218 
L 247.074881 131.361164 
L 246.544684 127.16847 
L 245.804289 123.007748 
L 244.85557 118.88953 
L 243.700926 114.824239 
L 242.343283 110.822165 
L 240.786074 106.893438 
L 239.033243 103.048002 
L 237.089226 99.295591 
L 234.958943 95.645703 
L 232.647787 92.107575 
L 230.161607 88.690164 
L 227.506696 85.402118 
L 224.689774 82.251762 
L 221.717971 79.247069 
L 218.59881 76.395644 
L 215.340185 73.704705 
L 211.950345 71.181062 
L 208.437869 68.831103 
L 204.811648 66.660777 
L 201.08086 64.675578 
L 197.25495 62.880528 
L 193.3436 61.280174 
L 189.356712 59.878564 
L 185.304375 58.679246 
L 181.196848 57.685258 
L 177.044527 56.899113 
L 172.857923 56.322803 
L 168.647631 55.957785 
L 164.42431 55.804984 
L 160.198648 55.864787 
L 155.981342 56.137042 
L 151.783067 56.62106 
L 147.614448 57.315615 
L 143.486037 58.218951 
L 139.408284 59.32878 
L 135.391509 60.642293 
L 131.445881 62.156166 
L 127.581386 63.866567 
L 123.807806 65.769166 
L 120.134692 67.859148 
L 116.571341 70.131223 
L 113.126773 72.579639 
L 109.809706 75.1982 
L 106.628537 77.980277 
L 103.591317 80.918829 
L 100.705734 84.006417 
L 97.979092 87.235227 
L 95.418292 90.597086 
L 93.029816 94.083485 
L 90.819711 97.685599 
L 88.793569 101.39431 
L 86.956519 105.200232 
L 85.313211 109.093731 
L 83.867805 113.064951 
L 82.623959 117.103842 
L 81.584821 121.20018 
L 80.753023 125.343597 
L 80.130668 129.523605 
L 79.719332 133.729624 
L 79.520057 137.951008 
L 79.533347 142.177071 
L 79.759168 146.397118 
L 80.196949 150.600467 
L 80.845582 154.776478 
L 81.703424 158.914581 
L 82.768304 163.004303 
L 84.037528 167.035291 
L 85.507882 170.997342 
L 87.175645 174.880428 
L 89.036596 178.674721 
L 91.086024 182.370615 
L 93.318741 185.958758 
L 95.729097 189.430065 
L 98.31099 192.775752 
L 101.057886 195.987349 
L 103.962831 199.056728 
L 107.018473 201.976119 
L 110.217077 204.738134 
L 113.550547 207.33578 
L 117.010446 209.762483 
L 120.588017 212.012102 
L 124.274203 214.07894 
L 128.059675 215.957768 
L 131.934851 217.64383 
L 135.889922 219.132857 
L 139.914878 220.421081 
L 143.999531 221.505241 
L 148.133542 222.382594 
L 152.306447 223.050918 
L 156.507684 223.508521 
L 160.726618 223.754246 
L 164.952572 223.78747 
L 169.174849 223.60811 
L 173.382762 223.21662 
L 177.565659 222.613989 
L 181.712953 221.801744 
L 185.814147 220.781941 
L 189.858861 219.557161 
L 193.836855 218.130503 
L 197.738062 216.50558 
L 201.552607 214.686504 
L 205.270835 212.677878 
L 208.883334 210.484789 
L 212.38096 208.112785 
L 215.754862 205.567872 
L 218.996498 202.856491 
L 222.097663 199.985505 
L 225.050509 196.96218 
L 227.847561 193.794169 
L 230.48174 190.489491 
L 232.946377 187.056511 
L 235.235235 183.503917 
L 237.34252 179.840703 
L 239.262898 176.076139 
L 240.991509 172.219755 
L 242.523977 168.281312 
L 243.856423 164.270778 
L 244.985475 160.198306 
L 245.908275 156.074202 
L 246.622487 151.908906 
L 247.126303 147.71296 
L 247.418448 143.496985 
L 247.499844 139.799965 
L 247.499844 139.799965 
" style="fill:none;stroke:#1f77b4;stroke-dasharray:5.55,2.4;stroke-dashoffset:0;stroke-width:1.5;"/>
   </g>
   <g id="text_1">
    <!-- r -->
    <defs>
     <path d="M 41.109375 46.296875 
Q 39.59375 47.171875 37.8125 47.578125 
Q 36.03125 48 33.890625 48 
Q 26.265625 48 22.1875 43.046875 
Q 18.109375 38.09375 18.109375 28.8125 
L 18.109375 0 
L 9.078125 0 
L 9.078125 54.6875 
L 18.109375 54.6875 
L 18.109375 46.1875 
Q 20.953125 51.171875 25.484375 53.578125 
Q 30.03125 56 36.53125 56 
Q 37.453125 56 38.578125 55.875 
Q 39.703125 55.765625 41.0625 55.515625 
z
" id="DejaVuSans-114"/>
    </defs>
    <g transform="translate(245.444375 179.519371)scale(0.1 -0.1)">
     <use xlink:href="#DejaVuSans-114"/>
    </g>
   </g>
   <g id="text_2">
    <!-- r -->
    <g transform="translate(134.685214 107.951568)rotate(-315)scale(0.1 -0.1)">
     <use xlink:href="#DejaVuSans-114"/>
    </g>
   </g>
   <g id="text_3">
    <!-- 2b -->
    <defs>
     <path d="M 19.1875 8.296875 
L 53.609375 8.296875 
L 53.609375 0 
L 7.328125 0 
L 7.328125 8.296875 
Q 12.9375 14.109375 22.625 23.890625 
Q 32.328125 33.6875 34.8125 36.53125 
Q 39.546875 41.84375 41.421875 45.53125 
Q 43.3125 49.21875 43.3125 52.78125 
Q 43.3125 58.59375 39.234375 62.25 
Q 35.15625 65.921875 28.609375 65.921875 
Q 23.96875 65.921875 18.8125 64.3125 
Q 13.671875 62.703125 7.8125 59.421875 
L 7.8125 69.390625 
Q 13.765625 71.78125 18.9375 73 
Q 24.125 74.21875 28.421875 74.21875 
Q 39.75 74.21875 46.484375 68.546875 
Q 53.21875 62.890625 53.21875 53.421875 
Q 53.21875 48.921875 51.53125 44.890625 
Q 49.859375 40.875 45.40625 35.40625 
Q 44.1875 33.984375 37.640625 27.21875 
Q 31.109375 20.453125 19.1875 8.296875 
z
" id="DejaVuSans-50"/>
     <path d="M 48.6875 27.296875 
Q 48.6875 37.203125 44.609375 42.84375 
Q 40.53125 48.484375 33.40625 48.484375 
Q 26.265625 48.484375 22.1875 42.84375 
Q 18.109375 37.203125 18.109375 27.296875 
Q 18.109375 17.390625 22.1875 11.75 
Q 26.265625 6.109375 33.40625 6.109375 
Q 40.53125 6.109375 44.609375 11.75 
Q 48.6875 17.390625 48.6875 27.296875 
z
M 18.109375 46.390625 
Q 20.953125 51.265625 25.265625 53.625 
Q 29.59375 56 35.59375 56 
Q 45.5625 56 51.78125 48.09375 
Q 58.015625 40.1875 58.015625 27.296875 
Q 58.015625 14.40625 51.78125 6.484375 
Q 45.5625 -1.421875 35.59375 -1.421875 
Q 29.59375 -1.421875 25.265625 0.953125 
Q 20.953125 3.328125 18.109375 8.203125 
L 18.109375 0 
L 9.078125 0 
L 9.078125 75.984375 
L 18.109375 75.984375 
z
" id="DejaVuSans-98"/>
    </defs>
    <g transform="translate(72.71333 190.413762)rotate(-90)scale(0.1 -0.1)">
     <use xlink:href="#DejaVuSans-50"/>
     <use x="63.623047" xlink:href="#DejaVuSans-98"/>
    </g>
   </g>
   <g id="text_4">
    <!-- 2d -->
    <defs>
     <path d="M 45.40625 46.390625 
L 45.40625 75.984375 
L 54.390625 75.984375 
L 54.390625 0 
L 45.40625 0 
L 45.40625 8.203125 
Q 42.578125 3.328125 38.25 0.953125 
Q 33.9375 -1.421875 27.875 -1.421875 
Q 17.96875 -1.421875 11.734375 6.484375 
Q 5.515625 14.40625 5.515625 27.296875 
Q 5.515625 40.1875 11.734375 48.09375 
Q 17.96875 56 27.875 56 
Q 33.9375 56 38.25 53.625 
Q 42.578125 51.265625 45.40625 46.390625 
z
M 14.796875 27.296875 
Q 14.796875 17.390625 18.875 11.75 
Q 22.953125 6.109375 30.078125 6.109375 
Q 37.203125 6.109375 41.296875 11.75 
Q 45.40625 17.390625 45.40625 27.296875 
Q 45.40625 37.203125 41.296875 42.84375 
Q 37.203125 48.484375 30.078125 48.484375 
Q 22.953125 48.484375 18.875 42.84375 
Q 14.796875 37.203125 14.796875 27.296875 
z
" id="DejaVuSans-100"/>
    </defs>
    <g transform="translate(178.144324 322.151488)scale(0.1 -0.1)">
     <use xlink:href="#DejaVuSans-50"/>
     <use x="63.623047" xlink:href="#DejaVuSans-100"/>
    </g>
   </g>
  </g>
 </g>
 <defs>
  <clipPath id="pb9d1d19941">
   <rect height="277.2" width="230.999733" x="69.000133" y="43.2"/>
  </clipPath>
 </defs>
</svg>
