<?xml version="1.0" encoding="utf-8" standalone="no"?>
<!DOCTYPE svg PUBLIC "-//W3C//DTD SVG 1.1//EN"
  "http://www.w3.org/Graphics/SVG/1.1/DTD/svg11.dtd">
<svg xmlns:xlink="http://www.w3.org/1999/xlink" width="360pt" height="360pt" viewBox="0 0 360 360" xmlns="http://www.w3.org/2000/svg" version="1.1">
 <metadata>
  <rdf:RDF xmlns:dc="http://purl.org/dc/elements/1.1/" xmlns:cc="http://creativecommons.org/ns#" xmlns:rdf="http://www.w3.org/1999/02/22-rdf-syntax-ns#">
   <cc:Work>
    <dc:type rdf:resource="http://purl.org/dc/dcmitype/StillImage"/>
    <dc:date>2022-12-15T09:40:30.738721</dc:date>
    <dc:format>image/svg+xml</dc:format>
    <dc:creator>
     <cc:Agent>
      <dc:title>Matplotlib v3.6.1, https://matplotlib.org/</dc:title>
     </cc:Agent>
    </dc:creator>
   </cc:Work>
  </rdf:RDF>
 </metadata>
 <defs>
  <style type="text/css">*{stroke-linejoin: round; stroke-linecap: butt}</style>
 </defs>
 <g id="figure_1">
  <g id="patch_1">
   <path d="M 0 360 
L 360 360 
L 360 0 
L 0 0 
z
" style="fill: #ffffff"/>
  </g>
  <g id="axes_1">
   <g id="patch_2">
    <path d="M 308.888169 175.761898 
L 301.409165 178.254899 
L 301.409165 176.011198 
L 209.168116 176.011198 
L 209.168116 175.512598 
L 301.409165 175.512598 
L 301.409165 173.268896 
z
" clip-path="url(#pbb00f28620)" style="fill: #ff7f0e; stroke: #ff7f0e; stroke-linejoin: miter"/>
   </g>
   <g id="patch_3">
    <path d="M 88.795363 55.389145 
L 95.846636 58.914782 
L 94.2601 60.501318 
L 159.484371 125.725589 
L 159.131807 126.078153 
L 93.907536 60.853882 
L 92.321 62.440418 
z
" clip-path="url(#pbb00f28620)" style="fill: #1f77b4; stroke: #1f77b4; stroke-linejoin: miter"/>
   </g>
   <g id="patch_4">
    <path d="M 53.604833 26.181818 
L 56.097834 33.660822 
L 53.854133 33.660822 
L 53.854133 175.761898 
L 53.355533 175.761898 
L 53.355533 33.660822 
L 51.111831 33.660822 
z
" clip-path="url(#pbb00f28620)" style="fill: #2ca02c; stroke: #2ca02c; stroke-linejoin: miter"/>
   </g>
   <g id="patch_5">
    <path d="M 53.604833 325.341977 
L 51.111831 317.862973 
L 53.355533 317.862973 
L 53.355533 175.761898 
L 53.854133 175.761898 
L 53.854133 317.862973 
L 56.097834 317.862973 
z
" clip-path="url(#pbb00f28620)" style="fill: #2ca02c; stroke: #2ca02c; stroke-linejoin: miter"/>
   </g>
   <g id="patch_6">
    <path d="M 59.588036 331.32518 
L 67.06704 328.832179 
L 67.06704 331.07588 
L 184.238102 331.07588 
L 184.238102 331.574481 
L 67.06704 331.574481 
L 67.06704 333.818182 
z
" clip-path="url(#pbb00f28620)" style="fill: #2ca02c; stroke: #2ca02c; stroke-linejoin: miter"/>
   </g>
   <g id="patch_7">
    <path d="M 308.888169 331.32518 
L 301.409165 333.818182 
L 301.409165 331.574481 
L 184.238102 331.574481 
L 184.238102 331.07588 
L 301.409165 331.07588 
L 301.409165 328.832179 
z
" clip-path="url(#pbb00f28620)" style="fill: #2ca02c; stroke: #2ca02c; stroke-linejoin: miter"/>
   </g>
   <g id="line2d_1">
    <path d="M 259.028142 125.901871 
L 258.901939 120.886494 
L 258.52365 115.883811 
L 257.894231 110.906486 
L 257.015277 105.967116 
L 255.889011 101.078204 
L 254.518285 96.252124 
L 252.906569 91.501092 
L 251.05794 86.837134 
L 248.97708 82.272053 
L 246.669255 77.817407 
L 244.140305 73.484469 
L 241.396633 69.284207 
L 238.445183 65.227253 
L 235.293425 61.323875 
L 231.949338 57.583953 
L 228.421385 54.016954 
L 224.718496 50.631906 
L 220.850044 47.437377 
L 216.82582 44.441454 
L 212.65601 41.651718 
L 208.351169 39.075232 
L 203.922193 36.718517 
L 199.380292 34.587538 
L 194.736963 32.687688 
L 190.003958 31.023778 
L 185.193257 29.600017 
L 180.317037 28.420011 
L 175.38764 27.486745 
L 170.417544 26.802583 
L 165.419328 26.369255 
L 160.405644 26.187858 
L 155.389181 26.258853 
L 150.382638 26.582058 
L 145.398687 27.156656 
L 140.449942 27.981193 
L 135.54893 29.053581 
L 130.708055 30.371106 
L 125.939572 31.930434 
L 121.255549 33.727617 
L 116.667843 35.758106 
L 112.188065 38.016762 
L 107.827555 40.497869 
L 103.59735 43.195145 
L 99.508157 46.101764 
L 95.570326 49.210369 
L 91.793825 52.513091 
L 88.188212 56.001571 
L 84.762613 59.666978 
L 81.525701 63.500036 
L 78.485666 67.491042 
L 75.650205 71.629894 
L 73.026495 75.906116 
L 70.621175 80.308885 
L 68.440336 84.827057 
L 66.489495 89.449195 
L 64.773592 94.163599 
L 63.29697 98.958338 
L 62.063365 103.821275 
L 61.075902 108.740102 
L 60.337078 113.702367 
L 59.848764 118.695511 
L 59.612196 123.706895 
L 59.627973 128.723835 
L 59.896055 133.733632 
L 60.415763 138.723606 
L 61.185782 143.681126 
L 62.204163 148.593644 
L 63.468328 153.448727 
L 64.975078 158.234084 
L 66.720598 162.937603 
L 68.70047 167.54738 
L 70.909684 172.051746 
L 73.342646 176.439299 
L 75.9932 180.698936 
L 78.854636 184.819873 
L 81.919711 188.791679 
L 85.180668 192.604303 
L 88.629252 196.248093 
L 92.256734 199.713826 
L 96.053933 202.992731 
L 100.011237 206.076508 
L 104.11863 208.957351 
L 108.365716 211.627968 
L 112.741745 214.0816 
L 117.23564 216.312036 
L 121.836026 218.313632 
L 126.531259 220.081319 
L 131.309455 221.610625 
L 136.15852 222.897678 
L 141.06618 223.93922 
L 146.020013 224.732616 
L 151.00748 225.275856 
L 156.015957 225.567567 
L 161.032767 225.607009 
L 166.045211 225.394083 
L 171.040603 224.929328 
L 176.006298 224.213919 
L 180.929727 223.249669 
L 185.798429 222.039017 
L 190.60008 220.585029 
L 195.322526 218.891383 
L 199.953815 216.962367 
L 204.482223 214.802864 
L 208.89629 212.41834 
L 213.184841 209.81483 
L 217.337022 206.998924 
L 221.342324 203.977749 
L 225.190607 200.758953 
L 228.872133 197.350683 
L 232.377582 193.761566 
L 235.698081 190.000686 
L 238.825227 186.077562 
L 241.751103 182.002125 
L 244.468303 177.78469 
L 246.969951 173.435932 
L 249.249713 168.966859 
L 251.301821 164.388782 
L 253.121079 159.713289 
L 254.702882 154.952214 
L 256.043228 150.117608 
L 257.138722 145.221709 
L 257.986594 140.276909 
L 258.584695 135.295723 
L 258.931513 130.29076 
L 259.028142 125.901871 
L 259.028142 125.901871 
" clip-path="url(#pbb00f28620)" style="fill: none; stroke-dasharray: 5.55,2.4; stroke-dashoffset: 0; stroke: #2ca02c; stroke-width: 1.5"/>
   </g>
   <g id="line2d_2">
    <path d="M 308.888149 125.839215 
L 308.774451 121.140888 
L 308.439513 116.453136 
L 307.88408 111.786371 
L 307.109385 107.150958 
L 306.117149 102.557194 
L 304.909575 98.015281 
L 303.489346 93.535309 
L 301.859617 89.127227 
L 300.024007 84.800826 
L 297.986594 80.565717 
L 295.751902 76.431306 
L 293.324896 72.406775 
L 290.710966 68.501065 
L 287.915918 64.72285 
L 284.94596 61.080522 
L 281.807689 57.582171 
L 278.508075 54.235568 
L 275.054447 51.048146 
L 271.454477 48.026984 
L 267.716161 45.178793 
L 263.847801 42.509899 
L 259.857989 40.02623 
L 255.755589 37.733304 
L 251.549711 35.636211 
L 247.249698 33.739612 
L 242.8651 32.047717 
L 238.405657 30.564286 
L 233.881273 29.292613 
L 229.301997 28.235522 
L 224.678002 27.395362 
L 220.019557 26.773998 
L 215.337009 26.372811 
L 210.640759 26.192693 
L 209.230771 26.181838 
L 209.230771 26.181838 
" clip-path="url(#pbb00f28620)" style="fill: none; stroke: #1f77b4; stroke-width: 1.5; stroke-linecap: square"/>
   </g>
   <g id="line2d_3">
    <path d="M 159.245433 26.181838 
L 154.547106 26.295536 
L 149.859354 26.630474 
L 145.192589 27.185907 
L 140.557176 27.960602 
L 135.963412 28.952838 
L 131.421499 30.160412 
L 126.941526 31.58064 
L 122.533444 33.210369 
L 118.207044 35.045979 
L 113.971935 37.083393 
L 109.837524 39.318084 
L 105.812993 41.745091 
L 101.907283 44.359021 
L 98.129068 47.154069 
L 94.48674 50.124027 
L 90.988389 53.262298 
L 87.641786 56.561912 
L 84.454363 60.015539 
L 81.433201 63.615509 
L 78.585011 67.353826 
L 75.916117 71.222186 
L 73.432448 75.211998 
L 71.139521 79.314398 
L 69.042429 83.520276 
L 67.145829 87.820289 
L 65.453935 92.204887 
L 63.970504 96.66433 
L 62.69883 101.188714 
L 61.64174 105.767989 
L 60.80158 110.391985 
L 60.180216 115.05043 
L 59.779029 119.732978 
L 59.59891 124.429228 
L 59.588056 125.839215 
L 59.588056 125.839215 
" clip-path="url(#pbb00f28620)" style="fill: none; stroke: #1f77b4; stroke-width: 1.5; stroke-linecap: square"/>
   </g>
   <g id="line2d_4">
    <path d="M 59.588056 225.68458 
L 59.701754 230.382907 
L 60.036691 235.070659 
L 60.592125 239.737425 
L 61.36682 244.372837 
L 62.359056 248.966602 
L 63.566629 253.508514 
L 64.986858 257.988487 
L 66.616587 262.396569 
L 68.452197 266.722969 
L 70.489611 270.958078 
L 72.724302 275.09249 
L 75.151309 279.11702 
L 77.765239 283.02273 
L 80.560287 286.800945 
L 83.530245 290.443273 
L 86.668516 293.941624 
L 89.96813 297.288227 
L 93.421757 300.47565 
L 97.021727 303.496812 
L 100.760044 306.345003 
L 104.628404 309.013896 
L 108.618215 311.497565 
L 112.720616 313.790492 
L 116.926494 315.887584 
L 121.226507 317.784184 
L 125.611104 319.476078 
L 130.070548 320.95951 
L 134.594932 322.231183 
L 139.174207 323.288274 
L 143.798203 324.128434 
L 148.456648 324.749797 
L 153.139196 325.150984 
L 157.835445 325.331103 
L 159.245433 325.341958 
L 159.245433 325.341958 
" clip-path="url(#pbb00f28620)" style="fill: none; stroke: #1f77b4; stroke-width: 1.5; stroke-linecap: square"/>
   </g>
   <g id="line2d_5">
    <path d="M 209.230771 325.341958 
L 213.929098 325.22826 
L 218.616851 324.893322 
L 223.283616 324.337889 
L 227.919029 323.563194 
L 232.512793 322.570957 
L 237.054706 321.363384 
L 241.534678 319.943155 
L 245.94276 318.313426 
L 250.26916 316.477816 
L 254.50427 314.440403 
L 258.638681 312.205711 
L 262.663211 309.778705 
L 266.568922 307.164775 
L 270.347137 304.369726 
L 273.989465 301.399768 
L 277.487816 298.261497 
L 280.834419 294.961884 
L 284.021841 291.508256 
L 287.043003 287.908286 
L 289.891194 284.169969 
L 292.560088 280.301609 
L 295.043756 276.311798 
L 297.336683 272.209397 
L 299.433775 268.00352 
L 301.330375 263.703506 
L 303.022269 259.318909 
L 304.505701 254.859465 
L 305.777374 250.335081 
L 306.834465 245.755806 
L 307.674625 241.13181 
L 308.295989 236.473365 
L 308.697175 231.790818 
L 308.877294 227.094568 
L 308.888149 225.68458 
L 308.888149 225.68458 
" clip-path="url(#pbb00f28620)" style="fill: none; stroke: #1f77b4; stroke-width: 1.5; stroke-linecap: square"/>
   </g>
   <g id="line2d_6">
    <path d="M 308.888169 175.761898 
L 308.888149 125.839215 
L 308.888149 125.839215 
" clip-path="url(#pbb00f28620)" style="fill: none; stroke-dasharray: 1.5,2.475; stroke-dashoffset: 0; stroke: #1f77b4; stroke-width: 1.5"/>
   </g>
   <g id="line2d_7">
    <path d="M 209.230771 26.181838 
L 159.245433 26.181838 
L 159.245433 26.181838 
" clip-path="url(#pbb00f28620)" style="fill: none; stroke-dasharray: 1.5,2.475; stroke-dashoffset: 0; stroke: #1f77b4; stroke-width: 1.5"/>
   </g>
   <g id="line2d_8">
    <path d="M 59.588056 125.839215 
L 59.588056 225.68458 
L 59.588056 225.68458 
" clip-path="url(#pbb00f28620)" style="fill: none; stroke-dasharray: 1.5,2.475; stroke-dashoffset: 0; stroke: #1f77b4; stroke-width: 1.5"/>
   </g>
   <g id="line2d_9">
    <path d="M 159.245433 325.341958 
L 209.230771 325.341958 
L 209.230771 325.341958 
" clip-path="url(#pbb00f28620)" style="fill: none; stroke-dasharray: 1.5,2.475; stroke-dashoffset: 0; stroke: #1f77b4; stroke-width: 1.5"/>
   </g>
   <g id="line2d_10">
    <path d="M 308.888149 225.68458 
L 308.888169 175.761898 
L 308.888169 175.761898 
" clip-path="url(#pbb00f28620)" style="fill: none; stroke-dasharray: 1.5,2.475; stroke-dashoffset: 0; stroke: #1f77b4; stroke-width: 1.5"/>
   </g>
   <g id="line2d_11">
    <defs>
     <path id="m90056b9eb7" d="M 0 3 
C 0.795609 3 1.55874 2.683901 2.12132 2.12132 
C 2.683901 1.55874 3 0.795609 3 0 
C 3 -0.795609 2.683901 -1.55874 2.12132 -2.12132 
C 1.55874 -2.683901 0.795609 -3 0 -3 
C -0.795609 -3 -1.55874 -2.683901 -2.12132 -2.12132 
C -2.683901 -1.55874 -3 -0.795609 -3 0 
C -3 0.795609 -2.683901 1.55874 -2.12132 2.12132 
C -1.55874 2.683901 -0.795609 3 0 3 
z
" style="stroke: #1f77b4"/>
    </defs>
    <g clip-path="url(#pbb00f28620)">
     <use xlink:href="#m90056b9eb7" x="308.888169" y="175.761898" style="fill: #1f77b4; stroke: #1f77b4"/>
    </g>
   </g>
   <g id="line2d_12">
    <g clip-path="url(#pbb00f28620)">
     <use xlink:href="#m90056b9eb7" x="209.168116" y="26.181818" style="fill: #1f77b4; stroke: #1f77b4"/>
    </g>
   </g>
   <g id="line2d_13">
    <g clip-path="url(#pbb00f28620)">
     <use xlink:href="#m90056b9eb7" x="59.588036" y="175.761898" style="fill: #1f77b4; stroke: #1f77b4"/>
    </g>
   </g>
   <g id="line2d_14">
    <g clip-path="url(#pbb00f28620)">
     <use xlink:href="#m90056b9eb7" x="209.168116" y="325.341977" style="fill: #1f77b4; stroke: #1f77b4"/>
    </g>
   </g>
   <g id="line2d_15">
    <path d="M 308.888169 175.761898 
L 308.761966 170.746521 
L 308.383676 165.743838 
L 307.754258 160.766513 
L 306.875303 155.827143 
L 305.749038 150.93823 
L 304.378312 146.112151 
L 302.766595 141.361119 
L 300.917967 136.69716 
L 298.837107 132.13208 
L 296.529281 127.677433 
L 294.000332 123.344495 
L 291.25666 119.144234 
L 288.30521 115.087279 
L 285.153452 111.183901 
L 281.809364 107.44398 
L 278.281411 103.87698 
L 274.578522 100.491933 
L 270.71007 97.297404 
L 266.685846 94.30148 
L 262.516037 91.511745 
L 258.211196 88.935259 
L 253.78222 86.578543 
L 249.240319 84.447564 
L 244.596989 82.547715 
L 239.863984 80.883804 
L 235.053283 79.460044 
L 230.177063 78.280037 
L 225.247667 77.346772 
L 220.277571 76.662609 
L 215.279355 76.229281 
L 210.26567 76.047885 
L 205.249208 76.118879 
L 200.242665 76.442084 
L 195.258713 77.016683 
L 190.309968 77.841219 
L 185.408956 78.913607 
L 180.568082 80.231133 
L 175.799599 81.79046 
L 171.115576 83.587643 
L 166.52787 85.618133 
L 162.048092 87.876789 
L 157.687582 90.357895 
L 153.457377 93.055172 
L 149.368183 95.961791 
L 145.430352 99.070395 
L 141.653851 102.373117 
L 138.048238 105.861597 
L 134.62264 109.527005 
L 131.385727 113.360063 
L 128.345693 117.351068 
L 125.510232 121.489921 
L 122.886521 125.766143 
L 120.481202 130.168912 
L 118.300362 134.687083 
L 116.349522 139.309221 
L 114.633619 144.023626 
L 113.156996 148.818365 
L 111.923392 153.681302 
L 110.935928 158.600128 
L 110.197104 163.562393 
L 109.70879 168.555537 
L 109.472223 173.566921 
L 109.488 178.583861 
L 109.756082 183.593659 
L 110.27579 188.583632 
L 111.045809 193.541153 
L 112.06419 198.453671 
L 113.328355 203.308753 
L 114.835104 208.09411 
L 116.580624 212.79763 
L 118.560497 217.407406 
L 120.76971 221.911772 
L 123.202673 226.299326 
L 125.853227 230.558962 
L 128.714663 234.679899 
L 131.779738 238.651706 
L 135.040694 242.464329 
L 138.489278 246.108119 
L 142.11676 249.573853 
L 145.913959 252.852758 
L 149.871264 255.936534 
L 153.978657 258.817377 
L 158.225743 261.487994 
L 162.601771 263.941627 
L 167.095666 266.172063 
L 171.696052 268.173658 
L 176.391286 269.941346 
L 181.169482 271.470651 
L 186.018547 272.757704 
L 190.926207 273.799246 
L 195.88004 274.592642 
L 200.867506 275.135883 
L 205.875983 275.427593 
L 210.892793 275.467035 
L 215.905237 275.254109 
L 220.900629 274.789354 
L 225.866324 274.073946 
L 230.789754 273.109696 
L 235.658456 271.899044 
L 240.460107 270.445055 
L 245.182553 268.751409 
L 249.813842 266.822394 
L 254.34225 264.662891 
L 258.756316 262.278366 
L 263.044867 259.674856 
L 267.197048 256.85895 
L 271.20235 253.837776 
L 275.050634 250.61898 
L 278.73216 247.21071 
L 282.237609 243.621592 
L 285.558108 239.860712 
L 288.685253 235.937589 
L 291.611129 231.862152 
L 294.32833 227.644717 
L 296.829977 223.295959 
L 299.10974 218.826885 
L 301.161847 214.248808 
L 302.981105 209.573315 
L 304.562909 204.81224 
L 305.903254 199.977635 
L 306.998749 195.081736 
L 307.84662 190.136935 
L 308.444722 185.15575 
L 308.79154 180.150787 
L 308.888169 175.761898 
L 308.888169 175.761898 
" clip-path="url(#pbb00f28620)" style="fill: none; stroke: #ff7f0e; stroke-width: 1.5; stroke-linecap: square"/>
   </g>
   <g id="line2d_16">
    <defs>
     <path id="m76479ad1a9" d="M 0 3 
C 0.795609 3 1.55874 2.683901 2.12132 2.12132 
C 2.683901 1.55874 3 0.795609 3 0 
C 3 -0.795609 2.683901 -1.55874 2.12132 -2.12132 
C 1.55874 -2.683901 0.795609 -3 0 -3 
C -0.795609 -3 -1.55874 -2.683901 -2.12132 -2.12132 
C -2.683901 -1.55874 -3 -0.795609 -3 0 
C -3 0.795609 -2.683901 1.55874 -2.12132 2.12132 
C -1.55874 2.683901 -0.795609 3 0 3 
z
" style="stroke: #ff7f0e"/>
    </defs>
    <g clip-path="url(#pbb00f28620)">
     <use xlink:href="#m76479ad1a9" x="209.168116" y="175.761898" style="fill: #ff7f0e; stroke: #ff7f0e"/>
    </g>
   </g>
   <g id="line2d_17">
    <g clip-path="url(#pbb00f28620)">
     <use xlink:href="#m90056b9eb7" x="159.308089" y="125.901871" style="fill: #1f77b4; stroke: #1f77b4"/>
    </g>
   </g>
   <g id="text_1">
    <!-- $r$ -->
    <g transform="translate(256.780779 172.269355) scale(0.1 -0.1)">
     <defs>
      <path id="CMMI12-72" d="M 2490 2612 
C 2291 2574 2189 2433 2189 2293 
C 2189 2139 2310 2088 2400 2088 
C 2579 2088 2726 2242 2726 2433 
C 2726 2638 2528 2816 2208 2816 
C 1952 2816 1658 2701 1389 2312 
C 1344 2650 1088 2816 832 2816 
C 582 2816 454 2625 378 2484 
C 269 2254 173 1871 173 1839 
C 173 1814 198 1782 243 1782 
C 294 1782 301 1788 339 1935 
C 435 2318 557 2689 813 2689 
C 966 2689 1011 2580 1011 2395 
C 1011 2254 947 2005 902 1807 
L 723 1118 
C 698 996 627 709 595 594 
C 550 428 480 128 480 96 
C 480 6 550 -64 646 -64 
C 717 -64 838 -19 877 109 
C 896 160 1133 1124 1171 1271 
C 1203 1411 1242 1546 1274 1686 
C 1299 1775 1325 1878 1344 1961 
C 1363 2018 1536 2331 1696 2472 
C 1773 2542 1939 2689 2202 2689 
C 2304 2689 2406 2670 2490 2612 
z
" transform="scale(0.015625)"/>
     </defs>
     <use xlink:href="#CMMI12-72" transform="scale(0.996264)"/>
    </g>
   </g>
   <g id="text_2">
    <!-- $r$ -->
    <g transform="translate(125.792567 87.674437) rotate(-315) scale(0.1 -0.1)">
     <use xlink:href="#CMMI12-72" transform="scale(0.996264)"/>
    </g>
   </g>
   <g id="text_3">
    <!-- $2b$ -->
    <g transform="translate(50.746529 183.071292) rotate(-90) scale(0.1 -0.1)">
     <defs>
      <path id="CMR17-32" d="M 2669 989 
L 2554 989 
C 2490 536 2438 459 2413 420 
C 2381 369 1920 369 1830 369 
L 602 369 
C 832 619 1280 1072 1824 1597 
C 2214 1967 2669 2402 2669 3035 
C 2669 3790 2067 4224 1395 4224 
C 691 4224 262 3604 262 3030 
C 262 2780 448 2748 525 2748 
C 589 2748 781 2787 781 3010 
C 781 3207 614 3264 525 3264 
C 486 3264 448 3258 422 3245 
C 544 3790 915 4058 1306 4058 
C 1862 4058 2227 3617 2227 3035 
C 2227 2479 1901 2000 1536 1584 
L 262 146 
L 262 0 
L 2515 0 
L 2669 989 
z
" transform="scale(0.015625)"/>
      <path id="CMMI12-62" d="M 1478 4257 
C 1485 4283 1498 4321 1498 4352 
C 1498 4416 1434 4416 1421 4416 
C 1414 4416 1184 4393 1069 4377 
C 960 4377 864 4358 749 4358 
C 595 4345 550 4339 550 4224 
C 550 4160 614 4160 678 4160 
C 1005 4160 1005 4103 1005 4040 
C 1005 3996 954 3811 928 3696 
L 774 3085 
C 710 2831 346 1387 320 1272 
C 288 1114 288 1005 288 922 
C 288 274 653 -64 1069 -64 
C 1811 -64 2579 888 2579 1814 
C 2579 2401 2246 2816 1766 2816 
C 1434 2816 1133 2542 1011 2414 
L 1478 4257 
z
M 1075 64 
C 870 64 646 217 646 715 
C 646 926 666 1047 781 1494 
C 800 1577 902 1986 928 2069 
C 941 2120 1318 2689 1754 2689 
C 2035 2689 2163 2408 2163 2076 
C 2163 1769 1984 1047 1824 715 
C 1664 370 1370 64 1075 64 
z
" transform="scale(0.015625)"/>
     </defs>
     <use xlink:href="#CMR17-32" transform="scale(0.996264)"/>
     <use xlink:href="#CMMI12-62" transform="translate(45.690477 0) scale(0.996264)"/>
    </g>
   </g>
   <g id="text_4">
    <!-- $2d$ -->
    <g transform="translate(179.154725 341.594005) scale(0.1 -0.1)">
     <defs>
      <path id="CMMI12-64" d="M 3219 4257 
C 3226 4282 3238 4320 3238 4352 
C 3238 4416 3174 4416 3162 4416 
C 3155 4416 2842 4388 2810 4380 
C 2701 4373 2605 4358 2490 4358 
C 2330 4345 2285 4339 2285 4224 
C 2285 4160 2336 4160 2426 4160 
C 2739 4160 2746 4103 2746 4040 
C 2746 4002 2733 3952 2726 3933 
L 2336 2395 
C 2266 2561 2093 2816 1760 2816 
C 1037 2816 256 1884 256 939 
C 256 307 627 -64 1062 -64 
C 1414 -64 1715 211 1894 422 
C 1958 45 2259 -64 2451 -64 
C 2643 -64 2797 51 2912 281 
C 3014 498 3104 888 3104 913 
C 3104 945 3078 971 3040 971 
C 2982 971 2976 939 2950 843 
C 2854 466 2733 64 2470 64 
C 2285 64 2272 229 2272 357 
C 2272 382 2272 515 2317 694 
L 3219 4257 
z
M 1926 760 
C 1894 651 1894 639 1805 517 
C 1664 338 1382 64 1082 64 
C 819 64 672 300 672 677 
C 672 1028 870 1743 992 2012 
C 1210 2459 1510 2689 1760 2689 
C 2182 2689 2266 2165 2266 2114 
C 2266 2108 2246 2024 2240 2012 
L 1926 760 
z
" transform="scale(0.015625)"/>
     </defs>
     <use xlink:href="#CMR17-32" transform="scale(0.996264)"/>
     <use xlink:href="#CMMI12-64" transform="translate(45.690477 0) scale(0.996264)"/>
    </g>
   </g>
  </g>
 </g>
 <defs>
  <clipPath id="pbb00f28620">
   <rect x="38.223015" y="10.8" width="283.553971" height="338.4"/>
  </clipPath>
 </defs>
</svg>
