<?xml version="1.0" encoding="utf-8" standalone="no"?>
<!DOCTYPE svg PUBLIC "-//W3C//DTD SVG 1.1//EN"
  "http://www.w3.org/Graphics/SVG/1.1/DTD/svg11.dtd">
<!-- Created with matplotlib (https://matplotlib.org/) -->
<svg height="360pt" version="1.1" viewBox="0 0 360 360" width="360pt" xmlns="http://www.w3.org/2000/svg" xmlns:xlink="http://www.w3.org/1999/xlink">
 <metadata>
  <rdf:RDF xmlns:cc="http://creativecommons.org/ns#" xmlns:dc="http://purl.org/dc/elements/1.1/" xmlns:rdf="http://www.w3.org/1999/02/22-rdf-syntax-ns#">
   <cc:Work>
    <dc:type rdf:resource="http://purl.org/dc/dcmitype/StillImage"/>
    <dc:date>2022-07-17T13:39:02.821043</dc:date>
    <dc:format>image/svg+xml</dc:format>
    <dc:creator>
     <cc:Agent>
      <dc:title>Matplotlib v3.3.3, https://matplotlib.org/</dc:title>
     </cc:Agent>
    </dc:creator>
   </cc:Work>
  </rdf:RDF>
 </metadata>
 <defs>
  <style type="text/css">*{stroke-linecap:butt;stroke-linejoin:round;}</style>
 </defs>
 <g id="figure_1">
  <g id="patch_1">
   <path d="M 0 360 
L 360 360 
L 360 0 
L 0 0 
z
" style="fill:#ffffff;"/>
  </g>
  <g id="axes_1">
   <g id="patch_2">
    <path clip-path="url(#p39c241d97d)" d="M 290.078606 178.328363 
L 283.952188 180.370502 
L 283.952188 178.532577 
L 208.393031 178.532577 
L 208.393031 178.124149 
L 283.952188 178.124149 
L 283.952188 176.286224 
z
" style="fill:#ff7f0e;stroke:#ff7f0e;stroke-linejoin:miter;"/>
   </g>
   <g id="patch_3">
    <path clip-path="url(#p39c241d97d)" d="M 109.789819 79.725151 
L 115.565861 82.613172 
L 114.266252 83.912782 
L 167.694644 137.341174 
L 167.405842 137.629976 
L 113.97745 84.201584 
L 112.67784 85.501194 
z
" style="fill:#1f77b4;stroke:#1f77b4;stroke-linejoin:miter;"/>
   </g>
   <g id="patch_4">
    <path clip-path="url(#p39c241d97d)" d="M 80.963533 55.8 
L 83.005673 61.926418 
L 81.167747 61.926418 
L 81.167747 178.328363 
L 80.759319 178.328363 
L 80.759319 61.926418 
L 78.921394 61.926418 
z
" style="fill:#2ca02c;stroke:#2ca02c;stroke-linejoin:miter;"/>
   </g>
   <g id="patch_5">
    <path clip-path="url(#p39c241d97d)" d="M 80.963533 300.856726 
L 78.921394 294.730308 
L 80.759319 294.730308 
L 80.759319 178.328363 
L 81.167747 178.328363 
L 81.167747 294.730308 
L 83.005673 294.730308 
z
" style="fill:#2ca02c;stroke:#2ca02c;stroke-linejoin:miter;"/>
   </g>
   <g id="patch_6">
    <path clip-path="url(#p39c241d97d)" d="M 85.864668 305.757861 
L 91.991086 303.715721 
L 91.991086 305.553647 
L 187.971637 305.553647 
L 187.971637 305.962075 
L 91.991086 305.962075 
L 91.991086 307.8 
z
" style="fill:#2ca02c;stroke:#2ca02c;stroke-linejoin:miter;"/>
   </g>
   <g id="patch_7">
    <path clip-path="url(#p39c241d97d)" d="M 290.078606 305.757861 
L 283.952188 307.8 
L 283.952188 305.962075 
L 187.971637 305.962075 
L 187.971637 305.553647 
L 283.952188 305.553647 
L 283.952188 303.715721 
z
" style="fill:#2ca02c;stroke:#2ca02c;stroke-linejoin:miter;"/>
   </g>
   <g id="line2d_1">
    <path clip-path="url(#p39c241d97d)" d="M 290.078606 178.328363 
L 289.975227 133.377234 
L 289.665352 129.279292 
L 289.149764 125.202122 
L 288.42977 121.156042 
L 287.50719 117.151295 
L 286.384362 113.198017 
L 285.064126 109.306214 
L 283.549824 105.485737 
L 281.84529 101.746257 
L 279.954837 98.097237 
L 277.88325 94.547916 
L 275.635774 91.107276 
L 273.218097 87.784026 
L 270.636338 84.586578 
L 267.897032 81.523025 
L 265.007113 78.601122 
L 261.973896 75.828263 
L 258.805057 73.211469 
L 255.508619 70.757361 
L 252.092924 68.472152 
L 248.566618 66.361626 
L 244.938627 64.431126 
L 241.218133 62.685536 
L 237.414555 61.129277 
L 233.537519 59.766286 
L 229.596839 58.600014 
L 225.602488 57.633413 
L 221.564578 56.86893 
L 217.493329 56.308499 
L 213.399046 55.953538 
L 209.292092 55.804948 
L 208.778349 55.800909 
L 163.31363 55.90994 
L 159.21618 56.226258 
L 155.139825 56.748256 
L 151.094883 57.474612 
L 147.091591 58.403487 
L 143.140083 59.53253 
L 139.250361 60.858884 
L 135.43227 62.379191 
L 131.695474 64.089603 
L 128.049432 65.985791 
L 124.503373 68.062955 
L 121.066271 70.315839 
L 117.746826 72.738738 
L 114.553442 75.325522 
L 111.4942 78.069641 
L 108.576844 80.964151 
L 105.808759 84.001724 
L 103.19695 87.174674 
L 100.748028 90.474967 
L 98.468193 93.894251 
L 96.363214 97.423871 
L 94.43842 101.054893 
L 92.698683 104.778126 
L 91.148406 108.584147 
L 89.791513 112.463322 
L 88.631439 116.405831 
L 87.67112 120.401696 
L 86.912987 124.440803 
L 86.358958 128.512929 
L 86.010436 132.607765 
L 85.868303 136.714948 
L 85.865072 137.228696 
L 85.955531 223.022917 
L 86.252518 227.121813 
L 86.755281 231.200586 
L 87.462548 235.248909 
L 88.372529 239.256538 
L 89.48292 243.213328 
L 90.790911 247.109263 
L 92.293191 250.934483 
L 93.985957 254.679305 
L 95.864925 258.334251 
L 97.92534 261.89007 
L 100.161985 265.33776 
L 102.569199 268.668597 
L 105.14089 271.874148 
L 107.870548 274.9463 
L 110.751265 277.877277 
L 113.775747 280.65966 
L 116.936341 283.286407 
L 120.225046 285.750869 
L 123.633538 288.046808 
L 127.153189 290.168413 
L 130.775091 292.110313 
L 134.490077 293.867594 
L 138.288742 295.435807 
L 142.161473 296.810983 
L 146.098466 297.989642 
L 150.089757 298.968799 
L 154.125243 299.745977 
L 158.19471 300.319208 
L 162.287856 300.687042 
L 166.394323 300.848547 
L 167.421803 300.856625 
L 212.373089 300.759706 
L 216.471514 300.456274 
L 220.54949 299.947098 
L 224.596697 299.233467 
L 228.60289 298.317186 
L 232.557928 297.200574 
L 236.451802 295.886459 
L 240.274655 294.378167 
L 244.016811 292.679514 
L 247.668799 290.794801 
L 251.221373 288.728798 
L 254.665543 286.486735 
L 257.99259 284.074286 
L 261.194093 281.497558 
L 264.261949 278.763073 
L 267.188393 275.877751 
L 269.966018 272.848898 
L 272.587792 269.684178 
L 275.04708 266.391602 
L 277.337656 262.979504 
L 279.453724 259.456521 
L 281.389927 255.83157 
L 283.141364 252.113826 
L 284.703603 248.312699 
L 286.072688 244.437811 
L 287.245154 240.498969 
L 288.218035 236.506144 
L 288.988866 232.469441 
L 289.555698 228.399078 
L 289.917096 224.305358 
L 290.072144 220.198642 
L 290.076991 219.684907 
L 290.078606 178.328363 
L 290.078606 178.328363 
" style="fill:none;stroke:#1f77b4;stroke-linecap:square;stroke-width:1.5;"/>
   </g>
   <g id="line2d_2">
    <path clip-path="url(#p39c241d97d)" d="M 290.078606 178.328363 
L 289.975227 174.220022 
L 289.665352 170.12208 
L 289.149764 166.044909 
L 288.42977 161.99883 
L 287.50719 157.994082 
L 286.384362 154.040804 
L 285.064126 150.149001 
L 283.549824 146.328525 
L 281.84529 142.589044 
L 279.954837 138.940025 
L 277.88325 135.390704 
L 275.635774 131.950064 
L 273.218097 128.626814 
L 270.636338 125.429366 
L 267.897032 122.365813 
L 265.007113 119.44391 
L 261.973896 116.671051 
L 258.805057 114.054256 
L 255.508619 111.600149 
L 252.092924 109.31494 
L 248.566618 107.204414 
L 244.938627 105.273913 
L 241.218133 103.528324 
L 237.414555 101.972064 
L 233.537519 100.609074 
L 229.596839 99.442802 
L 225.602488 98.476201 
L 221.564578 97.711717 
L 217.493329 97.151286 
L 213.399046 96.796326 
L 209.292092 96.647736 
L 205.182862 96.70589 
L 201.081757 96.970644 
L 196.999159 97.441325 
L 192.9454 98.116743 
L 188.930741 98.995189 
L 184.965344 100.074439 
L 181.059246 101.35176 
L 177.222333 102.823921 
L 173.464319 104.487194 
L 169.794714 106.33737 
L 166.222806 108.369765 
L 162.757638 110.579236 
L 159.40798 112.96019 
L 156.18231 115.5066 
L 153.088793 118.212022 
L 150.135259 121.069606 
L 147.329184 124.072121 
L 144.67767 127.211966 
L 142.187429 130.481194 
L 139.864765 133.871531 
L 137.715555 137.374394 
L 135.74524 140.980917 
L 133.958807 144.681973 
L 132.360778 148.468192 
L 130.955198 152.329992 
L 129.745625 156.257597 
L 128.735119 160.241067 
L 127.926239 164.270318 
L 127.321032 168.335152 
L 126.92103 172.42528 
L 126.727246 176.53035 
L 126.74017 180.639972 
L 126.959769 184.743742 
L 127.385487 188.831273 
L 128.016248 192.892221 
L 128.850453 196.916305 
L 129.885993 200.89334 
L 131.120245 204.81326 
L 132.550086 208.666143 
L 134.171896 212.442237 
L 135.981571 216.131984 
L 137.97453 219.726044 
L 140.145728 223.21532 
L 142.48967 226.590981 
L 145.000423 229.844482 
L 147.671633 232.967589 
L 150.496536 235.952396 
L 153.467984 238.791348 
L 156.578456 241.477259 
L 159.820078 244.003331 
L 163.184645 246.363171 
L 166.66364 248.550804 
L 170.24826 250.560694 
L 173.929429 252.387754 
L 177.69783 254.027358 
L 181.543925 255.475358 
L 185.45798 256.728087 
L 189.430086 257.782375 
L 193.450191 258.635553 
L 197.508118 259.285462 
L 201.593596 259.730457 
L 205.696284 259.969411 
L 209.805799 260.00172 
L 213.911737 259.827302 
L 218.003707 259.446599 
L 222.071351 258.860573 
L 226.104373 258.070708 
L 230.092565 257.079004 
L 234.025832 255.887971 
L 237.894219 254.500623 
L 241.687934 252.920471 
L 245.397375 251.151517 
L 249.013153 249.198236 
L 252.526115 247.065574 
L 255.92737 244.758927 
L 259.208308 242.284135 
L 262.360626 239.647462 
L 265.376344 236.855581 
L 268.247828 233.91556 
L 270.967812 230.834839 
L 273.52941 227.621216 
L 275.926138 224.282826 
L 278.15193 220.828119 
L 280.201152 217.265839 
L 282.068617 213.605002 
L 283.749598 209.854875 
L 285.239842 206.02495 
L 286.535574 202.12492 
L 287.633517 198.164658 
L 288.53089 194.154188 
L 289.225423 190.10366 
L 289.715357 186.023327 
L 289.999453 181.923517 
L 290.078606 178.328363 
L 290.078606 178.328363 
" style="fill:none;stroke:#ff7f0e;stroke-linecap:square;stroke-width:1.5;"/>
   </g>
   <g id="line2d_3">
    <defs>
     <path d="M 0 3 
C 0.795609 3 1.55874 2.683901 2.12132 2.12132 
C 2.683901 1.55874 3 0.795609 3 0 
C 3 -0.795609 2.683901 -1.55874 2.12132 -2.12132 
C 1.55874 -2.683901 0.795609 -3 0 -3 
C -0.795609 -3 -1.55874 -2.683901 -2.12132 -2.12132 
C -2.683901 -1.55874 -3 -0.795609 -3 0 
C -3 0.795609 -2.683901 1.55874 -2.12132 2.12132 
C -1.55874 2.683901 -0.795609 3 0 3 
z
" id="md04d49c227" style="stroke:#ff7f0e;"/>
    </defs>
    <g clip-path="url(#p39c241d97d)">
     <use style="fill:#ff7f0e;stroke:#ff7f0e;" x="208.393031" xlink:href="#md04d49c227" y="178.328363"/>
    </g>
   </g>
   <g id="line2d_4">
    <defs>
     <path d="M 0 3 
C 0.795609 3 1.55874 2.683901 2.12132 2.12132 
C 2.683901 1.55874 3 0.795609 3 0 
C 3 -0.795609 2.683901 -1.55874 2.12132 -2.12132 
C 1.55874 -2.683901 0.795609 -3 0 -3 
C -0.795609 -3 -1.55874 -2.683901 -2.12132 -2.12132 
C -2.683901 -1.55874 -3 -0.795609 -3 0 
C -3 0.795609 -2.683901 1.55874 -2.12132 2.12132 
C -1.55874 2.683901 -0.795609 3 0 3 
z
" id="m13c6db46a1" style="stroke:#1f77b4;"/>
    </defs>
    <g clip-path="url(#p39c241d97d)">
     <use style="fill:#1f77b4;stroke:#1f77b4;" x="167.550243" xlink:href="#m13c6db46a1" y="137.485575"/>
    </g>
   </g>
   <g id="line2d_5">
    <path clip-path="url(#p39c241d97d)" d="M 249.235818 137.485575 
L 249.132439 133.377234 
L 248.822564 129.279292 
L 248.306976 125.202122 
L 247.586982 121.156042 
L 246.664403 117.151295 
L 245.541574 113.198017 
L 244.221338 109.306214 
L 242.707036 105.485737 
L 241.002502 101.746257 
L 239.112049 98.097237 
L 237.040463 94.547916 
L 234.792987 91.107276 
L 232.375309 87.784026 
L 229.793551 84.586578 
L 227.054245 81.523025 
L 224.164326 78.601122 
L 221.131108 75.828263 
L 217.96227 73.211469 
L 214.665831 70.757361 
L 211.250136 68.472152 
L 207.72383 66.361626 
L 204.095839 64.431126 
L 200.375346 62.685536 
L 196.571767 61.129277 
L 192.694731 59.766286 
L 188.754051 58.600014 
L 184.7597 57.633413 
L 180.72179 56.86893 
L 176.650541 56.308499 
L 172.556258 55.953538 
L 168.449304 55.804948 
L 164.340074 55.863103 
L 160.238969 56.127856 
L 156.156371 56.598537 
L 152.102612 57.273956 
L 148.087953 58.152401 
L 144.122556 59.231651 
L 140.216458 60.508972 
L 136.379546 61.981133 
L 132.621531 63.644406 
L 128.951926 65.494582 
L 125.380019 67.526978 
L 121.914851 69.736449 
L 118.565192 72.117402 
L 115.339522 74.663813 
L 112.246005 77.369234 
L 109.292471 80.226819 
L 106.486396 83.229333 
L 103.834882 86.369178 
L 101.344642 89.638407 
L 99.021977 93.028743 
L 96.872767 96.531606 
L 94.902452 100.13813 
L 93.11602 103.839185 
L 91.517991 107.625404 
L 90.112411 111.487204 
L 88.902837 115.414809 
L 87.892331 119.398279 
L 87.083451 123.42753 
L 86.478245 127.492364 
L 86.078243 131.582493 
L 85.884459 135.687563 
L 85.897382 139.797184 
L 86.116981 143.900954 
L 86.5427 147.988486 
L 87.17346 152.049433 
L 88.007666 156.073517 
L 89.043205 160.050553 
L 90.277457 163.970473 
L 91.707298 167.823356 
L 93.329109 171.599449 
L 95.138783 175.289196 
L 97.131742 178.883256 
L 99.302941 182.372532 
L 101.646883 185.748193 
L 104.157636 189.001695 
L 106.828845 192.124801 
L 109.653749 195.109608 
L 112.625197 197.94856 
L 115.735668 200.634471 
L 118.97729 203.160544 
L 122.341857 205.520383 
L 125.820853 207.708016 
L 129.405472 209.717906 
L 133.086641 211.544966 
L 136.855042 213.184571 
L 140.701138 214.63257 
L 144.615192 215.885299 
L 148.587299 216.939587 
L 152.607403 217.792765 
L 156.66533 218.442674 
L 160.750808 218.887669 
L 164.853497 219.126624 
L 168.963011 219.158933 
L 173.068949 218.984515 
L 177.160919 218.603811 
L 181.228563 218.017785 
L 185.261585 217.22792 
L 189.249777 216.236216 
L 193.183044 215.045183 
L 197.051431 213.657835 
L 200.845146 212.077684 
L 204.554587 210.308729 
L 208.170365 208.355449 
L 211.683327 206.222786 
L 215.084582 203.91614 
L 218.36552 201.441348 
L 221.517838 198.804675 
L 224.533556 196.012794 
L 227.405041 193.072772 
L 230.125024 189.992051 
L 232.686622 186.778429 
L 235.08335 183.440039 
L 237.309142 179.985331 
L 239.358364 176.423051 
L 241.225829 172.762214 
L 242.906811 169.012087 
L 244.397054 165.182162 
L 245.692787 161.282132 
L 246.790729 157.321871 
L 247.688102 153.3114 
L 248.382635 149.260872 
L 248.872569 145.180539 
L 249.156665 141.080729 
L 249.235818 137.485575 
L 249.235818 137.485575 
" style="fill:none;stroke:#1f77b4;stroke-dasharray:5.55,2.4;stroke-dashoffset:0;stroke-width:1.5;"/>
   </g>
   <g id="text_1">
    <!-- $r$ -->
    <g transform="translate(246.988455 175.917889)scale(0.1 -0.1)">
     <defs>
      <path d="M 38.90625 40.8125 
C 35.796875 40.21875 34.203125 38.015625 34.203125 35.828125 
C 34.203125 33.421875 36.09375 32.625 37.5 32.625 
C 40.296875 32.625 42.59375 35.03125 42.59375 38.015625 
C 42.59375 41.21875 39.5 44 34.5 44 
C 30.5 44 25.90625 42.203125 21.703125 36.125 
C 21 41.40625 17 44 13 44 
C 9.09375 44 7.09375 41.015625 5.90625 38.8125 
C 4.203125 35.21875 2.703125 29.234375 2.703125 28.734375 
C 2.703125 28.34375 3.09375 27.84375 3.796875 27.84375 
C 4.59375 27.84375 4.703125 27.9375 5.296875 30.234375 
C 6.796875 36.21875 8.703125 42.015625 12.703125 42.015625 
C 15.09375 42.015625 15.796875 40.3125 15.796875 37.421875 
C 15.796875 35.21875 14.796875 31.328125 14.09375 28.234375 
L 11.296875 17.46875 
C 10.90625 15.5625 9.796875 11.078125 9.296875 9.28125 
C 8.59375 6.6875 7.5 2 7.5 1.5 
C 7.5 0.09375 8.59375 -1 10.09375 -1 
C 11.203125 -1 13.09375 -0.296875 13.703125 1.703125 
C 14 2.5 17.703125 17.5625 18.296875 19.859375 
C 18.796875 22.046875 19.40625 24.15625 19.90625 26.34375 
C 20.296875 27.734375 20.703125 29.34375 21 30.640625 
C 21.296875 31.53125 24 36.421875 26.5 38.625 
C 27.703125 39.71875 30.296875 42.015625 34.40625 42.015625 
C 36 42.015625 37.59375 41.71875 38.90625 40.8125 
z
" id="CMMI12-114"/>
     </defs>
     <use transform="scale(0.996264)" xlink:href="#CMMI12-114"/>
    </g>
   </g>
   <g id="text_2">
    <!-- $r$ -->
    <g transform="translate(139.490135 106.202726)rotate(-315)scale(0.1 -0.1)">
     <use transform="scale(0.996264)" xlink:href="#CMMI12-114"/>
    </g>
   </g>
   <g id="text_3">
    <!-- $2b$ -->
    <g transform="translate(79.072595 185.152911)rotate(-90)scale(0.1 -0.1)">
     <defs>
      <path d="M 41.703125 15.453125 
L 39.90625 15.453125 
C 38.90625 8.375 38.09375 7.171875 37.703125 6.5625 
C 37.203125 5.765625 30 5.765625 28.59375 5.765625 
L 9.40625 5.765625 
C 13 9.671875 20 16.75 28.5 24.953125 
C 34.59375 30.734375 41.703125 37.53125 41.703125 47.421875 
C 41.703125 59.21875 32.296875 66 21.796875 66 
C 10.796875 66 4.09375 56.3125 4.09375 47.34375 
C 4.09375 43.4375 7 42.9375 8.203125 42.9375 
C 9.203125 42.9375 12.203125 43.546875 12.203125 47.03125 
C 12.203125 50.109375 9.59375 51 8.203125 51 
C 7.59375 51 7 50.90625 6.59375 50.703125 
C 8.5 59.21875 14.296875 63.40625 20.40625 63.40625 
C 29.09375 63.40625 34.796875 56.515625 34.796875 47.421875 
C 34.796875 38.734375 29.703125 31.25 24 24.75 
L 4.09375 2.28125 
L 4.09375 0 
L 39.296875 0 
z
" id="CMR17-50"/>
      <path d="M 23.09375 66.515625 
C 23.203125 66.921875 23.40625 67.515625 23.40625 68 
C 23.40625 69 22.40625 69 22.203125 69 
C 22.09375 69 18.5 68.640625 16.703125 68.390625 
C 15 68.390625 13.5 68.09375 11.703125 68.09375 
C 9.296875 67.890625 8.59375 67.796875 8.59375 66 
C 8.59375 65 9.59375 65 10.59375 65 
C 15.703125 65 15.703125 64.109375 15.703125 63.125 
C 15.703125 62.4375 14.90625 59.546875 14.5 57.75 
L 12.09375 48.203125 
C 11.09375 44.234375 5.40625 21.671875 5 19.875 
C 4.5 17.40625 4.5 15.703125 4.5 14.40625 
C 4.5 4.28125 10.203125 -1 16.703125 -1 
C 28.296875 -1 40.296875 13.875 40.296875 28.34375 
C 40.296875 37.515625 35.09375 44 27.59375 44 
C 22.40625 44 17.703125 39.71875 15.796875 37.71875 
z
M 16.796875 1 
C 13.59375 1 10.09375 3.390625 10.09375 11.171875 
C 10.09375 14.46875 10.40625 16.359375 12.203125 23.34375 
C 12.5 24.640625 14.09375 31.03125 14.5 32.328125 
C 14.703125 33.125 20.59375 42.015625 27.40625 42.015625 
C 31.796875 42.015625 33.796875 37.625 33.796875 32.4375 
C 33.796875 27.640625 31 16.359375 28.5 11.171875 
C 26 5.78125 21.40625 1 16.796875 1 
z
" id="CMMI12-98"/>
     </defs>
     <use transform="scale(0.996264)" xlink:href="#CMR17-50"/>
     <use transform="translate(45.690477 0)scale(0.996264)" xlink:href="#CMMI12-98"/>
    </g>
   </g>
   <g id="text_4">
    <!-- $2d$ -->
    <g transform="translate(182.88826 314.619996)scale(0.1 -0.1)">
     <defs>
      <path d="M 50.296875 66.515625 
C 50.40625 66.90625 50.59375 67.5 50.59375 68 
C 50.59375 69 49.59375 69 49.40625 69 
C 49.296875 69 44.40625 68.5625 43.90625 68.4375 
C 42.203125 68.328125 40.703125 68.09375 38.90625 68.09375 
C 36.40625 67.890625 35.703125 67.796875 35.703125 66 
C 35.703125 65 36.5 65 37.90625 65 
C 42.796875 65 42.90625 64.109375 42.90625 63.125 
C 42.90625 62.53125 42.703125 61.75 42.59375 61.453125 
L 36.5 37.421875 
C 35.40625 40.015625 32.703125 44 27.5 44 
C 16.203125 44 4 29.4375 4 14.671875 
C 4 4.796875 9.796875 -1 16.59375 -1 
C 22.09375 -1 26.796875 3.296875 29.59375 6.59375 
C 30.59375 0.703125 35.296875 -1 38.296875 -1 
C 41.296875 -1 43.703125 0.796875 45.5 4.390625 
C 47.09375 7.78125 48.5 13.875 48.5 14.265625 
C 48.5 14.765625 48.09375 15.171875 47.5 15.171875 
C 46.59375 15.171875 46.5 14.671875 46.09375 13.171875 
C 44.59375 7.28125 42.703125 1 38.59375 1 
C 35.703125 1 35.5 3.578125 35.5 5.578125 
C 35.5 5.96875 35.5 8.046875 36.203125 10.84375 
z
M 30.09375 11.875 
C 29.59375 10.171875 29.59375 9.984375 28.203125 8.078125 
C 26 5.28125 21.59375 1 16.90625 1 
C 12.796875 1 10.5 4.6875 10.5 10.578125 
C 10.5 16.0625 13.59375 27.234375 15.5 31.4375 
C 18.90625 38.421875 23.59375 42.015625 27.5 42.015625 
C 34.09375 42.015625 35.40625 33.828125 35.40625 33.03125 
C 35.40625 32.9375 35.09375 31.625 35 31.4375 
z
" id="CMMI12-100"/>
     </defs>
     <use transform="scale(0.996264)" xlink:href="#CMR17-50"/>
     <use transform="translate(45.690477 0)scale(0.996264)" xlink:href="#CMMI12-100"/>
    </g>
   </g>
  </g>
 </g>
 <defs>
  <clipPath id="p39c241d97d">
   <rect height="277.2" width="232.272934" x="68.363533" y="43.2"/>
  </clipPath>
 </defs>
</svg>
