<?xml version="1.0" encoding="utf-8" standalone="no"?>
<!DOCTYPE svg PUBLIC "-//W3C//DTD SVG 1.1//EN"
  "http://www.w3.org/Graphics/SVG/1.1/DTD/svg11.dtd">
<!-- Created with matplotlib (https://matplotlib.org/) -->
<svg height="72pt" version="1.1" viewBox="0 0 576 72" width="576pt" xmlns="http://www.w3.org/2000/svg" xmlns:xlink="http://www.w3.org/1999/xlink">
 <metadata>
  <rdf:RDF xmlns:cc="http://creativecommons.org/ns#" xmlns:dc="http://purl.org/dc/elements/1.1/" xmlns:rdf="http://www.w3.org/1999/02/22-rdf-syntax-ns#">
   <cc:Work>
    <dc:type rdf:resource="http://purl.org/dc/dcmitype/StillImage"/>
    <dc:date>2022-09-20T09:40:36.342011</dc:date>
    <dc:format>image/svg+xml</dc:format>
    <dc:creator>
     <cc:Agent>
      <dc:title>Matplotlib v3.3.3, https://matplotlib.org/</dc:title>
     </cc:Agent>
    </dc:creator>
   </cc:Work>
  </rdf:RDF>
 </metadata>
 <defs>
  <style type="text/css">*{stroke-linecap:butt;stroke-linejoin:round;}</style>
 </defs>
 <g id="figure_1">
  <g id="patch_1">
   <path d="M 0 72 
L 576 72 
L 576 0 
L 0 0 
z
" style="fill:#ffffff;"/>
  </g>
  <g id="axes_1">
   <g id="line2d_1">
    <path clip-path="url(#pe65c9e6f93)" d="M 73.441866 56.708697 
L 75.408254 52.63 
L 76.659539 50.560747 
L 77.909136 48.915515 
L 79.240055 47.521889 
L 80.772989 46.245137 
L 82.562856 45.055033 
L 84.830318 43.831672 
L 88.905122 41.946534 
L 92.025891 40.384492 
L 94.017949 39.141153 
L 95.6391 37.867475 
L 97.008612 36.512443 
L 98.261379 34.955523 
L 99.429562 33.143735 
L 100.662731 30.800939 
L 104.707281 22.670179 
L 105.952619 20.935547 
L 107.287997 19.461238 
L 108.73911 18.187807 
L 110.440242 16.99411 
L 112.559875 15.793204 
L 115.677237 14.312897 
L 115.970307 14.180256 
L 115.970307 14.180256 
" style="fill:none;stroke:#1f77b4;stroke-linecap:square;stroke-width:1.5;"/>
   </g>
   <g id="line2d_2">
    <path clip-path="url(#pe65c9e6f93)" d="M 30.913426 14.180256 
L 32.879813 18.258953 
L 34.131099 20.328206 
L 35.380696 21.973438 
L 36.711614 23.367064 
L 38.244549 24.643817 
L 40.034416 25.83392 
L 42.301877 27.057281 
L 46.376681 28.942419 
L 49.49745 30.504461 
L 51.489509 31.7478 
L 53.110659 33.021478 
L 54.480171 34.376511 
L 55.732938 35.933431 
L 56.901122 37.745218 
L 58.13429 40.088014 
L 62.17884 48.218774 
L 63.424179 49.953406 
L 64.759556 51.427715 
L 66.21067 52.701147 
L 67.911801 53.894844 
L 70.031435 55.095749 
L 73.148797 56.576057 
L 73.441866 56.708697 
L 73.441866 56.708697 
" style="fill:none;stroke:#ff7f0e;stroke-linecap:square;stroke-width:1.5;"/>
   </g>
   <g id="text_1">
    <!-- $\gamma_1$ -->
    <g transform="translate(115.970307 14.180256)scale(0.1 -0.1)">
     <defs>
      <path d="M 37.796875 11.875 
C 37.59375 16.734375 37.40625 24.390625 33.59375 33.328125 
C 31.59375 38.3125 28.203125 43.5625 20.90625 43.5625 
C 8.59375 43.5625 1.90625 27.96875 1.90625 25.390625 
C 1.90625 24.484375 2.59375 24.484375 2.90625 24.484375 
C 3.796875 24.484375 3.796875 24.6875 4.296875 25.984375 
C 6.40625 32.140625 12.796875 37 19.703125 37 
C 33.59375 37 35.59375 21.609375 35.59375 11.78125 
C 35.59375 5.5 34.90625 3.4375 34.296875 1.4375 
C 32.40625 -4.71875 29.09375 -17.03125 29.09375 -19.8125 
C 29.09375 -20.609375 29.40625 -21.5 30.203125 -21.5 
C 31.703125 -21.5 32.59375 -18.21875 33.703125 -14.25 
C 36.09375 -5.515625 36.703125 -1.140625 37.203125 2.828125 
C 37.5 5.21875 43.203125 21.625 51.09375 37.21875 
C 51.796875 38.796875 53.203125 41.484375 53.203125 41.78125 
C 53.203125 41.875 53.09375 42.578125 52.203125 42.578125 
C 52 42.578125 51.5 42.578125 51.296875 42.171875 
C 51.09375 41.984375 47.59375 35.21875 44.59375 28.46875 
C 43.09375 25.09375 41.09375 20.625 37.796875 11.875 
z
" id="CMMI12-13"/>
      <path d="M 26.59375 63.40625 
C 26.59375 65.5 26.5 65.5 25.09375 65.5 
C 21.203125 61.1875 15.296875 59.796875 9.703125 59.796875 
C 9.40625 59.796875 8.90625 59.796875 8.796875 59.5 
C 8.703125 59.296875 8.703125 59.09375 8.703125 57 
C 11.796875 57 17 57.59375 21 59.984375 
L 21 7.203125 
C 21 3.6875 20.796875 2.5 12.203125 2.5 
L 9.203125 2.5 
L 9.203125 0 
C 14 0 19 0 23.796875 0 
C 28.59375 0 33.59375 0 38.40625 0 
L 38.40625 2.5 
L 35.40625 2.5 
C 26.796875 2.5 26.59375 3.59375 26.59375 7.15625 
z
" id="CMR17-49"/>
     </defs>
     <use transform="scale(0.996264)" xlink:href="#CMMI12-13"/>
     <use transform="translate(50.599133 -14.943915)scale(0.697382)" xlink:href="#CMR17-49"/>
    </g>
   </g>
   <g id="text_2">
    <!-- $\gamma_2$ -->
    <g transform="translate(30.913426 14.180256)scale(0.1 -0.1)">
     <defs>
      <path d="M 41.703125 15.453125 
L 39.90625 15.453125 
C 38.90625 8.375 38.09375 7.171875 37.703125 6.5625 
C 37.203125 5.765625 30 5.765625 28.59375 5.765625 
L 9.40625 5.765625 
C 13 9.671875 20 16.75 28.5 24.953125 
C 34.59375 30.734375 41.703125 37.53125 41.703125 47.421875 
C 41.703125 59.21875 32.296875 66 21.796875 66 
C 10.796875 66 4.09375 56.3125 4.09375 47.34375 
C 4.09375 43.4375 7 42.9375 8.203125 42.9375 
C 9.203125 42.9375 12.203125 43.546875 12.203125 47.03125 
C 12.203125 50.109375 9.59375 51 8.203125 51 
C 7.59375 51 7 50.90625 6.59375 50.703125 
C 8.5 59.21875 14.296875 63.40625 20.40625 63.40625 
C 29.09375 63.40625 34.796875 56.515625 34.796875 47.421875 
C 34.796875 38.734375 29.703125 31.25 24 24.75 
L 4.09375 2.28125 
L 4.09375 0 
L 39.296875 0 
z
" id="CMR17-50"/>
     </defs>
     <use transform="scale(0.996264)" xlink:href="#CMMI12-13"/>
     <use transform="translate(50.599133 -14.943915)scale(0.697382)" xlink:href="#CMR17-50"/>
    </g>
   </g>
  </g>
  <g id="axes_2">
   <g id="line2d_3">
    <path clip-path="url(#p11b970832a)" d="M 217.229413 53.88374 
L 218.495878 51.92572 
L 219.818804 50.292866 
L 221.216963 48.914386 
L 222.817352 47.648565 
L 224.732361 46.428658 
L 227.204311 45.138708 
L 235.472716 41.046586 
L 237.2623 39.790822 
L 238.788865 38.451178 
L 240.153606 36.94971 
L 241.39817 35.238495 
L 242.625145 33.151415 
L 244.008334 30.32486 
L 246.795994 24.513892 
L 248.062572 22.466415 
L 249.350673 20.798737 
L 250.760935 19.34279 
L 252.332114 18.04776 
L 254.163599 16.833898 
L 256.489028 15.576565 
L 259.481603 14.180256 
L 259.481603 14.180256 
" style="fill:none;stroke:#1f77b4;stroke-linecap:square;stroke-width:1.5;"/>
   </g>
   <g id="line2d_4">
    <path clip-path="url(#p11b970832a)" d="M 170.00213 14.180256 
L 172.007859 18.354792 
L 173.279106 20.487168 
L 174.538011 22.184042 
L 175.917887 23.670375 
L 177.459414 24.995057 
L 179.207927 26.202322 
L 181.386777 27.427096 
L 184.607067 28.953965 
L 189.148078 31.130633 
L 191.275991 32.406342 
L 192.968045 33.670067 
L 194.449323 35.054998 
L 195.769037 36.601494 
L 196.971744 38.354565 
L 198.19254 40.537393 
L 199.744911 43.82175 
L 201.865752 48.239449 
L 203.141462 50.367363 
L 204.405186 52.059417 
L 205.790117 53.540695 
L 207.336614 54.860408 
L 208.596873 55.749805 
L 208.596873 55.749805 
" style="fill:none;stroke:#ff7f0e;stroke-linecap:square;stroke-width:1.5;"/>
   </g>
   <g id="line2d_5">
    <path clip-path="url(#p11b970832a)" d="M 208.648779 55.779712 
L 209.71987 56.302953 
L 210.870094 56.616005 
L 212.058622 56.707758 
L 213.243265 56.574955 
L 214.381974 56.222308 
L 215.434328 55.662337 
L 216.362973 54.914918 
L 217.134945 54.006581 
L 217.202417 53.908095 
L 217.202417 53.908095 
" style="fill:none;stroke:#2ca02c;stroke-linecap:square;stroke-width:1.5;"/>
   </g>
   <g id="text_3">
    <!-- $\overline{\gamma_1}$ -->
    <g transform="translate(259.481603 14.180256)scale(0.1 -0.1)">
     <use transform="scale(0.996264)" xlink:href="#CMMI12-13"/>
     <use transform="translate(50.599133 -14.943915)scale(0.697382)" xlink:href="#CMR17-49"/>
     <path d="M 0 54.849612 
L 83.080447 54.849612 
L 83.080447 58.834561 
L 0 58.834561 
L 0 54.849612 
z
"/>
    </g>
   </g>
   <g id="text_4">
    <!-- $\overline{\gamma_2}$ -->
    <g transform="translate(170.00213 14.180256)scale(0.1 -0.1)">
     <use transform="scale(0.996264)" xlink:href="#CMMI12-13"/>
     <use transform="translate(50.599133 -14.943915)scale(0.697382)" xlink:href="#CMR17-50"/>
     <path d="M 0 54.849612 
L 83.080447 54.849612 
L 83.080447 58.834561 
L 0 58.834561 
L 0 54.849612 
z
"/>
    </g>
   </g>
   <g id="text_5">
    <!-- $\overline{\phi}_{0.1}^{\gamma_1, \gamma_2}$ -->
    <g transform="translate(223.551647 63.325568)scale(0.1 -0.1)">
     <defs>
      <path d="M 43 68.59375 
C 43 69.5 42.296875 69.5 42 69.5 
C 41.09375 69.5 41 69.296875 40.59375 67.59375 
L 35.203125 45.921875 
C 34.90625 44.625 34.796875 44.515625 34.703125 44.421875 
C 34.59375 44.21875 33.90625 44.125 33.703125 44.125 
C 17.296875 42.71875 4.703125 29.125 4.703125 16.515625 
C 4.703125 5.640625 13 -1 23.40625 -1 
C 22.59375 -4.078125 21.90625 -7.234375 21.09375 -10.296875 
C 19.703125 -15.546875 18.90625 -18.8125 18.90625 -19.203125 
C 18.90625 -19.390625 18.90625 -20 19.90625 -20 
C 20.203125 -20 20.59375 -20 20.796875 -19.59375 
C 21 -19.390625 21.59375 -17.015625 22 -15.75 
L 25.703125 -1 
C 42.796875 -1 55.796875 13.34375 55.796875 26.25 
C 55.796875 36.609375 48.203125 44 37.09375 44 
z
M 36.5 42.203125 
C 43.09375 42.203125 49.703125 38.484375 49.703125 28.5625 
C 49.703125 17.140625 41.796875 2 26.203125 0.78125 
z
M 23.90625 0.78125 
C 19 0.78125 10.796875 3.4375 10.796875 14.65625 
C 10.796875 27.515625 19.90625 41.8125 34.296875 41.8125 
z
" id="CMMI12-30"/>
      <path d="M 19.5 -0.484375 
C 19.5 5.359375 17.59375 9.671875 13.5 9.671875 
C 10.296875 9.671875 8.703125 7.078125 8.703125 4.890625 
C 8.703125 2.6875 10.203125 0 13.59375 0 
C 14.90625 0 16 0.40625 16.90625 1.296875 
C 17.09375 1.5 17.203125 1.5 17.296875 1.5 
C 17.5 1.5 17.5 0.078125 17.5 -0.421875 
C 17.5 -3.75 16.90625 -10.296875 11.09375 -16.875 
C 10 -18.078125 10 -18.28125 10 -18.484375 
C 10 -19 10.5 -19.5 11 -19.5 
C 11.796875 -19.5 19.5 -12.046875 19.5 -0.484375 
z
" id="CMMI12-59"/>
      <path d="M 42 31.640625 
C 42 37.75 41.90625 48.125 37.703125 56.109375 
C 34 63.109375 28.09375 65.59375 22.90625 65.59375 
C 18.09375 65.59375 12 63.40625 8.203125 56.203125 
C 4.203125 48.71875 3.796875 39.4375 3.796875 31.640625 
C 3.796875 25.953125 3.90625 17.28125 7 9.671875 
C 11.296875 -0.609375 19 -2 22.90625 -2 
C 27.5 -2 34.5 -0.109375 38.59375 9.375 
C 41.59375 16.28125 42 24.359375 42 31.640625 
z
M 22.90625 -0.40625 
C 16.5 -0.40625 12.703125 5.078125 11.296875 12.6875 
C 10.203125 18.5625 10.203125 27.15625 10.203125 32.75 
C 10.203125 40.4375 10.203125 46.828125 11.5 52.921875 
C 13.40625 61.390625 19 64 22.90625 64 
C 27 64 32.296875 61.296875 34.203125 53.125 
C 35.5 47.4375 35.59375 40.734375 35.59375 32.75 
C 35.59375 26.25 35.59375 18.265625 34.40625 12.375 
C 32.296875 1.484375 26.40625 -0.40625 22.90625 -0.40625 
z
" id="CMR17-48"/>
      <path d="M 18.40625 4.796875 
C 18.40625 7.6875 16 9.671875 13.59375 9.671875 
C 10.703125 9.671875 8.703125 7.28125 8.703125 4.890625 
C 8.703125 2 11.09375 0 13.5 0 
C 16.40625 0 18.40625 2.390625 18.40625 4.796875 
z
" id="CMMI12-58"/>
     </defs>
     <use transform="scale(0.996264)" xlink:href="#CMMI12-30"/>
     <use transform="translate(57.73418 62.18318)scale(0.697382)" xlink:href="#CMMI12-13"/>
     <use transform="translate(93.153406 51.722484)scale(0.498132)" xlink:href="#CMR17-49"/>
     <use transform="translate(116.496777 62.18318)scale(0.697382)" xlink:href="#CMMI12-59"/>
     <use transform="translate(135.464709 62.18318)scale(0.697382)" xlink:href="#CMMI12-13"/>
     <use transform="translate(170.883935 51.722484)scale(0.498132)" xlink:href="#CMR17-50"/>
     <use transform="translate(57.73418 -24.62935)scale(0.697382)" xlink:href="#CMR17-48"/>
     <use transform="translate(89.717362 -24.62935)scale(0.697382)" xlink:href="#CMMI12-58"/>
     <use transform="translate(108.685295 -24.62935)scale(0.697382)" xlink:href="#CMR17-49"/>
     <path d="M 0 81.139772 
L 57.73418 81.139772 
L 57.73418 85.124722 
L 0 85.124722 
L 0 81.139772 
z
"/>
    </g>
   </g>
  </g>
  <g id="axes_3">
   <g id="line2d_6">
    <path clip-path="url(#p456e936baf)" d="M 362.347811 53.137797 
L 363.911324 51.746415 
L 365.684064 50.465763 
L 367.85092 49.18524 
L 370.750468 47.750942 
L 377.603858 44.45919 
L 379.729156 43.13711 
L 381.510151 41.766216 
L 383.021619 40.322789 
L 384.376999 38.723273 
L 385.66186 36.856245 
L 386.941739 34.590249 
L 388.503338 31.325519 
L 391.04685 25.98931 
L 392.405514 23.703602 
L 393.740215 21.886415 
L 395.147152 20.338456 
L 396.710665 18.947073 
L 398.483405 17.666421 
L 400.650261 16.385899 
L 403.549809 14.9516 
L 405.240879 14.180256 
L 405.240879 14.180256 
" style="fill:none;stroke:#1f77b4;stroke-linecap:square;stroke-width:1.5;"/>
   </g>
   <g id="line2d_7">
    <path clip-path="url(#p456e936baf)" d="M 306.842854 14.180256 
L 308.97975 18.642628 
L 310.329019 20.93773 
L 311.653567 22.765071 
L 313.050127 24.323406 
L 314.603277 25.725151 
L 316.3662 27.015621 
L 318.460338 28.270364 
L 321.282599 29.683454 
L 328.655934 33.243233 
L 330.761814 34.584731 
L 332.46933 35.930607 
L 333.965105 37.389728 
L 335.305208 39.00452 
L 336.575603 40.886014 
L 337.876302 43.229687 
L 339.51945 46.708358 
L 340.351227 48.535986 
L 340.351227 48.535986 
" style="fill:none;stroke:#ff7f0e;stroke-linecap:square;stroke-width:1.5;"/>
   </g>
   <g id="line2d_8">
    <path clip-path="url(#p456e936baf)" d="M 340.383006 48.604616 
L 341.212004 50.144987 
L 342.227705 51.569183 
L 343.414057 52.854699 
L 344.752313 53.98122 
L 346.221327 54.930946 
L 347.797886 55.688868 
L 349.457075 56.243009 
L 351.172676 56.584614 
L 352.917579 56.708284 
L 354.664211 56.612065 
L 356.384971 56.297476 
L 358.052668 55.769491 
L 359.640948 55.036451 
L 361.124713 54.10994 
L 362.286171 53.181144 
L 362.286171 53.181144 
" style="fill:none;stroke:#2ca02c;stroke-linecap:square;stroke-width:1.5;"/>
   </g>
   <g id="text_6">
    <!-- $\overline{\gamma_1}$ -->
    <g transform="translate(405.240879 14.180256)scale(0.1 -0.1)">
     <use transform="scale(0.996264)" xlink:href="#CMMI12-13"/>
     <use transform="translate(50.599133 -14.943915)scale(0.697382)" xlink:href="#CMR17-49"/>
     <path d="M 0 54.849612 
L 83.080447 54.849612 
L 83.080447 58.834561 
L 0 58.834561 
L 0 54.849612 
z
"/>
    </g>
   </g>
   <g id="text_7">
    <!-- $\overline{\gamma_2}$ -->
    <g transform="translate(306.842854 14.180256)scale(0.1 -0.1)">
     <use transform="scale(0.996264)" xlink:href="#CMMI12-13"/>
     <use transform="translate(50.599133 -14.943915)scale(0.697382)" xlink:href="#CMR17-50"/>
     <path d="M 0 54.849612 
L 83.080447 54.849612 
L 83.080447 58.834561 
L 0 58.834561 
L 0 54.849612 
z
"/>
    </g>
   </g>
   <g id="text_8">
    <!-- $\overline{\phi}_{0.2}^{\gamma_1, \gamma_2}$ -->
    <g transform="translate(369.309114 62.573287)scale(0.1 -0.1)">
     <use transform="scale(0.996264)" xlink:href="#CMMI12-30"/>
     <use transform="translate(57.73418 62.18318)scale(0.697382)" xlink:href="#CMMI12-13"/>
     <use transform="translate(93.153406 51.722484)scale(0.498132)" xlink:href="#CMR17-49"/>
     <use transform="translate(116.496777 62.18318)scale(0.697382)" xlink:href="#CMMI12-59"/>
     <use transform="translate(135.464709 62.18318)scale(0.697382)" xlink:href="#CMMI12-13"/>
     <use transform="translate(170.883935 51.722484)scale(0.498132)" xlink:href="#CMR17-50"/>
     <use transform="translate(57.73418 -24.62935)scale(0.697382)" xlink:href="#CMR17-48"/>
     <use transform="translate(89.717362 -24.62935)scale(0.697382)" xlink:href="#CMMI12-58"/>
     <use transform="translate(108.685295 -24.62935)scale(0.697382)" xlink:href="#CMR17-50"/>
     <path d="M 0 81.139772 
L 57.73418 81.139772 
L 57.73418 85.124722 
L 0 85.124722 
L 0 81.139772 
z
"/>
    </g>
   </g>
  </g>
  <g id="axes_4">
   <g id="line2d_9">
    <path clip-path="url(#pddbf5353dc)" d="M 508.495528 53.542823 
L 510.910688 52.182412 
L 514.263836 50.573382 
L 520.260271 47.724195 
L 522.63826 46.326613 
L 524.585106 44.929383 
L 526.248616 43.464563 
L 527.751887 41.839504 
L 529.143301 39.994715 
L 530.464441 37.863905 
L 531.865363 35.165636 
L 536.787209 25.200947 
L 538.152926 23.222588 
L 539.585126 21.526458 
L 541.17701 19.990012 
L 542.926515 18.611188 
L 544.955167 17.295763 
L 547.476411 15.933563 
L 551.22465 14.180256 
L 551.22465 14.180256 
" style="fill:none;stroke:#1f77b4;stroke-linecap:square;stroke-width:1.5;"/>
   </g>
   <g id="line2d_10">
    <path clip-path="url(#pddbf5353dc)" d="M 443.459083 14.180256 
L 445.724573 18.92654 
L 447.149955 21.384602 
L 448.536578 23.342055 
L 449.990484 25.016479 
L 451.604501 26.530792 
L 453.374921 27.888701 
L 455.491243 29.22433 
L 458.105083 30.601807 
L 462.755121 32.747796 
L 466.517711 34.594625 
L 468.885963 36.001943 
L 470.822104 37.409879 
L 472.474665 38.885648 
L 473.966915 40.521727 
L 475.347726 42.37712 
L 476.581658 44.379391 
L 476.581658 44.379391 
" style="fill:none;stroke:#ff7f0e;stroke-linecap:square;stroke-width:1.5;"/>
   </g>
   <g id="line2d_11">
    <path clip-path="url(#pddbf5353dc)" d="M 476.617492 44.427919 
L 477.782873 46.410262 
L 479.141508 48.2655 
L 480.679651 49.974861 
L 482.381737 51.521049 
L 484.230545 52.888421 
L 486.207369 54.06314 
L 488.292206 55.033321 
L 490.463962 55.789146 
L 492.700663 56.32297 
L 494.979676 56.62939 
L 497.277944 56.705306 
L 499.572211 56.549949 
L 501.839263 56.164893 
L 504.056163 55.554032 
L 506.20048 54.723547 
L 508.250516 53.681842 
L 508.375033 53.609952 
L 508.375033 53.609952 
" style="fill:none;stroke:#2ca02c;stroke-linecap:square;stroke-width:1.5;"/>
   </g>
   <g id="text_9">
    <!-- $\overline{\gamma_1}$ -->
    <g transform="translate(551.22465 14.180256)scale(0.1 -0.1)">
     <use transform="scale(0.996264)" xlink:href="#CMMI12-13"/>
     <use transform="translate(50.599133 -14.943915)scale(0.697382)" xlink:href="#CMR17-49"/>
     <path d="M 0 54.849612 
L 83.080447 54.849612 
L 83.080447 58.834561 
L 0 58.834561 
L 0 54.849612 
z
"/>
    </g>
   </g>
   <g id="text_10">
    <!-- $\overline{\gamma_2}$ -->
    <g transform="translate(443.459083 14.180256)scale(0.1 -0.1)">
     <use transform="scale(0.996264)" xlink:href="#CMMI12-13"/>
     <use transform="translate(50.599133 -14.943915)scale(0.697382)" xlink:href="#CMR17-50"/>
     <path d="M 0 54.849612 
L 83.080447 54.849612 
L 83.080447 58.834561 
L 0 58.834561 
L 0 54.849612 
z
"/>
    </g>
   </g>
   <g id="text_11">
    <!-- $\overline{\phi}_{0.3}^{\gamma_1, \gamma_2}$ -->
    <g transform="translate(516.119272 62.987863)scale(0.1 -0.1)">
     <defs>
      <path d="M 22.09375 33.703125 
C 31 33.703125 34.90625 25.96875 34.90625 17.03125 
C 34.90625 5 28.5 0.390625 22.703125 0.390625 
C 17.40625 0.390625 8.796875 3.03125 6.09375 10.828125 
C 6.59375 10.625 7.09375 10.625 7.59375 10.625 
C 10 10.625 11.796875 12.21875 11.796875 14.8125 
C 11.796875 17.703125 9.59375 19 7.59375 19 
C 5.90625 19 3.296875 18.203125 3.296875 14.46875 
C 3.296875 5.234375 12.296875 -2 22.90625 -2 
C 34 -2 42.5 6.71875 42.5 16.953125 
C 42.5 26.671875 34.5 33.703125 25 34.796875 
C 32.59375 36.375 39.90625 43.0625 39.90625 52.015625 
C 39.90625 59.6875 32 65.296875 23 65.296875 
C 13.90625 65.296875 5.90625 59.828125 5.90625 52.015625 
C 5.90625 48.59375 8.5 48 9.796875 48 
C 11.90625 48 13.703125 49.296875 13.703125 51.890625 
C 13.703125 54.46875 11.90625 55.765625 9.796875 55.765625 
C 9.40625 55.765625 8.90625 55.765625 8.5 55.578125 
C 11.40625 61.859375 19.296875 63 22.796875 63 
C 26.296875 63 32.90625 61.328125 32.90625 51.875 
C 32.90625 49.109375 32.5 44.1875 29.09375 39.84375 
C 26.09375 36 22.703125 36 19.40625 35.6875 
C 18.90625 35.6875 16.59375 35.453125 16.203125 35.453125 
C 15.5 35.359375 15.09375 35.265625 15.09375 34.5 
C 15.09375 33.796875 15.203125 33.703125 17.203125 33.703125 
z
" id="CMR17-51"/>
     </defs>
     <use transform="scale(0.996264)" xlink:href="#CMMI12-30"/>
     <use transform="translate(57.73418 62.18318)scale(0.697382)" xlink:href="#CMMI12-13"/>
     <use transform="translate(93.153406 51.722484)scale(0.498132)" xlink:href="#CMR17-49"/>
     <use transform="translate(116.496777 62.18318)scale(0.697382)" xlink:href="#CMMI12-59"/>
     <use transform="translate(135.464709 62.18318)scale(0.697382)" xlink:href="#CMMI12-13"/>
     <use transform="translate(170.883935 51.722484)scale(0.498132)" xlink:href="#CMR17-50"/>
     <use transform="translate(57.73418 -24.62935)scale(0.697382)" xlink:href="#CMR17-48"/>
     <use transform="translate(89.717362 -24.62935)scale(0.697382)" xlink:href="#CMMI12-58"/>
     <use transform="translate(108.685295 -24.62935)scale(0.697382)" xlink:href="#CMR17-51"/>
     <path d="M 0 81.139772 
L 57.73418 81.139772 
L 57.73418 85.124722 
L 0 85.124722 
L 0 81.139772 
z
"/>
    </g>
   </g>
  </g>
 </g>
 <defs>
  <clipPath id="pe65c9e6f93">
   <rect height="46.781285" width="93.562569" x="26.660582" y="12.053834"/>
  </clipPath>
  <clipPath id="p11b970832a">
   <rect height="46.781285" width="98.42742" x="165.528156" y="12.053834"/>
  </clipPath>
  <clipPath id="p456e936baf">
   <rect height="46.781285" width="108.237827" x="301.922953" y="12.053834"/>
  </clipPath>
  <clipPath id="pddbf5353dc">
   <rect height="46.781285" width="118.542124" x="438.070805" y="12.053834"/>
  </clipPath>
 </defs>
</svg>
