<?xml version="1.0" encoding="utf-8" standalone="no"?>
<!DOCTYPE svg PUBLIC "-//W3C//DTD SVG 1.1//EN"
  "http://www.w3.org/Graphics/SVG/1.1/DTD/svg11.dtd">
<!-- Created with matplotlib (https://matplotlib.org/) -->
<svg height="360pt" version="1.1" viewBox="0 0 360 360" width="360pt" xmlns="http://www.w3.org/2000/svg" xmlns:xlink="http://www.w3.org/1999/xlink">
 <metadata>
  <rdf:RDF xmlns:cc="http://creativecommons.org/ns#" xmlns:dc="http://purl.org/dc/elements/1.1/" xmlns:rdf="http://www.w3.org/1999/02/22-rdf-syntax-ns#">
   <cc:Work>
    <dc:type rdf:resource="http://purl.org/dc/dcmitype/StillImage"/>
    <dc:date>2022-07-19T18:53:11.589207</dc:date>
    <dc:format>image/svg+xml</dc:format>
    <dc:creator>
     <cc:Agent>
      <dc:title>Matplotlib v3.3.3, https://matplotlib.org/</dc:title>
     </cc:Agent>
    </dc:creator>
   </cc:Work>
  </rdf:RDF>
 </metadata>
 <defs>
  <style type="text/css">*{stroke-linecap:butt;stroke-linejoin:round;}</style>
 </defs>
 <g id="figure_1">
  <g id="patch_1">
   <path d="M 0 360 
L 360 360 
L 360 0 
L 0 0 
z
" style="fill:#ffffff;"/>
  </g>
  <g id="axes_1">
   <g id="line2d_1">
    <path clip-path="url(#p4250c61fbc)" d="M 70.499943 295.800057 
L 78.195336 291.094674 
L 82.523994 288.734413 
L 85.890729 287.142942 
L 88.776501 285.990736 
L 91.662273 285.062059 
L 94.548045 284.378074 
L 97.433817 283.954365 
L 99.838628 283.807247 
L 102.243438 283.850021 
L 104.648248 284.082009 
L 107.53402 284.604778 
L 110.419792 285.382658 
L 113.305565 286.397923 
L 116.672299 287.851287 
L 120.039033 289.551021 
L 124.367692 292.012905 
L 130.620198 295.875605 
L 137.834629 300.296115 
L 142.163287 302.681256 
L 145.530021 304.298685 
L 148.896755 305.6527 
L 151.782528 306.571566 
L 154.6683 307.244978 
L 157.554072 307.65759 
L 159.958882 307.795244 
L 162.363693 307.742968 
L 164.768503 307.501591 
L 167.654275 306.967914 
L 170.540047 306.179749 
L 173.425819 305.155059 
L 176.792554 303.692072 
L 180.159288 301.984472 
L 184.487946 299.515446 
L 190.740453 295.648962 
L 197.954883 291.234042 
L 202.283542 288.8571 
L 205.650276 287.24826 
L 209.01701 285.904482 
L 211.902782 284.995462 
L 214.788555 284.33265 
L 217.674327 283.931151 
L 220.079137 283.802967 
L 222.483947 283.864742 
L 224.888757 284.115499 
L 227.77453 284.660064 
L 230.660302 285.458481 
L 233.546074 286.492556 
L 236.912808 287.96511 
L 240.279543 289.680507 
L 244.608201 292.156578 
L 251.341669 296.328731 
L 258.075138 300.435847 
L 262.403796 302.804495 
L 265.770531 304.404683 
L 268.656303 305.565666 
L 271.542075 306.504116 
L 274.427847 307.198649 
L 277.313619 307.633437 
L 279.71843 307.790013 
L 282.12324 307.756743 
L 284.52805 307.534153 
L 287.413822 307.022314 
L 290.299594 306.254748 
L 293.185367 305.248948 
L 296.552101 303.805267 
L 299.918835 302.113465 
L 304.247494 299.658822 
L 310.5 295.800057 
L 310.5 295.800057 
" style="fill:none;stroke:#1f77b4;stroke-linecap:square;stroke-width:1.5;"/>
   </g>
   <g id="line2d_2">
    <path clip-path="url(#p4250c61fbc)" d="M 70.499943 295.800057 
L 75.205326 288.104664 
L 77.565587 283.776006 
L 79.157058 280.409271 
L 80.309264 277.523499 
L 81.237941 274.637727 
L 81.921926 271.751955 
L 82.345635 268.866183 
L 82.492753 266.461372 
L 82.449979 264.056562 
L 82.217991 261.651752 
L 81.695222 258.76598 
L 80.917342 255.880208 
L 79.902077 252.994435 
L 78.448713 249.627701 
L 76.748979 246.260967 
L 74.287095 241.932308 
L 70.424395 235.679802 
L 66.003885 228.465371 
L 63.618744 224.136713 
L 62.001315 220.769979 
L 60.6473 217.403245 
L 59.728434 214.517472 
L 59.055022 211.6317 
L 58.64241 208.745928 
L 58.504756 206.341118 
L 58.557032 203.936307 
L 58.798409 201.531497 
L 59.332086 198.645725 
L 60.120251 195.759953 
L 61.144941 192.874181 
L 62.607928 189.507446 
L 64.315528 186.140712 
L 66.784554 181.812054 
L 70.651038 175.559547 
L 75.065958 168.345117 
L 77.4429 164.016458 
L 79.05174 160.649724 
L 80.395518 157.28299 
L 81.304538 154.397218 
L 81.96735 151.511445 
L 82.368849 148.625673 
L 82.497033 146.220863 
L 82.435258 143.816053 
L 82.184501 141.411243 
L 81.639936 138.52547 
L 80.841519 135.639698 
L 79.807444 132.753926 
L 78.33489 129.387192 
L 76.619493 126.020457 
L 74.143422 121.691799 
L 69.971269 114.958331 
L 65.864153 108.224862 
L 63.495505 103.896204 
L 61.895317 100.529469 
L 60.734334 97.643697 
L 59.795884 94.757925 
L 59.101351 91.872153 
L 58.666563 88.986381 
L 58.509987 86.58157 
L 58.543257 84.17676 
L 58.765847 81.77195 
L 59.277686 78.886178 
L 60.045252 76.000406 
L 61.051052 73.114633 
L 62.494733 69.747899 
L 64.186535 66.381165 
L 66.641178 62.052506 
L 70.499943 55.8 
L 70.499943 55.8 
" style="fill:none;stroke:#1f77b4;stroke-linecap:square;stroke-width:1.5;"/>
   </g>
   <g id="line2d_3">
    <path clip-path="url(#p4250c61fbc)" d="M 106.143062 272.156941 
L 106.028141 270.500164 
L 105.685578 268.875121 
L 105.121934 267.312937 
L 104.348006 265.843532 
L 103.378617 264.495052 
L 102.232334 263.293324 
L 100.931113 262.261366 
L 99.499876 261.418943 
L 97.966037 260.782192 
L 96.358974 260.363307 
L 94.709469 260.170313 
L 93.049115 260.206905 
L 91.409714 260.472383 
L 89.822666 260.961662 
L 88.318369 261.66537 
L 86.925636 262.57003 
L 85.671142 263.658312 
L 84.578915 264.909374 
L 83.669876 266.299253 
L 82.961436 267.801327 
L 82.467164 269.386827 
L 82.196526 271.025384 
L 82.154708 272.685615 
L 82.342509 274.33572 
L 82.756333 275.944093 
L 83.388253 277.479929 
L 84.226166 278.91381 
L 85.254022 280.218274 
L 86.452136 281.368334 
L 87.797558 282.341963 
L 89.264519 283.120513 
L 90.824922 283.689071 
L 92.448878 284.036748 
L 94.105285 284.156884 
L 95.762415 284.047179 
L 97.388528 283.709733 
L 98.952479 283.15101 
L 100.424313 282.381711 
L 101.775838 281.416571 
L 102.981168 280.274077 
L 104.017217 278.97611 
L 104.864141 277.547533 
L 105.505718 276.015706 
L 105.929659 274.409969 
L 106.127845 272.76108 
L 106.143062 272.156941 
L 106.143062 272.156941 
" style="fill:none;stroke:#ff7f0e;stroke-linecap:square;stroke-width:1.5;"/>
   </g>
   <g id="line2d_4">
    <path clip-path="url(#p4250c61fbc)" d="M 130.190791 260.109215 
L 130.069129 257.695723 
L 129.705379 255.306699 
L 129.103226 252.966366 
L 128.268778 250.69845 
L 127.210493 248.525945 
L 125.9391 246.470876 
L 124.467491 244.554078 
L 122.810584 242.794985 
L 120.985178 241.211432 
L 119.00978 239.819473 
L 116.904418 238.63322 
L 114.690436 237.664701 
L 112.39028 236.923734 
L 110.027271 236.417832 
L 107.625367 236.152123 
L 105.208918 236.129302 
L 102.802423 236.349601 
L 100.430281 236.810784 
L 98.116542 237.508178 
L 95.884663 238.434711 
L 93.757272 239.58099 
L 91.755938 240.935393 
L 89.90095 242.484189 
L 88.211116 244.211675 
L 86.703568 246.100337 
L 85.39359 248.131028 
L 84.294463 250.283159 
L 83.417331 252.534911 
L 82.771087 254.863454 
L 82.362281 257.245182 
L 82.19506 259.655946 
L 82.271118 262.071306 
L 82.589684 264.466773 
L 83.147529 266.818061 
L 83.938996 269.101332 
L 84.956062 271.293437 
L 86.188415 273.372151 
L 87.623561 275.3164 
L 89.24695 277.106472 
L 91.042123 278.724217 
L 92.99088 280.153236 
L 95.073463 281.379039 
L 97.268759 282.3892 
L 99.55451 283.173476 
L 101.907542 283.723916 
L 104.304 284.03494 
L 106.719588 284.103394 
L 109.129813 283.928585 
L 111.510242 283.512284 
L 113.83674 282.858713 
L 116.085719 281.974497 
L 118.23438 280.868601 
L 120.260937 279.552237 
L 122.144844 278.038751 
L 123.867003 276.343488 
L 125.409951 274.483634 
L 126.758048 272.478046 
L 127.897624 270.347057 
L 128.817127 268.112273 
L 129.507234 265.796349 
L 129.960948 263.422768 
L 130.17367 261.015592 
L 130.190791 260.109215 
L 130.190791 260.109215 
" style="fill:none;stroke:#ff7f0e;stroke-linecap:square;stroke-width:1.5;"/>
   </g>
   <g id="line2d_5">
    <path clip-path="url(#p4250c61fbc)" d="M 173.911447 239.701228 
L 173.81635 236.68125 
L 173.531436 233.673239 
L 173.057834 230.689113 
L 172.39742 227.740696 
L 171.552812 224.839671 
L 170.527355 221.997533 
L 169.325114 219.225544 
L 167.950852 216.534687 
L 166.410013 213.935625 
L 164.708705 211.438655 
L 162.853667 209.053672 
L 160.85225 206.790126 
L 158.712385 204.656987 
L 156.44255 202.662705 
L 154.05174 200.815184 
L 151.549427 199.121744 
L 148.945527 197.589095 
L 146.250357 196.22331 
L 143.474597 195.0298 
L 140.629246 194.013296 
L 137.725576 193.177823 
L 134.775095 192.526694 
L 131.789493 192.062488 
L 128.7806 191.787044 
L 125.760337 191.701454 
L 122.740674 191.806057 
L 119.733575 192.100439 
L 116.750954 192.583432 
L 113.804631 193.253124 
L 110.906279 194.10686 
L 108.067383 195.141259 
L 105.299192 196.35222 
L 102.612675 197.734946 
L 100.018475 199.283958 
L 97.526874 200.993119 
L 95.147742 202.855655 
L 92.890508 204.864187 
L 90.764115 207.010757 
L 88.776988 209.286858 
L 86.937002 211.683472 
L 85.251448 214.191104 
L 83.727003 216.799815 
L 82.369709 219.499271 
L 81.184943 222.278774 
L 80.1774 225.127312 
L 79.351072 228.033596 
L 78.709234 230.986113 
L 78.254429 233.973161 
L 77.988458 236.982907 
L 77.912376 240.003423 
L 78.026484 243.022742 
L 78.33033 246.0289 
L 78.82271 249.009986 
L 79.501673 251.954186 
L 80.364529 254.849836 
L 81.407858 257.685462 
L 82.627528 260.449827 
L 84.018704 263.131979 
L 85.575875 265.721289 
L 87.29287 268.207498 
L 89.162886 270.580755 
L 91.178514 272.831655 
L 93.331766 274.951281 
L 95.614112 276.931232 
L 98.016506 278.763665 
L 100.529431 280.441318 
L 103.142928 281.957543 
L 105.846643 283.306333 
L 108.629862 284.482343 
L 111.481557 285.480914 
L 114.390429 286.298089 
L 117.344951 286.93063 
L 120.333416 287.37603 
L 123.343984 287.632525 
L 126.364725 287.699099 
L 129.38367 287.575487 
L 132.388857 287.262179 
L 135.368378 286.760418 
L 138.310426 286.07219 
L 141.203346 285.200223 
L 144.035673 284.147973 
L 146.796185 282.919608 
L 149.473944 281.519995 
L 152.05834 279.954681 
L 154.539132 278.229868 
L 156.90649 276.35239 
L 159.151034 274.329687 
L 161.263871 272.169773 
L 163.236628 269.881206 
L 165.061489 267.473055 
L 166.731223 264.954862 
L 168.239214 262.336605 
L 169.579486 259.628658 
L 170.74673 256.84175 
L 171.736319 253.986926 
L 172.544333 251.075497 
L 173.16757 248.118998 
L 173.603561 245.129145 
L 173.850578 242.117785 
L 173.911447 239.701228 
L 173.911447 239.701228 
" style="fill:none;stroke:#ff7f0e;stroke-linecap:square;stroke-width:1.5;"/>
   </g>
   <g id="line2d_6">
    <path clip-path="url(#p4250c61fbc)" d="M 262.914956 199.385066 
L 262.793218 194.551952 
L 262.428311 189.731097 
L 261.821161 184.934725 
L 260.973308 180.175003 
L 259.886903 175.464002 
L 258.5647 170.81367 
L 257.010053 166.235801 
L 255.226906 161.742006 
L 253.219779 157.343682 
L 250.993765 153.051984 
L 248.554508 148.877798 
L 245.908196 144.831708 
L 243.061539 140.923978 
L 240.021758 137.164518 
L 236.796562 133.562863 
L 233.394131 130.128148 
L 229.823093 126.869083 
L 226.092507 123.793935 
L 222.211834 120.910502 
L 218.190916 118.226099 
L 214.03995 115.747532 
L 209.769465 113.481088 
L 205.390292 111.432515 
L 200.913536 109.60701 
L 196.350553 108.009201 
L 191.712914 106.643142 
L 187.012383 105.512297 
L 182.26088 104.619533 
L 177.470456 103.967116 
L 172.653261 103.556699 
L 167.821512 103.389324 
L 162.987464 103.465416 
L 158.163378 103.784781 
L 153.361486 104.346609 
L 148.59397 105.149475 
L 143.872919 106.191344 
L 139.210308 107.469572 
L 134.617962 108.980918 
L 130.107528 110.721549 
L 125.690446 112.68705 
L 121.377919 114.872436 
L 117.180883 117.272165 
L 113.109983 119.88015 
L 109.175545 122.689777 
L 105.387546 125.693921 
L 101.755595 128.884961 
L 98.288902 132.254804 
L 94.996259 135.794905 
L 91.886018 139.496285 
L 88.966067 143.349555 
L 86.243811 147.344944 
L 83.726155 151.472318 
L 81.419484 155.721209 
L 79.329648 160.080842 
L 77.461948 164.540158 
L 75.821119 169.087849 
L 74.411325 173.712381 
L 73.236141 178.402023 
L 72.298546 183.144884 
L 71.600919 187.928933 
L 71.14503 192.742037 
L 70.932034 197.57199 
L 70.962471 202.406541 
L 71.236266 207.233429 
L 71.752722 212.040411 
L 72.51053 216.815297 
L 73.507769 221.545976 
L 74.741909 226.22045 
L 76.20982 230.826864 
L 77.907779 235.353534 
L 79.831479 239.788981 
L 81.976043 244.121954 
L 84.33603 248.341464 
L 86.905455 252.436811 
L 89.677802 256.397607 
L 92.646039 260.213806 
L 95.802638 263.87573 
L 99.139594 267.374092 
L 102.648443 270.700019 
L 106.320285 273.845075 
L 110.145809 276.801285 
L 114.115312 279.56115 
L 118.218727 282.11767 
L 122.445646 284.464363 
L 126.785348 286.595276 
L 131.226828 288.505005 
L 135.758821 290.188706 
L 140.369833 291.642109 
L 145.048169 292.861528 
L 149.781963 293.84387 
L 154.559211 294.586644 
L 159.367796 295.087966 
L 164.195521 295.346564 
L 169.030144 295.361783 
L 173.859402 295.133584 
L 178.671048 294.662546 
L 183.452877 293.949863 
L 188.192762 292.997343 
L 192.878683 291.807402 
L 197.498753 290.383057 
L 202.041256 288.727922 
L 206.494672 286.846193 
L 210.847704 284.742644 
L 215.089313 282.422609 
L 219.208741 279.891973 
L 223.195541 277.157154 
L 227.039601 274.225087 
L 230.731171 271.10321 
L 234.26089 267.79944 
L 237.619804 264.322156 
L 240.799395 260.680178 
L 243.791599 256.882741 
L 246.588827 252.939478 
L 249.183985 248.860389 
L 251.57049 244.65582 
L 253.74229 240.336434 
L 255.693877 235.913187 
L 257.420301 231.397296 
L 258.917183 226.800215 
L 260.180728 222.133604 
L 261.20773 217.409297 
L 261.995585 212.639276 
L 262.542295 207.835641 
L 262.846472 203.010572 
L 262.914956 199.385066 
L 262.914956 199.385066 
" style="fill:none;stroke:#ff7f0e;stroke-linecap:square;stroke-width:1.5;"/>
   </g>
  </g>
 </g>
 <defs>
  <clipPath id="p4250c61fbc">
   <rect height="277.2" width="277.2" x="45.9" y="43.2"/>
  </clipPath>
 </defs>
</svg>
