<?xml version="1.0" encoding="utf-8" standalone="no"?>
<!DOCTYPE svg PUBLIC "-//W3C//DTD SVG 1.1//EN"
  "http://www.w3.org/Graphics/SVG/1.1/DTD/svg11.dtd">
<!-- Created with matplotlib (https://matplotlib.org/) -->
<svg height="72pt" version="1.1" viewBox="0 0 576 72" width="576pt" xmlns="http://www.w3.org/2000/svg" xmlns:xlink="http://www.w3.org/1999/xlink">
 <metadata>
  <rdf:RDF xmlns:cc="http://creativecommons.org/ns#" xmlns:dc="http://purl.org/dc/elements/1.1/" xmlns:rdf="http://www.w3.org/1999/02/22-rdf-syntax-ns#">
   <cc:Work>
    <dc:type rdf:resource="http://purl.org/dc/dcmitype/StillImage"/>
    <dc:date>2022-09-16T10:29:52.039376</dc:date>
    <dc:format>image/svg+xml</dc:format>
    <dc:creator>
     <cc:Agent>
      <dc:title>Matplotlib v3.3.3, https://matplotlib.org/</dc:title>
     </cc:Agent>
    </dc:creator>
   </cc:Work>
  </rdf:RDF>
 </metadata>
 <defs>
  <style type="text/css">*{stroke-linecap:butt;stroke-linejoin:round;}</style>
 </defs>
 <g id="figure_1">
  <g id="patch_1">
   <path d="M 0 72 
L 576 72 
L 576 0 
L 0 0 
z
" style="fill:#ffffff;"/>
  </g>
  <g id="axes_1">
   <g id="line2d_1">
    <path clip-path="url(#pe48f9174c8)" d="M 73.441866 58.108713 
L 75.439022 53.959071 
L 76.724992 51.820396 
L 78.008851 50.118669 
L 79.376529 48.676383 
L 80.90239 47.392279 
L 82.68447 46.188772 
L 84.894302 44.973959 
L 88.425156 43.323941 
L 92.269034 41.460079 
L 94.350779 40.204991 
L 96.052506 38.921131 
L 97.494793 37.553453 
L 98.778896 36.027592 
L 99.982404 34.245512 
L 101.197216 32.035681 
L 102.847234 28.504827 
L 104.711096 24.660949 
L 105.966184 22.579204 
L 107.250044 20.877476 
L 108.617722 19.43519 
L 110.143583 18.151086 
L 111.925663 16.947579 
L 114.135495 15.732767 
L 117.303655 14.246924 
L 117.303655 14.246924 
" style="fill:none;stroke:#1f77b4;stroke-linecap:square;stroke-width:1.5;"/>
   </g>
   <g id="line2d_2">
    <path clip-path="url(#pe48f9174c8)" d="M 29.580078 14.246924 
L 31.577233 18.396566 
L 32.863203 20.53524 
L 34.147062 22.236968 
L 35.514741 23.679254 
L 37.040601 24.963357 
L 38.822681 26.166865 
L 41.032513 27.381677 
L 44.563367 29.031695 
L 48.407245 30.895557 
L 50.48899 32.150645 
L 52.190718 33.434505 
L 53.633004 34.802183 
L 54.917108 36.328044 
L 56.120615 38.110124 
L 57.335427 40.319956 
L 58.985445 43.85081 
L 60.849307 47.694688 
L 62.104395 49.776432 
L 63.388255 51.47816 
L 64.755933 52.920446 
L 66.281794 54.20455 
L 68.063874 55.408057 
L 70.273706 56.62287 
L 73.441866 58.108713 
L 73.441866 58.108713 
" style="fill:none;stroke:#ff7f0e;stroke-linecap:square;stroke-width:1.5;"/>
   </g>
   <g id="text_1">
    <!-- $\gamma_1$ -->
    <g transform="translate(117.303655 14.246924)scale(0.1 -0.1)">
     <defs>
      <path d="M 37.796875 11.875 
C 37.59375 16.734375 37.40625 24.390625 33.59375 33.328125 
C 31.59375 38.3125 28.203125 43.5625 20.90625 43.5625 
C 8.59375 43.5625 1.90625 27.96875 1.90625 25.390625 
C 1.90625 24.484375 2.59375 24.484375 2.90625 24.484375 
C 3.796875 24.484375 3.796875 24.6875 4.296875 25.984375 
C 6.40625 32.140625 12.796875 37 19.703125 37 
C 33.59375 37 35.59375 21.609375 35.59375 11.78125 
C 35.59375 5.5 34.90625 3.4375 34.296875 1.4375 
C 32.40625 -4.71875 29.09375 -17.03125 29.09375 -19.8125 
C 29.09375 -20.609375 29.40625 -21.5 30.203125 -21.5 
C 31.703125 -21.5 32.59375 -18.21875 33.703125 -14.25 
C 36.09375 -5.515625 36.703125 -1.140625 37.203125 2.828125 
C 37.5 5.21875 43.203125 21.625 51.09375 37.21875 
C 51.796875 38.796875 53.203125 41.484375 53.203125 41.78125 
C 53.203125 41.875 53.09375 42.578125 52.203125 42.578125 
C 52 42.578125 51.5 42.578125 51.296875 42.171875 
C 51.09375 41.984375 47.59375 35.21875 44.59375 28.46875 
C 43.09375 25.09375 41.09375 20.625 37.796875 11.875 
z
" id="CMMI12-13"/>
      <path d="M 26.59375 63.40625 
C 26.59375 65.5 26.5 65.5 25.09375 65.5 
C 21.203125 61.1875 15.296875 59.796875 9.703125 59.796875 
C 9.40625 59.796875 8.90625 59.796875 8.796875 59.5 
C 8.703125 59.296875 8.703125 59.09375 8.703125 57 
C 11.796875 57 17 57.59375 21 59.984375 
L 21 7.203125 
C 21 3.6875 20.796875 2.5 12.203125 2.5 
L 9.203125 2.5 
L 9.203125 0 
C 14 0 19 0 23.796875 0 
C 28.59375 0 33.59375 0 38.40625 0 
L 38.40625 2.5 
L 35.40625 2.5 
C 26.796875 2.5 26.59375 3.59375 26.59375 7.15625 
z
" id="CMR17-49"/>
     </defs>
     <use transform="scale(0.996264)" xlink:href="#CMMI12-13"/>
     <use transform="translate(50.599133 -14.943915)scale(0.697382)" xlink:href="#CMR17-49"/>
    </g>
   </g>
   <g id="text_2">
    <!-- $\gamma_2$ -->
    <g transform="translate(29.580078 14.246924)scale(0.1 -0.1)">
     <defs>
      <path d="M 41.703125 15.453125 
L 39.90625 15.453125 
C 38.90625 8.375 38.09375 7.171875 37.703125 6.5625 
C 37.203125 5.765625 30 5.765625 28.59375 5.765625 
L 9.40625 5.765625 
C 13 9.671875 20 16.75 28.5 24.953125 
C 34.59375 30.734375 41.703125 37.53125 41.703125 47.421875 
C 41.703125 59.21875 32.296875 66 21.796875 66 
C 10.796875 66 4.09375 56.3125 4.09375 47.34375 
C 4.09375 43.4375 7 42.9375 8.203125 42.9375 
C 9.203125 42.9375 12.203125 43.546875 12.203125 47.03125 
C 12.203125 50.109375 9.59375 51 8.203125 51 
C 7.59375 51 7 50.90625 6.59375 50.703125 
C 8.5 59.21875 14.296875 63.40625 20.40625 63.40625 
C 29.09375 63.40625 34.796875 56.515625 34.796875 47.421875 
C 34.796875 38.734375 29.703125 31.25 24 24.75 
L 4.09375 2.28125 
L 4.09375 0 
L 39.296875 0 
z
" id="CMR17-50"/>
     </defs>
     <use transform="scale(0.996264)" xlink:href="#CMMI12-13"/>
     <use transform="translate(50.599133 -14.943915)scale(0.697382)" xlink:href="#CMR17-50"/>
    </g>
   </g>
  </g>
  <g id="axes_2">
   <g id="line2d_3">
    <path clip-path="url(#p933908659a)" d="M 217.307403 55.195188 
L 218.574856 53.229439 
L 219.890347 51.58886 
L 221.322194 50.157013 
L 222.909114 48.88024 
L 224.81193 47.642231 
L 227.221917 46.357131 
L 231.64554 44.314349 
L 234.84586 42.711055 
L 236.95753 41.404768 
L 238.677492 40.076282 
L 240.134701 38.669798 
L 241.435933 37.107336 
L 242.662397 35.285353 
L 243.909427 33.022049 
L 245.561029 29.500528 
L 247.572087 25.322313 
L 248.88319 23.123083 
L 250.181564 21.373009 
L 251.557692 19.885444 
L 253.090426 18.554484 
L 254.884282 17.299892 
L 257.062267 16.05992 
L 260.185009 14.563802 
L 260.884279 14.246924 
L 260.884279 14.246924 
" style="fill:none;stroke:#1f77b4;stroke-linecap:square;stroke-width:1.5;"/>
   </g>
   <g id="line2d_4">
    <path clip-path="url(#p933908659a)" d="M 168.599453 14.246924 
L 170.668065 18.552339 
L 171.979169 20.751569 
L 173.277542 22.501643 
L 174.653671 23.989208 
L 176.186404 25.320168 
L 177.98026 26.57476 
L 180.158245 27.814732 
L 183.280987 29.31085 
L 188.405553 31.761214 
L 190.540291 33.044433 
L 192.285394 34.347777 
L 193.76791 35.728955 
L 195.09389 37.266668 
L 196.343731 39.065275 
L 197.579602 41.247361 
L 199.101891 44.436309 
L 201.462061 49.373938 
L 202.777767 51.568566 
L 204.081111 53.313669 
L 205.462289 54.796184 
L 207.000002 56.122164 
L 208.404216 57.119758 
L 208.404216 57.119758 
" style="fill:none;stroke:#ff7f0e;stroke-linecap:square;stroke-width:1.5;"/>
   </g>
   <g id="line2d_5">
    <path clip-path="url(#p933908659a)" d="M 208.457749 57.150603 
L 209.524057 57.675666 
L 210.667915 57.998607 
L 211.851376 58.108713 
L 213.035178 58.002329 
L 214.180046 57.682987 
L 215.248 57.161279 
L 216.203608 56.454515 
L 217.015169 55.586141 
L 217.27956 55.220306 
L 217.27956 55.220306 
" style="fill:none;stroke:#2ca02c;stroke-linecap:square;stroke-width:1.5;"/>
   </g>
   <g id="text_3">
    <!-- $\overline{\gamma_1}$ -->
    <g transform="translate(260.884279 14.246924)scale(0.1 -0.1)">
     <use transform="scale(0.996264)" xlink:href="#CMMI12-13"/>
     <use transform="translate(50.599133 -14.943915)scale(0.697382)" xlink:href="#CMR17-49"/>
     <path d="M 0 54.849612 
L 83.080447 54.849612 
L 83.080447 58.834561 
L 0 58.834561 
L 0 54.849612 
z
"/>
    </g>
   </g>
   <g id="text_4">
    <!-- $\overline{\gamma_2}$ -->
    <g transform="translate(168.599453 14.246924)scale(0.1 -0.1)">
     <use transform="scale(0.996264)" xlink:href="#CMMI12-13"/>
     <use transform="translate(50.599133 -14.943915)scale(0.697382)" xlink:href="#CMR17-50"/>
     <path d="M 0 54.849612 
L 83.080447 54.849612 
L 83.080447 58.834561 
L 0 58.834561 
L 0 54.849612 
z
"/>
    </g>
   </g>
   <g id="text_5">
    <!-- $\phi_{0.1}^{\gamma_1, \gamma_2}$ -->
    <g transform="translate(217.302328 62.976358)scale(0.1 -0.1)">
     <defs>
      <path d="M 43 68.59375 
C 43 69.5 42.296875 69.5 42 69.5 
C 41.09375 69.5 41 69.296875 40.59375 67.59375 
L 35.203125 45.921875 
C 34.90625 44.625 34.796875 44.515625 34.703125 44.421875 
C 34.59375 44.21875 33.90625 44.125 33.703125 44.125 
C 17.296875 42.71875 4.703125 29.125 4.703125 16.515625 
C 4.703125 5.640625 13 -1 23.40625 -1 
C 22.59375 -4.078125 21.90625 -7.234375 21.09375 -10.296875 
C 19.703125 -15.546875 18.90625 -18.8125 18.90625 -19.203125 
C 18.90625 -19.390625 18.90625 -20 19.90625 -20 
C 20.203125 -20 20.59375 -20 20.796875 -19.59375 
C 21 -19.390625 21.59375 -17.015625 22 -15.75 
L 25.703125 -1 
C 42.796875 -1 55.796875 13.34375 55.796875 26.25 
C 55.796875 36.609375 48.203125 44 37.09375 44 
z
M 36.5 42.203125 
C 43.09375 42.203125 49.703125 38.484375 49.703125 28.5625 
C 49.703125 17.140625 41.796875 2 26.203125 0.78125 
z
M 23.90625 0.78125 
C 19 0.78125 10.796875 3.4375 10.796875 14.65625 
C 10.796875 27.515625 19.90625 41.8125 34.296875 41.8125 
z
" id="CMMI12-30"/>
      <path d="M 19.5 -0.484375 
C 19.5 5.359375 17.59375 9.671875 13.5 9.671875 
C 10.296875 9.671875 8.703125 7.078125 8.703125 4.890625 
C 8.703125 2.6875 10.203125 0 13.59375 0 
C 14.90625 0 16 0.40625 16.90625 1.296875 
C 17.09375 1.5 17.203125 1.5 17.296875 1.5 
C 17.5 1.5 17.5 0.078125 17.5 -0.421875 
C 17.5 -3.75 16.90625 -10.296875 11.09375 -16.875 
C 10 -18.078125 10 -18.28125 10 -18.484375 
C 10 -19 10.5 -19.5 11 -19.5 
C 11.796875 -19.5 19.5 -12.046875 19.5 -0.484375 
z
" id="CMMI12-59"/>
      <path d="M 42 31.640625 
C 42 37.75 41.90625 48.125 37.703125 56.109375 
C 34 63.109375 28.09375 65.59375 22.90625 65.59375 
C 18.09375 65.59375 12 63.40625 8.203125 56.203125 
C 4.203125 48.71875 3.796875 39.4375 3.796875 31.640625 
C 3.796875 25.953125 3.90625 17.28125 7 9.671875 
C 11.296875 -0.609375 19 -2 22.90625 -2 
C 27.5 -2 34.5 -0.109375 38.59375 9.375 
C 41.59375 16.28125 42 24.359375 42 31.640625 
z
M 22.90625 -0.40625 
C 16.5 -0.40625 12.703125 5.078125 11.296875 12.6875 
C 10.203125 18.5625 10.203125 27.15625 10.203125 32.75 
C 10.203125 40.4375 10.203125 46.828125 11.5 52.921875 
C 13.40625 61.390625 19 64 22.90625 64 
C 27 64 32.296875 61.296875 34.203125 53.125 
C 35.5 47.4375 35.59375 40.734375 35.59375 32.75 
C 35.59375 26.25 35.59375 18.265625 34.40625 12.375 
C 32.296875 1.484375 26.40625 -0.40625 22.90625 -0.40625 
z
" id="CMR17-48"/>
      <path d="M 18.40625 4.796875 
C 18.40625 7.6875 16 9.671875 13.59375 9.671875 
C 10.703125 9.671875 8.703125 7.28125 8.703125 4.890625 
C 8.703125 2 11.09375 0 13.5 0 
C 16.40625 0 18.40625 2.390625 18.40625 4.796875 
z
" id="CMMI12-58"/>
     </defs>
     <use transform="scale(0.996264)" xlink:href="#CMMI12-30"/>
     <use transform="translate(57.73418 47.87587)scale(0.697382)" xlink:href="#CMMI12-13"/>
     <use transform="translate(93.153406 37.415174)scale(0.498132)" xlink:href="#CMR17-49"/>
     <use transform="translate(116.496777 47.87587)scale(0.697382)" xlink:href="#CMMI12-59"/>
     <use transform="translate(135.464709 47.87587)scale(0.697382)" xlink:href="#CMMI12-13"/>
     <use transform="translate(170.883935 37.415174)scale(0.498132)" xlink:href="#CMR17-50"/>
     <use transform="translate(57.73418 -26.578082)scale(0.697382)" xlink:href="#CMR17-48"/>
     <use transform="translate(89.717362 -26.578082)scale(0.697382)" xlink:href="#CMMI12-58"/>
     <use transform="translate(108.685295 -26.578082)scale(0.697382)" xlink:href="#CMR17-49"/>
    </g>
   </g>
  </g>
  <g id="axes_3">
   <g id="line2d_6">
    <path clip-path="url(#p846624bbfb)" d="M 362.545514 54.425859 
L 364.158046 52.990853 
L 365.986365 51.67005 
L 368.155186 50.384996 
L 371.072877 48.93455 
L 378.409595 45.401719 
L 380.531771 44.070018 
L 382.30863 42.697756 
L 383.867486 41.209075 
L 385.265359 39.559411 
L 386.551457 37.696387 
L 387.841052 35.430521 
L 389.393912 32.208906 
L 392.179939 26.360244 
L 393.545584 24.068844 
L 394.922131 22.194685 
L 396.373178 20.598195 
L 397.98571 19.163189 
L 399.814029 17.842386 
L 401.98285 16.557332 
L 404.900541 15.106886 
L 406.783362 14.246924 
L 406.783362 14.246924 
" style="fill:none;stroke:#1f77b4;stroke-linecap:square;stroke-width:1.5;"/>
   </g>
   <g id="line2d_7">
    <path clip-path="url(#p846624bbfb)" d="M 305.300371 14.246924 
L 307.504262 18.849199 
L 308.895833 21.216257 
L 310.261908 23.100889 
L 311.702253 24.708081 
L 313.304098 26.153773 
L 315.122291 27.484702 
L 317.282085 28.778784 
L 320.123625 30.203796 
L 327.86176 33.944718 
L 329.969236 35.291118 
L 331.730286 36.67919 
L 333.272956 38.184057 
L 334.655074 39.849476 
L 335.965298 41.789958 
L 337.272476 44.139825 
L 338.906429 47.585101 
L 339.859295 49.679772 
L 339.859295 49.679772 
" style="fill:none;stroke:#ff7f0e;stroke-linecap:square;stroke-width:1.5;"/>
   </g>
   <g id="line2d_8">
    <path clip-path="url(#p846624bbfb)" d="M 339.892071 49.750553 
L 340.74706 51.339218 
L 341.794604 52.808065 
L 343.01815 54.133884 
L 344.398364 55.295724 
L 345.913435 56.275225 
L 347.539421 57.05691 
L 349.250629 57.628425 
L 351.020017 57.98074 
L 352.819627 58.108287 
L 354.621019 58.009051 
L 356.395728 57.6846 
L 358.11571 57.140061 
L 359.753786 56.384038 
L 361.28407 55.42848 
L 362.481942 54.470565 
L 362.481942 54.470565 
" style="fill:none;stroke:#2ca02c;stroke-linecap:square;stroke-width:1.5;"/>
   </g>
   <g id="text_6">
    <!-- $\overline{\gamma_1}$ -->
    <g transform="translate(406.783362 14.246924)scale(0.1 -0.1)">
     <use transform="scale(0.996264)" xlink:href="#CMMI12-13"/>
     <use transform="translate(50.599133 -14.943915)scale(0.697382)" xlink:href="#CMR17-49"/>
     <path d="M 0 54.849612 
L 83.080447 54.849612 
L 83.080447 58.834561 
L 0 58.834561 
L 0 54.849612 
z
"/>
    </g>
   </g>
   <g id="text_7">
    <!-- $\overline{\gamma_2}$ -->
    <g transform="translate(305.300371 14.246924)scale(0.1 -0.1)">
     <use transform="scale(0.996264)" xlink:href="#CMMI12-13"/>
     <use transform="translate(50.599133 -14.943915)scale(0.697382)" xlink:href="#CMR17-50"/>
     <path d="M 0 54.849612 
L 83.080447 54.849612 
L 83.080447 58.834561 
L 0 58.834561 
L 0 54.849612 
z
"/>
    </g>
   </g>
   <g id="text_8">
    <!-- $\phi_{0.2}^{\gamma_1, \gamma_2}$ -->
    <g transform="translate(362.549136 62.200491)scale(0.1 -0.1)">
     <use transform="scale(0.996264)" xlink:href="#CMMI12-30"/>
     <use transform="translate(57.73418 47.87587)scale(0.697382)" xlink:href="#CMMI12-13"/>
     <use transform="translate(93.153406 37.415174)scale(0.498132)" xlink:href="#CMR17-49"/>
     <use transform="translate(116.496777 47.87587)scale(0.697382)" xlink:href="#CMMI12-59"/>
     <use transform="translate(135.464709 47.87587)scale(0.697382)" xlink:href="#CMMI12-13"/>
     <use transform="translate(170.883935 37.415174)scale(0.498132)" xlink:href="#CMR17-50"/>
     <use transform="translate(57.73418 -26.578082)scale(0.697382)" xlink:href="#CMR17-48"/>
     <use transform="translate(89.717362 -26.578082)scale(0.697382)" xlink:href="#CMMI12-58"/>
     <use transform="translate(108.685295 -26.578082)scale(0.697382)" xlink:href="#CMR17-50"/>
    </g>
   </g>
  </g>
  <g id="axes_4">
   <g id="line2d_9">
    <path clip-path="url(#p2fd53420b6)" d="M 508.845217 54.843582 
L 511.262822 53.478501 
L 514.641594 51.850777 
L 521.051177 48.803643 
L 523.498721 47.357246 
L 525.439234 45.960094 
L 527.154898 44.44935 
L 528.654572 42.83387 
L 530.049708 41.002598 
L 531.381638 38.885608 
L 532.802302 36.189818 
L 534.945719 31.546652 
L 536.842411 27.658058 
L 538.283809 25.205515 
L 539.675642 23.259683 
L 541.180754 21.538386 
L 542.790734 20.033213 
L 544.61666 18.63273 
L 546.728771 17.295921 
L 549.420425 15.871122 
L 552.913979 14.246924 
L 552.913979 14.246924 
" style="fill:none;stroke:#1f77b4;stroke-linecap:square;stroke-width:1.5;"/>
   </g>
   <g id="line2d_10">
    <path clip-path="url(#p2fd53420b6)" d="M 441.769754 14.246924 
L 444.106272 19.142012 
L 445.532945 21.609281 
L 446.957611 23.633535 
L 448.451486 25.366068 
L 450.050455 26.882253 
L 451.865632 28.293485 
L 453.967882 29.640155 
L 456.576655 31.036579 
L 460.753318 32.978968 
L 465.18888 35.107479 
L 467.656149 36.534152 
L 469.680403 37.958818 
L 471.412936 39.452693 
L 472.92912 41.051663 
L 474.340353 42.866839 
L 475.687023 44.969089 
L 475.930785 45.39286 
L 475.930785 45.39286 
" style="fill:none;stroke:#ff7f0e;stroke-linecap:square;stroke-width:1.5;"/>
   </g>
   <g id="line2d_11">
    <path clip-path="url(#p2fd53420b6)" d="M 475.967743 45.442909 
L 477.088565 47.363253 
L 478.385304 49.169474 
L 479.846427 50.845507 
L 481.458938 52.376446 
L 483.208496 53.748675 
L 485.079541 54.949989 
L 487.055433 55.969705 
L 489.118597 56.798752 
L 491.250684 57.429758 
L 493.432732 57.857111 
L 495.645335 58.077009 
L 497.868813 58.087498 
L 500.083392 57.888483 
L 502.269375 57.481735 
L 504.407321 56.870871 
L 506.478214 56.061325 
L 508.463638 55.060295 
L 508.720944 54.912816 
L 508.720944 54.912816 
" style="fill:none;stroke:#2ca02c;stroke-linecap:square;stroke-width:1.5;"/>
   </g>
   <g id="text_9">
    <!-- $\overline{\gamma_1}$ -->
    <g transform="translate(552.913979 14.246924)scale(0.1 -0.1)">
     <use transform="scale(0.996264)" xlink:href="#CMMI12-13"/>
     <use transform="translate(50.599133 -14.943915)scale(0.697382)" xlink:href="#CMR17-49"/>
     <path d="M 0 54.849612 
L 83.080447 54.849612 
L 83.080447 58.834561 
L 0 58.834561 
L 0 54.849612 
z
"/>
    </g>
   </g>
   <g id="text_10">
    <!-- $\overline{\gamma_2}$ -->
    <g transform="translate(441.769754 14.246924)scale(0.1 -0.1)">
     <use transform="scale(0.996264)" xlink:href="#CMMI12-13"/>
     <use transform="translate(50.599133 -14.943915)scale(0.697382)" xlink:href="#CMR17-50"/>
     <path d="M 0 54.849612 
L 83.080447 54.849612 
L 83.080447 58.834561 
L 0 58.834561 
L 0 54.849612 
z
"/>
    </g>
   </g>
   <g id="text_11">
    <!-- $\phi_{0.3}^{\gamma_1, \gamma_2}$ -->
    <g transform="translate(508.848897 62.628065)scale(0.1 -0.1)">
     <defs>
      <path d="M 22.09375 33.703125 
C 31 33.703125 34.90625 25.96875 34.90625 17.03125 
C 34.90625 5 28.5 0.390625 22.703125 0.390625 
C 17.40625 0.390625 8.796875 3.03125 6.09375 10.828125 
C 6.59375 10.625 7.09375 10.625 7.59375 10.625 
C 10 10.625 11.796875 12.21875 11.796875 14.8125 
C 11.796875 17.703125 9.59375 19 7.59375 19 
C 5.90625 19 3.296875 18.203125 3.296875 14.46875 
C 3.296875 5.234375 12.296875 -2 22.90625 -2 
C 34 -2 42.5 6.71875 42.5 16.953125 
C 42.5 26.671875 34.5 33.703125 25 34.796875 
C 32.59375 36.375 39.90625 43.0625 39.90625 52.015625 
C 39.90625 59.6875 32 65.296875 23 65.296875 
C 13.90625 65.296875 5.90625 59.828125 5.90625 52.015625 
C 5.90625 48.59375 8.5 48 9.796875 48 
C 11.90625 48 13.703125 49.296875 13.703125 51.890625 
C 13.703125 54.46875 11.90625 55.765625 9.796875 55.765625 
C 9.40625 55.765625 8.90625 55.765625 8.5 55.578125 
C 11.40625 61.859375 19.296875 63 22.796875 63 
C 26.296875 63 32.90625 61.328125 32.90625 51.875 
C 32.90625 49.109375 32.5 44.1875 29.09375 39.84375 
C 26.09375 36 22.703125 36 19.40625 35.6875 
C 18.90625 35.6875 16.59375 35.453125 16.203125 35.453125 
C 15.5 35.359375 15.09375 35.265625 15.09375 34.5 
C 15.09375 33.796875 15.203125 33.703125 17.203125 33.703125 
z
" id="CMR17-51"/>
     </defs>
     <use transform="scale(0.996264)" xlink:href="#CMMI12-30"/>
     <use transform="translate(57.73418 47.87587)scale(0.697382)" xlink:href="#CMMI12-13"/>
     <use transform="translate(93.153406 37.415174)scale(0.498132)" xlink:href="#CMR17-49"/>
     <use transform="translate(116.496777 47.87587)scale(0.697382)" xlink:href="#CMMI12-59"/>
     <use transform="translate(135.464709 47.87587)scale(0.697382)" xlink:href="#CMMI12-13"/>
     <use transform="translate(170.883935 37.415174)scale(0.498132)" xlink:href="#CMR17-50"/>
     <use transform="translate(57.73418 -26.578082)scale(0.697382)" xlink:href="#CMR17-48"/>
     <use transform="translate(89.717362 -26.578082)scale(0.697382)" xlink:href="#CMMI12-58"/>
     <use transform="translate(108.685295 -26.578082)scale(0.697382)" xlink:href="#CMR17-51"/>
    </g>
   </g>
  </g>
 </g>
 <defs>
  <clipPath id="pe48f9174c8">
   <rect height="48.247968" width="96.495935" x="25.193899" y="12.053834"/>
  </clipPath>
  <clipPath id="p933908659a">
   <rect height="48.247968" width="101.513309" x="163.985212" y="12.053834"/>
  </clipPath>
  <clipPath id="p846624bbfb">
   <rect height="48.247968" width="111.631291" x="300.226221" y="12.053834"/>
  </clipPath>
  <clipPath id="p2fd53420b6">
   <rect height="48.247968" width="122.258647" x="436.212543" y="12.053834"/>
  </clipPath>
 </defs>
</svg>
