<?xml version="1.0" encoding="utf-8" standalone="no"?>
<!DOCTYPE svg PUBLIC "-//W3C//DTD SVG 1.1//EN"
  "http://www.w3.org/Graphics/SVG/1.1/DTD/svg11.dtd">
<!-- Created with matplotlib (https://matplotlib.org/) -->
<svg height="144pt" version="1.1" viewBox="0 0 576 144" width="576pt" xmlns="http://www.w3.org/2000/svg" xmlns:xlink="http://www.w3.org/1999/xlink">
 <metadata>
  <rdf:RDF xmlns:cc="http://creativecommons.org/ns#" xmlns:dc="http://purl.org/dc/elements/1.1/" xmlns:rdf="http://www.w3.org/1999/02/22-rdf-syntax-ns#">
   <cc:Work>
    <dc:type rdf:resource="http://purl.org/dc/dcmitype/StillImage"/>
    <dc:date>2022-09-20T09:40:23.986382</dc:date>
    <dc:format>image/svg+xml</dc:format>
    <dc:creator>
     <cc:Agent>
      <dc:title>Matplotlib v3.3.3, https://matplotlib.org/</dc:title>
     </cc:Agent>
    </dc:creator>
   </cc:Work>
  </rdf:RDF>
 </metadata>
 <defs>
  <style type="text/css">*{stroke-linecap:butt;stroke-linejoin:round;}</style>
 </defs>
 <g id="figure_1">
  <g id="patch_1">
   <path d="M 0 144 
L 576 144 
L 576 0 
L 0 0 
z
" style="fill:#ffffff;"/>
  </g>
  <g id="axes_1">
   <g id="line2d_1">
    <path clip-path="url(#p008fd15240)" d="M 96.25283 115.846891 
L 99.146315 109.719966 
L 100.860512 106.61291 
L 102.511905 104.065146 
L 104.199405 101.864539 
L 105.976521 99.909071 
L 107.912246 98.112212 
L 110.003035 96.470419 
L 112.42957 94.853322 
L 115.304771 93.218318 
L 118.946988 91.417184 
L 130.099489 86.084109 
L 132.911509 84.385924 
L 135.269194 82.699977 
L 137.289866 80.988065 
L 139.152846 79.118462 
L 140.858303 77.091335 
L 142.476254 74.821179 
L 144.062744 72.208512 
L 145.771953 68.940944 
L 148.042424 64.057297 
L 150.935909 57.930372 
L 152.650106 54.823316 
L 154.301499 52.275552 
L 155.988999 50.074945 
L 157.766115 48.119477 
L 159.70184 46.322619 
L 161.792629 44.680825 
L 164.219164 43.063728 
L 167.094365 41.428724 
L 170.736582 39.62759 
L 173.937221 38.1625 
L 173.937221 38.1625 
" style="fill:none;stroke:#1f77b4;stroke-linecap:square;stroke-width:1.5;"/>
   </g>
   <g id="line2d_2">
    <path clip-path="url(#p008fd15240)" d="M 18.568439 38.1625 
L 21.461924 44.289425 
L 23.176122 47.396481 
L 24.827514 49.944244 
L 26.515014 52.144852 
L 28.29213 54.10032 
L 30.227855 55.897178 
L 32.318644 57.538972 
L 34.74518 59.156069 
L 37.62038 60.791073 
L 41.262597 62.592207 
L 52.415098 67.925282 
L 55.227118 69.623467 
L 57.584803 71.309414 
L 59.605475 73.021325 
L 61.468455 74.890929 
L 63.173912 76.918055 
L 64.791863 79.188212 
L 66.378353 81.800878 
L 68.087562 85.068447 
L 70.358033 89.952094 
L 73.251518 96.079019 
L 74.965715 99.186075 
L 76.617108 101.733838 
L 78.304608 103.934446 
L 80.081724 105.889914 
L 82.017449 107.686772 
L 84.108238 109.328566 
L 86.534773 110.945663 
L 89.409974 112.580667 
L 93.052191 114.381801 
L 96.25283 115.846891 
L 96.25283 115.846891 
" style="fill:none;stroke:#ff7f0e;stroke-linecap:square;stroke-width:1.5;"/>
   </g>
   <g id="line2d_3">
    <path clip-path="url(#p008fd15240)" d="M 86.243439 111.318161 
L 89.192925 105.055196 
L 91.081126 101.568736 
L 92.967235 98.554864 
L 94.851355 95.956821 
L 96.850224 93.57504 
L 99.031302 91.333276 
L 101.365188 89.265609 
L 103.811084 87.391347 
L 106.564343 85.563049 
L 109.699152 83.757079 
L 113.484463 81.847392 
L 125.952298 75.789445 
L 128.082104 74.364487 
L 129.777946 72.970556 
L 131.27434 71.450183 
L 132.660163 69.710919 
L 133.997972 67.665919 
L 135.458269 65.004526 
L 137.318882 61.102423 
L 141.287845 52.669326 
L 143.155238 49.29542 
L 145.001064 46.406696 
L 146.914649 43.819985 
L 148.940772 41.455695 
L 151.145809 39.237013 
L 153.498382 37.196182 
L 156.075492 35.26716 
L 158.836473 33.478467 
L 162.088201 31.648462 
L 166.080523 29.676791 
L 169.408491 28.153109 
L 169.408491 28.153109 
" style="fill:none;stroke:#1f77b4;stroke-linecap:square;stroke-opacity:0.5;stroke-width:1.5;"/>
   </g>
   <g id="line2d_4">
    <path clip-path="url(#p008fd15240)" d="M 28.57783 33.63377 
L 31.321476 39.438988 
L 32.863432 42.183125 
L 34.291971 44.278259 
L 35.694916 45.949842 
L 37.23283 47.43149 
L 38.999163 48.810212 
L 41.078287 50.145546 
L 43.77982 51.606611 
L 47.93485 53.569002 
L 55.493095 57.118596 
L 58.983253 59.027065 
L 61.874903 60.852673 
L 64.46928 62.746609 
L 66.845329 64.754596 
L 69.079475 66.943729 
L 71.138239 69.28394 
L 73.086968 71.852678 
L 74.895392 74.610019 
L 76.68167 77.743646 
L 78.627413 81.63574 
L 84.300375 93.388939 
L 85.720287 95.577897 
L 87.148237 97.369933 
L 88.646699 98.887408 
L 90.35127 100.283675 
L 92.351578 101.625338 
L 94.873928 103.040769 
L 98.498235 104.797994 
L 100.78156 105.8375 
L 100.78156 105.8375 
" style="fill:none;stroke:#ff7f0e;stroke-linecap:square;stroke-opacity:0.5;stroke-width:1.5;"/>
   </g>
   <g id="line2d_5">
    <defs>
     <path d="M 0 3 
C 0.795609 3 1.55874 2.683901 2.12132 2.12132 
C 2.683901 1.55874 3 0.795609 3 0 
C 3 -0.795609 2.683901 -1.55874 2.12132 -2.12132 
C 1.55874 -2.683901 0.795609 -3 0 -3 
C -0.795609 -3 -1.55874 -2.683901 -2.12132 -2.12132 
C -2.683901 -1.55874 -3 -0.795609 -3 0 
C -3 0.795609 -2.683901 1.55874 -2.12132 2.12132 
C -1.55874 2.683901 -0.795609 3 0 3 
z
" id="m0c403d0eac" style="stroke:#2ca02c;"/>
    </defs>
    <g clip-path="url(#p008fd15240)">
     <use style="fill:#2ca02c;stroke:#2ca02c;" x="91.403737" xlink:href="#m0c403d0eac" y="101.021062"/>
    </g>
   </g>
   <g id="line2d_6">
    <path clip-path="url(#p008fd15240)" d="M 102.389968 101.021062 
L 102.27522 99.437353 
L 101.933373 97.886728 
L 101.371567 96.401576 
L 100.601539 95.012924 
L 99.639374 93.749778 
L 98.50517 92.638525 
L 97.222622 91.702378 
L 95.818521 90.960894 
L 94.322197 90.429561 
L 92.764908 90.119479 
L 91.179185 90.037125 
L 89.598153 90.184219 
L 88.054838 90.557689 
L 86.58148 91.149733 
L 85.208856 91.947983 
L 83.96564 92.935766 
L 82.877802 94.092445 
L 81.968066 95.39386 
L 81.255435 96.812823 
L 80.754797 98.319695 
L 80.47661 99.882996 
L 80.426684 101.470071 
L 80.606063 103.047767 
L 81.010999 104.583125 
L 81.633034 106.044075 
L 82.459173 107.400096 
L 83.472159 108.622863 
L 84.650832 109.686832 
L 85.970569 110.569778 
L 87.403802 111.253257 
L 88.920591 111.722991 
L 90.489252 111.969167 
L 92.077016 111.986644 
L 93.650716 111.775055 
L 95.177477 111.338822 
L 96.625407 110.687056 
L 97.964259 109.833373 
L 99.166066 108.795606 
L 100.205722 107.595433 
L 101.061509 106.257924 
L 101.71555 104.811021 
L 102.154184 103.284947 
L 102.368246 101.711583 
L 102.389968 101.021062 
L 102.389968 101.021062 
" style="fill:none;stroke:#2ca02c;stroke-linecap:square;stroke-width:1.5;"/>
   </g>
   <g id="text_1">
    <!-- $\phi_{0.1}^{\gamma_1, \gamma_2}$ -->
    <g transform="translate(81.608596 81.885094)scale(0.1 -0.1)">
     <defs>
      <path d="M 43 68.59375 
C 43 69.5 42.296875 69.5 42 69.5 
C 41.09375 69.5 41 69.296875 40.59375 67.59375 
L 35.203125 45.921875 
C 34.90625 44.625 34.796875 44.515625 34.703125 44.421875 
C 34.59375 44.21875 33.90625 44.125 33.703125 44.125 
C 17.296875 42.71875 4.703125 29.125 4.703125 16.515625 
C 4.703125 5.640625 13 -1 23.40625 -1 
C 22.59375 -4.078125 21.90625 -7.234375 21.09375 -10.296875 
C 19.703125 -15.546875 18.90625 -18.8125 18.90625 -19.203125 
C 18.90625 -19.390625 18.90625 -20 19.90625 -20 
C 20.203125 -20 20.59375 -20 20.796875 -19.59375 
C 21 -19.390625 21.59375 -17.015625 22 -15.75 
L 25.703125 -1 
C 42.796875 -1 55.796875 13.34375 55.796875 26.25 
C 55.796875 36.609375 48.203125 44 37.09375 44 
z
M 36.5 42.203125 
C 43.09375 42.203125 49.703125 38.484375 49.703125 28.5625 
C 49.703125 17.140625 41.796875 2 26.203125 0.78125 
z
M 23.90625 0.78125 
C 19 0.78125 10.796875 3.4375 10.796875 14.65625 
C 10.796875 27.515625 19.90625 41.8125 34.296875 41.8125 
z
" id="CMMI12-30"/>
      <path d="M 37.796875 11.875 
C 37.59375 16.734375 37.40625 24.390625 33.59375 33.328125 
C 31.59375 38.3125 28.203125 43.5625 20.90625 43.5625 
C 8.59375 43.5625 1.90625 27.96875 1.90625 25.390625 
C 1.90625 24.484375 2.59375 24.484375 2.90625 24.484375 
C 3.796875 24.484375 3.796875 24.6875 4.296875 25.984375 
C 6.40625 32.140625 12.796875 37 19.703125 37 
C 33.59375 37 35.59375 21.609375 35.59375 11.78125 
C 35.59375 5.5 34.90625 3.4375 34.296875 1.4375 
C 32.40625 -4.71875 29.09375 -17.03125 29.09375 -19.8125 
C 29.09375 -20.609375 29.40625 -21.5 30.203125 -21.5 
C 31.703125 -21.5 32.59375 -18.21875 33.703125 -14.25 
C 36.09375 -5.515625 36.703125 -1.140625 37.203125 2.828125 
C 37.5 5.21875 43.203125 21.625 51.09375 37.21875 
C 51.796875 38.796875 53.203125 41.484375 53.203125 41.78125 
C 53.203125 41.875 53.09375 42.578125 52.203125 42.578125 
C 52 42.578125 51.5 42.578125 51.296875 42.171875 
C 51.09375 41.984375 47.59375 35.21875 44.59375 28.46875 
C 43.09375 25.09375 41.09375 20.625 37.796875 11.875 
z
" id="CMMI12-13"/>
      <path d="M 26.59375 63.40625 
C 26.59375 65.5 26.5 65.5 25.09375 65.5 
C 21.203125 61.1875 15.296875 59.796875 9.703125 59.796875 
C 9.40625 59.796875 8.90625 59.796875 8.796875 59.5 
C 8.703125 59.296875 8.703125 59.09375 8.703125 57 
C 11.796875 57 17 57.59375 21 59.984375 
L 21 7.203125 
C 21 3.6875 20.796875 2.5 12.203125 2.5 
L 9.203125 2.5 
L 9.203125 0 
C 14 0 19 0 23.796875 0 
C 28.59375 0 33.59375 0 38.40625 0 
L 38.40625 2.5 
L 35.40625 2.5 
C 26.796875 2.5 26.59375 3.59375 26.59375 7.15625 
z
" id="CMR17-49"/>
      <path d="M 19.5 -0.484375 
C 19.5 5.359375 17.59375 9.671875 13.5 9.671875 
C 10.296875 9.671875 8.703125 7.078125 8.703125 4.890625 
C 8.703125 2.6875 10.203125 0 13.59375 0 
C 14.90625 0 16 0.40625 16.90625 1.296875 
C 17.09375 1.5 17.203125 1.5 17.296875 1.5 
C 17.5 1.5 17.5 0.078125 17.5 -0.421875 
C 17.5 -3.75 16.90625 -10.296875 11.09375 -16.875 
C 10 -18.078125 10 -18.28125 10 -18.484375 
C 10 -19 10.5 -19.5 11 -19.5 
C 11.796875 -19.5 19.5 -12.046875 19.5 -0.484375 
z
" id="CMMI12-59"/>
      <path d="M 41.703125 15.453125 
L 39.90625 15.453125 
C 38.90625 8.375 38.09375 7.171875 37.703125 6.5625 
C 37.203125 5.765625 30 5.765625 28.59375 5.765625 
L 9.40625 5.765625 
C 13 9.671875 20 16.75 28.5 24.953125 
C 34.59375 30.734375 41.703125 37.53125 41.703125 47.421875 
C 41.703125 59.21875 32.296875 66 21.796875 66 
C 10.796875 66 4.09375 56.3125 4.09375 47.34375 
C 4.09375 43.4375 7 42.9375 8.203125 42.9375 
C 9.203125 42.9375 12.203125 43.546875 12.203125 47.03125 
C 12.203125 50.109375 9.59375 51 8.203125 51 
C 7.59375 51 7 50.90625 6.59375 50.703125 
C 8.5 59.21875 14.296875 63.40625 20.40625 63.40625 
C 29.09375 63.40625 34.796875 56.515625 34.796875 47.421875 
C 34.796875 38.734375 29.703125 31.25 24 24.75 
L 4.09375 2.28125 
L 4.09375 0 
L 39.296875 0 
z
" id="CMR17-50"/>
      <path d="M 42 31.640625 
C 42 37.75 41.90625 48.125 37.703125 56.109375 
C 34 63.109375 28.09375 65.59375 22.90625 65.59375 
C 18.09375 65.59375 12 63.40625 8.203125 56.203125 
C 4.203125 48.71875 3.796875 39.4375 3.796875 31.640625 
C 3.796875 25.953125 3.90625 17.28125 7 9.671875 
C 11.296875 -0.609375 19 -2 22.90625 -2 
C 27.5 -2 34.5 -0.109375 38.59375 9.375 
C 41.59375 16.28125 42 24.359375 42 31.640625 
z
M 22.90625 -0.40625 
C 16.5 -0.40625 12.703125 5.078125 11.296875 12.6875 
C 10.203125 18.5625 10.203125 27.15625 10.203125 32.75 
C 10.203125 40.4375 10.203125 46.828125 11.5 52.921875 
C 13.40625 61.390625 19 64 22.90625 64 
C 27 64 32.296875 61.296875 34.203125 53.125 
C 35.5 47.4375 35.59375 40.734375 35.59375 32.75 
C 35.59375 26.25 35.59375 18.265625 34.40625 12.375 
C 32.296875 1.484375 26.40625 -0.40625 22.90625 -0.40625 
z
" id="CMR17-48"/>
      <path d="M 18.40625 4.796875 
C 18.40625 7.6875 16 9.671875 13.59375 9.671875 
C 10.703125 9.671875 8.703125 7.28125 8.703125 4.890625 
C 8.703125 2 11.09375 0 13.5 0 
C 16.40625 0 18.40625 2.390625 18.40625 4.796875 
z
" id="CMMI12-58"/>
     </defs>
     <use transform="scale(0.996264)" xlink:href="#CMMI12-30"/>
     <use transform="translate(57.73418 47.87587)scale(0.697382)" xlink:href="#CMMI12-13"/>
     <use transform="translate(93.153406 37.415174)scale(0.498132)" xlink:href="#CMR17-49"/>
     <use transform="translate(116.496777 47.87587)scale(0.697382)" xlink:href="#CMMI12-59"/>
     <use transform="translate(135.464709 47.87587)scale(0.697382)" xlink:href="#CMMI12-13"/>
     <use transform="translate(170.883935 37.415174)scale(0.498132)" xlink:href="#CMR17-50"/>
     <use transform="translate(57.73418 -26.578082)scale(0.697382)" xlink:href="#CMR17-48"/>
     <use transform="translate(89.717362 -26.578082)scale(0.697382)" xlink:href="#CMMI12-58"/>
     <use transform="translate(108.685295 -26.578082)scale(0.697382)" xlink:href="#CMR17-49"/>
    </g>
   </g>
   <g id="text_2">
    <!-- $\gamma_1$ -->
    <g transform="translate(173.937221 38.1625)scale(0.1 -0.1)">
     <use transform="scale(0.996264)" xlink:href="#CMMI12-13"/>
     <use transform="translate(50.599133 -14.943915)scale(0.697382)" xlink:href="#CMR17-49"/>
    </g>
   </g>
   <g id="text_3">
    <!-- $\gamma_2$ -->
    <g transform="translate(18.568439 38.1625)scale(0.1 -0.1)">
     <use transform="scale(0.996264)" xlink:href="#CMMI12-13"/>
     <use transform="translate(50.599133 -14.943915)scale(0.697382)" xlink:href="#CMR17-50"/>
    </g>
   </g>
   <g id="text_4">
    <!-- $O^{\gamma_1}_{0.1}$ -->
    <g transform="translate(169.408491 28.153109)scale(0.1 -0.1)">
     <defs>
      <path d="M 72.59375 43.703125 
C 72.59375 60.125 61.796875 70.1875 47.796875 70.1875 
C 26.40625 70.1875 4.796875 47.28125 4.796875 24.28125 
C 4.796875 8.65625 15.203125 -2 29.703125 -2 
C 50.703125 -2 72.59375 19.8125 72.59375 43.703125 
z
M 30.296875 0.296875 
C 22.09375 0.296875 13.40625 6.265625 13.40625 21.796875 
C 13.40625 30.84375 16.703125 45.6875 24.90625 55.65625 
C 32.203125 64.421875 40.59375 68 47.296875 68 
C 56.09375 68 64.59375 61.625 64.59375 47.28125 
C 64.59375 38.421875 60.796875 24.578125 54.09375 15.125 
C 46.796875 4.96875 37.703125 0.296875 30.296875 0.296875 
z
" id="CMMI12-79"/>
     </defs>
     <use transform="scale(0.996264)" xlink:href="#CMMI12-79"/>
     <use transform="translate(77.260399 47.87587)scale(0.697382)" xlink:href="#CMMI12-13"/>
     <use transform="translate(112.679624 37.415174)scale(0.498132)" xlink:href="#CMR17-49"/>
     <use transform="translate(74.550681 -26.578082)scale(0.697382)" xlink:href="#CMR17-48"/>
     <use transform="translate(106.533863 -26.578082)scale(0.697382)" xlink:href="#CMMI12-58"/>
     <use transform="translate(125.501796 -26.578082)scale(0.697382)" xlink:href="#CMR17-49"/>
    </g>
   </g>
   <g id="text_5">
    <!-- $O^{\gamma_2}_{0.1}$ -->
    <g transform="translate(28.57783 33.63377)scale(0.1 -0.1)">
     <use transform="scale(0.996264)" xlink:href="#CMMI12-79"/>
     <use transform="translate(77.260399 47.87587)scale(0.697382)" xlink:href="#CMMI12-13"/>
     <use transform="translate(112.679624 37.415174)scale(0.498132)" xlink:href="#CMR17-50"/>
     <use transform="translate(74.550681 -26.578082)scale(0.697382)" xlink:href="#CMR17-48"/>
     <use transform="translate(106.533863 -26.578082)scale(0.697382)" xlink:href="#CMMI12-58"/>
     <use transform="translate(125.501796 -26.578082)scale(0.697382)" xlink:href="#CMR17-49"/>
    </g>
   </g>
  </g>
  <g id="axes_2">
   <g id="line2d_7">
    <path clip-path="url(#pc43e5447e8)" d="M 286.419356 120.851586 
L 289.312841 114.724661 
L 291.027038 111.617605 
L 292.678431 109.069842 
L 294.365931 106.869234 
L 296.143047 104.913766 
L 298.078772 103.116908 
L 300.169561 101.475114 
L 302.596096 99.858017 
L 305.471297 98.223013 
L 309.113514 96.421879 
L 320.266015 91.088804 
L 323.078035 89.390619 
L 325.43572 87.704672 
L 327.456392 85.992761 
L 329.319372 84.123157 
L 331.024829 82.096031 
L 332.64278 79.825874 
L 334.22927 77.213208 
L 335.938479 73.945639 
L 338.20895 69.061992 
L 341.102435 62.935067 
L 342.816632 59.828011 
L 344.468025 57.280248 
L 346.155525 55.07964 
L 347.932641 53.124172 
L 349.868366 51.327314 
L 351.959155 49.68552 
L 354.38569 48.068423 
L 357.260891 46.433419 
L 360.903108 44.632285 
L 364.103747 43.167195 
L 364.103747 43.167195 
" style="fill:none;stroke:#1f77b4;stroke-linecap:square;stroke-width:1.5;"/>
   </g>
   <g id="line2d_8">
    <path clip-path="url(#pc43e5447e8)" d="M 208.734965 43.167195 
L 211.62845 49.29412 
L 213.342648 52.401176 
L 214.99404 54.94894 
L 216.68154 57.149547 
L 218.458656 59.105015 
L 220.394381 60.901873 
L 222.48517 62.543667 
L 224.911706 64.160764 
L 227.786906 65.795768 
L 231.429123 67.596902 
L 242.581624 72.929977 
L 245.393644 74.628162 
L 247.751329 76.314109 
L 249.772001 78.02602 
L 251.634981 79.895624 
L 253.340438 81.92275 
L 254.958389 84.192907 
L 256.544879 86.805574 
L 258.254088 90.073142 
L 260.524559 94.956789 
L 263.418044 101.083714 
L 265.132241 104.19077 
L 266.783634 106.738534 
L 268.471134 108.939141 
L 270.24825 110.894609 
L 272.183975 112.691467 
L 274.274764 114.333261 
L 276.701299 115.950358 
L 279.5765 117.585362 
L 283.218717 119.386496 
L 286.419356 120.851586 
L 286.419356 120.851586 
" style="fill:none;stroke:#ff7f0e;stroke-linecap:square;stroke-width:1.5;"/>
   </g>
   <g id="line2d_9">
    <path clip-path="url(#pc43e5447e8)" d="M 266.400575 111.794127 
L 269.495546 105.220601 
L 271.508728 101.469568 
L 273.546952 98.136939 
L 275.588883 95.210239 
L 277.76518 92.471212 
L 280.025272 89.970436 
L 282.448378 87.610213 
L 285.135575 85.312655 
L 287.897065 83.239845 
L 290.961821 81.218125 
L 294.386903 79.234869 
L 298.28973 77.239365 
L 304.091932 74.559801 
L 308.933822 72.241163 
L 311.102597 70.967657 
L 312.465033 69.927075 
L 313.442193 68.906402 
L 314.405272 67.566464 
L 315.543328 65.587073 
L 317.095479 62.406548 
L 322.060095 51.931091 
L 324.057886 48.385811 
L 326.122473 45.175756 
L 328.2672 42.258739 
L 330.536887 39.55571 
L 332.873964 37.111966 
L 335.35641 34.827078 
L 338.082436 32.622074 
L 341.002864 30.549522 
L 344.193905 28.56181 
L 347.829677 26.571248 
L 352.200234 24.446866 
L 355.046288 23.148414 
L 355.046288 23.148414 
" style="fill:none;stroke:#1f77b4;stroke-linecap:square;stroke-opacity:0.5;stroke-width:1.5;"/>
   </g>
   <g id="line2d_10">
    <path clip-path="url(#pc43e5447e8)" d="M 228.753746 34.109736 
L 231.381756 39.656498 
L 232.697467 41.915595 
L 233.742774 43.293507 
L 234.757673 44.272353 
L 236.081285 45.230073 
L 238.038679 46.361512 
L 241.192937 47.905785 
L 251.899118 52.986549 
L 255.450687 54.998278 
L 258.662506 57.076638 
L 261.577508 59.23419 
L 264.27527 61.515279 
L 266.711249 63.861501 
L 268.986253 66.35072 
L 271.179432 69.080832 
L 273.23911 72.002049 
L 275.213363 75.190151 
L 277.190119 78.818225 
L 279.355982 83.293415 
L 283.605297 92.247442 
L 284.820664 94.188608 
L 285.840315 95.413114 
L 286.932651 96.36725 
L 288.436093 97.370364 
L 290.737622 98.61894 
L 294.73977 100.499122 
L 295.476815 100.832805 
L 295.476815 100.832805 
" style="fill:none;stroke:#ff7f0e;stroke-linecap:square;stroke-opacity:0.5;stroke-width:1.5;"/>
   </g>
   <g id="line2d_11">
    <g clip-path="url(#pc43e5447e8)">
     <use style="fill:#2ca02c;stroke:#2ca02c;" x="281.658902" xlink:href="#m0c403d0eac" y="88.346432"/>
    </g>
   </g>
   <g id="line2d_12">
    <path clip-path="url(#pc43e5447e8)" d="M 303.631366 88.346432 
L 303.520206 86.139038 
L 303.187849 83.953978 
L 302.637658 81.813363 
L 301.8752 79.73885 
L 300.908191 77.75143 
L 299.746414 75.871212 
L 298.401624 74.117221 
L 296.887428 72.507203 
L 295.219148 71.057449 
L 293.413662 69.782629 
L 291.48924 68.69564 
L 289.465353 67.807481 
L 287.362479 67.127139 
L 285.201895 66.661498 
L 283.005462 66.415268 
L 280.795405 66.390942 
L 278.594084 66.588765 
L 276.423774 67.006736 
L 274.306434 67.640626 
L 272.263488 68.484021 
L 270.315606 69.528388 
L 268.482497 70.763158 
L 266.78271 72.17584 
L 265.233442 73.752138 
L 263.85037 75.476103 
L 262.647489 77.330293 
L 261.636967 79.295947 
L 260.829032 81.353174 
L 260.231856 83.481161 
L 259.851484 85.658375 
L 259.691762 87.862788 
L 259.754308 90.072094 
L 260.038488 92.263939 
L 260.541428 94.416147 
L 261.258038 96.50694 
L 262.181067 98.515163 
L 263.301177 100.420498 
L 264.607033 102.203665 
L 266.085423 103.846622 
L 267.721388 105.332746 
L 269.498376 106.646999 
L 271.398405 107.776084 
L 273.402253 108.708576 
L 275.489642 109.43504 
L 277.639453 109.948126 
L 279.829934 110.242643 
L 282.03892 110.315609 
L 284.244062 110.166288 
L 286.423046 109.796189 
L 288.553826 109.209059 
L 290.614842 108.410836 
L 292.58524 107.409598 
L 294.445083 106.215476 
L 296.175554 104.840552 
L 297.759143 103.298737 
L 299.179826 101.605633 
L 300.42323 99.778369 
L 301.476773 97.835435 
L 302.329795 95.79649 
L 302.973666 93.682163 
L 303.40187 91.513849 
L 303.610075 89.313486 
L 303.631366 88.346432 
L 303.631366 88.346432 
" style="fill:none;stroke:#2ca02c;stroke-linecap:square;stroke-width:1.5;"/>
   </g>
   <g id="text_6">
    <!-- $\phi_{0.2}^{\gamma_1, \gamma_2}$ -->
    <g transform="translate(271.846487 58.224246)scale(0.1 -0.1)">
     <use transform="scale(0.996264)" xlink:href="#CMMI12-30"/>
     <use transform="translate(57.73418 47.87587)scale(0.697382)" xlink:href="#CMMI12-13"/>
     <use transform="translate(93.153406 37.415174)scale(0.498132)" xlink:href="#CMR17-49"/>
     <use transform="translate(116.496777 47.87587)scale(0.697382)" xlink:href="#CMMI12-59"/>
     <use transform="translate(135.464709 47.87587)scale(0.697382)" xlink:href="#CMMI12-13"/>
     <use transform="translate(170.883935 37.415174)scale(0.498132)" xlink:href="#CMR17-50"/>
     <use transform="translate(57.73418 -26.578082)scale(0.697382)" xlink:href="#CMR17-48"/>
     <use transform="translate(89.717362 -26.578082)scale(0.697382)" xlink:href="#CMMI12-58"/>
     <use transform="translate(108.685295 -26.578082)scale(0.697382)" xlink:href="#CMR17-50"/>
    </g>
   </g>
   <g id="text_7">
    <!-- $\gamma_1$ -->
    <g transform="translate(364.103747 43.167195)scale(0.1 -0.1)">
     <use transform="scale(0.996264)" xlink:href="#CMMI12-13"/>
     <use transform="translate(50.599133 -14.943915)scale(0.697382)" xlink:href="#CMR17-49"/>
    </g>
   </g>
   <g id="text_8">
    <!-- $\gamma_2$ -->
    <g transform="translate(208.734965 43.167195)scale(0.1 -0.1)">
     <use transform="scale(0.996264)" xlink:href="#CMMI12-13"/>
     <use transform="translate(50.599133 -14.943915)scale(0.697382)" xlink:href="#CMR17-50"/>
    </g>
   </g>
   <g id="text_9">
    <!-- $O^{\gamma_1}_{0.2}$ -->
    <g transform="translate(355.046288 23.148414)scale(0.1 -0.1)">
     <use transform="scale(0.996264)" xlink:href="#CMMI12-79"/>
     <use transform="translate(77.260399 47.87587)scale(0.697382)" xlink:href="#CMMI12-13"/>
     <use transform="translate(112.679624 37.415174)scale(0.498132)" xlink:href="#CMR17-49"/>
     <use transform="translate(74.550681 -26.578082)scale(0.697382)" xlink:href="#CMR17-48"/>
     <use transform="translate(106.533863 -26.578082)scale(0.697382)" xlink:href="#CMMI12-58"/>
     <use transform="translate(125.501796 -26.578082)scale(0.697382)" xlink:href="#CMR17-50"/>
    </g>
   </g>
   <g id="text_10">
    <!-- $O^{\gamma_2}_{0.2}$ -->
    <g transform="translate(228.753746 34.109736)scale(0.1 -0.1)">
     <use transform="scale(0.996264)" xlink:href="#CMMI12-79"/>
     <use transform="translate(77.260399 47.87587)scale(0.697382)" xlink:href="#CMMI12-13"/>
     <use transform="translate(112.679624 37.415174)scale(0.498132)" xlink:href="#CMR17-50"/>
     <use transform="translate(74.550681 -26.578082)scale(0.697382)" xlink:href="#CMR17-48"/>
     <use transform="translate(106.533863 -26.578082)scale(0.697382)" xlink:href="#CMMI12-58"/>
     <use transform="translate(125.501796 -26.578082)scale(0.697382)" xlink:href="#CMR17-50"/>
    </g>
   </g>
  </g>
  <g id="axes_3">
   <g id="line2d_13">
    <path clip-path="url(#p5f3aeae487)" d="M 476.585882 125.856281 
L 479.479367 119.729356 
L 481.193564 116.622301 
L 482.844957 114.074537 
L 484.532457 111.873929 
L 486.309573 109.918462 
L 488.245298 108.121603 
L 490.336087 106.479809 
L 492.762622 104.862713 
L 495.637823 103.227708 
L 499.28004 101.426574 
L 510.432541 96.093499 
L 513.244561 94.395314 
L 515.602246 92.709367 
L 517.622918 90.997456 
L 519.485898 89.127853 
L 521.191355 87.100726 
L 522.809306 84.83057 
L 524.395796 82.217903 
L 526.105005 78.950334 
L 528.375476 74.066687 
L 531.268961 67.939763 
L 532.983158 64.832707 
L 534.634551 62.284943 
L 536.322051 60.084335 
L 538.099167 58.128868 
L 540.034892 56.332009 
L 542.125681 54.690215 
L 544.552216 53.073119 
L 547.427417 51.438114 
L 551.069634 49.63698 
L 554.270273 48.17189 
L 554.270273 48.17189 
" style="fill:none;stroke:#1f77b4;stroke-linecap:square;stroke-width:1.5;"/>
   </g>
   <g id="line2d_14">
    <path clip-path="url(#p5f3aeae487)" d="M 398.901491 48.17189 
L 401.794976 54.298815 
L 403.509174 57.405871 
L 405.160566 59.953635 
L 406.848066 62.154243 
L 408.625182 64.10971 
L 410.560907 65.906569 
L 412.651696 67.548363 
L 415.078232 69.165459 
L 417.953432 70.800463 
L 421.595649 72.601598 
L 432.74815 77.934673 
L 435.56017 79.632857 
L 437.917855 81.318805 
L 439.938527 83.030716 
L 441.801507 84.900319 
L 443.506964 86.927446 
L 445.124915 89.197602 
L 446.711405 91.810269 
L 448.420614 95.077838 
L 450.691085 99.961484 
L 453.58457 106.088409 
L 455.298768 109.195465 
L 456.95016 111.743229 
L 458.63766 113.943837 
L 460.414776 115.899304 
L 462.350501 117.696163 
L 464.44129 119.337957 
L 466.867826 120.955053 
L 469.743026 122.590057 
L 473.385243 124.391191 
L 476.585882 125.856281 
L 476.585882 125.856281 
" style="fill:none;stroke:#ff7f0e;stroke-linecap:square;stroke-width:1.5;"/>
   </g>
   <g id="line2d_15">
    <path clip-path="url(#p5f3aeae487)" d="M 446.55771 112.270093 
L 449.708245 105.565388 
L 451.865881 101.500008 
L 454.080387 97.807142 
L 456.311677 94.516679 
L 458.704456 91.3914 
L 461.199579 88.502578 
L 463.891176 85.738563 
L 466.731167 83.153023 
L 469.659983 80.784939 
L 472.786435 78.537897 
L 476.202953 76.359253 
L 479.94735 74.242333 
L 484.233742 72.084143 
L 491.109238 68.924788 
L 494.529773 67.223991 
L 495.31265 66.65818 
L 496.199645 65.066286 
L 497.835804 61.609279 
L 501.647909 53.477514 
L 503.841221 49.382652 
L 505.979885 45.845932 
L 508.227131 42.552936 
L 510.63473 39.429518 
L 513.142463 36.546361 
L 515.84426 33.791478 
L 518.691205 31.217816 
L 521.623255 28.863363 
L 524.749011 26.631485 
L 528.160215 24.469263 
L 531.893638 22.369393 
L 536.160751 20.228955 
L 540.684084 18.143719 
L 540.684084 18.143719 
" style="fill:none;stroke:#1f77b4;stroke-linecap:square;stroke-opacity:0.5;stroke-width:1.5;"/>
   </g>
   <g id="line2d_16">
    <path clip-path="url(#p5f3aeae487)" d="M 428.929663 34.585702 
L 431.432161 39.848107 
L 432.166931 40.979429 
L 433.686822 41.834635 
L 436.964788 43.395491 
L 445.686349 47.49169 
L 449.644891 49.626435 
L 453.1889 51.781828 
L 456.484197 54.045044 
L 459.605517 56.467411 
L 462.482792 58.98764 
L 465.228357 61.699467 
L 467.790008 64.553157 
L 470.130761 67.488214 
L 472.347467 70.613047 
L 474.493319 74.018717 
L 476.576246 77.740969 
L 478.763601 82.124546 
L 483.905113 92.779875 
L 483.904969 92.735193 
L 485.318497 93.542561 
L 488.473695 95.056883 
L 490.172071 95.82811 
L 490.172071 95.82811 
" style="fill:none;stroke:#ff7f0e;stroke-linecap:square;stroke-opacity:0.5;stroke-width:1.5;"/>
   </g>
   <g id="line2d_17">
    <g clip-path="url(#p5f3aeae487)">
     <use style="fill:#2ca02c;stroke:#2ca02c;" x="475.923696" xlink:href="#m0c403d0eac" y="76.527737"/>
    </g>
   </g>
   <g id="line2d_18">
    <path clip-path="url(#p5f3aeae487)" d="M 508.882392 76.527737 
L 508.772285 73.835931 
L 508.442701 71.16211 
L 507.895841 68.52414 
L 507.13536 65.939645 
L 506.166338 63.425895 
L 504.99525 60.999685 
L 503.62992 58.677226 
L 502.079472 56.474034 
L 500.354264 54.404831 
L 498.465824 52.483442 
L 496.426768 50.722705 
L 494.250722 49.134384 
L 491.952223 47.729092 
L 489.54663 46.516217 
L 487.050015 45.503864 
L 484.47906 44.698797 
L 481.850942 44.106395 
L 479.183222 43.730616 
L 476.493723 43.573971 
L 473.800415 43.637505 
L 471.121294 43.920796 
L 468.474261 44.42195 
L 465.877 45.137618 
L 463.346867 46.063019 
L 460.900765 47.19197 
L 458.555039 48.516928 
L 456.325362 50.02904 
L 454.226631 51.718202 
L 452.272868 53.57313 
L 450.477129 55.581428 
L 448.85141 57.729679 
L 447.406575 60.003529 
L 446.152277 62.387785 
L 445.096896 64.866518 
L 444.247484 67.423164 
L 443.609717 70.040643 
L 443.187855 72.701466 
L 442.984718 75.387853 
L 443.001662 78.081857 
L 443.238574 80.765477 
L 443.693872 83.420782 
L 444.364513 86.030032 
L 445.246017 88.575792 
L 446.332493 91.041053 
L 447.616683 93.409343 
L 449.090006 95.664839 
L 450.742618 97.792471 
L 452.563477 99.778022 
L 454.540417 101.608227 
L 456.660229 103.270857 
L 458.908751 104.754803 
L 461.270957 106.05015 
L 463.731066 107.148243 
L 466.272639 108.041745 
L 468.878696 108.724687 
L 471.531824 109.192505 
L 474.214297 109.442074 
L 476.908191 109.471725 
L 479.595506 109.281262 
L 482.258289 108.871956 
L 484.878747 108.246543 
L 487.439372 107.409201 
L 489.923055 106.365524 
L 492.313202 105.122486 
L 494.593842 103.688393 
L 496.749738 102.072826 
L 498.766484 100.28658 
L 500.630607 98.341589 
L 502.329651 96.250849 
L 503.852263 94.028329 
L 505.188271 91.68888 
L 506.328748 89.248131 
L 507.266074 86.722391 
L 507.993986 84.128535 
L 508.50762 81.483895 
L 508.803545 78.80614 
L 508.882392 76.527737 
L 508.882392 76.527737 
" style="fill:none;stroke:#2ca02c;stroke-linecap:square;stroke-width:1.5;"/>
   </g>
   <g id="text_11">
    <!-- $\phi_{0.3}^{\gamma_1, \gamma_2}$ -->
    <g transform="translate(466.094006 35.419333)scale(0.1 -0.1)">
     <defs>
      <path d="M 22.09375 33.703125 
C 31 33.703125 34.90625 25.96875 34.90625 17.03125 
C 34.90625 5 28.5 0.390625 22.703125 0.390625 
C 17.40625 0.390625 8.796875 3.03125 6.09375 10.828125 
C 6.59375 10.625 7.09375 10.625 7.59375 10.625 
C 10 10.625 11.796875 12.21875 11.796875 14.8125 
C 11.796875 17.703125 9.59375 19 7.59375 19 
C 5.90625 19 3.296875 18.203125 3.296875 14.46875 
C 3.296875 5.234375 12.296875 -2 22.90625 -2 
C 34 -2 42.5 6.71875 42.5 16.953125 
C 42.5 26.671875 34.5 33.703125 25 34.796875 
C 32.59375 36.375 39.90625 43.0625 39.90625 52.015625 
C 39.90625 59.6875 32 65.296875 23 65.296875 
C 13.90625 65.296875 5.90625 59.828125 5.90625 52.015625 
C 5.90625 48.59375 8.5 48 9.796875 48 
C 11.90625 48 13.703125 49.296875 13.703125 51.890625 
C 13.703125 54.46875 11.90625 55.765625 9.796875 55.765625 
C 9.40625 55.765625 8.90625 55.765625 8.5 55.578125 
C 11.40625 61.859375 19.296875 63 22.796875 63 
C 26.296875 63 32.90625 61.328125 32.90625 51.875 
C 32.90625 49.109375 32.5 44.1875 29.09375 39.84375 
C 26.09375 36 22.703125 36 19.40625 35.6875 
C 18.90625 35.6875 16.59375 35.453125 16.203125 35.453125 
C 15.5 35.359375 15.09375 35.265625 15.09375 34.5 
C 15.09375 33.796875 15.203125 33.703125 17.203125 33.703125 
z
" id="CMR17-51"/>
     </defs>
     <use transform="scale(0.996264)" xlink:href="#CMMI12-30"/>
     <use transform="translate(57.73418 47.87587)scale(0.697382)" xlink:href="#CMMI12-13"/>
     <use transform="translate(93.153406 37.415174)scale(0.498132)" xlink:href="#CMR17-49"/>
     <use transform="translate(116.496777 47.87587)scale(0.697382)" xlink:href="#CMMI12-59"/>
     <use transform="translate(135.464709 47.87587)scale(0.697382)" xlink:href="#CMMI12-13"/>
     <use transform="translate(170.883935 37.415174)scale(0.498132)" xlink:href="#CMR17-50"/>
     <use transform="translate(57.73418 -26.578082)scale(0.697382)" xlink:href="#CMR17-48"/>
     <use transform="translate(89.717362 -26.578082)scale(0.697382)" xlink:href="#CMMI12-58"/>
     <use transform="translate(108.685295 -26.578082)scale(0.697382)" xlink:href="#CMR17-51"/>
    </g>
   </g>
   <g id="text_12">
    <!-- $\gamma_1$ -->
    <g transform="translate(554.270273 48.17189)scale(0.1 -0.1)">
     <use transform="scale(0.996264)" xlink:href="#CMMI12-13"/>
     <use transform="translate(50.599133 -14.943915)scale(0.697382)" xlink:href="#CMR17-49"/>
    </g>
   </g>
   <g id="text_13">
    <!-- $\gamma_2$ -->
    <g transform="translate(398.901491 48.17189)scale(0.1 -0.1)">
     <use transform="scale(0.996264)" xlink:href="#CMMI12-13"/>
     <use transform="translate(50.599133 -14.943915)scale(0.697382)" xlink:href="#CMR17-50"/>
    </g>
   </g>
   <g id="text_14">
    <!-- $O^{\gamma_1}_{0.3}$ -->
    <g transform="translate(540.684084 18.143719)scale(0.1 -0.1)">
     <use transform="scale(0.996264)" xlink:href="#CMMI12-79"/>
     <use transform="translate(77.260399 47.87587)scale(0.697382)" xlink:href="#CMMI12-13"/>
     <use transform="translate(112.679624 37.415174)scale(0.498132)" xlink:href="#CMR17-49"/>
     <use transform="translate(74.550681 -26.578082)scale(0.697382)" xlink:href="#CMR17-48"/>
     <use transform="translate(106.533863 -26.578082)scale(0.697382)" xlink:href="#CMMI12-58"/>
     <use transform="translate(125.501796 -26.578082)scale(0.697382)" xlink:href="#CMR17-51"/>
    </g>
   </g>
   <g id="text_15">
    <!-- $O^{\gamma_2}_{0.3}$ -->
    <g transform="translate(428.929663 34.585702)scale(0.1 -0.1)">
     <use transform="scale(0.996264)" xlink:href="#CMMI12-79"/>
     <use transform="translate(77.260399 47.87587)scale(0.697382)" xlink:href="#CMMI12-13"/>
     <use transform="translate(112.679624 37.415174)scale(0.498132)" xlink:href="#CMR17-50"/>
     <use transform="translate(74.550681 -26.578082)scale(0.697382)" xlink:href="#CMR17-48"/>
     <use transform="translate(106.533863 -26.578082)scale(0.697382)" xlink:href="#CMMI12-58"/>
     <use transform="translate(125.501796 -26.578082)scale(0.697382)" xlink:href="#CMR17-51"/>
    </g>
   </g>
  </g>
 </g>
 <defs>
  <clipPath id="p008fd15240">
   <rect height="96.46316" width="170.90566" x="10.8" y="23.76842"/>
  </clipPath>
  <clipPath id="pc43e5447e8">
   <rect height="107.473489" width="170.90566" x="200.966526" y="18.263255"/>
  </clipPath>
  <clipPath id="p5f3aeae487">
   <rect height="118.483819" width="170.90566" x="391.133052" y="12.758091"/>
  </clipPath>
 </defs>
</svg>
