<?xml version="1.0" encoding="utf-8" standalone="no"?>
<!DOCTYPE svg PUBLIC "-//W3C//DTD SVG 1.1//EN"
  "http://www.w3.org/Graphics/SVG/1.1/DTD/svg11.dtd">
<svg height="360pt" version="1.1" viewBox="0 0 360 360" width="360pt" xmlns="http://www.w3.org/2000/svg" xmlns:xlink="http://www.w3.org/1999/xlink">
 <metadata>
  <rdf:RDF xmlns:cc="http://creativecommons.org/ns#" xmlns:dc="http://purl.org/dc/elements/1.1/" xmlns:rdf="http://www.w3.org/1999/02/22-rdf-syntax-ns#">
   <cc:Work>
    <dc:type rdf:resource="http://purl.org/dc/dcmitype/StillImage"/>
    <dc:date>2022-11-07T18:30:24.848997</dc:date>
    <dc:format>image/svg+xml</dc:format>
    <dc:creator>
     <cc:Agent>
      <dc:title>Matplotlib v3.4.2, https://matplotlib.org/</dc:title>
     </cc:Agent>
    </dc:creator>
   </cc:Work>
  </rdf:RDF>
 </metadata>
 <defs>
  <style type="text/css">*{stroke-linecap:butt;stroke-linejoin:round;}</style>
 </defs>
 <g id="figure_1">
  <g id="patch_1">
   <path d="M 0 360 
L 360 360 
L 360 0 
L 0 0 
z
" style="fill:#ffffff;"/>
  </g>
  <g id="axes_1">
   <g id="line2d_1">
    <path clip-path="url(#pf6b6498fca)" d="M 118.388395 216.257143 
L 119.022482 212.385843 
L 119.403548 208.708108 
L 119.565404 205.030373 
L 119.506571 201.352638 
L 119.227588 197.674903 
L 118.731001 193.997169 
L 117.978208 190.125869 
L 116.996965 186.254569 
L 115.731684 182.189704 
L 114.163183 177.931274 
L 112.278159 173.479279 
L 110.070874 168.833719 
L 107.333993 163.607465 
L 104.037423 157.800515 
L 99.589839 150.445045 
L 85.333061 127.217246 
L 82.142997 121.410296 
L 79.619705 116.377606 
L 77.528968 111.732046 
L 75.769229 107.280051 
L 74.33145 103.021622 
L 73.199388 98.956757 
L 72.351302 95.085457 
L 71.736428 91.214157 
L 71.374002 87.536422 
L 71.230992 83.858687 
L 71.308702 80.180952 
L 71.606425 76.503218 
L 72.121439 72.825483 
L 72.89311 68.954183 
L 73.892509 65.082883 
L 75.175876 61.018018 
L 76.762035 56.759588 
L 78.663877 52.307593 
L 80.984122 47.468468 
L 83.744669 42.242214 
L 87.175756 36.241699 
L 91.765226 28.692664 
L 95.4 22.885714 
L 95.4 22.885714 
" style="fill:none;stroke:#1f77b4;stroke-linecap:square;stroke-width:2;"/>
   </g>
   <g id="line2d_2">
    <path clip-path="url(#pf6b6498fca)" d="M 143.742857 241.611605 
L 147.614157 240.977518 
L 151.291892 240.596452 
L 154.969627 240.434596 
L 158.647362 240.493429 
L 162.325097 240.772412 
L 166.002831 241.268999 
L 169.874131 242.021792 
L 173.745431 243.003035 
L 177.810296 244.268316 
L 182.068726 245.836817 
L 186.520721 247.721841 
L 191.166281 249.929126 
L 196.392535 252.666007 
L 202.199485 255.962577 
L 209.554955 260.410161 
L 232.782754 274.666939 
L 238.589704 277.857003 
L 243.622394 280.380295 
L 248.267954 282.471032 
L 252.719949 284.230771 
L 256.978378 285.66855 
L 261.043243 286.800612 
L 264.914543 287.648698 
L 268.785843 288.263572 
L 272.463578 288.625998 
L 276.141313 288.769008 
L 279.819048 288.691298 
L 283.496782 288.393575 
L 287.174517 287.878561 
L 291.045817 287.10689 
L 294.917117 286.107491 
L 298.981982 284.824124 
L 303.240412 283.237965 
L 307.692407 281.336123 
L 312.531532 279.015878 
L 317.757786 276.255331 
L 323.758301 272.824244 
L 331.307336 268.234774 
L 337.114286 264.6 
L 337.114286 264.6 
" style="fill:none;stroke:#ff7f0e;stroke-linecap:square;stroke-width:2;"/>
   </g>
   <g id="line2d_3">
    <path clip-path="url(#pf6b6498fca)" d="M 118.388395 216.257143 
L 118.327897 216.568727 
L 118.2674 216.88031 
L 118.206902 217.191894 
L 118.146405 217.503478 
L 118.085907 217.815062 
L 118.02541 218.126646 
L 117.964913 218.43823 
L 117.904415 218.749813 
L 117.843918 219.061397 
L 117.78342 219.372981 
L 117.722923 219.684565 
L 117.662425 219.996149 
L 117.601928 220.307732 
L 117.54143 220.619316 
L 117.480933 220.9309 
L 117.420436 221.242484 
L 117.359938 221.554068 
L 117.299441 221.865651 
L 117.238943 222.177235 
L 117.178446 222.488819 
L 117.117948 222.800403 
L 117.057451 223.111987 
L 116.996953 223.42357 
L 116.936456 223.735154 
L 116.875959 224.046738 
L 116.815461 224.358322 
L 116.754964 224.669906 
L 116.694466 224.981489 
L 116.633969 225.293073 
L 116.573471 225.604657 
L 116.512974 225.916241 
L 116.452477 226.227825 
L 116.391979 226.539408 
L 116.331482 226.850992 
L 116.270984 227.162576 
L 116.210487 227.47416 
L 116.149989 227.785744 
L 116.089492 228.097327 
L 116.028994 228.408911 
L 115.968497 228.720495 
L 115.908 229.032079 
L 115.847502 229.343663 
L 115.787005 229.655247 
L 115.726507 229.96683 
L 115.66601 230.278414 
L 115.605512 230.589998 
L 115.545015 230.901582 
L 115.484517 231.213166 
L 115.42402 231.524749 
L 115.363523 231.836333 
L 115.303025 232.147917 
L 115.242528 232.459501 
L 115.18203 232.771085 
L 115.121533 233.082668 
L 115.061035 233.394252 
L 115.000538 233.705836 
L 114.94004 234.01742 
L 114.879543 234.329004 
L 114.819046 234.640587 
L 114.758548 234.952171 
L 114.698051 235.263755 
L 114.637553 235.575339 
L 114.577056 235.886923 
L 114.516558 236.198506 
L 114.456061 236.51009 
L 114.395563 236.821674 
L 114.335066 237.133258 
L 114.274569 237.444842 
L 114.214071 237.756425 
L 114.153574 238.068009 
L 114.093076 238.379593 
L 114.032579 238.691177 
L 113.972081 239.002761 
L 113.911584 239.314345 
L 113.851086 239.625928 
L 113.790589 239.937512 
L 113.730092 240.249096 
L 113.669594 240.56068 
L 113.609097 240.872264 
L 113.548599 241.183847 
L 113.488102 241.495431 
L 113.427604 241.807015 
L 113.367107 242.118599 
L 113.30661 242.430183 
L 113.246112 242.741766 
L 113.185615 243.05335 
L 113.125117 243.364934 
L 113.06462 243.676518 
L 113.004122 243.988102 
L 112.943625 244.299685 
L 112.883127 244.611269 
L 112.82263 244.922853 
L 112.762133 245.234437 
L 112.701635 245.546021 
L 112.641138 245.857604 
L 112.58064 246.169188 
L 112.520143 246.480772 
L 112.459645 246.792356 
L 112.399148 247.10394 
" style="fill:none;stroke:#2ca02c;stroke-linecap:square;stroke-width:2;"/>
   </g>
   <g id="line2d_4">
    <path clip-path="url(#pf6b6498fca)" d="M 143.742857 241.611605 
L 143.431273 241.672103 
L 143.11969 241.7326 
L 142.808106 241.793098 
L 142.496522 241.853595 
L 142.184938 241.914093 
L 141.873354 241.97459 
L 141.56177 242.035087 
L 141.250187 242.095585 
L 140.938603 242.156082 
L 140.627019 242.21658 
L 140.315435 242.277077 
L 140.003851 242.337575 
L 139.692268 242.398072 
L 139.380684 242.45857 
L 139.0691 242.519067 
L 138.757516 242.579564 
L 138.445932 242.640062 
L 138.134349 242.700559 
L 137.822765 242.761057 
L 137.511181 242.821554 
L 137.199597 242.882052 
L 136.888013 242.942549 
L 136.57643 243.003047 
L 136.264846 243.063544 
L 135.953262 243.124041 
L 135.641678 243.184539 
L 135.330094 243.245036 
L 135.018511 243.305534 
L 134.706927 243.366031 
L 134.395343 243.426529 
L 134.083759 243.487026 
L 133.772175 243.547523 
L 133.460592 243.608021 
L 133.149008 243.668518 
L 132.837424 243.729016 
L 132.52584 243.789513 
L 132.214256 243.850011 
L 131.902673 243.910508 
L 131.591089 243.971006 
L 131.279505 244.031503 
L 130.967921 244.092 
L 130.656337 244.152498 
L 130.344753 244.212995 
L 130.03317 244.273493 
L 129.721586 244.33399 
L 129.410002 244.394488 
L 129.098418 244.454985 
L 128.786834 244.515483 
L 128.475251 244.57598 
L 128.163667 244.636477 
L 127.852083 244.696975 
L 127.540499 244.757472 
L 127.228915 244.81797 
L 126.917332 244.878467 
L 126.605748 244.938965 
L 126.294164 244.999462 
L 125.98258 245.05996 
L 125.670996 245.120457 
L 125.359413 245.180954 
L 125.047829 245.241452 
L 124.736245 245.301949 
L 124.424661 245.362447 
L 124.113077 245.422944 
L 123.801494 245.483442 
L 123.48991 245.543939 
L 123.178326 245.604437 
L 122.866742 245.664934 
L 122.555158 245.725431 
L 122.243575 245.785929 
L 121.931991 245.846426 
L 121.620407 245.906924 
L 121.308823 245.967421 
L 120.997239 246.027919 
L 120.685655 246.088416 
L 120.374072 246.148914 
L 120.062488 246.209411 
L 119.750904 246.269908 
L 119.43932 246.330406 
L 119.127736 246.390903 
L 118.816153 246.451401 
L 118.504569 246.511898 
L 118.192985 246.572396 
L 117.881401 246.632893 
L 117.569817 246.69339 
L 117.258234 246.753888 
L 116.94665 246.814385 
L 116.635066 246.874883 
L 116.323482 246.93538 
L 116.011898 246.995878 
L 115.700315 247.056375 
L 115.388731 247.116873 
L 115.077147 247.17737 
L 114.765563 247.237867 
L 114.453979 247.298365 
L 114.142396 247.358862 
L 113.830812 247.41936 
L 113.519228 247.479857 
L 113.207644 247.540355 
L 112.89606 247.600852 
" style="fill:none;stroke:#2ca02c;stroke-linecap:square;stroke-width:2;"/>
   </g>
  </g>
 </g>
 <defs>
  <clipPath id="pf6b6498fca">
   <rect height="338.4" width="338.4" x="10.8" y="10.8"/>
  </clipPath>
 </defs>
</svg>
