<?xml version="1.0" encoding="utf-8" standalone="no"?>
<!DOCTYPE svg PUBLIC "-//W3C//DTD SVG 1.1//EN"
  "http://www.w3.org/Graphics/SVG/1.1/DTD/svg11.dtd">
<svg height="360pt" version="1.1" viewBox="0 0 504 360" width="504pt" xmlns="http://www.w3.org/2000/svg" xmlns:xlink="http://www.w3.org/1999/xlink">
 <metadata>
  <rdf:RDF xmlns:cc="http://creativecommons.org/ns#" xmlns:dc="http://purl.org/dc/elements/1.1/" xmlns:rdf="http://www.w3.org/1999/02/22-rdf-syntax-ns#">
   <cc:Work>
    <dc:type rdf:resource="http://purl.org/dc/dcmitype/StillImage"/>
    <dc:date>2022-11-11T15:15:33.987357</dc:date>
    <dc:format>image/svg+xml</dc:format>
    <dc:creator>
     <cc:Agent>
      <dc:title>Matplotlib v3.4.2, https://matplotlib.org/</dc:title>
     </cc:Agent>
    </dc:creator>
   </cc:Work>
  </rdf:RDF>
 </metadata>
 <defs>
  <style type="text/css">*{stroke-linecap:butt;stroke-linejoin:round;}</style>
 </defs>
 <g id="figure_1">
  <g id="patch_1">
   <path d="M 0 360 
L 504 360 
L 504 0 
L 0 0 
z
" style="fill:#ffffff;"/>
  </g>
  <g id="axes_1">
   <g id="line2d_1">
    <path clip-path="url(#p8b29f1dca8)" d="M 37.366278 38.295629 
L 40.722564 38.799072 
L 44.07885 39.302515 
L 47.435136 39.805958 
L 50.791422 40.309401 
L 54.147708 40.812844 
L 57.503994 41.316287 
L 60.86028 41.819729 
L 64.216566 42.323172 
L 67.572852 42.826615 
L 70.929138 43.330058 
L 74.285424 43.833501 
L 77.64171 44.336944 
L 80.997996 44.840387 
L 84.354282 45.34383 
L 87.710568 45.847273 
L 91.066854 46.350716 
L 94.42314 46.854158 
L 97.779426 47.357601 
L 101.135712 47.861044 
L 104.491998 48.364487 
L 107.848284 48.86793 
L 111.20457 49.371373 
L 114.560856 49.874816 
L 117.917143 50.378259 
L 121.273429 50.881702 
L 124.629715 51.385145 
L 127.986001 51.888588 
L 131.342287 52.39203 
L 134.698573 52.895473 
L 138.054859 53.398916 
L 141.411145 53.902359 
L 144.767431 54.405802 
L 148.123717 54.909245 
L 151.480003 55.412688 
L 154.836289 55.916131 
L 158.192575 56.419574 
L 161.548861 56.923017 
L 164.905147 57.42646 
L 168.261433 57.929902 
L 171.617719 58.433345 
L 174.974005 58.936788 
L 178.330291 59.440231 
L 181.686577 59.943674 
L 185.042863 60.447117 
L 188.399149 60.95056 
L 191.755435 61.454003 
L 195.111721 61.957446 
L 198.468007 62.460889 
L 201.824294 62.964331 
L 205.18058 63.467774 
L 208.536866 63.971217 
L 211.893152 64.47466 
L 215.249438 64.978103 
L 218.605724 65.481546 
L 221.96201 65.984989 
L 225.318296 66.488432 
L 228.674582 66.991875 
L 232.030868 67.495318 
L 235.387154 67.998761 
L 238.74344 68.502203 
L 242.099726 69.005646 
L 245.456012 69.509089 
L 248.812298 70.012532 
L 252.168584 70.515975 
L 255.52487 71.019418 
L 258.881156 71.522861 
L 262.237442 72.026304 
L 265.593728 72.529747 
L 268.950014 73.03319 
L 272.3063 73.536633 
L 275.662586 74.040075 
L 279.018872 74.543518 
L 282.375158 75.046961 
L 285.731445 75.550404 
L 289.087731 76.053847 
L 292.444017 76.55729 
L 295.800303 77.060733 
L 299.156589 77.564176 
L 302.512875 78.067619 
L 305.869161 78.571062 
L 309.225447 79.074504 
L 312.581733 79.577947 
L 315.938019 80.08139 
L 319.294305 80.584833 
L 322.650591 81.088276 
L 326.006877 81.591719 
L 329.363163 82.095162 
L 332.719449 82.598605 
L 336.075735 83.102048 
L 339.432021 83.605491 
L 342.788307 84.108934 
L 346.144593 84.612376 
L 349.500879 85.115819 
L 352.857165 85.619262 
L 356.213451 86.122705 
L 359.569737 86.626148 
L 362.926023 87.129591 
L 366.28231 87.633034 
L 369.638596 88.136477 
" style="fill:none;stroke:#1f77b4;stroke-linecap:square;stroke-width:1.5;"/>
   </g>
   <g id="line2d_2">
    <path clip-path="url(#p8b29f1dca8)" d="M 37.366278 321.704371 
L 40.564621 321.704371 
L 43.762964 321.704371 
L 46.961307 321.704371 
L 50.15965 321.704371 
L 53.357993 321.704371 
L 56.556337 321.704371 
L 59.75468 321.704371 
L 62.953023 321.704371 
L 66.151366 321.704371 
L 69.349709 321.704371 
L 72.548052 321.704371 
L 75.746396 321.704371 
L 78.944739 321.704371 
L 82.143082 321.704371 
L 85.341425 321.704371 
L 88.539768 321.704371 
L 91.738111 321.704371 
L 94.936455 321.704371 
L 98.134798 321.704371 
L 101.333141 321.704371 
L 104.531484 321.704371 
L 107.729827 321.704371 
L 110.92817 321.704371 
L 114.126514 321.704371 
L 117.324857 321.704371 
L 120.5232 321.704371 
L 123.721543 321.704371 
L 126.919886 321.704371 
L 130.118229 321.704371 
L 133.316573 321.704371 
L 136.514916 321.704371 
L 139.713259 321.704371 
L 142.911602 321.704371 
L 146.109945 321.704371 
L 149.308288 321.704371 
L 152.506632 321.704371 
L 155.704975 321.704371 
L 158.903318 321.704371 
L 162.101661 321.704371 
L 165.300004 321.704371 
L 168.498347 321.704371 
L 171.696691 321.704371 
L 174.895034 321.704371 
L 178.093377 321.704371 
L 181.29172 321.704371 
L 184.490063 321.704371 
L 187.688406 321.704371 
L 190.88675 321.704371 
L 194.085093 321.704371 
L 197.283436 321.704371 
L 200.481779 321.704371 
L 203.680122 321.704371 
L 206.878465 321.704371 
L 210.076809 321.704371 
L 213.275152 321.704371 
L 216.473495 321.704371 
L 219.671838 321.704371 
L 222.870181 321.704371 
L 226.068524 321.704371 
L 229.266868 321.704371 
L 232.465211 321.704371 
L 235.663554 321.704371 
L 238.861897 321.704371 
L 242.06024 321.704371 
L 245.258583 321.704371 
L 248.456927 321.704371 
L 251.65527 321.704371 
L 254.853613 321.704371 
L 258.051956 321.704371 
L 261.250299 321.704371 
L 264.448642 321.704371 
L 267.646986 321.704371 
L 270.845329 321.704371 
L 274.043672 321.704371 
L 277.242015 321.704371 
L 280.440358 321.704371 
L 283.638701 321.704371 
L 286.837045 321.704371 
L 290.035388 321.704371 
L 293.233731 321.704371 
L 296.432074 321.704371 
L 299.630417 321.704371 
L 302.82876 321.704371 
L 306.027104 321.704371 
L 309.225447 321.704371 
L 312.42379 321.704371 
L 315.622133 321.704371 
L 318.820476 321.704371 
L 322.018819 321.704371 
L 325.217163 321.704371 
L 328.415506 321.704371 
L 331.613849 321.704371 
L 334.812192 321.704371 
L 338.010535 321.704371 
L 341.208878 321.704371 
L 344.407222 321.704371 
L 347.605565 321.704371 
L 350.803908 321.704371 
L 354.002251 321.704371 
" style="fill:none;stroke:#2ca02c;stroke-linecap:square;stroke-width:1.5;"/>
   </g>
   <g id="line2d_3">
    <path clip-path="url(#p8b29f1dca8)" d="M 354.002251 321.704371 
L 357.55775 321.65046 
L 361.10998 321.488778 
L 364.655675 321.219473 
L 368.191575 320.842792 
L 371.71443 320.359082 
L 375.221 319.768787 
L 378.708061 319.072451 
L 382.172407 318.270714 
L 385.610854 317.364312 
L 389.020239 316.354079 
L 392.397429 315.240944 
L 395.739318 314.02593 
L 399.042833 312.710155 
L 402.304938 311.294827 
L 405.522633 309.781249 
L 408.692959 308.170812 
L 411.813003 306.464997 
L 414.879895 304.665371 
L 417.890816 302.77359 
L 420.842997 300.791393 
L 423.733724 298.720602 
L 426.56034 296.563121 
L 429.320245 294.320934 
L 432.010902 291.996102 
L 434.629837 289.590763 
L 437.174643 287.107128 
L 439.64298 284.547481 
L 442.032578 281.914175 
L 444.34124 279.209631 
L 446.566844 276.436336 
L 448.707343 273.596839 
L 450.76077 270.693751 
L 452.725236 267.729742 
L 454.598936 264.707536 
L 456.380146 261.629912 
L 458.067229 258.4997 
L 459.658634 255.319777 
L 461.152898 252.093067 
L 462.548647 248.822538 
L 463.844597 245.511195 
L 465.039558 242.162083 
L 466.13243 238.778282 
L 467.122209 235.362903 
L 468.007984 231.919085 
L 468.788942 228.449995 
L 469.464364 224.958823 
L 470.033629 221.448778 
L 470.496215 217.923087 
L 470.851694 214.384993 
L 471.099742 210.837747 
L 471.240129 207.284612 
L 471.272727 203.728853 
L 471.197506 200.173741 
L 471.014534 196.622544 
L 470.723981 193.078527 
L 470.326112 189.544948 
L 469.821295 186.025056 
L 469.209993 182.522088 
L 468.492768 179.039263 
L 467.670279 175.579785 
L 466.743283 172.146833 
L 465.712633 168.743564 
L 464.579275 165.373107 
L 463.344251 162.038562 
L 462.008698 158.742992 
L 460.573843 155.48943 
L 459.041005 152.280865 
L 457.411594 149.120248 
L 455.687108 146.010485 
L 453.869131 142.954435 
L 451.959337 139.954908 
L 449.95948 137.014661 
L 447.871399 134.136398 
L 445.697014 131.322766 
L 443.438324 128.57635 
L 441.097406 125.899676 
L 438.676413 123.295205 
L 436.177569 120.765332 
L 433.603172 118.312382 
L 430.95559 115.938612 
L 428.237257 113.646202 
L 425.450671 111.437261 
L 422.598395 109.31382 
L 419.683051 107.277832 
L 416.70732 105.331167 
L 413.673937 103.475617 
L 410.585692 101.712886 
L 407.445423 100.044595 
L 404.256019 98.472279 
L 401.020411 96.997383 
L 397.741574 95.621263 
L 394.422522 94.345184 
L 391.066308 93.17032 
L 387.676017 92.09775 
L 384.254766 91.128461 
L 380.805701 90.263343 
L 377.331992 89.503193 
L 373.836834 88.84871 
L 370.32344 88.300494 
" style="fill:none;stroke:#ff7f0e;stroke-linecap:square;stroke-width:1.5;"/>
   </g>
   <g id="line2d_4">
    <path clip-path="url(#p8b29f1dca8)" d="M 32.727273 69.222328 
L 36.083559 69.725771 
L 39.439845 70.229214 
L 42.796131 70.732657 
L 46.152417 71.236099 
L 49.508703 71.739542 
L 52.864989 72.242985 
L 56.221275 72.746428 
L 59.577561 73.249871 
L 62.933847 73.753314 
L 66.290133 74.256757 
L 69.646419 74.7602 
L 73.002705 75.263643 
L 76.358991 75.767086 
L 79.715277 76.270529 
L 83.071563 76.773971 
L 86.427849 77.277414 
L 89.784135 77.780857 
L 93.140421 78.2843 
L 96.496707 78.787743 
L 99.852994 79.291186 
L 103.20928 79.794629 
L 106.565566 80.298072 
L 109.921852 80.801515 
L 113.278138 81.304958 
L 116.634424 81.8084 
L 119.99071 82.311843 
L 123.346996 82.815286 
L 126.703282 83.318729 
L 130.059568 83.822172 
L 133.415854 84.325615 
L 136.77214 84.829058 
L 140.128426 85.332501 
L 143.484712 85.835944 
L 146.840998 86.339387 
L 150.197284 86.84283 
L 153.55357 87.346272 
L 156.909856 87.849715 
L 160.266142 88.353158 
L 163.622428 88.856601 
L 166.978714 89.360044 
L 170.335 89.863487 
L 173.691286 90.36693 
L 177.047572 90.870373 
L 180.403859 91.373816 
L 183.760145 91.877259 
L 187.116431 92.380702 
L 190.472717 92.884144 
L 193.829003 93.387587 
L 197.185289 93.89103 
L 200.541575 94.394473 
L 203.897861 94.897916 
L 207.254147 95.401359 
L 210.610433 95.904802 
L 213.966719 96.408245 
L 217.323005 96.911688 
L 220.679291 97.415131 
L 224.035577 97.918573 
L 227.391863 98.422016 
L 230.748149 98.925459 
L 234.104435 99.428902 
L 237.460721 99.932345 
L 240.817007 100.435788 
L 244.173293 100.939231 
L 247.529579 101.442674 
L 250.885865 101.946117 
L 254.242151 102.44956 
L 257.598437 102.953003 
L 260.954723 103.456445 
L 264.31101 103.959888 
L 267.667296 104.463331 
L 271.023582 104.966774 
L 274.379868 105.470217 
L 277.736154 105.97366 
L 281.09244 106.477103 
L 284.448726 106.980546 
L 287.805012 107.483989 
L 291.161298 107.987432 
L 294.517584 108.490875 
L 297.87387 108.994317 
L 301.230156 109.49776 
L 304.586442 110.001203 
L 307.942728 110.504646 
L 311.299014 111.008089 
L 314.6553 111.511532 
L 318.011586 112.014975 
L 321.367872 112.518418 
L 324.724158 113.021861 
L 328.080444 113.525304 
L 331.43673 114.028746 
L 334.793016 114.532189 
L 338.149302 115.035632 
L 341.505588 115.539075 
L 344.861874 116.042518 
L 348.218161 116.545961 
L 351.574447 117.049404 
L 354.930733 117.552847 
L 358.287019 118.05629 
L 361.643305 118.559733 
L 364.999591 119.063176 
" style="fill:none;stroke:#1f77b4;stroke-dasharray:5.55,2.4;stroke-dashoffset:0;stroke-width:1.5;"/>
   </g>
   <g id="line2d_5">
    <path clip-path="url(#p8b29f1dca8)" d="M 37.366278 309.977113 
L 40.564621 309.977113 
L 43.762964 309.977113 
L 46.961307 309.977113 
L 50.15965 309.977113 
L 53.357993 309.977113 
L 56.556337 309.977113 
L 59.75468 309.977113 
L 62.953023 309.977113 
L 66.151366 309.977113 
L 69.349709 309.977113 
L 72.548052 309.977113 
L 75.746396 309.977113 
L 78.944739 309.977113 
L 82.143082 309.977113 
L 85.341425 309.977113 
L 88.539768 309.977113 
L 91.738111 309.977113 
L 94.936455 309.977113 
L 98.134798 309.977113 
L 101.333141 309.977113 
L 104.531484 309.977113 
L 107.729827 309.977113 
L 110.92817 309.977113 
L 114.126514 309.977113 
L 117.324857 309.977113 
L 120.5232 309.977113 
L 123.721543 309.977113 
L 126.919886 309.977113 
L 130.118229 309.977113 
L 133.316573 309.977113 
L 136.514916 309.977113 
L 139.713259 309.977113 
L 142.911602 309.977113 
L 146.109945 309.977113 
L 149.308288 309.977113 
L 152.506632 309.977113 
L 155.704975 309.977113 
L 158.903318 309.977113 
L 162.101661 309.977113 
L 165.300004 309.977113 
L 168.498347 309.977113 
L 171.696691 309.977113 
L 174.895034 309.977113 
L 178.093377 309.977113 
L 181.29172 309.977113 
L 184.490063 309.977113 
L 187.688406 309.977113 
L 190.88675 309.977113 
L 194.085093 309.977113 
L 197.283436 309.977113 
L 200.481779 309.977113 
L 203.680122 309.977113 
L 206.878465 309.977113 
L 210.076809 309.977113 
L 213.275152 309.977113 
L 216.473495 309.977113 
L 219.671838 309.977113 
L 222.870181 309.977113 
L 226.068524 309.977113 
L 229.266868 309.977113 
L 232.465211 309.977113 
L 235.663554 309.977113 
L 238.861897 309.977113 
L 242.06024 309.977113 
L 245.258583 309.977113 
L 248.456927 309.977113 
L 251.65527 309.977113 
L 254.853613 309.977113 
L 258.051956 309.977113 
L 261.250299 309.977113 
L 264.448642 309.977113 
L 267.646986 309.977113 
L 270.845329 309.977113 
L 274.043672 309.977113 
L 277.242015 309.977113 
L 280.440358 309.977113 
L 283.638701 309.977113 
L 286.837045 309.977113 
L 290.035388 309.977113 
L 293.233731 309.977113 
L 296.432074 309.977113 
L 299.630417 309.977113 
L 302.82876 309.977113 
L 306.027104 309.977113 
L 309.225447 309.977113 
L 312.42379 309.977113 
L 315.622133 309.977113 
L 318.820476 309.977113 
L 322.018819 309.977113 
L 325.217163 309.977113 
L 328.415506 309.977113 
L 331.613849 309.977113 
L 334.812192 309.977113 
L 338.010535 309.977113 
L 341.208878 309.977113 
L 344.407222 309.977113 
L 347.605565 309.977113 
L 350.803908 309.977113 
L 354.002251 309.977113 
" style="fill:none;stroke:#2ca02c;stroke-dasharray:5.55,2.4;stroke-dashoffset:0;stroke-width:1.5;"/>
   </g>
   <g id="line2d_6">
    <path clip-path="url(#p8b29f1dca8)" d="M 353.984649 309.977126 
L 357.178324 309.731811 
L 360.357115 309.390064 
L 363.518114 308.952561 
L 366.658444 308.420066 
L 369.775257 307.79343 
L 372.865736 307.073588 
L 375.927102 306.26156 
L 378.956611 305.358449 
L 381.95156 304.365439 
L 384.909289 303.283792 
L 387.827182 302.114852 
L 390.70267 300.860038 
L 393.533235 299.520844 
L 396.316408 298.09884 
L 399.049776 296.595664 
L 401.730981 295.013028 
L 404.357722 293.352709 
L 406.927759 291.616553 
L 409.438913 289.806468 
L 411.889069 287.924426 
L 414.276177 285.972459 
L 416.598255 283.952655 
L 418.853387 281.86716 
L 421.039731 279.718172 
L 423.155513 277.507943 
L 425.199034 275.23877 
L 427.168669 272.913 
L 429.06287 270.533022 
L 430.880163 268.101269 
L 432.619155 265.620211 
L 434.278529 263.092355 
L 435.857051 260.520246 
L 437.353565 257.906455 
L 438.767 255.253587 
L 440.096363 252.564271 
L 441.340748 249.841162 
L 442.499329 247.086934 
L 443.571368 244.304282 
L 444.556206 241.495917 
L 445.453274 238.664561 
L 446.262085 235.812952 
L 446.982237 232.94383 
L 447.613413 230.059946 
L 448.155382 227.164052 
L 448.607998 224.2589 
L 448.971198 221.347239 
L 449.245006 218.431817 
L 449.429527 215.515369 
L 449.524952 212.600626 
L 449.531555 209.690301 
L 449.449692 206.787096 
L 449.2798 203.893694 
L 449.022399 201.012758 
L 448.678089 198.146928 
L 448.247548 195.29882 
L 447.731533 192.471023 
L 447.130882 189.666094 
L 446.446503 186.886561 
L 445.679385 184.134917 
L 444.830588 181.413617 
L 443.901246 178.72508 
L 442.892562 176.071681 
L 441.805813 173.455755 
L 440.64234 170.87959 
L 439.403554 168.345428 
L 438.09093 165.855463 
L 436.706007 163.411837 
L 435.250385 161.01664 
L 433.725725 158.671906 
L 432.133746 156.379616 
L 430.476223 154.14169 
L 428.754986 151.959991 
L 426.971918 149.836321 
L 425.128952 147.772417 
L 423.228068 145.769955 
L 421.271295 143.830546 
L 419.260704 141.955732 
L 417.198409 140.146991 
L 415.086565 138.40573 
L 412.927362 136.733286 
L 410.723029 135.130926 
L 408.475826 133.599846 
L 406.188042 132.141169 
L 403.862 130.755944 
L 401.500043 129.445148 
L 399.104543 128.20968 
L 396.67789 127.050368 
L 394.222495 125.96796 
L 391.740785 124.963133 
L 389.235203 124.036484 
L 386.708202 123.188533 
L 384.162244 122.419727 
L 381.599802 121.730433 
L 379.023349 121.120941 
L 376.435364 120.591466 
L 373.838325 120.142145 
L 371.234707 119.77304 
L 368.626981 119.484134 
L 365.924645 119.262271 
" style="fill:none;stroke:#ff7f0e;stroke-dasharray:5.55,2.4;stroke-dashoffset:0;stroke-width:1.5;"/>
   </g>
  </g>
 </g>
 <defs>
  <clipPath id="p8b29f1dca8">
   <rect height="311.749616" width="482.4" x="10.8" y="24.125192"/>
  </clipPath>
 </defs>
</svg>
