<?xml version="1.0" encoding="utf-8" standalone="no"?>
<!DOCTYPE svg PUBLIC "-//W3C//DTD SVG 1.1//EN"
  "http://www.w3.org/Graphics/SVG/1.1/DTD/svg11.dtd">
<svg height="360pt" version="1.1" viewBox="0 0 360 360" width="360pt" xmlns="http://www.w3.org/2000/svg" xmlns:xlink="http://www.w3.org/1999/xlink">
 <metadata>
  <rdf:RDF xmlns:cc="http://creativecommons.org/ns#" xmlns:dc="http://purl.org/dc/elements/1.1/" xmlns:rdf="http://www.w3.org/1999/02/22-rdf-syntax-ns#">
   <cc:Work>
    <dc:type rdf:resource="http://purl.org/dc/dcmitype/StillImage"/>
    <dc:date>2022-11-01T09:13:06.152602</dc:date>
    <dc:format>image/svg+xml</dc:format>
    <dc:creator>
     <cc:Agent>
      <dc:title>Matplotlib v3.4.2, https://matplotlib.org/</dc:title>
     </cc:Agent>
    </dc:creator>
   </cc:Work>
  </rdf:RDF>
 </metadata>
 <defs>
  <style type="text/css">*{stroke-linecap:butt;stroke-linejoin:round;}</style>
 </defs>
 <g id="figure_1">
  <g id="patch_1">
   <path d="M 0 360 
L 360 360 
L 360 0 
L 0 0 
z
" style="fill:#ffffff;"/>
  </g>
  <g id="axes_1">
   <g id="line2d_1">
    <path clip-path="url(#p08344f2677)" d="M 118.160349 216.840835 
L 118.785542 213.023837 
L 119.161263 209.39769 
L 119.320848 205.771542 
L 119.262841 202.145395 
L 118.98777 198.519248 
L 118.498149 194.8931 
L 117.755916 191.076103 
L 116.788437 187.259105 
L 115.540904 183.251258 
L 113.994404 179.052561 
L 112.135821 174.663014 
L 109.864014 169.891768 
L 107.156578 164.738821 
L 103.786255 158.822475 
L 99.270724 151.379331 
L 85.896858 129.622446 
L 82.624561 123.7061 
L 80.026496 118.553154 
L 77.955019 113.972757 
L 76.209209 109.58321 
L 74.780429 105.384513 
L 73.652909 101.376666 
L 72.805426 97.559668 
L 72.187514 93.742671 
L 71.818859 90.116523 
L 71.666419 86.490376 
L 71.731586 82.864229 
L 72.013764 79.238081 
L 72.510378 75.611934 
L 73.259776 71.794936 
L 74.234148 67.977939 
L 75.488549 63.970092 
L 77.041758 59.771395 
L 78.906733 55.381848 
L 81.18467 50.610601 
L 83.897662 45.457655 
L 87.272872 39.541309 
L 91.792117 32.098164 
L 95.494411 26.181818 
L 95.494411 26.181818 
" style="fill:none;stroke:#1f77b4;stroke-linecap:square;stroke-width:2;"/>
   </g>
   <g id="line2d_2">
    <path clip-path="url(#p08344f2677)" d="M 143.159165 241.839651 
L 146.976163 241.214458 
L 150.60231 240.838737 
L 154.228458 240.679152 
L 157.854605 240.737159 
L 161.480752 241.01223 
L 165.1069 241.501851 
L 168.923897 242.244084 
L 172.740895 243.211563 
L 176.748742 244.459096 
L 180.947439 246.005596 
L 185.336986 247.864179 
L 190.108232 250.135986 
L 195.261179 252.843422 
L 201.177525 256.213745 
L 208.620669 260.729276 
L 230.377554 274.103142 
L 236.2939 277.375439 
L 241.446846 279.973504 
L 246.027243 282.044981 
L 250.41679 283.790791 
L 254.615487 285.219571 
L 258.623334 286.347091 
L 262.440332 287.194574 
L 266.257329 287.812486 
L 269.883477 288.181141 
L 273.509624 288.333581 
L 277.135771 288.268414 
L 280.761919 287.986236 
L 284.388066 287.489622 
L 288.205064 286.740224 
L 292.022061 285.765852 
L 296.029908 284.511451 
L 300.228605 282.958242 
L 304.618152 281.093267 
L 309.389399 278.81533 
L 314.542345 276.102338 
L 320.458691 272.727128 
L 327.901836 268.207883 
L 333.818182 264.505589 
L 333.818182 264.505589 
" style="fill:none;stroke:#ff7f0e;stroke-linecap:square;stroke-width:2;"/>
   </g>
   <g id="line2d_3">
    <path clip-path="url(#p08344f2677)" d="M 118.160349 216.840835 
L 117.93093 218.022424 
L 117.701511 219.204013 
L 117.472093 220.385603 
L 117.242674 221.567192 
L 117.013255 222.748782 
L 116.783837 223.930371 
L 116.554418 225.11196 
L 116.324999 226.29355 
L 116.095581 227.475139 
L 115.866162 228.656728 
L 115.636744 229.838318 
L 115.407325 231.019907 
L 115.177906 232.201496 
L 114.948488 233.383086 
L 114.719069 234.564675 
L 114.48965 235.746265 
L 114.260232 236.927854 
L 114.030813 238.109443 
L 113.801394 239.291033 
L 113.571976 240.472622 
L 113.342557 241.654211 
L 113.113138 242.835801 
L 112.88372 244.01739 
L 112.654301 245.198979 
L 112.424883 246.380569 
L 112.195464 247.562158 
L 111.966045 248.743748 
L 111.736627 249.925337 
L 111.507208 251.106926 
L 111.277789 252.288516 
L 111.048371 253.470105 
L 110.818952 254.651694 
L 110.589533 255.833284 
L 110.360115 257.014873 
L 110.130696 258.196462 
L 109.901277 259.378052 
L 109.671859 260.559641 
L 109.44244 261.741231 
L 109.213022 262.92282 
L 108.983603 264.104409 
L 108.754184 265.285999 
L 108.524766 266.467588 
L 108.295347 267.649177 
L 108.065928 268.830767 
L 107.83651 270.012356 
L 107.607091 271.193946 
L 107.377672 272.375535 
L 107.148254 273.557124 
L 106.918835 274.738714 
L 106.689416 275.920303 
L 106.459998 277.101892 
L 106.230579 278.283482 
L 106.001161 279.465071 
L 105.771742 280.64666 
L 105.542323 281.82825 
L 105.312905 283.009839 
L 105.083486 284.191429 
L 104.854067 285.373018 
L 104.624649 286.554607 
L 104.39523 287.736197 
L 104.165811 288.917786 
L 103.936393 290.099375 
L 103.706974 291.280965 
L 103.477555 292.462554 
L 103.248137 293.644143 
L 103.018718 294.825733 
L 102.7893 296.007322 
L 102.559881 297.188912 
L 102.330462 298.370501 
L 102.101044 299.55209 
L 101.871625 300.73368 
L 101.642206 301.915269 
L 101.412788 303.096858 
L 101.183369 304.278448 
L 100.95395 305.460037 
L 100.724532 306.641626 
L 100.495113 307.823216 
L 100.265694 309.004805 
L 100.036276 310.186395 
L 99.806857 311.367984 
L 99.577439 312.549573 
L 99.34802 313.731163 
L 99.118601 314.912752 
L 98.889183 316.094341 
L 98.659764 317.275931 
L 98.430345 318.45752 
L 98.200927 319.639109 
L 97.971508 320.820699 
L 97.742089 322.002288 
L 97.512671 323.183878 
L 97.283252 324.365467 
L 97.053833 325.547056 
L 96.824415 326.728646 
L 96.594996 327.910235 
L 96.365577 329.091824 
L 96.136159 330.273414 
L 95.90674 331.455003 
L 95.677322 332.636592 
L 95.447903 333.818182 
" style="fill:none;stroke:#1f77b4;stroke-dasharray:7.4,3.2;stroke-dashoffset:0;stroke-width:2;"/>
   </g>
   <g id="line2d_4">
    <path clip-path="url(#p08344f2677)" d="M 143.159165 241.839651 
L 141.977576 242.06907 
L 140.795987 242.298489 
L 139.614397 242.527907 
L 138.432808 242.757326 
L 137.251218 242.986745 
L 136.069629 243.216163 
L 134.88804 243.445582 
L 133.70645 243.675001 
L 132.524861 243.904419 
L 131.343272 244.133838 
L 130.161682 244.363256 
L 128.980093 244.592675 
L 127.798504 244.822094 
L 126.616914 245.051512 
L 125.435325 245.280931 
L 124.253735 245.51035 
L 123.072146 245.739768 
L 121.890557 245.969187 
L 120.708967 246.198606 
L 119.527378 246.428024 
L 118.345789 246.657443 
L 117.164199 246.886862 
L 115.98261 247.11628 
L 114.801021 247.345699 
L 113.619431 247.575117 
L 112.437842 247.804536 
L 111.256252 248.033955 
L 110.074663 248.263373 
L 108.893074 248.492792 
L 107.711484 248.722211 
L 106.529895 248.951629 
L 105.348306 249.181048 
L 104.166716 249.410467 
L 102.985127 249.639885 
L 101.803538 249.869304 
L 100.621948 250.098723 
L 99.440359 250.328141 
L 98.258769 250.55756 
L 97.07718 250.786978 
L 95.895591 251.016397 
L 94.714001 251.245816 
L 93.532412 251.475234 
L 92.350823 251.704653 
L 91.169233 251.934072 
L 89.987644 252.16349 
L 88.806054 252.392909 
L 87.624465 252.622328 
L 86.442876 252.851746 
L 85.261286 253.081165 
L 84.079697 253.310584 
L 82.898108 253.540002 
L 81.716518 253.769421 
L 80.534929 253.998839 
L 79.35334 254.228258 
L 78.17175 254.457677 
L 76.990161 254.687095 
L 75.808571 254.916514 
L 74.626982 255.145933 
L 73.445393 255.375351 
L 72.263803 255.60477 
L 71.082214 255.834189 
L 69.900625 256.063607 
L 68.719035 256.293026 
L 67.537446 256.522445 
L 66.355857 256.751863 
L 65.174267 256.981282 
L 63.992678 257.2107 
L 62.811088 257.440119 
L 61.629499 257.669538 
L 60.44791 257.898956 
L 59.26632 258.128375 
L 58.084731 258.357794 
L 56.903142 258.587212 
L 55.721552 258.816631 
L 54.539963 259.04605 
L 53.358374 259.275468 
L 52.176784 259.504887 
L 50.995195 259.734306 
L 49.813605 259.963724 
L 48.632016 260.193143 
L 47.450427 260.422561 
L 46.268837 260.65198 
L 45.087248 260.881399 
L 43.905659 261.110817 
L 42.724069 261.340236 
L 41.54248 261.569655 
L 40.360891 261.799073 
L 39.179301 262.028492 
L 37.997712 262.257911 
L 36.816122 262.487329 
L 35.634533 262.716748 
L 34.452944 262.946167 
L 33.271354 263.175585 
L 32.089765 263.405004 
L 30.908176 263.634423 
L 29.726586 263.863841 
L 28.544997 264.09326 
L 27.363408 264.322678 
L 26.181818 264.552097 
" style="fill:none;stroke:#ff7f0e;stroke-dasharray:7.4,3.2;stroke-dashoffset:0;stroke-width:2;"/>
   </g>
  </g>
 </g>
 <defs>
  <clipPath id="p08344f2677">
   <rect height="338.4" width="338.4" x="10.8" y="10.8"/>
  </clipPath>
 </defs>
</svg>
