<?xml version="1.0" encoding="utf-8" standalone="no"?>
<!DOCTYPE svg PUBLIC "-//W3C//DTD SVG 1.1//EN"
  "http://www.w3.org/Graphics/SVG/1.1/DTD/svg11.dtd">
<!-- Created with matplotlib (https://matplotlib.org/) -->
<svg height="288pt" version="1.1" viewBox="0 0 576 288" width="576pt" xmlns="http://www.w3.org/2000/svg" xmlns:xlink="http://www.w3.org/1999/xlink">
 <metadata>
  <rdf:RDF xmlns:cc="http://creativecommons.org/ns#" xmlns:dc="http://purl.org/dc/elements/1.1/" xmlns:rdf="http://www.w3.org/1999/02/22-rdf-syntax-ns#">
   <cc:Work>
    <dc:type rdf:resource="http://purl.org/dc/dcmitype/StillImage"/>
    <dc:date>2022-10-14T21:02:01.611445</dc:date>
    <dc:format>image/svg+xml</dc:format>
    <dc:creator>
     <cc:Agent>
      <dc:title>Matplotlib v3.3.3, https://matplotlib.org/</dc:title>
     </cc:Agent>
    </dc:creator>
   </cc:Work>
  </rdf:RDF>
 </metadata>
 <defs>
  <style type="text/css">*{stroke-linecap:butt;stroke-linejoin:round;}</style>
 </defs>
 <g id="figure_1">
  <g id="patch_1">
   <path d="M 0 288 
L 576 288 
L 576 0 
L 0 0 
z
" style="fill:#ffffff;"/>
  </g>
  <g id="axes_1">
   <g id="line2d_1">
    <path clip-path="url(#p16bf64116c)" d="M 203.236306 22.909091 
L 208.56311 23.026311 
L 213.879601 23.377744 
L 219.175487 23.96271 
L 224.440513 24.780077 
L 229.664486 25.828261 
L 234.837292 27.105233 
L 239.948917 28.608522 
L 244.989464 30.335216 
L 249.949174 32.281973 
L 254.818445 34.445023 
L 259.587849 36.82018 
L 264.248153 39.402843 
L 268.790334 42.188014 
L 273.205598 45.1703 
L 277.485397 48.343926 
L 281.621445 51.70275 
L 285.605734 55.240266 
L 289.430551 58.949628 
L 293.08849 62.823653 
L 296.572469 66.854841 
L 299.875743 71.035387 
L 302.991916 75.357198 
L 305.914957 79.811906 
L 308.639204 84.390886 
L 311.159385 89.085274 
L 313.470619 93.88598 
L 315.568433 98.78371 
L 317.448764 103.768983 
L 319.107972 108.832145 
L 320.542845 113.963395 
L 321.750605 119.152798 
L 322.728914 124.390307 
L 323.475877 129.665781 
L 323.990048 134.969008 
L 324.270432 140.289719 
L 324.316485 145.617614 
L 324.12812 150.942378 
L 323.7057 156.2537 
L 323.050044 161.541299 
L 322.16242 166.794937 
L 321.044547 172.004442 
L 319.69859 177.159729 
L 318.127154 182.250817 
L 316.333282 187.267849 
L 314.320447 192.201111 
L 312.092546 197.041053 
L 309.653891 201.778305 
L 307.009205 206.403694 
L 304.163608 210.908265 
L 301.12261 215.283298 
L 297.892096 219.520322 
L 294.478323 223.611133 
L 290.8879 227.547812 
L 287.127777 231.322738 
L 283.205234 234.928601 
L 279.127867 238.35842 
L 274.903568 241.605555 
L 270.540517 244.66372 
L 266.047161 247.526993 
L 261.432199 250.189831 
L 256.704565 252.647079 
L 251.873414 254.893979 
L 246.948097 256.926182 
L 241.938152 258.739752 
L 236.853278 260.331178 
L 231.703319 261.697379 
L 226.498246 262.835711 
L 221.248136 263.74397 
L 215.963154 264.420396 
L 210.653532 264.86368 
L 205.32955 265.072965 
L 200.001515 265.047844 
L 194.679743 264.788367 
L 189.374537 264.295036 
L 184.096169 263.568806 
L 178.854857 262.611083 
L 173.660749 261.423721 
L 168.523901 260.00902 
L 163.454259 258.369717 
L 158.461637 256.508987 
L 153.555702 254.430433 
L 148.745952 252.138078 
L 144.041699 249.636361 
L 139.452051 246.930125 
L 134.985893 244.024609 
L 130.651872 240.92544 
L 126.45838 237.638617 
L 122.413535 234.170503 
L 118.525168 230.527813 
L 114.800807 226.7176 
L 111.247664 222.747241 
L 107.872616 218.624421 
L 104.682199 214.357124 
L 101.682589 209.953611 
L 98.879594 205.422408 
L 96.27864 200.772287 
L 93.884763 196.012251 
L 91.702598 191.151517 
L 89.73637 186.199494 
L 87.989885 181.16577 
L 86.466525 176.060091 
L 85.169238 170.892341 
L 84.100538 165.672527 
L 83.262492 160.410753 
L 82.656723 155.117207 
L 82.284404 149.802137 
L 82.146256 144.475835 
L 82.242547 139.148611 
L 82.573089 133.83078 
L 83.137243 128.532637 
L 83.933917 123.26444 
L 84.961569 118.036389 
L 86.218208 112.858606 
L 87.701401 107.741114 
L 89.408278 102.693822 
L 91.335534 97.726501 
L 93.479436 92.84877 
L 95.835836 88.07007 
L 98.400169 83.399655 
L 101.167473 78.846566 
L 104.132388 74.419619 
L 107.289175 70.127384 
L 110.631722 65.978171 
L 114.153557 61.980014 
L 117.847863 58.140653 
L 121.707486 54.467522 
L 125.724955 50.967732 
L 129.89249 47.648058 
L 134.202024 44.514928 
L 138.645213 41.574408 
L 143.213455 38.832191 
L 147.897905 36.293586 
L 152.689493 33.963508 
L 157.578944 31.846467 
L 162.55679 29.946564 
L 167.613394 28.267475 
L 172.738967 26.812453 
L 177.923584 25.584314 
L 183.157209 24.585435 
L 188.429708 23.817751 
L 193.730874 23.282747 
L 199.050442 22.981461 
L 203.236306 22.909091 
L 203.236306 22.909091 
" style="fill:none;stroke:#1f77b4;stroke-linecap:square;stroke-width:1.5;"/>
   </g>
   <g id="line2d_2">
    <path clip-path="url(#p16bf64116c)" d="M 409.090978 59.236386 
L 413.352001 59.343553 
L 417.602249 59.664784 
L 421.830975 60.199267 
L 426.027487 60.945649 
L 430.181173 61.902044 
L 434.281529 63.066033 
L 438.318189 64.434674 
L 442.280944 66.004504 
L 446.159775 67.771555 
L 449.944873 69.731359 
L 453.626667 71.878959 
L 457.195848 74.208926 
L 460.64339 76.715368 
L 463.960576 79.391947 
L 467.139018 82.231895 
L 470.170679 85.228031 
L 473.047892 88.372779 
L 475.763384 91.658186 
L 478.310286 95.075947 
L 480.68216 98.617417 
L 482.873007 102.273643 
L 484.877288 106.035378 
L 486.689935 109.893112 
L 488.306363 113.837089 
L 489.722487 117.857337 
L 490.934724 121.943689 
L 491.940011 126.085814 
L 492.735804 130.273237 
L 493.320091 134.49537 
L 493.691396 138.741536 
L 493.848779 143.001 
L 493.791842 147.262989 
L 493.520729 151.516728 
L 493.036126 155.75146 
L 492.339258 159.956478 
L 491.431888 164.121148 
L 490.316308 168.234939 
L 488.995342 172.28745 
L 487.472328 176.268433 
L 485.751118 180.167822 
L 483.836064 183.975757 
L 481.732008 187.682608 
L 479.444271 191.279003 
L 476.978638 194.755848 
L 474.341344 198.104351 
L 471.539056 201.316046 
L 468.578861 204.38281 
L 465.468244 207.29689 
L 462.215071 210.050916 
L 458.827568 212.637926 
L 455.3143 215.051377 
L 451.684151 217.285166 
L 447.9463 219.333646 
L 444.110199 221.191636 
L 440.185548 222.854438 
L 436.182271 224.317849 
L 432.11049 225.578166 
L 427.980502 226.632204 
L 423.80275 227.477297 
L 419.587797 228.111309 
L 415.346302 228.532636 
L 411.08899 228.740212 
L 406.826625 228.733513 
L 402.569986 228.512557 
L 398.329836 228.0779 
L 394.116897 227.430644 
L 389.941822 226.572423 
L 385.815167 225.505409 
L 381.747368 224.2323 
L 377.74871 222.756314 
L 373.829305 221.081184 
L 369.999063 219.211145 
L 366.26767 217.150927 
L 362.64456 214.905738 
L 359.138895 212.481257 
L 355.759539 209.883613 
L 352.515039 207.119374 
L 349.413597 204.195532 
L 346.463056 201.119478 
L 343.670877 197.898992 
L 341.04412 194.542216 
L 338.589427 191.057638 
L 336.313006 187.45407 
L 334.220612 183.740623 
L 332.317537 179.926688 
L 330.608591 176.021909 
L 329.098098 172.036158 
L 327.789875 167.979516 
L 326.687232 163.862238 
L 325.792956 159.694737 
L 325.109309 155.487549 
L 324.638018 151.251315 
L 324.380277 146.996745 
L 324.336737 142.734597 
L 324.507507 138.47565 
L 324.892156 134.230671 
L 325.489711 130.010396 
L 326.298662 125.825495 
L 327.316963 121.686551 
L 328.542039 117.604028 
L 329.970792 113.588252 
L 331.599609 109.649375 
L 333.424372 105.797357 
L 335.440467 102.04194 
L 337.642795 98.392619 
L 340.025788 94.858621 
L 342.583421 91.448883 
L 345.309226 88.172027 
L 348.196309 85.036338 
L 351.237373 82.049746 
L 354.424725 79.219802 
L 357.750308 76.553663 
L 361.205711 74.05807 
L 364.782197 71.739333 
L 368.470724 69.603315 
L 372.261963 67.655418 
L 376.146329 65.900568 
L 380.113999 64.343201 
L 384.15494 62.987255 
L 388.258935 61.83616 
L 392.415607 60.892825 
L 396.614444 60.159637 
L 400.844829 59.638449 
L 405.096066 59.330579 
L 409.090978 59.236386 
L 409.090978 59.236386 
" style="fill:none;stroke:#ff7f0e;stroke-linecap:square;stroke-width:1.5;"/>
   </g>
   <g id="line2d_3">
    <path clip-path="url(#p16bf64116c)" d="M 203.236306 22.909091 
L 318.400675 106.580903 
L 274.4118 241.964739 
L 132.060811 241.964739 
L 88.071936 106.580903 
L 203.236306 22.909091 
" style="fill:none;stroke:#1f77b4;stroke-dasharray:5.55,2.4;stroke-dashoffset:0;stroke-width:1.5;"/>
    <defs>
     <path d="M 0 3 
C 0.795609 3 1.55874 2.683901 2.12132 2.12132 
C 2.683901 1.55874 3 0.795609 3 0 
C 3 -0.795609 2.683901 -1.55874 2.12132 -2.12132 
C 1.55874 -2.683901 0.795609 -3 0 -3 
C -0.795609 -3 -1.55874 -2.683901 -2.12132 -2.12132 
C -2.683901 -1.55874 -3 -0.795609 -3 0 
C -3 0.795609 -2.683901 1.55874 -2.12132 2.12132 
C -1.55874 2.683901 -0.795609 3 0 3 
z
" id="mabfaae0c73" style="stroke:#1f77b4;"/>
    </defs>
    <g clip-path="url(#p16bf64116c)">
     <use style="fill:#1f77b4;stroke:#1f77b4;" x="203.236306" xlink:href="#mabfaae0c73" y="22.909091"/>
     <use style="fill:#1f77b4;stroke:#1f77b4;" x="318.400675" xlink:href="#mabfaae0c73" y="106.580903"/>
     <use style="fill:#1f77b4;stroke:#1f77b4;" x="274.4118" xlink:href="#mabfaae0c73" y="241.964739"/>
     <use style="fill:#1f77b4;stroke:#1f77b4;" x="132.060811" xlink:href="#mabfaae0c73" y="241.964739"/>
     <use style="fill:#1f77b4;stroke:#1f77b4;" x="88.071936" xlink:href="#mabfaae0c73" y="106.580903"/>
     <use style="fill:#1f77b4;stroke:#1f77b4;" x="203.236306" xlink:href="#mabfaae0c73" y="22.909091"/>
    </g>
   </g>
   <g id="line2d_4">
    <path clip-path="url(#p16bf64116c)" d="M 409.090978 59.236386 
L 489.706037 117.806654 
L 458.913824 212.575339 
L 359.268132 212.575339 
L 328.47592 117.806654 
L 409.090978 59.236386 
" style="fill:none;stroke:#ff7f0e;stroke-dasharray:5.55,2.4;stroke-dashoffset:0;stroke-width:1.5;"/>
    <defs>
     <path d="M 0 3 
C 0.795609 3 1.55874 2.683901 2.12132 2.12132 
C 2.683901 1.55874 3 0.795609 3 0 
C 3 -0.795609 2.683901 -1.55874 2.12132 -2.12132 
C 1.55874 -2.683901 0.795609 -3 0 -3 
C -0.795609 -3 -1.55874 -2.683901 -2.12132 -2.12132 
C -2.683901 -1.55874 -3 -0.795609 -3 0 
C -3 0.795609 -2.683901 1.55874 -2.12132 2.12132 
C -1.55874 2.683901 -0.795609 3 0 3 
z
" id="m93993179f0" style="stroke:#ff7f0e;"/>
    </defs>
    <g clip-path="url(#p16bf64116c)">
     <use style="fill:#ff7f0e;stroke:#ff7f0e;" x="409.090978" xlink:href="#m93993179f0" y="59.236386"/>
     <use style="fill:#ff7f0e;stroke:#ff7f0e;" x="489.706037" xlink:href="#m93993179f0" y="117.806654"/>
     <use style="fill:#ff7f0e;stroke:#ff7f0e;" x="458.913824" xlink:href="#m93993179f0" y="212.575339"/>
     <use style="fill:#ff7f0e;stroke:#ff7f0e;" x="359.268132" xlink:href="#m93993179f0" y="212.575339"/>
     <use style="fill:#ff7f0e;stroke:#ff7f0e;" x="328.47592" xlink:href="#m93993179f0" y="117.806654"/>
     <use style="fill:#ff7f0e;stroke:#ff7f0e;" x="409.090978" xlink:href="#m93993179f0" y="59.236386"/>
    </g>
   </g>
   <g id="line2d_5">
    <path clip-path="url(#p16bf64116c)" d="M 324.32729 277.2 
L 324.32729 10.8 
" style="fill:none;stroke:#000000;stroke-linecap:square;stroke-opacity:0.5;stroke-width:1.5;"/>
   </g>
  </g>
 </g>
 <defs>
  <clipPath id="p16bf64116c">
   <rect height="266.4" width="452.88021" x="61.559895" y="10.8"/>
  </clipPath>
 </defs>
</svg>
