<?xml version="1.0" encoding="utf-8" standalone="no"?>
<!DOCTYPE svg PUBLIC "-//W3C//DTD SVG 1.1//EN"
  "http://www.w3.org/Graphics/SVG/1.1/DTD/svg11.dtd">
<svg height="360pt" version="1.1" viewBox="0 0 360 360" width="360pt" xmlns="http://www.w3.org/2000/svg" xmlns:xlink="http://www.w3.org/1999/xlink">
 <metadata>
  <rdf:RDF xmlns:cc="http://creativecommons.org/ns#" xmlns:dc="http://purl.org/dc/elements/1.1/" xmlns:rdf="http://www.w3.org/1999/02/22-rdf-syntax-ns#">
   <cc:Work>
    <dc:type rdf:resource="http://purl.org/dc/dcmitype/StillImage"/>
    <dc:date>2022-11-07T18:30:23.144116</dc:date>
    <dc:format>image/svg+xml</dc:format>
    <dc:creator>
     <cc:Agent>
      <dc:title>Matplotlib v3.4.2, https://matplotlib.org/</dc:title>
     </cc:Agent>
    </dc:creator>
   </cc:Work>
  </rdf:RDF>
 </metadata>
 <defs>
  <style type="text/css">*{stroke-linecap:butt;stroke-linejoin:round;}</style>
 </defs>
 <g id="figure_1">
  <g id="patch_1">
   <path d="M 0 360 
L 360 360 
L 360 0 
L 0 0 
z
" style="fill:#ffffff;"/>
  </g>
  <g id="axes_1">
   <g id="line2d_1">
    <path clip-path="url(#p5ec5064233)" d="M 118.388395 216.257143 
L 119.022482 212.385843 
L 119.403548 208.708108 
L 119.565404 205.030373 
L 119.506571 201.352638 
L 119.227588 197.674903 
L 118.731001 193.997169 
L 117.978208 190.125869 
L 116.996965 186.254569 
L 115.731684 182.189704 
L 114.163183 177.931274 
L 112.278159 173.479279 
L 110.070874 168.833719 
L 107.333993 163.607465 
L 104.037423 157.800515 
L 99.589839 150.445045 
L 85.333061 127.217246 
L 82.142997 121.410296 
L 79.619705 116.377606 
L 77.528968 111.732046 
L 75.769229 107.280051 
L 74.33145 103.021622 
L 73.199388 98.956757 
L 72.351302 95.085457 
L 71.736428 91.214157 
L 71.374002 87.536422 
L 71.230992 83.858687 
L 71.308702 80.180952 
L 71.606425 76.503218 
L 72.121439 72.825483 
L 72.89311 68.954183 
L 73.892509 65.082883 
L 75.175876 61.018018 
L 76.762035 56.759588 
L 78.663877 52.307593 
L 80.984122 47.468468 
L 83.744669 42.242214 
L 87.175756 36.241699 
L 91.765226 28.692664 
L 95.4 22.885714 
L 95.4 22.885714 
" style="fill:none;stroke:#1f77b4;stroke-linecap:square;stroke-width:2;"/>
   </g>
   <g id="line2d_2">
    <path clip-path="url(#p5ec5064233)" d="M 143.742857 241.611605 
L 147.614157 240.977518 
L 151.291892 240.596452 
L 154.969627 240.434596 
L 158.647362 240.493429 
L 162.325097 240.772412 
L 166.002831 241.268999 
L 169.874131 242.021792 
L 173.745431 243.003035 
L 177.810296 244.268316 
L 182.068726 245.836817 
L 186.520721 247.721841 
L 191.166281 249.929126 
L 196.392535 252.666007 
L 202.199485 255.962577 
L 209.554955 260.410161 
L 232.782754 274.666939 
L 238.589704 277.857003 
L 243.622394 280.380295 
L 248.267954 282.471032 
L 252.719949 284.230771 
L 256.978378 285.66855 
L 261.043243 286.800612 
L 264.914543 287.648698 
L 268.785843 288.263572 
L 272.463578 288.625998 
L 276.141313 288.769008 
L 279.819048 288.691298 
L 283.496782 288.393575 
L 287.174517 287.878561 
L 291.045817 287.10689 
L 294.917117 286.107491 
L 298.981982 284.824124 
L 303.240412 283.237965 
L 307.692407 281.336123 
L 312.531532 279.015878 
L 317.757786 276.255331 
L 323.758301 272.824244 
L 331.307336 268.234774 
L 337.114286 264.6 
L 337.114286 264.6 
" style="fill:none;stroke:#ff7f0e;stroke-linecap:square;stroke-width:2;"/>
   </g>
   <g id="line2d_3">
    <path clip-path="url(#p5ec5064233)" d="M 118.388395 216.257143 
L 118.155712 217.455542 
L 117.92303 218.653941 
L 117.690347 219.852341 
L 117.457665 221.05074 
L 117.224982 222.249139 
L 116.9923 223.447538 
L 116.759617 224.645938 
L 116.526935 225.844337 
L 116.294252 227.042736 
L 116.06157 228.241135 
L 115.828887 229.439535 
L 115.596205 230.637934 
L 115.363523 231.836333 
L 115.13084 233.034732 
L 114.898158 234.233132 
L 114.665475 235.431531 
L 114.432793 236.62993 
L 114.20011 237.828329 
L 113.967428 239.026729 
L 113.734745 240.225128 
L 113.502063 241.423527 
L 113.26938 242.621926 
L 113.036698 243.820326 
L 112.804015 245.018725 
L 112.571333 246.217124 
L 112.33865 247.415523 
L 112.105968 248.613923 
L 111.873285 249.812322 
L 111.640603 251.010721 
L 111.407921 252.209121 
L 111.175238 253.40752 
L 110.942556 254.605919 
L 110.709873 255.804318 
L 110.477191 257.002718 
L 110.244508 258.201117 
L 110.011826 259.399516 
L 109.779143 260.597915 
L 109.546461 261.796315 
L 109.313778 262.994714 
L 109.081096 264.193113 
L 108.848413 265.391512 
L 108.615731 266.589912 
L 108.383048 267.788311 
L 108.150366 268.98671 
L 107.917684 270.185109 
L 107.685001 271.383509 
L 107.452319 272.581908 
L 107.219636 273.780307 
L 106.986954 274.978706 
L 106.754271 276.177106 
L 106.521589 277.375505 
L 106.288906 278.573904 
L 106.056224 279.772303 
L 105.823541 280.970703 
L 105.590859 282.169102 
L 105.358176 283.367501 
L 105.125494 284.5659 
L 104.892811 285.7643 
L 104.660129 286.962699 
L 104.427446 288.161098 
L 104.194764 289.359497 
L 103.962082 290.557897 
L 103.729399 291.756296 
L 103.496717 292.954695 
L 103.264034 294.153094 
L 103.031352 295.351494 
L 102.798669 296.549893 
L 102.565987 297.748292 
L 102.333304 298.946691 
L 102.100622 300.145091 
L 101.867939 301.34349 
L 101.635257 302.541889 
L 101.402574 303.740288 
L 101.169892 304.938688 
L 100.937209 306.137087 
L 100.704527 307.335486 
L 100.471844 308.533885 
L 100.239162 309.732285 
L 100.00648 310.930684 
L 99.773797 312.129083 
L 99.541115 313.327483 
L 99.308432 314.525882 
L 99.07575 315.724281 
L 98.843067 316.92268 
L 98.610385 318.12108 
L 98.377702 319.319479 
L 98.14502 320.517878 
L 97.912337 321.716277 
L 97.679655 322.914677 
L 97.446972 324.113076 
L 97.21429 325.311475 
L 96.981607 326.509874 
L 96.748925 327.708274 
L 96.516243 328.906673 
L 96.28356 330.105072 
L 96.050878 331.303471 
L 95.818195 332.501871 
L 95.585513 333.70027 
L 95.35283 334.898669 
" style="fill:none;stroke:#1f77b4;stroke-dasharray:7.4,3.2;stroke-dashoffset:0;stroke-width:2;"/>
   </g>
   <g id="line2d_4">
    <path clip-path="url(#p5ec5064233)" d="M 143.742857 241.611605 
L 142.544458 241.844288 
L 141.346059 242.07697 
L 140.147659 242.309653 
L 138.94926 242.542335 
L 137.750861 242.775018 
L 136.552462 243.0077 
L 135.354062 243.240383 
L 134.155663 243.473065 
L 132.957264 243.705748 
L 131.758865 243.93843 
L 130.560465 244.171113 
L 129.362066 244.403795 
L 128.163667 244.636477 
L 126.965268 244.86916 
L 125.766868 245.101842 
L 124.568469 245.334525 
L 123.37007 245.567207 
L 122.171671 245.79989 
L 120.973271 246.032572 
L 119.774872 246.265255 
L 118.576473 246.497937 
L 117.378074 246.73062 
L 116.179674 246.963302 
L 114.981275 247.195985 
L 113.782876 247.428667 
L 112.584477 247.66135 
L 111.386077 247.894032 
L 110.187678 248.126715 
L 108.989279 248.359397 
L 107.790879 248.592079 
L 106.59248 248.824762 
L 105.394081 249.057444 
L 104.195682 249.290127 
L 102.997282 249.522809 
L 101.798883 249.755492 
L 100.600484 249.988174 
L 99.402085 250.220857 
L 98.203685 250.453539 
L 97.005286 250.686222 
L 95.806887 250.918904 
L 94.608488 251.151587 
L 93.410088 251.384269 
L 92.211689 251.616952 
L 91.01329 251.849634 
L 89.814891 252.082316 
L 88.616491 252.314999 
L 87.418092 252.547681 
L 86.219693 252.780364 
L 85.021294 253.013046 
L 83.822894 253.245729 
L 82.624495 253.478411 
L 81.426096 253.711094 
L 80.227697 253.943776 
L 79.029297 254.176459 
L 77.830898 254.409141 
L 76.632499 254.641824 
L 75.4341 254.874506 
L 74.2357 255.107189 
L 73.037301 255.339871 
L 71.838902 255.572554 
L 70.640503 255.805236 
L 69.442103 256.037918 
L 68.243704 256.270601 
L 67.045305 256.503283 
L 65.846906 256.735966 
L 64.648506 256.968648 
L 63.450107 257.201331 
L 62.251708 257.434013 
L 61.053309 257.666696 
L 59.854909 257.899378 
L 58.65651 258.132061 
L 57.458111 258.364743 
L 56.259712 258.597426 
L 55.061312 258.830108 
L 53.862913 259.062791 
L 52.664514 259.295473 
L 51.466115 259.528156 
L 50.267715 259.760838 
L 49.069316 259.99352 
L 47.870917 260.226203 
L 46.672517 260.458885 
L 45.474118 260.691568 
L 44.275719 260.92425 
L 43.07732 261.156933 
L 41.87892 261.389615 
L 40.680521 261.622298 
L 39.482122 261.85498 
L 38.283723 262.087663 
L 37.085323 262.320345 
L 35.886924 262.553028 
L 34.688525 262.78571 
L 33.490126 263.018393 
L 32.291726 263.251075 
L 31.093327 263.483757 
L 29.894928 263.71644 
L 28.696529 263.949122 
L 27.498129 264.181805 
L 26.29973 264.414487 
L 25.101331 264.64717 
" style="fill:none;stroke:#ff7f0e;stroke-dasharray:7.4,3.2;stroke-dashoffset:0;stroke-width:2;"/>
   </g>
  </g>
 </g>
 <defs>
  <clipPath id="p5ec5064233">
   <rect height="338.4" width="338.4" x="10.8" y="10.8"/>
  </clipPath>
 </defs>
</svg>
