<?xml version="1.0" encoding="utf-8" standalone="no"?>
<!DOCTYPE svg PUBLIC "-//W3C//DTD SVG 1.1//EN"
  "http://www.w3.org/Graphics/SVG/1.1/DTD/svg11.dtd">
<!-- Created with matplotlib (https://matplotlib.org/) -->
<svg height="360pt" version="1.1" viewBox="0 0 360 360" width="360pt" xmlns="http://www.w3.org/2000/svg" xmlns:xlink="http://www.w3.org/1999/xlink">
 <metadata>
  <rdf:RDF xmlns:cc="http://creativecommons.org/ns#" xmlns:dc="http://purl.org/dc/elements/1.1/" xmlns:rdf="http://www.w3.org/1999/02/22-rdf-syntax-ns#">
   <cc:Work>
    <dc:type rdf:resource="http://purl.org/dc/dcmitype/StillImage"/>
    <dc:date>2022-08-11T07:48:09.381417</dc:date>
    <dc:format>image/svg+xml</dc:format>
    <dc:creator>
     <cc:Agent>
      <dc:title>Matplotlib v3.3.3, https://matplotlib.org/</dc:title>
     </cc:Agent>
    </dc:creator>
   </cc:Work>
  </rdf:RDF>
 </metadata>
 <defs>
  <style type="text/css">*{stroke-linecap:butt;stroke-linejoin:round;}</style>
 </defs>
 <g id="figure_1">
  <g id="patch_1">
   <path d="M 0 360 
L 360 360 
L 360 0 
L 0 0 
z
" style="fill:#ffffff;"/>
  </g>
  <g id="axes_1">
   <g id="line2d_1">
    <path clip-path="url(#p39d9c33c80)" d="M 77.454545 292.8 
L 262.036364 333.818182 
L 303.054545 128.727273 
L 241.527273 26.181818 
L 138.981818 128.727273 
L 97.963636 26.181818 
L 56.945455 231.272727 
" style="fill:none;stroke:#1f77b4;stroke-dasharray:3.7,1.6;stroke-dashoffset:0;stroke-opacity:0.5;"/>
    <defs>
     <path d="M 0 3 
C 0.795609 3 1.55874 2.683901 2.12132 2.12132 
C 2.683901 1.55874 3 0.795609 3 0 
C 3 -0.795609 2.683901 -1.55874 2.12132 -2.12132 
C 1.55874 -2.683901 0.795609 -3 0 -3 
C -0.795609 -3 -1.55874 -2.683901 -2.12132 -2.12132 
C -2.683901 -1.55874 -3 -0.795609 -3 0 
C -3 0.795609 -2.683901 1.55874 -2.12132 2.12132 
C -1.55874 2.683901 -0.795609 3 0 3 
z
" id="m8f8217c5ee" style="stroke:#1f77b4;stroke-opacity:0.5;"/>
    </defs>
    <g clip-path="url(#p39d9c33c80)">
     <use style="fill:#1f77b4;fill-opacity:0.5;stroke:#1f77b4;stroke-opacity:0.5;" x="77.454545" xlink:href="#m8f8217c5ee" y="292.8"/>
     <use style="fill:#1f77b4;fill-opacity:0.5;stroke:#1f77b4;stroke-opacity:0.5;" x="262.036364" xlink:href="#m8f8217c5ee" y="333.818182"/>
     <use style="fill:#1f77b4;fill-opacity:0.5;stroke:#1f77b4;stroke-opacity:0.5;" x="303.054545" xlink:href="#m8f8217c5ee" y="128.727273"/>
     <use style="fill:#1f77b4;fill-opacity:0.5;stroke:#1f77b4;stroke-opacity:0.5;" x="241.527273" xlink:href="#m8f8217c5ee" y="26.181818"/>
     <use style="fill:#1f77b4;fill-opacity:0.5;stroke:#1f77b4;stroke-opacity:0.5;" x="138.981818" xlink:href="#m8f8217c5ee" y="128.727273"/>
     <use style="fill:#1f77b4;fill-opacity:0.5;stroke:#1f77b4;stroke-opacity:0.5;" x="97.963636" xlink:href="#m8f8217c5ee" y="26.181818"/>
     <use style="fill:#1f77b4;fill-opacity:0.5;stroke:#1f77b4;stroke-opacity:0.5;" x="56.945455" xlink:href="#m8f8217c5ee" y="231.272727"/>
    </g>
   </g>
   <g id="line2d_2">
    <path clip-path="url(#p39d9c33c80)" d="M 77.454545 292.8 
L 88.344411 295.092359 
L 98.846625 297.048033 
L 108.968099 298.675579 
L 118.715745 299.983554 
L 128.096475 300.980516 
L 137.117201 301.675023 
L 145.784834 302.075631 
L 154.106286 302.190898 
L 162.088468 302.029382 
L 168.234586 301.706635 
L 174.171533 301.216605 
L 179.902849 300.563674 
L 185.432073 299.752222 
L 190.762744 298.786631 
L 195.8984 297.671282 
L 200.842581 296.410557 
L 205.598824 295.008837 
L 210.170669 293.470504 
L 214.561655 291.799939 
L 218.775321 290.001523 
L 222.815205 288.079638 
L 226.684846 286.038666 
L 230.387783 283.882986 
L 234.787418 281.033756 
L 238.93902 278.020701 
L 242.849499 274.852377 
L 246.525768 271.537343 
L 249.974739 268.084156 
L 253.203323 264.501374 
L 256.218432 260.797553 
L 259.026978 256.981251 
L 261.635873 253.061026 
L 264.052028 249.045435 
L 266.282355 244.943035 
L 268.333766 240.762384 
L 270.569022 235.654361 
L 272.568535 230.460766 
L 274.344249 225.196386 
L 275.908107 219.876009 
L 277.272053 214.514423 
L 278.626591 208.226881 
L 279.744249 201.926857 
L 280.643993 195.637832 
L 281.429767 188.493964 
L 281.984001 181.430184 
L 282.366 173.622803 
L 282.537803 165.179545 
L 282.47881 156.246212 
L 282.186189 147.710493 
L 281.667124 139.572625 
L 281.004643 132.519807 
L 280.166077 125.795791 
L 279.156691 119.400578 
L 277.981751 113.334167 
L 276.646525 107.59656 
L 275.156277 102.187755 
L 273.516275 97.107753 
L 271.731783 92.356553 
L 270.006555 88.3616 
L 268.172396 84.632977 
L 266.233144 81.170684 
L 264.192639 77.974722 
L 262.054719 75.045089 
L 259.823224 72.381787 
L 257.501992 69.984815 
L 255.366444 68.077759 
L 253.165723 66.381137 
L 250.902524 64.894949 
L 248.579545 63.619194 
L 246.199481 62.553874 
L 243.765028 61.698986 
L 241.278884 61.054533 
L 238.743744 60.620513 
L 236.162304 60.396928 
L 233.53726 60.383564 
L 230.535324 60.610871 
L 227.485453 61.074516 
L 224.045159 61.840599 
L 220.555692 62.842176 
L 216.666769 64.180553 
L 212.01186 66.029519 
L 206.575887 68.441831 
L 199.249206 71.957182 
L 183.746329 79.461549 
L 178.229004 81.856754 
L 173.477953 83.685504 
L 169.489084 85.002863 
L 165.893966 85.982224 
L 162.333933 86.723129 
L 159.164254 87.16158 
L 156.031098 87.361295 
L 153.279837 87.32094 
L 150.563163 87.059724 
L 147.883773 86.562482 
L 145.572011 85.921866 
L 142.968033 84.957354 
L 140.081546 83.637907 
L 136.290873 81.632931 
L 127.607306 76.916255 
L 124.835486 75.70204 
L 122.368796 74.86352 
L 120.203818 74.364095 
L 118.340327 74.141501 
L 116.467239 74.134851 
L 114.582278 74.369027 
L 113.000766 74.766089 
L 111.408114 75.36207 
L 109.803004 76.171369 
L 108.18412 77.208387 
L 106.550145 78.487522 
L 104.899763 80.023175 
L 102.895793 82.224835 
L 100.864026 84.841497 
L 98.802187 87.898045 
L 96.708001 91.419359 
L 94.579193 95.430323 
L 92.413488 99.955818 
L 89.837163 105.91907 
L 87.203909 112.656037 
L 84.510112 120.206231 
L 81.752159 128.609164 
L 78.92644 137.904349 
L 76.02934 148.131298 
L 72.62633 161.010862 
L 69.119978 175.218013 
L 65.504892 190.811729 
L 61.775678 207.850994 
L 57.926945 226.394785 
L 56.945455 231.272727 
L 56.945455 231.272727 
" style="fill:none;stroke:#ff7f0e;stroke-linecap:square;"/>
   </g>
   <g id="line2d_3">
    <path clip-path="url(#p39d9c33c80)" d="M 77.454545 292.8 
L 88.338321 295.098449 
L 98.822568 297.07209 
L 108.91465 298.729028 
L 118.621932 300.077368 
L 127.951777 301.125214 
L 136.911551 301.880672 
L 145.508617 302.351847 
L 153.75034 302.546843 
L 161.644085 302.473765 
L 169.197215 302.140718 
L 176.417095 301.555808 
L 183.311089 300.727138 
L 189.886561 299.662813 
L 196.150877 298.37094 
L 200.943245 297.179052 
L 205.544956 295.850869 
L 209.959781 294.390541 
L 214.19149 292.802217 
L 218.243854 291.090048 
L 222.120643 289.258183 
L 225.825628 287.310771 
L 230.221003 284.720342 
L 234.36119 281.963959 
L 238.253554 279.04973 
L 241.905458 275.985757 
L 245.324266 272.780147 
L 248.517343 269.441004 
L 251.492054 265.976433 
L 254.255763 262.394539 
L 256.815833 258.703427 
L 259.17963 254.911201 
L 261.354517 251.025966 
L 263.34786 247.055828 
L 265.167021 243.008891 
L 267.130466 238.062604 
L 268.86642 233.031403 
L 270.387611 227.929293 
L 271.706762 222.770279 
L 273.007394 216.698195 
L 274.070557 210.58996 
L 274.916459 204.467816 
L 275.643093 197.482576 
L 276.142515 190.541414 
L 276.470335 182.826627 
L 276.594324 174.426838 
L 276.505944 165.470512 
L 276.192744 156.094964 
L 275.661574 147.139098 
L 274.917553 138.606897 
L 274.052922 131.161289 
L 273.017682 124.078089 
L 271.815773 117.360362 
L 270.45114 111.011175 
L 268.927725 105.033595 
L 267.408334 99.92448 
L 265.763938 95.127316 
L 263.9975 90.644408 
L 262.111983 86.478058 
L 260.110347 82.630572 
L 258.212043 79.442366 
L 256.224242 76.515985 
L 254.149104 73.853108 
L 251.988789 71.455415 
L 249.745455 69.324585 
L 247.683432 67.655906 
L 245.559037 66.200588 
L 243.373787 64.959811 
L 241.129198 63.934756 
L 238.826787 63.126601 
L 236.468072 62.536526 
L 234.054567 62.165711 
L 231.587836 62.01484 
L 229.070224 62.075971 
L 226.180842 62.379127 
L 223.235196 62.909197 
L 219.901518 63.737449 
L 216.167472 64.904472 
L 212.022907 66.43743 
L 207.107162 68.500602 
L 200.684689 71.46007 
L 180.692766 80.878738 
L 175.598428 82.942511 
L 171.255035 84.476138 
L 167.301633 85.6439 
L 163.737749 86.472927 
L 160.559843 87.003779 
L 157.414449 87.307797 
L 154.649328 87.369761 
L 151.916341 87.219554 
L 149.218521 86.841673 
L 146.558901 86.220612 
L 144.265161 85.468113 
L 141.679952 84.396962 
L 138.494907 82.82722 
L 133.481398 80.053775 
L 128.531756 77.370907 
L 125.451493 75.949767 
L 122.986036 75.048449 
L 120.823242 74.481979 
L 118.962445 74.192934 
L 117.092808 74.111538 
L 115.212058 74.262674 
L 113.317918 74.671223 
L 111.727599 75.226269 
L 110.125086 75.991753 
L 108.509062 76.982075 
L 106.87821 78.211635 
L 105.231215 79.694832 
L 103.231657 81.829744 
L 101.204681 84.375511 
L 99.148012 87.357016 
L 97.059375 90.799142 
L 94.936495 94.726769 
L 92.777098 99.164782 
L 90.578907 104.138061 
L 87.962287 110.649935 
L 85.286156 117.963746 
L 82.546903 126.119008 
L 79.740914 135.155232 
L 76.864577 145.111931 
L 73.48656 157.668814 
L 70.006549 171.538538 
L 66.419152 186.780084 
L 62.718976 203.452432 
L 58.900628 221.614562 
L 56.945455 231.272727 
L 56.945455 231.272727 
" style="fill:none;stroke:#ff7f0e;stroke-linecap:square;"/>
   </g>
   <g id="line2d_4">
    <path clip-path="url(#p39d9c33c80)" d="M 77.454545 292.8 
L 88.3505 295.08627 
L 98.870682 297.023976 
L 109.021548 298.62213 
L 118.809559 299.889741 
L 128.241173 300.835818 
L 135.5342 301.367231 
L 142.606574 301.703243 
L 149.461603 301.848465 
L 156.102593 301.807513 
L 162.532852 301.584998 
L 168.755687 301.185534 
L 174.774405 300.613734 
L 180.592312 299.874211 
L 186.212717 298.971578 
L 191.638927 297.910448 
L 196.874247 296.695435 
L 201.921987 295.331151 
L 206.785452 293.82221 
L 211.467949 292.173224 
L 215.972787 290.388808 
L 220.303271 288.473573 
L 224.46271 286.432133 
L 228.45441 284.269101 
L 232.281678 281.989091 
L 235.947822 279.596715 
L 240.308959 276.455259 
L 244.429965 273.154449 
L 248.317299 269.703297 
L 251.977422 266.11081 
L 255.416792 262.386001 
L 258.641868 258.537878 
L 261.65911 254.575452 
L 264.474976 250.507732 
L 267.095927 246.343729 
L 269.528421 242.092452 
L 271.778917 237.762912 
L 274.24837 232.476842 
L 276.476209 227.106617 
L 278.473597 221.667805 
L 280.251693 216.175976 
L 281.821661 210.646699 
L 283.405128 204.169317 
L 284.738224 197.686878 
L 285.838674 191.224108 
L 286.724201 184.805728 
L 287.495797 177.556508 
L 288.036286 170.434464 
L 288.40103 162.620132 
L 288.548087 154.244584 
L 288.456962 146.234377 
L 288.137485 138.591021 
L 287.597226 131.312212 
L 286.843755 124.395645 
L 285.989593 118.478548 
L 284.974379 112.851321 
L 283.803633 107.512286 
L 282.482872 102.459763 
L 281.017616 97.692071 
L 279.413384 93.207532 
L 277.675692 89.004466 
L 275.810061 85.081193 
L 273.822009 81.436034 
L 271.717054 78.067309 
L 269.500715 74.973338 
L 267.178511 72.152443 
L 265.029915 69.872872 
L 262.805909 67.806556 
L 260.510368 65.952317 
L 258.147168 64.308976 
L 255.720185 62.875352 
L 253.233295 61.650266 
L 250.690373 60.632538 
L 248.095296 59.820989 
L 245.451939 59.21444 
L 242.764178 58.811709 
L 240.035889 58.611619 
L 237.270948 58.612989 
L 234.121269 58.852649 
L 230.934059 59.330004 
L 227.352791 60.113577 
L 223.733952 61.135655 
L 219.715335 62.500847 
L 215.293108 64.234016 
L 210.093699 66.512656 
L 203.364683 69.726059 
L 181.278433 80.500985 
L 176.102295 82.663266 
L 171.705715 84.268201 
L 167.715229 85.492739 
L 164.1258 86.367769 
L 160.930429 86.936582 
L 157.771808 87.276294 
L 154.997713 87.368861 
L 152.257669 87.248898 
L 149.554034 86.901576 
L 146.889169 86.312066 
L 144.590936 85.587183 
L 142.001161 84.54131 
L 138.811357 82.992797 
L 134.103709 80.405178 
L 128.531756 77.370907 
L 125.451493 75.949767 
L 122.986036 75.048449 
L 120.823242 74.481979 
L 118.962445 74.192934 
L 117.092808 74.111538 
L 115.212058 74.262674 
L 113.317918 74.671223 
L 111.727599 75.226269 
L 110.125086 75.991753 
L 108.509062 76.982075 
L 106.87821 78.211635 
L 105.231215 79.694832 
L 103.231657 81.829744 
L 101.204681 84.375511 
L 99.148012 87.357016 
L 97.059375 90.799142 
L 94.936495 94.726769 
L 92.777098 99.164782 
L 90.578907 104.138061 
L 87.962287 110.649935 
L 85.286156 117.963746 
L 82.546903 126.119008 
L 79.740914 135.155232 
L 76.864577 145.111931 
L 73.48656 157.668814 
L 70.006549 171.538538 
L 66.419152 186.780084 
L 62.718976 203.452432 
L 58.900628 221.614562 
L 56.945455 231.272727 
L 56.945455 231.272727 
" style="fill:none;stroke:#ff7f0e;stroke-linecap:square;"/>
   </g>
  </g>
 </g>
 <defs>
  <clipPath id="p39d9c33c80">
   <rect height="338.4" width="270.72" x="44.64" y="10.8"/>
  </clipPath>
 </defs>
</svg>
