<?xml version="1.0" encoding="utf-8" standalone="no"?>
<!DOCTYPE svg PUBLIC "-//W3C//DTD SVG 1.1//EN"
  "http://www.w3.org/Graphics/SVG/1.1/DTD/svg11.dtd">
<!-- Created with matplotlib (https://matplotlib.org/) -->
<svg height="288pt" version="1.1" viewBox="0 0 576 288" width="576pt" xmlns="http://www.w3.org/2000/svg" xmlns:xlink="http://www.w3.org/1999/xlink">
 <metadata>
  <rdf:RDF xmlns:cc="http://creativecommons.org/ns#" xmlns:dc="http://purl.org/dc/elements/1.1/" xmlns:rdf="http://www.w3.org/1999/02/22-rdf-syntax-ns#">
   <cc:Work>
    <dc:type rdf:resource="http://purl.org/dc/dcmitype/StillImage"/>
    <dc:date>2022-09-15T11:22:53.532129</dc:date>
    <dc:format>image/svg+xml</dc:format>
    <dc:creator>
     <cc:Agent>
      <dc:title>Matplotlib v3.3.3, https://matplotlib.org/</dc:title>
     </cc:Agent>
    </dc:creator>
   </cc:Work>
  </rdf:RDF>
 </metadata>
 <defs>
  <style type="text/css">*{stroke-linecap:butt;stroke-linejoin:round;}</style>
 </defs>
 <g id="figure_1">
  <g id="patch_1">
   <path d="M 0 288 
L 576 288 
L 576 0 
L 0 0 
z
" style="fill:#ffffff;"/>
  </g>
  <g id="axes_1">
   <g id="line2d_1">
    <path clip-path="url(#p574f661979)" d="M 113.19039 209.052261 
L 116.205628 206.476873 
L 119.493948 203.384152 
L 123.697851 199.098963 
L 137.852539 184.319424 
L 141.166433 181.322144 
L 144.210137 178.852996 
L 146.97279 176.871439 
L 149.795434 175.113769 
L 152.682853 173.597845 
L 155.265302 172.480245 
L 157.901637 171.563753 
L 160.592628 170.85124 
L 163.338244 170.34259 
L 166.137654 170.034701 
L 168.989239 169.921532 
L 172.308991 170.019097 
L 175.689038 170.341683 
L 179.55631 170.946132 
L 183.921918 171.873902 
L 188.78935 173.138018 
L 195.944425 175.257285 
L 207.578937 178.729138 
L 212.874257 180.053661 
L 217.220235 180.908173 
L 221.066261 181.433331 
L 224.425003 181.676407 
L 227.721597 181.687545 
L 230.551745 181.494372 
L 233.328951 181.103616 
L 236.051921 180.51045 
L 238.720156 179.71301 
L 241.333958 178.712422 
L 243.894426 177.512787 
L 246.757813 175.907175 
L 249.558025 174.065792 
L 252.300278 172.008098 
L 255.323941 169.464156 
L 258.619744 166.399361 
L 262.508403 162.474152 
L 268.910103 155.635826 
L 274.695568 149.570659 
L 278.621466 145.784432 
L 281.960482 142.880911 
L 285.031386 140.513272 
L 287.821319 138.633523 
L 290.67362 136.986537 
L 293.223892 135.748854 
L 295.827194 134.709077 
L 298.484776 133.87188 
L 301.197098 133.238973 
L 303.963815 132.809073 
L 306.783788 132.577927 
L 310.069328 132.547811 
L 313.417831 132.752676 
L 316.824031 133.172867 
L 320.717 133.873218 
L 325.105812 134.887587 
L 330.437863 136.349195 
L 339.850362 139.210833 
L 347.443087 141.426938 
L 352.733822 142.734353 
L 357.074691 143.569798 
L 360.91525 144.074551 
L 364.268551 144.297321 
L 367.559265 144.286513 
L 370.383995 144.073122 
L 373.155613 143.661511 
L 375.872906 143.047157 
L 378.535458 142.228507 
L 381.143654 141.206997 
L 383.698674 139.987036 
L 386.556134 138.359302 
L 389.350845 136.497385 
L 392.088126 134.421137 
L 395.106949 131.859129 
L 398.398443 128.778255 
L 402.605053 124.503169 
L 417.413098 109.08901 
L 420.73654 106.127367 
L 423.790661 103.697092 
L 426.563812 101.754715 
L 429.397912 100.039802 
L 432.297528 98.569394 
L 434.891071 97.493201 
L 437.538726 96.618957 
L 440.241097 95.948914 
L 442.997986 95.482334 
L 445.808397 95.215499 
L 449.083513 95.146481 
L 452.422322 95.315165 
L 455.819741 95.702589 
L 459.704134 96.370933 
L 464.085274 97.356669 
L 469.411004 98.794688 
L 477.923349 101.369885 
L 486.419025 103.88287 
L 491.717711 105.219959 
L 496.067469 106.088575 
L 496.928734 106.229882 
L 496.928734 106.229882 
" style="fill:none;stroke:#1f77b4;stroke-linecap:square;stroke-width:1.5;"/>
   </g>
   <g id="line2d_2">
    <path clip-path="url(#p574f661979)" d="M 158.765711 265.090909 
L 163.365392 261.199412 
L 168.023562 256.930772 
L 172.579576 252.452148 
L 178.039396 246.756195 
L 187.637749 236.653338 
L 188.074106 236.247407 
L 187.384258 236.741642 
L 185.507584 237.899773 
L 183.127248 239.097294 
L 180.497331 240.15324 
L 177.945422 240.950385 
L 175.32256 241.556967 
L 172.455662 241.982213 
L 169.678276 242.150547 
L 167.286089 242.074062 
L 166.201574 241.935228 
L 167.396103 242.190218 
L 171.039427 243.18915 
L 193.500503 249.695937 
L 199.62956 251.08701 
L 205.52436 252.186826 
L 210.974949 252.978131 
L 216.785006 253.56895 
L 221.886528 253.863637 
L 227.201955 253.940031 
L 232.700378 253.763793 
L 237.203713 253.420592 
L 241.772856 252.884331 
L 246.379224 252.146775 
L 250.991882 251.204278 
L 255.578721 250.05826 
L 260.107801 248.715338 
L 264.548731 247.187097 
L 268.873919 245.489508 
L 273.059591 243.642061 
L 278.066579 241.155634 
L 282.798739 238.515169 
L 287.240469 235.766683 
L 291.386396 232.954053 
L 295.975707 229.550307 
L 300.160236 226.171867 
L 304.563296 222.328725 
L 309.018133 218.143369 
L 313.814693 213.328189 
L 319.936772 206.837094 
L 326.481986 199.936389 
L 327.615125 198.858041 
L 326.956758 199.330211 
L 325.109605 200.475671 
L 322.750523 201.670174 
L 320.134296 202.72919 
L 317.588477 203.532615 
L 314.965217 204.14743 
L 312.089826 204.582382 
L 309.29408 204.759416 
L 306.870991 204.68778 
L 305.741933 204.545455 
L 306.89302 204.789519 
L 310.493955 205.773774 
L 321.380457 209.089615 
L 329.348773 211.358707 
L 335.817488 212.965512 
L 341.407947 214.143212 
L 346.597174 215.04174 
L 352.152555 215.781476 
L 357.054049 216.23404 
L 362.188227 216.499206 
L 367.532429 216.540912 
L 373.054297 216.325296 
L 377.571586 215.947791 
L 382.149706 215.375417 
L 386.75957 214.600727 
L 391.369936 213.620968 
L 395.948621 212.438506 
L 400.463868 211.06089 
L 404.885706 209.500555 
L 409.187171 207.774182 
L 413.345266 205.901793 
L 418.313682 203.390082 
L 423.004307 200.731072 
L 427.403124 197.970605 
L 431.506103 195.152088 
L 436.045266 191.748404 
L 440.182279 188.376635 
L 444.534047 184.548061 
L 448.935954 180.386393 
L 453.673997 175.608916 
L 460.033949 168.848048 
L 466.119728 162.451569 
L 467.155349 161.467766 
L 466.528517 161.919202 
L 464.710922 163.051769 
L 462.373228 164.243042 
L 459.770902 165.304954 
L 457.231412 166.114554 
L 454.608014 166.737554 
L 451.724411 167.18224 
L 448.910552 167.368077 
L 446.456729 167.301464 
L 445.283165 167.155836 
L 446.390749 167.389074 
L 449.949217 168.358664 
L 460.146797 171.466448 
L 467.844751 173.687293 
L 474.117139 175.286397 
L 480.365917 176.640263 
L 485.478673 177.548435 
L 485.478673 177.548435 
" style="fill:none;stroke:#ff7f0e;stroke-linecap:square;stroke-width:1.5;"/>
   </g>
   <g id="line2d_3">
    <path clip-path="url(#p574f661979)" d="M 135.978051 237.071585 
L 139.927399 233.713679 
L 143.968258 229.961106 
L 148.402043 225.518049 
L 154.332809 219.217934 
L 161.055326 212.133883 
L 164.064818 209.27286 
L 166.29164 207.433538 
L 167.931832 206.345385 
L 168.641988 206.063693 
L 169.758189 206.047108 
L 171.623829 206.234224 
L 174.389697 206.742193 
L 178.353265 207.724054 
L 184.05549 209.388073 
L 198.671152 213.733746 
L 204.460405 215.178808 
L 209.430292 216.206904 
L 214.027697 216.953095 
L 218.851949 217.500898 
L 223.155766 217.770022 
L 227.595848 217.816744 
L 232.143678 217.608309 
L 235.988311 217.220087 
L 239.854088 216.625195 
L 243.710891 215.818714 
L 247.527293 214.802252 
L 251.272601 213.584084 
L 254.918888 212.178593 
L 258.442678 210.605112 
L 262.484712 208.527348 
L 266.30519 206.282849 
L 269.896061 203.913979 
L 273.797764 201.045942 
L 277.40373 198.118718 
L 281.190942 194.762055 
L 285.478412 190.636024 
L 290.414336 185.536318 
L 302.133279 173.241883 
L 304.780573 170.873829 
L 306.783297 169.373805 
L 308.02682 168.695728 
L 308.943256 168.646176 
L 310.742497 168.787307 
L 313.339101 169.227519 
L 316.806786 170.044114 
L 321.856884 171.472563 
L 340.31581 176.896176 
L 345.661823 178.156104 
L 350.735206 179.127788 
L 355.422117 179.803205 
L 359.616903 180.209163 
L 363.962284 180.41783 
L 368.436755 180.394261 
L 372.241717 180.174375 
L 376.091196 179.756631 
L 379.957592 179.131119 
L 383.810477 178.293835 
L 387.618402 177.247365 
L 391.350953 176.000923 
L 394.980758 174.569697 
L 398.485097 172.973617 
L 402.50108 170.873356 
L 406.293941 168.611558 
L 409.856923 166.230386 
L 413.727061 163.353726 
L 417.303473 160.42324 
L 421.059991 157.068372 
L 425.313815 152.951471 
L 430.212625 147.873245 
L 441.39624 136.118268 
L 444.114038 133.656654 
L 446.110109 132.126846 
L 447.490767 131.32204 
L 448.18951 131.256666 
L 449.73244 131.33443 
L 452.083312 131.681997 
L 455.31972 132.392723 
L 460.126563 133.706369 
L 470.604528 136.897736 
L 477.904967 138.994535 
L 483.668395 140.427465 
L 488.616241 141.446054 
L 491.203703 141.889158 
L 491.203703 141.889158 
" style="fill:none;stroke:#2ca02c;stroke-linecap:square;stroke-width:1.5;"/>
   </g>
   <g id="line2d_4">
    <path clip-path="url(#p574f661979)" d="M 90.40273 181.032937 
L 92.623641 179.106194 
L 95.640969 176.164515 
L 100.131989 171.434852 
L 108.871004 162.176583 
L 113.054164 158.062985 
L 117.230618 154.273298 
L 120.783785 151.322889 
L 124.628791 148.420792 
L 128.169246 146.013245 
L 131.939359 143.720767 
L 135.933225 141.585595 
L 139.420319 139.957407 
L 143.034575 138.491689 
L 146.753792 137.208866 
L 150.551001 136.124758 
L 154.396026 135.2493 
L 158.25746 134.585834 
L 162.104741 134.131074 
L 165.909986 133.875746 
L 170.387536 133.81243 
L 174.738311 133.984969 
L 178.940142 134.35879 
L 183.636636 135.001983 
L 188.722064 135.943845 
L 194.082507 137.179016 
L 200.12551 138.812312 
L 208.82818 141.435564 
L 217.374674 143.965428 
L 221.46312 144.961917 
L 224.366865 145.461848 
L 226.399676 145.597289 
L 227.205367 145.478773 
L 228.201611 144.918288 
L 229.743198 143.802812 
L 231.902325 141.956917 
L 234.860872 139.100371 
L 239.285704 134.461056 
L 248.701648 124.492925 
L 252.917616 120.36876 
L 256.639005 116.9986 
L 260.181235 114.047309 
L 264.01451 111.142353 
L 267.544545 108.730537 
L 271.304268 106.431928 
L 275.288245 104.28867 
L 278.767875 102.652274 
L 282.375719 101.177133 
L 286.089869 99.883878 
L 289.883581 98.788617 
L 293.726806 97.901631 
L 297.58815 97.226627 
L 301.436953 96.760673 
L 305.245146 96.494793 
L 309.727772 96.419983 
L 314.084863 96.582535 
L 318.293814 96.947979 
L 322.999151 97.58342 
L 328.0949 98.518918 
L 333.46684 99.74977 
L 339.523564 101.38129 
L 347.80278 103.87085 
L 357.155737 106.639976 
L 361.185148 107.609589 
L 364.025346 108.08618 
L 365.980172 108.206625 
L 366.73504 108.093929 
L 367.715303 107.546029 
L 369.242303 106.446021 
L 371.388086 104.617414 
L 374.333943 101.779197 
L 378.444651 97.48083 
L 388.534516 86.808272 
L 392.783652 82.674044 
L 396.53534 79.301293 
L 400.106814 76.352513 
L 403.971426 73.455366 
L 407.529265 71.055115 
L 411.316667 68.77305 
L 415.326934 66.651554 
L 418.826359 65.037201 
L 422.451155 63.587324 
L 426.178638 62.321993 
L 429.981474 61.256538 
L 433.829291 60.400316 
L 437.690673 59.756055 
L 441.535232 59.319891 
L 445.335404 59.082054 
L 449.804347 59.037751 
L 454.144495 59.226776 
L 458.334399 59.614395 
L 463.016124 60.270325 
L 468.084347 61.2226 
L 473.425646 62.464781 
L 479.445797 64.100843 
L 488.117096 66.719318 
L 496.709052 69.253253 
L 500.827132 70.240283 
L 502.653765 70.570605 
L 502.653765 70.570605 
" style="fill:none;stroke:#d62728;stroke-linecap:square;stroke-width:1.5;"/>
   </g>
   <g id="line2d_5">
    <path clip-path="url(#p574f661979)" d="M 67.61507 153.013613 
L 67.598631 153.030287 
L 71.079294 149.612211 
L 78.443047 141.729408 
L 84.101804 135.861433 
L 88.814687 131.27976 
L 92.992767 127.489932 
L 97.66811 123.564227 
L 102.103166 120.146198 
L 106.116371 117.303052 
L 110.424738 114.505119 
L 115.026828 111.79489 
L 119.91174 109.217833 
L 124.008954 107.283235 
L 128.256719 105.486479 
L 132.63367 103.848614 
L 137.114215 102.387724 
L 141.669365 101.117951 
L 146.26788 100.04875 
L 150.877589 99.184454 
L 155.466777 98.524216 
L 160.005464 98.062299 
L 165.566742 97.74818 
L 170.961826 97.701072 
L 176.155472 97.88836 
L 181.122315 98.274498 
L 186.760632 98.949515 
L 192.034838 99.798842 
L 197.724325 100.937018 
L 203.624524 102.339473 
L 210.125209 104.108335 
L 219.027852 106.786711 
L 227.52088 109.291664 
L 228.926149 109.629949 
L 228.169288 109.553437 
L 226.039633 109.480237 
L 223.426256 109.614805 
L 220.645209 109.993182 
L 218.042002 110.558951 
L 215.457224 111.328756 
L 212.733666 112.383972 
L 210.197214 113.630392 
L 208.095753 114.918612 
L 207.139919 115.639841 
L 207.97172 114.894423 
L 210.558816 112.286816 
L 217.496661 104.859166 
L 223.510926 98.604274 
L 228.202566 94.033872 
L 232.36218 90.250594 
L 237.017327 86.328924 
L 241.43388 82.911849 
L 245.4311 80.067378 
L 249.723327 77.265918 
L 254.309583 74.549751 
L 259.179529 71.964233 
L 263.265818 70.021057 
L 267.503944 68.214206 
L 271.872857 66.564894 
L 276.347226 65.091438 
L 280.898264 63.808278 
L 285.494841 62.725205 
L 290.104807 61.846908 
L 294.696372 61.172886 
L 299.239402 60.697721 
L 304.808535 60.368198 
L 310.213683 60.307328 
L 315.419059 60.482732 
L 320.398771 60.85896 
L 326.0534 61.524656 
L 331.344292 62.367298 
L 337.053162 63.500646 
L 342.97498 64.900926 
L 349.501725 66.671114 
L 358.447361 69.359216 
L 367.013362 71.889126 
L 368.468064 72.239778 
L 367.610761 72.155594 
L 365.395845 72.092261 
L 362.729066 72.248042 
L 359.920137 72.651702 
L 357.310894 73.240129 
L 354.737679 74.028535 
L 352.046371 75.095061 
L 349.563701 76.337376 
L 347.53999 77.595906 
L 346.682452 78.249925 
L 347.600147 77.421427 
L 350.265666 74.723369 
L 365.956347 58.348651 
L 370.500719 54.10719 
L 374.990104 50.223318 
L 379.254203 46.818615 
L 383.926994 43.398975 
L 388.143894 40.582712 
L 392.655883 37.840623 
L 397.455182 35.217448 
L 401.489506 33.235668 
L 405.681384 31.383031 
L 410.011239 29.681447 
L 414.455032 28.150268 
L 418.984966 26.805264 
L 423.570519 25.65777 
L 428.179718 24.714125 
L 432.78051 23.975469 
L 437.342104 23.437898 
L 441.836134 23.092957 
L 447.320862 22.913702 
L 452.620837 22.98598 
L 457.705726 23.275413 
L 463.494996 23.858555 
L 468.924597 24.640984 
L 474.795379 25.729488 
L 480.898245 27.107241 
L 487.643226 28.884162 
L 495.500056 31.203746 
L 506.923125 34.593004 
L 508.401369 34.91755 
L 508.378795 34.911328 
" style="fill:none;stroke:#9467bd;stroke-linecap:square;stroke-width:1.5;"/>
   </g>
   <g id="text_1">
    <!-- $\gamma$ -->
    <g transform="translate(496.928734 118.683182)scale(0.18 -0.18)">
     <defs>
      <path d="M 37.796875 11.875 
C 37.59375 16.734375 37.40625 24.390625 33.59375 33.328125 
C 31.59375 38.3125 28.203125 43.5625 20.90625 43.5625 
C 8.59375 43.5625 1.90625 27.96875 1.90625 25.390625 
C 1.90625 24.484375 2.59375 24.484375 2.90625 24.484375 
C 3.796875 24.484375 3.796875 24.6875 4.296875 25.984375 
C 6.40625 32.140625 12.796875 37 19.703125 37 
C 33.59375 37 35.59375 21.609375 35.59375 11.78125 
C 35.59375 5.5 34.90625 3.4375 34.296875 1.4375 
C 32.40625 -4.71875 29.09375 -17.03125 29.09375 -19.8125 
C 29.09375 -20.609375 29.40625 -21.5 30.203125 -21.5 
C 31.703125 -21.5 32.59375 -18.21875 33.703125 -14.25 
C 36.09375 -5.515625 36.703125 -1.140625 37.203125 2.828125 
C 37.5 5.21875 43.203125 21.625 51.09375 37.21875 
C 51.796875 38.796875 53.203125 41.484375 53.203125 41.78125 
C 53.203125 41.875 53.09375 42.578125 52.203125 42.578125 
C 52 42.578125 51.5 42.578125 51.296875 42.171875 
C 51.09375 41.984375 47.59375 35.21875 44.59375 28.46875 
C 43.09375 25.09375 41.09375 20.625 37.796875 11.875 
z
" id="CMMI12-13"/>
     </defs>
     <use transform="scale(0.996264)" xlink:href="#CMMI12-13"/>
    </g>
   </g>
   <g id="text_2">
    <!-- $O^\gamma_{-0.2}$ -->
    <g transform="translate(485.478673 191.570772)scale(0.18 -0.18)">
     <defs>
      <path d="M 72.59375 43.703125 
C 72.59375 60.125 61.796875 70.1875 47.796875 70.1875 
C 26.40625 70.1875 4.796875 47.28125 4.796875 24.28125 
C 4.796875 8.65625 15.203125 -2 29.703125 -2 
C 50.703125 -2 72.59375 19.8125 72.59375 43.703125 
z
M 30.296875 0.296875 
C 22.09375 0.296875 13.40625 6.265625 13.40625 21.796875 
C 13.40625 30.84375 16.703125 45.6875 24.90625 55.65625 
C 32.203125 64.421875 40.59375 68 47.296875 68 
C 56.09375 68 64.59375 61.625 64.59375 47.28125 
C 64.59375 38.421875 60.796875 24.578125 54.09375 15.125 
C 46.796875 4.96875 37.703125 0.296875 30.296875 0.296875 
z
" id="CMMI12-79"/>
      <path d="M 65.90625 23 
C 67.59375 23 69.40625 23 69.40625 25 
C 69.40625 27 67.59375 27 65.90625 27 
L 11.796875 27 
C 10.09375 27 8.296875 27 8.296875 25 
C 8.296875 23 10.09375 23 11.796875 23 
z
" id="CMSY10-0"/>
      <path d="M 42 31.640625 
C 42 37.75 41.90625 48.125 37.703125 56.109375 
C 34 63.109375 28.09375 65.59375 22.90625 65.59375 
C 18.09375 65.59375 12 63.40625 8.203125 56.203125 
C 4.203125 48.71875 3.796875 39.4375 3.796875 31.640625 
C 3.796875 25.953125 3.90625 17.28125 7 9.671875 
C 11.296875 -0.609375 19 -2 22.90625 -2 
C 27.5 -2 34.5 -0.109375 38.59375 9.375 
C 41.59375 16.28125 42 24.359375 42 31.640625 
z
M 22.90625 -0.40625 
C 16.5 -0.40625 12.703125 5.078125 11.296875 12.6875 
C 10.203125 18.5625 10.203125 27.15625 10.203125 32.75 
C 10.203125 40.4375 10.203125 46.828125 11.5 52.921875 
C 13.40625 61.390625 19 64 22.90625 64 
C 27 64 32.296875 61.296875 34.203125 53.125 
C 35.5 47.4375 35.59375 40.734375 35.59375 32.75 
C 35.59375 26.25 35.59375 18.265625 34.40625 12.375 
C 32.296875 1.484375 26.40625 -0.40625 22.90625 -0.40625 
z
" id="CMR17-48"/>
      <path d="M 18.40625 4.796875 
C 18.40625 7.6875 16 9.671875 13.59375 9.671875 
C 10.703125 9.671875 8.703125 7.28125 8.703125 4.890625 
C 8.703125 2 11.09375 0 13.5 0 
C 16.40625 0 18.40625 2.390625 18.40625 4.796875 
z
" id="CMMI12-58"/>
      <path d="M 41.703125 15.453125 
L 39.90625 15.453125 
C 38.90625 8.375 38.09375 7.171875 37.703125 6.5625 
C 37.203125 5.765625 30 5.765625 28.59375 5.765625 
L 9.40625 5.765625 
C 13 9.671875 20 16.75 28.5 24.953125 
C 34.59375 30.734375 41.703125 37.53125 41.703125 47.421875 
C 41.703125 59.21875 32.296875 66 21.796875 66 
C 10.796875 66 4.09375 56.3125 4.09375 47.34375 
C 4.09375 43.4375 7 42.9375 8.203125 42.9375 
C 9.203125 42.9375 12.203125 43.546875 12.203125 47.03125 
C 12.203125 50.109375 9.59375 51 8.203125 51 
C 7.59375 51 7 50.90625 6.59375 50.703125 
C 8.5 59.21875 14.296875 63.40625 20.40625 63.40625 
C 29.09375 63.40625 34.796875 56.515625 34.796875 47.421875 
C 34.796875 38.734375 29.703125 31.25 24 24.75 
L 4.09375 2.28125 
L 4.09375 0 
L 39.296875 0 
z
" id="CMR17-50"/>
     </defs>
     <use transform="scale(0.996264)" xlink:href="#CMMI12-79"/>
     <use transform="translate(77.260399 47.87587)scale(0.697382)" xlink:href="#CMMI12-13"/>
     <use transform="translate(74.550681 -26.578082)scale(0.697382)" xlink:href="#CMSY10-0"/>
     <use transform="translate(128.791674 -26.578082)scale(0.697382)" xlink:href="#CMR17-48"/>
     <use transform="translate(160.774856 -26.578082)scale(0.697382)" xlink:href="#CMMI12-58"/>
     <use transform="translate(179.742789 -26.578082)scale(0.697382)" xlink:href="#CMR17-50"/>
    </g>
   </g>
   <g id="text_3">
    <!-- $O^\gamma_{-0.1}$ -->
    <g transform="translate(491.203703 155.911495)scale(0.18 -0.18)">
     <defs>
      <path d="M 26.59375 63.40625 
C 26.59375 65.5 26.5 65.5 25.09375 65.5 
C 21.203125 61.1875 15.296875 59.796875 9.703125 59.796875 
C 9.40625 59.796875 8.90625 59.796875 8.796875 59.5 
C 8.703125 59.296875 8.703125 59.09375 8.703125 57 
C 11.796875 57 17 57.59375 21 59.984375 
L 21 7.203125 
C 21 3.6875 20.796875 2.5 12.203125 2.5 
L 9.203125 2.5 
L 9.203125 0 
C 14 0 19 0 23.796875 0 
C 28.59375 0 33.59375 0 38.40625 0 
L 38.40625 2.5 
L 35.40625 2.5 
C 26.796875 2.5 26.59375 3.59375 26.59375 7.15625 
z
" id="CMR17-49"/>
     </defs>
     <use transform="scale(0.996264)" xlink:href="#CMMI12-79"/>
     <use transform="translate(77.260399 47.87587)scale(0.697382)" xlink:href="#CMMI12-13"/>
     <use transform="translate(74.550681 -26.578082)scale(0.697382)" xlink:href="#CMSY10-0"/>
     <use transform="translate(128.791674 -26.578082)scale(0.697382)" xlink:href="#CMR17-48"/>
     <use transform="translate(160.774856 -26.578082)scale(0.697382)" xlink:href="#CMMI12-58"/>
     <use transform="translate(179.742789 -26.578082)scale(0.697382)" xlink:href="#CMR17-49"/>
    </g>
   </g>
   <g id="text_4">
    <!-- $O^\gamma_{0.1}$ -->
    <g transform="translate(502.653765 84.592942)scale(0.18 -0.18)">
     <use transform="scale(0.996264)" xlink:href="#CMMI12-79"/>
     <use transform="translate(77.260399 47.87587)scale(0.697382)" xlink:href="#CMMI12-13"/>
     <use transform="translate(74.550681 -26.578082)scale(0.697382)" xlink:href="#CMR17-48"/>
     <use transform="translate(106.533863 -26.578082)scale(0.697382)" xlink:href="#CMMI12-58"/>
     <use transform="translate(125.501796 -26.578082)scale(0.697382)" xlink:href="#CMR17-49"/>
    </g>
   </g>
   <g id="text_5">
    <!-- $O^\gamma_{0.2}$ -->
    <g transform="translate(508.378795 48.933665)scale(0.18 -0.18)">
     <use transform="scale(0.996264)" xlink:href="#CMMI12-79"/>
     <use transform="translate(77.260399 47.87587)scale(0.697382)" xlink:href="#CMMI12-13"/>
     <use transform="translate(74.550681 -26.578082)scale(0.697382)" xlink:href="#CMR17-48"/>
     <use transform="translate(106.533863 -26.578082)scale(0.697382)" xlink:href="#CMMI12-58"/>
     <use transform="translate(125.501796 -26.578082)scale(0.697382)" xlink:href="#CMR17-50"/>
    </g>
   </g>
  </g>
 </g>
 <defs>
  <clipPath id="p574f661979">
   <rect height="266.4" width="484.883012" x="45.558494" y="10.8"/>
  </clipPath>
 </defs>
</svg>
