<?xml version="1.0" encoding="utf-8" standalone="no"?>
<!DOCTYPE svg PUBLIC "-//W3C//DTD SVG 1.1//EN"
  "http://www.w3.org/Graphics/SVG/1.1/DTD/svg11.dtd">
<!-- Created with matplotlib (https://matplotlib.org/) -->
<svg height="194.4pt" version="1.1" viewBox="0 0 343.8 194.4" width="343.8pt" xmlns="http://www.w3.org/2000/svg" xmlns:xlink="http://www.w3.org/1999/xlink">
 <metadata>
  <rdf:RDF xmlns:cc="http://creativecommons.org/ns#" xmlns:dc="http://purl.org/dc/elements/1.1/" xmlns:rdf="http://www.w3.org/1999/02/22-rdf-syntax-ns#">
   <cc:Work>
    <dc:type rdf:resource="http://purl.org/dc/dcmitype/StillImage"/>
    <dc:date>2022-09-15T13:18:55.931102</dc:date>
    <dc:format>image/svg+xml</dc:format>
    <dc:creator>
     <cc:Agent>
      <dc:title>Matplotlib v3.3.3, https://matplotlib.org/</dc:title>
     </cc:Agent>
    </dc:creator>
   </cc:Work>
  </rdf:RDF>
 </metadata>
 <defs>
  <style type="text/css">*{stroke-linecap:butt;stroke-linejoin:round;}</style>
 </defs>
 <g id="figure_1">
  <g id="patch_1">
   <path d="M 0 194.4 
L 343.8 194.4 
L 343.8 0 
L 0 0 
z
" style="fill:#ffffff;"/>
  </g>
  <g id="axes_1">
   <g id="line2d_1">
    <path clip-path="url(#p73ffa5cc37)" d="M 31.178933 121.926796 
L 37.840525 124.063659 
L 44.785616 126.225621 
L 48.943867 127.283361 
L 52.439484 127.933976 
L 55.292316 128.251556 
L 58.082659 128.335923 
L 60.535915 128.1952 
L 62.931244 127.838287 
L 65.267105 127.259439 
L 67.543244 126.457705 
L 69.760699 125.436956 
L 71.921774 124.205798 
L 74.261171 122.607213 
L 76.766957 120.596667 
L 79.432264 118.148524 
L 82.473544 115.037667 
L 87.174471 109.857233 
L 92.107665 104.510694 
L 95.17934 101.513271 
L 97.880629 99.199419 
L 100.191782 97.495425 
L 102.565351 96.024368 
L 104.759568 94.916896 
L 107.011684 94.025509 
L 109.323257 93.356014 
L 111.694556 92.909423 
L 114.124562 92.681927 
L 116.610984 92.66498 
L 119.435536 92.877014 
L 122.61019 93.362719 
L 126.141871 94.147929 
L 130.330627 95.319511 
L 136.991712 97.454482 
L 143.937698 99.619789 
L 148.097164 100.682058 
L 151.594169 101.337856 
L 154.448364 101.660523 
L 157.240218 101.75053 
L 159.694929 101.615232 
L 162.091767 101.263955 
L 164.429162 100.69083 
L 166.706825 99.894784 
L 168.925761 98.879563 
L 171.088243 97.653654 
L 173.429078 96.060438 
L 175.936252 94.055068 
L 178.602787 91.611512 
L 181.645066 88.504382 
L 186.346507 83.325866 
L 191.278813 77.97601 
L 194.349277 74.97407 
L 197.049181 72.655046 
L 199.358973 70.945974 
L 201.731031 69.469282 
L 203.923795 68.356388 
L 206.174402 67.459367 
L 208.484442 66.784149 
L 210.854217 66.33187 
L 213.28274 66.098843 
L 215.767755 66.076642 
L 218.590866 66.283301 
L 221.764131 66.76382 
L 225.29458 67.544433 
L 229.482333 68.712271 
L 236.142897 70.845299 
L 243.089765 73.013896 
L 247.250437 74.080666 
L 250.748825 74.741627 
L 253.604379 75.069365 
L 256.397742 75.165002 
L 258.853904 75.035123 
L 261.252252 74.689478 
L 263.59118 74.122075 
L 265.870367 73.331718 
L 268.090786 72.322031 
L 270.254677 71.10138 
L 272.596954 69.513545 
L 275.10552 67.51337 
L 277.77329 65.074423 
L 280.816576 61.971052 
L 285.518545 56.794505 
L 289.154062 52.802569 
L 289.154062 52.802569 
" style="fill:none;stroke:#1f77b4;stroke-linecap:square;stroke-width:1.5;"/>
   </g>
   <g id="line2d_2">
    <path clip-path="url(#p73ffa5cc37)" d="M 15.627273 173.027862 
L 21.551002 174.93548 
L 28.945623 177.24959 
L 34.285023 178.701656 
L 39.264541 179.83178 
L 44.168205 180.705599 
L 48.827731 181.299586 
L 53.084631 181.631023 
L 57.562965 181.753887 
L 62.229249 181.627504 
L 66.227747 181.306179 
L 70.290062 180.771991 
L 74.377112 180.016256 
L 78.446889 179.038059 
L 82.456978 177.844803 
L 86.367238 176.451894 
L 90.142242 174.881602 
L 93.753125 173.161283 
L 97.840119 170.94168 
L 101.638384 168.603631 
L 105.140243 166.198663 
L 108.85687 163.36974 
L 112.643467 160.181254 
L 116.36716 156.737124 
L 120.239598 152.839989 
L 124.737806 147.976067 
L 131.199313 140.953178 
L 130.387563 141.556763 
L 128.628502 142.650126 
L 126.442824 143.732974 
L 124.042569 144.652794 
L 121.719329 145.313514 
L 119.388694 145.767381 
L 116.969029 146.021367 
L 114.590115 146.04184 
L 112.618411 145.83694 
L 112.534046 145.817089 
L 114.457784 146.324759 
L 119.738253 148.010447 
L 128.063329 150.633052 
L 133.385895 152.085282 
L 138.351004 153.21808 
L 143.241619 154.096678 
L 147.889948 154.697006 
L 152.137842 155.035621 
L 156.608192 155.16728 
L 161.268033 155.051182 
L 165.262716 154.739359 
L 169.322915 154.215242 
L 173.409734 153.469815 
L 177.48125 152.501787 
L 181.495004 151.318176 
L 185.410695 149.934039 
L 189.192633 148.371363 
L 192.81162 146.657314 
L 196.909376 144.44334 
L 200.718973 142.108869 
L 204.232223 139.705578 
L 207.961708 136.876526 
L 211.761974 133.685653 
L 215.499461 130.236659 
L 219.38654 126.331306 
L 223.902749 121.452246 
L 230.420118 114.367542 
L 229.632775 114.953776 
L 227.892822 116.039765 
L 225.720896 117.121738 
L 223.328969 118.044877 
L 221.008484 118.710951 
L 218.675638 119.171139 
L 216.247877 119.431704 
L 213.852937 119.457411 
L 211.848391 119.252428 
L 211.754714 119.230934 
L 213.478084 119.679476 
L 218.283351 121.202435 
L 227.18138 124.016541 
L 232.48713 125.468872 
L 237.437841 126.604278 
L 242.315409 127.487583 
L 246.952526 128.094183 
L 251.191384 128.439913 
L 255.653701 128.580307 
L 260.307029 128.474441 
L 264.297826 128.172085 
L 268.355825 127.658021 
L 272.442324 126.922899 
L 276.515486 125.965054 
L 280.53282 124.79112 
L 284.453866 123.415802 
L 288.242676 121.8608 
L 291.869719 120.153088 
L 295.978205 117.944822 
L 299.799122 115.614005 
L 303.323769 113.212461 
L 307.066134 110.383349 
L 310.880106 107.19015 
L 314.631429 103.736343 
L 318.533196 99.822816 
L 323.067451 94.928666 
L 328.172727 89.281559 
L 328.172727 89.281559 
" style="fill:none;stroke:#ff7f0e;stroke-linecap:square;stroke-width:1.5;"/>
   </g>
   <g id="line2d_3">
    <path clip-path="url(#p73ffa5cc37)" d="M 46.730593 70.825731 
L 54.170909 73.205095 
L 60.183962 75.059082 
L 60.384339 75.110023 
L 59.605195 75.013703 
L 57.496797 74.923705 
L 55.110535 75.055651 
L 52.594057 75.432302 
L 50.251378 75.998522 
L 47.987301 76.753684 
L 45.725897 77.736697 
L 43.592545 78.92108 
L 41.959874 80.078179 
L 41.787452 80.229426 
L 42.872549 79.170441 
L 45.918835 75.857301 
L 52.865602 68.255899 
L 56.756289 64.332805 
L 60.496703 60.866768 
L 64.299641 57.659371 
L 68.031479 54.815246 
L 71.54665 52.398897 
L 75.357914 50.051505 
L 79.456869 47.824961 
L 83.076311 46.100819 
L 86.858046 44.528443 
L 90.772736 43.134992 
L 94.784586 41.942405 
L 98.853241 40.965656 
L 102.936249 40.211665 
L 106.991754 39.679046 
L 110.98098 39.358708 
L 115.633484 39.232322 
L 120.09592 39.353625 
L 124.33562 39.681892 
L 128.974377 40.270348 
L 133.854424 41.135985 
L 138.80849 42.255508 
L 144.119079 43.694214 
L 150.45818 45.659452 
L 159.605108 48.5235 
L 158.615225 48.408054 
L 156.55526 48.339108 
L 154.127141 48.491106 
L 151.591306 48.891125 
L 149.248798 49.477541 
L 147.000922 50.247623 
L 144.773274 51.236685 
L 142.694582 52.410167 
L 141.075289 53.581731 
L 141.008534 53.644147 
L 142.407151 52.257066 
L 145.911146 48.41051 
L 152.012465 41.747546 
L 155.888515 37.83275 
L 159.615135 34.371627 
L 163.404401 31.166647 
L 167.123383 28.322662 
L 170.627168 25.904636 
L 174.427114 23.553657 
L 178.515329 21.321468 
L 182.126694 19.591037 
L 185.90153 18.011026 
L 189.810827 16.608787 
L 193.819055 15.406541 
L 197.886016 14.419613 
L 201.969298 13.655309 
L 206.026958 13.112618 
L 210.02003 12.782781 
L 214.679005 12.646113 
L 219.149443 12.758621 
L 223.398155 13.079709 
L 228.048104 13.661812 
L 232.941183 14.522646 
L 237.909632 15.639452 
L 243.237019 17.077923 
L 249.599285 19.047239 
L 258.826101 21.93787 
L 257.865383 21.824316 
L 255.82569 21.75225 
L 253.409982 21.898161 
L 250.879778 22.291149 
L 248.53705 22.871538 
L 246.284163 23.637218 
L 244.046265 24.624581 
L 241.951107 25.80148 
L 240.337323 26.960278 
L 240.229393 27.057953 
L 241.373026 25.937768 
L 244.467628 22.566233 
L 250.135396 16.323578 
L 250.135396 16.323578 
" style="fill:none;stroke:#9467bd;stroke-linecap:square;stroke-width:1.5;"/>
   </g>
   <g id="line2d_4">
    <defs>
     <path d="M 0 3 
C 0.795609 3 1.55874 2.683901 2.12132 2.12132 
C 2.683901 1.55874 3 0.795609 3 0 
C 3 -0.795609 2.683901 -1.55874 2.12132 -2.12132 
C 1.55874 -2.683901 0.795609 -3 0 -3 
C -0.795609 -3 -1.55874 -2.683901 -2.12132 -2.12132 
C -2.683901 -1.55874 -3 -0.795609 -3 0 
C -3 0.795609 -2.683901 1.55874 -2.12132 2.12132 
C -1.55874 2.683901 -0.795609 3 0 3 
z
" id="m230a4e3c5a" style="stroke:#ff0000;stroke-opacity:0.5;"/>
    </defs>
    <g clip-path="url(#p73ffa5cc37)">
     <use style="fill:#ff0000;fill-opacity:0.5;stroke:#ff0000;stroke-opacity:0.5;" x="123.577953" xlink:href="#m230a4e3c5a" y="149.256782"/>
     <use style="fill:#ff0000;fill-opacity:0.5;stroke:#ff0000;stroke-opacity:0.5;" x="222.799158" xlink:href="#m230a4e3c5a" y="122.670539"/>
    </g>
   </g>
   <g id="line2d_5">
    <g clip-path="url(#p73ffa5cc37)">
     <use style="fill:#ff0000;fill-opacity:0.5;stroke:#ff0000;stroke-opacity:0.5;" x="49.632083" xlink:href="#m230a4e3c5a" y="71.729441"/>
     <use style="fill:#ff0000;fill-opacity:0.5;stroke:#ff0000;stroke-opacity:0.5;" x="148.853285" xlink:href="#m230a4e3c5a" y="45.143199"/>
     <use style="fill:#ff0000;fill-opacity:0.5;stroke:#ff0000;stroke-opacity:0.5;" x="248.07449" xlink:href="#m230a4e3c5a" y="18.556958"/>
    </g>
   </g>
   <g id="line2d_6">
    <path clip-path="url(#p73ffa5cc37)" d="M 23.403103 147.477329 
L 29.847454 149.549221 
L 37.171514 151.826711 
L 41.970876 153.085103 
L 46.325806 153.99272 
L 50.045363 154.560565 
L 53.966665 154.930004 
L 57.546423 155.046341 
L 61.237357 154.931769 
L 64.460201 154.626771 
L 67.704995 154.117109 
L 70.93635 153.397768 
L 74.117518 152.472639 
L 77.213677 151.354463 
L 80.194974 150.06352 
L 83.498133 148.373373 
L 86.592216 146.527918 
L 89.469233 144.571997 
L 92.496255 142.254057 
L 95.590243 139.603727 
L 98.972869 136.38839 
L 102.739706 132.46418 
L 113.52366 120.931575 
L 115.218625 119.573282 
L 115.601196 119.324935 
L 115.325587 119.375228 
L 115.251307 119.374837 
L 116.215965 119.391348 
L 118.01413 119.676956 
L 120.754151 120.347599 
L 125.151562 121.683753 
L 137.459773 125.540555 
L 141.938748 126.671639 
L 145.895597 127.468188 
L 149.635072 128.019354 
L 153.574884 128.36676 
L 157.168387 128.459414 
L 160.869376 128.317484 
L 164.09689 127.986814 
L 167.341998 127.450371 
L 170.568965 126.704237 
L 173.741103 125.753471 
L 176.824071 124.611875 
L 179.788833 123.30055 
L 183.069829 121.591102 
L 186.140214 119.731356 
L 189.383435 117.478928 
L 192.350807 115.148448 
L 195.38364 112.496392 
L 198.701272 109.293145 
L 202.399335 105.402344 
L 212.367498 94.687948 
L 214.146286 93.194596 
L 214.821746 92.737829 
L 214.522087 92.791128 
L 214.472445 92.78892 
L 215.695756 92.833485 
L 217.672612 93.183416 
L 220.576991 93.930678 
L 225.43229 95.440885 
L 235.819526 98.712863 
L 240.639452 99.965666 
L 245.01202 100.863577 
L 248.745527 101.419799 
L 252.679808 101.773869 
L 256.269223 101.873675 
L 259.967246 101.73999 
L 263.193413 101.417043 
L 266.438489 100.888642 
L 269.666836 100.150538 
L 272.841744 99.20744 
L 275.92872 98.072833 
L 278.898481 96.767579 
L 282.186153 95.063863 
L 285.263656 93.208347 
L 288.515019 90.959022 
L 291.490117 88.630034 
L 294.530849 85.978073 
L 297.856862 82.773122 
L 301.563798 78.877831 
L 308.663394 71.042064 
L 308.663394 71.042064 
" style="fill:none;stroke:#2ca02c;stroke-linecap:square;stroke-width:1.5;"/>
   </g>
   <g id="line2d_7">
    <path clip-path="url(#p73ffa5cc37)" d="M 38.954763 96.376263 
L 46.148758 98.681253 
L 52.439361 100.634061 
L 55.525908 101.374394 
L 57.477497 101.629857 
L 57.689999 101.63971 
L 57.424528 101.734515 
L 57.362121 101.771391 
L 58.197388 101.268738 
L 59.617011 100.116334 
L 61.659017 98.159313 
L 64.803767 94.796849 
L 73.262466 85.581776 
L 76.86249 82.074202 
L 79.894885 79.405953 
L 82.861636 77.059605 
L 86.103975 74.790359 
L 89.173268 72.915459 
L 92.452721 71.190727 
L 95.415666 69.866361 
L 98.496242 68.711867 
L 101.665335 67.748384 
L 104.888568 66.989718 
L 108.129286 66.440912 
L 111.351843 66.098042 
L 115.046519 65.942109 
L 118.633387 66.0211 
L 122.565556 66.353511 
L 126.297639 66.890642 
L 130.246782 67.672971 
L 134.717506 68.789589 
L 139.860561 70.310346 
L 153.829042 74.596835 
L 156.106788 74.997544 
L 156.911035 75.053169 
L 156.623506 75.158718 
L 156.583047 75.184928 
L 157.629348 74.527595 
L 159.171428 73.23001 
L 161.317329 71.124519 
L 164.771783 67.382272 
L 171.864176 59.633099 
L 175.378193 56.147231 
L 178.683002 53.184132 
L 181.608857 50.830719 
L 184.807941 48.545884 
L 187.839229 46.649294 
L 191.082808 44.89483 
L 194.018665 43.538735 
L 197.077268 42.34747 
L 200.230873 41.343411 
L 203.445963 40.542022 
L 206.686081 39.950202 
L 209.915114 39.56582 
L 213.624939 39.36533 
L 217.233127 39.405459 
L 220.709725 39.651604 
L 224.498994 40.137215 
L 228.513826 40.878883 
L 233.063171 41.967493 
L 237.948145 43.371934 
L 245.889073 45.932209 
L 251.395743 47.601313 
L 254.294833 48.26165 
L 256.132311 48.467981 
L 256.062673 48.474892 
L 257.085145 47.761148 
L 258.7464 46.315792 
L 261.161469 43.886009 
L 265.194895 39.455157 
L 269.644729 34.563073 
L 269.644729 34.563073 
" style="fill:none;stroke:#d62728;stroke-linecap:square;stroke-width:1.5;"/>
   </g>
  </g>
  <g id="axes_2">
   <g id="line2d_8">
    <path clip-path="url(#p4a015bb5b0)" d="M 0 0 
" style="fill:none;stroke:#1f77b4;stroke-linecap:square;stroke-width:1.5;"/>
   </g>
   <g id="line2d_9">
    <path clip-path="url(#p4a015bb5b0)" d="M 0 0 
" style="fill:none;stroke:#ff7f0e;stroke-linecap:square;stroke-width:1.5;"/>
   </g>
   <g id="line2d_10">
    <path clip-path="url(#p4a015bb5b0)" d="M 0 0 
" style="fill:none;stroke:#9467bd;stroke-linecap:square;stroke-width:1.5;"/>
   </g>
   <g id="line2d_11">
    <path clip-path="url(#p4a015bb5b0)" d="M 0 0 
" style="fill:none;stroke:#2ca02c;stroke-linecap:square;stroke-width:1.5;"/>
   </g>
   <g id="line2d_12">
    <path clip-path="url(#p4a015bb5b0)" d="M 0 0 
" style="fill:none;stroke:#d62728;stroke-linecap:square;stroke-width:1.5;"/>
   </g>
  </g>
 </g>
 <defs>
  <clipPath id="p73ffa5cc37">
   <rect height="186.018551" width="343.8" x="-0" y="4.190725"/>
  </clipPath>
  <clipPath id="p4a015bb5b0">
   <rect height="186.018631" width="343.8" x="354.6" y="4.190685"/>
  </clipPath>
 </defs>
</svg>
