<?xml version="1.0" encoding="utf-8" standalone="no"?>
<!DOCTYPE svg PUBLIC "-//W3C//DTD SVG 1.1//EN"
  "http://www.w3.org/Graphics/SVG/1.1/DTD/svg11.dtd">
<svg xmlns:xlink="http://www.w3.org/1999/xlink" width="288pt" height="576pt" viewBox="0 0 288 576" xmlns="http://www.w3.org/2000/svg" version="1.1">
 <metadata>
  <rdf:RDF xmlns:dc="http://purl.org/dc/elements/1.1/" xmlns:cc="http://creativecommons.org/ns#" xmlns:rdf="http://www.w3.org/1999/02/22-rdf-syntax-ns#">
   <cc:Work>
    <dc:type rdf:resource="http://purl.org/dc/dcmitype/StillImage"/>
    <dc:date>2023-03-06T15:14:42.192926</dc:date>
    <dc:format>image/svg+xml</dc:format>
    <dc:creator>
     <cc:Agent>
      <dc:title>Matplotlib v3.5.3, https://matplotlib.org/</dc:title>
     </cc:Agent>
    </dc:creator>
   </cc:Work>
  </rdf:RDF>
 </metadata>
 <defs>
  <style type="text/css">*{stroke-linejoin: round; stroke-linecap: butt}</style>
 </defs>
 <g id="figure_1">
  <g id="patch_1">
   <path d="M 0 576 
L 288 576 
L 288 0 
L 0 0 
z
" style="fill: #ffffff"/>
  </g>
  <g id="axes_1">
   <g id="line2d_1">
    <path d="M 85.696061 533.000829 
L 84.923601 528.767227 
L 83.821455 523.941957 
L 82.215879 517.975138 
L 79.585373 509.217051 
L 76.141496 497.724383 
L 74.585238 491.770779 
L 73.538626 486.960389 
L 72.825855 482.742781 
L 72.352209 478.589245 
L 72.156292 475.013454 
L 72.180959 471.496769 
L 72.438746 468.042548 
L 72.938773 464.653235 
L 73.686616 461.330325 
L 74.684222 458.074338 
L 75.929881 454.884816 
L 77.418251 451.760329 
L 79.140438 448.698493 
L 81.084123 445.696007 
L 83.556599 442.331882 
L 86.269934 439.032296 
L 89.569559 435.386477 
L 93.480856 431.401228 
L 98.823951 426.289644 
L 111.687576 414.13328 
L 115.555067 410.136293 
L 118.802993 406.476622 
L 121.461652 403.162384 
L 123.872324 399.781699 
L 125.757011 396.763405 
L 127.41651 393.684772 
L 128.839421 390.542745 
L 130.017807 387.335198 
L 130.947311 384.060963 
L 131.627221 380.71985 
L 132.060479 377.312646 
L 132.253636 373.841108 
L 132.216762 370.307932 
L 131.963291 366.71672 
L 131.429829 362.547157 
L 130.664694 358.315517 
L 129.569316 353.492061 
L 127.969674 347.526832 
L 125.511836 339.318339 
L 121.74239 326.73178 
L 120.203506 320.782831 
L 119.176099 315.977587 
L 118.483773 311.765457 
L 118.033341 307.618141 
L 117.859662 304.048309 
L 117.908023 300.537973 
L 118.190613 297.090398 
L 118.71619 293.707931 
L 119.489954 290.391966 
L 120.513474 287.142922 
L 121.784659 283.960241 
L 123.297796 280.84239 
L 125.043626 277.786889 
L 127.009486 274.790345 
L 129.505089 271.432417 
L 132.238768 268.138282 
L 135.557469 264.497574 
L 139.484696 260.516594 
L 145.258327 255.017044 
L 156.890846 244.040789 
L 161.164213 239.649228 
L 164.419668 235.991575 
L 167.086249 232.67946 
L 169.505846 229.301167 
L 171.39903 226.285149 
L 173.067538 223.20893 
L 174.499838 220.069419 
L 175.687856 216.864452 
L 176.627094 213.592826 
L 177.316697 210.254309 
L 177.759465 206.849654 
L 177.961811 203.380578 
L 177.933668 199.849742 
L 177.688345 196.260713 
L 177.163327 192.093413 
L 176.405555 187.863746 
L 175.316997 183.042117 
L 173.723354 177.078496 
L 171.269213 168.870993 
L 167.495009 156.283159 
L 165.949556 150.33245 
L 164.914906 145.525266 
L 164.214882 141.311072 
L 163.755717 137.161417 
L 163.573679 133.589345 
L 163.61314 130.076624 
L 163.886417 126.626554 
L 164.402406 123.241518 
L 165.166447 119.922947 
L 166.180252 116.671301 
L 167.441872 113.486056 
L 168.945733 110.365719 
L 170.682712 107.307847 
L 172.640277 104.30908 
L 175.127235 100.948836 
L 177.853316 97.652665 
L 181.164904 94.010052 
L 185.086207 90.027483 
L 190.855355 84.526733 
L 202.892858 73.155665 
L 207.14753 68.759095 
L 210.382805 65.096034 
L 211.402184 63.859192 
L 211.402184 63.859192 
" clip-path="url(#p9ec6644d6e)" style="fill: none; stroke: #1f77b4; stroke-width: 1.5; stroke-linecap: square"/>
   </g>
   <g id="line2d_2">
    <path d="M 129.291526 526.001658 
L 128.305071 520.526613 
L 126.995815 514.615884 
L 125.388169 508.401589 
L 123.189232 500.818011 
L 117.909211 483.033255 
L 116.909515 478.682776 
L 116.419574 475.598398 
L 116.291248 473.455178 
L 116.407287 472.512376 
L 116.946646 471.505145 
L 118.149449 469.775479 
L 120.015325 467.514329 
L 122.6643 464.667135 
L 126.41569 460.965408 
L 133.94139 453.927739 
L 141.420658 446.825888 
L 146.437959 441.746479 
L 150.55065 437.2653 
L 154.162875 433.000929 
L 157.225772 429.067495 
L 160.215485 424.861745 
L 162.618085 421.142965 
L 164.909129 417.229916 
L 167.058306 413.129076 
L 169.035345 408.853833 
L 170.811791 404.424876 
L 172.363018 399.869818 
L 173.670165 395.221989 
L 174.721651 390.518475 
L 175.513989 385.797681 
L 176.051763 381.096804 
L 176.346797 376.449621 
L 176.416747 371.884894 
L 176.283397 367.425533 
L 175.889181 362.236864 
L 175.280507 357.243095 
L 174.356102 351.676176 
L 173.261143 346.392503 
L 171.694352 340.011655 
L 169.679441 332.829938 
L 165.768596 319.996076 
L 163.747819 312.926708 
L 162.694816 308.457075 
L 162.159624 305.246133 
L 162.001716 303.032702 
L 162.113353 301.927928 
L 162.639529 300.938303 
L 163.824216 299.226569 
L 165.670944 296.980798 
L 168.300556 294.147322 
L 172.032381 290.459069 
L 179.096713 283.847472 
L 186.998068 276.360047 
L 192.010169 271.295426 
L 196.121114 266.827771 
L 199.733908 262.576509 
L 202.799128 258.655146 
L 205.793123 254.462008 
L 208.200958 250.753887 
L 210.49886 246.851327 
L 212.656564 242.76045 
L 214.643751 238.494253 
L 216.431817 234.073027 
L 217.995876 229.524032 
L 219.316706 224.880331 
L 220.382301 220.178864 
L 221.188728 215.458032 
L 221.740142 210.755159 
L 222.048007 206.104255 
L 222.129702 201.534384 
L 222.006831 197.068786 
L 221.623398 191.871632 
L 221.023534 186.86873 
L 220.107021 181.29081 
L 219.017592 175.996111 
L 217.454832 169.601323 
L 215.440804 162.40293 
L 211.823851 150.532231 
L 209.591624 142.831198 
L 208.485181 138.243505 
L 207.903406 134.906267 
L 207.713907 132.547145 
L 207.802597 131.385307 
L 208.269469 130.476547 
L 209.370951 128.848541 
L 211.12875 126.675044 
L 213.667798 123.906113 
L 217.307648 120.281089 
L 223.830289 114.158106 
L 232.499694 105.968027 
L 237.469677 100.961752 
L 241.55215 96.546684 
L 245.145573 92.346068 
L 245.657378 91.718384 
L 245.657378 91.718384 
" clip-path="url(#p9ec6644d6e)" style="fill: none; stroke: #ff7f0e; stroke-width: 1.5; stroke-linecap: square"/>
   </g>
   <g id="line2d_3">
    <path d="M 42.100597 540 
L 41.492802 536.805786 
L 40.490061 532.732255 
L 38.813456 526.881824 
L 32.692709 506.210404 
L 31.117914 499.78229 
L 30.020182 494.460314 
L 29.097135 488.854401 
L 28.493651 483.827571 
L 28.108828 478.607381 
L 27.986646 474.124004 
L 28.070671 469.538361 
L 28.38229 464.874388 
L 28.938483 460.161788 
L 29.750145 455.435069 
L 30.820746 450.731838 
L 32.145632 446.090504 
L 33.712126 441.547744 
L 35.500478 437.136118 
L 37.485467 432.882211 
L 39.638373 428.805568 
L 41.928966 424.918446 
L 44.817255 420.511344 
L 47.811794 416.383393 
L 50.868573 412.524426 
L 54.46231 408.340998 
L 58.542074 403.943625 
L 63.504778 398.956702 
L 70.00206 392.792815 
L 80.469989 382.908046 
L 83.811881 379.424259 
L 86.073726 376.751985 
L 87.452929 374.795562 
L 88.056497 373.613079 
L 88.113611 372.559588 
L 87.975784 370.607061 
L 87.543114 367.853517 
L 86.731988 364.19329 
L 85.395754 359.241239 
L 82.811506 350.684348 
L 79.371881 339.16634 
L 77.559891 332.294725 
L 76.226685 326.386921 
L 75.214297 320.913585 
L 74.509824 315.997387 
L 74.000307 310.880782 
L 73.756087 306.474424 
L 73.702519 301.953389 
L 73.862936 297.337676 
L 74.2574 292.653275 
L 74.900968 287.931696 
L 75.802094 283.208747 
L 76.961483 278.52259 
L 78.371652 273.911325 
L 80.017337 269.410456 
L 81.87669 265.050651 
L 83.923051 260.856144 
L 86.126961 256.843947 
L 88.458089 253.023885 
L 91.381783 248.697732 
L 94.398513 244.648563 
L 97.979281 240.25817 
L 101.570953 236.201051 
L 105.626106 231.933397 
L 110.529635 227.088386 
L 117.747106 220.306449 
L 125.797505 212.691833 
L 129.243614 209.134322 
L 131.610411 206.377768 
L 133.090628 204.316881 
L 133.766086 203.026279 
L 133.825237 201.994792 
L 133.693593 200.06655 
L 133.269526 197.335992 
L 132.468262 193.697578 
L 131.142413 188.76727 
L 128.569282 180.238013 
L 125.133666 168.748918 
L 123.319025 161.892686 
L 121.980793 155.997452 
L 120.961577 150.53519 
L 120.249259 145.628317 
L 119.72994 140.520566 
L 119.447185 135.226578 
L 119.423351 130.690386 
L 119.616664 126.062928 
L 120.046566 121.371041 
L 120.727245 116.646958 
L 121.666086 111.926962 
L 122.862611 107.249364 
L 124.308159 102.652043 
L 125.986416 98.169925 
L 127.874715 93.832825 
L 129.945864 89.663952 
L 132.170162 85.679256 
L 134.517294 81.88756 
L 137.454706 77.595392 
L 140.479718 73.579098 
L 144.064162 69.224688 
L 147.654003 65.200466 
L 152.200131 60.46257 
L 157.53341 55.255424 
L 167.365718 46.070177 
L 172.703378 40.89943 
L 175.680676 37.732055 
L 177.14699 36 
L 177.14699 36 
" clip-path="url(#p9ec6644d6e)" style="fill: none; stroke: #2ca02c; stroke-width: 1.5; stroke-linecap: square"/>
   </g>
   <g id="text_1">
    <!-- $\gamma$ -->
    <g transform="translate(211.402184 76.312492)scale(0.18 -0.18)">
     <defs>
      <path id="CMMI12-d" d="M 2419 760 
C 2406 1071 2394 1561 2150 2133 
C 2022 2452 1805 2788 1338 2788 
C 550 2788 122 1790 122 1625 
C 122 1567 166 1567 186 1567 
C 243 1567 243 1580 275 1663 
C 410 2057 819 2368 1261 2368 
C 2150 2368 2278 1383 2278 754 
C 2278 352 2234 220 2195 92 
C 2074 -302 1862 -1090 1862 -1268 
C 1862 -1319 1882 -1376 1933 -1376 
C 2029 -1376 2086 -1166 2157 -912 
C 2310 -353 2349 -73 2381 181 
C 2400 334 2765 1384 3270 2382 
C 3315 2483 3405 2655 3405 2674 
C 3405 2680 3398 2725 3341 2725 
C 3328 2725 3296 2725 3283 2699 
C 3270 2687 3046 2254 2854 1822 
C 2758 1606 2630 1320 2419 760 
z
" transform="scale(0.015625)"/>
     </defs>
     <use xlink:href="#CMMI12-d" transform="scale(0.996264)"/>
    </g>
   </g>
   <g id="text_2">
    <!-- $O^\gamma_{-0.1}$ -->
    <g transform="translate(245.657378 105.740721)scale(0.18 -0.18)">
     <defs>
      <path id="CMMI12-4f" d="M 4646 2797 
C 4646 3848 3955 4492 3059 4492 
C 1690 4492 307 3026 307 1554 
C 307 554 973 -128 1901 -128 
C 3245 -128 4646 1268 4646 2797 
z
M 1939 19 
C 1414 19 858 401 858 1395 
C 858 1974 1069 2924 1594 3562 
C 2061 4123 2598 4352 3027 4352 
C 3590 4352 4134 3944 4134 3026 
C 4134 2459 3891 1573 3462 968 
C 2995 318 2413 19 1939 19 
z
" transform="scale(0.015625)"/>
      <path id="CMSY10-0" d="M 4218 1472 
C 4326 1472 4442 1472 4442 1600 
C 4442 1728 4326 1728 4218 1728 
L 755 1728 
C 646 1728 531 1728 531 1600 
C 531 1472 646 1472 755 1472 
L 4218 1472 
z
" transform="scale(0.015625)"/>
      <path id="CMR17-30" d="M 2688 2025 
C 2688 2416 2682 3080 2413 3591 
C 2176 4039 1798 4198 1466 4198 
C 1158 4198 768 4058 525 3597 
C 269 3118 243 2524 243 2025 
C 243 1661 250 1106 448 619 
C 723 -39 1216 -128 1466 -128 
C 1760 -128 2208 -7 2470 600 
C 2662 1042 2688 1559 2688 2025 
z
M 1466 -26 
C 1056 -26 813 325 723 812 
C 653 1188 653 1738 653 2096 
C 653 2588 653 2997 736 3387 
C 858 3929 1216 4096 1466 4096 
C 1728 4096 2067 3923 2189 3400 
C 2272 3036 2278 2607 2278 2096 
C 2278 1680 2278 1169 2202 792 
C 2067 95 1690 -26 1466 -26 
z
" transform="scale(0.015625)"/>
      <path id="CMMI12-3a" d="M 1178 307 
C 1178 492 1024 619 870 619 
C 685 619 557 466 557 313 
C 557 128 710 0 864 0 
C 1050 0 1178 153 1178 307 
z
" transform="scale(0.015625)"/>
      <path id="CMR17-31" d="M 1702 4058 
C 1702 4192 1696 4192 1606 4192 
C 1357 3916 979 3827 621 3827 
C 602 3827 570 3827 563 3808 
C 557 3795 557 3782 557 3648 
C 755 3648 1088 3686 1344 3839 
L 1344 461 
C 1344 236 1331 160 781 160 
L 589 160 
L 589 0 
C 896 0 1216 0 1523 0 
C 1830 0 2150 0 2458 0 
L 2458 160 
L 2266 160 
C 1715 160 1702 230 1702 458 
L 1702 4058 
z
" transform="scale(0.015625)"/>
     </defs>
     <use xlink:href="#CMMI12-4f" transform="scale(0.996264)"/>
     <use xlink:href="#CMMI12-d" transform="translate(77.260399 47.87587)scale(0.697382)"/>
     <use xlink:href="#CMSY10-0" transform="translate(74.550681 -26.578082)scale(0.697382)"/>
     <use xlink:href="#CMR17-30" transform="translate(128.791674 -26.578082)scale(0.697382)"/>
     <use xlink:href="#CMMI12-3a" transform="translate(160.774856 -26.578082)scale(0.697382)"/>
     <use xlink:href="#CMR17-31" transform="translate(179.742789 -26.578082)scale(0.697382)"/>
    </g>
   </g>
   <g id="text_3">
    <!-- $O^\gamma_{0.1}$ -->
    <g transform="translate(177.14699 50.022337)scale(0.18 -0.18)">
     <use xlink:href="#CMMI12-4f" transform="scale(0.996264)"/>
     <use xlink:href="#CMMI12-d" transform="translate(77.260399 47.87587)scale(0.697382)"/>
     <use xlink:href="#CMR17-30" transform="translate(74.550681 -26.578082)scale(0.697382)"/>
     <use xlink:href="#CMMI12-3a" transform="translate(106.533863 -26.578082)scale(0.697382)"/>
     <use xlink:href="#CMR17-31" transform="translate(125.501796 -26.578082)scale(0.697382)"/>
    </g>
   </g>
  </g>
 </g>
 <defs>
  <clipPath id="p9ec6644d6e">
   <rect x="17.102663" y="10.8" width="239.438273" height="554.4"/>
  </clipPath>
 </defs>
</svg>
