<?xml version="1.0" encoding="utf-8" standalone="no"?>
<!DOCTYPE svg PUBLIC "-//W3C//DTD SVG 1.1//EN"
  "http://www.w3.org/Graphics/SVG/1.1/DTD/svg11.dtd">
<!-- Created with matplotlib (https://matplotlib.org/) -->
<svg height="194.4pt" version="1.1" viewBox="0 0 343.8 194.4" width="343.8pt" xmlns="http://www.w3.org/2000/svg" xmlns:xlink="http://www.w3.org/1999/xlink">
 <metadata>
  <rdf:RDF xmlns:cc="http://creativecommons.org/ns#" xmlns:dc="http://purl.org/dc/elements/1.1/" xmlns:rdf="http://www.w3.org/1999/02/22-rdf-syntax-ns#">
   <cc:Work>
    <dc:type rdf:resource="http://purl.org/dc/dcmitype/StillImage"/>
    <dc:date>2022-09-15T13:18:55.936103</dc:date>
    <dc:format>image/svg+xml</dc:format>
    <dc:creator>
     <cc:Agent>
      <dc:title>Matplotlib v3.3.3, https://matplotlib.org/</dc:title>
     </cc:Agent>
    </dc:creator>
   </cc:Work>
  </rdf:RDF>
 </metadata>
 <defs>
  <style type="text/css">*{stroke-linecap:butt;stroke-linejoin:round;}</style>
 </defs>
 <g id="figure_1">
  <g id="patch_1">
   <path d="M 0 194.4 
L 343.8 194.4 
L 343.8 0 
L 0 0 
z
" style="fill:#ffffff;"/>
  </g>
  <g id="axes_1">
   <g id="line2d_1">
    <path clip-path="url(#pfa22e3ec7d)" d="M 0 0 
" style="fill:none;stroke:#1f77b4;stroke-linecap:square;stroke-width:1.5;"/>
   </g>
   <g id="line2d_2">
    <path clip-path="url(#pfa22e3ec7d)" d="M 0 0 
" style="fill:none;stroke:#ff7f0e;stroke-linecap:square;stroke-width:1.5;"/>
   </g>
   <g id="line2d_3">
    <path clip-path="url(#pfa22e3ec7d)" d="M 0 0 
" style="fill:none;stroke:#9467bd;stroke-linecap:square;stroke-width:1.5;"/>
   </g>
   <g id="line2d_4">
    <defs>
     <path d="M 0 3 
C 0.795609 3 1.55874 2.683901 2.12132 2.12132 
C 2.683901 1.55874 3 0.795609 3 0 
C 3 -0.795609 2.683901 -1.55874 2.12132 -2.12132 
C 1.55874 -2.683901 0.795609 -3 0 -3 
C -0.795609 -3 -1.55874 -2.683901 -2.12132 -2.12132 
C -2.683901 -1.55874 -3 -0.795609 -3 0 
C -3 0.795609 -2.683901 1.55874 -2.12132 2.12132 
C -1.55874 2.683901 -0.795609 3 0 3 
z
" id="me6fa927880" style="stroke:#ff0000;stroke-opacity:0.5;"/>
    </defs>
    <g clip-path="url(#pfa22e3ec7d)"/>
   </g>
   <g id="line2d_5">
    <g clip-path="url(#pfa22e3ec7d)"/>
   </g>
   <g id="line2d_6">
    <path clip-path="url(#pfa22e3ec7d)" d="M 0 0 
" style="fill:none;stroke:#2ca02c;stroke-linecap:square;stroke-width:1.5;"/>
   </g>
   <g id="line2d_7">
    <path clip-path="url(#pfa22e3ec7d)" d="M 0 0 
" style="fill:none;stroke:#d62728;stroke-linecap:square;stroke-width:1.5;"/>
   </g>
  </g>
  <g id="axes_2">
   <g id="line2d_8">
    <path clip-path="url(#p3d0d002dc0)" d="M 31.178933 121.92681 
L 37.840525 124.063673 
L 44.785616 126.225635 
L 48.943867 127.283374 
L 52.439484 127.93399 
L 55.292316 128.25157 
L 58.082659 128.335937 
L 60.535915 128.195213 
L 62.931244 127.838301 
L 65.267105 127.259452 
L 67.543244 126.457719 
L 69.760699 125.43697 
L 71.921774 124.205811 
L 74.261171 122.607226 
L 76.766957 120.596681 
L 79.432264 118.148538 
L 82.473544 115.037681 
L 87.174471 109.857246 
L 92.107665 104.510708 
L 95.17934 101.513284 
L 97.880629 99.199432 
L 100.191782 97.495439 
L 102.565351 96.024382 
L 104.759568 94.91691 
L 107.011684 94.025523 
L 109.323257 93.356028 
L 111.694556 92.909437 
L 114.124562 92.681941 
L 116.610984 92.664994 
L 119.435536 92.877028 
L 122.61019 93.362732 
L 126.141871 94.147943 
L 130.330627 95.319524 
L 136.991712 97.454495 
L 143.937698 99.619802 
L 148.097164 100.682071 
L 151.594169 101.33787 
L 154.448364 101.660537 
L 157.240218 101.750544 
L 159.694929 101.615246 
L 162.091767 101.263969 
L 164.429162 100.690844 
L 166.706825 99.894797 
L 168.925761 98.879577 
L 171.088243 97.653668 
L 173.429078 96.060451 
L 175.936252 94.055082 
L 178.602787 91.611525 
L 181.645066 88.504396 
L 186.346507 83.325879 
L 191.278813 77.976023 
L 194.349277 74.974084 
L 197.049181 72.65506 
L 199.358973 70.945987 
L 201.731031 69.469295 
L 203.923795 68.356401 
L 206.174402 67.45938 
L 208.484442 66.784163 
L 210.854217 66.331883 
L 213.28274 66.098856 
L 215.767755 66.076656 
L 218.590866 66.283314 
L 221.764131 66.763834 
L 225.29458 67.544446 
L 229.482333 68.712284 
L 236.142897 70.845312 
L 243.089765 73.01391 
L 247.250437 74.08068 
L 250.748825 74.74164 
L 253.604379 75.069379 
L 256.397742 75.165016 
L 258.853904 75.035137 
L 261.252252 74.689491 
L 263.59118 74.122088 
L 265.870367 73.331731 
L 268.090786 72.322044 
L 270.254677 71.101394 
L 272.596954 69.513559 
L 275.10552 67.513384 
L 277.77329 65.074437 
L 280.816576 61.971065 
L 285.518545 56.794518 
L 289.154062 52.802582 
L 289.154062 52.802582 
" style="fill:none;stroke:#1f77b4;stroke-linecap:square;stroke-width:1.5;"/>
   </g>
   <g id="line2d_9">
    <path clip-path="url(#p3d0d002dc0)" d="M 15.627273 173.027875 
L 21.53689 174.930878 
L 29.270929 177.344344 
L 34.75756 178.818762 
L 39.665651 179.912469 
L 44.341 180.731836 
L 48.866662 181.303557 
L 53.263269 181.640421 
L 57.589002 181.753923 
L 61.931897 181.643477 
L 66.238771 181.305029 
L 70.456596 180.745541 
L 74.536178 179.982322 
L 78.596897 178.997597 
L 82.596609 177.79904 
L 86.495525 176.402245 
L 90.405885 174.763371 
L 94.277141 172.893217 
L 98.06102 170.813143 
L 101.714899 168.553705 
L 105.31557 166.071735 
L 108.908022 163.328768 
L 112.504339 160.304007 
L 116.162951 156.93391 
L 119.997567 153.092394 
L 123.770581 149.318089 
L 130.141541 151.226622 
L 135.405351 152.573815 
L 140.264273 153.59099 
L 144.955194 154.345317 
L 149.433801 154.843711 
L 153.820767 155.112645 
L 158.163481 155.157702 
L 162.397845 154.983154 
L 166.600633 154.590054 
L 170.723589 153.984778 
L 174.85931 153.151427 
L 178.963833 152.091647 
L 182.99364 150.815801 
L 186.908466 149.342353 
L 190.796313 147.638903 
L 194.610476 145.722139 
L 198.308543 143.617782 
L 201.95522 141.291329 
L 205.589778 138.709677 
L 209.224333 135.851459 
L 212.844856 132.718138 
L 216.539268 129.222783 
L 220.450392 125.210612 
L 222.87503 122.694716 
L 229.284826 124.618709 
L 234.592501 125.979644 
L 239.422598 126.993081 
L 244.08931 127.747202 
L 248.572899 128.250342 
L 253.045752 128.52654 
L 257.434724 128.57067 
L 261.668514 128.393573 
L 265.844886 128.00104 
L 270.07834 127.37521 
L 274.160833 126.546702 
L 278.212083 125.497632 
L 282.19024 124.238079 
L 286.056561 122.785811 
L 289.92311 121.096962 
L 293.740652 119.184584 
L 297.462947 117.071784 
L 301.168607 114.710351 
L 304.795424 112.135066 
L 308.3874 109.313178 
L 312.042591 106.15314 
L 315.708594 102.687674 
L 319.613705 98.685875 
L 324.506718 93.326057 
L 328.172727 89.281573 
L 328.172727 89.281573 
" style="fill:none;stroke:#ff7f0e;stroke-linecap:square;stroke-width:1.5;"/>
   </g>
   <g id="line2d_10">
    <path clip-path="url(#p3d0d002dc0)" d="M 46.730593 70.825744 
L 49.722731 71.629979 
L 54.272972 66.801291 
L 58.147368 63.007783 
L 61.836834 59.700238 
L 65.512566 56.702613 
L 69.132985 54.031294 
L 72.789299 51.603172 
L 76.519856 49.3898 
L 80.267302 47.419692 
L 84.097634 45.653615 
L 87.966084 44.110382 
L 91.960826 42.757482 
L 96.04314 41.615708 
L 100.170245 40.698121 
L 104.298035 40.009157 
L 108.518915 39.532912 
L 112.78404 39.278582 
L 117.043666 39.245368 
L 121.371047 39.430858 
L 125.816723 39.844208 
L 130.401822 40.498054 
L 135.113368 41.398378 
L 140.071227 42.57672 
L 145.477255 44.096218 
L 148.943935 45.043736 
L 153.494177 40.215048 
L 157.368573 36.421539 
L 161.05804 33.113995 
L 164.733772 30.11637 
L 168.354192 27.44505 
L 172.010505 25.016928 
L 175.741063 22.803556 
L 179.488509 20.833449 
L 183.318841 19.067372 
L 187.187292 17.524139 
L 191.182034 16.17124 
L 195.264348 15.029465 
L 199.391453 14.111879 
L 203.519242 13.422915 
L 207.740123 12.94667 
L 212.005247 12.692341 
L 216.264874 12.659127 
L 220.592254 12.844617 
L 225.03793 13.257967 
L 229.623029 13.911813 
L 234.334575 14.812137 
L 239.292433 15.990479 
L 244.69846 17.509977 
L 248.179562 18.441677 
L 250.135396 16.323592 
L 250.135396 16.323592 
" style="fill:none;stroke:#9467bd;stroke-linecap:square;stroke-width:1.5;"/>
   </g>
   <g id="line2d_11">
    <path clip-path="url(#p3d0d002dc0)" d="M 23.403103 147.477342 
L 29.847454 149.549235 
L 37.171514 151.826725 
L 41.970876 153.085116 
L 46.325806 153.992734 
L 50.045363 154.560579 
L 53.966665 154.930018 
L 57.546423 155.046355 
L 61.237357 154.931783 
L 64.460201 154.626784 
L 67.704995 154.117123 
L 70.93635 153.397782 
L 74.117518 152.472653 
L 77.213677 151.354477 
L 80.194974 150.063534 
L 83.498133 148.373386 
L 86.592216 146.527931 
L 89.469233 144.572011 
L 92.496255 142.254071 
L 95.590243 139.60374 
L 98.972869 136.388403 
L 102.739706 132.464194 
L 113.52366 120.931589 
L 115.218625 119.573295 
L 115.601196 119.324949 
L 115.325587 119.375242 
L 115.251307 119.374851 
L 116.215965 119.391362 
L 118.01413 119.67697 
L 120.754151 120.347612 
L 125.151562 121.683766 
L 137.459773 125.540568 
L 141.938748 126.671653 
L 145.895597 127.468201 
L 149.635072 128.019367 
L 153.574884 128.366773 
L 157.168387 128.459428 
L 160.869376 128.317497 
L 164.09689 127.986828 
L 167.341998 127.450384 
L 170.568965 126.704251 
L 173.741103 125.753484 
L 176.824071 124.611888 
L 179.788833 123.300564 
L 183.069829 121.591115 
L 186.140214 119.73137 
L 189.383435 117.478942 
L 192.350807 115.148462 
L 195.38364 112.496406 
L 198.701272 109.293159 
L 202.399335 105.402358 
L 212.367498 94.687962 
L 214.146286 93.19461 
L 214.821746 92.737843 
L 214.522087 92.791142 
L 214.472445 92.788933 
L 215.695756 92.833499 
L 217.672612 93.18343 
L 220.576991 93.930691 
L 225.43229 95.440899 
L 235.819526 98.712876 
L 240.639452 99.965679 
L 245.01202 100.86359 
L 248.745527 101.419813 
L 252.679808 101.773883 
L 256.269223 101.873688 
L 259.967246 101.740003 
L 263.193413 101.417057 
L 266.438489 100.888655 
L 269.666836 100.150552 
L 272.841744 99.207453 
L 275.92872 98.072847 
L 278.898481 96.767592 
L 282.186153 95.063876 
L 285.263656 93.208361 
L 288.515019 90.959036 
L 291.490117 88.630048 
L 294.530849 85.978086 
L 297.856862 82.773136 
L 301.563798 78.877845 
L 308.663394 71.042078 
L 308.663394 71.042078 
" style="fill:none;stroke:#2ca02c;stroke-linecap:square;stroke-width:1.5;"/>
   </g>
   <g id="line2d_12">
    <path clip-path="url(#p3d0d002dc0)" d="M 38.954763 96.376277 
L 46.148758 98.681267 
L 52.439361 100.634074 
L 55.525908 101.374408 
L 57.477497 101.629871 
L 57.689999 101.639724 
L 57.424528 101.734529 
L 57.362121 101.771405 
L 58.197388 101.268752 
L 59.617011 100.116347 
L 61.659017 98.159327 
L 64.803767 94.796862 
L 73.262466 85.58179 
L 76.86249 82.074216 
L 79.894885 79.405966 
L 82.861636 77.059619 
L 86.103975 74.790372 
L 89.173268 72.915472 
L 92.452721 71.19074 
L 95.415666 69.866374 
L 98.496242 68.71188 
L 101.665335 67.748397 
L 104.888568 66.989732 
L 108.129286 66.440925 
L 111.351843 66.098056 
L 115.046519 65.942123 
L 118.633387 66.021114 
L 122.565556 66.353525 
L 126.297639 66.890655 
L 130.246782 67.672985 
L 134.717506 68.789602 
L 139.860561 70.310359 
L 153.829042 74.596849 
L 156.106788 74.997558 
L 156.911035 75.053183 
L 156.623506 75.158732 
L 156.583047 75.184942 
L 157.629348 74.527609 
L 159.171428 73.230024 
L 161.317329 71.124533 
L 164.771783 67.382285 
L 171.864176 59.633112 
L 175.378193 56.147245 
L 178.683002 53.184145 
L 181.608857 50.830732 
L 184.807941 48.545898 
L 187.839229 46.649307 
L 191.082808 44.894844 
L 194.018665 43.538749 
L 197.077268 42.347483 
L 200.230873 41.343425 
L 203.445963 40.542036 
L 206.686081 39.950215 
L 209.915114 39.565833 
L 213.624939 39.365344 
L 217.233127 39.405473 
L 220.709725 39.651618 
L 224.498994 40.137229 
L 228.513826 40.878896 
L 233.063171 41.967507 
L 237.948145 43.371947 
L 245.889073 45.932223 
L 251.395743 47.601327 
L 254.294833 48.261664 
L 256.132311 48.467994 
L 256.062673 48.474905 
L 257.085145 47.761161 
L 258.7464 46.315806 
L 261.161469 43.886022 
L 265.194895 39.455171 
L 269.644729 34.563087 
L 269.644729 34.563087 
" style="fill:none;stroke:#d62728;stroke-linecap:square;stroke-width:1.5;"/>
   </g>
  </g>
 </g>
 <defs>
  <clipPath id="pfa22e3ec7d">
   <rect height="186.018551" width="343.8" x="-354.6" y="4.190725"/>
  </clipPath>
  <clipPath id="p3d0d002dc0">
   <rect height="186.018631" width="343.8" x="0" y="4.190685"/>
  </clipPath>
 </defs>
</svg>
