<?xml version="1.0" encoding="utf-8" standalone="no"?>
<!DOCTYPE svg PUBLIC "-//W3C//DTD SVG 1.1//EN"
  "http://www.w3.org/Graphics/SVG/1.1/DTD/svg11.dtd">
<!-- Created with matplotlib (https://matplotlib.org/) -->
<svg height="216pt" version="1.1" viewBox="0 0 648 216" width="648pt" xmlns="http://www.w3.org/2000/svg" xmlns:xlink="http://www.w3.org/1999/xlink">
 <metadata>
  <rdf:RDF xmlns:cc="http://creativecommons.org/ns#" xmlns:dc="http://purl.org/dc/elements/1.1/" xmlns:rdf="http://www.w3.org/1999/02/22-rdf-syntax-ns#">
   <cc:Work>
    <dc:type rdf:resource="http://purl.org/dc/dcmitype/StillImage"/>
    <dc:date>2022-09-14T14:25:14.401235</dc:date>
    <dc:format>image/svg+xml</dc:format>
    <dc:creator>
     <cc:Agent>
      <dc:title>Matplotlib v3.3.3, https://matplotlib.org/</dc:title>
     </cc:Agent>
    </dc:creator>
   </cc:Work>
  </rdf:RDF>
 </metadata>
 <defs>
  <style type="text/css">*{stroke-linecap:butt;stroke-linejoin:round;}</style>
 </defs>
 <g id="figure_1">
  <g id="patch_1">
   <path d="M 0 216 
L 648 216 
L 648 0 
L 0 0 
z
" style="fill:#ffffff;"/>
  </g>
  <g id="axes_1">
   <g id="line2d_1">
    <path clip-path="url(#pfa221216c8)" d="M 225.927273 137.854137 
L 227.497048 141.838937 
L 229.273424 145.736027 
L 231.251523 149.534705 
L 233.425912 153.224537 
L 235.790619 156.795389 
L 238.33915 160.237455 
L 241.064504 163.541281 
L 243.959199 166.697793 
L 247.015282 169.698323 
L 250.224362 172.534629 
L 253.577624 175.198923 
L 257.065859 177.683886 
L 260.679487 179.982694 
L 261.860719 180.677951 
L 261.860719 180.677951 
" style="fill:none;stroke:#1f77b4;stroke-linecap:square;stroke-width:1.5;"/>
   </g>
   <g id="line2d_2">
    <path clip-path="url(#pfa221216c8)" d="M 234.480376 178.312954 
L 237.430418 178.275565 
L 240.391403 178.460597 
L 243.389485 178.872602 
L 246.536711 179.533365 
L 251.974994 180.743531 
L 252.853339 180.662985 
L 253.507608 180.386402 
L 254.083654 179.898427 
L 254.706794 179.054849 
L 255.585255 177.433247 
L 258.242658 172.355201 
L 259.884606 169.779913 
L 261.64473 167.422318 
L 263.570717 165.207422 
L 265.656567 163.1436 
L 267.907634 161.229324 
L 270.268588 159.509597 
L 272.804623 157.939951 
L 275.434719 156.573184 
L 278.28313 155.349007 
L 280.472727 154.554384 
L 280.472727 154.554384 
" style="fill:none;stroke:#ff7f0e;stroke-linecap:square;stroke-width:1.5;"/>
   </g>
   <g id="line2d_3">
    <defs>
     <path d="M 0 1.5 
C 0.397805 1.5 0.77937 1.341951 1.06066 1.06066 
C 1.341951 0.77937 1.5 0.397805 1.5 0 
C 1.5 -0.397805 1.341951 -0.77937 1.06066 -1.06066 
C 0.77937 -1.341951 0.397805 -1.5 0 -1.5 
C -0.397805 -1.5 -0.77937 -1.341951 -1.06066 -1.06066 
C -1.341951 -0.77937 -1.5 -0.397805 -1.5 0 
C -1.5 0.397805 -1.341951 0.77937 -1.06066 1.06066 
C -0.77937 1.341951 -0.397805 1.5 0 1.5 
z
" id="m6bfb7aabb6" style="stroke:#1f77b4;"/>
    </defs>
    <g clip-path="url(#pfa221216c8)">
     <use style="fill:#1f77b4;stroke:#1f77b4;" x="225.927273" xlink:href="#m6bfb7aabb6" y="137.854137"/>
     <use style="fill:#1f77b4;stroke:#1f77b4;" x="234.443308" xlink:href="#m6bfb7aabb6" y="154.810958"/>
     <use style="fill:#1f77b4;stroke:#1f77b4;" x="246.640304" xlink:href="#m6bfb7aabb6" y="169.346772"/>
     <use style="fill:#1f77b4;stroke:#1f77b4;" x="261.860719" xlink:href="#m6bfb7aabb6" y="180.677951"/>
    </g>
   </g>
   <g id="line2d_4">
    <defs>
     <path d="M 0 1.5 
C 0.397805 1.5 0.77937 1.341951 1.06066 1.06066 
C 1.341951 0.77937 1.5 0.397805 1.5 0 
C 1.5 -0.397805 1.341951 -0.77937 1.06066 -1.06066 
C 0.77937 -1.341951 0.397805 -1.5 0 -1.5 
C -0.397805 -1.5 -0.77937 -1.341951 -1.06066 -1.06066 
C -1.341951 -0.77937 -1.5 -0.397805 -1.5 0 
C -1.5 0.397805 -1.341951 0.77937 -1.06066 1.06066 
C -0.77937 1.341951 -0.397805 1.5 0 1.5 
z
" id="m13659a6c42" style="stroke:#ff7f0e;"/>
    </defs>
    <g clip-path="url(#pfa221216c8)">
     <use style="fill:#ff7f0e;stroke:#ff7f0e;" x="234.480376" xlink:href="#m13659a6c42" y="178.312954"/>
     <use style="fill:#ff7f0e;stroke:#ff7f0e;" x="252.571127" xlink:href="#m13659a6c42" y="180.71679"/>
     <use style="fill:#ff7f0e;stroke:#ff7f0e;" x="260.862118" xlink:href="#m13659a6c42" y="168.425954"/>
     <use style="fill:#ff7f0e;stroke:#ff7f0e;" x="280.472727" xlink:href="#m13659a6c42" y="154.554384"/>
    </g>
   </g>
   <g id="line2d_5">
    <path clip-path="url(#pfa221216c8)" d="M 225.927273 137.854137 
L 261.860719 180.677951 
" style="fill:none;stroke:#ff0000;stroke-dasharray:5.55,2.4;stroke-dashoffset:0;stroke-width:1.5;"/>
   </g>
   <g id="line2d_6">
    <path clip-path="url(#pfa221216c8)" d="M 234.480376 178.312954 
L 280.472727 154.554384 
" style="fill:none;stroke:#ff0000;stroke-dasharray:5.55,2.4;stroke-dashoffset:0;stroke-width:1.5;"/>
   </g>
  </g>
  <g id="axes_2">
   <g id="line2d_7">
    <path clip-path="url(#pb10462d42d)" d="M 192.447847 24.978117 
L 190.002805 26.515587 
L 187.680653 28.233042 
L 185.494611 30.120703 
L 183.457125 32.167823 
L 181.579797 34.362745 
L 179.873315 36.692973 
L 178.347395 39.145239 
L 177.010725 41.705583 
L 175.870915 44.359425 
L 174.934455 47.091656 
L 174.206677 49.88672 
L 173.691724 52.728703 
L 173.392529 55.601424 
L 173.310794 58.488527 
L 173.446986 61.373574 
L 173.800329 64.240139 
L 174.36881 67.0719 
L 175.149194 69.852736 
L 176.137037 72.566812 
L 177.326715 75.198677 
L 178.711454 77.733345 
L 180.28337 80.156385 
L 182.033514 82.454001 
L 183.95192 84.613113 
L 186.027666 86.621426 
L 188.248934 88.467506 
L 190.603077 90.140842 
L 192.447847 91.276712 
L 192.447847 91.276712 
" style="fill:none;stroke:#1f77b4;stroke-linecap:square;stroke-width:1.5;"/>
   </g>
   <g id="line2d_8">
    <path clip-path="url(#pb10462d42d)" d="M 209.672727 58.127414 
L 209.561837 57.636231 
L 209.150261 56.966905 
L 206.094001 52.703725 
L 205.207229 50.876774 
L 204.534255 48.985491 
L 204.072264 47.030895 
L 203.824857 45.012031 
L 203.797646 42.969989 
L 204.0057 40.559219 
L 204.080498 38.994875 
L 203.890538 38.453098 
L 203.524375 38.103248 
L 202.806868 37.764068 
L 198.089083 35.90998 
L 196.355577 34.872417 
L 194.75899 33.661422 
L 193.299239 32.277747 
L 191.980127 30.71665 
L 190.830591 29.006687 
L 189.735552 26.957279 
L 188.838354 25.380197 
L 188.412435 25.048679 
L 187.918858 24.946644 
L 187.137853 25.044025 
L 181.985534 26.05286 
L 179.954638 26.099502 
L 177.954595 25.924872 
L 175.985125 25.532095 
L 174.046849 24.917649 
L 172.17947 24.093723 
L 170.075304 22.90368 
L 168.685122 22.187818 
L 168.113815 22.137013 
L 167.643473 22.3261 
L 167.03643 22.839384 
L 163.386019 26.362968 
L 161.720943 27.508314 
L 159.955406 28.456694 
L 158.090105 29.208638 
L 156.122387 29.758839 
L 155.127273 29.950511 
L 155.127273 29.950511 
" style="fill:none;stroke:#ff7f0e;stroke-linecap:square;stroke-width:1.5;"/>
   </g>
   <g id="line2d_9">
    <g clip-path="url(#pb10462d42d)">
     <use style="fill:#1f77b4;stroke:#1f77b4;" x="192.447847" xlink:href="#m6bfb7aabb6" y="24.978117"/>
     <use style="fill:#1f77b4;stroke:#1f77b4;" x="175.617507" xlink:href="#m6bfb7aabb6" y="45.035734"/>
     <use style="fill:#1f77b4;stroke:#1f77b4;" x="175.617507" xlink:href="#m6bfb7aabb6" y="71.219094"/>
     <use style="fill:#1f77b4;stroke:#1f77b4;" x="192.447847" xlink:href="#m6bfb7aabb6" y="91.276712"/>
    </g>
   </g>
   <g id="line2d_10">
    <g clip-path="url(#pb10462d42d)">
     <use style="fill:#ff7f0e;stroke:#ff7f0e;" x="209.672727" xlink:href="#m13659a6c42" y="58.127414"/>
     <use style="fill:#ff7f0e;stroke:#ff7f0e;" x="201.165252" xlink:href="#m13659a6c42" y="37.213751"/>
     <use style="fill:#ff7f0e;stroke:#ff7f0e;" x="179.62357" xlink:href="#m13659a6c42" y="26.085822"/>
     <use style="fill:#ff7f0e;stroke:#ff7f0e;" x="155.127273" xlink:href="#m13659a6c42" y="29.950511"/>
    </g>
   </g>
   <g id="line2d_11">
    <path clip-path="url(#pb10462d42d)" d="M 192.447847 24.978117 
L 192.447847 91.276712 
" style="fill:none;stroke:#ff0000;stroke-dasharray:5.55,2.4;stroke-dashoffset:0;stroke-width:1.5;"/>
   </g>
   <g id="line2d_12">
    <path clip-path="url(#pb10462d42d)" d="M 209.672727 58.127414 
L 155.127273 29.950511 
" style="fill:none;stroke:#ff0000;stroke-dasharray:5.55,2.4;stroke-dashoffset:0;stroke-width:1.5;"/>
   </g>
  </g>
  <g id="axes_3">
   <g id="line2d_13">
    <path clip-path="url(#pdd59fce162)" d="M 261.860719 35.322049 
L 258.209045 37.559929 
L 254.679625 39.986041 
L 251.282152 42.593722 
L 248.025955 45.375809 
L 244.919979 48.324663 
L 241.972754 51.432184 
L 239.192373 54.689838 
L 236.586474 58.088678 
L 234.162212 61.619369 
L 231.926246 65.272215 
L 229.884718 69.037183 
L 228.043232 72.903934 
L 226.406848 76.861846 
L 225.927273 78.145863 
L 225.927273 78.145863 
" style="fill:none;stroke:#1f77b4;stroke-linecap:square;stroke-width:1.5;"/>
   </g>
   <g id="line2d_14">
    <path clip-path="url(#pdd59fce162)" d="M 280.472727 61.445616 
L 277.22138 60.222807 
L 274.418727 58.927927 
L 271.828454 57.487174 
L 269.366289 55.864824 
L 267.039717 54.067113 
L 264.845294 52.090215 
L 262.83378 49.984223 
L 260.95156 47.692169 
L 259.222656 45.231296 
L 257.623089 42.557759 
L 255.923225 39.249691 
L 254.535269 36.680768 
L 253.849121 35.870416 
L 253.224098 35.463378 
L 252.522276 35.276982 
L 251.602117 35.282354 
L 250.156587 35.545261 
L 241.997622 37.346425 
L 239.008321 37.653492 
L 236.045168 37.734534 
L 234.480376 37.687046 
L 234.480376 37.687046 
" style="fill:none;stroke:#ff7f0e;stroke-linecap:square;stroke-width:1.5;"/>
   </g>
   <g id="line2d_15">
    <g clip-path="url(#pdd59fce162)">
     <use style="fill:#1f77b4;stroke:#1f77b4;" x="261.860719" xlink:href="#m6bfb7aabb6" y="35.322049"/>
     <use style="fill:#1f77b4;stroke:#1f77b4;" x="246.640304" xlink:href="#m6bfb7aabb6" y="46.653228"/>
     <use style="fill:#1f77b4;stroke:#1f77b4;" x="234.443308" xlink:href="#m6bfb7aabb6" y="61.189042"/>
     <use style="fill:#1f77b4;stroke:#1f77b4;" x="225.927273" xlink:href="#m6bfb7aabb6" y="78.145863"/>
    </g>
   </g>
   <g id="line2d_16">
    <g clip-path="url(#pdd59fce162)">
     <use style="fill:#ff7f0e;stroke:#ff7f0e;" x="280.472727" xlink:href="#m13659a6c42" y="61.445616"/>
     <use style="fill:#ff7f0e;stroke:#ff7f0e;" x="260.862118" xlink:href="#m13659a6c42" y="47.574046"/>
     <use style="fill:#ff7f0e;stroke:#ff7f0e;" x="252.571127" xlink:href="#m13659a6c42" y="35.28321"/>
     <use style="fill:#ff7f0e;stroke:#ff7f0e;" x="234.480376" xlink:href="#m13659a6c42" y="37.687046"/>
    </g>
   </g>
   <g id="line2d_17">
    <path clip-path="url(#pdd59fce162)" d="M 261.860719 35.322049 
L 225.927273 78.145863 
" style="fill:none;stroke:#ff0000;stroke-dasharray:5.55,2.4;stroke-dashoffset:0;stroke-width:1.5;"/>
   </g>
   <g id="line2d_18">
    <path clip-path="url(#pdd59fce162)" d="M 280.472727 61.445616 
L 234.480376 37.687046 
" style="fill:none;stroke:#ff0000;stroke-dasharray:5.55,2.4;stroke-dashoffset:0;stroke-width:1.5;"/>
   </g>
  </g>
  <g id="axes_4">
   <g id="line2d_19">
    <path clip-path="url(#pb6502f4700)" d="M 192.447847 124.723288 
L 190.002805 126.260759 
L 187.680653 127.978214 
L 185.494611 129.865875 
L 183.457125 131.912994 
L 181.579797 134.107916 
L 179.873315 136.438144 
L 178.347395 138.890411 
L 177.010725 141.450754 
L 175.870915 144.104596 
L 174.934455 146.836827 
L 174.206677 149.631891 
L 173.691724 152.473874 
L 173.392529 155.346595 
L 173.310794 158.233698 
L 173.446986 161.118745 
L 173.800329 163.98531 
L 174.36881 166.817072 
L 175.149194 169.597907 
L 176.137037 172.311983 
L 177.326715 174.943848 
L 178.711454 177.478516 
L 180.28337 179.901556 
L 182.033514 182.199173 
L 183.95192 184.358284 
L 186.027666 186.366597 
L 188.248934 188.212677 
L 190.603077 189.886014 
L 192.447847 191.021883 
L 192.447847 191.021883 
" style="fill:none;stroke:#1f77b4;stroke-linecap:square;stroke-width:1.5;"/>
   </g>
   <g id="line2d_20">
    <path clip-path="url(#pb6502f4700)" d="M 155.127273 186.049489 
L 157.150677 186.499281 
L 159.029282 187.140163 
L 160.85632 187.996097 
L 162.539651 189.021308 
L 164.158344 190.265944 
L 165.746143 191.782214 
L 167.737993 193.729487 
L 168.241785 193.875918 
L 168.758597 193.788572 
L 169.608301 193.373156 
L 173.116267 191.463451 
L 175.0429 190.737208 
L 176.959657 190.245452 
L 178.957261 189.959938 
L 180.933832 189.895023 
L 182.984154 190.05192 
L 185.090794 190.442895 
L 188.062416 191.044315 
L 188.553776 190.873639 
L 188.936226 190.498502 
L 189.428933 189.660137 
L 191.229817 186.353594 
L 192.436346 184.702901 
L 193.76589 183.24617 
L 195.280073 181.912626 
L 196.902991 180.771728 
L 198.716984 179.774067 
L 200.718701 178.942232 
L 203.695185 177.767743 
L 203.98263 177.376589 
L 204.098257 176.807412 
L 204.040123 175.750147 
L 203.782998 172.379503 
L 203.877414 170.362425 
L 204.201366 168.316782 
L 204.736757 166.372177 
L 205.471249 164.523243 
L 206.398111 162.768809 
L 207.585808 161.00643 
L 209.648445 158.09827 
L 209.672727 157.872586 
L 209.672727 157.872586 
" style="fill:none;stroke:#ff7f0e;stroke-linecap:square;stroke-width:1.5;"/>
   </g>
   <g id="line2d_21">
    <g clip-path="url(#pb6502f4700)">
     <use style="fill:#1f77b4;stroke:#1f77b4;" x="192.447847" xlink:href="#m6bfb7aabb6" y="124.723288"/>
     <use style="fill:#1f77b4;stroke:#1f77b4;" x="175.617507" xlink:href="#m6bfb7aabb6" y="144.780906"/>
     <use style="fill:#1f77b4;stroke:#1f77b4;" x="175.617507" xlink:href="#m6bfb7aabb6" y="170.964266"/>
     <use style="fill:#1f77b4;stroke:#1f77b4;" x="192.447847" xlink:href="#m6bfb7aabb6" y="191.021883"/>
    </g>
   </g>
   <g id="line2d_22">
    <g clip-path="url(#pb6502f4700)">
     <use style="fill:#ff7f0e;stroke:#ff7f0e;" x="155.127273" xlink:href="#m13659a6c42" y="186.049489"/>
     <use style="fill:#ff7f0e;stroke:#ff7f0e;" x="179.62357" xlink:href="#m13659a6c42" y="189.914178"/>
     <use style="fill:#ff7f0e;stroke:#ff7f0e;" x="201.165252" xlink:href="#m13659a6c42" y="178.786249"/>
     <use style="fill:#ff7f0e;stroke:#ff7f0e;" x="209.672727" xlink:href="#m13659a6c42" y="157.872586"/>
    </g>
   </g>
   <g id="line2d_23">
    <path clip-path="url(#pb6502f4700)" d="M 192.447847 124.723288 
L 192.447847 191.021883 
" style="fill:none;stroke:#ff0000;stroke-dasharray:5.55,2.4;stroke-dashoffset:0;stroke-width:1.5;"/>
   </g>
   <g id="line2d_24">
    <path clip-path="url(#pb6502f4700)" d="M 155.127273 186.049489 
L 209.672727 157.872586 
" style="fill:none;stroke:#ff0000;stroke-dasharray:5.55,2.4;stroke-dashoffset:0;stroke-width:1.5;"/>
   </g>
  </g>
  <g id="axes_5">
   <g id="line2d_25">
    <path clip-path="url(#p00d2421637)" d="M 631.254545 108 
L 631.138325 104.921706 
L 630.790326 101.860938 
L 630.212529 98.835123 
L 629.408225 95.861489 
L 628.381992 92.956967 
L 627.139673 90.138094 
L 625.688343 87.420918 
L 624.036263 84.820911 
L 622.19284 82.352877 
L 620.168571 80.030865 
L 617.974979 77.868099 
L 615.624555 75.87689 
L 613.130682 74.068577 
L 610.507557 72.453455 
L 607.770116 71.04072 
L 604.933945 69.838415 
L 602.015191 68.853386 
L 599.030474 68.091242 
L 595.996786 67.556321 
L 592.9314 67.251669 
L 589.851769 67.179021 
L 586.775428 67.33879 
L 583.719891 67.730067 
L 580.702555 68.350623 
L 577.740601 69.196927 
L 574.850892 70.264158 
L 572.04988 71.546242 
L 569.353515 73.035878 
L 566.777146 74.724584 
L 564.335445 76.602747 
L 562.042311 78.659672 
L 559.910802 80.883649 
L 557.953053 83.262015 
L 556.180212 85.781228 
L 554.602371 88.426946 
L 553.228514 91.184104 
L 552.066464 94.037005 
L 551.122837 96.969405 
L 550.403005 99.964609 
L 549.911067 103.005562 
L 549.649823 106.074952 
L 549.620762 109.155303 
L 549.824048 112.229075 
L 550.258524 115.278769 
L 550.921716 118.287021 
L 551.809849 121.236703 
L 552.917866 124.111021 
L 554.239457 126.893609 
L 555.7671 129.568625 
L 557.492095 132.120839 
L 559.404622 134.535719 
L 561.493791 136.799516 
L 563.747708 138.89934 
L 566.153539 140.823237 
L 568.697587 142.560252 
L 571.365368 144.100496 
L 574.141691 145.435198 
L 577.01075 146.556761 
L 579.95621 147.458798 
L 582.9613 148.136173 
L 586.008911 148.58503 
L 589.08169 148.802813 
L 592.162143 148.788282 
L 595.232732 148.54152 
L 598.275972 148.063932 
L 601.274538 147.358236 
L 604.211357 146.428452 
L 607.069707 145.279872 
L 609.833315 143.919037 
L 612.486446 142.353694 
L 615.013994 140.592755 
L 617.401568 138.646247 
L 619.635575 136.525253 
L 621.703294 134.241847 
L 623.592954 131.809032 
L 625.293795 129.240658 
L 626.796133 126.551349 
L 628.091415 123.756417 
L 629.172265 120.871774 
L 630.032531 117.913844 
L 630.667314 114.89947 
L 631.073 111.845813 
L 631.247278 108.770259 
L 631.254545 108 
L 631.254545 108 
" style="fill:none;stroke:#1f77b4;stroke-linecap:square;stroke-width:1.5;"/>
   </g>
   <g id="line2d_26">
    <path clip-path="url(#p00d2421637)" d="M 588.388225 108 
L 588.269954 107.476126 
L 587.830986 106.762254 
L 584.732478 102.500126 
L 583.811226 100.695663 
L 583.049013 98.707446 
L 582.503847 96.628517 
L 582.196184 94.566674 
L 582.108727 92.32569 
L 582.270178 89.917476 
L 582.428904 87.63464 
L 582.274206 87.104343 
L 581.926206 86.710293 
L 581.216012 86.339241 
L 575.840191 84.200623 
L 574.087883 83.131395 
L 572.39079 81.827874 
L 570.84437 80.344082 
L 569.518096 78.764915 
L 568.292053 76.941146 
L 567.09245 74.690971 
L 566.193508 73.104079 
L 565.774461 72.749917 
L 565.264372 72.614042 
L 564.458939 72.692864 
L 558.748436 73.798996 
L 556.692252 73.840474 
L 554.559097 73.654221 
L 552.458548 73.235304 
L 550.494559 72.618745 
L 548.486183 71.744648 
L 546.274897 70.503929 
L 544.672695 69.668448 
L 544.131257 69.605279 
L 543.629033 69.775363 
L 542.991569 70.286974 
L 539.020911 74.121475 
L 537.344627 75.28189 
L 535.470292 76.30339 
L 533.484092 77.118166 
L 531.490946 77.694141 
L 529.301955 78.077257 
L 526.931561 78.244339 
L 524.830102 78.394039 
L 524.310386 78.609264 
L 523.95703 78.992478 
L 523.682124 79.724311 
L 523.272663 81.898713 
L 522.757402 84.068616 
L 522.000567 86.214233 
L 521.087497 88.105115 
L 519.946928 89.929599 
L 518.63425 91.592959 
L 517.235267 93.026998 
L 515.633513 94.369328 
L 512.472291 96.872417 
L 512.345455 97.373311 
L 512.432291 97.974218 
L 512.919341 99.262707 
L 513.91879 101.860137 
L 514.488108 103.993753 
L 514.804169 106.037136 
L 514.902277 108.179727 
L 514.765589 110.313121 
L 514.417592 112.330186 
L 513.826935 114.416416 
L 512.840681 116.924386 
L 512.373889 118.28159 
L 512.369069 118.835906 
L 512.587729 119.312894 
L 513.159548 119.868546 
L 517.9393 123.658418 
L 519.30733 125.213565 
L 520.543015 126.967941 
L 521.5745 128.838642 
L 522.364781 130.72243 
L 522.988018 132.79131 
L 523.507946 135.419044 
L 523.851534 136.798461 
L 524.151589 137.26001 
L 524.599615 137.537065 
L 525.390099 137.690666 
L 531.165823 138.233105 
L 533.149406 138.768968 
L 535.144353 139.545112 
L 537.043988 140.535995 
L 538.758087 141.67923 
L 540.443568 143.08374 
L 542.222121 144.901016 
L 543.527865 146.162218 
L 544.029636 146.379673 
L 544.558379 146.36215 
L 545.311559 146.055224 
L 550.18681 143.498743 
L 552.119147 142.855231 
L 554.203783 142.399905 
L 556.33915 142.174116 
L 558.415551 142.179696 
L 560.627589 142.426066 
L 562.955614 142.93283 
L 565.14661 143.389471 
L 565.681552 143.293941 
L 566.114162 142.985161 
L 566.581518 142.309602 
L 569.321413 137.5004 
L 570.606642 135.915134 
L 572.12033 134.40887 
L 573.798386 133.0706 
L 575.548843 131.960141 
L 577.539501 130.98018 
L 579.761645 130.156203 
L 581.726107 129.421251 
L 582.160138 129.066745 
L 582.387751 128.596934 
L 582.44228 127.813217 
L 582.220954 125.602962 
L 582.106123 123.370435 
L 582.196184 121.433326 
L 582.503847 119.371483 
L 583.049013 117.292554 
L 583.811226 115.304337 
L 584.732478 113.499874 
L 585.890496 111.712258 
L 588.36919 108.206079 
L 588.388225 108 
L 588.388225 108 
" style="fill:none;stroke:#ff7f0e;stroke-linecap:square;stroke-width:1.5;"/>
   </g>
   <g id="line2d_27">
    <defs>
     <path d="M 0 3 
C 0.795609 3 1.55874 2.683901 2.12132 2.12132 
C 2.683901 1.55874 3 0.795609 3 0 
C 3 -0.795609 2.683901 -1.55874 2.12132 -2.12132 
C 1.55874 -2.683901 0.795609 -3 0 -3 
C -0.795609 -3 -1.55874 -2.683901 -2.12132 -2.12132 
C -2.683901 -1.55874 -3 -0.795609 -3 0 
C -3 0.795609 -2.683901 1.55874 -2.12132 2.12132 
C -1.55874 2.683901 -0.795609 3 0 3 
z
" id="mc52466dfea" style="stroke:#ff0000;"/>
    </defs>
    <g clip-path="url(#p00d2421637)">
     <use style="fill:#ff0000;stroke:#ff0000;" x="566.905217" xlink:href="#mc52466dfea" y="74.633921"/>
     <use style="fill:#ff0000;stroke:#ff0000;" x="566.905217" xlink:href="#mc52466dfea" y="141.366079"/>
    </g>
   </g>
  </g>
  <g id="axes_6">
   <g id="line2d_28">
    <path clip-path="url(#pf3ba4b5fc4)" d="M 296.727273 140.576582 
L 302.658065 146.019895 
L 308.73622 151.29815 
L 314.957146 156.40736 
L 321.316143 161.343666 
L 327.808406 166.103336 
L 334.429031 170.682776 
L 341.173016 175.078526 
L 348.035266 179.287264 
L 351.272727 181.184168 
L 351.272727 181.184168 
" style="fill:none;stroke:#1f77b4;stroke-linecap:square;stroke-width:1.5;"/>
   </g>
   <g id="line2d_29">
    <path clip-path="url(#pf3ba4b5fc4)" d="M 317.981583 181.323358 
L 319.395689 181.019642 
L 320.643004 180.527333 
L 321.800544 179.828806 
L 322.909995 178.895901 
L 324.052167 177.632752 
L 325.266294 175.94585 
L 326.690081 173.568349 
L 328.668983 169.7846 
L 335.946417 155.507241 
L 338.978592 150.226492 
L 342.088247 145.258326 
L 345.321098 140.516407 
L 347.694038 137.276642 
L 347.694038 137.276642 
" style="fill:none;stroke:#ff7f0e;stroke-linecap:square;stroke-width:1.5;"/>
   </g>
   <g id="line2d_30">
    <g clip-path="url(#pf3ba4b5fc4)">
     <use style="fill:#1f77b4;stroke:#1f77b4;" x="296.727273" xlink:href="#m6bfb7aabb6" y="140.576582"/>
     <use style="fill:#1f77b4;stroke:#1f77b4;" x="313.839796" xlink:href="#m6bfb7aabb6" y="155.510633"/>
     <use style="fill:#1f77b4;stroke:#1f77b4;" x="332.058137" xlink:href="#m6bfb7aabb6" y="169.073685"/>
     <use style="fill:#1f77b4;stroke:#1f77b4;" x="351.272727" xlink:href="#m6bfb7aabb6" y="181.184168"/>
    </g>
   </g>
   <g id="line2d_31">
    <g clip-path="url(#pf3ba4b5fc4)">
     <use style="fill:#ff7f0e;stroke:#ff7f0e;" x="317.981583" xlink:href="#m13659a6c42" y="181.323358"/>
     <use style="fill:#ff7f0e;stroke:#ff7f0e;" x="325.696746" xlink:href="#m13659a6c42" y="175.268169"/>
     <use style="fill:#ff7f0e;stroke:#ff7f0e;" x="333.806959" xlink:href="#m13659a6c42" y="159.509221"/>
     <use style="fill:#ff7f0e;stroke:#ff7f0e;" x="347.694038" xlink:href="#m13659a6c42" y="137.276642"/>
    </g>
   </g>
   <g id="line2d_32">
    <path clip-path="url(#pf3ba4b5fc4)" d="M 296.727273 140.576582 
L 351.272727 181.184168 
" style="fill:none;stroke:#ff0000;stroke-dasharray:5.55,2.4;stroke-dashoffset:0;stroke-width:1.5;"/>
   </g>
   <g id="line2d_33">
    <path clip-path="url(#pf3ba4b5fc4)" d="M 317.981583 181.323358 
L 347.694038 137.276642 
" style="fill:none;stroke:#ff0000;stroke-dasharray:5.55,2.4;stroke-dashoffset:0;stroke-width:1.5;"/>
   </g>
  </g>
  <g id="axes_7">
   <g id="line2d_34">
    <path clip-path="url(#pa88c0ee435)" d="M 438.327273 131.472143 
L 457.759573 145.41535 
L 477.320234 159.177902 
L 492.872727 169.92861 
L 492.872727 169.92861 
" style="fill:none;stroke:#1f77b4;stroke-linecap:square;stroke-width:1.5;"/>
   </g>
   <g id="line2d_35">
    <path clip-path="url(#pa88c0ee435)" d="M 457.469449 187.127857 
L 465.455215 171.284832 
L 479.516219 142.794975 
L 480.668182 140.456469 
L 480.668182 140.456469 
" style="fill:none;stroke:#ff7f0e;stroke-linecap:square;stroke-width:1.5;"/>
   </g>
   <g id="line2d_36">
    <g clip-path="url(#pa88c0ee435)">
     <use style="fill:#1f77b4;stroke:#1f77b4;" x="438.327273" xlink:href="#m6bfb7aabb6" y="131.472143"/>
     <use style="fill:#1f77b4;stroke:#1f77b4;" x="456.39838" xlink:href="#m6bfb7aabb6" y="144.447516"/>
     <use style="fill:#1f77b4;stroke:#1f77b4;" x="474.580649" xlink:href="#m6bfb7aabb6" y="157.266656"/>
     <use style="fill:#1f77b4;stroke:#1f77b4;" x="492.872727" xlink:href="#m6bfb7aabb6" y="169.92861"/>
    </g>
   </g>
   <g id="line2d_37">
    <g clip-path="url(#pa88c0ee435)">
     <use style="fill:#ff7f0e;stroke:#ff7f0e;" x="457.469449" xlink:href="#m13659a6c42" y="187.127857"/>
     <use style="fill:#ff7f0e;stroke:#ff7f0e;" x="464.821724" xlink:href="#m13659a6c42" y="172.556174"/>
     <use style="fill:#ff7f0e;stroke:#ff7f0e;" x="472.531234" xlink:href="#m13659a6c42" y="156.985038"/>
     <use style="fill:#ff7f0e;stroke:#ff7f0e;" x="480.668182" xlink:href="#m13659a6c42" y="140.456469"/>
    </g>
   </g>
   <g id="line2d_38">
    <path clip-path="url(#pa88c0ee435)" d="M 438.327273 131.472143 
L 492.872727 169.92861 
" style="fill:none;stroke:#ff0000;stroke-dasharray:5.55,2.4;stroke-dashoffset:0;stroke-width:1.5;"/>
   </g>
   <g id="line2d_39">
    <path clip-path="url(#pa88c0ee435)" d="M 457.469449 187.127857 
L 480.668182 140.456469 
" style="fill:none;stroke:#ff0000;stroke-dasharray:5.55,2.4;stroke-dashoffset:0;stroke-width:1.5;"/>
   </g>
  </g>
  <g id="axes_8">
   <g id="line2d_40">
    <path clip-path="url(#p33f12e3769)" d="M 367.527273 132.313597 
L 377.992992 140.611787 
L 388.595779 148.734111 
L 399.332679 156.678305 
L 410.200699 164.442156 
L 417.295368 169.364571 
L 417.295368 169.364571 
" style="fill:none;stroke:#1f77b4;stroke-linecap:square;stroke-width:1.5;"/>
   </g>
   <g id="line2d_41">
    <path clip-path="url(#p33f12e3769)" d="M 399.91759 186.286403 
L 402.402706 182.051582 
L 405.404477 176.47393 
L 409.640608 168.085892 
L 421.987988 143.399776 
L 422.072727 143.236771 
L 422.072727 143.236771 
" style="fill:none;stroke:#ff7f0e;stroke-linecap:square;stroke-width:1.5;"/>
   </g>
   <g id="line2d_42">
    <g clip-path="url(#p33f12e3769)">
     <use style="fill:#1f77b4;stroke:#1f77b4;" x="367.527273" xlink:href="#m6bfb7aabb6" y="132.313597"/>
     <use style="fill:#1f77b4;stroke:#1f77b4;" x="383.795414" xlink:href="#m6bfb7aabb6" y="145.09154"/>
     <use style="fill:#1f77b4;stroke:#1f77b4;" x="400.388477" xlink:href="#m6bfb7aabb6" y="157.444618"/>
     <use style="fill:#1f77b4;stroke:#1f77b4;" x="417.295368" xlink:href="#m6bfb7aabb6" y="169.364571"/>
    </g>
   </g>
   <g id="line2d_43">
    <g clip-path="url(#p33f12e3769)">
     <use style="fill:#ff7f0e;stroke:#ff7f0e;" x="399.91759" xlink:href="#m13659a6c42" y="186.286403"/>
     <use style="fill:#ff7f0e;stroke:#ff7f0e;" x="406.32178" xlink:href="#m13659a6c42" y="174.695644"/>
     <use style="fill:#ff7f0e;stroke:#ff7f0e;" x="413.512451" xlink:href="#m13659a6c42" y="160.229396"/>
     <use style="fill:#ff7f0e;stroke:#ff7f0e;" x="422.072727" xlink:href="#m13659a6c42" y="143.236771"/>
    </g>
   </g>
   <g id="line2d_44">
    <path clip-path="url(#p33f12e3769)" d="M 367.527273 132.313597 
L 417.295368 169.364571 
" style="fill:none;stroke:#ff0000;stroke-dasharray:5.55,2.4;stroke-dashoffset:0;stroke-width:1.5;"/>
   </g>
   <g id="line2d_45">
    <path clip-path="url(#p33f12e3769)" d="M 399.91759 186.286403 
L 422.072727 143.236771 
" style="fill:none;stroke:#ff0000;stroke-dasharray:5.55,2.4;stroke-dashoffset:0;stroke-width:1.5;"/>
   </g>
  </g>
  <g id="axes_9">
   <g id="line2d_46">
    <path clip-path="url(#pc3d9b7d3fc)" d="M 492.872727 46.07139 
L 473.211784 59.690297 
L 453.677875 73.490794 
L 438.327273 84.527857 
L 438.327273 84.527857 
" style="fill:none;stroke:#1f77b4;stroke-linecap:square;stroke-width:1.5;"/>
   </g>
   <g id="line2d_47">
    <path clip-path="url(#pc3d9b7d3fc)" d="M 480.668182 75.543531 
L 459.841171 33.529498 
L 457.469449 28.872143 
L 457.469449 28.872143 
" style="fill:none;stroke:#ff7f0e;stroke-linecap:square;stroke-width:1.5;"/>
   </g>
   <g id="line2d_48">
    <g clip-path="url(#pc3d9b7d3fc)">
     <use style="fill:#1f77b4;stroke:#1f77b4;" x="492.872727" xlink:href="#m6bfb7aabb6" y="46.07139"/>
     <use style="fill:#1f77b4;stroke:#1f77b4;" x="474.580649" xlink:href="#m6bfb7aabb6" y="58.733344"/>
     <use style="fill:#1f77b4;stroke:#1f77b4;" x="456.39838" xlink:href="#m6bfb7aabb6" y="71.552484"/>
     <use style="fill:#1f77b4;stroke:#1f77b4;" x="438.327273" xlink:href="#m6bfb7aabb6" y="84.527857"/>
    </g>
   </g>
   <g id="line2d_49">
    <g clip-path="url(#pc3d9b7d3fc)">
     <use style="fill:#ff7f0e;stroke:#ff7f0e;" x="480.668182" xlink:href="#m13659a6c42" y="75.543531"/>
     <use style="fill:#ff7f0e;stroke:#ff7f0e;" x="472.531234" xlink:href="#m13659a6c42" y="59.014962"/>
     <use style="fill:#ff7f0e;stroke:#ff7f0e;" x="464.821724" xlink:href="#m13659a6c42" y="43.443826"/>
     <use style="fill:#ff7f0e;stroke:#ff7f0e;" x="457.469449" xlink:href="#m13659a6c42" y="28.872143"/>
    </g>
   </g>
   <g id="line2d_50">
    <path clip-path="url(#pc3d9b7d3fc)" d="M 492.872727 46.07139 
L 438.327273 84.527857 
" style="fill:none;stroke:#ff0000;stroke-dasharray:5.55,2.4;stroke-dashoffset:0;stroke-width:1.5;"/>
   </g>
   <g id="line2d_51">
    <path clip-path="url(#pc3d9b7d3fc)" d="M 480.668182 75.543531 
L 457.469449 28.872143 
" style="fill:none;stroke:#ff0000;stroke-dasharray:5.55,2.4;stroke-dashoffset:0;stroke-width:1.5;"/>
   </g>
  </g>
  <g id="axes_10">
   <g id="line2d_52">
    <path clip-path="url(#pbde053b795)" d="M 351.272727 34.815832 
L 344.35712 38.936308 
L 337.557373 43.245297 
L 330.878621 47.73954 
L 324.325912 52.415644 
L 317.904195 57.270076 
L 311.618323 62.299167 
L 305.473044 67.499119 
L 299.473002 72.866002 
L 296.727273 75.423418 
L 296.727273 75.423418 
" style="fill:none;stroke:#1f77b4;stroke-linecap:square;stroke-width:1.5;"/>
   </g>
   <g id="line2d_53">
    <path clip-path="url(#pbde053b795)" d="M 347.694038 78.723358 
L 344.384778 74.15108 
L 341.243316 69.433645 
L 338.190097 64.443606 
L 335.194432 59.112105 
L 332.039268 53.023313 
L 326.067077 41.344781 
L 324.610043 39.09941 
L 323.359615 37.56355 
L 322.184807 36.463125 
L 321.029889 35.677681 
L 319.81404 35.118979 
L 318.495438 34.760293 
L 317.981583 34.676642 
L 317.981583 34.676642 
" style="fill:none;stroke:#ff7f0e;stroke-linecap:square;stroke-width:1.5;"/>
   </g>
   <g id="line2d_54">
    <g clip-path="url(#pbde053b795)">
     <use style="fill:#1f77b4;stroke:#1f77b4;" x="351.272727" xlink:href="#m6bfb7aabb6" y="34.815832"/>
     <use style="fill:#1f77b4;stroke:#1f77b4;" x="332.058137" xlink:href="#m6bfb7aabb6" y="46.926315"/>
     <use style="fill:#1f77b4;stroke:#1f77b4;" x="313.839796" xlink:href="#m6bfb7aabb6" y="60.489367"/>
     <use style="fill:#1f77b4;stroke:#1f77b4;" x="296.727273" xlink:href="#m6bfb7aabb6" y="75.423418"/>
    </g>
   </g>
   <g id="line2d_55">
    <g clip-path="url(#pbde053b795)">
     <use style="fill:#ff7f0e;stroke:#ff7f0e;" x="347.694038" xlink:href="#m13659a6c42" y="78.723358"/>
     <use style="fill:#ff7f0e;stroke:#ff7f0e;" x="333.806959" xlink:href="#m13659a6c42" y="56.490779"/>
     <use style="fill:#ff7f0e;stroke:#ff7f0e;" x="325.696746" xlink:href="#m13659a6c42" y="40.731831"/>
     <use style="fill:#ff7f0e;stroke:#ff7f0e;" x="317.981583" xlink:href="#m13659a6c42" y="34.676642"/>
    </g>
   </g>
   <g id="line2d_56">
    <path clip-path="url(#pbde053b795)" d="M 351.272727 34.815832 
L 296.727273 75.423418 
" style="fill:none;stroke:#ff0000;stroke-dasharray:5.55,2.4;stroke-dashoffset:0;stroke-width:1.5;"/>
   </g>
   <g id="line2d_57">
    <path clip-path="url(#pbde053b795)" d="M 347.694038 78.723358 
L 317.981583 34.676642 
" style="fill:none;stroke:#ff0000;stroke-dasharray:5.55,2.4;stroke-dashoffset:0;stroke-width:1.5;"/>
   </g>
  </g>
  <g id="axes_11">
   <g id="line2d_58">
    <path clip-path="url(#p803c9cbdc3)" d="M 135.654545 108 
L 135.538325 104.921706 
L 135.190326 101.860938 
L 134.612529 98.835123 
L 133.808225 95.861489 
L 132.781992 92.956967 
L 131.539673 90.138094 
L 130.088343 87.420918 
L 128.436263 84.820911 
L 126.59284 82.352877 
L 124.568571 80.030865 
L 122.374979 77.868099 
L 120.024555 75.87689 
L 117.530682 74.068577 
L 114.907557 72.453455 
L 112.170116 71.04072 
L 109.333945 69.838415 
L 106.415191 68.853386 
L 103.430474 68.091242 
L 100.396786 67.556321 
L 97.3314 67.251669 
L 94.251769 67.179021 
L 91.175428 67.33879 
L 88.119891 67.730067 
L 85.102555 68.350623 
L 82.140601 69.196927 
L 79.250892 70.264158 
L 76.44988 71.546242 
L 73.753515 73.035878 
L 71.177146 74.724584 
L 68.735445 76.602747 
L 66.442311 78.659672 
L 64.310802 80.883649 
L 62.353053 83.262015 
L 60.580212 85.781228 
L 59.002371 88.426946 
L 57.628514 91.184104 
L 56.466464 94.037005 
L 55.522837 96.969405 
L 54.803005 99.964609 
L 54.311067 103.005562 
L 54.049823 106.074952 
L 54.020762 109.155303 
L 54.224048 112.229075 
L 54.658524 115.278769 
L 55.321716 118.287021 
L 56.209849 121.236703 
L 57.317866 124.111021 
L 58.639457 126.893609 
L 60.1671 129.568625 
L 61.892095 132.120839 
L 63.804622 134.535719 
L 65.893791 136.799516 
L 68.147708 138.89934 
L 70.553539 140.823237 
L 73.097587 142.560252 
L 75.765368 144.100496 
L 78.541691 145.435198 
L 81.41075 146.556761 
L 84.35621 147.458798 
L 87.3613 148.136173 
L 90.408911 148.58503 
L 93.48169 148.802813 
L 96.562143 148.788282 
L 99.632732 148.54152 
L 102.675972 148.063932 
L 105.674538 147.358236 
L 108.611357 146.428452 
L 111.469707 145.279872 
L 114.233315 143.919037 
L 116.886446 142.353694 
L 119.413994 140.592755 
L 121.801568 138.646247 
L 124.035575 136.525253 
L 126.103294 134.241847 
L 127.992954 131.809032 
L 129.693795 129.240658 
L 131.196133 126.551349 
L 132.491415 123.756417 
L 133.572265 120.871774 
L 134.432531 117.913844 
L 135.067314 114.89947 
L 135.473 111.845813 
L 135.647278 108.770259 
L 135.654545 108 
L 135.654545 108 
" style="fill:none;stroke:#1f77b4;stroke-linecap:square;stroke-width:1.5;"/>
   </g>
   <g id="line2d_59">
    <path clip-path="url(#p803c9cbdc3)" d="M 92.788225 108 
L 92.669954 107.476126 
L 92.230986 106.762254 
L 89.132478 102.500126 
L 88.211226 100.695663 
L 87.449013 98.707446 
L 86.903847 96.628517 
L 86.596184 94.566674 
L 86.508727 92.32569 
L 86.670178 89.917476 
L 86.828904 87.63464 
L 86.674206 87.104343 
L 86.326206 86.710293 
L 85.616012 86.339241 
L 80.240191 84.200623 
L 78.487883 83.131395 
L 76.79079 81.827874 
L 75.24437 80.344082 
L 73.918096 78.764915 
L 72.692053 76.941146 
L 71.49245 74.690971 
L 70.593508 73.104079 
L 70.174461 72.749917 
L 69.664372 72.614042 
L 68.858939 72.692864 
L 63.148436 73.798996 
L 61.092252 73.840474 
L 58.959097 73.654221 
L 56.858548 73.235304 
L 54.894559 72.618745 
L 52.886183 71.744648 
L 50.674897 70.503929 
L 49.072695 69.668448 
L 48.531257 69.605279 
L 48.029033 69.775363 
L 47.391569 70.286974 
L 43.420911 74.121475 
L 41.744627 75.28189 
L 39.870292 76.30339 
L 37.884092 77.118166 
L 35.890946 77.694141 
L 33.701955 78.077257 
L 31.331561 78.244339 
L 29.230102 78.394039 
L 28.710386 78.609264 
L 28.35703 78.992478 
L 28.082124 79.724311 
L 27.672663 81.898713 
L 27.157402 84.068616 
L 26.400567 86.214233 
L 25.487497 88.105115 
L 24.346928 89.929599 
L 23.03425 91.592959 
L 21.635267 93.026998 
L 20.033513 94.369328 
L 16.872291 96.872417 
L 16.745455 97.373311 
L 16.832291 97.974218 
L 17.319341 99.262707 
L 18.31879 101.860137 
L 18.888108 103.993753 
L 19.204169 106.037136 
L 19.302277 108.179727 
L 19.165589 110.313121 
L 18.817592 112.330186 
L 18.226935 114.416416 
L 17.240681 116.924386 
L 16.773889 118.28159 
L 16.769069 118.835906 
L 16.987729 119.312894 
L 17.559548 119.868546 
L 22.3393 123.658418 
L 23.70733 125.213565 
L 24.943015 126.967941 
L 25.9745 128.838642 
L 26.764781 130.72243 
L 27.388018 132.79131 
L 27.907946 135.419044 
L 28.251534 136.798461 
L 28.551589 137.26001 
L 28.999615 137.537065 
L 29.790099 137.690666 
L 35.565823 138.233105 
L 37.549406 138.768968 
L 39.544353 139.545112 
L 41.443988 140.535995 
L 43.158087 141.67923 
L 44.843568 143.08374 
L 46.622121 144.901016 
L 47.927865 146.162218 
L 48.429636 146.379673 
L 48.958379 146.36215 
L 49.711559 146.055224 
L 54.58681 143.498743 
L 56.519147 142.855231 
L 58.603783 142.399905 
L 60.73915 142.174116 
L 62.815551 142.179696 
L 65.027589 142.426066 
L 67.355614 142.93283 
L 69.54661 143.389471 
L 70.081552 143.293941 
L 70.514162 142.985161 
L 70.981518 142.309602 
L 73.721413 137.5004 
L 75.006642 135.915134 
L 76.52033 134.40887 
L 78.198386 133.0706 
L 79.948843 131.960141 
L 81.939501 130.98018 
L 84.161645 130.156203 
L 86.126107 129.421251 
L 86.560138 129.066745 
L 86.787751 128.596934 
L 86.84228 127.813217 
L 86.620954 125.602962 
L 86.506123 123.370435 
L 86.596184 121.433326 
L 86.903847 119.371483 
L 87.449013 117.292554 
L 88.211226 115.304337 
L 89.132478 113.499874 
L 90.290496 111.712258 
L 92.76919 108.206079 
L 92.788225 108 
L 92.788225 108 
" style="fill:none;stroke:#ff7f0e;stroke-linecap:square;stroke-width:1.5;"/>
   </g>
   <g id="line2d_60">
    <g clip-path="url(#p803c9cbdc3)">
     <use style="fill:#1f77b4;stroke:#1f77b4;" x="135.654545" xlink:href="#m6bfb7aabb6" y="108"/>
     <use style="fill:#1f77b4;stroke:#1f77b4;" x="74.416945" xlink:href="#m6bfb7aabb6" y="72.644455"/>
     <use style="fill:#1f77b4;stroke:#1f77b4;" x="74.416945" xlink:href="#m6bfb7aabb6" y="143.355545"/>
     <use style="fill:#1f77b4;stroke:#1f77b4;" x="135.654545" xlink:href="#m6bfb7aabb6" y="108"/>
    </g>
   </g>
   <g id="line2d_61">
    <g clip-path="url(#p803c9cbdc3)">
     <use style="fill:#ff7f0e;stroke:#ff7f0e;" x="92.788225" xlink:href="#m13659a6c42" y="108"/>
     <use style="fill:#ff7f0e;stroke:#ff7f0e;" x="34.612505" xlink:href="#m13659a6c42" y="77.947787"/>
     <use style="fill:#ff7f0e;stroke:#ff7f0e;" x="34.612505" xlink:href="#m13659a6c42" y="138.052213"/>
     <use style="fill:#ff7f0e;stroke:#ff7f0e;" x="92.788225" xlink:href="#m13659a6c42" y="108"/>
    </g>
   </g>
   <g id="line2d_62">
    <path clip-path="url(#p803c9cbdc3)" d="M 135.654545 108 
L 135.654545 108 
" style="fill:none;stroke:#ff0000;stroke-dasharray:5.55,2.4;stroke-dashoffset:0;stroke-width:1.5;"/>
   </g>
   <g id="line2d_63">
    <path clip-path="url(#p803c9cbdc3)" d="M 92.788225 108 
L 92.788225 108 
" style="fill:none;stroke:#ff0000;stroke-dasharray:5.55,2.4;stroke-dashoffset:0;stroke-width:1.5;"/>
   </g>
  </g>
  <g id="axes_12">
   <g id="line2d_64">
    <path clip-path="url(#p693246f772)" d="M 417.295368 46.635429 
L 406.344187 54.281531 
L 395.522172 62.109381 
L 384.83234 70.116797 
L 374.277669 78.301549 
L 367.527273 83.686403 
L 367.527273 83.686403 
" style="fill:none;stroke:#1f77b4;stroke-linecap:square;stroke-width:1.5;"/>
   </g>
   <g id="line2d_65">
    <path clip-path="url(#p693246f772)" d="M 422.072727 72.763229 
L 416.536913 61.876589 
L 403.223896 35.43095 
L 400.404054 30.509737 
L 399.91759 29.713597 
L 399.91759 29.713597 
" style="fill:none;stroke:#ff7f0e;stroke-linecap:square;stroke-width:1.5;"/>
   </g>
   <g id="line2d_66">
    <g clip-path="url(#p693246f772)">
     <use style="fill:#1f77b4;stroke:#1f77b4;" x="417.295368" xlink:href="#m6bfb7aabb6" y="46.635429"/>
     <use style="fill:#1f77b4;stroke:#1f77b4;" x="400.388477" xlink:href="#m6bfb7aabb6" y="58.555382"/>
     <use style="fill:#1f77b4;stroke:#1f77b4;" x="383.795414" xlink:href="#m6bfb7aabb6" y="70.90846"/>
     <use style="fill:#1f77b4;stroke:#1f77b4;" x="367.527273" xlink:href="#m6bfb7aabb6" y="83.686403"/>
    </g>
   </g>
   <g id="line2d_67">
    <g clip-path="url(#p693246f772)">
     <use style="fill:#ff7f0e;stroke:#ff7f0e;" x="422.072727" xlink:href="#m13659a6c42" y="72.763229"/>
     <use style="fill:#ff7f0e;stroke:#ff7f0e;" x="413.512451" xlink:href="#m13659a6c42" y="55.770604"/>
     <use style="fill:#ff7f0e;stroke:#ff7f0e;" x="406.32178" xlink:href="#m13659a6c42" y="41.304356"/>
     <use style="fill:#ff7f0e;stroke:#ff7f0e;" x="399.91759" xlink:href="#m13659a6c42" y="29.713597"/>
    </g>
   </g>
   <g id="line2d_68">
    <path clip-path="url(#p693246f772)" d="M 417.295368 46.635429 
L 367.527273 83.686403 
" style="fill:none;stroke:#ff0000;stroke-dasharray:5.55,2.4;stroke-dashoffset:0;stroke-width:1.5;"/>
   </g>
   <g id="line2d_69">
    <path clip-path="url(#p693246f772)" d="M 422.072727 72.763229 
L 399.91759 29.713597 
" style="fill:none;stroke:#ff0000;stroke-dasharray:5.55,2.4;stroke-dashoffset:0;stroke-width:1.5;"/>
   </g>
  </g>
 </g>
 <defs>
  <clipPath id="pfa221216c8">
   <rect height="47.180898" width="60" x="223.2" y="135.709551"/>
  </clipPath>
  <clipPath id="pb10462d42d">
   <rect height="76.068767" width="60" x="152.4" y="18.665617"/>
  </clipPath>
  <clipPath id="pdd59fce162">
   <rect height="47.180898" width="60" x="223.2" y="33.109551"/>
  </clipPath>
  <clipPath id="pb6502f4700">
   <rect height="76.068767" width="60" x="152.4" y="121.265617"/>
  </clipPath>
  <clipPath id="p00d2421637">
   <rect height="89.815036" width="130.8" x="506.4" y="63.092482"/>
  </clipPath>
  <clipPath id="pf3ba4b5fc4">
   <rect height="48.451387" width="60" x="294" y="135.074306"/>
  </clipPath>
  <clipPath id="pa88c0ee435">
   <rect height="61.221286" width="60" x="435.6" y="128.689357"/>
  </clipPath>
  <clipPath id="p33f12e3769">
   <rect height="59.370086" width="60" x="364.8" y="129.614957"/>
  </clipPath>
  <clipPath id="pc3d9b7d3fc">
   <rect height="61.221286" width="60" x="435.6" y="26.089357"/>
  </clipPath>
  <clipPath id="pbde053b795">
   <rect height="48.451387" width="60" x="294" y="32.474306"/>
  </clipPath>
  <clipPath id="p803c9cbdc3">
   <rect height="89.815036" width="130.8" x="10.8" y="63.092482"/>
  </clipPath>
  <clipPath id="p693246f772">
   <rect height="59.370086" width="60" x="364.8" y="27.014957"/>
  </clipPath>
 </defs>
</svg>
