<?xml version="1.0" encoding="utf-8" standalone="no"?>
<!DOCTYPE svg PUBLIC "-//W3C//DTD SVG 1.1//EN"
  "http://www.w3.org/Graphics/SVG/1.1/DTD/svg11.dtd">
<svg xmlns:xlink="http://www.w3.org/1999/xlink" width="720pt" height="216pt" viewBox="0 0 720 216" xmlns="http://www.w3.org/2000/svg" version="1.1">
 <metadata>
  <rdf:RDF xmlns:dc="http://purl.org/dc/elements/1.1/" xmlns:cc="http://creativecommons.org/ns#" xmlns:rdf="http://www.w3.org/1999/02/22-rdf-syntax-ns#">
   <cc:Work>
    <dc:type rdf:resource="http://purl.org/dc/dcmitype/StillImage"/>
    <dc:date>2022-09-09T23:58:33.120032</dc:date>
    <dc:format>image/svg+xml</dc:format>
    <dc:creator>
     <cc:Agent>
      <dc:title>Matplotlib v3.5.3, https://matplotlib.org/</dc:title>
     </cc:Agent>
    </dc:creator>
   </cc:Work>
  </rdf:RDF>
 </metadata>
 <defs>
  <style type="text/css">*{stroke-linejoin: round; stroke-linecap: butt}</style>
 </defs>
 <g id="figure_1">
  <g id="patch_1">
   <path d="M 0 216 
L 720 216 
L 720 0 
L 0 0 
z
" style="fill: #ffffff"/>
  </g>
  <g id="axes_1">
   <g id="line2d_1">
    <path d="M 200.54717 109.08 
L 200.444267 106.354455 
L 200.136146 103.644427 
L 199.624561 100.965348 
L 198.912423 98.33247 
L 198.003789 95.760784 
L 196.90383 93.264932 
L 195.618811 90.859124 
L 194.156047 88.557058 
L 192.523867 86.371841 
L 190.731563 84.315914 
L 188.78934 82.400984 
L 186.708257 80.637953 
L 184.500162 79.036858 
L 182.177627 77.606817 
L 179.753876 76.355971 
L 177.242709 75.291441 
L 174.658422 74.419289 
L 172.01573 73.74448 
L 169.32968 73.270857 
L 166.615564 73.001116 
L 163.888835 72.936793 
L 161.165019 73.078253 
L 158.459623 73.424693 
L 155.788051 73.974139 
L 153.165514 74.723462 
L 150.606943 75.668397 
L 148.126906 76.803564 
L 145.739523 78.122499 
L 143.458387 79.617692 
L 141.296486 81.280632 
L 139.266128 83.10185 
L 137.378873 85.070976 
L 135.645468 87.176799 
L 134.07578 89.407329 
L 132.678748 91.749868 
L 131.462325 94.191077 
L 130.433437 96.717057 
L 129.597942 99.313427 
L 128.960597 101.965403 
L 128.525031 104.657887 
L 128.293724 107.375548 
L 128.267993 110.102914 
L 128.447984 112.824456 
L 128.832672 115.524678 
L 129.419868 118.188207 
L 130.206228 120.799878 
L 131.187274 123.344821 
L 132.357422 125.808546 
L 133.710008 128.177026 
L 135.237332 130.436775 
L 136.930698 132.574929 
L 138.780464 134.579311 
L 140.776099 136.438512 
L 142.906241 138.141945 
L 145.158761 139.679911 
L 147.520834 141.043655 
L 149.979012 142.225411 
L 152.519299 143.218451 
L 155.127231 144.017122 
L 157.787961 144.616875 
L 160.486339 145.014296 
L 163.207001 145.207123 
L 165.934458 145.194257 
L 168.65318 144.975772 
L 171.347689 144.552912 
L 174.002642 143.928084 
L 176.602924 143.104845 
L 179.133729 142.087884 
L 181.580649 140.88299 
L 183.929751 139.497023 
L 186.167661 137.937875 
L 188.281638 136.214422 
L 190.259644 134.336477 
L 192.090419 132.314732 
L 193.763538 130.160699 
L 195.269475 127.886641 
L 196.599657 125.505506 
L 197.74651 123.030852 
L 198.703503 120.476767 
L 199.465189 117.857794 
L 200.027231 115.188843 
L 200.386428 112.485112 
L 200.540736 109.761993 
L 200.54717 109.08 
L 200.54717 109.08 
" clip-path="url(#p9917ee2adf)" style="fill: none; stroke: #1f77b4; stroke-width: 1.5; stroke-linecap: square"/>
   </g>
   <g id="line2d_2">
    <path d="M 162.593002 109.08 
L 162.488284 108.616158 
L 162.099618 107.98409 
L 159.356176 104.21037 
L 158.416476 102.328609 
L 157.770901 100.548612 
L 157.322959 98.703641 
L 157.06441 96.597605 
L 157.048416 94.681222 
L 157.279858 92.141721 
L 157.301199 90.942763 
L 157.078606 90.427343 
L 156.694312 90.113461 
L 155.818367 89.746741 
L 152.497125 88.515373 
L 150.706888 87.56214 
L 149.168252 86.507753 
L 147.722966 85.265907 
L 146.44534 83.89919 
L 145.226955 82.261132 
L 144.206055 80.517686 
L 142.799579 78.033091 
L 142.402428 77.799245 
L 141.904983 77.749121 
L 140.961443 77.920263 
L 137.750318 78.640802 
L 135.75621 78.831075 
L 133.902401 78.803287 
L 132.012501 78.568412 
L 130.183365 78.134054 
L 128.241763 77.432983 
L 126.395246 76.519479 
L 123.687585 75.094563 
L 123.228552 75.120046 
L 122.782487 75.354408 
L 122.077396 76.018093 
L 119.749199 78.370931 
L 118.166437 79.608003 
L 116.586512 80.583147 
L 114.866581 81.401749 
L 113.092747 82.018802 
L 111.083774 82.47154 
L 109.044642 82.695561 
L 106.022301 82.965409 
L 105.655175 83.240562 
L 105.410253 83.685562 
L 105.177747 84.635256 
L 104.482969 87.89097 
L 103.812861 89.790715 
L 103.004423 91.464917 
L 101.994553 93.080328 
L 100.832299 94.55308 
L 99.386113 96.012144 
L 97.795628 97.293791 
L 95.478663 99.063477 
L 95.285059 99.485806 
L 95.289327 99.976601 
L 95.574842 100.867711 
L 96.81479 104.153381 
L 97.273636 106.120591 
L 97.492982 107.969275 
L 97.510439 109.874515 
L 97.323013 111.739201 
L 96.890257 113.742242 
L 96.243495 115.670419 
L 95.265218 118.391179 
L 95.337813 118.848415 
L 95.614321 119.258213 
L 96.346413 119.855716 
L 99.179484 121.965055 
L 100.628804 123.380002 
L 101.80966 124.82233 
L 102.849167 126.419285 
L 103.693205 128.090177 
L 104.404515 130.006523 
L 104.896191 131.97076 
L 105.545129 134.763482 
L 105.857993 135.102782 
L 106.318153 135.293345 
L 107.266808 135.396682 
L 110.541448 135.607366 
L 112.506117 135.98321 
L 114.276617 136.5289 
L 116.02486 137.283715 
L 117.659864 138.213582 
L 119.329129 139.432175 
L 120.84834 140.830032 
L 123.051645 142.97131 
L 123.498918 143.079987 
L 123.99163 142.984358 
L 124.851929 142.550255 
L 127.739333 140.951411 
L 129.602789 140.208692 
L 131.3914 139.715615 
L 133.271614 139.411629 
L 135.148246 139.316193 
L 137.206064 139.444827 
L 139.230437 139.80275 
L 142.21811 140.401249 
L 142.649619 140.244077 
L 143.01078 139.889823 
L 143.500866 139.049236 
L 145.078296 136.128438 
L 146.252451 134.494986 
L 147.496739 133.115285 
L 148.918602 131.847544 
L 150.44773 130.758812 
L 152.247101 129.762354 
L 154.137394 128.976823 
L 156.948194 127.86771 
L 157.219639 127.49833 
L 157.326608 126.99964 
L 157.279858 126.018279 
L 157.030781 122.689101 
L 157.14163 120.6749 
L 157.448822 118.840017 
L 157.965758 117.00627 
L 158.668479 115.267816 
L 159.646535 113.464118 
L 160.810935 111.791277 
L 162.525813 109.448446 
L 162.593002 109.08 
L 162.593002 109.08 
" clip-path="url(#p9917ee2adf)" style="fill: none; stroke: #ff7f0e; stroke-width: 1.5; stroke-linecap: square"/>
   </g>
   <g id="line2d_3">
    <defs>
     <path id="m47fb2cce38" d="M 0 1.5 
C 0.397805 1.5 0.77937 1.341951 1.06066 1.06066 
C 1.341951 0.77937 1.5 0.397805 1.5 0 
C 1.5 -0.397805 1.341951 -0.77937 1.06066 -1.06066 
C 0.77937 -1.341951 0.397805 -1.5 0 -1.5 
C -0.397805 -1.5 -0.77937 -1.341951 -1.06066 -1.06066 
C -1.341951 -0.77937 -1.5 -0.397805 -1.5 0 
C -1.5 0.397805 -1.341951 0.77937 -1.06066 1.06066 
C -0.77937 1.341951 -0.397805 1.5 0 1.5 
z
" style="stroke: #1f77b4"/>
    </defs>
    <g clip-path="url(#p9917ee2adf)">
     <use xlink:href="#m47fb2cce38" x="200.54717" y="109.08" style="fill: #1f77b4; stroke: #1f77b4"/>
     <use xlink:href="#m47fb2cce38" x="146.32693" y="77.77593" style="fill: #1f77b4; stroke: #1f77b4"/>
     <use xlink:href="#m47fb2cce38" x="146.32693" y="140.38407" style="fill: #1f77b4; stroke: #1f77b4"/>
     <use xlink:href="#m47fb2cce38" x="200.54717" y="109.08" style="fill: #1f77b4; stroke: #1f77b4"/>
    </g>
   </g>
   <g id="line2d_4">
    <defs>
     <path id="m5e2a13c64a" d="M 0 1.5 
C 0.397805 1.5 0.77937 1.341951 1.06066 1.06066 
C 1.341951 0.77937 1.5 0.397805 1.5 0 
C 1.5 -0.397805 1.341951 -0.77937 1.06066 -1.06066 
C 0.77937 -1.341951 0.397805 -1.5 0 -1.5 
C -0.397805 -1.5 -0.77937 -1.341951 -1.06066 -1.06066 
C -1.341951 -0.77937 -1.5 -0.397805 -1.5 0 
C -1.5 0.397805 -1.341951 0.77937 -1.06066 1.06066 
C -0.77937 1.341951 -0.397805 1.5 0 1.5 
z
" style="stroke: #ff7f0e"/>
    </defs>
    <g clip-path="url(#p9917ee2adf)">
     <use xlink:href="#m5e2a13c64a" x="162.593002" y="109.08" style="fill: #ff7f0e; stroke: #ff7f0e"/>
     <use xlink:href="#m5e2a13c64a" x="111.083774" y="82.47154" style="fill: #ff7f0e; stroke: #ff7f0e"/>
     <use xlink:href="#m5e2a13c64a" x="111.083774" y="135.68846" style="fill: #ff7f0e; stroke: #ff7f0e"/>
     <use xlink:href="#m5e2a13c64a" x="162.593002" y="109.08" style="fill: #ff7f0e; stroke: #ff7f0e"/>
    </g>
   </g>
   <g id="line2d_5">
    <path d="M 200.54717 109.08 
L 200.54717 109.08 
" clip-path="url(#p9917ee2adf)" style="fill: none; stroke-dasharray: 5.55,2.4; stroke-dashoffset: 0; stroke: #ff0000; stroke-width: 1.5"/>
   </g>
   <g id="line2d_6">
    <path d="M 162.593002 109.08 
L 162.593002 109.08 
" clip-path="url(#p9917ee2adf)" style="fill: none; stroke-dasharray: 5.55,2.4; stroke-dashoffset: 0; stroke: #ff0000; stroke-width: 1.5"/>
   </g>
  </g>
  <g id="axes_2">
   <g id="line2d_7">
    <path d="M 251.475941 35.888536 
L 249.156701 37.357099 
L 246.965149 39.010173 
L 244.915929 40.836713 
L 243.022732 42.824515 
L 241.298208 44.960298 
L 239.753879 47.229791 
L 238.400063 49.617832 
L 237.245807 52.108463 
L 236.298821 54.685044 
L 235.565434 57.33036 
L 235.050546 60.026735 
L 234.757596 62.756155 
L 234.688542 65.500383 
L 234.843846 68.241082 
L 235.22247 70.959941 
L 235.821884 73.638794 
L 236.638083 76.259743 
L 237.665614 78.805275 
L 238.89761 81.258382 
L 240.325842 83.602675 
L 241.940765 85.822489 
L 243.731591 87.902993 
L 245.686352 89.830286 
L 247.79199 91.591491 
L 250.034434 93.17484 
L 251.475941 94.056172 
L 251.475941 94.056172 
" clip-path="url(#p5d03da90b8)" style="fill: none; stroke: #1f77b4; stroke-width: 1.5; stroke-linecap: square"/>
   </g>
   <g id="line2d_8">
    <path d="M 266.588336 64.972354 
L 266.477747 64.511438 
L 266.046321 63.843727 
L 263.670415 60.601094 
L 262.784421 58.876216 
L 262.137011 57.140317 
L 261.692073 55.331942 
L 261.457658 53.465461 
L 261.440529 51.516423 
L 261.676054 48.987813 
L 261.652288 48.029115 
L 261.427776 47.599266 
L 260.981634 47.28328 
L 259.941667 46.893117 
L 257.361801 45.936129 
L 255.62554 45.029232 
L 254.038137 43.941105 
L 252.632338 42.710625 
L 251.348275 41.28725 
L 250.227032 39.70139 
L 249.204386 37.843747 
L 248.265474 36.193218 
L 247.856791 35.919096 
L 247.367623 35.863629 
L 246.491003 36.022632 
L 243.17289 36.739542 
L 241.279697 36.878906 
L 239.346578 36.792007 
L 237.504389 36.488418 
L 235.674891 35.961071 
L 233.909098 35.219693 
L 231.995677 34.157952 
L 230.564485 33.422867 
L 230.07088 33.406713 
L 229.629671 33.618241 
L 228.981101 34.218475 
L 226.525806 36.662334 
L 225.001234 37.801429 
L 223.323056 38.768998 
L 221.607136 39.503681 
L 219.784077 40.042458 
L 218.732419 40.251109 
L 218.732419 40.251109 
" clip-path="url(#p5d03da90b8)" style="fill: none; stroke: #ff7f0e; stroke-width: 1.5; stroke-linecap: square"/>
   </g>
   <g id="line2d_9">
    <g clip-path="url(#p5d03da90b8)">
     <use xlink:href="#m47fb2cce38" x="251.475941" y="35.888536" style="fill: #1f77b4; stroke: #1f77b4"/>
     <use xlink:href="#m47fb2cce38" x="236.7097" y="53.486257" style="fill: #1f77b4; stroke: #1f77b4"/>
     <use xlink:href="#m47fb2cce38" x="236.7097" y="76.458451" style="fill: #1f77b4; stroke: #1f77b4"/>
     <use xlink:href="#m47fb2cce38" x="251.475941" y="94.056172" style="fill: #1f77b4; stroke: #1f77b4"/>
    </g>
   </g>
   <g id="line2d_10">
    <g clip-path="url(#p5d03da90b8)">
     <use xlink:href="#m5e2a13c64a" x="266.588336" y="64.972354" style="fill: #ff7f0e; stroke: #ff7f0e"/>
     <use xlink:href="#m5e2a13c64a" x="259.124231" y="46.623574" style="fill: #ff7f0e; stroke: #ff7f0e"/>
     <use xlink:href="#m5e2a13c64a" x="240.224453" y="36.860391" style="fill: #ff7f0e; stroke: #ff7f0e"/>
     <use xlink:href="#m5e2a13c64a" x="218.732419" y="40.251109" style="fill: #ff7f0e; stroke: #ff7f0e"/>
    </g>
   </g>
   <g id="line2d_11">
    <path d="M 251.475941 35.888536 
L 251.475941 94.056172 
" clip-path="url(#p5d03da90b8)" style="fill: none; stroke-dasharray: 5.55,2.4; stroke-dashoffset: 0; stroke: #ff0000; stroke-width: 1.5"/>
   </g>
   <g id="line2d_12">
    <path d="M 266.588336 64.972354 
L 218.732419 40.251109 
" clip-path="url(#p5d03da90b8)" style="fill: none; stroke-dasharray: 5.55,2.4; stroke-dashoffset: 0; stroke: #ff0000; stroke-width: 1.5"/>
   </g>
  </g>
  <g id="axes_3">
   <g id="line2d_13">
    <path d="M 313.428744 44.963874 
L 310.015047 47.064126 
L 306.724039 49.351845 
L 303.566006 51.819882 
L 300.550813 54.460526 
L 297.687883 57.265525 
L 294.986162 60.226115 
L 292.454092 63.333044 
L 290.099585 66.576604 
L 287.929998 69.94666 
L 285.952111 73.432682 
L 284.172103 77.023776 
L 282.595536 80.708722 
L 281.90223 82.53571 
L 281.90223 82.53571 
" clip-path="url(#pde376a7b97)" style="fill: none; stroke: #1f77b4; stroke-width: 1.5; stroke-linecap: square"/>
   </g>
   <g id="line2d_14">
    <path d="M 329.758148 67.883606 
L 326.746904 66.743987 
L 324.165238 65.530015 
L 321.7741 64.164417 
L 319.509418 62.619992 
L 317.385862 60.909024 
L 315.358613 58.987031 
L 313.49208 56.903817 
L 311.802158 54.679625 
L 310.254408 52.265908 
L 308.782087 49.545034 
L 306.850791 45.944268 
L 306.235708 45.31194 
L 305.644057 45.010122 
L 304.945063 44.904919 
L 303.933709 44.998868 
L 302.011038 45.449013 
L 297.725265 46.456794 
L 294.904708 46.876673 
L 292.128157 47.068041 
L 289.406368 47.038823 
L 289.406368 47.038823 
" clip-path="url(#pde376a7b97)" style="fill: none; stroke: #ff7f0e; stroke-width: 1.5; stroke-linecap: square"/>
   </g>
   <g id="line2d_15">
    <g clip-path="url(#pde376a7b97)">
     <use xlink:href="#m47fb2cce38" x="313.428744" y="44.963874" style="fill: #1f77b4; stroke: #1f77b4"/>
     <use xlink:href="#m47fb2cce38" x="300.074984" y="54.905379" style="fill: #1f77b4; stroke: #1f77b4"/>
     <use xlink:href="#m47fb2cce38" x="289.373846" y="67.658499" style="fill: #1f77b4; stroke: #1f77b4"/>
     <use xlink:href="#m47fb2cce38" x="281.90223" y="82.53571" style="fill: #1f77b4; stroke: #1f77b4"/>
    </g>
   </g>
   <g id="line2d_16">
    <g clip-path="url(#pde376a7b97)">
     <use xlink:href="#m5e2a13c64a" x="329.758148" y="67.883606" style="fill: #ff7f0e; stroke: #ff7f0e"/>
     <use xlink:href="#m5e2a13c64a" x="312.552613" y="55.713267" style="fill: #ff7f0e; stroke: #ff7f0e"/>
     <use xlink:href="#m5e2a13c64a" x="305.278442" y="44.929797" style="fill: #ff7f0e; stroke: #ff7f0e"/>
     <use xlink:href="#m5e2a13c64a" x="289.406368" y="47.038823" style="fill: #ff7f0e; stroke: #ff7f0e"/>
    </g>
   </g>
   <g id="line2d_17">
    <path d="M 313.428744 44.963874 
L 281.90223 82.53571 
" clip-path="url(#pde376a7b97)" style="fill: none; stroke-dasharray: 5.55,2.4; stroke-dashoffset: 0; stroke: #ff0000; stroke-width: 1.5"/>
   </g>
   <g id="line2d_18">
    <path d="M 329.758148 67.883606 
L 289.406368 47.038823 
" clip-path="url(#pde376a7b97)" style="fill: none; stroke-dasharray: 5.55,2.4; stroke-dashoffset: 0; stroke: #ff0000; stroke-width: 1.5"/>
   </g>
  </g>
  <g id="axes_4">
   <g id="line2d_19">
    <path d="M 392.927959 44.519739 
L 386.452767 48.385986 
L 380.093826 52.440594 
L 373.856612 56.680069 
L 367.7465 61.100759 
L 361.768751 65.698857 
L 355.928517 70.470401 
L 350.230826 75.411282 
L 345.072041 80.14715 
L 345.072041 80.14715 
" clip-path="url(#pe732c52bbd)" style="fill: none; stroke: #1f77b4; stroke-width: 1.5; stroke-linecap: square"/>
   </g>
   <g id="line2d_20">
    <path d="M 389.788165 83.04238 
L 386.714681 78.785272 
L 383.785151 74.351284 
L 380.946232 69.648031 
L 378.158825 64.594509 
L 375.036302 58.446762 
L 371.177062 50.875771 
L 369.733443 48.556584 
L 368.549629 47.052149 
L 367.446639 45.996632 
L 366.352158 45.252342 
L 365.213772 44.745705 
L 363.971971 44.43566 
L 363.719691 44.39762 
L 363.719691 44.39762 
" clip-path="url(#pe732c52bbd)" style="fill: none; stroke: #ff7f0e; stroke-width: 1.5; stroke-linecap: square"/>
   </g>
   <g id="line2d_21">
    <g clip-path="url(#pe732c52bbd)">
     <use xlink:href="#m47fb2cce38" x="392.927959" y="44.519739" style="fill: #1f77b4; stroke: #1f77b4"/>
     <use xlink:href="#m47fb2cce38" x="376.069875" y="55.144975" style="fill: #1f77b4; stroke: #1f77b4"/>
     <use xlink:href="#m47fb2cce38" x="360.085859" y="67.044634" style="fill: #1f77b4; stroke: #1f77b4"/>
     <use xlink:href="#m47fb2cce38" x="345.072041" y="80.14715" style="fill: #1f77b4; stroke: #1f77b4"/>
    </g>
   </g>
   <g id="line2d_22">
    <g clip-path="url(#pe732c52bbd)">
     <use xlink:href="#m5e2a13c64a" x="389.788165" y="83.04238" style="fill: #ff7f0e; stroke: #ff7f0e"/>
     <use xlink:href="#m5e2a13c64a" x="377.604219" y="63.536439" style="fill: #ff7f0e; stroke: #ff7f0e"/>
     <use xlink:href="#m5e2a13c64a" x="370.488655" y="49.710191" style="fill: #ff7f0e; stroke: #ff7f0e"/>
     <use xlink:href="#m5e2a13c64a" x="363.719691" y="44.39762" style="fill: #ff7f0e; stroke: #ff7f0e"/>
    </g>
   </g>
   <g id="line2d_23">
    <path d="M 392.927959 44.519739 
L 345.072041 80.14715 
" clip-path="url(#pe732c52bbd)" style="fill: none; stroke-dasharray: 5.55,2.4; stroke-dashoffset: 0; stroke: #ff0000; stroke-width: 1.5"/>
   </g>
   <g id="line2d_24">
    <path d="M 389.788165 83.04238 
L 363.719691 44.39762 
" clip-path="url(#pe732c52bbd)" style="fill: none; stroke-dasharray: 5.55,2.4; stroke-dashoffset: 0; stroke: #ff0000; stroke-width: 1.5"/>
   </g>
  </g>
  <g id="axes_5">
   <g id="line2d_25">
    <path d="M 451.906313 54.889763 
L 441.676458 62.04051 
L 431.575364 69.372017 
L 421.606223 76.881967 
L 411.772189 84.567986 
L 408.241852 87.39675 
L 408.241852 87.39675 
" clip-path="url(#p846322b39a)" style="fill: none; stroke: #1f77b4; stroke-width: 1.5; stroke-linecap: square"/>
   </g>
   <g id="line2d_26">
    <path d="M 456.09777 77.81321 
L 450.890865 67.559218 
L 439.661658 45.24441 
L 437.004428 40.606148 
L 436.659773 40.04325 
L 436.659773 40.04325 
" clip-path="url(#p846322b39a)" style="fill: none; stroke: #ff7f0e; stroke-width: 1.5; stroke-linecap: square"/>
   </g>
   <g id="line2d_27">
    <g clip-path="url(#p846322b39a)">
     <use xlink:href="#m47fb2cce38" x="451.906313" y="54.889763" style="fill: #1f77b4; stroke: #1f77b4"/>
     <use xlink:href="#m47fb2cce38" x="437.072909" y="65.347836" style="fill: #1f77b4; stroke: #1f77b4"/>
     <use xlink:href="#m47fb2cce38" x="422.514845" y="76.185913" style="fill: #1f77b4; stroke: #1f77b4"/>
     <use xlink:href="#m47fb2cce38" x="408.241852" y="87.39675" style="fill: #1f77b4; stroke: #1f77b4"/>
    </g>
   </g>
   <g id="line2d_28">
    <g clip-path="url(#p846322b39a)">
     <use xlink:href="#m5e2a13c64a" x="456.09777" y="77.81321" style="fill: #ff7f0e; stroke: #ff7f0e"/>
     <use xlink:href="#m5e2a13c64a" x="448.587339" y="62.904586" style="fill: #ff7f0e; stroke: #ff7f0e"/>
     <use xlink:href="#m5e2a13c64a" x="442.278543" y="50.212501" style="fill: #ff7f0e; stroke: #ff7f0e"/>
     <use xlink:href="#m5e2a13c64a" x="436.659773" y="40.04325" style="fill: #ff7f0e; stroke: #ff7f0e"/>
    </g>
   </g>
   <g id="line2d_29">
    <path d="M 451.906313 54.889763 
L 408.241852 87.39675 
" clip-path="url(#p846322b39a)" style="fill: none; stroke-dasharray: 5.55,2.4; stroke-dashoffset: 0; stroke: #ff0000; stroke-width: 1.5"/>
   </g>
   <g id="line2d_30">
    <path d="M 456.09777 77.81321 
L 436.659773 40.04325 
" clip-path="url(#p846322b39a)" style="fill: none; stroke-dasharray: 5.55,2.4; stroke-dashoffset: 0; stroke: #ff0000; stroke-width: 1.5"/>
   </g>
  </g>
  <g id="axes_6">
   <g id="line2d_31">
    <path d="M 519.267581 54.394899 
L 500.817445 67.183929 
L 482.49499 80.155225 
L 471.411664 88.135007 
L 471.411664 88.135007 
" clip-path="url(#p7cbdf35564)" style="fill: none; stroke: #1f77b4; stroke-width: 1.5; stroke-linecap: square"/>
   </g>
   <g id="line2d_32">
    <path d="M 508.55982 80.252532 
L 489.769013 42.369977 
L 488.206214 39.304993 
L 488.206214 39.304993 
" clip-path="url(#p7cbdf35564)" style="fill: none; stroke: #ff7f0e; stroke-width: 1.5; stroke-linecap: square"/>
   </g>
   <g id="line2d_33">
    <g clip-path="url(#p7cbdf35564)">
     <use xlink:href="#m47fb2cce38" x="519.267581" y="54.394899" style="fill: #1f77b4; stroke: #1f77b4"/>
     <use xlink:href="#m47fb2cce38" x="503.218871" y="65.503972" style="fill: #1f77b4; stroke: #1f77b4"/>
     <use xlink:href="#m47fb2cce38" x="487.266503" y="76.750953" style="fill: #1f77b4; stroke: #1f77b4"/>
     <use xlink:href="#m47fb2cce38" x="471.411664" y="88.135007" style="fill: #1f77b4; stroke: #1f77b4"/>
    </g>
   </g>
   <g id="line2d_34">
    <g clip-path="url(#p7cbdf35564)">
     <use xlink:href="#m5e2a13c64a" x="508.55982" y="80.252532" style="fill: #ff7f0e; stroke: #ff7f0e"/>
     <use xlink:href="#m5e2a13c64a" x="501.420799" y="65.751052" style="fill: #ff7f0e; stroke: #ff7f0e"/>
     <use xlink:href="#m5e2a13c64a" x="494.656796" y="52.089583" style="fill: #ff7f0e; stroke: #ff7f0e"/>
     <use xlink:href="#m5e2a13c64a" x="488.206214" y="39.304993" style="fill: #ff7f0e; stroke: #ff7f0e"/>
    </g>
   </g>
   <g id="line2d_35">
    <path d="M 519.267581 54.394899 
L 471.411664 88.135007 
" clip-path="url(#p7cbdf35564)" style="fill: none; stroke-dasharray: 5.55,2.4; stroke-dashoffset: 0; stroke: #ff0000; stroke-width: 1.5"/>
   </g>
   <g id="line2d_36">
    <path d="M 508.55982 80.252532 
L 488.206214 39.304993 
" clip-path="url(#p7cbdf35564)" style="fill: none; stroke-dasharray: 5.55,2.4; stroke-dashoffset: 0; stroke: #ff0000; stroke-width: 1.5"/>
   </g>
  </g>
  <g id="axes_7">
   <g id="line2d_37">
    <path d="M 642.735849 109.08 
L 642.632947 106.354455 
L 642.324826 103.644427 
L 641.81324 100.965348 
L 641.101103 98.33247 
L 640.192468 95.760784 
L 639.09251 93.264932 
L 637.80749 90.859124 
L 636.344726 88.557058 
L 634.712546 86.371841 
L 632.920242 84.315914 
L 630.97802 82.400984 
L 628.896936 80.637953 
L 626.688841 79.036858 
L 624.366307 77.606817 
L 621.942555 76.355971 
L 619.431388 75.291441 
L 616.847101 74.419289 
L 614.204409 73.74448 
L 611.518359 73.270857 
L 608.804243 73.001116 
L 606.077514 72.936793 
L 603.353698 73.078253 
L 600.648302 73.424693 
L 597.97673 73.974139 
L 595.354193 74.723462 
L 592.795623 75.668397 
L 590.315586 76.803564 
L 587.928203 78.122499 
L 585.647067 79.617692 
L 583.485165 81.280632 
L 581.454807 83.10185 
L 579.567553 85.070976 
L 577.834147 87.176799 
L 576.26446 89.407329 
L 574.867427 91.749868 
L 573.651004 94.191077 
L 572.622116 96.717057 
L 571.786621 99.313427 
L 571.149277 101.965403 
L 570.713711 104.657887 
L 570.482404 107.375548 
L 570.456672 110.102914 
L 570.636663 112.824456 
L 571.021352 115.524678 
L 571.608547 118.188207 
L 572.394907 120.799878 
L 573.375953 123.344821 
L 574.546101 125.808546 
L 575.898687 128.177026 
L 577.426011 130.436775 
L 579.119377 132.574929 
L 580.969143 134.579311 
L 582.964779 136.438512 
L 585.09492 138.141945 
L 587.34744 139.679911 
L 589.709513 141.043655 
L 592.167691 142.225411 
L 594.707978 143.218451 
L 597.31591 144.017122 
L 599.97664 144.616875 
L 602.675018 145.014296 
L 605.39568 145.207123 
L 608.123137 145.194257 
L 610.841859 144.975772 
L 613.536368 144.552912 
L 616.191321 143.928084 
L 618.791603 143.104845 
L 621.322408 142.087884 
L 623.769328 140.88299 
L 626.11843 139.497023 
L 628.356341 137.937875 
L 630.470317 136.214422 
L 632.448324 134.336477 
L 634.279098 132.314732 
L 635.952217 130.160699 
L 637.458155 127.886641 
L 638.788336 125.505506 
L 639.935189 123.030852 
L 640.892182 120.476767 
L 641.653868 117.857794 
L 642.21591 115.188843 
L 642.575107 112.485112 
L 642.729415 109.761993 
L 642.735849 109.08 
L 642.735849 109.08 
" clip-path="url(#p99443fb5c4)" style="fill: none; stroke: #1f77b4; stroke-width: 1.5; stroke-linecap: square"/>
   </g>
   <g id="line2d_38">
    <path d="M 604.781681 109.08 
L 604.676963 108.616158 
L 604.288297 107.98409 
L 601.544855 104.21037 
L 600.605155 102.328609 
L 599.959581 100.548612 
L 599.511638 98.703641 
L 599.253089 96.597605 
L 599.237095 94.681222 
L 599.468537 92.141721 
L 599.489878 90.942763 
L 599.267285 90.427343 
L 598.882991 90.113461 
L 598.007047 89.746741 
L 594.685804 88.515373 
L 592.895567 87.56214 
L 591.356932 86.507753 
L 589.911645 85.265907 
L 588.63402 83.89919 
L 587.415634 82.261132 
L 586.394734 80.517686 
L 584.988259 78.033091 
L 584.591107 77.799245 
L 584.093662 77.749121 
L 583.150122 77.920263 
L 579.938997 78.640802 
L 577.944889 78.831075 
L 576.091081 78.803287 
L 574.20118 78.568412 
L 572.372045 78.134054 
L 570.430442 77.432983 
L 568.583925 76.519479 
L 565.876265 75.094563 
L 565.417232 75.120046 
L 564.971167 75.354408 
L 564.266076 76.018093 
L 561.937878 78.370931 
L 560.355116 79.608003 
L 558.775191 80.583147 
L 557.05526 81.401749 
L 555.281426 82.018802 
L 553.272453 82.47154 
L 551.233321 82.695561 
L 548.21098 82.965409 
L 547.843854 83.240562 
L 547.598933 83.685562 
L 547.366426 84.635256 
L 546.671648 87.89097 
L 546.00154 89.790715 
L 545.193102 91.464917 
L 544.183233 93.080328 
L 543.020978 94.55308 
L 541.574792 96.012144 
L 539.984307 97.293791 
L 537.667342 99.063477 
L 537.473738 99.485806 
L 537.478006 99.976601 
L 537.763522 100.867711 
L 539.003469 104.153381 
L 539.462315 106.120591 
L 539.681661 107.969275 
L 539.699119 109.874515 
L 539.511692 111.739201 
L 539.078936 113.742242 
L 538.432174 115.670419 
L 537.453897 118.391179 
L 537.526492 118.848415 
L 537.803 119.258213 
L 538.535092 119.855716 
L 541.368163 121.965055 
L 542.817484 123.380002 
L 543.998339 124.82233 
L 545.037846 126.419285 
L 545.881884 128.090177 
L 546.593194 130.006523 
L 547.084871 131.97076 
L 547.733808 134.763482 
L 548.046672 135.102782 
L 548.506833 135.293345 
L 549.455488 135.396682 
L 552.730127 135.607366 
L 554.694796 135.98321 
L 556.465296 136.5289 
L 558.213539 137.283715 
L 559.848543 138.213582 
L 561.517808 139.432175 
L 563.037019 140.830032 
L 565.240324 142.97131 
L 565.687598 143.079987 
L 566.180309 142.984358 
L 567.040608 142.550255 
L 569.928012 140.951411 
L 571.791469 140.208692 
L 573.580079 139.715615 
L 575.460293 139.411629 
L 577.336925 139.316193 
L 579.394743 139.444827 
L 581.419116 139.80275 
L 584.406789 140.401249 
L 584.838298 140.244077 
L 585.199459 139.889823 
L 585.689545 139.049236 
L 587.266975 136.128438 
L 588.441131 134.494986 
L 589.685418 133.115285 
L 591.107282 131.847544 
L 592.636409 130.758812 
L 594.43578 129.762354 
L 596.326073 128.976823 
L 599.136873 127.86771 
L 599.408319 127.49833 
L 599.515287 126.99964 
L 599.468537 126.018279 
L 599.21946 122.689101 
L 599.330309 120.6749 
L 599.637501 118.840017 
L 600.154437 117.00627 
L 600.857159 115.267816 
L 601.835214 113.464118 
L 602.999614 111.791277 
L 604.714492 109.448446 
L 604.781681 109.08 
L 604.781681 109.08 
" clip-path="url(#p99443fb5c4)" style="fill: none; stroke: #ff7f0e; stroke-width: 1.5; stroke-linecap: square"/>
   </g>
   <g id="line2d_39">
    <defs>
     <path id="mb2b7e5d1b8" d="M 0 3 
C 0.795609 3 1.55874 2.683901 2.12132 2.12132 
C 2.683901 1.55874 3 0.795609 3 0 
C 3 -0.795609 2.683901 -1.55874 2.12132 -2.12132 
C 1.55874 -2.683901 0.795609 -3 0 -3 
C -0.795609 -3 -1.55874 -2.683901 -2.12132 -2.12132 
C -2.683901 -1.55874 -3 -0.795609 -3 0 
C -3 0.795609 -2.683901 1.55874 -2.12132 2.12132 
C -1.55874 2.683901 -0.795609 3 0 3 
z
" style="stroke: #ff0000"/>
    </defs>
    <g clip-path="url(#p99443fb5c4)">
     <use xlink:href="#mb2b7e5d1b8" x="585.760461" y="79.537418" style="fill: #ff0000; stroke: #ff0000"/>
     <use xlink:href="#mb2b7e5d1b8" x="585.760461" y="138.622582" style="fill: #ff0000; stroke: #ff0000"/>
    </g>
   </g>
  </g>
  <g id="axes_8">
   <g id="line2d_40">
    <path d="M 251.475941 124.103828 
L 249.156701 125.572391 
L 246.965149 127.225465 
L 244.915929 129.052005 
L 243.022732 131.039807 
L 241.298208 133.17559 
L 239.753879 135.445083 
L 238.400063 137.833123 
L 237.245807 140.323754 
L 236.298821 142.900336 
L 235.565434 145.545651 
L 235.050546 148.242027 
L 234.757596 150.971447 
L 234.688542 153.715674 
L 234.843846 156.456374 
L 235.22247 159.175233 
L 235.821884 161.854086 
L 236.638083 164.475035 
L 237.665614 167.020567 
L 238.89761 169.473674 
L 240.325842 171.817967 
L 241.940765 174.037781 
L 243.731591 176.118285 
L 245.686352 178.045578 
L 247.79199 179.806783 
L 250.034434 181.390132 
L 251.475941 182.271464 
L 251.475941 182.271464 
" clip-path="url(#p21fe14dc34)" style="fill: none; stroke: #1f77b4; stroke-width: 1.5; stroke-linecap: square"/>
   </g>
   <g id="line2d_41">
    <path d="M 218.732419 177.908891 
L 220.598905 178.329518 
L 222.337821 178.940397 
L 224.015693 179.757876 
L 225.61478 180.783992 
L 227.089442 181.993313 
L 228.611647 183.542783 
L 229.741348 184.615349 
L 230.210254 184.773925 
L 230.691977 184.698841 
L 231.480459 184.309468 
L 234.515215 182.658877 
L 236.295713 181.993605 
L 238.176768 181.535189 
L 240.030028 181.310585 
L 241.932521 181.304198 
L 243.832386 181.52041 
L 245.961144 182.000426 
L 247.502394 182.299076 
L 247.986032 182.18471 
L 248.352254 181.867194 
L 248.804455 181.121351 
L 250.501327 178.032844 
L 251.646941 176.510188 
L 252.987531 175.110483 
L 254.428741 173.924684 
L 256.026535 172.897493 
L 257.738654 172.059707 
L 259.778732 171.319947 
L 261.221043 170.737875 
L 261.558884 170.376618 
L 261.689782 169.906378 
L 261.662386 169.025983 
L 261.422192 165.576528 
L 261.55769 163.679836 
L 261.923221 161.778198 
L 262.489749 159.999497 
L 263.274984 158.267147 
L 264.261142 156.630106 
L 265.581328 154.895077 
L 266.491045 153.61859 
L 266.588336 153.187646 
L 266.588336 153.187646 
" clip-path="url(#p21fe14dc34)" style="fill: none; stroke: #ff7f0e; stroke-width: 1.5; stroke-linecap: square"/>
   </g>
   <g id="line2d_42">
    <g clip-path="url(#p21fe14dc34)">
     <use xlink:href="#m47fb2cce38" x="251.475941" y="124.103828" style="fill: #1f77b4; stroke: #1f77b4"/>
     <use xlink:href="#m47fb2cce38" x="236.7097" y="141.701549" style="fill: #1f77b4; stroke: #1f77b4"/>
     <use xlink:href="#m47fb2cce38" x="236.7097" y="164.673743" style="fill: #1f77b4; stroke: #1f77b4"/>
     <use xlink:href="#m47fb2cce38" x="251.475941" y="182.271464" style="fill: #1f77b4; stroke: #1f77b4"/>
    </g>
   </g>
   <g id="line2d_43">
    <g clip-path="url(#p21fe14dc34)">
     <use xlink:href="#m5e2a13c64a" x="218.732419" y="177.908891" style="fill: #ff7f0e; stroke: #ff7f0e"/>
     <use xlink:href="#m5e2a13c64a" x="240.224453" y="181.299609" style="fill: #ff7f0e; stroke: #ff7f0e"/>
     <use xlink:href="#m5e2a13c64a" x="259.124231" y="171.536426" style="fill: #ff7f0e; stroke: #ff7f0e"/>
     <use xlink:href="#m5e2a13c64a" x="266.588336" y="153.187646" style="fill: #ff7f0e; stroke: #ff7f0e"/>
    </g>
   </g>
   <g id="line2d_44">
    <path d="M 251.475941 124.103828 
L 251.475941 182.271464 
" clip-path="url(#p21fe14dc34)" style="fill: none; stroke-dasharray: 5.55,2.4; stroke-dashoffset: 0; stroke: #ff0000; stroke-width: 1.5"/>
   </g>
   <g id="line2d_45">
    <path d="M 218.732419 177.908891 
L 266.588336 153.187646 
" clip-path="url(#p21fe14dc34)" style="fill: none; stroke-dasharray: 5.55,2.4; stroke-dashoffset: 0; stroke: #ff0000; stroke-width: 1.5"/>
   </g>
  </g>
  <g id="axes_9">
   <g id="line2d_46">
    <path d="M 281.90223 135.62429 
L 283.377792 139.35083 
L 285.059278 142.989098 
L 286.941433 146.527725 
L 289.018377 149.955653 
L 291.28362 153.262171 
L 293.730082 156.436948 
L 296.350121 159.470062 
L 299.135548 162.352037 
L 302.077661 165.073868 
L 305.167265 167.627048 
L 308.394708 170.003601 
L 311.749903 172.1961 
L 313.428744 173.196126 
L 313.428744 173.196126 
" clip-path="url(#p45ba3709da)" style="fill: none; stroke: #1f77b4; stroke-width: 1.5; stroke-linecap: square"/>
   </g>
   <g id="line2d_47">
    <path d="M 289.406368 171.121177 
L 292.194805 171.093942 
L 294.96678 171.290144 
L 297.780279 171.713586 
L 300.85253 172.40882 
L 304.531518 173.240542 
L 305.424815 173.205707 
L 306.065469 172.961459 
L 306.60547 172.512205 
L 307.182341 171.72327 
L 308.059837 170.073811 
L 310.225868 165.942686 
L 311.766277 163.531828 
L 313.449566 161.307799 
L 315.31036 159.222702 
L 317.33308 157.297179 
L 319.453637 155.581492 
L 321.716993 154.031357 
L 324.108828 152.659375 
L 326.640644 151.461214 
L 329.438676 150.386183 
L 329.758148 150.276394 
L 329.758148 150.276394 
" clip-path="url(#p45ba3709da)" style="fill: none; stroke: #ff7f0e; stroke-width: 1.5; stroke-linecap: square"/>
   </g>
   <g id="line2d_48">
    <g clip-path="url(#p45ba3709da)">
     <use xlink:href="#m47fb2cce38" x="281.90223" y="135.62429" style="fill: #1f77b4; stroke: #1f77b4"/>
     <use xlink:href="#m47fb2cce38" x="289.373846" y="150.501501" style="fill: #1f77b4; stroke: #1f77b4"/>
     <use xlink:href="#m47fb2cce38" x="300.074984" y="163.254621" style="fill: #1f77b4; stroke: #1f77b4"/>
     <use xlink:href="#m47fb2cce38" x="313.428744" y="173.196126" style="fill: #1f77b4; stroke: #1f77b4"/>
    </g>
   </g>
   <g id="line2d_49">
    <g clip-path="url(#p45ba3709da)">
     <use xlink:href="#m5e2a13c64a" x="289.406368" y="171.121177" style="fill: #ff7f0e; stroke: #ff7f0e"/>
     <use xlink:href="#m5e2a13c64a" x="305.278442" y="173.230203" style="fill: #ff7f0e; stroke: #ff7f0e"/>
     <use xlink:href="#m5e2a13c64a" x="312.552613" y="162.446733" style="fill: #ff7f0e; stroke: #ff7f0e"/>
     <use xlink:href="#m5e2a13c64a" x="329.758148" y="150.276394" style="fill: #ff7f0e; stroke: #ff7f0e"/>
    </g>
   </g>
   <g id="line2d_50">
    <path d="M 281.90223 135.62429 
L 313.428744 173.196126 
" clip-path="url(#p45ba3709da)" style="fill: none; stroke-dasharray: 5.55,2.4; stroke-dashoffset: 0; stroke: #ff0000; stroke-width: 1.5"/>
   </g>
   <g id="line2d_51">
    <path d="M 289.406368 171.121177 
L 329.758148 150.276394 
" clip-path="url(#p45ba3709da)" style="fill: none; stroke-dasharray: 5.55,2.4; stroke-dashoffset: 0; stroke: #ff0000; stroke-width: 1.5"/>
   </g>
  </g>
  <g id="axes_10">
   <g id="line2d_52">
    <path d="M 345.072041 138.01285 
L 350.632972 143.107164 
L 356.341008 148.036089 
L 362.191233 152.795378 
L 368.178608 157.380934 
L 374.297975 161.788805 
L 380.544063 166.015194 
L 386.911491 170.056461 
L 392.927959 173.640261 
L 392.927959 173.640261 
" clip-path="url(#pd30826b666)" style="fill: none; stroke: #1f77b4; stroke-width: 1.5; stroke-linecap: square"/>
   </g>
   <g id="line2d_53">
    <path d="M 363.719691 173.76238 
L 365.053063 173.467246 
L 366.204214 172.987678 
L 367.269448 172.303206 
L 368.307439 171.367824 
L 369.390713 170.078506 
L 370.578752 168.303026 
L 372.0674 165.649199 
L 374.631409 160.534926 
L 378.501197 152.92085 
L 381.381909 147.762004 
L 384.244144 143.087367 
L 387.227905 138.637388 
L 389.788165 135.11762 
L 389.788165 135.11762 
" clip-path="url(#pd30826b666)" style="fill: none; stroke: #ff7f0e; stroke-width: 1.5; stroke-linecap: square"/>
   </g>
   <g id="line2d_54">
    <g clip-path="url(#pd30826b666)">
     <use xlink:href="#m47fb2cce38" x="345.072041" y="138.01285" style="fill: #1f77b4; stroke: #1f77b4"/>
     <use xlink:href="#m47fb2cce38" x="360.085859" y="151.115366" style="fill: #1f77b4; stroke: #1f77b4"/>
     <use xlink:href="#m47fb2cce38" x="376.069875" y="163.015025" style="fill: #1f77b4; stroke: #1f77b4"/>
     <use xlink:href="#m47fb2cce38" x="392.927959" y="173.640261" style="fill: #1f77b4; stroke: #1f77b4"/>
    </g>
   </g>
   <g id="line2d_55">
    <g clip-path="url(#pd30826b666)">
     <use xlink:href="#m5e2a13c64a" x="363.719691" y="173.76238" style="fill: #ff7f0e; stroke: #ff7f0e"/>
     <use xlink:href="#m5e2a13c64a" x="370.488655" y="168.449809" style="fill: #ff7f0e; stroke: #ff7f0e"/>
     <use xlink:href="#m5e2a13c64a" x="377.604219" y="154.623561" style="fill: #ff7f0e; stroke: #ff7f0e"/>
     <use xlink:href="#m5e2a13c64a" x="389.788165" y="135.11762" style="fill: #ff7f0e; stroke: #ff7f0e"/>
    </g>
   </g>
   <g id="line2d_56">
    <path d="M 345.072041 138.01285 
L 392.927959 173.640261 
" clip-path="url(#pd30826b666)" style="fill: none; stroke-dasharray: 5.55,2.4; stroke-dashoffset: 0; stroke: #ff0000; stroke-width: 1.5"/>
   </g>
   <g id="line2d_57">
    <path d="M 363.719691 173.76238 
L 389.788165 135.11762 
" clip-path="url(#pd30826b666)" style="fill: none; stroke-dasharray: 5.55,2.4; stroke-dashoffset: 0; stroke: #ff0000; stroke-width: 1.5"/>
   </g>
  </g>
  <g id="axes_11">
   <g id="line2d_58">
    <path d="M 408.241852 130.76325 
L 418.026148 138.512487 
L 427.946682 146.086529 
L 438.000318 153.482984 
L 448.183876 160.699511 
L 451.906313 163.270237 
L 451.906313 163.270237 
" clip-path="url(#p40b942dec0)" style="fill: none; stroke: #1f77b4; stroke-width: 1.5; stroke-linecap: square"/>
   </g>
   <g id="line2d_59">
    <path d="M 436.659773 178.11675 
L 438.990379 174.132699 
L 441.857083 168.767587 
L 446.161879 160.181746 
L 455.408976 141.675874 
L 456.09777 140.34679 
L 456.09777 140.34679 
" clip-path="url(#p40b942dec0)" style="fill: none; stroke: #ff7f0e; stroke-width: 1.5; stroke-linecap: square"/>
   </g>
   <g id="line2d_60">
    <g clip-path="url(#p40b942dec0)">
     <use xlink:href="#m47fb2cce38" x="408.241852" y="130.76325" style="fill: #1f77b4; stroke: #1f77b4"/>
     <use xlink:href="#m47fb2cce38" x="422.514845" y="141.974087" style="fill: #1f77b4; stroke: #1f77b4"/>
     <use xlink:href="#m47fb2cce38" x="437.072909" y="152.812164" style="fill: #1f77b4; stroke: #1f77b4"/>
     <use xlink:href="#m47fb2cce38" x="451.906313" y="163.270237" style="fill: #1f77b4; stroke: #1f77b4"/>
    </g>
   </g>
   <g id="line2d_61">
    <g clip-path="url(#p40b942dec0)">
     <use xlink:href="#m5e2a13c64a" x="436.659773" y="178.11675" style="fill: #ff7f0e; stroke: #ff7f0e"/>
     <use xlink:href="#m5e2a13c64a" x="442.278543" y="167.947499" style="fill: #ff7f0e; stroke: #ff7f0e"/>
     <use xlink:href="#m5e2a13c64a" x="448.587339" y="155.255414" style="fill: #ff7f0e; stroke: #ff7f0e"/>
     <use xlink:href="#m5e2a13c64a" x="456.09777" y="140.34679" style="fill: #ff7f0e; stroke: #ff7f0e"/>
    </g>
   </g>
   <g id="line2d_62">
    <path d="M 408.241852 130.76325 
L 451.906313 163.270237 
" clip-path="url(#p40b942dec0)" style="fill: none; stroke-dasharray: 5.55,2.4; stroke-dashoffset: 0; stroke: #ff0000; stroke-width: 1.5"/>
   </g>
   <g id="line2d_63">
    <path d="M 436.659773 178.11675 
L 456.09777 140.34679 
" clip-path="url(#p40b942dec0)" style="fill: none; stroke-dasharray: 5.55,2.4; stroke-dashoffset: 0; stroke: #ff0000; stroke-width: 1.5"/>
   </g>
  </g>
  <g id="axes_12">
   <g id="line2d_64">
    <path d="M 471.411664 130.024993 
L 489.65556 143.106549 
L 508.028236 156.006612 
L 519.267581 163.765101 
L 519.267581 163.765101 
" clip-path="url(#pf8ab6443ee)" style="fill: none; stroke: #1f77b4; stroke-width: 1.5; stroke-linecap: square"/>
   </g>
   <g id="line2d_65">
    <path d="M 488.206214 178.855007 
L 495.730711 163.913708 
L 508.55982 137.907468 
L 508.55982 137.907468 
" clip-path="url(#pf8ab6443ee)" style="fill: none; stroke: #ff7f0e; stroke-width: 1.5; stroke-linecap: square"/>
   </g>
   <g id="line2d_66">
    <g clip-path="url(#pf8ab6443ee)">
     <use xlink:href="#m47fb2cce38" x="471.411664" y="130.024993" style="fill: #1f77b4; stroke: #1f77b4"/>
     <use xlink:href="#m47fb2cce38" x="487.266503" y="141.409047" style="fill: #1f77b4; stroke: #1f77b4"/>
     <use xlink:href="#m47fb2cce38" x="503.218871" y="152.656028" style="fill: #1f77b4; stroke: #1f77b4"/>
     <use xlink:href="#m47fb2cce38" x="519.267581" y="163.765101" style="fill: #1f77b4; stroke: #1f77b4"/>
    </g>
   </g>
   <g id="line2d_67">
    <g clip-path="url(#pf8ab6443ee)">
     <use xlink:href="#m5e2a13c64a" x="488.206214" y="178.855007" style="fill: #ff7f0e; stroke: #ff7f0e"/>
     <use xlink:href="#m5e2a13c64a" x="494.656796" y="166.070417" style="fill: #ff7f0e; stroke: #ff7f0e"/>
     <use xlink:href="#m5e2a13c64a" x="501.420799" y="152.408948" style="fill: #ff7f0e; stroke: #ff7f0e"/>
     <use xlink:href="#m5e2a13c64a" x="508.55982" y="137.907468" style="fill: #ff7f0e; stroke: #ff7f0e"/>
    </g>
   </g>
   <g id="line2d_68">
    <path d="M 471.411664 130.024993 
L 519.267581 163.765101 
" clip-path="url(#pf8ab6443ee)" style="fill: none; stroke-dasharray: 5.55,2.4; stroke-dashoffset: 0; stroke: #ff0000; stroke-width: 1.5"/>
   </g>
   <g id="line2d_69">
    <path d="M 488.206214 178.855007 
L 508.55982 137.907468 
" clip-path="url(#pf8ab6443ee)" style="fill: none; stroke-dasharray: 5.55,2.4; stroke-dashoffset: 0; stroke: #ff0000; stroke-width: 1.5"/>
   </g>
  </g>
 </g>
 <defs>
  <clipPath id="p9917ee2adf">
   <rect x="90" y="69.31854" width="115.811321" height="79.52292"/>
  </clipPath>
  <clipPath id="p5d03da90b8">
   <rect x="216.339623" y="30.350211" width="52.641509" height="66.739578"/>
  </clipPath>
  <clipPath id="pde376a7b97">
   <rect x="279.509434" y="43.022719" width="52.641509" height="41.394562"/>
  </clipPath>
  <clipPath id="pe732c52bbd">
   <rect x="342.679245" y="42.465382" width="52.641509" height="42.509236"/>
  </clipPath>
  <clipPath id="p846322b39a">
   <rect x="405.849057" y="37.675575" width="52.641509" height="52.088849"/>
  </clipPath>
  <clipPath id="p7cbdf35564">
   <rect x="469.018868" y="36.863492" width="52.641509" height="53.713015"/>
  </clipPath>
  <clipPath id="p99443fb5c4">
   <rect x="532.188679" y="69.31854" width="115.811321" height="79.52292"/>
  </clipPath>
  <clipPath id="p21fe14dc34">
   <rect x="216.339623" y="121.070211" width="52.641509" height="66.739578"/>
  </clipPath>
  <clipPath id="p45ba3709da">
   <rect x="279.509434" y="133.742719" width="52.641509" height="41.394562"/>
  </clipPath>
  <clipPath id="pd30826b666">
   <rect x="342.679245" y="133.185382" width="52.641509" height="42.509236"/>
  </clipPath>
  <clipPath id="p40b942dec0">
   <rect x="405.849057" y="128.395575" width="52.641509" height="52.088849"/>
  </clipPath>
  <clipPath id="pf8ab6443ee">
   <rect x="469.018868" y="127.583492" width="52.641509" height="53.713015"/>
  </clipPath>
 </defs>
</svg>
