<?xml version="1.0" encoding="utf-8" standalone="no"?>
<!DOCTYPE svg PUBLIC "-//W3C//DTD SVG 1.1//EN"
  "http://www.w3.org/Graphics/SVG/1.1/DTD/svg11.dtd">
<!-- Created with matplotlib (https://matplotlib.org/) -->
<svg height="216pt" version="1.1" viewBox="0 0 648 216" width="648pt" xmlns="http://www.w3.org/2000/svg" xmlns:xlink="http://www.w3.org/1999/xlink">
 <metadata>
  <rdf:RDF xmlns:cc="http://creativecommons.org/ns#" xmlns:dc="http://purl.org/dc/elements/1.1/" xmlns:rdf="http://www.w3.org/1999/02/22-rdf-syntax-ns#">
   <cc:Work>
    <dc:type rdf:resource="http://purl.org/dc/dcmitype/StillImage"/>
    <dc:date>2022-09-20T08:33:12.713534</dc:date>
    <dc:format>image/svg+xml</dc:format>
    <dc:creator>
     <cc:Agent>
      <dc:title>Matplotlib v3.3.3, https://matplotlib.org/</dc:title>
     </cc:Agent>
    </dc:creator>
   </cc:Work>
  </rdf:RDF>
 </metadata>
 <defs>
  <style type="text/css">*{stroke-linecap:butt;stroke-linejoin:round;}</style>
 </defs>
 <g id="figure_1">
  <g id="patch_1">
   <path d="M 0 216 
L 648 216 
L 648 0 
L 0 0 
z
" style="fill:#ffffff;"/>
  </g>
  <g id="axes_1">
   <g id="line2d_1">
    <path clip-path="url(#p0be8639789)" d="M 296.727273 142.00278 
L 302.658065 147.446092 
L 308.73622 152.724348 
L 314.957146 157.833558 
L 321.316143 162.769863 
L 327.808406 167.529534 
L 334.429031 172.108974 
L 341.173016 176.504723 
L 348.035266 180.713462 
L 351.272727 182.610366 
L 351.272727 182.610366 
" style="fill:none;stroke:#1f77b4;stroke-linecap:square;stroke-width:1.5;"/>
   </g>
   <g id="line2d_2">
    <path clip-path="url(#p0be8639789)" d="M 317.981583 182.749555 
L 319.395689 182.44584 
L 320.643004 181.95353 
L 321.800544 181.255004 
L 322.909995 180.322098 
L 324.052167 179.058949 
L 325.266294 177.372048 
L 326.690081 174.994546 
L 328.668983 171.210797 
L 335.946417 156.933438 
L 338.978592 151.65269 
L 342.088247 146.684523 
L 345.321098 141.942604 
L 347.694038 138.70284 
L 347.694038 138.70284 
" style="fill:none;stroke:#ff7f0e;stroke-linecap:square;stroke-width:1.5;"/>
   </g>
   <g id="line2d_3">
    <defs>
     <path d="M 0 1.5 
C 0.397805 1.5 0.77937 1.341951 1.06066 1.06066 
C 1.341951 0.77937 1.5 0.397805 1.5 0 
C 1.5 -0.397805 1.341951 -0.77937 1.06066 -1.06066 
C 0.77937 -1.341951 0.397805 -1.5 0 -1.5 
C -0.397805 -1.5 -0.77937 -1.341951 -1.06066 -1.06066 
C -1.341951 -0.77937 -1.5 -0.397805 -1.5 0 
C -1.5 0.397805 -1.341951 0.77937 -1.06066 1.06066 
C -0.77937 1.341951 -0.397805 1.5 0 1.5 
z
" id="mbaac665c0b" style="stroke:#1f77b4;"/>
    </defs>
    <g clip-path="url(#p0be8639789)">
     <use style="fill:#1f77b4;stroke:#1f77b4;" x="296.727273" xlink:href="#mbaac665c0b" y="142.00278"/>
     <use style="fill:#1f77b4;stroke:#1f77b4;" x="313.839796" xlink:href="#mbaac665c0b" y="156.93683"/>
     <use style="fill:#1f77b4;stroke:#1f77b4;" x="332.058137" xlink:href="#mbaac665c0b" y="170.499882"/>
     <use style="fill:#1f77b4;stroke:#1f77b4;" x="351.272727" xlink:href="#mbaac665c0b" y="182.610366"/>
    </g>
   </g>
   <g id="line2d_4">
    <defs>
     <path d="M 0 1.5 
C 0.397805 1.5 0.77937 1.341951 1.06066 1.06066 
C 1.341951 0.77937 1.5 0.397805 1.5 0 
C 1.5 -0.397805 1.341951 -0.77937 1.06066 -1.06066 
C 0.77937 -1.341951 0.397805 -1.5 0 -1.5 
C -0.397805 -1.5 -0.77937 -1.341951 -1.06066 -1.06066 
C -1.341951 -0.77937 -1.5 -0.397805 -1.5 0 
C -1.5 0.397805 -1.341951 0.77937 -1.06066 1.06066 
C -0.77937 1.341951 -0.397805 1.5 0 1.5 
z
" id="m1db981d7e4" style="stroke:#ff7f0e;"/>
    </defs>
    <g clip-path="url(#p0be8639789)">
     <use style="fill:#ff7f0e;stroke:#ff7f0e;" x="317.981583" xlink:href="#m1db981d7e4" y="182.749555"/>
     <use style="fill:#ff7f0e;stroke:#ff7f0e;" x="325.696746" xlink:href="#m1db981d7e4" y="176.694367"/>
     <use style="fill:#ff7f0e;stroke:#ff7f0e;" x="333.806959" xlink:href="#m1db981d7e4" y="160.935418"/>
     <use style="fill:#ff7f0e;stroke:#ff7f0e;" x="347.694038" xlink:href="#m1db981d7e4" y="138.70284"/>
    </g>
   </g>
   <g id="line2d_5">
    <path clip-path="url(#p0be8639789)" d="M 296.727273 142.00278 
L 351.272727 182.610366 
" style="fill:none;stroke:#ff0000;stroke-dasharray:5.55,2.4;stroke-dashoffset:0;stroke-width:1.5;"/>
   </g>
   <g id="line2d_6">
    <path clip-path="url(#p0be8639789)" d="M 317.981583 182.749555 
L 347.694038 138.70284 
" style="fill:none;stroke:#ff0000;stroke-dasharray:5.55,2.4;stroke-dashoffset:0;stroke-width:1.5;"/>
   </g>
  </g>
  <g id="axes_2">
   <g id="line2d_7">
    <path clip-path="url(#pbcab44f27f)" d="M 492.872727 50.349983 
L 473.211784 63.968889 
L 453.677875 77.769387 
L 438.327273 88.80645 
L 438.327273 88.80645 
" style="fill:none;stroke:#1f77b4;stroke-linecap:square;stroke-width:1.5;"/>
   </g>
   <g id="line2d_8">
    <path clip-path="url(#pbcab44f27f)" d="M 480.668182 79.822124 
L 459.841171 37.80809 
L 457.469449 33.150735 
L 457.469449 33.150735 
" style="fill:none;stroke:#ff7f0e;stroke-linecap:square;stroke-width:1.5;"/>
   </g>
   <g id="line2d_9">
    <g clip-path="url(#pbcab44f27f)">
     <use style="fill:#1f77b4;stroke:#1f77b4;" x="492.872727" xlink:href="#mbaac665c0b" y="50.349983"/>
     <use style="fill:#1f77b4;stroke:#1f77b4;" x="474.580649" xlink:href="#mbaac665c0b" y="63.011937"/>
     <use style="fill:#1f77b4;stroke:#1f77b4;" x="456.39838" xlink:href="#mbaac665c0b" y="75.831077"/>
     <use style="fill:#1f77b4;stroke:#1f77b4;" x="438.327273" xlink:href="#mbaac665c0b" y="88.80645"/>
    </g>
   </g>
   <g id="line2d_10">
    <g clip-path="url(#pbcab44f27f)">
     <use style="fill:#ff7f0e;stroke:#ff7f0e;" x="480.668182" xlink:href="#m1db981d7e4" y="79.822124"/>
     <use style="fill:#ff7f0e;stroke:#ff7f0e;" x="472.531234" xlink:href="#m1db981d7e4" y="63.293555"/>
     <use style="fill:#ff7f0e;stroke:#ff7f0e;" x="464.821724" xlink:href="#m1db981d7e4" y="47.722418"/>
     <use style="fill:#ff7f0e;stroke:#ff7f0e;" x="457.469449" xlink:href="#m1db981d7e4" y="33.150735"/>
    </g>
   </g>
   <g id="line2d_11">
    <path clip-path="url(#pbcab44f27f)" d="M 492.872727 50.349983 
L 438.327273 88.80645 
" style="fill:none;stroke:#ff0000;stroke-dasharray:5.55,2.4;stroke-dashoffset:0;stroke-width:1.5;"/>
   </g>
   <g id="line2d_12">
    <path clip-path="url(#pbcab44f27f)" d="M 480.668182 79.822124 
L 457.469449 33.150735 
" style="fill:none;stroke:#ff0000;stroke-dasharray:5.55,2.4;stroke-dashoffset:0;stroke-width:1.5;"/>
   </g>
  </g>
  <g id="axes_3">
   <g id="line2d_13">
    <path clip-path="url(#p3ad659402a)" d="M 192.447847 126.149485 
L 190.002805 127.686956 
L 187.680653 129.404411 
L 185.494611 131.292072 
L 183.457125 133.339191 
L 181.579797 135.534114 
L 179.873315 137.864342 
L 178.347395 140.316608 
L 177.010725 142.876951 
L 175.870915 145.530794 
L 174.934455 148.263025 
L 174.206677 151.058089 
L 173.691724 153.900072 
L 173.392529 156.772793 
L 173.310794 159.659896 
L 173.446986 162.544943 
L 173.800329 165.411508 
L 174.36881 168.243269 
L 175.149194 171.024105 
L 176.137037 173.738181 
L 177.326715 176.370045 
L 178.711454 178.904713 
L 180.28337 181.327754 
L 182.033514 183.62537 
L 183.95192 185.784482 
L 186.027666 187.792795 
L 188.248934 189.638875 
L 190.603077 191.312211 
L 192.447847 192.448081 
L 192.447847 192.448081 
" style="fill:none;stroke:#1f77b4;stroke-linecap:square;stroke-width:1.5;"/>
   </g>
   <g id="line2d_14">
    <path clip-path="url(#p3ad659402a)" d="M 155.127273 187.475686 
L 157.150677 187.925479 
L 159.029282 188.56636 
L 160.85632 189.422295 
L 162.539651 190.447505 
L 164.158344 191.692142 
L 165.746143 193.208411 
L 167.737993 195.155684 
L 168.241785 195.302115 
L 168.758597 195.214769 
L 169.608301 194.799354 
L 173.116267 192.889648 
L 175.0429 192.163405 
L 176.959657 191.671649 
L 178.957261 191.386135 
L 180.933832 191.32122 
L 182.984154 191.478117 
L 185.090794 191.869093 
L 188.062416 192.470513 
L 188.553776 192.299836 
L 188.936226 191.9247 
L 189.428933 191.086334 
L 191.229817 187.779792 
L 192.436346 186.129098 
L 193.76589 184.672367 
L 195.280073 183.338824 
L 196.902991 182.197926 
L 198.716984 181.200264 
L 200.718701 180.36843 
L 203.695185 179.19394 
L 203.98263 178.802787 
L 204.098257 178.23361 
L 204.040123 177.176344 
L 203.782998 173.8057 
L 203.877414 171.788623 
L 204.201366 169.74298 
L 204.736757 167.798374 
L 205.471249 165.94944 
L 206.398111 164.195006 
L 207.585808 162.432627 
L 209.648445 159.524468 
L 209.672727 159.298783 
L 209.672727 159.298783 
" style="fill:none;stroke:#ff7f0e;stroke-linecap:square;stroke-width:1.5;"/>
   </g>
   <g id="line2d_15">
    <g clip-path="url(#p3ad659402a)">
     <use style="fill:#1f77b4;stroke:#1f77b4;" x="192.447847" xlink:href="#mbaac665c0b" y="126.149485"/>
     <use style="fill:#1f77b4;stroke:#1f77b4;" x="175.617507" xlink:href="#mbaac665c0b" y="146.207103"/>
     <use style="fill:#1f77b4;stroke:#1f77b4;" x="175.617507" xlink:href="#mbaac665c0b" y="172.390463"/>
     <use style="fill:#1f77b4;stroke:#1f77b4;" x="192.447847" xlink:href="#mbaac665c0b" y="192.448081"/>
    </g>
   </g>
   <g id="line2d_16">
    <g clip-path="url(#p3ad659402a)">
     <use style="fill:#ff7f0e;stroke:#ff7f0e;" x="155.127273" xlink:href="#m1db981d7e4" y="187.475686"/>
     <use style="fill:#ff7f0e;stroke:#ff7f0e;" x="179.62357" xlink:href="#m1db981d7e4" y="191.340375"/>
     <use style="fill:#ff7f0e;stroke:#ff7f0e;" x="201.165252" xlink:href="#m1db981d7e4" y="180.212447"/>
     <use style="fill:#ff7f0e;stroke:#ff7f0e;" x="209.672727" xlink:href="#m1db981d7e4" y="159.298783"/>
    </g>
   </g>
   <g id="line2d_17">
    <path clip-path="url(#p3ad659402a)" d="M 192.447847 126.149485 
L 192.447847 192.448081 
" style="fill:none;stroke:#ff0000;stroke-dasharray:5.55,2.4;stroke-dashoffset:0;stroke-width:1.5;"/>
   </g>
   <g id="line2d_18">
    <path clip-path="url(#p3ad659402a)" d="M 155.127273 187.475686 
L 209.672727 159.298783 
" style="fill:none;stroke:#ff0000;stroke-dasharray:5.55,2.4;stroke-dashoffset:0;stroke-width:1.5;"/>
   </g>
  </g>
  <g id="axes_4">
   <g id="line2d_19">
    <path clip-path="url(#p82fb860c3b)" d="M 367.527273 133.739795 
L 377.992992 142.037985 
L 388.595779 150.160309 
L 399.332679 158.104503 
L 410.200699 165.868354 
L 417.295368 170.790769 
L 417.295368 170.790769 
" style="fill:none;stroke:#1f77b4;stroke-linecap:square;stroke-width:1.5;"/>
   </g>
   <g id="line2d_20">
    <path clip-path="url(#p82fb860c3b)" d="M 399.91759 187.7126 
L 402.402706 183.477779 
L 405.404477 177.900128 
L 409.640608 169.512089 
L 421.987988 144.825974 
L 422.072727 144.662969 
L 422.072727 144.662969 
" style="fill:none;stroke:#ff7f0e;stroke-linecap:square;stroke-width:1.5;"/>
   </g>
   <g id="line2d_21">
    <g clip-path="url(#p82fb860c3b)">
     <use style="fill:#1f77b4;stroke:#1f77b4;" x="367.527273" xlink:href="#mbaac665c0b" y="133.739795"/>
     <use style="fill:#1f77b4;stroke:#1f77b4;" x="383.795414" xlink:href="#mbaac665c0b" y="146.517738"/>
     <use style="fill:#1f77b4;stroke:#1f77b4;" x="400.388477" xlink:href="#mbaac665c0b" y="158.870815"/>
     <use style="fill:#1f77b4;stroke:#1f77b4;" x="417.295368" xlink:href="#mbaac665c0b" y="170.790769"/>
    </g>
   </g>
   <g id="line2d_22">
    <g clip-path="url(#p82fb860c3b)">
     <use style="fill:#ff7f0e;stroke:#ff7f0e;" x="399.91759" xlink:href="#m1db981d7e4" y="187.7126"/>
     <use style="fill:#ff7f0e;stroke:#ff7f0e;" x="406.32178" xlink:href="#m1db981d7e4" y="176.121842"/>
     <use style="fill:#ff7f0e;stroke:#ff7f0e;" x="413.512451" xlink:href="#m1db981d7e4" y="161.655594"/>
     <use style="fill:#ff7f0e;stroke:#ff7f0e;" x="422.072727" xlink:href="#m1db981d7e4" y="144.662969"/>
    </g>
   </g>
   <g id="line2d_23">
    <path clip-path="url(#p82fb860c3b)" d="M 367.527273 133.739795 
L 417.295368 170.790769 
" style="fill:none;stroke:#ff0000;stroke-dasharray:5.55,2.4;stroke-dashoffset:0;stroke-width:1.5;"/>
   </g>
   <g id="line2d_24">
    <path clip-path="url(#p82fb860c3b)" d="M 399.91759 187.7126 
L 422.072727 144.662969 
" style="fill:none;stroke:#ff0000;stroke-dasharray:5.55,2.4;stroke-dashoffset:0;stroke-width:1.5;"/>
   </g>
  </g>
  <g id="axes_5">
   <g id="line2d_25">
    <path clip-path="url(#p8f0a90b1e1)" d="M 225.927273 139.280335 
L 227.497048 143.265135 
L 229.273424 147.162225 
L 231.251523 150.960902 
L 233.425912 154.650734 
L 235.790619 158.221586 
L 238.33915 161.663652 
L 241.064504 164.967478 
L 243.959199 168.123991 
L 247.015282 171.12452 
L 250.224362 173.960827 
L 253.577624 176.62512 
L 257.065859 179.110083 
L 260.679487 181.408891 
L 261.860719 182.104148 
L 261.860719 182.104148 
" style="fill:none;stroke:#1f77b4;stroke-linecap:square;stroke-width:1.5;"/>
   </g>
   <g id="line2d_26">
    <path clip-path="url(#p8f0a90b1e1)" d="M 234.480376 179.739152 
L 237.430418 179.701762 
L 240.391403 179.886794 
L 243.389485 180.2988 
L 246.536711 180.959563 
L 251.974994 182.169729 
L 252.853339 182.089182 
L 253.507608 181.8126 
L 254.083654 181.324625 
L 254.706794 180.481046 
L 255.585255 178.859444 
L 258.242658 173.781399 
L 259.884606 171.20611 
L 261.64473 168.848516 
L 263.570717 166.63362 
L 265.656567 164.569798 
L 267.907634 162.655521 
L 270.268588 160.935795 
L 272.804623 159.366149 
L 275.434719 157.999381 
L 278.28313 156.775204 
L 280.472727 155.980582 
L 280.472727 155.980582 
" style="fill:none;stroke:#ff7f0e;stroke-linecap:square;stroke-width:1.5;"/>
   </g>
   <g id="line2d_27">
    <g clip-path="url(#p8f0a90b1e1)">
     <use style="fill:#1f77b4;stroke:#1f77b4;" x="225.927273" xlink:href="#mbaac665c0b" y="139.280335"/>
     <use style="fill:#1f77b4;stroke:#1f77b4;" x="234.443308" xlink:href="#mbaac665c0b" y="156.237155"/>
     <use style="fill:#1f77b4;stroke:#1f77b4;" x="246.640304" xlink:href="#mbaac665c0b" y="170.772969"/>
     <use style="fill:#1f77b4;stroke:#1f77b4;" x="261.860719" xlink:href="#mbaac665c0b" y="182.104148"/>
    </g>
   </g>
   <g id="line2d_28">
    <g clip-path="url(#p8f0a90b1e1)">
     <use style="fill:#ff7f0e;stroke:#ff7f0e;" x="234.480376" xlink:href="#m1db981d7e4" y="179.739152"/>
     <use style="fill:#ff7f0e;stroke:#ff7f0e;" x="252.571127" xlink:href="#m1db981d7e4" y="182.142988"/>
     <use style="fill:#ff7f0e;stroke:#ff7f0e;" x="260.862118" xlink:href="#m1db981d7e4" y="169.852151"/>
     <use style="fill:#ff7f0e;stroke:#ff7f0e;" x="280.472727" xlink:href="#m1db981d7e4" y="155.980582"/>
    </g>
   </g>
   <g id="line2d_29">
    <path clip-path="url(#p8f0a90b1e1)" d="M 225.927273 139.280335 
L 261.860719 182.104148 
" style="fill:none;stroke:#ff0000;stroke-dasharray:5.55,2.4;stroke-dashoffset:0;stroke-width:1.5;"/>
   </g>
   <g id="line2d_30">
    <path clip-path="url(#p8f0a90b1e1)" d="M 234.480376 179.739152 
L 280.472727 155.980582 
" style="fill:none;stroke:#ff0000;stroke-dasharray:5.55,2.4;stroke-dashoffset:0;stroke-width:1.5;"/>
   </g>
  </g>
  <g id="axes_6">
   <g id="line2d_31">
    <path clip-path="url(#p32ba8001cd)" d="M 438.327273 132.89834 
L 457.759573 146.841547 
L 477.320234 160.6041 
L 492.872727 171.354808 
L 492.872727 171.354808 
" style="fill:none;stroke:#1f77b4;stroke-linecap:square;stroke-width:1.5;"/>
   </g>
   <g id="line2d_32">
    <path clip-path="url(#p32ba8001cd)" d="M 457.469449 188.554055 
L 465.455215 172.71103 
L 479.516219 144.221173 
L 480.668182 141.882667 
L 480.668182 141.882667 
" style="fill:none;stroke:#ff7f0e;stroke-linecap:square;stroke-width:1.5;"/>
   </g>
   <g id="line2d_33">
    <g clip-path="url(#p32ba8001cd)">
     <use style="fill:#1f77b4;stroke:#1f77b4;" x="438.327273" xlink:href="#mbaac665c0b" y="132.89834"/>
     <use style="fill:#1f77b4;stroke:#1f77b4;" x="456.39838" xlink:href="#mbaac665c0b" y="145.873713"/>
     <use style="fill:#1f77b4;stroke:#1f77b4;" x="474.580649" xlink:href="#mbaac665c0b" y="158.692853"/>
     <use style="fill:#1f77b4;stroke:#1f77b4;" x="492.872727" xlink:href="#mbaac665c0b" y="171.354808"/>
    </g>
   </g>
   <g id="line2d_34">
    <g clip-path="url(#p32ba8001cd)">
     <use style="fill:#ff7f0e;stroke:#ff7f0e;" x="457.469449" xlink:href="#m1db981d7e4" y="188.554055"/>
     <use style="fill:#ff7f0e;stroke:#ff7f0e;" x="464.821724" xlink:href="#m1db981d7e4" y="173.982372"/>
     <use style="fill:#ff7f0e;stroke:#ff7f0e;" x="472.531234" xlink:href="#m1db981d7e4" y="158.411235"/>
     <use style="fill:#ff7f0e;stroke:#ff7f0e;" x="480.668182" xlink:href="#m1db981d7e4" y="141.882667"/>
    </g>
   </g>
   <g id="line2d_35">
    <path clip-path="url(#p32ba8001cd)" d="M 438.327273 132.89834 
L 492.872727 171.354808 
" style="fill:none;stroke:#ff0000;stroke-dasharray:5.55,2.4;stroke-dashoffset:0;stroke-width:1.5;"/>
   </g>
   <g id="line2d_36">
    <path clip-path="url(#p32ba8001cd)" d="M 457.469449 188.554055 
L 480.668182 141.882667 
" style="fill:none;stroke:#ff0000;stroke-dasharray:5.55,2.4;stroke-dashoffset:0;stroke-width:1.5;"/>
   </g>
  </g>
  <g id="axes_7">
   <g id="line2d_37">
    <path clip-path="url(#p9843ed2c92)" d="M 135.654545 110.852395 
L 135.538325 107.774101 
L 135.190326 104.713333 
L 134.612529 101.687518 
L 133.808225 98.713885 
L 132.781992 95.809362 
L 131.539673 92.990489 
L 130.088343 90.273314 
L 128.436263 87.673307 
L 126.59284 85.205272 
L 124.568571 82.883261 
L 122.374979 80.720494 
L 120.024555 78.729285 
L 117.530682 76.920972 
L 114.907557 75.30585 
L 112.170116 73.893115 
L 109.333945 72.69081 
L 106.415191 71.705782 
L 103.430474 70.943637 
L 100.396786 70.408716 
L 97.3314 70.104064 
L 94.251769 70.031416 
L 91.175428 70.191185 
L 88.119891 70.582462 
L 85.102555 71.203019 
L 82.140601 72.049322 
L 79.250892 73.116554 
L 76.44988 74.398637 
L 73.753515 75.888273 
L 71.177146 77.57698 
L 68.735445 79.455142 
L 66.442311 81.512068 
L 64.310802 83.736044 
L 62.353053 86.11441 
L 60.580212 88.633623 
L 59.002371 91.279341 
L 57.628514 94.036499 
L 56.466464 96.8894 
L 55.522837 99.8218 
L 54.803005 102.817004 
L 54.311067 105.857958 
L 54.049823 108.927348 
L 54.020762 112.007698 
L 54.224048 115.081471 
L 54.658524 118.131165 
L 55.321716 121.139416 
L 56.209849 124.089098 
L 57.317866 126.963416 
L 58.639457 129.746004 
L 60.1671 132.421021 
L 61.892095 134.973234 
L 63.804622 137.388114 
L 65.893791 139.651911 
L 68.147708 141.751735 
L 70.553539 143.675632 
L 73.097587 145.412647 
L 75.765368 146.952891 
L 78.541691 148.287594 
L 81.41075 149.409156 
L 84.35621 150.311193 
L 87.3613 150.988568 
L 90.408911 151.437425 
L 93.48169 151.655208 
L 96.562143 151.640677 
L 99.632732 151.393915 
L 102.675972 150.916327 
L 105.674538 150.210632 
L 108.611357 149.280847 
L 111.469707 148.132268 
L 114.233315 146.771432 
L 116.886446 145.206089 
L 119.413994 143.44515 
L 121.801568 141.498642 
L 124.035575 139.377648 
L 126.103294 137.094242 
L 127.992954 134.661427 
L 129.693795 132.093053 
L 131.196133 129.403744 
L 132.491415 126.608812 
L 133.572265 123.724169 
L 134.432531 120.76624 
L 135.067314 117.751865 
L 135.473 114.698208 
L 135.647278 111.622654 
L 135.654545 110.852395 
L 135.654545 110.852395 
" style="fill:none;stroke:#1f77b4;stroke-linecap:square;stroke-width:1.5;"/>
   </g>
   <g id="line2d_38">
    <path clip-path="url(#p9843ed2c92)" d="M 92.788225 110.852395 
L 92.669954 110.328521 
L 92.230986 109.614649 
L 89.132478 105.352522 
L 88.211226 103.548058 
L 87.449013 101.559841 
L 86.903847 99.480912 
L 86.596184 97.419069 
L 86.508727 95.178086 
L 86.670178 92.769871 
L 86.828904 90.487035 
L 86.674206 89.956738 
L 86.326206 89.562688 
L 85.616012 89.191636 
L 80.240191 87.053018 
L 78.487883 85.98379 
L 76.79079 84.680269 
L 75.24437 83.196478 
L 73.918096 81.61731 
L 72.692053 79.793541 
L 71.49245 77.543366 
L 70.593508 75.956474 
L 70.174461 75.602312 
L 69.664372 75.466438 
L 68.858939 75.545259 
L 63.148436 76.651391 
L 61.092252 76.692869 
L 58.959097 76.506616 
L 56.858548 76.087699 
L 54.894559 75.47114 
L 52.886183 74.597043 
L 50.674897 73.356324 
L 49.072695 72.520843 
L 48.531257 72.457674 
L 48.029033 72.627758 
L 47.391569 73.139369 
L 43.420911 76.97387 
L 41.744627 78.134285 
L 39.870292 79.155786 
L 37.884092 79.970561 
L 35.890946 80.546537 
L 33.701955 80.929652 
L 31.331561 81.096734 
L 29.230102 81.246434 
L 28.710386 81.461659 
L 28.35703 81.844873 
L 28.082124 82.576706 
L 27.672663 84.751108 
L 27.157402 86.921011 
L 26.400567 89.066628 
L 25.487497 90.957511 
L 24.346928 92.781994 
L 23.03425 94.445354 
L 21.635267 95.879393 
L 20.033513 97.221723 
L 16.872291 99.724812 
L 16.745455 100.225706 
L 16.832291 100.826613 
L 17.319341 102.115102 
L 18.31879 104.712533 
L 18.888108 106.846148 
L 19.204169 108.889532 
L 19.302277 111.032122 
L 19.165589 113.165516 
L 18.817592 115.182581 
L 18.226935 117.268812 
L 17.240681 119.776781 
L 16.773889 121.133986 
L 16.769069 121.688301 
L 16.987729 122.165289 
L 17.559548 122.720941 
L 22.3393 126.510813 
L 23.70733 128.06596 
L 24.943015 129.820336 
L 25.9745 131.691037 
L 26.764781 133.574826 
L 27.388018 135.643706 
L 27.907946 138.271439 
L 28.251534 139.650856 
L 28.551589 140.112405 
L 28.999615 140.38946 
L 29.790099 140.543061 
L 35.565823 141.0855 
L 37.549406 141.621363 
L 39.544353 142.397507 
L 41.443988 143.38839 
L 43.158087 144.531625 
L 44.843568 145.936135 
L 46.622121 147.753411 
L 47.927865 149.014613 
L 48.429636 149.232068 
L 48.958379 149.214545 
L 49.711559 148.907619 
L 54.58681 146.351138 
L 56.519147 145.707627 
L 58.603783 145.2523 
L 60.73915 145.026511 
L 62.815551 145.032091 
L 65.027589 145.278462 
L 67.355614 145.785225 
L 69.54661 146.241866 
L 70.081552 146.146337 
L 70.514162 145.837556 
L 70.981518 145.161997 
L 73.721413 140.352795 
L 75.006642 138.767529 
L 76.52033 137.261266 
L 78.198386 135.922995 
L 79.948843 134.812536 
L 81.939501 133.832575 
L 84.161645 133.008598 
L 86.126107 132.273646 
L 86.560138 131.91914 
L 86.787751 131.449329 
L 86.84228 130.665613 
L 86.620954 128.455357 
L 86.506123 126.222831 
L 86.596184 124.285721 
L 86.903847 122.223878 
L 87.449013 120.144949 
L 88.211226 118.156732 
L 89.132478 116.352269 
L 90.290496 114.564653 
L 92.76919 111.058474 
L 92.788225 110.852395 
L 92.788225 110.852395 
" style="fill:none;stroke:#ff7f0e;stroke-linecap:square;stroke-width:1.5;"/>
   </g>
   <g id="line2d_39">
    <g clip-path="url(#p9843ed2c92)">
     <use style="fill:#1f77b4;stroke:#1f77b4;" x="135.654545" xlink:href="#mbaac665c0b" y="110.852395"/>
     <use style="fill:#1f77b4;stroke:#1f77b4;" x="74.416945" xlink:href="#mbaac665c0b" y="75.49685"/>
     <use style="fill:#1f77b4;stroke:#1f77b4;" x="74.416945" xlink:href="#mbaac665c0b" y="146.20794"/>
     <use style="fill:#1f77b4;stroke:#1f77b4;" x="135.654545" xlink:href="#mbaac665c0b" y="110.852395"/>
    </g>
   </g>
   <g id="line2d_40">
    <g clip-path="url(#p9843ed2c92)">
     <use style="fill:#ff7f0e;stroke:#ff7f0e;" x="92.788225" xlink:href="#m1db981d7e4" y="110.852395"/>
     <use style="fill:#ff7f0e;stroke:#ff7f0e;" x="34.612505" xlink:href="#m1db981d7e4" y="80.800182"/>
     <use style="fill:#ff7f0e;stroke:#ff7f0e;" x="34.612505" xlink:href="#m1db981d7e4" y="140.904609"/>
     <use style="fill:#ff7f0e;stroke:#ff7f0e;" x="92.788225" xlink:href="#m1db981d7e4" y="110.852395"/>
    </g>
   </g>
   <g id="line2d_41">
    <path clip-path="url(#p9843ed2c92)" d="M 135.654545 110.852395 
L 135.654545 110.852395 
" style="fill:none;stroke:#ff0000;stroke-dasharray:5.55,2.4;stroke-dashoffset:0;stroke-width:1.5;"/>
   </g>
   <g id="line2d_42">
    <path clip-path="url(#p9843ed2c92)" d="M 92.788225 110.852395 
L 92.788225 110.852395 
" style="fill:none;stroke:#ff0000;stroke-dasharray:5.55,2.4;stroke-dashoffset:0;stroke-width:1.5;"/>
   </g>
   <g id="text_1">
    <!-- (A) -->
    <g transform="translate(10.8 59.944877)scale(0.1 -0.1)">
     <defs>
      <path d="M 25.203125 74.5 
C 19.796875 69.015625 7.40625 56.265625 7.40625 24.8125 
C 7.40625 -6.765625 19.796875 -19.421875 25.203125 -25 
L 31.296875 -25 
C 19 -12.25 15 5.578125 15 24.703125 
C 15 43.71875 18.796875 61.65625 31.296875 74.5 
z
" id="CMSS17-40"/>
      <path d="M 35.5 69 
L 26.90625 69 
L 2.59375 0 
L 10.203125 0 
L 17.203125 20 
L 44 20 
L 51.09375 0 
L 59.796875 0 
z
M 42.09375 25.578125 
L 19.09375 25.578125 
C 23.90625 39.5 29.90625 56.84375 30.59375 61.328125 
L 30.703125 61.328125 
C 31.40625 57.234375 33.40625 51.265625 35.09375 46.1875 
z
" id="CMSS17-65"/>
      <path d="M 11.296875 -25 
C 16.703125 -19.515625 29.09375 -6.765625 29.09375 24.703125 
C 29.09375 56.265625 16.703125 68.921875 11.296875 74.5 
L 5.203125 74.5 
C 17.5 61.75 21.5 43.921875 21.5 24.8125 
C 21.5 5.78125 17.703125 -12.15625 5.203125 -25 
z
" id="CMSS17-41"/>
     </defs>
     <use transform="scale(0.996264)" xlink:href="#CMSS17-40"/>
     <use transform="translate(36.433914 0)scale(0.996264)" xlink:href="#CMSS17-65"/>
     <use transform="translate(98.651769 0)scale(0.996264)" xlink:href="#CMSS17-41"/>
    </g>
   </g>
  </g>
  <g id="axes_8">
   <g id="line2d_43">
    <path clip-path="url(#p331c341a27)" d="M 631.254545 110.852395 
L 631.138325 107.774101 
L 630.790326 104.713333 
L 630.212529 101.687518 
L 629.408225 98.713885 
L 628.381992 95.809362 
L 627.139673 92.990489 
L 625.688343 90.273314 
L 624.036263 87.673307 
L 622.19284 85.205272 
L 620.168571 82.883261 
L 617.974979 80.720494 
L 615.624555 78.729285 
L 613.130682 76.920972 
L 610.507557 75.30585 
L 607.770116 73.893115 
L 604.933945 72.69081 
L 602.015191 71.705782 
L 599.030474 70.943637 
L 595.996786 70.408716 
L 592.9314 70.104064 
L 589.851769 70.031416 
L 586.775428 70.191185 
L 583.719891 70.582462 
L 580.702555 71.203019 
L 577.740601 72.049322 
L 574.850892 73.116554 
L 572.04988 74.398637 
L 569.353515 75.888273 
L 566.777146 77.57698 
L 564.335445 79.455142 
L 562.042311 81.512068 
L 559.910802 83.736044 
L 557.953053 86.11441 
L 556.180212 88.633623 
L 554.602371 91.279341 
L 553.228514 94.036499 
L 552.066464 96.8894 
L 551.122837 99.8218 
L 550.403005 102.817004 
L 549.911067 105.857958 
L 549.649823 108.927348 
L 549.620762 112.007698 
L 549.824048 115.081471 
L 550.258524 118.131165 
L 550.921716 121.139416 
L 551.809849 124.089098 
L 552.917866 126.963416 
L 554.239457 129.746004 
L 555.7671 132.421021 
L 557.492095 134.973234 
L 559.404622 137.388114 
L 561.493791 139.651911 
L 563.747708 141.751735 
L 566.153539 143.675632 
L 568.697587 145.412647 
L 571.365368 146.952891 
L 574.141691 148.287594 
L 577.01075 149.409156 
L 579.95621 150.311193 
L 582.9613 150.988568 
L 586.008911 151.437425 
L 589.08169 151.655208 
L 592.162143 151.640677 
L 595.232732 151.393915 
L 598.275972 150.916327 
L 601.274538 150.210632 
L 604.211357 149.280847 
L 607.069707 148.132268 
L 609.833315 146.771432 
L 612.486446 145.206089 
L 615.013994 143.44515 
L 617.401568 141.498642 
L 619.635575 139.377648 
L 621.703294 137.094242 
L 623.592954 134.661427 
L 625.293795 132.093053 
L 626.796133 129.403744 
L 628.091415 126.608812 
L 629.172265 123.724169 
L 630.032531 120.76624 
L 630.667314 117.751865 
L 631.073 114.698208 
L 631.247278 111.622654 
L 631.254545 110.852395 
L 631.254545 110.852395 
" style="fill:none;stroke:#1f77b4;stroke-linecap:square;stroke-width:1.5;"/>
   </g>
   <g id="line2d_44">
    <path clip-path="url(#p331c341a27)" d="M 588.388225 110.852395 
L 588.269954 110.328521 
L 587.830986 109.614649 
L 584.732478 105.352522 
L 583.811226 103.548058 
L 583.049013 101.559841 
L 582.503847 99.480912 
L 582.196184 97.419069 
L 582.108727 95.178086 
L 582.270178 92.769871 
L 582.428904 90.487035 
L 582.274206 89.956738 
L 581.926206 89.562688 
L 581.216012 89.191636 
L 575.840191 87.053018 
L 574.087883 85.98379 
L 572.39079 84.680269 
L 570.84437 83.196478 
L 569.518096 81.61731 
L 568.292053 79.793541 
L 567.09245 77.543366 
L 566.193508 75.956474 
L 565.774461 75.602312 
L 565.264372 75.466438 
L 564.458939 75.545259 
L 558.748436 76.651391 
L 556.692252 76.692869 
L 554.559097 76.506616 
L 552.458548 76.087699 
L 550.494559 75.47114 
L 548.486183 74.597043 
L 546.274897 73.356324 
L 544.672695 72.520843 
L 544.131257 72.457674 
L 543.629033 72.627758 
L 542.991569 73.139369 
L 539.020911 76.97387 
L 537.344627 78.134285 
L 535.470292 79.155786 
L 533.484092 79.970561 
L 531.490946 80.546537 
L 529.301955 80.929652 
L 526.931561 81.096734 
L 524.830102 81.246434 
L 524.310386 81.461659 
L 523.95703 81.844873 
L 523.682124 82.576706 
L 523.272663 84.751108 
L 522.757402 86.921011 
L 522.000567 89.066628 
L 521.087497 90.957511 
L 519.946928 92.781994 
L 518.63425 94.445354 
L 517.235267 95.879393 
L 515.633513 97.221723 
L 512.472291 99.724812 
L 512.345455 100.225706 
L 512.432291 100.826613 
L 512.919341 102.115102 
L 513.91879 104.712533 
L 514.488108 106.846148 
L 514.804169 108.889532 
L 514.902277 111.032122 
L 514.765589 113.165516 
L 514.417592 115.182581 
L 513.826935 117.268812 
L 512.840681 119.776781 
L 512.373889 121.133986 
L 512.369069 121.688301 
L 512.587729 122.165289 
L 513.159548 122.720941 
L 517.9393 126.510813 
L 519.30733 128.06596 
L 520.543015 129.820336 
L 521.5745 131.691037 
L 522.364781 133.574826 
L 522.988018 135.643706 
L 523.507946 138.271439 
L 523.851534 139.650856 
L 524.151589 140.112405 
L 524.599615 140.38946 
L 525.390099 140.543061 
L 531.165823 141.0855 
L 533.149406 141.621363 
L 535.144353 142.397507 
L 537.043988 143.38839 
L 538.758087 144.531625 
L 540.443568 145.936135 
L 542.222121 147.753411 
L 543.527865 149.014613 
L 544.029636 149.232068 
L 544.558379 149.214545 
L 545.311559 148.907619 
L 550.18681 146.351138 
L 552.119147 145.707627 
L 554.203783 145.2523 
L 556.33915 145.026511 
L 558.415551 145.032091 
L 560.627589 145.278462 
L 562.955614 145.785225 
L 565.14661 146.241866 
L 565.681552 146.146337 
L 566.114162 145.837556 
L 566.581518 145.161997 
L 569.321413 140.352795 
L 570.606642 138.767529 
L 572.12033 137.261266 
L 573.798386 135.922995 
L 575.548843 134.812536 
L 577.539501 133.832575 
L 579.761645 133.008598 
L 581.726107 132.273646 
L 582.160138 131.91914 
L 582.387751 131.449329 
L 582.44228 130.665613 
L 582.220954 128.455357 
L 582.106123 126.222831 
L 582.196184 124.285721 
L 582.503847 122.223878 
L 583.049013 120.144949 
L 583.811226 118.156732 
L 584.732478 116.352269 
L 585.890496 114.564653 
L 588.36919 111.058474 
L 588.388225 110.852395 
L 588.388225 110.852395 
" style="fill:none;stroke:#ff7f0e;stroke-linecap:square;stroke-width:1.5;"/>
   </g>
   <g id="line2d_45">
    <defs>
     <path d="M 0 3 
C 0.795609 3 1.55874 2.683901 2.12132 2.12132 
C 2.683901 1.55874 3 0.795609 3 0 
C 3 -0.795609 2.683901 -1.55874 2.12132 -2.12132 
C 1.55874 -2.683901 0.795609 -3 0 -3 
C -0.795609 -3 -1.55874 -2.683901 -2.12132 -2.12132 
C -2.683901 -1.55874 -3 -0.795609 -3 0 
C -3 0.795609 -2.683901 1.55874 -2.12132 2.12132 
C -1.55874 2.683901 -0.795609 3 0 3 
z
" id="m7194a4f289" style="stroke:#ff0000;"/>
    </defs>
    <g clip-path="url(#p331c341a27)">
     <use style="fill:#ff0000;stroke:#ff0000;" x="566.905217" xlink:href="#m7194a4f289" y="77.486316"/>
     <use style="fill:#ff0000;stroke:#ff0000;" x="566.905217" xlink:href="#m7194a4f289" y="144.218474"/>
    </g>
   </g>
   <g id="text_2">
    <!-- (C) -->
    <g transform="translate(506.4 59.944877)scale(0.1 -0.1)">
     <defs>
      <path d="M 54.703125 11.15625 
C 48 6.671875 44.90625 5.375 36.796875 5.375 
C 22.796875 5.375 14.59375 20.359375 14.59375 34.046875 
C 14.59375 48.625 23 63 37.203125 63 
C 43.59375 63 47.796875 61.21875 52.90625 58.046875 
L 54.296875 65.890625 
C 49.5 68.28125 43.40625 69.375 37.296875 69.375 
C 18.09375 69.375 6.203125 51.8125 6.203125 34.046875 
C 6.203125 14.484375 20.296875 -1 36.296875 -1 
C 44.90625 -1 47.90625 -0.296875 55.296875 4.375 
z
" id="CMSS17-67"/>
     </defs>
     <use transform="scale(0.996264)" xlink:href="#CMSS17-40"/>
     <use transform="translate(36.433914 0)scale(0.996264)" xlink:href="#CMSS17-67"/>
     <use transform="translate(96.289686 0)scale(0.996264)" xlink:href="#CMSS17-41"/>
    </g>
   </g>
  </g>
  <g id="axes_9">
   <g id="line2d_46">
    <path clip-path="url(#p1c632eddde)" d="M 192.447847 29.256709 
L 190.002805 30.79418 
L 187.680653 32.511635 
L 185.494611 34.399296 
L 183.457125 36.446415 
L 181.579797 38.641337 
L 179.873315 40.971566 
L 178.347395 43.423832 
L 177.010725 45.984175 
L 175.870915 48.638017 
L 174.934455 51.370249 
L 174.206677 54.165313 
L 173.691724 57.007296 
L 173.392529 59.880017 
L 173.310794 62.76712 
L 173.446986 65.652167 
L 173.800329 68.518732 
L 174.36881 71.350493 
L 175.149194 74.131328 
L 176.137037 76.845405 
L 177.326715 79.477269 
L 178.711454 82.011937 
L 180.28337 84.434978 
L 182.033514 86.732594 
L 183.95192 88.891705 
L 186.027666 90.900018 
L 188.248934 92.746099 
L 190.603077 94.419435 
L 192.447847 95.555305 
L 192.447847 95.555305 
" style="fill:none;stroke:#1f77b4;stroke-linecap:square;stroke-width:1.5;"/>
   </g>
   <g id="line2d_47">
    <path clip-path="url(#p1c632eddde)" d="M 209.672727 62.406007 
L 209.561837 61.914824 
L 209.150261 61.245498 
L 206.094001 56.982317 
L 205.207229 55.155366 
L 204.534255 53.264083 
L 204.072264 51.309488 
L 203.824857 49.290624 
L 203.797646 47.248582 
L 204.0057 44.837811 
L 204.080498 43.273468 
L 203.890538 42.731691 
L 203.524375 42.381841 
L 202.806868 42.042661 
L 198.089083 40.188573 
L 196.355577 39.15101 
L 194.75899 37.940014 
L 193.299239 36.55634 
L 191.980127 34.995242 
L 190.830591 33.285279 
L 189.735552 31.235872 
L 188.838354 29.658789 
L 188.412435 29.327272 
L 187.918858 29.225237 
L 187.137853 29.322617 
L 181.985534 30.331453 
L 179.954638 30.378095 
L 177.954595 30.203464 
L 175.985125 29.810688 
L 174.046849 29.196242 
L 172.17947 28.372316 
L 170.075304 27.182273 
L 168.685122 26.466411 
L 168.113815 26.415606 
L 167.643473 26.604693 
L 167.03643 27.117977 
L 163.386019 30.641561 
L 161.720943 31.786907 
L 159.955406 32.735287 
L 158.090105 33.48723 
L 156.122387 34.037431 
L 155.127273 34.229104 
L 155.127273 34.229104 
" style="fill:none;stroke:#ff7f0e;stroke-linecap:square;stroke-width:1.5;"/>
   </g>
   <g id="line2d_48">
    <g clip-path="url(#p1c632eddde)">
     <use style="fill:#1f77b4;stroke:#1f77b4;" x="192.447847" xlink:href="#mbaac665c0b" y="29.256709"/>
     <use style="fill:#1f77b4;stroke:#1f77b4;" x="175.617507" xlink:href="#mbaac665c0b" y="49.314327"/>
     <use style="fill:#1f77b4;stroke:#1f77b4;" x="175.617507" xlink:href="#mbaac665c0b" y="75.497687"/>
     <use style="fill:#1f77b4;stroke:#1f77b4;" x="192.447847" xlink:href="#mbaac665c0b" y="95.555305"/>
    </g>
   </g>
   <g id="line2d_49">
    <g clip-path="url(#p1c632eddde)">
     <use style="fill:#ff7f0e;stroke:#ff7f0e;" x="209.672727" xlink:href="#m1db981d7e4" y="62.406007"/>
     <use style="fill:#ff7f0e;stroke:#ff7f0e;" x="201.165252" xlink:href="#m1db981d7e4" y="41.492343"/>
     <use style="fill:#ff7f0e;stroke:#ff7f0e;" x="179.62357" xlink:href="#m1db981d7e4" y="30.364415"/>
     <use style="fill:#ff7f0e;stroke:#ff7f0e;" x="155.127273" xlink:href="#m1db981d7e4" y="34.229104"/>
    </g>
   </g>
   <g id="line2d_50">
    <path clip-path="url(#p1c632eddde)" d="M 192.447847 29.256709 
L 192.447847 95.555305 
" style="fill:none;stroke:#ff0000;stroke-dasharray:5.55,2.4;stroke-dashoffset:0;stroke-width:1.5;"/>
   </g>
   <g id="line2d_51">
    <path clip-path="url(#p1c632eddde)" d="M 209.672727 62.406007 
L 155.127273 34.229104 
" style="fill:none;stroke:#ff0000;stroke-dasharray:5.55,2.4;stroke-dashoffset:0;stroke-width:1.5;"/>
   </g>
   <g id="text_3">
    <!-- (B) -->
    <g transform="translate(152.4 16.944209)scale(0.1 -0.1)">
     <defs>
      <path d="M 8.90625 69 
L 8.90625 0 
L 33.796875 0 
C 47.40625 0 57.296875 8.96875 57.296875 18.75 
C 57.296875 26.328125 50.796875 34 39.09375 36.203125 
C 52.09375 39.96875 54.703125 47.5 54.703125 51.765625 
C 54.703125 60.671875 44.90625 69 31.203125 69 
z
M 17 39 
L 17 63.421875 
L 28.5 63.421875 
C 38.796875 63.421875 46.90625 58.1875 46.90625 51.65625 
C 46.90625 45.71875 40.5 39 27.59375 39 
z
M 17 5.578125 
L 17 32.921875 
L 30.296875 32.921875 
C 41.09375 32.921875 49.40625 26.234375 49.40625 18.84375 
C 49.40625 12.0625 42.09375 5.578125 31 5.578125 
z
" id="CMSS17-66"/>
     </defs>
     <use transform="scale(0.996264)" xlink:href="#CMSS17-40"/>
     <use transform="translate(36.433914 0)scale(0.996264)" xlink:href="#CMSS17-66"/>
     <use transform="translate(98.771954 0)scale(0.996264)" xlink:href="#CMSS17-41"/>
    </g>
   </g>
  </g>
  <g id="axes_10">
   <g id="line2d_52">
    <path clip-path="url(#p654de1f472)" d="M 351.272727 39.094424 
L 344.35712 43.214901 
L 337.557373 47.523889 
L 330.878621 52.018133 
L 324.325912 56.694237 
L 317.904195 61.548668 
L 311.618323 66.57776 
L 305.473044 71.777711 
L 299.473002 77.144595 
L 296.727273 79.702011 
L 296.727273 79.702011 
" style="fill:none;stroke:#1f77b4;stroke-linecap:square;stroke-width:1.5;"/>
   </g>
   <g id="line2d_53">
    <path clip-path="url(#p654de1f472)" d="M 347.694038 83.00195 
L 344.384778 78.429673 
L 341.243316 73.712237 
L 338.190097 68.722199 
L 335.194432 63.390698 
L 332.039268 57.301906 
L 326.067077 45.623374 
L 324.610043 43.378003 
L 323.359615 41.842143 
L 322.184807 40.741718 
L 321.029889 39.956274 
L 319.81404 39.397572 
L 318.495438 39.038886 
L 317.981583 38.955235 
L 317.981583 38.955235 
" style="fill:none;stroke:#ff7f0e;stroke-linecap:square;stroke-width:1.5;"/>
   </g>
   <g id="line2d_54">
    <g clip-path="url(#p654de1f472)">
     <use style="fill:#1f77b4;stroke:#1f77b4;" x="351.272727" xlink:href="#mbaac665c0b" y="39.094424"/>
     <use style="fill:#1f77b4;stroke:#1f77b4;" x="332.058137" xlink:href="#mbaac665c0b" y="51.204908"/>
     <use style="fill:#1f77b4;stroke:#1f77b4;" x="313.839796" xlink:href="#mbaac665c0b" y="64.76796"/>
     <use style="fill:#1f77b4;stroke:#1f77b4;" x="296.727273" xlink:href="#mbaac665c0b" y="79.702011"/>
    </g>
   </g>
   <g id="line2d_55">
    <g clip-path="url(#p654de1f472)">
     <use style="fill:#ff7f0e;stroke:#ff7f0e;" x="347.694038" xlink:href="#m1db981d7e4" y="83.00195"/>
     <use style="fill:#ff7f0e;stroke:#ff7f0e;" x="333.806959" xlink:href="#m1db981d7e4" y="60.769372"/>
     <use style="fill:#ff7f0e;stroke:#ff7f0e;" x="325.696746" xlink:href="#m1db981d7e4" y="45.010424"/>
     <use style="fill:#ff7f0e;stroke:#ff7f0e;" x="317.981583" xlink:href="#m1db981d7e4" y="38.955235"/>
    </g>
   </g>
   <g id="line2d_56">
    <path clip-path="url(#p654de1f472)" d="M 351.272727 39.094424 
L 296.727273 79.702011 
" style="fill:none;stroke:#ff0000;stroke-dasharray:5.55,2.4;stroke-dashoffset:0;stroke-width:1.5;"/>
   </g>
   <g id="line2d_57">
    <path clip-path="url(#p654de1f472)" d="M 347.694038 83.00195 
L 317.981583 38.955235 
" style="fill:none;stroke:#ff0000;stroke-dasharray:5.55,2.4;stroke-dashoffset:0;stroke-width:1.5;"/>
   </g>
  </g>
  <g id="axes_11">
   <g id="line2d_58">
    <path clip-path="url(#pf8b93c9bc8)" d="M 261.860719 39.600642 
L 258.209045 41.838522 
L 254.679625 44.264634 
L 251.282152 46.872315 
L 248.025955 49.654402 
L 244.919979 52.603256 
L 241.972754 55.710777 
L 239.192373 58.968431 
L 236.586474 62.367271 
L 234.162212 65.897962 
L 231.926246 69.550808 
L 229.884718 73.315776 
L 228.043232 77.182526 
L 226.406848 81.140439 
L 225.927273 82.424456 
L 225.927273 82.424456 
" style="fill:none;stroke:#1f77b4;stroke-linecap:square;stroke-width:1.5;"/>
   </g>
   <g id="line2d_59">
    <path clip-path="url(#pf8b93c9bc8)" d="M 280.472727 65.724208 
L 277.22138 64.501399 
L 274.418727 63.20652 
L 271.828454 61.765766 
L 269.366289 60.143417 
L 267.039717 58.345706 
L 264.845294 56.368808 
L 262.83378 54.262816 
L 260.95156 51.970762 
L 259.222656 49.509889 
L 257.623089 46.836352 
L 255.923225 43.528284 
L 254.535269 40.959361 
L 253.849121 40.149009 
L 253.224098 39.741971 
L 252.522276 39.555575 
L 251.602117 39.560947 
L 250.156587 39.823854 
L 241.997622 41.625018 
L 239.008321 41.932084 
L 236.045168 42.013127 
L 234.480376 41.965638 
L 234.480376 41.965638 
" style="fill:none;stroke:#ff7f0e;stroke-linecap:square;stroke-width:1.5;"/>
   </g>
   <g id="line2d_60">
    <g clip-path="url(#pf8b93c9bc8)">
     <use style="fill:#1f77b4;stroke:#1f77b4;" x="261.860719" xlink:href="#mbaac665c0b" y="39.600642"/>
     <use style="fill:#1f77b4;stroke:#1f77b4;" x="246.640304" xlink:href="#mbaac665c0b" y="50.931821"/>
     <use style="fill:#1f77b4;stroke:#1f77b4;" x="234.443308" xlink:href="#mbaac665c0b" y="65.467635"/>
     <use style="fill:#1f77b4;stroke:#1f77b4;" x="225.927273" xlink:href="#mbaac665c0b" y="82.424456"/>
    </g>
   </g>
   <g id="line2d_61">
    <g clip-path="url(#pf8b93c9bc8)">
     <use style="fill:#ff7f0e;stroke:#ff7f0e;" x="280.472727" xlink:href="#m1db981d7e4" y="65.724208"/>
     <use style="fill:#ff7f0e;stroke:#ff7f0e;" x="260.862118" xlink:href="#m1db981d7e4" y="51.852639"/>
     <use style="fill:#ff7f0e;stroke:#ff7f0e;" x="252.571127" xlink:href="#m1db981d7e4" y="39.561803"/>
     <use style="fill:#ff7f0e;stroke:#ff7f0e;" x="234.480376" xlink:href="#m1db981d7e4" y="41.965638"/>
    </g>
   </g>
   <g id="line2d_62">
    <path clip-path="url(#pf8b93c9bc8)" d="M 261.860719 39.600642 
L 225.927273 82.424456 
" style="fill:none;stroke:#ff0000;stroke-dasharray:5.55,2.4;stroke-dashoffset:0;stroke-width:1.5;"/>
   </g>
   <g id="line2d_63">
    <path clip-path="url(#pf8b93c9bc8)" d="M 280.472727 65.724208 
L 234.480376 41.965638 
" style="fill:none;stroke:#ff0000;stroke-dasharray:5.55,2.4;stroke-dashoffset:0;stroke-width:1.5;"/>
   </g>
  </g>
  <g id="axes_12">
   <g id="line2d_64">
    <path clip-path="url(#p1b195089e2)" d="M 417.295368 50.914021 
L 406.344187 58.560123 
L 395.522172 66.387973 
L 384.83234 74.39539 
L 374.277669 82.580142 
L 367.527273 87.964996 
L 367.527273 87.964996 
" style="fill:none;stroke:#1f77b4;stroke-linecap:square;stroke-width:1.5;"/>
   </g>
   <g id="line2d_65">
    <path clip-path="url(#p1b195089e2)" d="M 422.072727 77.041822 
L 416.536913 66.155182 
L 403.223896 39.709543 
L 400.404054 34.78833 
L 399.91759 33.99219 
L 399.91759 33.99219 
" style="fill:none;stroke:#ff7f0e;stroke-linecap:square;stroke-width:1.5;"/>
   </g>
   <g id="line2d_66">
    <g clip-path="url(#p1b195089e2)">
     <use style="fill:#1f77b4;stroke:#1f77b4;" x="417.295368" xlink:href="#mbaac665c0b" y="50.914021"/>
     <use style="fill:#1f77b4;stroke:#1f77b4;" x="400.388477" xlink:href="#mbaac665c0b" y="62.833975"/>
     <use style="fill:#1f77b4;stroke:#1f77b4;" x="383.795414" xlink:href="#mbaac665c0b" y="75.187053"/>
     <use style="fill:#1f77b4;stroke:#1f77b4;" x="367.527273" xlink:href="#mbaac665c0b" y="87.964996"/>
    </g>
   </g>
   <g id="line2d_67">
    <g clip-path="url(#p1b195089e2)">
     <use style="fill:#ff7f0e;stroke:#ff7f0e;" x="422.072727" xlink:href="#m1db981d7e4" y="77.041822"/>
     <use style="fill:#ff7f0e;stroke:#ff7f0e;" x="413.512451" xlink:href="#m1db981d7e4" y="60.049196"/>
     <use style="fill:#ff7f0e;stroke:#ff7f0e;" x="406.32178" xlink:href="#m1db981d7e4" y="45.582948"/>
     <use style="fill:#ff7f0e;stroke:#ff7f0e;" x="399.91759" xlink:href="#m1db981d7e4" y="33.99219"/>
    </g>
   </g>
   <g id="line2d_68">
    <path clip-path="url(#p1b195089e2)" d="M 417.295368 50.914021 
L 367.527273 87.964996 
" style="fill:none;stroke:#ff0000;stroke-dasharray:5.55,2.4;stroke-dashoffset:0;stroke-width:1.5;"/>
   </g>
   <g id="line2d_69">
    <path clip-path="url(#p1b195089e2)" d="M 422.072727 77.041822 
L 399.91759 33.99219 
" style="fill:none;stroke:#ff0000;stroke-dasharray:5.55,2.4;stroke-dashoffset:0;stroke-width:1.5;"/>
   </g>
  </g>
 </g>
 <defs>
  <clipPath id="p0be8639789">
   <rect height="48.451387" width="60" x="294" y="136.500504"/>
  </clipPath>
  <clipPath id="pbcab44f27f">
   <rect height="61.221286" width="60" x="435.6" y="30.36795"/>
  </clipPath>
  <clipPath id="p3ad659402a">
   <rect height="76.068767" width="60" x="152.4" y="122.691814"/>
  </clipPath>
  <clipPath id="p82fb860c3b">
   <rect height="59.370086" width="60" x="364.8" y="131.041154"/>
  </clipPath>
  <clipPath id="p8f0a90b1e1">
   <rect height="47.180898" width="60" x="223.2" y="137.135748"/>
  </clipPath>
  <clipPath id="p32ba8001cd">
   <rect height="61.221286" width="60" x="435.6" y="130.115554"/>
  </clipPath>
  <clipPath id="p9843ed2c92">
   <rect height="89.815036" width="130.8" x="10.8" y="65.944877"/>
  </clipPath>
  <clipPath id="p331c341a27">
   <rect height="89.815036" width="130.8" x="506.4" y="65.944877"/>
  </clipPath>
  <clipPath id="p1c632eddde">
   <rect height="76.068767" width="60" x="152.4" y="22.944209"/>
  </clipPath>
  <clipPath id="p654de1f472">
   <rect height="48.451387" width="60" x="294" y="36.752899"/>
  </clipPath>
  <clipPath id="pf8b93c9bc8">
   <rect height="47.180898" width="60" x="223.2" y="37.388144"/>
  </clipPath>
  <clipPath id="p1b195089e2">
   <rect height="59.370086" width="60" x="364.8" y="31.29355"/>
  </clipPath>
 </defs>
</svg>
