<?xml version="1.0" encoding="utf-8" standalone="no"?>
<!DOCTYPE svg PUBLIC "-//W3C//DTD SVG 1.1//EN"
  "http://www.w3.org/Graphics/SVG/1.1/DTD/svg11.dtd">
<svg height="360pt" version="1.1" viewBox="0 0 720 360" width="720pt" xmlns="http://www.w3.org/2000/svg" xmlns:xlink="http://www.w3.org/1999/xlink">
 <metadata>
  <rdf:RDF xmlns:cc="http://creativecommons.org/ns#" xmlns:dc="http://purl.org/dc/elements/1.1/" xmlns:rdf="http://www.w3.org/1999/02/22-rdf-syntax-ns#">
   <cc:Work>
    <dc:type rdf:resource="http://purl.org/dc/dcmitype/StillImage"/>
    <dc:date>2022-09-23T11:20:34.760694</dc:date>
    <dc:format>image/svg+xml</dc:format>
    <dc:creator>
     <cc:Agent>
      <dc:title>Matplotlib v3.4.3, https://matplotlib.org/</dc:title>
     </cc:Agent>
    </dc:creator>
   </cc:Work>
  </rdf:RDF>
 </metadata>
 <defs>
  <style type="text/css">*{stroke-linecap:butt;stroke-linejoin:round;}</style>
 </defs>
 <g id="figure_1">
  <g id="patch_1">
   <path d="M 0 360 
L 720 360 
L 720 0 
L 0 0 
z
" style="fill:#ffffff;"/>
  </g>
  <g id="axes_1">
   <g id="line2d_1">
    <path clip-path="url(#pcdfe153117)" d="M 121.909091 246.136364 
L 134.090363 246.026231 
L 146.271635 245.695835 
L 158.452907 245.145182 
L 170.63418 244.374298 
L 182.815452 243.383254 
L 194.996724 242.172193 
L 207.177996 240.741376 
L 219.359268 239.091229 
L 231.540541 237.222405 
L 243.721813 235.13585 
L 256.432705 232.727869 
L 269.143598 230.086281 
L 281.854491 227.213776 
L 294.565384 224.113831 
L 307.276276 220.790847 
L 320.51679 217.098146 
L 333.757303 213.176983 
L 347.527437 208.866581 
L 361.827191 204.152907 
L 376.656566 199.02688 
L 392.545182 193.291213 
L 409.493038 186.931594 
L 428.559378 179.536458 
L 453.451542 169.627186 
L 500.058149 151.029768 
L 517.006006 144.53297 
L 531.30576 139.2813 
L 544.016653 134.848246 
L 555.668305 131.024085 
L 566.260715 127.781784 
L 576.323505 124.938151 
L 585.856675 122.482639 
L 594.860224 120.398899 
L 603.334152 118.665552 
L 611.27846 117.257024 
L 619.222768 116.072737 
L 626.637456 115.18241 
L 634.052143 114.51157 
L 641.46683 114.071692 
L 648.351897 113.879905 
L 651 113.863636 
L 651 113.863636 
" style="fill:none;stroke:#ff7f0e;stroke-linecap:square;stroke-width:1.5;"/>
   </g>
   <g id="line2d_2">
    <path clip-path="url(#pcdfe153117)" d="M 42.545455 325.5 
L 121.909091 246.136364 
" style="fill:none;stroke:#1f77b4;stroke-dasharray:5.55,2.4;stroke-dashoffset:0;stroke-width:1.5;"/>
   </g>
   <g id="line2d_3">
    <path clip-path="url(#pcdfe153117)" d="M 174.818182 140.318182 
L 184.341818 243.243556 
" style="fill:none;stroke:#1f77b4;stroke-dasharray:5.55,2.4;stroke-dashoffset:0;stroke-width:1.5;"/>
   </g>
   <g id="line2d_4">
    <path clip-path="url(#pcdfe153117)" d="M 333.545455 299.045455 
L 311.323636 219.686792 
" style="fill:none;stroke:#1f77b4;stroke-dasharray:5.55,2.4;stroke-dashoffset:0;stroke-width:1.5;"/>
   </g>
   <g id="line2d_5">
    <path clip-path="url(#pcdfe153117)" d="M 386.454545 87.409091 
L 422.961818 181.72983 
" style="fill:none;stroke:#1f77b4;stroke-dasharray:5.55,2.4;stroke-dashoffset:0;stroke-width:1.5;"/>
   </g>
   <g id="line2d_6">
    <path clip-path="url(#pcdfe153117)" d="M 592.8 246.136364 
L 555.763636 130.993858 
" style="fill:none;stroke:#1f77b4;stroke-dasharray:5.55,2.4;stroke-dashoffset:0;stroke-width:1.5;"/>
   </g>
   <g id="line2d_7">
    <path clip-path="url(#pcdfe153117)" d="M 677.454545 34.5 
L 650.470909 113.864288 
" style="fill:none;stroke:#1f77b4;stroke-dasharray:5.55,2.4;stroke-dashoffset:0;stroke-width:1.5;"/>
   </g>
   <g id="line2d_8">
    <defs>
     <path d="M 0 3 
C 0.795609 3 1.55874 2.683901 2.12132 2.12132 
C 2.683901 1.55874 3 0.795609 3 0 
C 3 -0.795609 2.683901 -1.55874 2.12132 -2.12132 
C 1.55874 -2.683901 0.795609 -3 0 -3 
C -0.795609 -3 -1.55874 -2.683901 -2.12132 -2.12132 
C -2.683901 -1.55874 -3 -0.795609 -3 0 
C -3 0.795609 -2.683901 1.55874 -2.12132 2.12132 
C -1.55874 2.683901 -0.795609 3 0 3 
z
" id="mc1a140d6e3" style="stroke:#1f77b4;"/>
    </defs>
    <g clip-path="url(#pcdfe153117)">
     <use style="fill:#1f77b4;stroke:#1f77b4;" x="42.545455" xlink:href="#mc1a140d6e3" y="325.5"/>
    </g>
   </g>
   <g id="line2d_9">
    <g clip-path="url(#pcdfe153117)">
     <use style="fill:#1f77b4;stroke:#1f77b4;" x="174.818182" xlink:href="#mc1a140d6e3" y="140.318182"/>
    </g>
   </g>
   <g id="line2d_10">
    <g clip-path="url(#pcdfe153117)">
     <use style="fill:#1f77b4;stroke:#1f77b4;" x="333.545455" xlink:href="#mc1a140d6e3" y="299.045455"/>
    </g>
   </g>
   <g id="line2d_11">
    <g clip-path="url(#pcdfe153117)">
     <use style="fill:#1f77b4;stroke:#1f77b4;" x="386.454545" xlink:href="#mc1a140d6e3" y="87.409091"/>
    </g>
   </g>
   <g id="line2d_12">
    <g clip-path="url(#pcdfe153117)">
     <use style="fill:#1f77b4;stroke:#1f77b4;" x="592.8" xlink:href="#mc1a140d6e3" y="246.136364"/>
    </g>
   </g>
   <g id="line2d_13">
    <g clip-path="url(#pcdfe153117)">
     <use style="fill:#1f77b4;stroke:#1f77b4;" x="677.454545" xlink:href="#mc1a140d6e3" y="34.5"/>
    </g>
   </g>
   <g id="line2d_14">
    <g clip-path="url(#pcdfe153117)">
     <use style="fill:#1f77b4;stroke:#1f77b4;" x="121.909091" xlink:href="#mc1a140d6e3" y="246.136364"/>
    </g>
   </g>
   <g id="line2d_15">
    <g clip-path="url(#pcdfe153117)">
     <use style="fill:#1f77b4;stroke:#1f77b4;" x="184.341818" xlink:href="#mc1a140d6e3" y="243.243556"/>
    </g>
   </g>
   <g id="line2d_16">
    <g clip-path="url(#pcdfe153117)">
     <use style="fill:#1f77b4;stroke:#1f77b4;" x="311.323636" xlink:href="#mc1a140d6e3" y="219.686792"/>
    </g>
   </g>
   <g id="line2d_17">
    <g clip-path="url(#pcdfe153117)">
     <use style="fill:#1f77b4;stroke:#1f77b4;" x="422.961818" xlink:href="#mc1a140d6e3" y="181.72983"/>
    </g>
   </g>
   <g id="line2d_18">
    <g clip-path="url(#pcdfe153117)">
     <use style="fill:#1f77b4;stroke:#1f77b4;" x="555.763636" xlink:href="#mc1a140d6e3" y="130.993858"/>
    </g>
   </g>
   <g id="line2d_19">
    <g clip-path="url(#pcdfe153117)">
     <use style="fill:#1f77b4;stroke:#1f77b4;" x="650.470909" xlink:href="#mc1a140d6e3" y="113.864288"/>
    </g>
   </g>
  </g>
 </g>
 <defs>
  <clipPath id="pcdfe153117">
   <rect height="320.1" width="698.4" x="10.8" y="19.95"/>
  </clipPath>
 </defs>
</svg>
