<?xml version="1.0" encoding="utf-8" standalone="no"?>
<!DOCTYPE svg PUBLIC "-//W3C//DTD SVG 1.1//EN"
  "http://www.w3.org/Graphics/SVG/1.1/DTD/svg11.dtd">
<!-- Created with matplotlib (https://matplotlib.org/) -->
<svg height="504pt" version="1.1" viewBox="0 0 864 504" width="864pt" xmlns="http://www.w3.org/2000/svg" xmlns:xlink="http://www.w3.org/1999/xlink">
 <metadata>
  <rdf:RDF xmlns:cc="http://creativecommons.org/ns#" xmlns:dc="http://purl.org/dc/elements/1.1/" xmlns:rdf="http://www.w3.org/1999/02/22-rdf-syntax-ns#">
   <cc:Work>
    <dc:type rdf:resource="http://purl.org/dc/dcmitype/StillImage"/>
    <dc:date>2022-08-25T14:22:40.406842</dc:date>
    <dc:format>image/svg+xml</dc:format>
    <dc:creator>
     <cc:Agent>
      <dc:title>Matplotlib v3.3.3, https://matplotlib.org/</dc:title>
     </cc:Agent>
    </dc:creator>
   </cc:Work>
  </rdf:RDF>
 </metadata>
 <defs>
  <style type="text/css">*{stroke-linecap:butt;stroke-linejoin:round;}</style>
 </defs>
 <g id="figure_1">
  <g id="patch_1">
   <path d="M 0 504 
L 864 504 
L 864 0 
L 0 0 
z
" style="fill:#ffffff;"/>
  </g>
  <g id="axes_1">
   <g id="patch_2">
    <path clip-path="url(#p0ce9215bf4)" d="M 814.909091 67.711157 
L 804.990058 74.35051 
L 804.140141 71.256811 
L 117.181827 259.981623 
L 116.881856 258.889729 
L 803.84017 70.164918 
L 802.990253 67.071219 
z
" style="fill:#ff7f0e;stroke:#ff7f0e;stroke-linejoin:miter;"/>
   </g>
   <g id="line2d_1">
    <path clip-path="url(#p0ce9215bf4)" d="M 49.090909 259.435676 
L 50.359165 259.547439 
L 51.64252 259.886318 
L 52.956071 260.465292 
L 54.330015 261.31825 
L 55.77945 262.487167 
L 57.304377 264.008663 
L 58.934992 265.957848 
L 60.671295 268.388008 
L 62.543483 271.402731 
L 64.551555 275.070433 
L 66.71061 279.487557 
L 69.065943 284.828172 
L 71.632651 291.216197 
L 74.471129 298.897199 
L 77.656868 308.182256 
L 81.355948 319.677256 
L 85.991122 334.851606 
L 102.9314 391.025375 
L 106.645579 402.16614 
L 109.89171 411.221935 
L 112.820778 418.752889 
L 115.508273 425.064238 
L 117.984392 430.327928 
L 120.29443 434.730607 
L 122.453485 438.380093 
L 124.476656 441.376146 
L 126.37904 443.80845 
L 128.175736 445.755593 
L 129.881842 447.284739 
L 131.497359 448.442249 
L 133.052483 449.287624 
L 134.547213 449.850573 
L 135.996648 450.162531 
L 137.430986 450.244799 
L 138.865323 450.102662 
L 140.314759 449.732475 
L 141.794391 449.12171 
L 143.319318 448.24888 
L 144.919736 447.071021 
L 146.595646 445.555412 
L 148.362145 443.652376 
L 150.234333 441.302664 
L 152.227307 438.437679 
L 154.356165 434.980117 
L 156.651105 430.816407 
L 159.112126 425.879497 
L 161.784522 420.00819 
L 164.71359 413.021993 
L 167.97482 404.650986 
L 171.704097 394.443325 
L 176.203386 381.448438 
L 182.801338 361.630871 
L 192.207571 333.457752 
L 196.903138 320.122069 
L 200.813594 309.664375 
L 204.2862 300.996044 
L 207.441742 293.701736 
L 210.355711 287.510359 
L 213.088501 282.214625 
L 215.65521 277.71526 
L 218.086034 273.894417 
L 220.380974 270.690977 
L 222.570225 268.007174 
L 224.668887 265.779098 
L 226.67696 263.964392 
L 228.60954 262.510503 
L 230.481728 261.374146 
L 232.308621 260.520852 
L 234.105317 259.924469 
L 235.886915 259.566662 
L 237.668512 259.436432 
L 239.465209 259.529682 
L 241.292101 259.848795 
L 243.179387 260.407588 
L 245.127066 261.218339 
L 247.180433 262.318011 
L 249.354586 263.740529 
L 251.664624 265.522684 
L 254.155842 267.730793 
L 256.873533 270.442831 
L 259.908289 273.794987 
L 263.380895 277.974511 
L 267.608415 283.428373 
L 274.115777 292.237866 
L 281.891395 302.67575 
L 286.239701 308.137078 
L 289.878388 312.360523 
L 293.12452 315.795081 
L 296.083784 318.610353 
L 298.846771 320.938703 
L 301.458775 322.85354 
L 303.934894 324.398182 
L 306.320423 325.627787 
L 308.630461 326.570402 
L 310.880106 327.249955 
L 313.084455 327.685808 
L 315.273707 327.893203 
L 317.462959 327.87732 
L 319.667309 327.638681 
L 321.916953 327.169398 
L 324.211893 326.462137 
L 326.597422 325.49105 
L 329.073541 324.240278 
L 331.685545 322.668083 
L 334.46363 320.731469 
L 337.45309 318.370542 
L 340.71432 315.505594 
L 344.383204 311.977284 
L 348.671118 307.532897 
L 354.302779 301.351918 
L 368.631053 285.487775 
L 373.281325 280.756684 
L 377.342764 276.935105 
L 381.056943 273.740442 
L 384.544647 271.029651 
L 387.881369 268.714756 
L 391.112402 266.741143 
L 394.283042 265.062874 
L 397.423486 263.649852 
L 400.594126 262.466818 
L 403.82516 261.499686 
L 407.161881 260.734063 
L 410.69488 260.153776 
L 414.544943 259.750331 
L 418.998938 259.5145 
L 425.068449 259.436265 
L 435.274891 259.313445 
L 439.774181 259.014414 
L 443.624244 258.53916 
L 447.142145 257.882713 
L 450.463768 257.037235 
L 453.664605 255.992978 
L 456.805048 254.733565 
L 459.915295 253.246209 
L 463.055739 251.495875 
L 466.241478 249.463761 
L 469.532904 247.096958 
L 472.960215 244.354702 
L 476.598902 241.153647 
L 480.554654 237.370363 
L 485.023747 232.777864 
L 490.54972 226.761137 
L 507.142737 208.471246 
L 511.249471 204.408839 
L 514.797568 201.203311 
L 517.983307 198.617711 
L 520.912375 196.521116 
L 523.645164 194.834056 
L 526.211873 193.505728 
L 528.657796 192.485694 
L 531.013128 191.741471 
L 533.29297 191.252122 
L 535.527516 190.999462 
L 537.716768 190.974393 
L 539.906019 191.172511 
L 542.095271 191.595296 
L 544.299621 192.247947 
L 546.549266 193.147091 
L 548.859304 194.31173 
L 551.259931 195.775039 
L 553.766247 197.568575 
L 556.393349 199.726469 
L 559.186532 202.313297 
L 562.206189 205.420528 
L 565.512714 209.15065 
L 569.257089 213.720749 
L 573.801674 219.636165 
L 581.531996 230.137587 
L 587.827982 238.522299 
L 591.889421 243.57004 
L 595.256339 247.412006 
L 598.215603 250.461374 
L 600.888 252.904137 
L 603.333923 254.84705 
L 605.613764 256.380488 
L 607.757721 257.558554 
L 609.780891 258.42029 
L 611.713472 259.004617 
L 613.570561 259.336462 
L 615.382356 259.435198 
L 617.163953 259.308778 
L 618.930453 258.958842 
L 620.696953 258.380377 
L 622.47855 257.561382 
L 624.305443 256.472446 
L 626.177631 255.092162 
L 628.110211 253.384967 
L 630.103185 251.323446 
L 632.186749 248.842473 
L 634.360902 245.901673 
L 636.640744 242.437641 
L 639.041371 238.378834 
L 641.592982 233.617053 
L 644.295575 228.092311 
L 647.194446 221.648223 
L 650.319791 214.146856 
L 653.762201 205.289899 
L 657.627362 194.712635 
L 662.217242 181.476503 
L 668.709505 162.0027 
L 678.553588 132.512218 
L 683.083074 119.683426 
L 686.812351 109.769076 
L 690.073581 101.713797 
L 693.002649 95.055947 
L 695.675045 89.519002 
L 698.136066 84.917391 
L 700.415907 81.111898 
L 702.544766 77.979011 
L 704.53774 75.431564 
L 706.409927 73.390908 
L 708.176427 71.787981 
L 709.837238 70.573502 
L 711.422559 69.683807 
L 712.947486 69.080211 
L 714.412019 68.736032 
L 715.846357 68.624533 
L 717.265596 68.735225 
L 718.699933 69.071232 
L 720.164467 69.647046 
L 721.659197 70.476866 
L 723.214321 71.598767 
L 724.844936 73.056285 
L 726.551042 74.886101 
L 728.347738 77.14506 
L 730.250122 79.900778 
L 732.273293 83.231561 
L 734.432348 87.225865 
L 736.742386 91.981018 
L 739.218505 97.600904 
L 741.890901 104.231205 
L 744.819969 112.11125 
L 748.066101 121.503181 
L 751.780279 132.95668 
L 756.309765 147.685831 
L 763.738123 172.73667 
L 770.577647 195.503593 
L 774.790069 208.767867 
L 778.262675 218.994075 
L 781.29743 227.262201 
L 784.015122 234.04318 
L 786.491241 239.643335 
L 788.771082 244.265151 
L 790.869744 248.03258 
L 792.817423 251.08608 
L 794.629218 253.525183 
L 796.320226 255.438851 
L 797.905546 256.904448 
L 799.385178 257.977928 
L 800.789319 258.728012 
L 802.133066 259.196458 
L 803.416421 259.412759 
L 803.990155 259.435676 
L 803.990155 259.435676 
" style="fill:none;stroke:#1f77b4;stroke-linecap:square;stroke-width:2;"/>
   </g>
   <g id="line2d_2">
    <path clip-path="url(#p0ce9215bf4)" d="M 171.141026 259.435676 
L 171.034041 256.034736 
L 170.713506 252.647244 
L 170.18069 249.286597 
L 169.4377 245.966084 
L 168.487474 242.698836 
L 167.333769 239.497773 
L 165.981148 236.375553 
L 164.43496 233.344523 
L 162.701318 230.416669 
L 160.78708 227.603569 
L 158.699813 224.916347 
L 156.447773 222.365631 
L 154.039864 219.961505 
L 151.48561 217.713479 
L 148.79511 215.63044 
L 145.979003 213.720627 
L 143.048427 211.991591 
L 140.01497 210.450171 
L 136.890627 209.102461 
L 133.687753 207.953791 
L 130.419015 207.008703 
L 127.097338 206.270935 
L 123.735857 205.743404 
L 120.347866 205.428196 
L 116.946762 205.326558 
L 113.545994 205.438891 
L 110.159011 205.764752 
L 106.799205 206.302851 
L 103.479865 207.051061 
L 100.214115 208.006424 
L 97.014869 209.16516 
L 93.89478 210.522689 
L 90.866185 212.073641 
L 87.941061 213.811884 
L 85.130974 215.730544 
L 82.447038 217.822033 
L 79.899865 220.078081 
L 77.499529 222.489767 
L 75.255521 225.047553 
L 73.176716 227.741325 
L 71.271333 230.560431 
L 69.546907 233.493722 
L 68.010259 236.529599 
L 66.667463 239.656057 
L 65.52383 242.860733 
L 64.583883 246.130953 
L 63.851339 249.453786 
L 63.329094 252.816092 
L 63.019214 256.204575 
L 62.922924 259.605835 
L 63.040604 263.006422 
L 63.37179 266.392889 
L 63.915171 269.751844 
L 64.6686 273.070004 
L 65.629096 276.334248 
L 66.792862 279.531667 
L 68.155294 282.649618 
L 69.711007 285.67577 
L 71.453847 288.598158 
L 73.376923 291.405224 
L 75.47263 294.085869 
L 77.73268 296.629491 
L 80.148137 299.026032 
L 82.709448 301.266015 
L 85.406486 303.340582 
L 88.228584 305.24153 
L 91.164583 306.961341 
L 94.202873 308.493215 
L 97.331438 309.831093 
L 100.537908 310.969685 
L 103.809602 311.904489 
L 107.133583 312.631808 
L 110.496706 313.148765 
L 113.885672 313.453317 
L 117.287079 313.544259 
L 120.687477 313.421232 
L 124.073419 313.084722 
L 127.431515 312.536059 
L 130.748486 311.777414 
L 134.011216 310.811787 
L 137.206801 309.642995 
L 140.322606 308.275662 
L 143.346309 306.715193 
L 146.265953 304.96776 
L 149.069992 303.040273 
L 151.747337 300.940354 
L 154.287403 298.676306 
L 156.680143 296.257084 
L 158.916096 293.692254 
L 160.98642 290.991958 
L 162.882928 288.166874 
L 164.598121 285.228175 
L 166.125215 282.18748 
L 167.458172 279.056814 
L 168.591721 275.848558 
L 169.521379 272.575398 
L 170.243471 269.250278 
L 170.75514 265.886346 
L 171.054362 262.496906 
L 171.141026 259.435676 
L 171.141026 259.435676 
" style="fill:none;stroke:#2ca02c;stroke-linecap:square;"/>
   </g>
   <g id="line2d_3">
    <defs>
     <path d="M 0 1.5 
C 0.397805 1.5 0.77937 1.341951 1.06066 1.06066 
C 1.341951 0.77937 1.5 0.397805 1.5 0 
C 1.5 -0.397805 1.341951 -0.77937 1.06066 -1.06066 
C 0.77937 -1.341951 0.397805 -1.5 0 -1.5 
C -0.397805 -1.5 -0.77937 -1.341951 -1.06066 -1.06066 
C -1.341951 -0.77937 -1.5 -0.397805 -1.5 0 
C -1.5 0.397805 -1.341951 0.77937 -1.06066 1.06066 
C -0.77937 1.341951 -0.397805 1.5 0 1.5 
z
" id="m82edb4e3c5" style="stroke:#2ca02c;"/>
    </defs>
    <g clip-path="url(#p0ce9215bf4)">
     <use style="fill:#2ca02c;stroke:#2ca02c;" x="117.031841" xlink:href="#m82edb4e3c5" y="259.435676"/>
    </g>
   </g>
   <g id="line2d_4">
    <path clip-path="url(#p0ce9215bf4)" d="M 225.873943 245.101602 
L 225.761901 241.539953 
L 225.42622 237.992388 
L 224.868226 234.472936 
L 224.090127 230.995515 
L 223.094998 227.573876 
L 221.886776 224.221549 
L 220.470238 220.951791 
L 218.850986 217.777532 
L 217.035423 214.711325 
L 215.030729 211.765294 
L 212.84483 208.95109 
L 210.486371 206.279842 
L 207.964679 203.762111 
L 205.289726 201.407856 
L 202.472088 199.226385 
L 199.522909 197.226325 
L 196.453851 195.415586 
L 193.27705 193.801327 
L 190.005069 192.389932 
L 186.650846 191.186982 
L 183.227646 190.197235 
L 179.749006 189.424604 
L 176.228681 188.872145 
L 172.680593 188.542042 
L 169.118773 188.435601 
L 165.557304 188.553243 
L 162.010272 188.894502 
L 158.491702 189.458029 
L 155.015509 190.241595 
L 151.595438 191.242102 
L 148.245015 192.455594 
L 144.977489 193.877271 
L 141.80578 195.501513 
L 138.742431 197.321895 
L 135.799556 199.331219 
L 132.988793 201.52154 
L 130.321256 203.884196 
L 127.807494 206.409843 
L 125.457447 209.088496 
L 123.280409 211.90956 
L 121.284989 214.86188 
L 119.479077 217.933782 
L 117.869815 221.113117 
L 116.463567 224.387313 
L 115.265893 227.743423 
L 114.28153 231.168175 
L 113.51437 234.648026 
L 112.967446 238.169215 
L 112.642923 241.717817 
L 112.542082 245.279801 
L 112.665324 248.84108 
L 113.01216 252.387572 
L 113.581218 255.905251 
L 114.370249 259.380208 
L 115.376133 262.798701 
L 116.594891 266.147212 
L 118.021705 269.412499 
L 119.650931 272.58165 
L 121.476128 275.642133 
L 123.490077 278.581844 
L 125.684814 281.38916 
L 128.051662 284.052979 
L 130.581259 286.562767 
L 133.263603 288.908599 
L 136.088087 291.081198 
L 139.043541 293.071974 
L 142.118278 294.873053 
L 145.30014 296.477314 
L 148.576543 297.878412 
L 151.934532 299.070808 
L 155.360828 300.049785 
L 158.84188 300.811472 
L 162.363925 301.352858 
L 165.913034 301.671802 
L 169.475171 301.767041 
L 173.036252 301.6382 
L 176.582194 301.285789 
L 180.098974 300.7112 
L 183.572686 299.916706 
L 186.989593 298.905448 
L 190.336184 297.681426 
L 193.599223 296.24948 
L 196.765809 294.615273 
L 199.823418 292.785266 
L 202.759959 290.766697 
L 205.563821 288.567548 
L 208.223915 286.196516 
L 210.729722 283.662975 
L 213.071333 280.976946 
L 215.239489 278.14905 
L 217.225615 275.190469 
L 219.021857 272.112903 
L 220.621113 268.928523 
L 222.017058 265.649921 
L 223.204172 262.290061 
L 224.177761 258.862231 
L 224.933974 255.379984 
L 225.469821 251.857093 
L 225.783183 248.307487 
L 225.873943 245.101602 
L 225.873943 245.101602 
" style="fill:none;stroke:#2ca02c;stroke-linecap:square;"/>
   </g>
   <g id="line2d_5">
    <g clip-path="url(#p0ce9215bf4)">
     <use style="fill:#2ca02c;stroke:#2ca02c;" x="169.207872" xlink:href="#m82edb4e3c5" y="245.101602"/>
    </g>
   </g>
   <g id="line2d_6">
    <path clip-path="url(#p0ce9215bf4)" d="M 255.371047 230.090182 
L 255.265741 227.515746 
L 254.950528 224.958511 
L 254.427513 222.435564 
L 253.70019 219.96376 
L 252.77342 217.559616 
L 251.653395 215.239195 
L 250.347598 213.018001 
L 248.864753 210.910875 
L 247.214769 208.931895 
L 245.40867 207.094284 
L 243.458522 205.410319 
L 241.377357 203.891253 
L 239.179079 202.547236 
L 236.878376 201.387246 
L 234.490621 200.419034 
L 232.031766 199.64907 
L 229.518242 199.082498 
L 226.966841 198.723104 
L 224.394611 198.573289 
L 221.818739 198.634053 
L 219.256435 198.904992 
L 216.724819 199.384294 
L 214.240806 200.068757 
L 211.820993 200.953808 
L 209.481548 202.033534 
L 207.238103 203.30072 
L 205.105645 204.7469 
L 203.098424 206.36241 
L 201.229851 208.136458 
L 199.512411 210.057189 
L 197.957578 212.11177 
L 196.575741 214.286474 
L 195.376134 216.566771 
L 194.36677 218.937424 
L 193.554395 221.382594 
L 192.944436 223.885943 
L 192.540969 226.430747 
L 192.346689 229.000001 
L 192.362894 231.576538 
L 192.589476 234.143145 
L 193.024922 236.682672 
L 193.666321 239.178151 
L 194.509389 241.612909 
L 195.548492 243.970679 
L 196.776688 246.235705 
L 198.18577 248.392856 
L 199.766323 250.427717 
L 201.507788 252.326693 
L 203.398529 254.077096 
L 205.425911 255.667231 
L 207.576391 257.086472 
L 209.835599 258.325339 
L 212.18844 259.375552 
L 214.619194 260.230095 
L 217.11162 260.883259 
L 219.649065 261.330679 
L 222.214574 261.569366 
L 224.791007 261.597724 
L 227.361149 261.415566 
L 229.907827 261.024107 
L 232.414026 260.425963 
L 234.863001 259.625131 
L 237.238389 258.626962 
L 239.524319 257.438124 
L 241.705517 256.066561 
L 243.76741 254.521437 
L 245.696221 252.813076 
L 247.479063 250.952892 
L 249.104023 248.953314 
L 250.560246 246.827702 
L 251.838 244.590259 
L 252.928749 242.255933 
L 253.825205 239.840322 
L 254.521378 237.359565 
L 255.012617 234.830238 
L 255.295639 232.269241 
L 255.371047 230.090182 
L 255.371047 230.090182 
" style="fill:none;stroke:#2ca02c;stroke-linecap:square;"/>
   </g>
   <g id="line2d_7">
    <g clip-path="url(#p0ce9215bf4)">
     <use style="fill:#2ca02c;stroke:#2ca02c;" x="223.849439" xlink:href="#m82edb4e3c5" y="230.090182"/>
    </g>
   </g>
   <g id="line2d_8">
    <path clip-path="url(#p0ce9215bf4)" d="M 294.439181 221.739787 
L 294.324757 218.709053 
L 293.982134 215.695576 
L 293.413265 212.716511 
L 292.621387 209.788821 
L 291.61101 206.929175 
L 290.387885 204.153854 
L 288.958978 201.47866 
L 287.332424 198.918824 
L 285.517483 196.488922 
L 283.524489 194.202786 
L 281.36479 192.073435 
L 279.050681 190.112992 
L 276.595338 188.332618 
L 274.012742 186.74245 
L 271.317595 185.351542 
L 268.525244 184.167814 
L 265.651587 183.198004 
L 262.712984 182.447635 
L 259.726168 181.920978 
L 256.708143 181.621034 
L 253.676094 181.549508 
L 250.647283 181.706808 
L 247.638956 182.09204 
L 244.668239 182.703009 
L 241.752048 183.536236 
L 238.906986 184.586979 
L 236.149251 185.849254 
L 233.494545 187.315874 
L 230.957983 188.97849 
L 228.554007 190.827634 
L 226.296303 192.852779 
L 224.197726 195.042394 
L 222.270226 197.384013 
L 220.524775 199.864304 
L 218.971313 202.469144 
L 217.618683 205.183703 
L 216.474587 207.992525 
L 215.545539 210.879619 
L 214.836829 213.828545 
L 214.352491 216.822515 
L 214.095284 219.844482 
L 214.066671 222.87724 
L 214.266816 225.903521 
L 214.69458 228.906097 
L 215.347525 231.86787 
L 216.221936 234.771978 
L 217.312834 237.601886 
L 218.614006 240.341483 
L 220.118046 242.975169 
L 221.81639 245.48795 
L 223.699367 247.865519 
L 225.756258 250.094339 
L 227.975351 252.16172 
L 230.344011 254.055892 
L 232.848753 255.766069 
L 235.475315 257.282516 
L 238.208743 258.596597 
L 241.033474 259.700831 
L 243.933425 260.588931 
L 246.892085 261.255841 
L 249.892609 261.697763 
L 252.917913 261.912181 
L 255.950772 261.897874 
L 258.973918 261.654925 
L 261.97014 261.184715 
L 264.922377 260.489923 
L 267.81382 259.574504 
L 270.628008 258.443671 
L 273.348917 257.103861 
L 275.961057 255.562703 
L 278.449553 253.828971 
L 280.800238 251.912538 
L 282.999728 249.824313 
L 285.035501 247.576187 
L 286.895964 245.18096 
L 288.570526 242.652269 
L 290.049653 240.004511 
L 291.324922 237.252761 
L 292.389073 234.412687 
L 293.236048 231.500459 
L 293.861023 228.532657 
L 294.26044 225.52618 
L 294.432027 222.498145 
L 294.439181 221.739787 
L 294.439181 221.739787 
" style="fill:none;stroke:#2ca02c;stroke-linecap:square;"/>
   </g>
   <g id="line2d_9">
    <g clip-path="url(#p0ce9215bf4)">
     <use style="fill:#2ca02c;stroke:#2ca02c;" x="254.244877" xlink:href="#m82edb4e3c5" y="221.739787"/>
    </g>
   </g>
   <g id="line2d_10">
    <path clip-path="url(#p0ce9215bf4)" d="M 361.328015 211.091906 
L 361.218582 207.226424 
L 360.890635 203.373325 
L 360.345224 199.54495 
L 359.584096 195.753564 
L 358.609689 192.011311 
L 357.425124 188.330179 
L 356.034197 184.72196 
L 354.441362 181.198212 
L 352.651723 177.770222 
L 350.671011 174.448971 
L 348.505571 171.245099 
L 346.16234 168.168868 
L 343.648825 165.230133 
L 340.973076 162.438307 
L 338.143665 159.802332 
L 335.169656 157.330654 
L 332.060574 155.03119 
L 328.82638 152.911304 
L 325.477434 150.977789 
L 322.024462 149.236837 
L 318.478526 147.694026 
L 314.850986 146.354298 
L 311.15346 145.221943 
L 307.397793 144.30059 
L 303.596016 143.593189 
L 299.760306 143.102007 
L 295.902952 142.828618 
L 292.036309 142.773896 
L 288.172762 142.938017 
L 284.324689 143.320456 
L 280.504416 143.919988 
L 276.72418 144.734691 
L 272.996091 145.761956 
L 269.33209 146.998493 
L 265.743915 148.44034 
L 262.243059 150.08288 
L 258.840737 151.920849 
L 255.547848 153.948361 
L 252.374939 156.158922 
L 249.332175 158.545449 
L 246.429303 161.100298 
L 243.67562 163.815286 
L 241.079948 166.681715 
L 238.650602 169.690403 
L 236.395364 172.831712 
L 234.321458 176.095581 
L 232.435526 179.471553 
L 230.743612 182.948815 
L 229.251133 186.516227 
L 227.962871 190.162363 
L 226.882953 193.875543 
L 226.014838 197.643871 
L 225.361307 201.455278 
L 224.924452 205.297554 
L 224.705675 209.158391 
L 224.705675 213.025422 
L 224.924452 216.886259 
L 225.361307 220.728534 
L 226.014838 224.539941 
L 226.882953 228.30827 
L 227.962871 232.02145 
L 229.251133 235.667585 
L 230.743612 239.234998 
L 232.435526 242.71226 
L 234.321458 246.088232 
L 236.395364 249.3521 
L 238.650602 252.49341 
L 241.079948 255.502098 
L 243.67562 258.368527 
L 246.429303 261.083514 
L 249.332175 263.638364 
L 252.374939 266.024891 
L 255.547848 268.235451 
L 258.840737 270.262964 
L 262.243059 272.100933 
L 265.743915 273.743472 
L 269.33209 275.18532 
L 272.996091 276.421857 
L 276.72418 277.449122 
L 280.504416 278.263825 
L 284.324689 278.863356 
L 288.172762 279.245795 
L 292.036309 279.409917 
L 295.902952 279.355195 
L 299.760306 279.081805 
L 303.596016 278.590623 
L 307.397793 277.883223 
L 311.15346 276.96187 
L 314.850986 275.829515 
L 318.478526 274.489786 
L 322.024462 272.946975 
L 325.477434 271.206024 
L 328.82638 269.272508 
L 332.060574 267.152623 
L 335.169656 264.853158 
L 338.143665 262.38148 
L 340.973076 259.745506 
L 343.648825 256.95368 
L 346.16234 254.014944 
L 348.505571 250.938714 
L 350.671011 247.734841 
L 352.651723 244.413591 
L 354.441362 240.985601 
L 356.034197 237.461853 
L 357.425124 233.853633 
L 358.609689 230.172501 
L 359.584096 226.430249 
L 360.345224 222.638862 
L 360.890635 218.810488 
L 361.218582 214.957388 
L 361.328015 211.091906 
L 361.328015 211.091906 
" style="fill:none;stroke:#2ca02c;stroke-linecap:square;"/>
   </g>
   <g id="line2d_11">
    <g clip-path="url(#p0ce9215bf4)">
     <use style="fill:#2ca02c;stroke:#2ca02c;" x="293.003163" xlink:href="#m82edb4e3c5" y="211.091906"/>
    </g>
   </g>
   <g id="line2d_12">
    <path clip-path="url(#p0ce9215bf4)" d="M 439.180763 192.991957 
L 439.079145 188.953616 
L 438.774549 184.925496 
L 438.267747 180.917794 
L 437.56002 176.940653 
L 436.65316 173.00414 
L 435.549462 169.118219 
L 434.251721 165.292727 
L 432.76322 161.537345 
L 431.087728 157.861579 
L 429.229486 154.274733 
L 427.193196 150.785887 
L 424.984014 147.40387 
L 422.60753 144.137243 
L 420.06976 140.994274 
L 417.377127 137.982919 
L 414.536448 135.1108 
L 411.554912 132.385187 
L 408.440065 129.812978 
L 405.199792 127.400685 
L 401.842295 125.154412 
L 398.376072 123.079846 
L 394.809896 121.182238 
L 391.152794 119.466391 
L 387.414023 117.936647 
L 383.603045 116.59688 
L 379.729508 115.45048 
L 375.803214 114.500348 
L 371.834104 113.74889 
L 367.832222 113.198008 
L 363.807699 112.849096 
L 359.770721 112.703037 
L 355.731506 112.760201 
L 351.700277 113.020443 
L 347.68724 113.483105 
L 343.70255 114.147015 
L 339.756295 115.010493 
L 335.858462 116.071354 
L 332.018918 117.326912 
L 328.24738 118.773989 
L 324.553396 120.408923 
L 320.946315 122.227575 
L 317.435268 124.225342 
L 314.02914 126.397167 
L 310.736555 128.737553 
L 307.565845 131.240577 
L 304.525037 133.899902 
L 301.621826 136.708798 
L 298.863562 139.660154 
L 296.257226 142.746502 
L 293.809415 145.960027 
L 291.526324 149.292598 
L 289.413734 152.735778 
L 287.47699 156.280852 
L 285.720995 159.918847 
L 284.150194 163.640555 
L 282.768563 167.436556 
L 281.579598 171.297241 
L 280.58631 175.212839 
L 279.791212 179.173438 
L 279.196317 183.169014 
L 278.803131 187.189453 
L 278.612648 191.22458 
L 278.625352 195.264179 
L 278.841209 199.298028 
L 279.259674 203.315915 
L 279.879687 207.30767 
L 280.699679 211.26319 
L 281.717575 215.172463 
L 282.930797 219.025594 
L 284.336276 222.81283 
L 285.930453 226.524585 
L 287.709294 230.151464 
L 289.668296 233.684287 
L 291.802501 237.114112 
L 294.106506 240.432257 
L 296.57448 243.630324 
L 299.200176 246.700218 
L 301.976948 249.634168 
L 304.897767 252.424749 
L 307.955241 255.064897 
L 311.141631 257.547929 
L 314.448871 259.86756 
L 317.86859 262.01792 
L 321.392133 263.993565 
L 325.010581 265.789494 
L 328.714775 267.401162 
L 332.495339 268.82449 
L 336.342704 270.055875 
L 340.247132 271.092199 
L 344.198741 271.930841 
L 348.187527 272.569677 
L 352.203395 273.00709 
L 356.23618 273.241973 
L 360.275675 273.273731 
L 364.311655 273.102285 
L 368.333904 272.728068 
L 372.332242 272.152027 
L 376.296548 271.37562 
L 380.216787 270.400813 
L 384.083038 269.230073 
L 387.885514 267.866363 
L 391.61459 266.313135 
L 395.260828 264.574321 
L 398.814999 262.654321 
L 402.268105 260.557996 
L 405.611408 258.290651 
L 408.836445 255.858025 
L 411.935052 253.266277 
L 414.899387 250.521965 
L 417.721946 247.632037 
L 420.395586 244.603806 
L 422.913538 241.444939 
L 425.269429 238.16343 
L 427.457297 234.767585 
L 429.471604 231.266 
L 431.307251 227.667538 
L 432.959591 223.981307 
L 434.424443 220.216638 
L 435.698098 216.383059 
L 436.777334 212.490273 
L 437.659417 208.548135 
L 438.342116 204.566622 
L 438.823703 200.555811 
L 439.102958 196.525855 
L 439.180763 192.991957 
L 439.180763 192.991957 
" style="fill:none;stroke:#2ca02c;stroke-linecap:square;"/>
   </g>
   <g id="line2d_13">
    <g clip-path="url(#p0ce9215bf4)">
     <use style="fill:#2ca02c;stroke:#2ca02c;" x="358.886979" xlink:href="#m82edb4e3c5" y="192.991957"/>
    </g>
   </g>
   <g id="line2d_14">
    <path clip-path="url(#p0ce9215bf4)" d="M 513.42676 171.721315 
L 513.30325 167.358551 
L 512.933113 163.009761 
L 512.317536 158.688877 
L 511.458491 154.40974 
L 510.35873 150.186057 
L 509.021775 146.031358 
L 507.451909 141.958952 
L 505.65416 137.981883 
L 503.634289 134.112892 
L 501.398764 130.364372 
L 498.954746 126.748331 
L 496.310066 123.276352 
L 493.473194 119.959557 
L 490.453218 116.808571 
L 487.259812 113.833486 
L 483.903204 111.043833 
L 480.394149 108.448549 
L 476.743885 106.055947 
L 472.964106 103.87369 
L 469.066919 101.90877 
L 465.064809 100.167481 
L 460.970596 98.6554 
L 456.797394 97.377371 
L 452.558571 96.337489 
L 448.267706 95.539083 
L 443.938544 94.984712 
L 439.584952 94.676152 
L 435.220876 94.61439 
L 430.860296 94.799625 
L 426.51718 95.231264 
L 422.205439 95.907923 
L 417.938887 96.827436 
L 413.731189 97.986856 
L 409.595825 99.382469 
L 405.546042 101.009806 
L 401.594811 102.863653 
L 397.75479 104.938072 
L 394.038281 107.226418 
L 390.457187 109.721361 
L 387.02298 112.414908 
L 383.746661 115.298431 
L 380.638725 118.362694 
L 377.709127 121.597881 
L 374.967253 124.993628 
L 372.421885 128.539058 
L 370.081176 132.222813 
L 367.952626 136.033095 
L 366.043051 139.957696 
L 364.358569 143.984046 
L 362.904576 148.099247 
L 361.68573 152.290116 
L 360.705934 156.54323 
L 359.968328 160.844963 
L 359.475274 165.181537 
L 359.228351 169.539059 
L 359.228351 173.903572 
L 359.475274 178.261094 
L 359.968328 182.597668 
L 360.705934 186.899401 
L 361.68573 191.152515 
L 362.904576 195.343384 
L 364.358569 199.458585 
L 366.043051 203.484935 
L 367.952626 207.409536 
L 370.081176 211.219817 
L 372.421885 214.903573 
L 374.967253 218.449003 
L 377.709127 221.84475 
L 380.638725 225.079937 
L 383.746661 228.1442 
L 387.02298 231.027723 
L 390.457187 233.72127 
L 394.038281 236.216213 
L 397.75479 238.504558 
L 401.594811 240.578977 
L 405.546042 242.432825 
L 409.595825 244.060162 
L 413.731189 245.455775 
L 417.938887 246.615195 
L 422.205439 247.534708 
L 426.51718 248.211367 
L 430.860296 248.643006 
L 435.220876 248.828241 
L 439.584952 248.766479 
L 443.938544 248.457919 
L 448.267706 247.903548 
L 452.558571 247.105142 
L 456.797394 246.06526 
L 460.970596 244.787231 
L 465.064809 243.27515 
L 469.066919 241.53386 
L 472.964106 239.56894 
L 476.743885 237.386684 
L 480.394149 234.994082 
L 483.903204 232.398797 
L 487.259812 229.609145 
L 490.453218 226.63406 
L 493.473194 223.483074 
L 496.310066 220.166279 
L 498.954746 216.6943 
L 501.398764 213.078258 
L 503.634289 209.329739 
L 505.65416 205.460748 
L 507.451909 201.483679 
L 509.021775 197.411273 
L 510.35873 193.256574 
L 511.458491 189.032891 
L 512.317536 184.753754 
L 512.933113 180.43287 
L 513.30325 176.08408 
L 513.42676 171.721315 
L 513.42676 171.721315 
" style="fill:none;stroke:#2ca02c;stroke-linecap:square;"/>
   </g>
   <g id="line2d_15">
    <g clip-path="url(#p0ce9215bf4)">
     <use style="fill:#2ca02c;stroke:#2ca02c;" x="436.312114" xlink:href="#m82edb4e3c5" y="171.721315"/>
    </g>
   </g>
   <g id="line2d_16">
    <path clip-path="url(#p0ce9215bf4)" d="M 555.587484 151.29286 
L 555.480033 148.187874 
L 555.158195 145.097744 
L 554.623508 142.037255 
L 553.878532 139.02105 
L 552.926831 136.06356 
L 551.772959 133.178935 
L 550.422435 130.380978 
L 548.881722 127.683074 
L 547.158191 125.098132 
L 545.260089 122.63852 
L 543.196497 120.316006 
L 540.977288 118.141703 
L 538.613081 116.126013 
L 536.115187 114.27858 
L 533.495557 112.608244 
L 530.766726 111.122996 
L 527.941749 109.829943 
L 525.034142 108.735271 
L 522.057818 107.844218 
L 519.027016 107.161047 
L 515.956238 106.689027 
L 512.860175 106.430416 
L 509.753642 106.386451 
L 506.651501 106.557344 
L 503.568595 106.942275 
L 500.519674 107.539404 
L 497.519326 108.345874 
L 494.581906 109.357825 
L 491.721468 110.570417 
L 488.951699 111.977847 
L 486.285849 113.573382 
L 483.736676 115.349387 
L 481.316374 117.297366 
L 479.036524 119.407997 
L 476.908033 121.671184 
L 474.941087 124.076096 
L 473.145096 126.611229 
L 471.528652 129.264452 
L 470.09949 132.023071 
L 468.864448 134.873887 
L 467.829434 137.803261 
L 466.999402 140.797176 
L 466.378321 143.841308 
L 465.969164 146.921093 
L 465.773889 150.021794 
L 465.793429 153.128577 
L 466.027692 156.226577 
L 466.475556 159.300971 
L 467.134878 162.33705 
L 468.002504 165.320288 
L 469.074283 168.236411 
L 470.345087 171.071466 
L 471.808836 173.81189 
L 473.458525 176.444571 
L 475.286263 178.956912 
L 477.283304 181.336893 
L 479.440094 183.573126 
L 481.746312 185.654914 
L 484.190926 187.572294 
L 486.762238 189.316094 
L 489.447945 190.87797 
L 492.235199 192.250449 
L 495.110663 193.426964 
L 498.06058 194.401887 
L 501.070835 195.170552 
L 504.127026 195.729283 
L 507.21453 196.075405 
L 510.318575 196.207263 
L 513.42431 196.124227 
L 516.516874 195.826692 
L 519.581472 195.316083 
L 522.603441 194.594843 
L 525.568322 193.666422 
L 528.461929 192.535263 
L 531.270417 191.206778 
L 533.980351 189.687323 
L 536.578763 187.984168 
L 539.053221 186.105461 
L 541.391886 184.060192 
L 543.583569 181.858146 
L 545.617784 179.509858 
L 547.484798 177.026566 
L 549.175677 174.420149 
L 550.682333 171.703078 
L 551.997555 168.888354 
L 553.115052 165.989443 
L 554.029477 163.020216 
L 554.736454 159.994879 
L 555.232601 156.927907 
L 555.515545 153.833973 
L 555.587484 151.29286 
L 555.587484 151.29286 
" style="fill:none;stroke:#2ca02c;stroke-linecap:square;"/>
   </g>
   <g id="line2d_17">
    <g clip-path="url(#p0ce9215bf4)">
     <use style="fill:#2ca02c;stroke:#2ca02c;" x="510.671692" xlink:href="#m82edb4e3c5" y="151.29286"/>
    </g>
   </g>
   <g id="line2d_18">
    <path clip-path="url(#p0ce9215bf4)" d="M 607.518268 139.394209 
L 607.412416 136.029327 
L 607.09528 132.677752 
L 606.568114 129.352737 
L 605.833001 126.06743 
L 604.89285 122.834823 
L 603.751377 119.667699 
L 602.413098 116.578583 
L 600.883303 113.57969 
L 599.168043 110.682879 
L 597.2741 107.899605 
L 595.208964 105.240875 
L 592.980801 102.717203 
L 590.598423 100.338568 
L 588.07125 98.114376 
L 585.409276 96.053423 
L 582.623028 94.163859 
L 579.723524 92.453155 
L 576.722229 90.928078 
L 573.631012 89.594657 
L 570.462098 88.458166 
L 567.228016 87.523099 
L 563.941558 86.793153 
L 560.615718 86.271215 
L 557.263648 85.959349 
L 553.898604 85.858789 
L 550.533893 85.969931 
L 547.182821 86.292337 
L 543.858639 86.824731 
L 540.574492 87.565008 
L 537.343367 88.510241 
L 534.178042 89.656692 
L 531.091034 90.999827 
L 528.09455 92.534335 
L 525.200439 94.254148 
L 522.420147 96.152465 
L 519.764668 98.221779 
L 517.244502 100.453907 
L 514.869615 102.840023 
L 512.6494 105.37069 
L 510.592635 108.035901 
L 508.707454 110.825116 
L 507.001312 113.727307 
L 505.480956 116.730996 
L 504.152397 119.824306 
L 503.02089 122.995004 
L 502.090909 126.230551 
L 501.366132 129.518153 
L 500.849424 132.84481 
L 500.542829 136.197366 
L 500.44756 139.562564 
L 500.563993 142.927096 
L 500.891667 146.277657 
L 501.429287 149.600998 
L 502.174728 152.883977 
L 503.12504 156.113611 
L 504.276467 159.27713 
L 505.624454 162.362022 
L 507.163672 165.35609 
L 508.888033 168.247492 
L 510.790719 171.024796 
L 512.864206 173.677019 
L 515.100294 176.193672 
L 517.490141 178.564803 
L 520.024296 180.781037 
L 522.692737 182.833608 
L 525.484914 184.714401 
L 528.389784 186.415978 
L 531.39586 187.93161 
L 534.491255 189.255303 
L 537.663727 190.381823 
L 540.900733 191.306715 
L 544.189471 192.026322 
L 547.516936 192.537799 
L 550.86997 192.839122 
L 554.235313 192.9291 
L 557.599658 192.807377 
L 560.9497 192.474434 
L 564.272192 191.931589 
L 567.553994 191.180988 
L 570.78213 190.225599 
L 573.943835 189.069199 
L 577.026604 187.716363 
L 580.018247 186.172439 
L 582.906935 184.443534 
L 585.681244 182.536483 
L 588.330203 180.458828 
L 590.843337 178.218786 
L 593.210708 175.825214 
L 595.422954 173.287578 
L 597.471327 170.615912 
L 599.347727 167.820781 
L 601.044734 164.91324 
L 602.555637 161.904784 
L 603.874462 158.807312 
L 604.995992 155.633072 
L 605.915794 152.394616 
L 606.630229 149.10475 
L 607.136472 145.776485 
L 607.432523 142.422982 
L 607.518268 139.394209 
L 607.518268 139.394209 
" style="fill:none;stroke:#2ca02c;stroke-linecap:square;"/>
   </g>
   <g id="line2d_19">
    <g clip-path="url(#p0ce9215bf4)">
     <use style="fill:#2ca02c;stroke:#2ca02c;" x="553.982782" xlink:href="#m82edb4e3c5" y="139.394209"/>
    </g>
   </g>
   <g id="line2d_20">
    <path clip-path="url(#p0ce9215bf4)" d="M 677.064631 125.212113 
L 676.950179 121.169315 
L 676.607188 117.139468 
L 676.036758 113.13548 
L 675.240716 109.170177 
L 674.221612 105.256261 
L 672.982709 101.40627 
L 671.527978 97.632536 
L 669.862077 93.947147 
L 667.990344 90.36191 
L 665.918774 86.888308 
L 663.654002 83.53747 
L 661.203284 80.320127 
L 658.574469 77.246587 
L 655.77598 74.326696 
L 652.816779 71.569805 
L 649.706347 68.984747 
L 646.454647 66.579803 
L 643.072095 64.362675 
L 639.569527 62.340466 
L 635.958162 60.519654 
L 632.249569 58.906072 
L 628.455627 57.504888 
L 624.58849 56.32059 
L 620.660545 55.356973 
L 616.684374 54.617123 
L 612.672715 54.10341 
L 608.638417 53.817479 
L 604.594405 53.760247 
L 600.553632 53.931897 
L 596.529041 54.331879 
L 592.533526 54.958912 
L 588.579885 55.810987 
L 584.680782 56.885375 
L 580.848708 58.178633 
L 577.095937 59.686621 
L 573.434492 61.404506 
L 569.8761 63.326786 
L 566.432161 65.447303 
L 563.113706 67.759266 
L 559.931366 70.255266 
L 556.895333 72.927311 
L 554.015335 75.766839 
L 551.300596 78.764756 
L 548.759812 81.911457 
L 546.401122 85.196863 
L 544.232083 88.610451 
L 542.259641 92.141284 
L 540.490115 95.778053 
L 538.929174 99.509109 
L 537.581817 103.322499 
L 536.452362 107.206008 
L 535.544425 111.147195 
L 534.860915 115.133438 
L 534.404022 119.151965 
L 534.175209 123.189904 
L 534.175209 127.234322 
L 534.404022 131.272261 
L 534.860915 135.290789 
L 535.544425 139.277031 
L 536.452362 143.218219 
L 537.581817 147.101728 
L 538.929174 150.915117 
L 540.490115 154.646173 
L 542.259641 158.282942 
L 544.232083 161.813776 
L 546.401122 165.227363 
L 548.759812 168.512769 
L 551.300596 171.659471 
L 554.015335 174.657387 
L 556.895333 177.496915 
L 559.931366 180.16896 
L 563.113706 182.664961 
L 566.432161 184.976923 
L 569.8761 187.09744 
L 573.434492 189.01972 
L 577.095937 190.737606 
L 580.848708 192.245593 
L 584.680782 193.538852 
L 588.579885 194.613239 
L 592.533526 195.465314 
L 596.529041 196.092347 
L 600.553632 196.492329 
L 604.594405 196.663979 
L 608.638417 196.606747 
L 612.672715 196.320816 
L 616.684374 195.807103 
L 620.660545 195.067253 
L 624.58849 194.103636 
L 628.455627 192.919338 
L 632.249569 191.518154 
L 635.958162 189.904572 
L 639.569527 188.08376 
L 643.072095 186.061551 
L 646.454647 183.844424 
L 649.706347 181.439479 
L 652.816779 178.854421 
L 655.77598 176.09753 
L 658.574469 173.177639 
L 661.203284 170.104099 
L 663.654002 166.886756 
L 665.918774 163.535918 
L 667.990344 160.062316 
L 669.862077 156.477079 
L 671.527978 152.791691 
L 672.982709 149.017957 
L 674.221612 145.167965 
L 675.240716 141.254049 
L 676.036758 137.288746 
L 676.607188 133.284758 
L 676.950179 129.254911 
L 677.064631 125.212113 
L 677.064631 125.212113 
" style="fill:none;stroke:#2ca02c;stroke-linecap:square;"/>
   </g>
   <g id="line2d_21">
    <g clip-path="url(#p0ce9215bf4)">
     <use style="fill:#2ca02c;stroke:#2ca02c;" x="605.60561" xlink:href="#m82edb4e3c5" y="125.212113"/>
    </g>
   </g>
   <g id="line2d_22">
    <path clip-path="url(#p0ce9215bf4)" d="M 687.24056 106.28189 
L 687.129694 104.605549 
L 686.799028 102.958409 
L 686.25432 101.369162 
L 685.505061 99.865492 
L 684.564302 98.473593 
L 683.448429 97.217711 
L 682.176882 96.119722 
L 680.77181 95.198754 
L 679.257688 94.470848 
L 677.660893 93.948684 
L 676.009238 93.641359 
L 674.331496 93.554226 
L 672.656891 93.688802 
L 671.014595 94.042744 
L 669.433216 94.609886 
L 667.940299 95.380349 
L 666.561852 96.34071 
L 665.321886 97.474243 
L 664.242001 98.7612 
L 663.341007 100.179164 
L 662.6346 101.703434 
L 662.135085 103.307459 
L 661.851163 104.963297 
L 661.78778 106.642105 
L 661.94604 108.314637 
L 662.323186 109.95176 
L 662.912649 111.524956 
L 663.704161 113.00682 
L 664.683933 114.371539 
L 665.834898 115.595341 
L 667.137008 116.656907 
L 668.567579 117.537745 
L 670.101694 118.222511 
L 671.712626 118.699278 
L 673.372316 118.95974 
L 675.051853 118.99936 
L 676.721978 118.817448 
L 678.3536 118.417173 
L 679.918297 117.805507 
L 681.388812 116.993105 
L 682.73953 115.99412 
L 683.946922 114.825952 
L 684.989956 113.50895 
L 685.850462 112.066057 
L 686.513451 110.522406 
L 686.967374 108.904888 
L 687.204323 107.241679 
L 687.24056 106.28189 
L 687.24056 106.28189 
" style="fill:none;stroke:#2ca02c;stroke-linecap:square;"/>
   </g>
   <g id="line2d_23">
    <g clip-path="url(#p0ce9215bf4)">
     <use style="fill:#2ca02c;stroke:#2ca02c;" x="674.511621" xlink:href="#m82edb4e3c5" y="106.28189"/>
    </g>
   </g>
   <g id="line2d_24">
    <path clip-path="url(#p0ce9215bf4)" d="M 689.360466 102.909865 
L 689.248792 102.159814 
L 688.923458 101.474829 
L 688.412686 100.91433 
L 687.760784 100.526941 
L 687.024304 100.346265 
L 686.267133 100.387976 
L 685.554956 100.648456 
L 684.949551 101.105109 
L 684.503437 101.718322 
L 684.255313 102.434898 
L 684.226703 103.192676 
L 684.420089 103.925921 
L 684.818696 104.571026 
L 685.387945 105.072028 
L 686.078454 105.385466 
L 686.830324 105.484151 
L 687.578331 105.359521 
L 688.257587 105.022389 
L 688.809168 104.501999 
L 689.185225 103.843495 
L 689.353136 103.104 
L 689.360466 102.909865 
L 689.360466 102.909865 
" style="fill:none;stroke:#2ca02c;stroke-linecap:square;"/>
   </g>
   <g id="line2d_25">
    <g clip-path="url(#p0ce9215bf4)">
     <use style="fill:#2ca02c;stroke:#2ca02c;" x="686.785794" xlink:href="#m82edb4e3c5" y="102.909865"/>
    </g>
   </g>
   <g id="line2d_26">
    <path clip-path="url(#p0ce9215bf4)" d="M 689.811695 102.227808 
L 689.699571 101.89729 
L 689.409487 101.703214 
L 689.061193 101.725699 
L 688.798471 101.955462 
L 688.729775 102.297653 
L 688.883465 102.611011 
L 689.196095 102.766178 
L 689.538607 102.699097 
L 689.769606 102.437461 
L 689.811695 102.227808 
L 689.811695 102.227808 
" style="fill:none;stroke:#2ca02c;stroke-linecap:square;"/>
   </g>
   <g id="line2d_27">
    <g clip-path="url(#p0ce9215bf4)">
     <use style="fill:#2ca02c;stroke:#2ca02c;" x="689.268481" xlink:href="#m82edb4e3c5" y="102.227808"/>
    </g>
   </g>
   <g id="line2d_28">
    <g clip-path="url(#p0ce9215bf4)">
     <use style="fill:#2ca02c;stroke:#2ca02c;" x="689.792287" xlink:href="#m82edb4e3c5" y="102.083905"/>
    </g>
   </g>
   <g id="line2d_29">
    <defs>
     <path d="M 0 3 
C 0.795609 3 1.55874 2.683901 2.12132 2.12132 
C 2.683901 1.55874 3 0.795609 3 0 
C 3 -0.795609 2.683901 -1.55874 2.12132 -2.12132 
C 1.55874 -2.683901 0.795609 -3 0 -3 
C -0.795609 -3 -1.55874 -2.683901 -2.12132 -2.12132 
C -2.683901 -1.55874 -3 -0.795609 -3 0 
C -3 0.795609 -2.683901 1.55874 -2.12132 2.12132 
C -1.55874 2.683901 -0.795609 3 0 3 
z
" id="md22e29dd9e" style="stroke:#9467bd;"/>
    </defs>
    <g clip-path="url(#p0ce9215bf4)">
     <use style="fill:#9467bd;stroke:#9467bd;" x="689.90507" xlink:href="#md22e29dd9e" y="102.052921"/>
    </g>
   </g>
   <g id="text_1">
    <!-- $R_{A,B}(s^*)$ -->
    <g style="fill:#9467bd;" transform="translate(688.980977 114.979235)rotate(-330)scale(0.2 -0.2)">
     <defs>
      <path d="M 36.796875 61.3125 
C 37.703125 65 38.09375 65 42 65 
L 49.203125 65 
C 57.796875 65 64.203125 62.421875 64.203125 54.671875 
C 64.203125 49.609375 61.59375 35 41.5 35 
L 30.203125 35 
z
M 50.703125 33.890625 
C 63.09375 36.578125 72.796875 44.546875 72.796875 53.09375 
C 72.796875 60.84375 64.90625 68 51 68 
L 23.90625 68 
C 21.90625 68 21 68 21 66.03125 
C 21 65 21.703125 65 23.59375 65 
C 29.59375 65 29.59375 64.25 29.59375 63.203125 
C 29.59375 63.015625 29.59375 62.40625 29.203125 60.921875 
L 15.703125 7.484375 
C 14.796875 4 14.59375 3 7.703125 3 
C 5.40625 3 4.703125 3 4.703125 1.109375 
C 4.703125 0.109375 5.796875 0.109375 6.09375 0.109375 
C 7.90625 0.109375 10 0.109375 11.90625 0.109375 
L 23.703125 0.109375 
C 25.5 0.109375 27.59375 0.109375 29.40625 0.109375 
C 30.203125 0.109375 31.296875 0.109375 31.296875 2 
C 31.296875 3 30.40625 3 28.90625 3 
C 22.796875 3 22.796875 3.796875 22.796875 4.78125 
C 22.796875 4.890625 22.796875 5.578125 23 6.359375 
L 29.703125 33 
L 41.703125 33 
C 51.203125 33 53 27.046875 53 23.78125 
C 53 22.296875 52 18.421875 51.296875 15.84375 
C 50.203125 11.296875 49.90625 10.1875 49.90625 8.3125 
C 49.90625 1.28125 55.703125 -2 62.40625 -2 
C 70.5 -2 74 7.828125 74 9.234375 
C 74 9.921875 73.5 10.21875 72.90625 10.21875 
C 72.09375 10.21875 71.90625 9.625 71.703125 8.828125 
C 69.296875 1.78125 65.203125 0 62.703125 0 
C 60.203125 0 58.59375 1.09375 58.59375 5.5625 
C 58.59375 7.953125 59.796875 17 59.90625 17.5 
C 60.40625 21.171875 60.40625 21.5625 60.40625 22.375 
C 60.40625 29.625 54.5 32.703125 50.703125 33.890625 
z
" id="CMMI12-82"/>
      <path d="M 17 10.796875 
C 13.5 4.90625 10.09375 2.90625 5.296875 2.90625 
C 4.203125 2.8125 3.40625 2.8125 3.40625 0.90625 
C 3.40625 0.375 3.90625 0 4.59375 0 
C 6.40625 0 10.90625 0 12.703125 0 
C 15.59375 0 18.796875 0 21.59375 0 
C 22.203125 0 23.40625 0 23.40625 1.90625 
C 23.40625 2.8125 22.59375 2.90625 22 2.90625 
C 19.703125 2.90625 17.796875 3.6875 17.796875 6.0625 
C 17.796875 7.4375 18.40625 8.53125 19.703125 10.703125 
L 27.296875 23.109375 
L 52.796875 23.109375 
C 52.90625 22.234375 52.90625 21.453125 53 20.5625 
C 53.296875 18 54.5 7.734375 54.5 5.875 
C 54.5 2.90625 49.40625 2.90625 47.796875 2.90625 
C 46.703125 2.90625 45.59375 2.90625 45.59375 1.09375 
C 45.59375 0 46.5 0 47.09375 0 
C 48.796875 0 50.796875 0 52.5 0 
L 58.203125 0 
C 64.296875 0 68.703125 0 68.796875 0 
C 69.5 0 70.59375 0 70.59375 1.90625 
C 70.59375 2.90625 69.703125 2.90625 68.203125 2.90625 
C 62.703125 2.90625 62.59375 3.8125 62.296875 6.78125 
L 56.203125 68.8125 
C 56 70.796875 55.59375 71 54.5 71 
C 53.5 71 52.90625 70.796875 52 69.296875 
z
M 29 26 
L 49.09375 59.671875 
L 52.5 26 
z
" id="CMMI12-65"/>
      <path d="M 19.5 -0.484375 
C 19.5 5.359375 17.59375 9.671875 13.5 9.671875 
C 10.296875 9.671875 8.703125 7.078125 8.703125 4.890625 
C 8.703125 2.6875 10.203125 0 13.59375 0 
C 14.90625 0 16 0.40625 16.90625 1.296875 
C 17.09375 1.5 17.203125 1.5 17.296875 1.5 
C 17.5 1.5 17.5 0.078125 17.5 -0.421875 
C 17.5 -3.75 16.90625 -10.296875 11.09375 -16.875 
C 10 -18.078125 10 -18.28125 10 -18.484375 
C 10 -19 10.5 -19.5 11 -19.5 
C 11.796875 -19.5 19.5 -12.046875 19.5 -0.484375 
z
" id="CMMI12-59"/>
      <path d="M 36.59375 61.265625 
C 37.5 65 37.90625 65 41.796875 65 
L 54.796875 65 
C 66.09375 65 66.09375 55.375 66.09375 54.453125 
C 66.09375 46.34375 58 36 44.796875 36 
L 30.40625 36 
z
M 53.5 35.546875 
C 64.40625 37.53125 74.296875 45.09375 74.296875 54.265625 
C 74.296875 62.03125 67.40625 68 56.09375 68 
L 24 68 
C 22.09375 68 21.203125 68 21.203125 66.03125 
C 21.203125 65 22.09375 65 23.59375 65 
C 29.703125 65 29.703125 64.25 29.703125 63.1875 
C 29.703125 63 29.703125 62.390625 29.296875 60.890625 
L 15.796875 7.375 
C 14.90625 3.890625 14.703125 2.890625 7.703125 2.890625 
C 5.796875 2.890625 4.796875 2.890625 4.796875 1.09375 
C 4.796875 0 5.40625 0 7.40625 0 
L 41.703125 0 
C 57 0 68.796875 11.546875 68.796875 21.609375 
C 68.796875 29.78125 61.59375 34.75 53.5 35.546875 
z
M 39.296875 2.890625 
L 25.796875 2.890625 
C 24.40625 2.890625 24.203125 2.890625 23.59375 3 
C 22.5 3.09375 22.40625 3.296875 22.40625 4.078125 
C 22.40625 4.765625 22.59375 5.359375 22.796875 6.234375 
L 29.796875 34 
L 48.59375 34 
C 60.40625 34 60.40625 23.171875 60.40625 22.390625 
C 60.40625 12.9375 51.703125 2.890625 39.296875 2.890625 
z
" id="CMMI12-66"/>
      <path d="M 30.59375 -24.390625 
C 30.59375 -24.296875 30.59375 -24.09375 30.296875 -23.796875 
C 25.703125 -19.125 13.40625 -6.359375 13.40625 24.703125 
C 13.40625 55.765625 25.5 68.421875 30.40625 73.390625 
C 30.40625 73.5 30.59375 73.703125 30.59375 74 
C 30.59375 74.296875 30.296875 74.5 29.90625 74.5 
C 28.796875 74.5 20.296875 67.125 15.40625 56.15625 
C 10.40625 45.109375 9 34.359375 9 24.8125 
C 9 17.625 9.703125 5.484375 15.703125 -7.359375 
C 20.5 -17.734375 28.703125 -25 29.90625 -25 
C 30.40625 -25 30.59375 -24.796875 30.59375 -24.390625 
z
" id="CMR17-40"/>
      <path d="M 22.796875 20 
C 24.5 19.703125 27.203125 19.109375 27.796875 19 
C 29.09375 18.625 33.59375 17.03125 33.59375 12.234375 
C 33.59375 9.15625 30.796875 1.09375 19.203125 1.09375 
C 17.09375 1.09375 9.59375 1.09375 7.59375 6.8125 
C 11.59375 6.3125 13.59375 9.421875 13.59375 11.640625 
C 13.59375 13.75 12.203125 14.84375 10.203125 14.84375 
C 8 14.84375 5.09375 13.140625 5.09375 8.625 
C 5.09375 2.703125 11.09375 -1 19.09375 -1 
C 34.296875 -1 38.796875 10.171875 38.796875 15.375 
C 38.796875 16.859375 38.796875 19.65625 35.59375 22.84375 
C 33.09375 25.25 30.703125 25.75 25.296875 26.84375 
C 22.59375 27.4375 18.296875 28.34375 18.296875 32.828125 
C 18.296875 34.828125 20.09375 42.015625 29.59375 42.015625 
C 33.796875 42.015625 37.90625 40.453125 38.90625 37 
C 34.5 37 34.296875 33.203125 34.296875 33.109375 
C 34.296875 31 36.203125 30.40625 37.09375 30.40625 
C 38.5 30.40625 41.296875 31.484375 41.296875 35.640625 
C 41.296875 39.765625 37.5 44 29.703125 44 
C 16.59375 44 13.09375 33.75 13.09375 29.671875 
C 13.09375 22.09375 20.5 20.5 22.796875 20 
z
" id="CMMI12-115"/>
      <path d="M 27.5 42.484375 
C 27.59375 43.875 27.59375 46.28125 25 46.28125 
C 23.40625 46.28125 22.09375 44.984375 22.40625 43.671875 
L 22.40625 42.375 
L 23.796875 26.875 
L 11 36.1875 
C 10.09375 36.6875 9.90625 36.875 9.203125 36.875 
C 7.796875 36.875 6.5 35.484375 6.5 34.078125 
C 6.5 32.484375 7.5 32.078125 8.5 31.578125 
L 22.703125 24.78125 
L 8.90625 18.09375 
C 7.296875 17.296875 6.5 16.890625 6.5 15.390625 
C 6.5 13.890625 7.796875 12.59375 9.203125 12.59375 
C 9.90625 12.59375 10.09375 12.59375 12.59375 14.5 
L 23.796875 22.59375 
L 22.296875 5.796875 
C 22.296875 3.6875 24.09375 3.1875 24.90625 3.1875 
C 26.09375 3.1875 27.59375 3.875 27.59375 5.796875 
L 26.09375 22.59375 
L 38.90625 13.296875 
C 39.796875 12.796875 40 12.59375 40.703125 12.59375 
C 42.09375 12.59375 43.40625 14 43.40625 15.390625 
C 43.40625 16.890625 42.5 17.390625 41.296875 18 
C 35.296875 20.984375 35.09375 20.984375 27.203125 24.6875 
L 41 31.375 
C 42.59375 32.1875 43.40625 32.578125 43.40625 34.078125 
C 43.40625 35.578125 42.09375 36.875 40.703125 36.875 
C 40 36.875 39.796875 36.875 37.296875 34.984375 
L 26.09375 26.875 
z
" id="CMSY10-3"/>
      <path d="M 26.296875 24.703125 
C 26.296875 31.875 25.59375 44.015625 19.59375 56.859375 
C 14.796875 67.234375 6.59375 74.5 5.40625 74.5 
C 5.09375 74.5 4.703125 74.390625 4.703125 73.890625 
C 4.703125 73.703125 4.796875 73.59375 4.90625 73.390625 
C 9.703125 68.40625 21.90625 55.75 21.90625 24.75 
C 21.90625 -6.359375 9.796875 -19.015625 4.90625 -24.015625 
C 4.796875 -24.203125 4.703125 -24.3125 4.703125 -24.5 
C 4.703125 -25 5.09375 -25 5.40625 -25 
C 6.5 -25 15 -17.625 19.90625 -6.65625 
C 24.90625 4.390625 26.296875 15.140625 26.296875 24.703125 
z
" id="CMR17-41"/>
     </defs>
     <use transform="scale(0.996264)" xlink:href="#CMMI12-82"/>
     <use transform="translate(74.250826 -14.943915)scale(0.697382)" xlink:href="#CMMI12-65"/>
     <use transform="translate(125.440122 -14.943915)scale(0.697382)" xlink:href="#CMMI12-59"/>
     <use transform="translate(144.408055 -14.943915)scale(0.697382)" xlink:href="#CMMI12-66"/>
     <use transform="translate(200.300813 0)scale(0.996264)" xlink:href="#CMR17-40"/>
     <use transform="translate(235.581581 0)scale(0.996264)" xlink:href="#CMMI12-115"/>
     <use transform="translate(281.531628 36.153639)scale(0.697382)" xlink:href="#CMSY10-3"/>
     <use transform="translate(316.89897 0)scale(0.996264)" xlink:href="#CMR17-41"/>
    </g>
   </g>
   <g id="text_2">
    <!-- $R_{A,B}$ -->
    <g style="fill:#ff7f0e;" transform="translate(77.775184 276.82577)scale(0.2 -0.2)">
     <use transform="scale(0.996264)" xlink:href="#CMMI12-82"/>
     <use transform="translate(74.250826 -14.943915)scale(0.697382)" xlink:href="#CMMI12-65"/>
     <use transform="translate(125.440122 -14.943915)scale(0.697382)" xlink:href="#CMMI12-59"/>
     <use transform="translate(144.408055 -14.943915)scale(0.697382)" xlink:href="#CMMI12-66"/>
    </g>
   </g>
   <g id="text_3">
    <!-- $\gamma$ -->
    <g style="fill:#1f77b4;" transform="translate(310.740247 345.029403)scale(0.2 -0.2)">
     <defs>
      <path d="M 37.796875 11.875 
C 37.59375 16.734375 37.40625 24.390625 33.59375 33.328125 
C 31.59375 38.3125 28.203125 43.5625 20.90625 43.5625 
C 8.59375 43.5625 1.90625 27.96875 1.90625 25.390625 
C 1.90625 24.484375 2.59375 24.484375 2.90625 24.484375 
C 3.796875 24.484375 3.796875 24.6875 4.296875 25.984375 
C 6.40625 32.140625 12.796875 37 19.703125 37 
C 33.59375 37 35.59375 21.609375 35.59375 11.78125 
C 35.59375 5.5 34.90625 3.4375 34.296875 1.4375 
C 32.40625 -4.71875 29.09375 -17.03125 29.09375 -19.8125 
C 29.09375 -20.609375 29.40625 -21.5 30.203125 -21.5 
C 31.703125 -21.5 32.59375 -18.21875 33.703125 -14.25 
C 36.09375 -5.515625 36.703125 -1.140625 37.203125 2.828125 
C 37.5 5.21875 43.203125 21.625 51.09375 37.21875 
C 51.796875 38.796875 53.203125 41.484375 53.203125 41.78125 
C 53.203125 41.875 53.09375 42.578125 52.203125 42.578125 
C 52 42.578125 51.5 42.578125 51.296875 42.171875 
C 51.09375 41.984375 47.59375 35.21875 44.59375 28.46875 
C 43.09375 25.09375 41.09375 20.625 37.796875 11.875 
z
" id="CMMI12-13"/>
     </defs>
     <use transform="scale(0.996264)" xlink:href="#CMMI12-13"/>
    </g>
   </g>
  </g>
 </g>
 <defs>
  <clipPath id="p0ce9215bf4">
   <rect height="436.143002" width="842.4" x="10.8" y="33.928499"/>
  </clipPath>
 </defs>
</svg>
