<?xml version="1.0" encoding="utf-8" standalone="no"?>
<!DOCTYPE svg PUBLIC "-//W3C//DTD SVG 1.1//EN"
  "http://www.w3.org/Graphics/SVG/1.1/DTD/svg11.dtd">
<svg height="144pt" version="1.1" viewBox="0 0 144 144" width="144pt" xmlns="http://www.w3.org/2000/svg" xmlns:xlink="http://www.w3.org/1999/xlink">
 <metadata>
  <rdf:RDF xmlns:cc="http://creativecommons.org/ns#" xmlns:dc="http://purl.org/dc/elements/1.1/" xmlns:rdf="http://www.w3.org/1999/02/22-rdf-syntax-ns#">
   <cc:Work>
    <dc:type rdf:resource="http://purl.org/dc/dcmitype/StillImage"/>
    <dc:date>2022-11-08T14:37:53.155034</dc:date>
    <dc:format>image/svg+xml</dc:format>
    <dc:creator>
     <cc:Agent>
      <dc:title>Matplotlib v3.4.2, https://matplotlib.org/</dc:title>
     </cc:Agent>
    </dc:creator>
   </cc:Work>
  </rdf:RDF>
 </metadata>
 <defs>
  <style type="text/css">*{stroke-linecap:butt;stroke-linejoin:round;}</style>
 </defs>
 <g id="figure_1">
  <g id="patch_1">
   <path d="M 0 144 
L 144 144 
L 144 0 
L 0 0 
z
" style="fill:#ffffff;"/>
  </g>
  <g id="axes_1">
   <g id="patch_2">
    <path clip-path="url(#p02de6af499)" d="M 78.350731 22.688016 
L 67.354514 26.353421 
L 67.354514 22.810196 
L 53.914693 22.810196 
L 53.914693 22.565835 
L 67.354514 22.565835 
L 67.354514 19.02261 
z
" style="fill:#808080;stroke:#808080;stroke-linejoin:miter;"/>
   </g>
   <g id="patch_3">
    <path clip-path="url(#p02de6af499)" d="M 29.478654 22.688016 
L 40.474871 19.02261 
L 40.474871 22.565835 
L 53.914693 22.565835 
L 53.914693 22.810196 
L 40.474871 22.810196 
L 40.474871 26.353421 
z
" style="fill:#808080;stroke:#808080;stroke-linejoin:miter;"/>
   </g>
   <g id="patch_4">
    <path clip-path="url(#p02de6af499)" d="M 22.147842 78.890904 
L 18.482437 67.894687 
L 22.025662 67.894687 
L 22.025662 54.454866 
L 22.270023 54.454866 
L 22.270023 67.894687 
L 25.813248 67.894687 
z
" style="fill:#808080;stroke:#808080;stroke-linejoin:miter;"/>
   </g>
   <g id="patch_5">
    <path clip-path="url(#p02de6af499)" d="M 22.147842 30.018827 
L 25.813248 41.015044 
L 22.270023 41.015044 
L 22.270023 54.454866 
L 22.025662 54.454866 
L 22.025662 41.015044 
L 18.482437 41.015044 
z
" style="fill:#808080;stroke:#808080;stroke-linejoin:miter;"/>
   </g>
   <g id="patch_6">
    <path clip-path="url(#p02de6af499)" d="M 78.350731 78.890904 
L 67.983398 73.707238 
L 70.488837 71.201799 
L 29.39226 30.105222 
L 29.565048 29.932433 
L 70.661626 71.02901 
L 73.167065 68.523571 
z
" style="fill:#008000;stroke:#008000;stroke-linejoin:miter;"/>
   </g>
   <g id="line2d_1">
    <path clip-path="url(#p02de6af499)" d="M 29.478654 30.018827 
L 127.222808 30.018827 
L 127.222808 30.018827 
" style="fill:none;stroke:#1f77b4;stroke-linecap:square;stroke-width:1.5;"/>
   </g>
   <g id="line2d_2">
    <path clip-path="url(#p02de6af499)" d="M 29.478654 127.762981 
L 29.478654 30.018827 
L 29.478654 30.018827 
" style="fill:none;stroke:#ff7f0e;stroke-linecap:square;stroke-width:1.5;"/>
   </g>
   <g id="line2d_3">
    <path clip-path="url(#p02de6af499)" d="M 29.478654 78.890904 
L 78.350731 30.018827 
" style="fill:none;stroke:#808080;stroke-dasharray:5.55,2.4;stroke-dashoffset:0;stroke-width:1.5;"/>
   </g>
   <g id="line2d_4">
    <path clip-path="url(#p02de6af499)" d="M 29.478654 78.890904 
L 78.350731 78.890904 
" style="fill:none;stroke:#ff7f0e;stroke-dasharray:5.55,2.4;stroke-dashoffset:0;stroke-width:1.5;"/>
   </g>
   <g id="line2d_5">
    <path clip-path="url(#p02de6af499)" d="M 78.350731 78.890904 
L 78.350731 30.018827 
" style="fill:none;stroke:#1f77b4;stroke-dasharray:5.55,2.4;stroke-dashoffset:0;stroke-width:1.5;"/>
   </g>
   <g id="line2d_6">
    <defs>
     <path d="M 0 3 
C 0.795609 3 1.55874 2.683901 2.12132 2.12132 
C 2.683901 1.55874 3 0.795609 3 0 
C 3 -0.795609 2.683901 -1.55874 2.12132 -2.12132 
C 1.55874 -2.683901 0.795609 -3 0 -3 
C -0.795609 -3 -1.55874 -2.683901 -2.12132 -2.12132 
C -2.683901 -1.55874 -3 -0.795609 -3 0 
C -3 0.795609 -2.683901 1.55874 -2.12132 2.12132 
C -1.55874 2.683901 -0.795609 3 0 3 
z
" id="m81e0adbcb1" style="stroke:#008000;"/>
    </defs>
    <g clip-path="url(#p02de6af499)">
     <use style="fill:#008000;stroke:#008000;" x="29.478654" xlink:href="#m81e0adbcb1" y="30.018827"/>
    </g>
   </g>
   <g id="line2d_7">
    <defs>
     <path d="M 0 3 
C 0.795609 3 1.55874 2.683901 2.12132 2.12132 
C 2.683901 1.55874 3 0.795609 3 0 
C 3 -0.795609 2.683901 -1.55874 2.12132 -2.12132 
C 1.55874 -2.683901 0.795609 -3 0 -3 
C -0.795609 -3 -1.55874 -2.683901 -2.12132 -2.12132 
C -2.683901 -1.55874 -3 -0.795609 -3 0 
C -3 0.795609 -2.683901 1.55874 -2.12132 2.12132 
C -1.55874 2.683901 -0.795609 3 0 3 
z
" id="mcb71184cc9" style="stroke:#2ca02c;"/>
    </defs>
    <g clip-path="url(#p02de6af499)">
     <use style="fill:#2ca02c;stroke:#2ca02c;" x="78.350731" xlink:href="#mcb71184cc9" y="78.890904"/>
    </g>
   </g>
   <g id="line2d_8">
    <path clip-path="url(#p02de6af499)" d="M 127.222808 78.890904 
L 127.105893 75.512424 
L 126.755706 72.150109 
L 126.173923 68.820045 
L 125.363328 65.538166 
L 124.327799 62.320173 
L 123.072291 59.181464 
L 121.60281 56.137056 
L 119.926387 53.201514 
L 118.051044 50.388885 
L 115.985752 47.712625 
L 113.740394 45.185539 
L 111.325713 42.819718 
L 108.753261 40.626481 
L 106.035347 38.616322 
L 103.184974 36.798859 
L 100.215781 35.182787 
L 97.141973 33.775839 
L 93.978258 32.584746 
L 90.739772 31.615207 
L 87.442011 30.871861 
L 84.100751 30.358264 
L 80.731981 30.076874 
L 77.351817 30.029037 
L 73.976432 30.214982 
L 70.621977 30.633819 
L 67.3045 31.283545 
L 64.039874 32.16105 
L 60.843719 33.262136 
L 57.731328 34.581536 
L 54.717591 36.112936 
L 51.816928 37.849009 
L 49.043217 39.781449 
L 46.409729 41.90101 
L 43.929065 44.197551 
L 41.613092 46.660083 
L 39.472893 49.276826 
L 37.518706 52.035259 
L 35.759883 54.922184 
L 34.204837 57.923788 
L 32.861009 61.025711 
L 31.734829 64.21311 
L 30.831686 67.470736 
L 30.155899 70.783003 
L 29.710703 74.134062 
L 29.498227 77.50788 
L 29.519488 80.888316 
L 29.774385 84.259195 
L 30.261698 87.604389 
L 30.979095 90.907892 
L 31.923144 94.1539 
L 33.089328 97.326882 
L 34.472067 100.411656 
L 36.064746 103.393462 
L 37.859744 106.258035 
L 39.848473 108.991669 
L 42.021418 111.581284 
L 44.368182 114.01449 
L 46.877538 116.279646 
L 49.537478 118.365914 
L 52.335277 120.263311 
L 55.257548 121.962761 
L 58.29031 123.456131 
L 61.419051 124.736276 
L 64.628803 125.797073 
L 67.904208 126.633444 
L 71.229596 127.241389 
L 74.589054 127.617998 
L 77.96651 127.761471 
L 81.345805 127.67112 
L 84.71077 127.347378 
L 88.045305 126.791793 
L 91.333455 126.007025 
L 94.559489 124.996827 
L 97.707972 123.766033 
L 100.763839 122.320532 
L 103.712469 120.667239 
L 106.539755 118.814066 
L 109.232169 116.769879 
L 111.77683 114.544457 
L 114.161561 112.14845 
L 116.374955 109.59332 
L 118.406419 106.891294 
L 120.246235 104.055298 
L 121.8856 101.098901 
L 123.31667 98.03625 
L 124.532599 94.881997 
L 125.527568 91.651233 
L 126.296817 88.359417 
L 126.836666 85.022299 
L 127.144532 81.655844 
L 127.222808 78.890904 
L 127.222808 78.890904 
" style="fill:none;stroke:#2ca02c;stroke-linecap:square;stroke-width:1.5;"/>
   </g>
   <g id="text_1">
    <!-- $r$ -->
    <g transform="translate(51.667329 17.847864)scale(0.1 -0.1)">
     <defs>
      <path d="M 2490 2612 
C 2291 2574 2189 2433 2189 2293 
C 2189 2139 2310 2088 2400 2088 
C 2579 2088 2726 2242 2726 2433 
C 2726 2638 2528 2816 2208 2816 
C 1952 2816 1658 2701 1389 2312 
C 1344 2650 1088 2816 832 2816 
C 582 2816 454 2625 378 2484 
C 269 2254 173 1871 173 1839 
C 173 1814 198 1782 243 1782 
C 294 1782 301 1788 339 1935 
C 435 2318 557 2689 813 2689 
C 966 2689 1011 2580 1011 2395 
C 1011 2254 947 2005 902 1807 
L 723 1118 
C 698 996 627 709 595 594 
C 550 428 480 128 480 96 
C 480 6 550 -64 646 -64 
C 717 -64 838 -19 877 109 
C 896 160 1133 1124 1171 1271 
C 1203 1411 1242 1546 1274 1686 
C 1299 1775 1325 1878 1344 1961 
C 1363 2018 1536 2331 1696 2472 
C 1773 2542 1939 2689 2202 2689 
C 2304 2689 2406 2670 2490 2612 
z
" id="CMMI12-72" transform="scale(0.015625)"/>
     </defs>
     <use transform="scale(0.996264)" xlink:href="#CMMI12-72"/>
    </g>
   </g>
   <g id="text_2">
    <!-- $r$ -->
    <g transform="translate(18.084781 59.986972)rotate(-90)scale(0.1 -0.1)">
     <use transform="scale(0.996264)" xlink:href="#CMMI12-72"/>
    </g>
   </g>
  </g>
 </g>
 <defs>
  <clipPath id="p02de6af499">
   <rect height="119.614409" width="119.614409" x="13.045418" y="13.585591"/>
  </clipPath>
 </defs>
</svg>
