<?xml version="1.0" encoding="utf-8" standalone="no"?>
<!DOCTYPE svg PUBLIC "-//W3C//DTD SVG 1.1//EN"
  "http://www.w3.org/Graphics/SVG/1.1/DTD/svg11.dtd">
<!-- Created with matplotlib (https://matplotlib.org/) -->
<svg height="144pt" version="1.1" viewBox="0 0 144 144" width="144pt" xmlns="http://www.w3.org/2000/svg" xmlns:xlink="http://www.w3.org/1999/xlink">
 <metadata>
  <rdf:RDF xmlns:cc="http://creativecommons.org/ns#" xmlns:dc="http://purl.org/dc/elements/1.1/" xmlns:rdf="http://www.w3.org/1999/02/22-rdf-syntax-ns#">
   <cc:Work>
    <dc:type rdf:resource="http://purl.org/dc/dcmitype/StillImage"/>
    <dc:date>2022-09-16T11:21:10.161047</dc:date>
    <dc:format>image/svg+xml</dc:format>
    <dc:creator>
     <cc:Agent>
      <dc:title>Matplotlib v3.3.3, https://matplotlib.org/</dc:title>
     </cc:Agent>
    </dc:creator>
   </cc:Work>
  </rdf:RDF>
 </metadata>
 <defs>
  <style type="text/css">*{stroke-linecap:butt;stroke-linejoin:round;}</style>
 </defs>
 <g id="figure_1">
  <g id="patch_1">
   <path d="M 0 144 
L 144 144 
L 144 0 
L 0 0 
z
" style="fill:#ffffff;"/>
  </g>
  <g id="axes_1">
   <g id="line2d_1">
    <path clip-path="url(#pceb078a278)" d="M 28.347992 17.50594 
L 128.207047 17.50594 
L 128.207047 17.50594 
" style="fill:none;stroke:#1f77b4;stroke-linecap:square;stroke-width:1.5;"/>
   </g>
   <g id="line2d_2">
    <path clip-path="url(#pceb078a278)" d="M 128.207047 117.364995 
L 128.207047 17.50594 
L 128.207047 17.50594 
" style="fill:none;stroke:#ff7f0e;stroke-linecap:square;stroke-width:1.5;"/>
   </g>
   <g id="line2d_3">
    <path clip-path="url(#pceb078a278)" d="M 128.207047 67.435468 
L 128.087602 63.983887 
L 127.729838 60.548821 
L 127.135468 57.146704 
L 126.307334 53.793814 
L 125.249399 50.506194 
L 123.966724 47.299572 
L 122.465448 44.189292 
L 120.752753 41.190234 
L 118.836832 38.316747 
L 116.726854 35.582581 
L 114.432913 33.000816 
L 111.965985 30.583805 
L 109.337872 28.343113 
L 106.56115 26.28946 
L 103.649104 24.432672 
L 100.615666 22.781633 
L 97.47535 21.344243 
L 94.243181 20.127378 
L 90.934624 19.136861 
L 87.565508 18.377431 
L 84.151954 17.852721 
L 80.710293 17.565243 
L 77.256992 17.516371 
L 73.808574 17.706339 
L 70.381537 18.134239 
L 66.99228 18.798023 
L 63.657017 19.694514 
L 60.391707 20.819425 
L 57.211972 22.167373 
L 54.133027 23.731908 
L 51.169601 25.505544 
L 48.335876 27.479797 
L 45.645407 29.645219 
L 43.111068 31.99145 
L 40.744985 34.507265 
L 38.558478 37.180627 
L 36.562008 39.998744 
L 34.765129 42.948134 
L 33.176436 46.014684 
L 31.803532 49.183723 
L 30.652985 52.440089 
L 29.7303 55.768201 
L 29.039891 59.152135 
L 28.585062 62.575701 
L 28.367989 66.022519 
L 28.38971 69.476097 
L 28.650122 72.919912 
L 29.147979 76.337487 
L 29.880898 79.712469 
L 30.845374 83.028711 
L 32.03679 86.270347 
L 33.449448 89.421866 
L 35.076588 92.46819 
L 36.910424 95.394744 
L 38.942184 98.187526 
L 41.162145 100.833173 
L 43.559687 103.319027 
L 46.123338 105.633194 
L 48.840831 107.764602 
L 51.699167 109.703054 
L 54.684667 111.439275 
L 57.783049 112.964957 
L 60.979487 114.272801 
L 64.258689 115.35655 
L 67.604965 116.211018 
L 71.002303 116.832117 
L 74.434451 117.216875 
L 77.884986 117.363452 
L 81.337399 117.271146 
L 84.775171 116.940399 
L 88.181856 116.372793 
L 91.541153 115.571045 
L 94.836989 114.538989 
L 98.053595 113.281564 
L 101.175582 111.804786 
L 104.188013 110.115722 
L 107.076473 108.222451 
L 109.827143 106.134034 
L 112.426862 103.860461 
L 114.863193 101.412611 
L 117.124477 98.802195 
L 119.199897 96.041705 
L 121.079521 93.144346 
L 122.754357 90.123982 
L 124.216392 86.995063 
L 125.458629 83.772561 
L 126.475127 80.471893 
L 127.261021 77.108852 
L 127.81255 73.699528 
L 128.127078 70.260233 
L 128.207047 67.435468 
L 128.207047 67.435468 
" style="fill:none;stroke:#2ca02c;stroke-linecap:square;stroke-width:1.5;"/>
   </g>
   <g id="text_1">
    <!-- $\gamma_1$ -->
    <g transform="translate(14.673062 28.575529)scale(0.16 -0.16)">
     <defs>
      <path d="M 37.796875 11.875 
C 37.59375 16.734375 37.40625 24.390625 33.59375 33.328125 
C 31.59375 38.3125 28.203125 43.5625 20.90625 43.5625 
C 8.59375 43.5625 1.90625 27.96875 1.90625 25.390625 
C 1.90625 24.484375 2.59375 24.484375 2.90625 24.484375 
C 3.796875 24.484375 3.796875 24.6875 4.296875 25.984375 
C 6.40625 32.140625 12.796875 37 19.703125 37 
C 33.59375 37 35.59375 21.609375 35.59375 11.78125 
C 35.59375 5.5 34.90625 3.4375 34.296875 1.4375 
C 32.40625 -4.71875 29.09375 -17.03125 29.09375 -19.8125 
C 29.09375 -20.609375 29.40625 -21.5 30.203125 -21.5 
C 31.703125 -21.5 32.59375 -18.21875 33.703125 -14.25 
C 36.09375 -5.515625 36.703125 -1.140625 37.203125 2.828125 
C 37.5 5.21875 43.203125 21.625 51.09375 37.21875 
C 51.796875 38.796875 53.203125 41.484375 53.203125 41.78125 
C 53.203125 41.875 53.09375 42.578125 52.203125 42.578125 
C 52 42.578125 51.5 42.578125 51.296875 42.171875 
C 51.09375 41.984375 47.59375 35.21875 44.59375 28.46875 
C 43.09375 25.09375 41.09375 20.625 37.796875 11.875 
z
" id="CMMI12-13"/>
      <path d="M 26.59375 63.40625 
C 26.59375 65.5 26.5 65.5 25.09375 65.5 
C 21.203125 61.1875 15.296875 59.796875 9.703125 59.796875 
C 9.40625 59.796875 8.90625 59.796875 8.796875 59.5 
C 8.703125 59.296875 8.703125 59.09375 8.703125 57 
C 11.796875 57 17 57.59375 21 59.984375 
L 21 7.203125 
C 21 3.6875 20.796875 2.5 12.203125 2.5 
L 9.203125 2.5 
L 9.203125 0 
C 14 0 19 0 23.796875 0 
C 28.59375 0 33.59375 0 38.40625 0 
L 38.40625 2.5 
L 35.40625 2.5 
C 26.796875 2.5 26.59375 3.59375 26.59375 7.15625 
z
" id="CMR17-49"/>
     </defs>
     <use transform="scale(0.996264)" xlink:href="#CMMI12-13"/>
     <use transform="translate(50.599133 -14.943915)scale(0.697382)" xlink:href="#CMR17-49"/>
    </g>
   </g>
   <g id="text_2">
    <!-- $\gamma_2$ -->
    <g transform="translate(114.532117 128.434584)scale(0.16 -0.16)">
     <defs>
      <path d="M 41.703125 15.453125 
L 39.90625 15.453125 
C 38.90625 8.375 38.09375 7.171875 37.703125 6.5625 
C 37.203125 5.765625 30 5.765625 28.59375 5.765625 
L 9.40625 5.765625 
C 13 9.671875 20 16.75 28.5 24.953125 
C 34.59375 30.734375 41.703125 37.53125 41.703125 47.421875 
C 41.703125 59.21875 32.296875 66 21.796875 66 
C 10.796875 66 4.09375 56.3125 4.09375 47.34375 
C 4.09375 43.4375 7 42.9375 8.203125 42.9375 
C 9.203125 42.9375 12.203125 43.546875 12.203125 47.03125 
C 12.203125 50.109375 9.59375 51 8.203125 51 
C 7.59375 51 7 50.90625 6.59375 50.703125 
C 8.5 59.21875 14.296875 63.40625 20.40625 63.40625 
C 29.09375 63.40625 34.796875 56.515625 34.796875 47.421875 
C 34.796875 38.734375 29.703125 31.25 24 24.75 
L 4.09375 2.28125 
L 4.09375 0 
L 39.296875 0 
z
" id="CMR17-50"/>
     </defs>
     <use transform="scale(0.996264)" xlink:href="#CMMI12-13"/>
     <use transform="translate(50.599133 -14.943915)scale(0.697382)" xlink:href="#CMR17-50"/>
    </g>
   </g>
   <g id="text_3">
    <!-- $\phi^{\gamma_1, \gamma_2}_1$ -->
    <g transform="translate(10.253844 115.343807)scale(0.16 -0.16)">
     <defs>
      <path d="M 43 68.59375 
C 43 69.5 42.296875 69.5 42 69.5 
C 41.09375 69.5 41 69.296875 40.59375 67.59375 
L 35.203125 45.921875 
C 34.90625 44.625 34.796875 44.515625 34.703125 44.421875 
C 34.59375 44.21875 33.90625 44.125 33.703125 44.125 
C 17.296875 42.71875 4.703125 29.125 4.703125 16.515625 
C 4.703125 5.640625 13 -1 23.40625 -1 
C 22.59375 -4.078125 21.90625 -7.234375 21.09375 -10.296875 
C 19.703125 -15.546875 18.90625 -18.8125 18.90625 -19.203125 
C 18.90625 -19.390625 18.90625 -20 19.90625 -20 
C 20.203125 -20 20.59375 -20 20.796875 -19.59375 
C 21 -19.390625 21.59375 -17.015625 22 -15.75 
L 25.703125 -1 
C 42.796875 -1 55.796875 13.34375 55.796875 26.25 
C 55.796875 36.609375 48.203125 44 37.09375 44 
z
M 36.5 42.203125 
C 43.09375 42.203125 49.703125 38.484375 49.703125 28.5625 
C 49.703125 17.140625 41.796875 2 26.203125 0.78125 
z
M 23.90625 0.78125 
C 19 0.78125 10.796875 3.4375 10.796875 14.65625 
C 10.796875 27.515625 19.90625 41.8125 34.296875 41.8125 
z
" id="CMMI12-30"/>
      <path d="M 19.5 -0.484375 
C 19.5 5.359375 17.59375 9.671875 13.5 9.671875 
C 10.296875 9.671875 8.703125 7.078125 8.703125 4.890625 
C 8.703125 2.6875 10.203125 0 13.59375 0 
C 14.90625 0 16 0.40625 16.90625 1.296875 
C 17.09375 1.5 17.203125 1.5 17.296875 1.5 
C 17.5 1.5 17.5 0.078125 17.5 -0.421875 
C 17.5 -3.75 16.90625 -10.296875 11.09375 -16.875 
C 10 -18.078125 10 -18.28125 10 -18.484375 
C 10 -19 10.5 -19.5 11 -19.5 
C 11.796875 -19.5 19.5 -12.046875 19.5 -0.484375 
z
" id="CMMI12-59"/>
     </defs>
     <use transform="scale(0.996264)" xlink:href="#CMMI12-30"/>
     <use transform="translate(57.73418 47.87587)scale(0.697382)" xlink:href="#CMMI12-13"/>
     <use transform="translate(93.153406 37.415174)scale(0.498132)" xlink:href="#CMR17-49"/>
     <use transform="translate(116.496777 47.87587)scale(0.697382)" xlink:href="#CMMI12-59"/>
     <use transform="translate(135.464709 47.87587)scale(0.697382)" xlink:href="#CMMI12-13"/>
     <use transform="translate(170.883935 37.415174)scale(0.498132)" xlink:href="#CMR17-50"/>
     <use transform="translate(57.73418 -26.578082)scale(0.697382)" xlink:href="#CMR17-49"/>
    </g>
   </g>
  </g>
 </g>
 <defs>
  <clipPath id="pceb078a278">
   <rect height="109.84496" width="109.84496" x="23.35504" y="12.512988"/>
  </clipPath>
 </defs>
</svg>
