<?xml version="1.0" encoding="utf-8" standalone="no"?>
<!DOCTYPE svg PUBLIC "-//W3C//DTD SVG 1.1//EN"
  "http://www.w3.org/Graphics/SVG/1.1/DTD/svg11.dtd">
<!-- Created with matplotlib (https://matplotlib.org/) -->
<svg height="144pt" version="1.1" viewBox="0 0 432 144" width="432pt" xmlns="http://www.w3.org/2000/svg" xmlns:xlink="http://www.w3.org/1999/xlink">
 <metadata>
  <rdf:RDF xmlns:cc="http://creativecommons.org/ns#" xmlns:dc="http://purl.org/dc/elements/1.1/" xmlns:rdf="http://www.w3.org/1999/02/22-rdf-syntax-ns#">
   <cc:Work>
    <dc:type rdf:resource="http://purl.org/dc/dcmitype/StillImage"/>
    <dc:date>2022-09-22T08:23:25.032879</dc:date>
    <dc:format>image/svg+xml</dc:format>
    <dc:creator>
     <cc:Agent>
      <dc:title>Matplotlib v3.3.3, https://matplotlib.org/</dc:title>
     </cc:Agent>
    </dc:creator>
   </cc:Work>
  </rdf:RDF>
 </metadata>
 <defs>
  <style type="text/css">*{stroke-linecap:butt;stroke-linejoin:round;}</style>
 </defs>
 <g id="figure_1">
  <g id="patch_1">
   <path d="M 0 144 
L 432 144 
L 432 0 
L 0 0 
z
" style="fill:#ffffff;"/>
  </g>
  <g id="axes_1">
   <g id="line2d_1">
    <path clip-path="url(#pb5750f8e20)" d="M 34.171715 16.205072 
L 142.273149 16.205072 
L 142.273149 16.205072 
" style="fill:none;stroke:#1f77b4;stroke-linecap:square;stroke-width:1.5;"/>
   </g>
   <g id="line2d_2">
    <path clip-path="url(#pb5750f8e20)" d="M 142.273149 124.306506 
L 142.273149 16.205072 
L 142.273149 16.205072 
" style="fill:none;stroke:#ff7f0e;stroke-linecap:square;stroke-width:1.5;"/>
   </g>
   <g id="line2d_3">
    <path clip-path="url(#pb5750f8e20)" d="M 142.273149 70.255789 
L 142.166279 66.858523 
L 141.846091 63.474692 
L 141.313851 60.117677 
L 140.571663 56.800752 
L 139.622464 53.537034 
L 138.470006 50.339429 
L 137.118846 47.220583 
L 135.574329 44.192828 
L 133.842561 41.268138 
L 131.93039 38.458078 
L 129.845379 35.77376 
L 127.595773 33.2258 
L 125.190466 30.824272 
L 122.638972 28.578675 
L 119.951379 26.497887 
L 117.138315 24.590137 
L 114.210906 22.86297 
L 111.180726 21.323215 
L 108.059759 19.976961 
L 104.860347 18.829533 
L 101.595141 17.885466 
L 98.277053 17.148495 
L 94.919204 16.621534 
L 91.534874 16.306667 
L 88.137445 16.205139 
L 84.740352 16.31735 
L 81.357028 16.642859 
L 78.000854 17.180377 
L 74.6851 17.927779 
L 71.422878 18.882109 
L 68.22709 20.039593 
L 65.110372 21.395655 
L 62.08505 22.944931 
L 59.163086 24.681296 
L 56.356036 26.597882 
L 53.675 28.687111 
L 51.13058 30.940722 
L 48.732837 33.349801 
L 46.491254 35.904824 
L 44.414695 38.595685 
L 42.511371 41.411745 
L 40.788809 44.341866 
L 39.253821 47.374463 
L 37.912476 50.497543 
L 36.770079 53.698756 
L 35.831148 56.965442 
L 35.099395 60.284685 
L 34.577714 63.643358 
L 34.268169 67.028179 
L 34.171983 70.425764 
L 34.289536 73.822676 
L 34.620364 77.205484 
L 35.163158 80.560809 
L 35.915773 83.875383 
L 36.875231 87.1361 
L 38.037739 90.330065 
L 39.3987 93.444646 
L 40.952731 96.467529 
L 42.693688 99.386759 
L 44.614686 102.190792 
L 46.708128 104.86854 
L 48.965736 107.409413 
L 51.378583 109.803365 
L 53.937127 112.040927 
L 56.63125 114.113253 
L 59.450299 116.012147 
L 62.383125 117.7301 
L 65.418132 119.260318 
L 68.543317 120.59675 
L 71.746322 121.734112 
L 75.014481 122.667906 
L 78.33487 123.394438 
L 81.694359 123.910837 
L 85.079663 124.21506 
L 88.477394 124.305904 
L 91.874118 124.18301 
L 95.256401 123.846863 
L 98.610869 123.298794 
L 101.924256 122.540968 
L 105.18346 121.576384 
L 108.375592 120.408856 
L 111.48803 119.043 
L 114.508466 117.484217 
L 117.424954 115.738672 
L 120.225963 113.813268 
L 122.900416 111.715618 
L 125.437737 109.454017 
L 127.827891 107.037409 
L 130.061429 104.47535 
L 132.129516 101.777972 
L 134.023974 98.955941 
L 135.737314 96.020417 
L 137.262758 92.983008 
L 138.594275 89.855725 
L 139.726599 86.650936 
L 140.655252 83.381313 
L 141.376563 80.059785 
L 141.887679 76.699489 
L 142.186579 73.313711 
L 142.273149 70.255789 
L 142.273149 70.255789 
" style="fill:none;stroke:#2ca02c;stroke-linecap:square;stroke-width:1.5;"/>
   </g>
   <g id="text_1">
    <!-- $\gamma_1$ -->
    <g transform="translate(20.496785 27.27466)scale(0.16 -0.16)">
     <defs>
      <path d="M 37.796875 11.875 
C 37.59375 16.734375 37.40625 24.390625 33.59375 33.328125 
C 31.59375 38.3125 28.203125 43.5625 20.90625 43.5625 
C 8.59375 43.5625 1.90625 27.96875 1.90625 25.390625 
C 1.90625 24.484375 2.59375 24.484375 2.90625 24.484375 
C 3.796875 24.484375 3.796875 24.6875 4.296875 25.984375 
C 6.40625 32.140625 12.796875 37 19.703125 37 
C 33.59375 37 35.59375 21.609375 35.59375 11.78125 
C 35.59375 5.5 34.90625 3.4375 34.296875 1.4375 
C 32.40625 -4.71875 29.09375 -17.03125 29.09375 -19.8125 
C 29.09375 -20.609375 29.40625 -21.5 30.203125 -21.5 
C 31.703125 -21.5 32.59375 -18.21875 33.703125 -14.25 
C 36.09375 -5.515625 36.703125 -1.140625 37.203125 2.828125 
C 37.5 5.21875 43.203125 21.625 51.09375 37.21875 
C 51.796875 38.796875 53.203125 41.484375 53.203125 41.78125 
C 53.203125 41.875 53.09375 42.578125 52.203125 42.578125 
C 52 42.578125 51.5 42.578125 51.296875 42.171875 
C 51.09375 41.984375 47.59375 35.21875 44.59375 28.46875 
C 43.09375 25.09375 41.09375 20.625 37.796875 11.875 
z
" id="CMMI12-13"/>
      <path d="M 26.59375 63.40625 
C 26.59375 65.5 26.5 65.5 25.09375 65.5 
C 21.203125 61.1875 15.296875 59.796875 9.703125 59.796875 
C 9.40625 59.796875 8.90625 59.796875 8.796875 59.5 
C 8.703125 59.296875 8.703125 59.09375 8.703125 57 
C 11.796875 57 17 57.59375 21 59.984375 
L 21 7.203125 
C 21 3.6875 20.796875 2.5 12.203125 2.5 
L 9.203125 2.5 
L 9.203125 0 
C 14 0 19 0 23.796875 0 
C 28.59375 0 33.59375 0 38.40625 0 
L 38.40625 2.5 
L 35.40625 2.5 
C 26.796875 2.5 26.59375 3.59375 26.59375 7.15625 
z
" id="CMR17-49"/>
     </defs>
     <use transform="scale(0.996264)" xlink:href="#CMMI12-13"/>
     <use transform="translate(50.599133 -14.943915)scale(0.697382)" xlink:href="#CMR17-49"/>
    </g>
   </g>
   <g id="text_2">
    <!-- $\gamma_2$ -->
    <g transform="translate(128.598219 135.376094)scale(0.16 -0.16)">
     <defs>
      <path d="M 41.703125 15.453125 
L 39.90625 15.453125 
C 38.90625 8.375 38.09375 7.171875 37.703125 6.5625 
C 37.203125 5.765625 30 5.765625 28.59375 5.765625 
L 9.40625 5.765625 
C 13 9.671875 20 16.75 28.5 24.953125 
C 34.59375 30.734375 41.703125 37.53125 41.703125 47.421875 
C 41.703125 59.21875 32.296875 66 21.796875 66 
C 10.796875 66 4.09375 56.3125 4.09375 47.34375 
C 4.09375 43.4375 7 42.9375 8.203125 42.9375 
C 9.203125 42.9375 12.203125 43.546875 12.203125 47.03125 
C 12.203125 50.109375 9.59375 51 8.203125 51 
C 7.59375 51 7 50.90625 6.59375 50.703125 
C 8.5 59.21875 14.296875 63.40625 20.40625 63.40625 
C 29.09375 63.40625 34.796875 56.515625 34.796875 47.421875 
C 34.796875 38.734375 29.703125 31.25 24 24.75 
L 4.09375 2.28125 
L 4.09375 0 
L 39.296875 0 
z
" id="CMR17-50"/>
     </defs>
     <use transform="scale(0.996264)" xlink:href="#CMMI12-13"/>
     <use transform="translate(50.599133 -14.943915)scale(0.697382)" xlink:href="#CMR17-50"/>
    </g>
   </g>
   <g id="text_3">
    <!-- $\phi^{\gamma_1, \gamma_2}_1$ -->
    <g transform="translate(17.296114 121.089681)scale(0.16 -0.16)">
     <defs>
      <path d="M 43 68.59375 
C 43 69.5 42.296875 69.5 42 69.5 
C 41.09375 69.5 41 69.296875 40.59375 67.59375 
L 35.203125 45.921875 
C 34.90625 44.625 34.796875 44.515625 34.703125 44.421875 
C 34.59375 44.21875 33.90625 44.125 33.703125 44.125 
C 17.296875 42.71875 4.703125 29.125 4.703125 16.515625 
C 4.703125 5.640625 13 -1 23.40625 -1 
C 22.59375 -4.078125 21.90625 -7.234375 21.09375 -10.296875 
C 19.703125 -15.546875 18.90625 -18.8125 18.90625 -19.203125 
C 18.90625 -19.390625 18.90625 -20 19.90625 -20 
C 20.203125 -20 20.59375 -20 20.796875 -19.59375 
C 21 -19.390625 21.59375 -17.015625 22 -15.75 
L 25.703125 -1 
C 42.796875 -1 55.796875 13.34375 55.796875 26.25 
C 55.796875 36.609375 48.203125 44 37.09375 44 
z
M 36.5 42.203125 
C 43.09375 42.203125 49.703125 38.484375 49.703125 28.5625 
C 49.703125 17.140625 41.796875 2 26.203125 0.78125 
z
M 23.90625 0.78125 
C 19 0.78125 10.796875 3.4375 10.796875 14.65625 
C 10.796875 27.515625 19.90625 41.8125 34.296875 41.8125 
z
" id="CMMI12-30"/>
      <path d="M 19.5 -0.484375 
C 19.5 5.359375 17.59375 9.671875 13.5 9.671875 
C 10.296875 9.671875 8.703125 7.078125 8.703125 4.890625 
C 8.703125 2.6875 10.203125 0 13.59375 0 
C 14.90625 0 16 0.40625 16.90625 1.296875 
C 17.09375 1.5 17.203125 1.5 17.296875 1.5 
C 17.5 1.5 17.5 0.078125 17.5 -0.421875 
C 17.5 -3.75 16.90625 -10.296875 11.09375 -16.875 
C 10 -18.078125 10 -18.28125 10 -18.484375 
C 10 -19 10.5 -19.5 11 -19.5 
C 11.796875 -19.5 19.5 -12.046875 19.5 -0.484375 
z
" id="CMMI12-59"/>
     </defs>
     <use transform="scale(0.996264)" xlink:href="#CMMI12-30"/>
     <use transform="translate(57.73418 47.87587)scale(0.697382)" xlink:href="#CMMI12-13"/>
     <use transform="translate(93.153406 37.415174)scale(0.498132)" xlink:href="#CMR17-49"/>
     <use transform="translate(116.496777 47.87587)scale(0.697382)" xlink:href="#CMMI12-59"/>
     <use transform="translate(135.464709 47.87587)scale(0.697382)" xlink:href="#CMMI12-13"/>
     <use transform="translate(170.883935 37.415174)scale(0.498132)" xlink:href="#CMR17-50"/>
     <use transform="translate(57.73418 -26.578082)scale(0.697382)" xlink:href="#CMR17-49"/>
    </g>
   </g>
  </g>
  <g id="axes_2"/>
  <g id="axes_3">
   <g id="line2d_4">
    <path clip-path="url(#p56eb3175bb)" d="M 304.87377 16.205072 
L 358.924486 16.205072 
L 358.924486 16.205072 
" style="fill:none;stroke:#1f77b4;stroke-linecap:square;stroke-width:1.5;"/>
   </g>
   <g id="line2d_5">
    <path clip-path="url(#p56eb3175bb)" d="M 412.975203 124.306506 
L 412.975203 70.255789 
L 412.975203 70.255789 
" style="fill:none;stroke:#ff7f0e;stroke-linecap:square;stroke-width:1.5;"/>
   </g>
   <g id="line2d_6">
    <path clip-path="url(#p56eb3175bb)" d="M 412.975203 70.255789 
L 412.862925 66.773708 
L 412.526555 63.306094 
L 411.967492 59.867352 
L 411.188057 56.471771 
L 410.191491 53.133456 
L 408.981931 49.866276 
L 407.564405 46.683807 
L 405.944801 43.599269 
L 404.129847 40.625477 
L 402.127085 37.774787 
L 399.944834 35.059041 
L 397.592162 32.489522 
L 395.078842 30.076906 
L 392.415316 27.831216 
L 389.61265 25.761782 
L 386.682489 23.877202 
L 383.637004 22.185304 
L 380.48885 20.693119 
L 377.251105 19.406845 
L 373.93722 18.331827 
L 370.560965 17.47253 
L 367.136365 16.832525 
L 363.677648 16.414471 
L 360.199183 16.220105 
L 358.924486 16.205072 
L 358.924486 16.205072 
" style="fill:none;stroke:#2ca02c;stroke-linecap:square;stroke-width:1.5;"/>
   </g>
  </g>
 </g>
 <defs>
  <clipPath id="pb5750f8e20">
   <rect height="118.911577" width="118.911577" x="28.766644" y="10.8"/>
  </clipPath>
  <clipPath id="p56eb3175bb">
   <rect height="118.911577" width="118.911577" x="299.468698" y="10.8"/>
  </clipPath>
 </defs>
</svg>
