<?xml version="1.0" encoding="UTF-8" standalone="no"?>
<!-- Created with Inkscape (http://www.inkscape.org/) -->

<svg
   version="1.1"
   id="svg2"
   width="794.66669"
   height="356"
   viewBox="0 0 794.66669 356"
   sodipodi:docname="selfIntersection.eps"
   xmlns:inkscape="http://www.inkscape.org/namespaces/inkscape"
   xmlns:sodipodi="http://sodipodi.sourceforge.net/DTD/sodipodi-0.dtd"
   xmlns="http://www.w3.org/2000/svg"
   xmlns:svg="http://www.w3.org/2000/svg">
  <defs
     id="defs6">
    <clipPath
       clipPathUnits="userSpaceOnUse"
       id="clipPath20">
      <path
         d="m 781.949,310.148 h 4455.5 v 2033.3 h -4455.5 z"
         id="path18" />
    </clipPath>
  </defs>
  <sodipodi:namedview
     id="namedview4"
     pagecolor="#ffffff"
     bordercolor="#000000"
     borderopacity="0.25"
     inkscape:showpageshadow="2"
     inkscape:pageopacity="0.0"
     inkscape:pagecheckerboard="0"
     inkscape:deskcolor="#d1d1d1" />
  <g
     id="g8"
     inkscape:groupmode="layer"
     inkscape:label="ink_ext_XXXXXX"
     transform="matrix(1.3333333,0,0,-1.3333333,0,356)">
    <g
       id="g10"
       transform="scale(0.1)">
      <path
         d="M 10,20 H 5950 V 2660 H 10 Z"
         style="fill:#ffffff;fill-opacity:1;fill-rule:nonzero;stroke:none"
         id="path12" />
      <g
         id="g14">
        <g
           id="g16"
           clip-path="url(#clipPath20)">
          <path
             d="m 1209.45,1292.77 3.29,3.73 3.29,3.72 3.29,3.72 3.29,3.72 3.29,3.72 3.29,3.72 3.29,3.72 3.3,3.71 3.29,3.72 3.29,3.71 3.3,3.71 3.29,3.71 3.3,3.7 3.3,3.71 3.29,3.7 3.3,3.69 3.3,3.7 3.31,3.69 3.3,3.69 3.3,3.68 3.31,3.68 3.3,3.68 3.31,3.67 3.31,3.67 3.31,3.66 3.31,3.65 3.32,3.66 3.32,3.64 3.32,3.64 3.32,3.63 3.32,3.63 3.33,3.62 3.32,3.62 3.33,3.61 3.33,3.6 3.34,3.6 3.33,3.58 3.34,3.58 3.34,3.57 3.35,3.57 3.35,3.55 3.35,3.55 3.35,3.54 3.36,3.52 3.36,3.52 3.36,3.52 3.37,3.5 3.37,3.49 3.37,3.48 3.38,3.47 3.37,3.46 3.39,3.45 3.38,3.44 3.39,3.42 3.4,3.42 3.4,3.4 3.4,3.4 3.41,3.37 3.41,3.37 3.41,3.36 3.43,3.34 3.42,3.32 3.43,3.32 3.43,3.3 3.44,3.29 3.44,3.27 3.45,3.25 3.45,3.25 3.46,3.22 3.46,3.21 3.47,3.2 3.47,3.18 3.47,3.16 3.49,3.15 3.48,3.13 3.5,3.11 3.5,3.1 3.5,3.08 3.52,3.05 3.51,3.05 3.52,3.02 3.53,3 3.54,2.98 3.54,2.97 3.54,2.94 3.55,2.93 3.57,2.9 3.56,2.88 3.57,2.86 3.58,2.84 3.59,2.82 3.59,2.79 3.6,2.78 3.6,2.75 3.61,2.72 3.62,2.7 3.63,2.68 3.63,2.66 3.64,2.63 3.65,2.6 3.65,2.58 3.67,2.55 3.67,2.53 3.68,2.5 3.68,2.47 3.69,2.44 3.7,2.42 3.71,2.39 3.71,2.36 3.72,2.33 3.73,2.3 3.74,2.27 3.75,2.24 3.75,2.21 3.76,2.18 3.77,2.14 3.78,2.12 3.79,2.08 3.79,2.05 3.8,2.02 3.8,1.98 3.82,1.94 3.83,1.92 3.82,1.87 3.84,1.84 3.85,1.81 3.86,1.77 3.86,1.74 3.87,1.69 3.88,1.66 3.88,1.62 3.89,1.57 3.9,1.55 3.91,1.5 3.91,1.46 3.92,1.42 3.93,1.38 3.93,1.34 3.94,1.3 3.95,1.26 3.95,1.21 3.96,1.17 3.97,1.13 3.97,1.08 3.97,1.04 3.99,1 3.99,0.95 3.99,0.91 4,0.85 4,0.82 4.01,0.77 4,0.72 4.02,0.68 4.02,0.63 4.02,0.58 4.03,0.54 4.02,0.49 4.04,0.44 4.03,0.39 4.04,0.35 4.03,0.29 4.04,0.25 4.05,0.21 4.04,0.15 4.04,0.1 4.04,0.06 4.04,0.01 4.05,-0.04 4.04,-0.09 4.04,-0.14 4.04,-0.18 4.04,-0.24 4.04,-0.28 4.04,-0.33 4.03,-0.37 4.04,-0.43 4.02,-0.47 4.03,-0.52 4.02,-0.57 4.02,-0.62 4.02,-0.66 4.01,-0.7 4.01,-0.76 4.01,-0.8 4,-0.85 3.99,-0.89 3.99,-0.93 3.98,-0.98 3.98,-1.03 3.97,-1.06 3.97,-1.12 3.96,-1.15 3.96,-1.2 3.95,-1.24 3.94,-1.29 3.94,-1.32 3.93,-1.37 3.92,-1.41 3.91,-1.45 3.91,-1.49 3.9,-1.53 3.9,-1.56 3.89,-1.61 3.87,-1.64 3.88,-1.69 3.86,-1.72 3.86,-1.75 3.85,-1.8 3.84,-1.83 3.83,-1.87 3.83,-1.89 3.82,-1.94 3.81,-1.97 3.8,-2 3.8,-2.04 3.79,-2.07 3.77,-2.11 3.78,-2.14 3.76,-2.16 3.76,-2.2 3.74,-2.23 3.74,-2.26 3.73,-2.29 3.73,-2.32 3.72,-2.35 3.71,-2.38 3.7,-2.41 3.69,-2.43 3.69,-2.47 3.68,-2.49 3.67,-2.51 3.67,-2.55 3.65,-2.57 3.66,-2.59 3.64,-2.62 3.63,-2.65 3.63,-2.67 3.62,-2.69 3.62,-2.72 3.61,-2.74 3.6,-2.77 3.59,-2.78 3.59,-2.81 3.58,-2.84 3.57,-2.85 3.57,-2.88 3.56,-2.89 3.56,-2.92 3.54,-2.94 3.55,-2.95 3.54,-2.98 3.52,-3 3.53,-3.02 3.52,-3.03 3.51,-3.05 3.51,-3.08 3.5,-3.09 3.5,-3.1 3.48,-3.13 3.49,-3.14 3.48,-3.16 3.47,-3.17 3.47,-3.19 3.47,-3.2 3.45,-3.23 3.46,-3.23 3.45,-3.26 3.44,-3.26 3.44,-3.28 3.43,-3.3 3.43,-3.31 3.43,-3.32 3.42,-3.34 3.42,-3.35 3.41,-3.36 3.4,-3.38 3.41,-3.38 3.4,-3.41 3.4,-3.41 3.39,-3.42 3.39,-3.43 3.38,-3.45 3.38,-3.45 3.38,-3.47 3.37,-3.48 3.37,-3.49 3.37,-3.5 3.36,-3.5 3.36,-3.52 3.36,-3.52 3.36,-3.54 3.35,-3.55 3.35,-3.55 3.35,-3.56 3.34,-3.57 3.34,-3.57 3.34,-3.59 3.33,-3.59 3.33,-3.6 3.33,-3.61 3.33,-3.61 3.33,-3.62 3.32,-3.63 3.32,-3.63 3.32,-3.64 3.32,-3.64 3.32,-3.65 3.31,-3.65 3.31,-3.66 3.31,-3.67 3.31,-3.67 3.31,-3.67 3.3,-3.68 3.31,-3.68 3.3,-3.69 3.3,-3.69 3.3,-3.69 3.3,-3.7 3.3,-3.7 3.3,-3.7 3.29,-3.71 3.3,-3.7 3.29,-3.71 3.3,-3.72 3.29,-3.71 3.29,-3.72 3.3,-3.71 3.28,-3.72 3.3,-3.72 3.29,-3.72 3.29,-3.72 3.29,-3.73 3.29,-3.71 3.29,-3.73 3.29,-3.72 3.29,-3.72 3.3,-3.72 3.28,-3.72 3.3,-3.72 3.29,-3.72 3.29,-3.72 3.3,-3.71 3.29,-3.71 3.29,-3.71 3.3,-3.71 3.29,-3.71 3.3,-3.7 3.3,-3.7 3.3,-3.71 3.29,-3.69 3.31,-3.69 3.3,-3.69 3.3,-3.69 3.31,-3.68 3.3,-3.67 3.31,-3.68 3.31,-3.66 3.31,-3.67 3.31,-3.66 3.32,-3.65 3.31,-3.65 3.32,-3.64 3.32,-3.64 3.32,-3.62 3.33,-3.63 3.32,-3.62 3.33,-3.61 3.33,-3.6 3.34,-3.6 3.33,-3.59 3.34,-3.58 3.34,-3.58 3.35,-3.56 3.35,-3.56 3.34,-3.55 3.36,-3.54 3.35,-3.53 3.36,-3.52 3.36,-3.52 3.37,-3.5 3.36,-3.5 3.38,-3.48 3.37,-3.48 3.38,-3.46 3.38,-3.45 3.39,-3.44 3.39,-3.44 3.39,-3.41 3.4,-3.41 3.4,-3.4 3.41,-3.38 3.4,-3.37 3.42,-3.36 3.42,-3.35 3.42,-3.33 3.43,-3.32 3.43,-3.3 3.43,-3.29 3.45,-3.28 3.44,-3.26 3.45,-3.25 3.46,-3.23 3.46,-3.22 3.46,-3.2 3.47,-3.18 3.48,-3.17 3.48,-3.15 3.49,-3.14 3.49,-3.12 3.5,-3.1 3.5,-3.08 3.51,-3.07 3.51,-3.04 3.52,-3.03 3.53,-3.01 3.53,-2.99 3.54,-2.97 3.54,-2.954 3.55,-2.929 3.56,-2.911 3.56,-2.89 3.57,-2.867 3.58,-2.848 3.58,-2.824 3.59,-2.805 3.6,-2.781 3.6,-2.754 3.61,-2.738 3.62,-2.707 3.62,-2.688 3.63,-2.66 3.64,-2.641 3.65,-2.609 3.65,-2.59 3.66,-2.559 3.67,-2.535 3.67,-2.507 3.68,-2.481 3.69,-2.453 3.7,-2.426 3.71,-2.402 3.71,-2.367 3.72,-2.34 3.73,-2.309 3.73,-2.281 3.74,-2.25 3.75,-2.223 3.76,-2.187 3.77,-2.156 3.77,-2.125 3.78,-2.094 3.79,-2.063 3.8,-2.023 3.81,-1.992 3.81,-1.961 3.82,-1.926 3.83,-1.891 3.84,-1.851 3.84,-1.817 3.85,-1.781 3.86,-1.746 3.87,-1.707 3.88,-1.672 3.88,-1.633 3.89,-1.59 3.89,-1.554 3.91,-1.516 3.91,-1.476 3.91,-1.434 3.93,-1.395 3.93,-1.355 3.94,-1.313 3.95,-1.269 3.95,-1.227 3.95,-1.183 3.97,-1.141 3.97,-1.101 3.97,-1.055 3.98,-1.008 3.99,-0.965 3.99,-0.926 4,-0.875 4,-0.828 4,-0.785 4.01,-0.738 4.01,-0.692 4.02,-0.648 4.02,-0.598 4.03,-0.55 4.02,-0.508 4.04,-0.457 4.03,-0.406 4.03,-0.364 4.04,-0.312 4.04,-0.266 4.04,-0.219 4.04,-0.168 4.04,-0.121 4.04,-0.074 4.05,-0.023 4.04,0.023 4.05,0.074 4.04,0.121 4.04,0.168 4.04,0.219 4.04,0.266 4.04,0.312 4.03,0.364 4.03,0.406 4.03,0.457 4.03,0.508 4.02,0.55 4.03,0.598 4.02,0.648 4.01,0.692 4.01,0.738 4,0.785 4,0.828 4,0.875 3.99,0.926 3.99,0.965 3.98,1.008 3.97,1.055 3.97,1.101 3.96,1.141 3.96,1.183 3.95,1.227 3.95,1.269 3.94,1.313 3.93,1.355 3.92,1.395 3.92,1.434 3.91,1.476 3.91,1.516 3.89,1.554 3.89,1.59 3.88,1.633 3.88,1.672 3.87,1.707 3.86,1.746 3.85,1.781 3.84,1.817 3.84,1.851 3.83,1.891 3.82,1.926 3.81,1.961 3.81,1.992 3.79,2.023 3.8,2.063 3.78,2.094 3.77,2.125 3.77,2.156 3.75,2.187 3.76,2.223 3.74,2.25 3.74,2.281 3.72,2.309 3.72,2.34 3.72,2.367 3.7,2.402 3.7,2.426 3.69,2.453 3.68,2.481 3.67,2.507 3.67,2.535 3.66,2.559 3.65,2.59 3.65,2.609 3.64,2.641 3.63,2.66 3.62,2.688 3.62,2.707 3.61,2.738 3.6,2.754 3.6,2.781 3.59,2.805 3.58,2.824 3.58,2.848 3.57,2.867 3.56,2.89 3.55,2.911 3.56,2.929 3.54,2.954 3.54,2.97 3.53,2.99 3.53,3.01 3.52,3.03 3.51,3.04 3.51,3.07 3.51,3.08 3.49,3.1 3.49,3.12 3.49,3.14 3.48,3.15 3.48,3.17 3.47,3.18 3.46,3.2 3.46,3.22 3.46,3.23 3.45,3.25 3.45,3.26 3.44,3.28 3.43,3.29 3.43,3.3 3.43,3.32 3.42,3.33 3.42,3.35 3.41,3.36 3.41,3.37 3.41,3.38 3.4,3.4 3.4,3.41 3.39,3.41 3.39,3.44 3.39,3.44 3.38,3.45 3.38,3.46 3.37,3.48 3.38,3.48 3.36,3.5 3.37,3.5 3.36,3.52 3.36,3.52 3.35,3.53 3.36,3.54 3.34,3.55 3.35,3.56 3.35,3.56 3.34,3.58 3.34,3.58 3.33,3.59 3.33,3.6 3.34,3.6 3.32,3.61 3.33,3.62 3.33,3.63 3.32,3.62 3.32,3.64 3.32,3.64 3.31,3.65 3.32,3.65 3.31,3.66 3.31,3.67 3.31,3.66 3.3,3.68 3.31,3.67 3.31,3.68 3.3,3.69 3.3,3.69 3.3,3.69 3.3,3.69 3.3,3.71 3.3,3.7 3.3,3.7 3.29,3.71 3.3,3.71 3.29,3.71 3.29,3.71 3.3,3.71 3.29,3.72 3.29,3.72 3.29,3.72 3.3,3.72 3.28,3.72 3.29,3.72 3.3,3.72 3.29,3.73 3.29,3.71 3.29,3.73 3.29,3.72 3.29,3.72 3.29,3.72 3.3,3.72 3.29,3.71 3.29,3.72 3.29,3.71 3.3,3.72 3.29,3.71 3.3,3.7 3.29,3.71 3.3,3.7 3.3,3.7 3.3,3.7 3.3,3.69 3.3,3.69 3.3,3.69 3.31,3.68 3.3,3.68 3.31,3.67 3.31,3.67 3.31,3.67 3.31,3.66 3.32,3.65 3.31,3.65 3.32,3.64 3.32,3.64 3.32,3.63 3.32,3.63 3.33,3.62 3.33,3.61 3.32,3.61 3.34,3.6 3.34,3.59 3.33,3.59 3.34,3.57 3.35,3.57 3.34,3.56 3.35,3.55 3.35,3.55 3.35,3.54 3.36,3.52 3.36,3.52 3.37,3.5 3.37,3.5 3.36,3.49 3.38,3.48 3.37,3.47 3.39,3.45 3.38,3.45 3.39,3.43 3.39,3.42 3.4,3.41 3.4,3.41 3.4,3.38 3.41,3.38 3.41,3.36 3.42,3.35 3.42,3.34 3.43,3.32 3.43,3.31 3.43,3.3 3.44,3.28 3.45,3.26 3.44,3.26 3.46,3.23 3.46,3.23 3.46,3.2 3.47,3.19 3.47,3.17 3.48,3.16 3.49,3.14 3.48,3.13 3.5,3.1 3.5,3.09 3.51,3.08 3.51,3.05 3.52,3.03 3.53,3.02 3.52,3 3.54,2.98 3.54,2.95 3.55,2.94 3.56,2.92 3.56,2.89 3.57,2.88 3.57,2.85 3.58,2.84 3.59,2.81 3.59,2.78 3.6,2.77 3.61,2.74 3.62,2.72 3.62,2.69 3.63,2.67 3.63,2.65 3.64,2.62 3.66,2.59 3.65,2.57 3.67,2.55 3.67,2.51 3.68,2.49 3.69,2.47 3.69,2.43 3.7,2.41 3.71,2.38 3.72,2.35 3.72,2.32 3.73,2.29 3.75,2.26 3.75,2.23 3.75,2.2 3.77,2.16 3.76,2.14 3.79,2.11 3.78,2.07 3.8,2.04 3.8,2 3.81,1.97 3.82,1.94 3.83,1.89 3.83,1.87 3.84,1.83 3.85,1.8 3.86,1.75 3.86,1.72 3.88,1.69 3.88,1.64 3.88,1.61 3.9,1.56 3.9,1.53 3.91,1.49 3.91,1.45 3.92,1.41 3.93,1.37 3.94,1.32 3.94,1.29 3.95,1.24 3.96,1.2 3.96,1.15 3.97,1.12 3.97,1.06 3.98,1.03 3.98,0.98 3.99,0.93 3.99,0.89 4,0.85 4.01,0.8 4.01,0.76 4.01,0.7 4.02,0.66 4.02,0.62 4.02,0.57 4.02,0.52 4.03,0.47 4.04,0.43 4.03,0.37 4.04,0.33 4.04,0.28 4.03,0.24 4.05,0.18 4.04,0.14 4.04,0.09 4.05,0.04 4.04,-0.01 4.04,-0.06 4.04,-0.1 4.04,-0.15 4.05,-0.21 4.04,-0.25 4.03,-0.29 4.04,-0.35 4.03,-0.39 4.03,-0.44 4.03,-0.49 4.03,-0.54 4.02,-0.58 4.02,-0.63 4.01,-0.68 4.01,-0.72 4.01,-0.77 4,-0.82 4,-0.85 3.99,-0.91 3.99,-0.95 3.99,-1 3.97,-1.04 3.97,-1.08 3.97,-1.13 3.96,-1.17 3.95,-1.21 3.95,-1.26 3.94,-1.3 3.93,-1.34 3.93,-1.38 3.92,-1.42 3.91,-1.46 3.91,-1.5 3.9,-1.55 3.89,-1.57 3.89,-1.62 3.87,-1.66 3.87,-1.69 3.86,-1.74 3.86,-1.77 3.84,-1.81 3.84,-1.84 3.84,-1.87 3.82,-1.92 3.82,-1.94 3.8,-1.98 3.8,-2.02 3.79,-2.05 3.79,-2.08 3.78,-2.12 3.77,-2.14 3.76,-2.18 3.75,-2.21 3.74,-2.24 3.74,-2.27 3.73,-2.3 3.73,-2.33 3.71,-2.36 3.71,-2.39 3.7,-2.42 3.69,-2.44 3.69,-2.47 3.67,-2.5 3.67,-2.53 3.66,-2.55 3.66,-2.58 3.64,-2.6 3.65,-2.63 3.63,-2.66 3.63,-2.68 3.61,-2.7 3.62,-2.72 3.6,-2.75 3.6,-2.78 3.59,-2.79 3.59,-2.82 3.58,-2.84 3.57,-2.86 3.56,-2.88 3.56,-2.9 3.55,-2.93 3.55,-2.94 3.54,-2.97 3.54,-2.98 3.53,-3 3.52,-3.02 3.52,-3.05 3.5,-3.05 3.51,-3.08 3.5,-3.1 3.49,-3.11 3.49,-3.13 3.49,-3.15 3.47,-3.16 3.47,-3.18 3.47,-3.2 3.46,-3.21 3.46,-3.22 3.45,-3.25 3.45,-3.25 3.44,-3.27 3.44,-3.29 3.43,-3.3 3.43,-3.32 3.42,-3.32 3.42,-3.34 3.42,-3.36 3.41,-3.37 3.41,-3.37 3.4,-3.4 3.4,-3.4 3.39,-3.42 3.39,-3.42 3.39,-3.44 3.39,-3.45 3.38,-3.46 3.37,-3.47 3.37,-3.48 3.37,-3.49 3.37,-3.5 3.36,-3.52 3.36,-3.52 3.36,-3.52 3.35,-3.54 3.35,-3.55 3.35,-3.55 3.35,-3.57 3.34,-3.57 3.34,-3.58 3.33,-3.58 3.34,-3.6 3.33,-3.6 3.33,-3.61 3.33,-3.62 3.32,-3.62 3.32,-3.63 3.32,-3.63 3.32,-3.64 3.32,-3.64 3.31,-3.66 3.32,-3.65 3.31,-3.66 3.31,-3.67 3.31,-3.67 3.3,-3.68 3.31,-3.68 3.3,-3.68 3.3,-3.69 3.31,-3.69 3.3,-3.7 3.3,-3.69 3.29,-3.7 3.3,-3.71 3.29,-3.7 3.3,-3.71 3.29,-3.71 3.3,-3.71 3.29,-3.72 3.3,-3.71 3.29,-3.72 3.29,-3.72 3.29,-3.72 3.29,-3.72 3.29,-3.72 3.29,-3.72 3.29,-3.73"
             style="fill:none;stroke:#000000;stroke-width:10.5;stroke-linecap:square;stroke-linejoin:miter;stroke-miterlimit:5;stroke-dasharray:none;stroke-opacity:1"
             id="path22" />
          <path
             d="m 1614,935.074 2.83,3.207 2.83,3.203 2.83,3.196 2.82,3.191 2.82,3.184 2.81,3.179 2.81,3.172 2.8,3.164 2.8,3.16 2.8,3.153 2.79,3.144 2.78,3.137 2.78,3.133 2.78,3.125 2.77,3.117 2.77,3.109 2.76,3.098 2.76,3.098 2.76,3.082 2.75,3.078 2.74,3.066 2.75,3.06 2.73,3.05 2.74,3.05 2.73,3.03 2.73,3.03 2.72,3.01 2.71,3 2.72,3 2.71,2.99 2.7,2.97 2.7,2.97 2.7,2.95 2.69,2.95 2.69,2.93 2.68,2.92 2.68,2.91 2.67,2.9 2.68,2.89 2.66,2.87 2.66,2.86 2.66,2.85 2.65,2.84 2.65,2.82 2.65,2.81 2.64,2.8 2.63,2.78 2.63,2.77 2.62,2.75 2.62,2.74 2.62,2.73 2.61,2.7 2.6,2.7 2.6,2.67 2.59,2.66 2.59,2.65 2.58,2.62 2.58,2.61 2.57,2.59 2.56,2.57 2.55,2.56 2.55,2.53 2.54,2.51 2.54,2.49 2.53,2.48 2.52,2.45 2.51,2.43 2.5,2.41 2.5,2.39 2.49,2.36 2.47,2.34 2.47,2.32 2.45,2.29 2.45,2.26 2.44,2.24 2.42,2.21 2.41,2.18 2.4,2.15 2.38,2.13 2.38,2.09 2.35,2.07 2.34,2.02 2.32,2 2.31,1.97 2.29,1.93 2.27,1.89 2.24,1.85 2.23,1.81 2.2,1.78 2.17,1.73 2.15,1.69 2.11,1.64 2.08,1.59 2.05,1.54 2.01,1.49 1.96,1.43 1.92,1.38 1.87,1.32 1.8,1.24 1.74,1.17 1.67,1.1 1.57,1.01 1.47,0.91 1.32,0.8 1.13,0.65 0.75,0.41 -0.77,-0.37 -1.2,-0.54 -1.43,-0.61 -1.62,-0.65 -1.78,-0.67 -1.91,-0.68 -2.03,-0.68 -2.13,-0.68 -2.22,-0.67 -2.32,-0.66 -2.39,-0.63 -2.47,-0.61 -2.53,-0.59 -2.6,-0.56 -2.64,-0.53 -2.71,-0.5 -2.75,-0.46 -2.79,-0.43 -2.83,-0.38 -2.86,-0.36 -2.9,-0.3 -2.91,-0.27 -2.94,-0.23 -2.97,-0.18 -2.97,-0.14 -2.98,-0.09 -2.99,-0.06 -2.99,-0.01 -2.99,0.04 -2.99,0.08 -2.98,0.13 -2.96,0.16 -2.95,0.21 -2.92,0.26 -2.9,0.3 -2.88,0.33 -2.84,0.38 -2.81,0.41 -2.76,0.45 -2.72,0.48 -2.67,0.52 -2.61,0.55 -2.56,0.58 -2.49,0.6 -2.42,0.63 -2.34,0.65 -2.26,0.66 -2.16,0.68 -2.07,0.68 -1.95,0.68 -1.82,0.68 -1.68,0.66 -1.51,0.63 -1.29,0.56 -0.97,0.46 0.27,-0.15 1.04,-0.59 1.26,-0.75 1.43,-0.88 1.54,-0.98 1.63,-1.07 1.72,-1.14 1.79,-1.23 1.84,-1.29 1.91,-1.35 1.95,-1.42 1.99,-1.47 2.04,-1.53 2.06,-1.57 2.11,-1.63 2.14,-1.67 2.16,-1.72 2.19,-1.76 2.22,-1.8 2.24,-1.84 2.26,-1.88 2.28,-1.91 2.3,-1.96 2.31,-1.99 2.34,-2.01 2.35,-2.06 2.37,-2.08 2.38,-2.11 2.39,-2.15 2.41,-2.17 2.42,-2.2 2.43,-2.23 2.45,-2.26 2.45,-2.28 2.46,-2.31 2.48,-2.33 2.48,-2.35 2.49,-2.38 2.5,-2.4 2.51,-2.43 2.52,-2.44 2.52,-2.47 2.53,-2.48 2.54,-2.51 2.55,-2.53 2.56,-2.55 2.56,-2.56 2.56,-2.59 2.58,-2.6 2.58,-2.62 2.58,-2.64 2.59,-2.65 2.6,-2.67 2.6,-2.69 2.61,-2.7 2.61,-2.72 2.62,-2.74 2.62,-2.75 2.63,-2.76 2.63,-2.77 2.64,-2.8 2.64,-2.8 2.65,-2.82 2.65,-2.83 2.65,-2.85 2.66,-2.86 2.67,-2.87 2.67,-2.88 2.67,-2.9 2.68,-2.9 2.68,-2.92 2.69,-2.93 2.69,-2.94 2.7,-2.95 2.7,-2.96 2.7,-2.97 2.71,-2.98 2.71,-3 2.71,-3 2.72,-3.01 2.73,-3.03 2.72,-3.02 2.74,-3.05 2.74,-3.04 2.74,-3.06 2.74,-3.068 2.75,-3.071 2.75,-3.082 2.76,-3.093 2.76,-3.098 2.77,-3.109 2.77,-3.11 2.78,-3.125 2.78,-3.129 2.78,-3.136 2.79,-3.141 2.79,-3.148 2.8,-3.161 2.8,-3.164 2.81,-3.168 2.81,-3.175 2.82,-3.184 2.82,-3.188 2.82,-3.195 2.83,-3.199 2.83,-3.207 2.84,-3.211 2.85,-3.219 2.85,-3.222 2.85,-3.227 2.86,-3.23 2.87,-3.239 2.87,-3.242 2.87,-3.25 2.89,-3.25 2.88,-3.258 2.89,-3.261 2.9,-3.266 2.9,-3.27 2.91,-3.273 2.91,-3.277 2.92,-3.282 2.93,-3.289 2.93,-3.285 2.94,-3.293 2.94,-3.297 2.95,-3.3 2.95,-3.301 2.97,-3.305 2.97,-3.312 2.97,-3.313 2.98,-3.312 2.99,-3.321 2.99,-3.32 3,-3.32 3.02,-3.325 3.01,-3.332 3.02,-3.328 3.03,-3.336 3.03,-3.332 3.05,-3.336 3.05,-3.34 3.06,-3.339 3.07,-3.344 3.07,-3.344 3.08,-3.344 3.09,-3.347 3.1,-3.348 3.1,-3.351 3.11,-3.352 3.13,-3.352 3.12,-3.355 3.14,-3.356 3.15,-3.351 3.15,-3.356 3.17,-3.359 3.17,-3.355 3.18,-3.36 3.19,-3.355 3.2,-3.36 3.21,-3.359 3.22,-3.359 3.23,-3.36 3.24,-3.355 3.25,-3.36 3.26,-3.359 3.26,-3.355 3.28,-3.364 3.29,-3.355 3.3,-3.356 3.31,-3.355 3.32,-3.356 3.33,-3.355 3.34,-3.352 3.35,-3.351 3.37,-3.352 3.37,-3.347 3.39,-3.348 3.4,-3.348 3.41,-3.347 3.42,-3.34 3.43,-3.34 3.45,-3.34 3.46,-3.34 3.47,-3.336 3.49,-3.332 3.49,-3.328 3.51,-3.328 3.52,-3.324 3.54,-3.324 3.55,-3.321 3.57,-3.316 3.57,-3.313 3.59,-3.308 3.61,-3.309 3.62,-3.305 3.63,-3.3 3.65,-3.293 3.66,-3.293 3.68,-3.289 3.69,-3.285 3.71,-3.282 3.72,-3.273 3.74,-3.27 3.75,-3.269 3.77,-3.258 3.79,-3.258 3.8,-3.25 3.82,-3.246 3.84,-3.238 3.85,-3.235 3.87,-3.23 3.89,-3.223 3.9,-3.215 3.92,-3.21 3.94,-3.204 3.95,-3.199 3.98,-3.191 3.99,-3.18 4.01,-3.176 4.03,-3.168 4.05,-3.164 4.07,-3.152 4.08,-3.145 4.1,-3.132 4.13,-3.129 4.14,-3.121 4.17,-3.11 4.18,-3.101 4.2,-3.094 4.23,-3.078 4.24,-3.074 4.27,-3.063 4.28,-3.051 4.31,-3.043 4.33,-3.031 4.35,-3.019 4.37,-3.008 4.39,-2.996 4.41,-2.985 4.44,-2.972 4.45,-2.961 4.48,-2.95 4.51,-2.933 4.52,-2.922 4.55,-2.91 4.57,-2.891 4.59,-2.879 4.62,-2.867 4.64,-2.848 4.66,-2.836 4.68,-2.82 4.71,-2.801 4.73,-2.789 4.76,-2.773 4.78,-2.754 4.8,-2.738 4.83,-2.719 4.85,-2.699 4.88,-2.684 4.9,-2.664 4.92,-2.648 4.95,-2.625 4.97,-2.61 5,-2.586 5.02,-2.566 5.04,-2.543 5.07,-2.527 5.1,-2.5 5.12,-2.477 5.14,-2.461 5.17,-2.433 5.19,-2.415 5.22,-2.386 5.23,-2.364 5.27,-2.339 5.29,-2.313 5.31,-2.285 5.34,-2.262 5.36,-2.238 5.39,-2.211 5.41,-2.18 5.43,-2.156 5.45,-2.125 5.48,-2.098 5.5,-2.07 5.53,-2.039 5.55,-2.012 5.57,-1.98 5.59,-1.949 5.62,-1.918 5.64,-1.887 5.66,-1.856 5.68,-1.824 5.7,-1.789 5.72,-1.754 5.75,-1.726 5.76,-1.688 5.79,-1.652 5.8,-1.621 5.83,-1.586 5.84,-1.547 5.86,-1.516 5.88,-1.476 5.91,-1.438 5.91,-1.402 5.93,-1.367 5.96,-1.324 5.97,-1.29 5.98,-1.25 6,-1.21 6.02,-1.176 6.03,-1.133 6.04,-1.09 6.06,-1.051 6.08,-1.011 6.08,-0.973 6.1,-0.93 6.11,-0.886 6.12,-0.848 6.13,-0.805 6.14,-0.762 6.16,-0.718 6.16,-0.68 6.17,-0.633 6.18,-0.594 6.19,-0.55 6.19,-0.504 6.2,-0.465 6.2,-0.414 6.21,-0.375 6.22,-0.332 6.22,-0.289 6.22,-0.242 6.23,-0.2 6.23,-0.152 6.23,-0.113 6.24,-0.067 6.23,-0.023 6.23,0.023 6.23,0.067 6.24,0.113 6.23,0.152 6.22,0.2 6.23,0.242 6.21,0.285 6.22,0.336 6.21,0.375 6.21,0.414 6.2,0.465 6.19,0.504 6.19,0.55 6.18,0.594 6.17,0.633 6.16,0.68 6.15,0.718 6.14,0.762 6.14,0.805 6.12,0.848 6.11,0.886 6.1,0.93 6.08,0.973 6.07,1.007 6.06,1.055 6.05,1.09 6.03,1.133 6.01,1.176 6,1.207 5.99,1.25 5.97,1.293 5.95,1.324 5.94,1.367 5.91,1.402 5.9,1.438 5.88,1.476 5.87,1.512 5.84,1.551 5.82,1.586 5.81,1.621 5.78,1.652 5.77,1.688 5.75,1.722 5.72,1.758 5.7,1.789 5.68,1.824 5.66,1.856 5.64,1.887 5.61,1.918 5.6,1.949 5.57,1.98 5.55,2.012 5.52,2.039 5.51,2.07 5.47,2.098 5.46,2.125 5.43,2.152 5.41,2.184 5.39,2.211 5.36,2.234 5.34,2.262 5.31,2.289 5.29,2.313 5.26,2.339 5.24,2.364 5.22,2.386 5.19,2.411 5.17,2.437 5.14,2.457 5.12,2.481 5.09,2.5 5.07,2.527 5.05,2.543 5.02,2.566 5,2.586 4.97,2.606 4.95,2.629 4.92,2.644 4.9,2.664 4.88,2.688 4.85,2.699 4.83,2.719 4.8,2.738 4.78,2.754 4.75,2.769 4.74,2.789 4.71,2.805 4.68,2.82 4.66,2.836 4.64,2.848 4.61,2.867 4.6,2.875 4.57,2.895 4.54,2.91 4.53,2.922 4.5,2.933 4.48,2.946 4.46,2.961 4.43,2.976 4.42,2.981 4.39,2.996 4.37,3.008 4.35,3.023 4.33,3.031 4.3,3.039 4.29,3.055 4.26,3.063 4.25,3.07 4.22,3.082 4.21,3.094 4.18,3.097 4.16,3.114 4.15,3.117 4.12,3.129 4.11,3.136 4.08,3.145 4.07,3.152 4.05,3.16 4.03,3.168 4.01,3.18 3.99,3.18 3.98,3.191 3.95,3.199 3.94,3.2 3.92,3.211 3.9,3.218 3.89,3.223 3.87,3.227 3.85,3.234 3.84,3.242 3.82,3.242 3.8,3.254 3.78,3.254 3.78,3.262 3.75,3.265 3.74,3.274 3.72,3.273 3.71,3.282 3.69,3.281 3.68,3.293 3.66,3.289 3.65,3.297 3.63,3.3 3.62,3.301 3.61,3.309 3.59,3.308 3.57,3.317 3.57,3.316 3.54,3.321 3.54,3.32 3.53,3.324 3.5,3.328 3.5,3.332 3.48,3.332 3.48,3.336 3.45,3.34 3.45,3.336 3.44,3.344 3.42,3.34 3.41,3.347 3.4,3.344 3.38,3.352 3.38,3.347 3.37,3.352 3.35,3.347 3.34,3.356 3.33,3.355 3.32,3.352 3.31,3.355 3.3,3.36 3.29,3.355 3.28,3.36 3.26,3.355 3.26,3.363 3.25,3.356 3.24,3.359 3.22,3.36 3.23,3.359 3.2,3.355 3.2,3.36 3.19,3.359 3.19,3.36 3.17,3.355 3.16,3.356 3.16,3.359 3.15,3.351 3.14,3.356 3.12,3.355 3.13,3.352 3.11,3.348 3.1,3.351 3.1,3.352 3.09,3.343 3.08,3.348 3.07,3.344 3.07,3.34 3.06,3.343 3.05,3.336 3.04,3.34 3.04,3.332 3.03,3.336 3.02,3.328 3.01,3.328 3.01,3.325 3,3.324 3,3.32 2.99,3.321 2.98,3.312 2.97,3.313 2.97,3.308 2.96,3.309 2.96,3.301 2.95,3.3 2.94,3.293 2.94,3.293 2.93,3.289 2.92,3.285 2.93,3.286 2.91,3.277 2.91,3.273 2.9,3.27 2.9,3.266 2.89,3.261 2.88,3.254 2.88,3.254 2.88,3.246 2.87,3.242 2.87,3.239 2.86,3.23 2.85,3.231 2.85,3.222 2.84,3.215 2.84,3.215 2.84,3.203 2.83,3.199 2.82,3.196 2.82,3.191 2.82,3.184 2.81,3.171 2.81,3.172 2.8,3.164 2.8,3.157 2.79,3.148 2.79,3.145 2.78,3.136 2.78,3.129 2.77,3.121 2.78,3.114 2.76,3.105 2.77,3.102 2.75,3.089 2.76,3.083 2.75,3.074 2.74,3.068 2.74,3.06 2.74,3.04 2.73,3.05 2.73,3.02 2.73,3.03 2.72,3.01 2.71,3 2.71,2.99 2.71,2.99 2.7,2.97 2.7,2.96 2.7,2.95 2.69,2.94 2.69,2.93 2.68,2.92 2.67,2.9 2.68,2.9 2.67,2.88 2.66,2.87 2.66,2.86 2.66,2.85 2.65,2.83 2.65,2.82 2.64,2.8 2.64,2.8 2.63,2.77 2.63,2.76 2.62,2.75 2.62,2.74 2.61,2.72 2.61,2.7 2.6,2.69 2.59,2.67 2.6,2.65 2.58,2.64 2.58,2.62 2.58,2.6 2.56,2.58 2.56,2.57 2.56,2.55 2.54,2.52 2.54,2.51 2.53,2.49 2.53,2.47 2.52,2.44 2.51,2.43 2.5,2.4 2.49,2.37 2.48,2.36 2.48,2.33 2.46,2.31 2.46,2.28 2.44,2.26 2.43,2.23 2.42,2.19 2.4,2.18 2.4,2.15 2.38,2.11 2.37,2.08 2.35,2.06 2.33,2.01 2.32,1.99 2.3,1.95 2.28,1.92 2.26,1.88 2.24,1.84 2.22,1.8 2.19,1.76 2.16,1.72 2.14,1.67 2.1,1.63 2.07,1.57 2.04,1.53 1.99,1.47 1.95,1.41 1.91,1.36 1.84,1.29 1.79,1.23 1.71,1.14 1.64,1.07 1.54,0.98 1.42,0.88 1.27,0.75 1.04,0.59 0.27,0.15 -0.97,-0.46 -1.29,-0.56 -1.51,-0.63 -1.68,-0.66 -1.82,-0.68 -1.95,-0.68 -2.07,-0.68 -2.16,-0.68 -2.26,-0.66 -2.34,-0.65 -2.42,-0.63 -2.49,-0.6 -2.56,-0.58 -2.61,-0.55 -2.67,-0.52 -2.72,-0.48 -2.76,-0.45 -2.81,-0.41 -2.84,-0.38 -2.87,-0.33 -2.91,-0.3 -2.92,-0.26 -2.95,-0.21 -2.97,-0.16 -2.97,-0.13 -2.99,-0.08 -2.99,-0.04 -2.99,0.01 -2.99,0.06 -2.98,0.09 -2.97,0.14 -2.96,0.18 -2.95,0.23 -2.91,0.27 -2.9,0.3 -2.86,0.36 -2.83,0.38 -2.79,0.43 -2.75,0.46 -2.71,0.5 -2.64,0.53 -2.6,0.56 -2.53,0.59 -2.47,0.61 -2.39,0.63 -2.31,0.65 -2.23,0.68 -2.13,0.68 -2.03,0.68 -1.91,0.68 -1.77,0.67 -1.63,0.65 -1.43,0.61 -1.2,0.54 -0.77,0.37 0.75,-0.41 1.13,-0.65 1.32,-0.8 1.47,-0.91 1.57,-1.01 1.66,-1.1 1.75,-1.17 1.8,-1.24 1.87,-1.32 1.92,-1.38 1.96,-1.43 2.01,-1.49 2.05,-1.54 2.08,-1.59 2.11,-1.64 2.15,-1.69 2.17,-1.73 2.2,-1.78 2.23,-1.81 2.24,-1.85 2.27,-1.89 2.29,-1.93 2.3,-1.97 2.33,-2 2.34,-2.02 2.35,-2.07 2.38,-2.09 2.38,-2.13 2.4,-2.15 2.41,-2.18 2.42,-2.21 2.44,-2.24 2.45,-2.26 2.45,-2.29 2.47,-2.32 2.48,-2.34 2.48,-2.36 2.5,-2.39 2.5,-2.41 2.51,-2.43 2.52,-2.45 2.53,-2.47 2.53,-2.5 2.55,-2.51 2.55,-2.53 2.55,-2.56 2.56,-2.57 2.57,-2.59 2.58,-2.61 2.58,-2.62 2.59,-2.65 2.59,-2.66 2.6,-2.67 2.6,-2.7 2.61,-2.7 2.62,-2.73 2.61,-2.74 2.63,-2.75 2.63,-2.77 2.63,-2.78 2.64,-2.8 2.65,-2.81 2.64,-2.82 2.66,-2.84 2.66,-2.85 2.66,-2.86 2.66,-2.87 2.67,-2.89 2.68,-2.9 2.68,-2.91 2.68,-2.92 2.69,-2.93 2.69,-2.95 2.7,-2.95 2.7,-2.97 2.7,-2.97 2.71,-2.99 2.71,-3 2.72,-3 2.73,-3.01 2.72,-3.03 2.73,-3.03 2.73,-3.05 2.74,-3.05 2.74,-3.06 2.75,-3.066 2.75,-3.078 2.76,-3.082 2.76,-3.098 2.76,-3.098 2.77,-3.109 2.77,-3.117 2.78,-3.125 2.78,-3.133 2.78,-3.137 2.79,-3.144 2.8,-3.153 2.8,-3.16 2.8,-3.164 2.81,-3.172 2.81,-3.179 2.81,-3.184 2.83,-3.191 2.83,-3.196 2.83,-3.203 2.83,-3.207"
             style="fill:none;stroke:#d4d4d4;stroke-width:10.5;stroke-linecap:square;stroke-linejoin:miter;stroke-miterlimit:5;stroke-dasharray:none;stroke-opacity:1"
             id="path24" />
          <path
             d="m 1614,935.074 0.59,0.672 0.6,0.676 0.59,0.672 0.6,0.672 0.59,0.672 0.6,0.671 0.59,0.672 0.59,0.676 0.6,0.672 0.59,0.672 0.6,0.672 0.59,0.672 0.6,0.671 0.59,0.672 0.59,0.668 0.6,0.676 0.59,0.668 0.6,0.672 0.59,0.672 0.59,0.668 0.6,0.672 0.59,0.671 0.59,0.668 0.59,0.672 0.6,0.668 0.59,0.672 0.59,0.672 0.6,0.664 0.59,0.672 0.59,0.668 0.59,0.668 0.59,0.672 0.6,0.668 0.59,0.668 0.59,0.668 0.59,0.672 0.59,0.668 0.6,0.664 0.59,0.668 0.59,0.668 0.59,0.668 0.59,0.667 0.59,0.668 0.59,0.668 0.59,0.668 0.59,0.664 0.6,0.668 0.59,0.668 0.59,0.664 0.59,0.665 0.59,0.667 0.59,0.665 0.59,0.664 0.59,0.668 0.59,0.664 0.59,0.664 0.59,0.664 0.59,0.668 0.59,0.664 0.59,0.664 0.59,0.664 0.59,0.664 0.59,0.664 0.59,0.66 0.59,0.664 0.59,0.664 0.59,0.664 0.59,0.661 0.59,0.664 0.59,0.66 0.58,0.664 0.59,0.664 0.59,0.66 0.59,0.66 0.59,0.664 0.59,0.66 0.59,0.661 0.59,0.66 0.58,0.66 0.59,0.66 0.59,0.66 0.59,0.66 0.59,0.661 0.59,0.66 0.59,0.656 0.59,0.66 0.58,0.66 0.59,0.66 0.59,0.657 0.59,0.656 0.59,0.66 0.58,0.656 0.59,0.66 0.59,0.657 0.58,0.656 0.59,0.656 0.59,0.656 0.59,0.652 0.59,0.66 0.58,0.66 0.59,0.65 0.59,0.66 0.58,0.65 0.59,0.66 0.59,0.65 0.59,0.66 0.58,0.65 0.59,0.66 0.59,0.65 0.58,0.65 0.59,0.66 0.59,0.65 0.58,0.65 0.59,0.65 0.59,0.66 0.59,0.65 0.58,0.65 0.59,0.65 0.58,0.65 0.59,0.65 0.59,0.65 0.58,0.65 0.59,0.66 0.58,0.65 0.59,0.64 0.59,0.65 0.59,0.65 0.58,0.65 0.59,0.65 0.58,0.65 0.59,0.64 0.59,0.65 0.58,0.65 0.59,0.65 0.58,0.64 0.59,0.65 0.59,0.65 0.58,0.64 0.58,0.65 0.59,0.64 0.59,0.65 0.58,0.64 0.59,0.65 0.58,0.64 0.59,0.64 0.58,0.65 0.59,0.64 0.59,0.65 0.58,0.64 0.58,0.64 0.59,0.64 0.59,0.64 0.58,0.64 0.59,0.64 0.58,0.65 0.59,0.64 0.58,0.64 0.59,0.64 0.58,0.63 0.59,0.64 0.58,0.64 0.59,0.64 0.58,0.64 0.59,0.64 0.58,0.64 0.59,0.63 0.58,0.64 0.59,0.64 0.58,0.63 0.59,0.64 0.58,0.63 0.59,0.64 0.58,0.63 0.59,0.64 0.58,0.63 0.59,0.63 0.58,0.64 0.58,0.63 0.59,0.63 0.59,0.64 0.58,0.63 0.58,0.63 0.59,0.63 0.58,0.63 0.59,0.63 0.58,0.63 0.59,0.63 0.58,0.63 0.58,0.63 0.59,0.63 0.59,0.62 0.58,0.63 0.59,0.63 0.58,0.62 0.58,0.63 0.59,0.63 0.58,0.62 0.58,0.63 0.59,0.62 0.59,0.63 0.58,0.62 0.58,0.62 0.59,0.63 0.58,0.62 0.59,0.62 0.58,0.63 0.59,0.61 0.58,0.63 0.58,0.62 0.59,0.62 0.58,0.62 0.59,0.62 0.58,0.62 0.59,0.61 0.58,0.62 0.58,0.62 0.59,0.61 0.58,0.62 0.58,0.62 0.59,0.62 0.59,0.61 0.58,0.62 0.58,0.61 0.59,0.61 0.58,0.62 0.58,0.61 0.59,0.61 0.58,0.61 0.59,0.62 0.58,0.61 0.59,0.6 0.58,0.61 0.58,0.61 0.59,0.62 0.58,0.6 0.59,0.61 0.58,0.61 0.59,0.61 0.58,0.6 0.58,0.61 0.59,0.6 0.58,0.61 0.58,0.6 0.59,0.61 0.58,0.6 0.59,0.6 0.58,0.6 0.59,0.61 0.58,0.6 0.58,0.6 0.59,0.6 0.58,0.6 0.58,0.6 0.59,0.6 0.58,0.59 0.59,0.6 0.58,0.6 0.59,0.59 0.58,0.6 0.58,0.59 0.59,0.6 0.58,0.59 0.58,0.6 0.59,0.59 0.58,0.59 0.59,0.59 0.58,0.59 0.59,0.59 0.58,0.59 0.58,0.59 0.59,0.59 0.58,0.58 0.58,0.59 0.59,0.59 0.58,0.59 0.58,0.58 0.59,0.58 0.58,0.59 0.59,0.58 0.58,0.58 0.59,0.59 0.58,0.58 0.58,0.58 0.59,0.58 0.58,0.58 0.58,0.58 0.59,0.57 0.58,0.58 0.58,0.58 0.59,0.57 0.58,0.58 0.58,0.57 0.59,0.58 0.58,0.57 0.58,0.57 0.59,0.57 0.58,0.57 0.59,0.57 0.58,0.57 0.58,0.57 0.59,0.57 0.58,0.57 0.58,0.56 0.59,0.56 0.58,0.57 0.58,0.57 0.58,0.56 0.59,0.56 0.58,0.56 0.58,0.56 0.59,0.56 0.58,0.56 0.58,0.56 0.59,0.55 0.58,0.56 0.58,0.56 0.59,0.55 0.58,0.56 0.58,0.55 0.59,0.55 0.58,0.55 0.58,0.55 0.58,0.55 0.58,0.55 0.59,0.55 0.58,0.54 0.58,0.55 0.58,0.55 0.58,0.54 0.59,0.54 0.58,0.55 0.58,0.54 0.58,0.54 3.82,-3.2 5.45,-5.14 5.44,-5.21 5.46,-5.28 5.45,-5.35 5.45,-5.41 5.46,-5.46 5.45,-5.52 5.46,-5.58 5.46,-5.62 5.45,-5.66 5.46,-5.72 5.46,-5.75 5.46,-5.79 5.46,-5.83 5.46,-5.86 5.47,-5.9 5.46,-5.93 5.47,-5.96 5.47,-5.98 5.47,-6.02 5.47,-6.04 5.48,-6.06 5.48,-6.09 5.48,-6.11 5.5,-6.136 5.49,-6.153 5.5,-6.168 5.51,-6.187 5.5,-6.207 5.52,-6.219 5.53,-6.234 5.53,-6.25 5.54,-6.262 5.55,-6.273 5.56,-6.286 5.57,-6.296 5.58,-6.305 5.58,-6.32 5.6,-6.321 5.61,-6.332 5.63,-6.34 5.63,-6.343 5.64,-6.352 5.67,-6.351 5.67,-6.364 5.69,-6.359 5.7,-6.367 5.72,-6.367 5.74,-6.372 5.75,-6.367 5.77,-6.375 5.79,-6.367 5.81,-6.371 5.82,-6.367 5.85,-6.367 5.86,-6.364 5.89,-6.359 5.9,-6.356 5.93,-6.351 5.95,-6.348 5.98,-6.34 5.99,-6.336 6.03,-6.324 6.05,-6.32 6.07,-6.313 6.1,-6.3 6.12,-6.293 6.16,-6.282 6.18,-6.269 6.21,-6.262 6.24,-6.246 6.27,-6.234 6.3,-6.223 6.33,-6.203 6.37,-6.195 6.4,-6.172 6.43,-6.16 6.47,-6.145 6.5,-6.125 6.54,-6.105 6.57,-6.086 6.61,-6.067 6.65,-6.043 6.69,-6.023 6.72,-6 6.77,-5.977 6.81,-5.953 6.84,-5.926 6.89,-5.898 6.93,-5.875 6.98,-5.848 7.02,-5.812 7.06,-5.785 7.12,-5.758 7.15,-5.719 7.2,-5.691 7.25,-5.657 7.3,-5.621 7.35,-5.582 7.39,-5.543 7.45,-5.508 7.49,-5.468 7.55,-5.426 7.59,-5.383 7.65,-5.34 7.7,-5.297 7.75,-5.246 7.81,-5.203 7.86,-5.152 7.91,-5.102 7.97,-5.05 8.02,-5 8.08,-4.942 8.12,-4.891 8.19,-4.832 8.24,-4.769 8.3,-4.715 8.35,-4.648 8.41,-4.59 8.46,-4.52 8.52,-4.457 8.57,-4.39 8.63,-4.321 8.69,-4.25 8.73,-4.172 8.8,-4.105 8.84,-4.027 8.9,-3.95 8.96,-3.871 9,-3.789 9.06,-3.711 9.11,-3.625 9.16,-3.539 9.21,-3.457 9.27,-3.363 9.3,-3.277 9.36,-3.188 9.4,-3.09 9.45,-3 9.49,-2.906 9.54,-2.809 9.58,-2.707 9.62,-2.609 9.66,-2.512 9.7,-2.406 9.73,-2.305 9.77,-2.199 9.81,-2.094 9.84,-1.988 9.87,-1.879 9.89,-1.769 9.93,-1.664 9.95,-1.551 9.98,-1.438 10,-1.328 10.02,-1.211 10.05,-1.105 10.05,-0.985 10.08,-0.871 10.08,-0.758 10.1,-0.64 10.11,-0.524 10.12,-0.41 10.12,-0.293 10.12,-0.172 10.13,-0.062 10.13,0.062 10.12,0.172 10.13,0.293 10.11,0.41 10.11,0.524 10.1,0.64 10.09,0.758 10.07,0.871 10.05,0.985 10.05,1.105 10.02,1.211 10,1.328 9.97,1.438 9.96,1.551 9.93,1.664 9.89,1.769 9.87,1.879 9.84,1.988 9.81,2.094 9.77,2.203 9.73,2.301 9.7,2.406 9.66,2.512 9.62,2.609 9.58,2.707 9.54,2.809 9.49,2.906 9.45,3 9.4,3.09 9.36,3.188 9.31,3.277 9.25,3.367 9.22,3.453 9.16,3.539 9.11,3.625 9.06,3.711 9,3.789 8.95,3.871 8.91,3.95 8.84,4.027 8.8,4.105 8.73,4.172 8.69,4.25 8.62,4.321 8.58,4.39 8.52,4.457 8.46,4.52 8.41,4.59 8.35,4.648 8.3,4.715 8.24,4.769 8.18,4.836 8.14,4.887 8.07,4.945 8.02,4.997 7.97,5.05 7.91,5.102 7.86,5.152 7.81,5.203 7.75,5.25 7.7,5.293 7.65,5.344 7.6,5.379 7.54,5.426 7.49,5.468 7.45,5.508 7.39,5.543 7.35,5.582 7.3,5.621 7.25,5.657 7.2,5.691 7.15,5.719 7.11,5.758 7.07,5.785 7.02,5.816 6.98,5.844 6.93,5.875 6.89,5.898 6.84,5.93 6.81,5.949 6.77,5.977 6.72,6 6.69,6.023 6.65,6.043 6.61,6.071 6.57,6.082 6.54,6.105 6.5,6.125 6.47,6.145 6.43,6.16 6.4,6.172 6.36,6.195 6.34,6.203 6.3,6.223 6.27,6.234 6.24,6.25 6.21,6.258 6.18,6.269 6.16,6.286 6.12,6.293 6.1,6.296 6.08,6.313 6.04,6.32 6.03,6.324 5.99,6.336 5.98,6.34 5.95,6.348 5.93,6.351 5.9,6.356 5.89,6.359 5.86,6.364 5.85,6.367 5.82,6.367 5.81,6.371 5.79,6.367 5.77,6.375 5.75,6.367 5.73,6.372 5.73,6.367 5.7,6.367 5.69,6.359 5.67,6.364 5.67,6.351 5.64,6.352 5.63,6.343 5.63,6.34 5.61,6.332 5.6,6.325 5.59,6.316 5.57,6.305 5.57,6.296 5.56,6.286 5.55,6.273 5.54,6.262 5.53,6.25 5.52,6.238 5.52,6.219 5.51,6.203 5.51,6.187 5.5,6.172 5.49,6.149 5.5,6.136 5.48,6.11 5.48,6.09 5.48,6.06 5.47,6.04 5.47,6.02 5.47,5.99 5.47,5.95 5.46,5.93 5.47,5.9 5.46,5.86 5.46,5.83 5.46,5.79 5.46,5.75 5.45,5.72 5.46,5.66 5.46,5.62 5.46,5.58 5.45,5.52 5.46,5.46 5.45,5.41 5.46,5.35 5.44,5.28 5.45,5.21 5.45,5.14 3.82,3.2 0.58,-0.54 0.58,-0.55 0.58,-0.54 0.58,-0.54 0.59,-0.54 0.58,-0.55 0.58,-0.55 0.58,-0.54 0.58,-0.55 0.59,-0.55 0.58,-0.55 0.58,-0.55 0.59,-0.55 0.58,-0.55 0.58,-0.55 0.58,-0.56 0.58,-0.55 0.59,-0.56 0.58,-0.56 0.58,-0.55 0.59,-0.56 0.58,-0.56 0.58,-0.56 0.59,-0.56 0.58,-0.56 0.58,-0.56 0.59,-0.57 0.58,-0.56 0.58,-0.57 0.59,-0.56 0.58,-0.57 0.58,-0.56 0.59,-0.57 0.58,-0.57 0.58,-0.57 0.59,-0.57 0.58,-0.57 0.58,-0.57 0.59,-0.57 0.58,-0.57 0.58,-0.58 0.59,-0.57 0.58,-0.58 0.58,-0.57 0.59,-0.58 0.58,-0.58 0.58,-0.57 0.59,-0.58 0.58,-0.58 0.59,-0.58 0.58,-0.58 0.59,-0.58 0.58,-0.59 0.58,-0.58 0.59,-0.58 0.58,-0.59 0.58,-0.58 0.59,-0.58 0.58,-0.59 0.58,-0.59 0.59,-0.59 0.58,-0.58 0.59,-0.59 0.58,-0.59 0.59,-0.59 0.58,-0.59 0.58,-0.59 0.59,-0.59 0.58,-0.59 0.58,-0.6 0.59,-0.59 0.58,-0.59 0.58,-0.6 0.59,-0.59 0.59,-0.6 0.58,-0.59 0.58,-0.6 0.59,-0.6 0.58,-0.59 0.59,-0.6 0.58,-0.6 0.58,-0.6 0.59,-0.6 0.58,-0.6 0.59,-0.6 0.58,-0.61 0.58,-0.6 0.59,-0.6 0.58,-0.6 0.59,-0.61 0.58,-0.6 0.58,-0.61 0.59,-0.6 0.58,-0.61 0.59,-0.6 0.58,-0.61 0.58,-0.61 0.59,-0.61 0.58,-0.61 0.59,-0.61 0.58,-0.61 0.58,-0.61 0.59,-0.6 0.58,-0.61 0.58,-0.62 0.59,-0.61 0.59,-0.61 0.58,-0.61 0.58,-0.62 0.59,-0.61 0.58,-0.61 0.58,-0.62 0.59,-0.61 0.58,-0.62 0.59,-0.62 0.58,-0.62 0.59,-0.61 0.58,-0.62 0.58,-0.62 0.59,-0.61 0.58,-0.63 0.59,-0.61 0.58,-0.62 0.59,-0.62 0.58,-0.62 0.58,-0.63 0.59,-0.61 0.58,-0.63 0.59,-0.62 0.58,-0.62 0.59,-0.63 0.58,-0.62 0.58,-0.62 0.59,-0.63 0.58,-0.62 0.59,-0.63 0.58,-0.62 0.59,-0.63 0.58,-0.63 0.58,-0.62 0.59,-0.63 0.59,-0.63 0.58,-0.62 0.58,-0.63 0.59,-0.63 0.58,-0.63 0.59,-0.63 0.58,-0.63 0.59,-0.63 0.58,-0.63 0.58,-0.63 0.59,-0.64 0.59,-0.62 0.58,-0.64 0.58,-0.63 0.59,-0.63 0.58,-0.64 0.59,-0.63 0.58,-0.64 0.59,-0.63 0.58,-0.63 0.59,-0.64 0.58,-0.63 0.59,-0.64 0.58,-0.63 0.59,-0.64 0.58,-0.64 0.59,-0.63 0.58,-0.64 0.59,-0.64 0.58,-0.64 0.59,-0.64 0.58,-0.64 0.59,-0.64 0.58,-0.63 0.59,-0.64 0.58,-0.64 0.59,-0.64 0.58,-0.65 0.59,-0.64 0.58,-0.64 0.59,-0.64 0.58,-0.64 0.59,-0.64 0.58,-0.64 0.59,-0.65 0.59,-0.64 0.58,-0.65 0.58,-0.64 0.59,-0.64 0.59,-0.65 0.58,-0.64 0.59,-0.65 0.58,-0.64 0.59,-0.65 0.59,-0.64 0.58,-0.65 0.59,-0.65 0.58,-0.64 0.59,-0.65 0.59,-0.65 0.58,-0.65 0.59,-0.64 0.58,-0.65 0.59,-0.65 0.59,-0.65 0.58,-0.65 0.59,-0.65 0.58,-0.64 0.59,-0.65 0.58,-0.66 0.59,-0.65 0.59,-0.65 0.59,-0.65 0.58,-0.65 0.59,-0.65 0.58,-0.65 0.59,-0.65 0.59,-0.66 0.59,-0.65 0.58,-0.65 0.59,-0.65 0.58,-0.66 0.59,-0.65 0.59,-0.65 0.59,-0.66 0.58,-0.65 0.59,-0.66 0.59,-0.65 0.59,-0.66 0.58,-0.65 0.59,-0.66 0.59,-0.65 0.58,-0.66 0.59,-0.66 0.59,-0.652 0.59,-0.656 0.58,-0.656 0.59,-0.66 0.59,-0.653 0.59,-0.66 0.58,-0.656 0.59,-0.66 0.59,-0.656 0.59,-0.657 0.59,-0.66 0.59,-0.66 0.58,-0.66 0.59,-0.656 0.59,-0.66 0.59,-0.661 0.59,-0.66 0.59,-0.66 0.58,-0.66 0.59,-0.66 0.59,-0.66 0.59,-0.661 0.59,-0.66 0.59,-0.664 0.58,-0.66 0.59,-0.66 0.59,-0.664 0.59,-0.664 0.59,-0.66 0.59,-0.664 0.59,-0.661 0.59,-0.664 0.59,-0.664 0.59,-0.664 0.59,-0.66 0.59,-0.664 0.59,-0.664 0.59,-0.664 0.59,-0.664 0.59,-0.664 0.59,-0.668 0.59,-0.664 0.59,-0.664 0.59,-0.664 0.59,-0.668 0.59,-0.664 0.59,-0.665 0.59,-0.667 0.59,-0.665 0.59,-0.664 0.59,-0.668 0.59,-0.668 0.59,-0.664 0.6,-0.668 0.59,-0.668 0.59,-0.668 0.59,-0.667 0.59,-0.668 0.59,-0.668 0.59,-0.668 0.59,-0.664 0.6,-0.668 0.59,-0.672 0.59,-0.668 0.59,-0.668 0.59,-0.668 0.6,-0.672 0.59,-0.668 0.59,-0.668 0.6,-0.672 0.59,-0.668 0.59,-0.668 0.59,-0.672 0.6,-0.668 0.59,-0.672 0.59,-0.668 0.59,-0.671 0.6,-0.672 0.59,-0.668 0.6,-0.672 0.59,-0.672 0.59,-0.668 0.6,-0.676 0.59,-0.668 0.59,-0.672 0.6,-0.671 0.59,-0.672 0.6,-0.672 0.59,-0.672 0.59,-0.672 0.6,-0.676 0.59,-0.672 0.6,-0.671 0.59,-0.672 0.6,-0.672 0.59,-0.672 0.6,-0.676 0.59,-0.672"
             style="fill:none;stroke:#007fff;stroke-width:10.5;stroke-linecap:square;stroke-linejoin:miter;stroke-miterlimit:5;stroke-dasharray:none;stroke-opacity:1"
             id="path26" />
          <path
             d="m 804.895,1650.48 3.406,3.84 3.41,3.86 3.418,3.87 3.426,3.87 3.433,3.88 3.442,3.89 3.449,3.89 3.457,3.9 3.465,3.91 3.472,3.91 3.481,3.92 3.484,3.93 3.496,3.93 3.504,3.93 3.516,3.94 3.519,3.95 3.532,3.95 3.539,3.96 3.547,3.96 3.558,3.96 3.567,3.97 3.578,3.98 3.586,3.97 3.593,3.98 3.606,3.99 3.617,3.99 3.625,3.99 3.633,3.99 3.644,4 3.661,4 3.668,4 3.675,4.01 3.688,4.01 3.699,4.01 3.715,4.01 3.723,4.01 3.734,4.02 3.746,4.01 3.762,4.02 3.769,4.02 3.782,4.02 3.796,4.02 3.813,4.02 3.82,4.03 3.836,4.02 3.848,4.02 3.863,4.03 3.875,4.02 3.891,4.02 3.902,4.03 3.922,4.02 3.93,4.02 3.953,4.02 3.961,4.02 3.98,4.03 4,4.01 4,4.02 4.03,4.01 4.04,4.02 4.06,4.01 4.08,4.01 4.09,4 4.11,4 4.13,4.01 4.14,3.99 4.17,4 4.18,3.99 4.2,3.99 4.22,3.98 4.23,3.98 4.26,3.98 4.28,3.97 4.3,3.96 4.31,3.97 4.34,3.95 4.35,3.96 4.38,3.94 4.4,3.94 4.43,3.94 4.44,3.93 4.46,3.92 4.49,3.92 4.51,3.9 4.53,3.9 4.56,3.9 4.58,3.89 4.6,3.87 4.63,3.88 4.65,3.85 4.68,3.86 4.7,3.84 4.73,3.84 4.75,3.82 4.78,3.82 4.81,3.8 4.83,3.79 4.86,3.79 4.89,3.77 4.91,3.76 4.94,3.74 4.97,3.74 5,3.72 5.03,3.71 5.05,3.69 5.09,3.68 5.11,3.67 5.15,3.65 5.17,3.63 5.21,3.63 5.23,3.6 5.27,3.59 5.3,3.57 5.33,3.55 5.36,3.53 5.39,3.52 5.43,3.5 5.46,3.47 5.48,3.46 5.53,3.44 5.56,3.41 5.59,3.39 5.62,3.37 5.66,3.35 5.69,3.32 5.72,3.3 5.76,3.28 5.8,3.25 5.82,3.22 5.87,3.2 5.9,3.17 5.93,3.15 5.96,3.11 6.01,3.09 6.03,3.05 6.08,3.02 6.11,3 6.14,2.96 6.17,2.93 6.22,2.89 6.24,2.86 6.29,2.83 6.31,2.79 6.35,2.76 6.39,2.72 6.42,2.68 6.46,2.64 6.48,2.6 6.53,2.57 6.56,2.52 6.59,2.48 6.62,2.44 6.65,2.4 6.69,2.35 6.72,2.31 6.75,2.26 6.78,2.22 6.82,2.17 6.84,2.12 6.88,2.08 6.9,2.03 6.94,1.98 6.96,1.93 6.99,1.87 7.01,1.83 7.05,1.77 7.07,1.72 7.09,1.67 7.12,1.61 7.15,1.56 7.16,1.5 7.19,1.45 7.22,1.39 7.23,1.33 7.25,1.28 7.27,1.22 7.29,1.16 7.32,1.1 7.32,1.04 7.34,0.98 7.36,0.92 7.37,0.86 7.38,0.79 7.4,0.74 7.41,0.68 7.42,0.61 7.43,0.55 7.43,0.49 7.45,0.43 7.45,0.36 7.45,0.3 7.46,0.23 7.47,0.18 7.46,0.11 7.47,0.04 7.47,-0.02 7.46,-0.08 7.46,-0.14 7.47,-0.21 7.46,-0.27 7.45,-0.34 7.45,-0.39 7.44,-0.46 7.43,-0.53 7.42,-0.58 7.41,-0.65 7.4,-0.71 7.4,-0.77 7.37,-0.84 7.36,-0.89 7.35,-0.95 7.34,-1.02 7.31,-1.07 7.3,-1.14 7.28,-1.19 7.26,-1.25 7.25,-1.31 7.22,-1.36 7.2,-1.42 7.18,-1.49 7.15,-1.53 7.13,-1.59 7.1,-1.64 7.09,-1.7 7.05,-1.75 7.03,-1.8 7,-1.86 6.97,-1.9 6.95,-1.96 6.92,-2 6.88,-2.06 6.86,-2.1 6.83,-2.15 6.8,-2.2 6.76,-2.24 6.74,-2.29 6.7,-2.33 6.67,-2.38 6.64,-2.42 6.6,-2.47 6.57,-2.5 6.54,-2.55 6.5,-2.58 6.47,-2.63 6.44,-2.66 6.4,-2.7 6.37,-2.74 6.33,-2.78 6.3,-2.81 6.26,-2.85 6.23,-2.88 6.19,-2.91 6.16,-2.95 6.12,-2.98 6.09,-3.01 6.05,-3.04 6.02,-3.07 5.98,-3.11 5.95,-3.13 5.91,-3.15 5.88,-3.19 5.84,-3.21 5.81,-3.24 5.78,-3.26 5.74,-3.29 5.7,-3.32 5.68,-3.34 5.63,-3.35 5.61,-3.39 5.57,-3.4 5.54,-3.43 5.5,-3.45 5.47,-3.47 5.45,-3.49 5.4,-3.5 5.38,-3.53 5.34,-3.54 5.31,-3.57 5.29,-3.57 5.24,-3.6 5.22,-3.61 5.19,-3.63 5.16,-3.65 5.13,-3.66 5.09,-3.67 5.07,-3.69 5.04,-3.7 5.01,-3.72 4.99,-3.72 4.95,-3.75 4.92,-3.75 4.9,-3.77 4.87,-3.78 4.85,-3.78 4.81,-3.8 4.79,-3.81 4.77,-3.82 4.74,-3.83 4.71,-3.84 4.69,-3.85 4.66,-3.86 4.64,-3.87 4.62,-3.87 4.59,-3.88 4.56,-3.9 4.55,-3.89 4.52,-3.91 4.5,-3.91 4.47,-3.92 4.45,-3.93 4.43,-3.93 4.41,-3.94 4.39,-3.94 4.37,-3.95 4.34,-3.96 4.33,-3.96 4.3,-3.96 4.29,-3.97 4.26,-3.97 4.25,-3.98 4.23,-3.98 4.21,-3.99 4.18,-3.99 4.18,-3.99 4.15,-4 4.13,-4 4.12,-4 4.1,-4.01 4.09,-4 4.06,-4.01 4.05,-4.01 4.03,-4.02 4.02,-4.02 4,-4.01 3.99,-4.02 3.97,-4.02 3.95,-4.02 3.95,-4.02 3.92,-4.02 3.91,-4.03 3.9,-4.02 3.88,-4.02 3.87,-4.03 3.85,-4.02 3.84,-4.03 3.83,-4.02 3.82,-4.02 3.8,-4.02 3.79,-4.02 3.78,-4.02 3.76,-4.03 3.75,-4.01 3.74,-4.02 3.73,-4.01 3.72,-4.01 3.7,-4.01 3.69,-4.01 3.69,-4.01 3.67,-4.01 3.66,-4 3.65,-4 3.64,-3.99 3.63,-3.99 3.62,-3.99 3.61,-3.99 3.6,-3.98 3.59,-3.98 3.58,-3.97 3.57,-3.97 3.56,-3.97 3.55,-3.96 3.54,-3.96 3.54,-3.96 3.52,-3.95 3.52,-3.94 3.51,-3.94 3.5,-3.93 3.49,-3.93 3.48,-3.92 3.48,-3.91 3.47,-3.91 3.46,-3.91 3.45,-3.89 3.44,-3.89 3.44,-3.88 3.43,-3.88 3.42,-3.87 3.42,-3.86 3.4,-3.86 3.41,-3.84 3.39,-3.84 3.39,-3.83 3.38,-3.82 3.37,-3.81 3.36,-3.81 3.36,-3.79 3.36,-3.78 3.35,-3.78 3.34,-3.77 3.33,-3.75 3.33,-3.75 3.32,-3.73 3.31,-3.72 3.31,-3.71 3.31,-3.7 3.29,-3.69 3.29,-3.68 3.29,-3.66 3.28,-3.66 3.27,-3.64 3.26,-3.62 3.27,-3.62 3.25,-3.59 3.25,-3.59 3.24,-3.57 3.24,-3.55 3.23,-3.55 3.22,-3.52 3.22,-3.51 3.21,-3.49 3.21,-3.48 3.2,-3.46 3.19,-3.44 3.19,-3.43 3.18,-3.4 3.17,-3.39 3.17,-3.37 3.17,-3.34 3.15,-3.34 3.15,-3.3 3.13,-3.29 3.14,-3.26 3.12,-3.24 3.12,-3.23 3.11,-3.19 3.1,-3.17 3.1,-3.15 3.08,-3.13 3.08,-3.09 3.06,-3.07 3.06,-3.05 3.04,-3.01 3.04,-2.99 3.02,-2.95 3.02,-2.93 3,-2.89 3,-2.87 2.97,-2.83 2.97,-2.79 2.95,-2.76 2.93,-2.72 2.92,-2.69 2.9,-2.65 2.89,-2.6 2.86,-2.57 2.85,-2.52 2.83,-2.48 2.8,-2.43 2.78,-2.38 2.75,-2.34 2.73,-2.28 2.69,-2.23 2.66,-2.17 2.63,-2.11 2.59,-2.05 2.55,-1.99 2.5,-1.92 2.46,-1.85 2.39,-1.77 2.33,-1.69 2.26,-1.6 2.18,-1.51 2.09,-1.4 1.97,-1.3 1.83,-1.16 1.66,-1.01 1.4,-0.82 0.82,-0.45 -1.07,0.51 -1.57,0.69 -1.86,0.76 -2.09,0.8 -2.29,0.82 -2.46,0.81 -2.6,0.81 -2.73,0.79 -2.85,0.77 -2.95,0.73 -3.05,0.7 -3.14,0.66 -3.21,0.61 -3.28,0.56 -3.35,0.51 -3.39,0.46 -3.45,0.4 -3.48,0.34 -3.52,0.28 -3.54,0.22 -3.57,0.16 -3.57,0.1 -3.59,0.02 -3.58,-0.02 -3.58,-0.1 -3.56,-0.16 -3.55,-0.22 -3.51,-0.28 -3.49,-0.34 -3.44,-0.4 -3.4,-0.46 -3.35,-0.51 -3.28,-0.56 -3.21,-0.61 -3.14,-0.66 -3.05,-0.7 -2.95,-0.73 -2.85,-0.77 -2.73,-0.79 -2.6,-0.81 -2.46,-0.81 -2.28,-0.82 -2.1,-0.8 -1.86,-0.76 -1.57,-0.69 -1.08,-0.51 0.82,0.45 1.41,0.82 1.66,1.01 1.83,1.16 1.97,1.3 2.09,1.4 2.18,1.51 2.26,1.6 2.33,1.69 2.39,1.77 2.46,1.85 2.5,1.92 2.55,1.99 2.59,2.05 2.62,2.11 2.67,2.17 2.69,2.23 2.73,2.28 2.75,2.34 2.78,2.38 2.8,2.43 2.83,2.48 2.84,2.52 2.87,2.57 2.88,2.6 2.91,2.65 2.92,2.69 2.93,2.72 2.95,2.76 2.97,2.79 2.98,2.83 2.98,2.87 3.01,2.89 3.01,2.93 3.03,2.95 3.04,2.99 3.04,3.01 3.06,3.05 3.06,3.07 3.08,3.09 3.08,3.13 3.1,3.15 3.1,3.17 3.11,3.19 3.12,3.23 3.12,3.24 3.13,3.26 3.14,3.29 3.15,3.3 3.16,3.34 3.16,3.34 3.16,3.37 3.18,3.39 3.18,3.4 3.19,3.43 3.19,3.44 3.2,3.46 3.2,3.48 3.22,3.49 3.22,3.51 3.22,3.52 3.23,3.55 3.24,3.55 3.24,3.57 3.25,3.59 3.26,3.59 3.26,3.62 3.26,3.62 3.28,3.64 3.27,3.66 3.29,3.66 3.29,3.68 3.29,3.69 3.31,3.7 3.31,3.71 3.31,3.72 3.32,3.73 3.33,3.75 3.33,3.75 3.34,3.77 3.35,3.78 3.35,3.78 3.37,3.79 3.36,3.81 3.37,3.81 3.38,3.82 3.39,3.83 3.39,3.84 3.4,3.84 3.41,3.86 3.41,3.86 3.43,3.87 3.43,3.88 3.44,3.88 3.44,3.89 3.45,3.9 3.46,3.9 3.47,3.91 3.47,3.91 3.49,3.92 3.49,3.93 3.5,3.93 3.51,3.94 3.51,3.94 3.53,3.95 3.53,3.96 3.55,3.96 3.55,3.96 3.56,3.97 3.57,3.97 3.58,3.97 3.59,3.98 3.6,3.98 3.61,3.99 3.62,3.99 3.63,3.99 3.64,3.99 3.65,4 3.66,4 3.67,4.01 3.69,4.01 3.69,4.01 3.7,4.01 3.72,4.01 3.73,4.01 3.74,4.02 3.75,4.01 3.76,4.03 3.78,4.02 3.79,4.02 3.8,4.02 3.82,4.02 3.83,4.02 3.84,4.03 3.85,4.02 3.87,4.03 3.88,4.02 3.9,4.02 3.91,4.03 3.93,4.02 3.94,4.02 3.95,4.02 3.97,4.02 3.99,4.02 4,4.01 4.02,4.02 4.03,4.02 4.05,4.01 4.07,4.01 4.08,4 4.1,4.01 4.12,4 4.13,4 4.15,4 4.18,3.99 4.18,3.99 4.21,3.99 4.23,3.98 4.24,3.98 4.27,3.97 4.28,3.97 4.31,3.96 4.33,3.96 4.34,3.96 4.37,3.95 4.39,3.94 4.41,3.94 4.43,3.93 4.45,3.93 4.47,3.92 4.5,3.91 4.52,3.91 4.54,3.89 4.57,3.9 4.59,3.88 4.62,3.87 4.63,3.87 4.67,3.86 4.69,3.85 4.71,3.84 4.74,3.83 4.76,3.82 4.8,3.81 4.81,3.8 4.85,3.78 4.87,3.78 4.9,3.77 4.92,3.75 4.96,3.75 4.98,3.72 5.01,3.72 5.04,3.7 5.07,3.69 5.09,3.68 5.13,3.65 5.16,3.65 5.19,3.63 5.22,3.61 5.25,3.6 5.27,3.57 5.32,3.57 5.34,3.54 5.37,3.53 5.41,3.5 5.44,3.49 5.47,3.47 5.51,3.45 5.54,3.43 5.57,3.4 5.6,3.39 5.64,3.35 5.68,3.34 5.7,3.32 5.74,3.29 5.77,3.26 5.81,3.24 5.85,3.21 5.88,3.19 5.91,3.15 5.95,3.13 5.98,3.11 6.02,3.07 6.05,3.04 6.09,3.01 6.12,2.98 6.16,2.95 6.19,2.91 6.23,2.88 6.26,2.85 6.3,2.81 6.33,2.78 6.37,2.74 6.4,2.7 6.44,2.66 6.47,2.63 6.5,2.58 6.54,2.55 6.57,2.5 6.6,2.47 6.64,2.42 6.67,2.38 6.7,2.33 6.74,2.29 6.76,2.24 6.8,2.2 6.82,2.15 6.86,2.1 6.89,2.06 6.92,2 6.94,1.96 6.98,1.9 7,1.86 7.03,1.8 7.05,1.75 7.08,1.7 7.11,1.64 7.13,1.59 7.15,1.53 7.18,1.49 7.2,1.42 7.22,1.36 7.24,1.31 7.27,1.25 7.28,1.19 7.29,1.14 7.32,1.07 7.34,1.02 7.34,0.95 7.37,0.89 7.38,0.84 7.39,0.77 7.4,0.71 7.41,0.65 7.42,0.58 7.43,0.53 7.45,0.46 7.44,0.39 7.45,0.34 7.46,0.27 7.46,0.21 7.47,0.14 7.46,0.08 7.47,0.02 7.47,-0.04 7.46,-0.11 7.47,-0.18 7.46,-0.23 7.45,-0.3 7.45,-0.36 7.44,-0.43 7.44,-0.49 7.43,-0.55 7.42,-0.61 7.41,-0.68 7.39,-0.74 7.39,-0.79 7.37,-0.86 7.36,-0.92 7.34,-0.98 7.32,-1.04 7.31,-1.1 7.3,-1.16 7.27,-1.22 7.25,-1.28 7.23,-1.33 7.22,-1.39 7.19,-1.45 7.16,-1.5 7.15,-1.56 7.12,-1.61 7.09,-1.67 7.07,-1.72 7.05,-1.77 7.01,-1.83 6.99,-1.87 6.96,-1.93 6.94,-1.98 6.9,-2.03 6.88,-2.08 6.84,-2.12 6.81,-2.17 6.78,-2.22 6.76,-2.26 6.72,-2.31 6.68,-2.35 6.66,-2.4 6.63,-2.44 6.59,-2.48 6.55,-2.52 6.52,-2.57 6.49,-2.6 6.46,-2.64 6.42,-2.68 6.38,-2.72 6.36,-2.76 6.31,-2.79 6.29,-2.83 6.24,-2.86 6.21,-2.89 6.18,-2.93 6.14,-2.96 6.11,-3 6.07,-3.02 6.04,-3.05 6,-3.09 5.97,-3.11 5.93,-3.15 5.9,-3.17 5.87,-3.2 5.82,-3.22 5.8,-3.25 5.76,-3.28 5.72,-3.3 5.69,-3.32 5.66,-3.35 5.62,-3.37 5.59,-3.39 5.56,-3.41 5.53,-3.44 5.49,-3.46 5.45,-3.47 5.43,-3.5 5.39,-3.52 5.36,-3.53 5.33,-3.55 5.3,-3.57 5.27,-3.59 5.23,-3.6 5.21,-3.63 5.17,-3.63 5.15,-3.65 5.11,-3.67 5.09,-3.68 5.05,-3.69 5.03,-3.71 5,-3.72 4.97,-3.74 4.94,-3.74 4.91,-3.76 4.89,-3.77 4.86,-3.79 4.83,-3.79 4.81,-3.8 4.77,-3.82 4.76,-3.82 4.73,-3.84 4.7,-3.84 4.68,-3.86 4.65,-3.85 4.62,-3.88 4.61,-3.87 4.58,-3.89 4.56,-3.9 4.53,-3.9 4.51,-3.91 4.49,-3.91 4.46,-3.92 4.44,-3.93 4.43,-3.94 4.39,-3.94 4.38,-3.94 4.36,-3.96 4.34,-3.95 4.32,-3.97 4.29,-3.96 4.28,-3.97 4.26,-3.98 4.23,-3.98 4.22,-3.98 4.2,-3.99 4.18,-3.99 4.17,-4 4.14,-3.99 4.13,-4.01 4.11,-4 4.09,-4 4.08,-4.01 4.06,-4.01 4.04,-4.02 4.03,-4.01 4,-4.02 4,-4.01 3.98,-4.03 3.96,-4.02 3.95,-4.02 3.94,-4.02 3.91,-4.02 3.91,-4.03 3.89,-4.02 3.87,-4.02 3.87,-4.03 3.85,-4.02 3.83,-4.02 3.82,-4.03 3.81,-4.02 3.8,-4.02 3.78,-4.02 3.77,-4.02 3.76,-4.02 3.75,-4.01 3.73,-4.02 3.73,-4.01 3.71,-4.01 3.7,-4.01 3.69,-4.01 3.67,-4.01 3.67,-4 3.66,-4 3.64,-4 3.64,-3.99 3.62,-3.99 3.62,-3.99 3.6,-3.99 3.6,-3.98 3.59,-3.97 3.57,-3.98 3.57,-3.97 3.56,-3.96 3.55,-3.96 3.53,-3.96 3.53,-3.95 3.53,-3.95 3.51,-3.94 3.5,-3.93 3.5,-3.94 3.49,-3.92 3.48,-3.92 3.47,-3.91 3.46,-3.91 3.46,-3.9 3.45,-3.89 3.44,-3.89 3.43,-3.88 3.43,-3.87 3.42,-3.87 3.41,-3.86 3.4,-3.84"
             style="fill:none;stroke:#d4d4d4;stroke-width:10.5;stroke-linecap:square;stroke-linejoin:miter;stroke-miterlimit:5;stroke-dasharray:none;stroke-opacity:1"
             id="path28" />
          <path
             d="m 804.895,1650.48 3.312,3.74 3.316,3.75 3.321,3.76 3.328,3.75 3.324,3.77 3.332,3.76 3.336,3.76 3.34,3.78 3.344,3.77 3.347,3.77 3.352,3.78 3.359,3.77 3.36,3.79 3.367,3.78 3.371,3.78 3.375,3.79 3.383,3.78 3.386,3.79 3.391,3.79 3.399,3.79 3.398,3.79 3.41,3.79 3.414,3.79 3.418,3.79 3.426,3.8 3.434,3.79 3.437,3.8 3.445,3.79 3.45,3.79 3.457,3.79 3.464,3.79 3.473,3.79 3.477,3.79 3.484,3.79 3.492,3.79 3.496,3.79 3.508,3.78 3.516,3.79 3.519,3.78 3.532,3.78 3.539,3.78 3.546,3.78 3.551,3.77 3.563,3.78 3.57,3.77 3.582,3.77 3.586,3.76 3.598,3.76 3.605,3.77 3.613,3.75 3.625,3.75 3.637,3.76 3.641,3.74 3.652,3.75 3.664,3.74 3.672,3.74 3.688,3.73 3.69,3.72 3.7,3.73 3.72,3.72 3.72,3.71 3.74,3.71 3.74,3.71 3.76,3.7 3.77,3.7 3.78,3.69 3.79,3.69 3.8,3.67 3.82,3.68 3.82,3.66 3.84,3.67 3.85,3.65 3.87,3.65 3.87,3.64 3.89,3.64 3.9,3.63 3.91,3.62 3.93,3.62 3.95,3.61 3.95,3.6 3.97,3.59 3.98,3.59 3.99,3.58 4.01,3.57 4.02,3.56 4.04,3.55 4.05,3.54 4.07,3.53 4.08,3.53 4.1,3.52 4.11,3.5 4.13,3.5 4.14,3.49 4.16,3.47 4.17,3.47 4.19,3.45 4.2,3.45 4.22,3.44 4.24,3.42 4.25,3.41 4.27,3.4 4.29,3.39 4.3,3.38 4.32,3.36 4.33,3.35 4.36,3.34 4.37,3.33 4.38,3.31 4.41,3.3 4.43,3.28 4.43,3.27 4.46,3.26 4.48,3.24 4.49,3.23 4.52,3.22 4.53,3.19 4.54,3.19 4.57,3.17 4.59,3.14 4.6,3.14 4.63,3.12 4.64,3.1 4.66,3.09 4.68,3.06 4.7,3.05 4.71,3.03 4.74,3.02 4.76,2.99 4.77,2.97 4.8,2.96 4.81,2.94 4.84,2.91 4.85,2.9 4.87,2.88 4.89,2.85 4.92,2.84 4.93,2.81 4.95,2.79 4.97,2.77 4.99,2.75 5.01,2.73 5.03,2.7 5.05,2.68 5.07,2.66 5.09,2.63 5.1,2.6 5.13,2.59 5.15,2.56 5.16,2.53 5.19,2.51 5.21,2.48 5.22,2.45 5.25,2.43 5.26,2.41 5.28,2.37 5.3,2.35 5.32,2.32 5.34,2.29 5.36,2.26 5.37,2.24 5.4,2.21 5.41,2.17 5.43,2.15 5.45,2.12 5.46,2.08 5.49,2.05 5.5,2.03 5.52,1.99 5.54,1.96 5.55,1.93 5.57,1.89 5.59,1.87 5.6,1.83 5.62,1.8 5.64,1.76 5.65,1.73 5.66,1.69 5.69,1.67 5.69,1.62 5.72,1.6 5.72,1.55 5.74,1.52 5.76,1.49 5.76,1.44 5.79,1.42 5.79,1.37 5.8,1.34 5.82,1.3 5.84,1.27 5.84,1.22 5.86,1.19 5.86,1.15 5.88,1.12 5.89,1.07 5.9,1.03 5.9,1 5.92,0.95 5.93,0.93 5.93,0.87 5.95,0.84 5.95,0.8 5.96,0.76 5.96,0.72 5.98,0.68 5.98,0.64 5.98,0.59 5.99,0.56 6,0.52 6,0.47 6.01,0.44 6.01,0.39 6.02,0.36 6.01,0.31 6.02,0.27 6.03,0.23 6.02,0.19 6.03,0.14 6.03,0.11 6.02,0.06 6.03,0.02 6.04,-0.02 6.02,-0.06 6.03,-0.1 6.03,-0.14 6.03,-0.19 6.02,-0.22 6.02,-0.27 6.01,-0.31 6.02,-0.35 6.01,-0.39 6.01,-0.43 6,-0.47 6,-0.52 5.99,-0.55 5.99,-0.59 5.98,-0.64 5.97,-0.67 5.97,-0.72 5.96,-0.76 5.95,-0.79 5.94,-0.84 5.94,-0.87 5.93,-0.92 5.91,-0.95 5.91,-1 5.9,-1.03 5.89,-1.07 5.88,-1.11 5.87,-1.15 5.85,-1.18 5.85,-1.23 5.83,-1.25 5.82,-1.3 5.81,-1.34 5.8,-1.37 5.78,-1.41 5.77,-1.45 5.75,-1.48 5.74,-1.51 5.73,-1.56 5.71,-1.59 5.7,-1.62 5.68,-1.66 5.67,-1.69 5.65,-1.73 5.64,-1.76 5.62,-1.8 5.6,-1.82 5.59,-1.86 5.57,-1.9 5.56,-1.92 5.54,-1.96 5.52,-1.99 5.5,-2.02 5.49,-2.05 5.46,-2.09 5.46,-2.11 5.43,-2.14 5.41,-2.18 5.4,-2.2 5.37,-2.23 5.36,-2.26 5.34,-2.29 5.33,-2.32 5.3,-2.35 5.28,-2.37 5.27,-2.4 5.24,-2.43 5.23,-2.45 5.21,-2.48 5.18,-2.51 5.17,-2.53 5.15,-2.55 5.13,-2.59 5.11,-2.6 5.09,-2.63 5.07,-2.66 5.05,-2.67 5.03,-2.71 5.01,-2.72 4.99,-2.74 4.98,-2.77 4.95,-2.79 4.93,-2.81 4.92,-2.84 4.89,-2.85 4.88,-2.88 4.85,-2.89 4.83,-2.92 4.82,-2.93 4.8,-2.96 4.77,-2.97 4.76,-3 4.74,-3.01 4.72,-3.02 4.7,-3.05 4.68,-3.07 4.66,-3.08 4.65,-3.1 4.62,-3.12 4.61,-3.13 4.58,-3.15 4.57,-3.17 4.55,-3.18 4.54,-3.19 4.51,-3.22 4.49,-3.22 4.48,-3.25 4.46,-3.25 4.45,-3.27 4.42,-3.29 4.4,-3.3 4.4,-3.31 4.37,-3.32 4.35,-3.34 4.34,-3.35 4.32,-3.36 4.3,-3.38 4.29,-3.39 4.27,-3.39 4.26,-3.42 4.23,-3.42 4.22,-3.43 4.21,-3.45 4.19,-3.45 4.17,-3.47 4.16,-3.47 4.15,-3.49 4.12,-3.49 4.12,-3.51 4.09,-3.52 4.09,-3.52 4.06,-3.54 4.06,-3.54 4.04,-3.55 4.02,-3.56 4.01,-3.57 4,-3.58 3.98,-3.58 3.97,-3.59 3.95,-3.6 3.94,-3.61 3.93,-3.62 3.92,-3.62 3.9,-3.63 3.89,-3.63 3.88,-3.64 3.86,-3.65 3.85,-3.66 3.84,-3.66 3.83,-3.67 3.82,-3.67 3.8,-3.68 3.79,-3.69 3.78,-3.68 3.77,-3.7 3.76,-3.7 3.75,-3.71 3.74,-3.71 3.72,-3.71 3.72,-3.72 3.7,-3.73 3.69,-3.72 3.69,-3.74 3.67,-3.73 3.66,-3.74 3.65,-3.75 3.65,-3.74 3.63,-3.75 3.63,-3.76 3.62,-3.75 3.6,-3.76 3.6,-3.77 3.59,-3.76 3.58,-3.77 3.57,-3.77 3.56,-3.77 3.56,-3.78 3.54,-3.78 3.54,-3.78 3.53,-3.77 3.53,-3.79 3.51,-3.78 3.51,-3.79 3.5,-3.78 3.49,-3.79 3.49,-3.79 3.47,-3.79 3.48,-3.79 3.46,-3.79 3.45,-3.8 3.46,-3.79 3.44,-3.79 3.44,-3.8 3.43,-3.79 3.43,-3.79 3.42,-3.79 3.41,-3.79 3.41,-3.8 3.41,-3.79 3.39,-3.78 3.4,-3.79 3.38,-3.79 3.38,-3.79 3.38,-3.78 3.37,-3.79 3.37,-3.78 3.36,-3.78 3.35,-3.78 3.36,-3.78 3.35,-3.77 3.34,-3.77 3.34,-3.77 3.34,-3.77 3.33,-3.76 3.33,-3.76 3.32,-3.76 3.32,-3.76 3.32,-3.75 3.31,-3.75 3.31,-3.74 3.31,-3.74 3.31,-3.73 3.3,-3.74 3.29,-3.72 3.3,-3.72 3.29,-3.72 3.29,-3.71 3.29,-3.71 3.28,-3.7 3.28,-3.7 3.29,-3.69 3.27,-3.69 3.28,-3.67 3.27,-3.68 3.27,-3.66 3.27,-3.66 3.27,-3.65 3.27,-3.65 3.27,-3.63 3.26,-3.63 3.26,-3.63 3.26,-3.61 3.26,-3.6 3.26,-3.6 3.26,-3.59 3.25,-3.57 3.26,-3.57 3.26,-3.56 3.25,-3.55 3.25,-3.53 3.26,-3.53 3.25,-3.51 3.25,-3.51 3.25,-3.49 3.25,-3.48 3.25,-3.46 3.25,-3.46 3.25,-3.43 3.25,-3.43 3.25,-3.41 3.25,-3.4 3.25,-3.38 3.25,-3.36 3.25,-3.35 3.25,-3.33 3.25,-3.32 3.25,-3.29 3.25,-3.28 3.24,-3.26 3.25,-3.23 3.25,-3.22 3.24,-3.2 3.25,-3.16 3.24,-3.16 3.25,-3.12 3.24,-3.1 3.24,-3.07 3.24,-3.04 3.24,-3.02 3.24,3.02 3.24,3.04 3.24,3.07 3.24,3.1 3.24,3.12 3.25,3.16 3.25,3.16 3.24,3.2 3.25,3.22 3.25,3.23 3.24,3.26 3.25,3.28 3.25,3.29 3.25,3.32 3.25,3.33 3.25,3.35 3.25,3.36 3.25,3.38 3.25,3.4 3.25,3.41 3.25,3.43 3.25,3.43 3.25,3.46 3.25,3.46 3.25,3.48 3.25,3.49 3.25,3.51 3.25,3.51 3.25,3.53 3.26,3.53 3.25,3.55 3.26,3.56 3.25,3.57 3.26,3.57 3.26,3.59 3.26,3.6 3.26,3.6 3.26,3.61 3.26,3.63 3.26,3.63 3.27,3.63 3.27,3.65 3.26,3.65 3.27,3.66 3.28,3.66 3.27,3.68 3.28,3.67 3.28,3.69 3.28,3.69 3.28,3.7 3.28,3.7 3.29,3.71 3.29,3.71 3.29,3.72 3.29,3.72 3.3,3.72 3.31,3.74 3.3,3.73 3.3,3.74 3.32,3.74 3.31,3.75 3.32,3.75 3.32,3.76 3.32,3.76 3.33,3.76 3.33,3.76 3.34,3.77 3.34,3.77 3.34,3.77 3.35,3.77 3.35,3.78 3.36,3.78 3.36,3.78 3.37,3.78 3.37,3.79 3.38,3.78 3.38,3.79 3.38,3.79 3.4,3.79 3.39,3.78 3.41,3.79 3.41,3.8 3.41,3.79 3.42,3.79 3.42,3.79 3.44,3.79 3.44,3.8 3.44,3.79 3.45,3.8 3.46,3.79 3.47,3.79 3.47,3.79 3.47,3.79 3.49,3.79 3.49,3.79 3.5,3.78 3.51,3.79 3.51,3.78 3.53,3.79 3.53,3.77 3.53,3.78 3.55,3.78 3.56,3.78 3.56,3.77 3.57,3.77 3.58,3.77 3.59,3.76 3.6,3.77 3.6,3.76 3.62,3.75 3.63,3.76 3.63,3.75 3.64,3.74 3.66,3.75 3.66,3.74 3.67,3.73 3.69,3.74 3.69,3.72 3.7,3.73 3.72,3.72 3.73,3.71 3.73,3.71 3.75,3.71 3.75,3.7 3.78,3.7 3.77,3.68 3.8,3.69 3.8,3.68 3.82,3.67 3.83,3.67 3.84,3.66 3.85,3.66 3.86,3.65 3.88,3.64 3.89,3.63 3.9,3.63 3.91,3.62 3.94,3.62 3.93,3.61 3.96,3.6 3.97,3.59 3.98,3.58 4,3.58 4.01,3.57 4.03,3.56 4.03,3.55 4.06,3.54 4.07,3.54 4.08,3.52 4.1,3.52 4.11,3.51 4.12,3.49 4.15,3.49 4.15,3.47 4.18,3.47 4.19,3.45 4.21,3.45 4.22,3.43 4.24,3.42 4.25,3.42 4.27,3.39 4.29,3.39 4.3,3.38 4.32,3.36 4.34,3.35 4.35,3.34 4.38,3.32 4.39,3.31 4.4,3.3 4.42,3.29 4.45,3.27 4.46,3.25 4.47,3.25 4.5,3.22 4.51,3.22 4.54,3.19 4.54,3.18 4.57,3.17 4.59,3.15 4.61,3.13 4.62,3.12 4.64,3.1 4.67,3.08 4.68,3.07 4.7,3.05 4.72,3.02 4.74,3.01 4.76,3 4.77,2.97 4.8,2.96 4.82,2.93 4.83,2.92 4.85,2.89 4.88,2.88 4.89,2.85 4.91,2.84 4.94,2.81 4.95,2.79 4.97,2.77 5,2.74 5.01,2.72 5.03,2.71 5.05,2.67 5.07,2.66 5.09,2.63 5.11,2.6 5.13,2.59 5.15,2.55 5.16,2.53 5.19,2.51 5.21,2.48 5.23,2.45 5.24,2.43 5.27,2.4 5.28,2.37 5.3,2.35 5.32,2.32 5.34,2.29 5.36,2.26 5.38,2.23 5.4,2.2 5.41,2.18 5.43,2.14 5.45,2.11 5.47,2.09 5.49,2.05 5.5,2.02 5.52,1.99 5.54,1.96 5.55,1.92 5.57,1.9 5.59,1.86 5.61,1.82 5.62,1.8 5.64,1.76 5.65,1.73 5.67,1.69 5.68,1.66 5.7,1.62 5.71,1.59 5.72,1.56 5.75,1.51 5.75,1.48 5.77,1.45 5.78,1.41 5.8,1.37 5.81,1.34 5.82,1.3 5.83,1.25 5.85,1.23 5.85,1.18 5.87,1.15 5.88,1.11 5.88,1.07 5.91,1.03 5.9,1 5.92,0.95 5.93,0.92 5.93,0.87 5.95,0.84 5.95,0.79 5.96,0.76 5.97,0.72 5.97,0.67 5.98,0.64 5.99,0.59 5.99,0.55 6,0.52 6,0.47 6.01,0.43 6.01,0.39 6.01,0.35 6.02,0.31 6.02,0.27 6.03,0.22 6.02,0.19 6.03,0.14 6.02,0.1 6.03,0.06 6.04,0.02 6.02,-0.02 6.03,-0.06 6.03,-0.11 6.03,-0.14 6.02,-0.19 6.03,-0.23 6.02,-0.27 6.02,-0.31 6.01,-0.36 6.01,-0.39 6.01,-0.44 6,-0.47 6,-0.52 5.99,-0.56 5.98,-0.59 5.98,-0.64 5.98,-0.68 5.96,-0.72 5.96,-0.76 5.95,-0.8 5.95,-0.84 5.93,-0.87 5.93,-0.93 5.91,-0.95 5.91,-1 5.9,-1.03 5.89,-1.07 5.88,-1.12 5.86,-1.15 5.86,-1.19 5.84,-1.22 5.84,-1.27 5.81,-1.3 5.81,-1.34 5.79,-1.37 5.79,-1.42 5.77,-1.44 5.75,-1.49 5.74,-1.52 5.72,-1.55 5.72,-1.6 5.69,-1.62 5.68,-1.67 5.67,-1.69 5.65,-1.73 5.64,-1.76 5.62,-1.8 5.6,-1.83 5.59,-1.87 5.57,-1.89 5.55,-1.93 5.54,-1.96 5.52,-1.99 5.5,-2.03 5.48,-2.05 5.47,-2.09 5.45,-2.11 5.43,-2.15 5.41,-2.17 5.4,-2.21 5.37,-2.24 5.36,-2.26 5.34,-2.29 5.32,-2.32 5.3,-2.35 5.28,-2.37 5.26,-2.41 5.25,-2.43 5.22,-2.45 5.21,-2.48 5.18,-2.51 5.17,-2.53 5.15,-2.56 5.13,-2.59 5.1,-2.6 5.09,-2.63 5.07,-2.66 5.05,-2.68 5.03,-2.7 5.01,-2.73 4.99,-2.75 4.97,-2.77 4.95,-2.79 4.93,-2.81 4.91,-2.84 4.9,-2.85 4.87,-2.88 4.85,-2.9 4.84,-2.91 4.81,-2.94 4.8,-2.96 4.77,-2.97 4.76,-2.99 4.74,-3.02 4.71,-3.03 4.7,-3.05 4.68,-3.06 4.66,-3.09 4.64,-3.1 4.63,-3.12 4.6,-3.14 4.59,-3.14 4.56,-3.17 4.55,-3.19 4.53,-3.19 4.51,-3.22 4.5,-3.23 4.48,-3.24 4.46,-3.26 4.43,-3.27 4.43,-3.28 4.4,-3.3 4.39,-3.31 4.37,-3.33 4.36,-3.34 4.33,-3.35 4.32,-3.36 4.3,-3.38 4.29,-3.39 4.27,-3.4 4.25,-3.41 4.24,-3.42 4.22,-3.44 4.2,-3.45 4.19,-3.45 4.17,-3.47 4.16,-3.47 4.14,-3.49 4.13,-3.5 4.11,-3.51 4.09,-3.51 4.09,-3.53 4.07,-3.53 4.05,-3.54 4.04,-3.55 4.02,-3.56 4.01,-3.57 3.99,-3.58 3.98,-3.59 3.97,-3.59 3.96,-3.6 3.93,-3.61 3.93,-3.62 3.92,-3.62 3.9,-3.63 3.89,-3.64 3.88,-3.64 3.86,-3.65 3.85,-3.65 3.84,-3.67 3.82,-3.66 3.82,-3.68 3.8,-3.68 3.79,-3.68 3.78,-3.69 3.77,-3.7 3.76,-3.7 3.75,-3.71 3.73,-3.71 3.72,-3.71 3.72,-3.72 3.7,-3.73 3.69,-3.72 3.69,-3.73 3.67,-3.74 3.66,-3.74 3.66,-3.75 3.64,-3.74 3.63,-3.76 3.63,-3.75 3.61,-3.75 3.61,-3.77 3.59,-3.76 3.59,-3.76 3.58,-3.77 3.57,-3.77 3.56,-3.78 3.56,-3.77 3.54,-3.78 3.54,-3.78 3.53,-3.78 3.52,-3.78 3.52,-3.79 3.5,-3.78 3.5,-3.79 3.5,-3.79 3.48,-3.79 3.48,-3.79 3.47,-3.79 3.46,-3.79 3.46,-3.79 3.45,-3.79 3.44,-3.79 3.44,-3.8 3.43,-3.79 3.43,-3.8 3.42,-3.79 3.41,-3.79 3.41,-3.79 3.4,-3.79 3.4,-3.79 3.39,-3.79 3.39,-3.79 3.38,-3.78 3.38,-3.79 3.36,-3.78 3.37,-3.78 3.36,-3.79 3.36,-3.77 3.35,-3.78 3.35,-3.77 3.35,-3.77 3.34,-3.78 3.33,-3.76 3.33,-3.76 3.33,-3.77 3.32,-3.75 3.32,-3.76 3.32,-3.75 3.31,-3.74"
             style="fill:none;stroke:#ff7f00;stroke-width:10.5;stroke-linecap:square;stroke-linejoin:miter;stroke-miterlimit:5;stroke-dasharray:none;stroke-opacity:1"
             id="path30" />
        </g>
      </g>
      <path
         d="m 11.3203,21.3203 h 5937.36 v 2637.36 H 11.3203 Z"
         style="fill:none;stroke:#000000;stroke-width:2.75;stroke-linecap:square;stroke-linejoin:miter;stroke-miterlimit:5;stroke-dasharray:none;stroke-opacity:1"
         id="path32" />
    </g>
  </g>
</svg>
